<svg width="454" height="158" viewBox="0 0 454 158" fill="none" xmlns="http://www.w3.org/2000/svg">
<path d="M192.561 74.7726H173.589L163.24 57.3223H132.094L139.297 45.0462H155.936L142.442 22.3202L111.498 74.7726H93.5406L135.442 5.07277C137.471 1.69092 140.007 0 143.051 0C146.094 0 148.631 1.69092 150.66 5.07277L192.561 74.7726ZM287.737 74.7726H265.316L247.358 54.6844H224.429V41.1909H253.04C256.895 41.1909 259.837 40.1087 261.866 37.9443C263.964 35.7799 265.011 32.7362 265.011 28.8133C265.011 24.958 263.964 22.0158 261.866 19.9867C259.77 17.89 256.828 16.8416 253.04 16.8416H215.197V74.7726H199.472V1.01455H253.04C261.63 1.01455 268.36 3.4833 273.229 8.4208C278.099 13.2907 280.534 19.9528 280.534 28.4075C280.534 34.3595 279.215 39.4323 276.577 43.6258C273.94 47.7516 270.287 50.7277 265.62 52.5539L287.737 74.7726ZM357.517 43.5243H318.355V31.0453H357.517V43.5243ZM360.459 74.7726H293.397V1.01455H360.358V16.8416H309.123V58.9456H360.459V74.7726Z" fill="white"/>
<path d="M81.7115 156.143H36.4624C25.9796 156.143 17.2874 152.558 10.3884 145.388C3.48947 138.219 0.039978 129.257 0.039978 118.503C0.039978 107.748 3.4565 99.0571 10.287 92.4286C17.1187 85.7326 25.8439 82.3845 36.4624 82.3845H77.146V98.2116H36.4624C30.5108 98.2116 25.5737 100.207 21.65 104.197C17.7947 108.12 15.867 113.159 15.867 119.314C15.867 125.402 17.7947 130.44 21.65 134.431C25.5737 138.354 30.5108 140.316 36.4624 140.316H65.8845V124.894H34.7377V112.415H81.7115V156.143ZM180.795 156.143H158.374L140.416 136.054H117.487V122.561H146.098C149.953 122.561 152.895 121.479 154.924 119.314C157.022 117.15 158.069 114.106 158.069 110.183C158.069 106.328 157.022 103.386 154.924 101.357C152.828 99.26 149.886 98.2116 146.098 98.2116H108.255V156.143H92.5292V82.3845H146.098C154.688 82.3845 161.417 84.8533 166.287 89.7908C171.157 94.6606 173.592 101.323 173.592 109.777C173.592 115.729 172.273 120.802 169.635 124.996C166.997 129.122 163.345 132.098 158.678 133.924L180.795 156.143ZM237.226 156.143H218.964C208.48 156.143 199.789 152.558 192.89 145.388C185.991 138.219 182.542 129.257 182.542 118.503C182.542 107.748 185.957 99.0571 192.789 92.4286C199.619 85.7326 208.344 82.3845 218.964 82.3845H237.226C248.115 82.3845 256.941 85.7326 263.706 92.4286C270.536 99.1247 273.953 107.816 273.953 118.503C273.953 129.257 270.469 138.219 263.503 145.388C256.604 152.558 247.845 156.143 237.226 156.143ZM218.964 140.316H237.226C243.313 140.316 248.318 138.354 252.241 134.431C256.164 130.44 258.126 125.402 258.126 119.314C258.126 113.159 256.164 108.12 252.241 104.197C248.386 100.207 243.381 98.2116 237.226 98.2116H218.964C213.011 98.2116 208.074 100.207 204.152 104.197C200.296 108.12 198.369 113.159 198.369 119.314C198.369 125.402 200.296 130.44 204.152 134.431C208.074 138.354 213.011 140.316 218.964 140.316ZM347.777 123.575V82.3845H363.198V123.575C363.198 135.141 360.019 143.63 353.661 149.041C347.371 154.452 337.057 157.157 322.717 157.157C308.446 157.157 298.131 154.452 291.773 149.041C285.416 143.63 282.237 135.141 282.237 123.575V82.3845H298.571V123.575C298.571 130.204 300.33 134.871 303.847 137.576C307.432 140.282 313.891 141.634 323.225 141.634C332.491 141.634 338.883 140.282 342.4 137.576C345.985 134.871 347.777 130.204 347.777 123.575ZM426.263 136.257H398.768V120.938H426.263C430.051 120.938 433.027 119.923 435.191 117.894C437.423 115.797 438.539 113.024 438.539 109.575C438.539 106.057 437.457 103.284 435.292 101.255C433.129 99.2261 430.118 98.2116 426.263 98.2116H389.536V156.143H373.81V82.3845H426.263C434.921 82.3845 441.684 84.7856 446.554 89.5879C451.492 94.3224 453.96 100.816 453.96 109.067C453.96 117.251 451.492 123.846 446.554 128.851C441.617 133.789 434.853 136.257 426.263 136.257Z" fill="white"/>
</svg>
