<svg width="379" height="374" viewBox="0 0 379 374" fill="none" xmlns="http://www.w3.org/2000/svg">
<path d="M32.3859 129.716C31.9176 128.779 36.6002 120.819 43.6241 118.478C50.648 116.136 52.0526 116.136 53.9256 113.795C55.7987 111.454 55.7986 108.644 61.4178 106.303C67.0369 103.962 79.2116 106.303 82.0212 104.898C84.8307 103.493 89.0451 97.406 90.9181 98.3425C92.7911 99.279 94.1959 99.2789 96.069 101.62C97.942 103.962 100.283 108.176 100.283 110.985C100.283 113.795 105.902 115.2 109.18 118.478C112.458 121.755 122.291 134.398 124.165 140.486C126.038 146.573 128.379 157.811 133.53 162.494C137.65 166.24 139.617 167.489 140.085 167.645C140.554 167.957 141.584 168.207 141.958 166.708C142.427 164.835 140.554 161.557 142.895 155.938C145.236 150.319 155.07 131.589 155.07 121.287C155.07 110.985 159.752 90.8503 157.879 81.0168C156.006 71.1834 145.236 49.6435 144.768 39.81C144.3 29.9766 142.427 9.84141 156.006 4.69056C169.586 -0.460291 171.459 -0.460292 177.078 0.476227C182.697 1.41275 188.316 7.96841 189.253 10.3097C190.189 12.651 181.76 6.09537 175.673 12.651C169.586 19.2066 169.586 18.2701 168.649 23.421C167.713 28.5718 167.244 41.2148 170.99 49.6435C173.987 56.3864 175.673 59.9452 176.141 60.8817C177.234 55.7309 180.543 44.7736 185.038 42.1513C190.657 38.8735 192.999 37.0005 199.086 37.937C205.173 38.8735 208.451 42.6196 209.388 44.9609C210.324 47.3022 195.34 41.2148 192.999 50.58C190.657 59.9452 191.126 61.35 191.594 64.1595C192.062 66.9691 192.965 77.2708 193.467 79.1438C193.969 81.0168 194.403 87.1042 195.808 88.0408C197.213 88.9773 198.618 76.3343 206.578 74.9295C214.539 73.5247 217.816 73.5247 220.158 75.866C222.499 78.2073 223.436 82.4216 223.436 82.8899C223.436 83.3582 217.816 79.6121 213.602 82.8899C209.388 86.1677 208.919 85.6995 208.451 89.9138C207.983 94.1281 207.046 110.049 210.324 116.605C213.602 123.16 213.134 111.922 220.158 111.454C227.182 110.985 232.801 115.668 231.864 119.882C230.928 124.097 230.459 115.2 224.372 119.882C218.285 124.565 216.88 146.573 219.221 153.129C221.562 159.684 220.158 149.851 227.65 150.319C235.142 150.788 237.952 155.47 237.483 157.811C237.015 160.153 231.864 153.129 228.586 157.811C225.309 162.494 223.904 170.454 225.777 173.732C227.65 177.01 243.102 172.327 274.476 178.415C305.849 184.502 308.19 193.867 320.833 192.931C333.476 191.994 338.159 167.645 330.667 157.811C323.175 147.978 288.992 130.652 282.904 125.97C276.817 121.287 232.332 90.3821 242.166 60.8817C251.999 31.3814 258.555 37.4687 263.238 39.81C267.92 42.1513 265.111 60.8817 263.238 67.9056C261.365 74.9295 259.023 94.5964 288.992 111.454C318.96 128.311 340.969 134.398 344.715 146.105C348.461 157.811 358.762 173.732 351.739 196.209C344.715 218.685 339.096 207.447 337.691 224.304C336.286 241.162 329.262 245.376 332.54 255.209C335.818 265.043 349.866 259.424 353.612 265.043C357.358 270.662 360.167 275.344 362.04 283.773C363.913 292.202 369.064 311.4 371.874 316.083C374.683 320.766 377.025 312.805 378.429 316.083C379.834 319.361 378.429 324.512 376.556 326.853C374.683 329.194 374.683 333.877 376.556 337.155C378.429 340.433 368.596 359.631 365.318 361.972C362.04 364.314 359.699 373.211 351.739 371.338C343.778 369.465 338.627 365.719 339.564 359.163C340.5 352.607 337.691 349.798 341.437 346.52C345.183 343.242 357.826 340.433 357.358 331.536C356.889 322.639 342.373 287.519 332.54 286.583C322.706 285.646 321.77 284.71 319.429 285.646C317.087 286.583 312.873 294.075 312.873 302.504C312.873 310.932 311 314.678 312.873 321.702C314.746 328.726 284.777 345.583 282.436 350.734C280.095 355.885 288.055 356.353 278.69 359.163C269.325 361.972 261.833 369.933 247.785 371.338C233.737 372.742 225.309 374.147 223.904 366.655C222.499 359.163 225.777 350.266 232.801 348.393C239.825 346.52 242.634 354.48 254.341 348.393C266.047 342.306 289.46 331.536 288.055 316.083C286.651 300.63 287.119 276.749 278.69 275.813C270.261 274.876 251.531 264.106 243.102 258.019C234.674 251.932 214.539 275.344 199.554 278.154C184.57 280.964 153.665 280.495 146.641 278.154C139.617 275.813 145.704 299.694 139.617 305.313C133.53 310.932 120.887 344.647 116.204 346.52C111.522 348.393 113.863 366.655 94.6642 368.996C75.4655 371.338 68.4417 376.02 62.3543 371.338C56.2669 366.655 50.6478 365.25 53.4574 356.822C56.2669 348.393 62.8225 340.901 70.7829 343.71C78.7434 346.52 87.6403 357.758 92.3229 350.734C97.0055 343.71 110.117 308.591 109.18 301.567C108.244 294.543 112.926 280.495 109.18 278.154C105.434 275.813 107.307 275.813 102.156 275.813C97.0055 275.813 82.4894 275.344 74.0608 264.106C65.6321 252.868 52.5208 243.503 42.2191 245.844C33.9778 247.717 33.7905 242.879 34.727 240.225C31.137 239.601 23.3951 239.85 21.1475 245.844C18.3379 253.336 16.9331 258.487 21.1475 260.36C25.3618 262.233 13.1868 262.701 16.9329 264.106C20.679 265.511 15.9963 267.384 12.2502 267.384C8.50414 267.384 0.543734 267.384 0.543734 260.36C0.543734 253.336 -3.20266 239.289 8.9724 232.733C21.1475 226.177 30.9809 222.431 42.2191 224.304C53.4574 226.177 70.7826 235.074 77.3382 232.733C83.8939 230.392 83.4256 187.78 82.4891 180.756C81.5526 173.732 81.085 158.748 70.7829 155.938C60.4809 153.129 64.227 162.494 52.0522 159.216C39.8775 155.938 41.2823 152.661 40.3458 149.383C39.4092 146.105 48.7744 150.788 51.1157 147.041C53.457 143.295 52.0522 140.486 50.6475 140.486C49.2427 140.486 46.4331 141.422 45.9649 142.359C45.4966 143.295 43.6236 146.105 41.2823 145.168C38.941 144.232 34.2584 140.018 34.2584 138.145C34.2584 136.271 35.1944 135.335 33.7901 132.994C32.6667 131.121 32.3859 130.028 32.3859 129.716Z" fill="url(#paint0_linear_1067_23827)"/>
<path d="M107.57 229V212.71H101.12V208H119.93V212.71H113.51V229H107.57Z" fill="white" fill-opacity="0.05"/>
<path d="M120.323 229L129.593 208H135.443L144.743 229H138.563L131.303 210.91H133.643L126.383 229H120.323ZM125.393 224.92L126.923 220.54H137.183L138.713 224.92H125.393Z" fill="white" fill-opacity="0.05"/>
<path d="M151.596 229V212.71H145.146V208H163.956V212.71H157.536V229H151.596Z" fill="white" fill-opacity="0.05"/>
<path d="M164.349 229L173.619 208H179.469L188.769 229H182.589L175.329 210.91H177.669L170.409 229H164.349ZM169.419 224.92L170.949 220.54H181.209L182.739 224.92H169.419Z" fill="white" fill-opacity="0.05"/>
<path d="M192.207 229V208H201.597C204.657 208 207.007 208.7 208.647 210.1C210.307 211.48 211.137 213.37 211.137 215.77C211.137 217.35 210.757 218.72 209.997 219.88C209.237 221.02 208.157 221.9 206.757 222.52C205.377 223.12 203.727 223.42 201.807 223.42H195.507L198.147 220.93V229H192.207ZM205.197 229L199.977 221.35H206.307L211.557 229H205.197ZM198.147 221.56L195.507 218.83H201.447C202.687 218.83 203.607 218.56 204.207 218.02C204.827 217.48 205.137 216.73 205.137 215.77C205.137 214.79 204.827 214.03 204.207 213.49C203.607 212.95 202.687 212.68 201.447 212.68H195.507L198.147 209.95V221.56Z" fill="white" fill-opacity="0.05"/>
<path d="M223.548 229.42C221.828 229.42 220.168 229.21 218.568 228.79C216.988 228.35 215.698 227.79 214.698 227.11L216.648 222.73C217.588 223.33 218.668 223.83 219.888 224.23C221.128 224.61 222.358 224.8 223.578 224.8C224.398 224.8 225.058 224.73 225.558 224.59C226.058 224.43 226.418 224.23 226.638 223.99C226.878 223.73 226.998 223.43 226.998 223.09C226.998 222.61 226.778 222.23 226.338 221.95C225.898 221.67 225.328 221.44 224.628 221.26C223.928 221.08 223.148 220.9 222.288 220.72C221.448 220.54 220.598 220.31 219.738 220.03C218.898 219.75 218.128 219.39 217.428 218.95C216.728 218.49 216.158 217.9 215.718 217.18C215.278 216.44 215.058 215.51 215.058 214.39C215.058 213.13 215.398 211.99 216.078 210.97C216.778 209.95 217.818 209.13 219.198 208.51C220.578 207.89 222.298 207.58 224.358 207.58C225.738 207.58 227.088 207.74 228.408 208.06C229.748 208.36 230.938 208.81 231.978 209.41L230.148 213.82C229.148 213.28 228.158 212.88 227.178 212.62C226.198 212.34 225.248 212.2 224.328 212.2C223.508 212.2 222.848 212.29 222.348 212.47C221.848 212.63 221.488 212.85 221.268 213.13C221.048 213.41 220.938 213.73 220.938 214.09C220.938 214.55 221.148 214.92 221.568 215.2C222.008 215.46 222.578 215.68 223.278 215.86C223.998 216.02 224.778 216.19 225.618 216.37C226.478 216.55 227.328 216.78 228.168 217.06C229.028 217.32 229.808 217.68 230.508 218.14C231.208 218.58 231.768 219.17 232.188 219.91C232.628 220.63 232.848 221.54 232.848 222.64C232.848 223.86 232.498 224.99 231.798 226.03C231.118 227.05 230.088 227.87 228.708 228.49C227.348 229.11 225.628 229.42 223.548 229.42Z" fill="white" fill-opacity="0.05"/>
<path d="M241.524 229V212.71H235.074V208H253.884V212.71H247.464V229H241.524Z" fill="white" fill-opacity="0.05"/>
<path d="M254.276 229L263.546 208H269.396L278.696 229H272.516L265.256 210.91H267.596L260.336 229H254.276ZM259.346 224.92L260.876 220.54H271.136L272.666 224.92H259.346Z" fill="white" fill-opacity="0.05"/>
<path d="M282.134 229V208H287.024L298.604 221.98H296.294V208H302.114V229H297.224L285.644 215.02H287.954V229H282.134Z" fill="white" fill-opacity="0.05"/>
<defs>
<linearGradient id="paint0_linear_1067_23827" x1="-458.519" y1="470.969" x2="982.134" y2="-115.964" gradientUnits="userSpaceOnUse">
<stop stop-color="#22303D"/>
<stop offset="1" stop-color="#375A6D"/>
</linearGradient>
</defs>
</svg>
