<svg width="325" height="321" viewBox="0 0 325 321" fill="none" xmlns="http://www.w3.org/2000/svg">
<path d="M27.7715 111.234C27.37 110.431 31.3854 103.605 37.4085 101.597C43.4316 99.5892 44.6361 99.5892 46.2423 97.5815C47.8484 95.5738 47.8484 93.1645 52.6669 91.1568C57.4854 89.1491 67.9255 91.1568 70.3348 89.9522C72.744 88.7476 76.3579 83.5275 77.9641 84.3306C79.5702 85.1337 80.7749 85.1337 82.381 87.1414C83.9872 89.1491 85.9949 92.7629 85.9949 95.1722C85.9949 97.5815 90.8134 98.7862 93.6242 101.597C96.435 104.408 104.867 115.249 106.474 120.469C108.08 125.689 110.087 135.326 114.504 139.342C118.038 142.554 119.724 143.625 120.126 143.759C120.527 144.026 121.411 144.241 121.732 142.956C122.134 141.35 120.527 138.539 122.535 133.72C124.543 128.902 132.975 112.84 132.975 104.006C132.975 95.1722 136.991 77.9059 135.385 69.4735C133.778 61.0412 124.543 42.5702 124.141 34.1379C123.74 25.7055 122.134 8.43921 133.778 4.02225C145.423 -0.394709 147.029 -0.394709 151.848 0.408374C156.666 1.21146 161.485 6.83307 162.288 8.84078C163.091 10.8485 155.863 5.2269 150.643 10.8485C145.423 16.4701 145.423 15.667 144.62 20.0839C143.817 24.5009 143.415 35.3425 146.628 42.5703C149.198 48.3525 150.643 51.4042 151.045 52.2073C151.982 47.7903 154.819 38.3942 158.674 36.1456C163.492 33.3348 165.5 31.7287 170.72 32.5317C175.94 33.3348 178.751 36.5472 179.554 38.5549C180.357 40.5626 167.508 35.3425 165.5 43.3734C163.492 51.4042 163.894 52.6088 164.296 55.0181C164.697 57.4273 165.471 66.2613 165.902 67.8674C166.332 69.4735 166.705 74.6936 167.909 75.4967C169.114 76.2998 170.319 65.4582 177.145 64.2535C183.971 63.0489 186.782 63.0489 188.79 65.0566C190.797 67.0643 191.6 70.6782 191.6 71.0797C191.6 71.4813 186.782 68.2689 183.168 71.0797C179.554 73.8905 179.153 73.489 178.751 77.1029C178.349 80.7167 177.546 94.3691 180.357 99.9907C183.168 105.612 182.766 95.9753 188.79 95.5738C194.813 95.1722 199.631 99.1877 198.828 102.802C198.025 106.415 197.623 98.7861 192.403 102.802C187.183 106.817 185.979 125.689 187.986 131.311C189.994 136.933 188.79 128.5 195.214 128.902C201.639 129.303 204.048 133.319 203.647 135.326C203.245 137.334 198.828 131.311 196.017 135.326C193.207 139.342 192.002 146.168 193.608 148.979C195.214 151.79 208.465 147.774 235.368 152.994C262.272 158.214 264.279 166.245 275.121 165.442C285.963 164.639 289.978 143.759 283.553 135.326C277.129 126.894 247.816 112.037 242.596 108.022C237.376 104.006 199.23 77.5044 207.662 52.2073C216.094 26.9102 221.716 32.1301 225.731 34.1379C229.747 36.1456 227.338 52.2073 225.731 58.2304C224.125 64.2535 222.118 81.1183 247.816 95.5738C273.515 110.029 292.387 115.249 295.6 125.288C298.812 135.326 307.646 148.979 301.623 168.253C295.6 187.527 290.781 177.89 289.577 192.345C288.372 206.801 282.349 210.415 285.16 218.847C287.97 227.279 300.017 222.461 303.229 227.279C306.441 232.098 308.851 236.113 310.457 243.341C312.063 250.569 316.48 267.032 318.889 271.047C321.298 275.063 323.306 268.237 324.511 271.047C325.715 273.858 324.511 278.275 322.904 280.283C321.298 282.291 321.298 286.306 322.904 289.117C324.511 291.928 316.078 308.391 313.267 310.399C310.457 312.406 308.449 320.036 301.623 318.429C294.797 316.823 290.38 313.611 291.183 307.989C291.986 302.368 289.577 299.958 292.789 297.148C296.001 294.337 306.843 291.928 306.441 284.298C306.04 276.669 293.592 246.553 285.16 245.75C276.727 244.947 275.924 244.144 273.916 244.947C271.909 245.75 268.295 252.175 268.295 259.403C268.295 266.631 266.689 269.843 268.295 275.866C269.901 281.889 244.202 296.345 242.195 300.762C240.187 305.179 247.013 305.58 238.982 307.989C230.951 310.399 224.527 317.225 212.481 318.429C200.434 319.634 193.207 320.839 192.002 314.414C190.797 307.989 193.608 300.36 199.631 298.754C205.654 297.148 208.064 303.974 218.102 298.754C228.141 293.534 248.218 284.298 247.013 271.047C245.808 257.797 246.21 237.318 238.982 236.515C231.755 235.712 215.693 226.476 208.465 221.256C201.237 216.036 183.971 236.113 171.122 238.523C158.272 240.932 131.771 240.53 125.748 238.523C119.724 236.515 124.944 256.994 119.724 261.812C114.504 266.631 103.663 295.542 99.6473 297.148C95.6319 298.754 97.6396 314.414 81.1764 316.422C64.7132 318.429 58.6901 322.445 53.47 318.429C48.25 314.414 43.4315 313.209 45.8407 305.982C48.25 298.754 53.8716 292.329 60.6978 294.738C67.524 297.148 75.1533 306.785 79.1687 300.762C83.1841 294.738 94.4273 264.623 93.6242 258.6C92.8211 252.577 96.8365 240.53 93.6242 238.523C90.4119 236.515 92.018 236.515 87.6011 236.515C83.1841 236.515 70.7363 236.113 63.5086 226.476C56.2808 216.839 45.0377 208.809 36.2037 210.816C29.1366 212.422 28.976 208.273 29.7791 205.998C26.7006 205.462 20.0618 205.676 18.1344 210.816C15.7251 217.241 14.5205 221.658 18.1344 223.264C21.7482 224.87 11.308 225.272 14.5203 226.476C17.7326 227.681 13.7171 229.287 10.5048 229.287C7.29247 229.287 0.466262 229.287 0.466262 223.264C0.466262 217.241 -2.74634 205.195 7.69401 199.573C18.1344 193.951 26.5667 190.739 36.2037 192.345C45.8407 193.951 60.6975 201.581 66.3191 199.573C71.9407 197.565 71.5391 161.025 70.736 155.002C69.9329 148.979 69.532 136.129 60.6978 133.72C51.8636 131.311 55.0759 139.342 44.6358 136.531C34.1957 133.72 35.4004 130.909 34.5973 128.099C33.7942 125.288 41.825 129.303 43.8327 126.091C45.8405 122.879 44.6358 120.469 43.4312 120.469C42.2266 120.469 39.8173 121.272 39.4158 122.076C39.0142 122.879 37.4081 125.288 35.4004 124.485C33.3927 123.682 29.3772 120.068 29.3772 118.462C29.3772 116.855 30.1799 116.052 28.9757 114.045C28.0124 112.439 27.7715 111.502 27.7715 111.234Z" fill="#375A6D"/>
</svg>
