<svg width="160" height="16" viewBox="0 0 160 16" fill="none" xmlns="http://www.w3.org/2000/svg">
<path d="M20.8726 15.7858H16.8735L14.6921 12.1017H8.12663L9.64503 9.51004H13.1523L10.308 4.71218L3.7853 15.7858H0L8.83236 1.07095C9.26008 0.356984 9.79473 0 10.4363 0C11.0779 0 11.6125 0.356984 12.0402 1.07095L20.8726 15.7858ZM40.935 15.7858H36.2087L32.4234 11.5448H27.5902V8.69612H33.621C34.4337 8.69612 35.0539 8.46766 35.4816 8.01071C35.9237 7.55376 36.1445 6.91119 36.1445 6.083C36.1445 5.26908 35.9237 4.64793 35.4816 4.21955C35.0397 3.7769 34.4195 3.55556 33.621 3.55556H25.6442V15.7858H22.3294V0.21419H33.621C35.4318 0.21419 36.8503 0.735385 37.8768 1.77778C38.9033 2.80589 39.4166 4.2124 39.4166 5.99732C39.4166 7.2539 39.1386 8.32485 38.5825 9.21017C38.0265 10.0812 37.2566 10.7095 36.2728 11.095L40.935 15.7858ZM55.6439 9.18876H47.389V6.55422H55.6439V9.18876ZM56.2641 15.7858H42.128V0.21419H56.2427V3.55556H45.4428V12.4444H56.2641V15.7858ZM81.5334 15.7858H71.9953C69.7856 15.7858 67.9533 15.029 66.4991 13.5154C65.0449 12.0018 64.3177 10.1098 64.3177 7.83936C64.3177 5.56894 65.0379 3.73406 66.4777 2.33467C67.9178 0.921018 69.757 0.21419 71.9953 0.21419H80.571V3.55556H71.9953C70.7407 3.55556 69.7 3.97679 68.8729 4.81928C68.0603 5.64747 67.6539 6.7113 67.6539 8.01071C67.6539 9.29585 68.0603 10.3597 68.8729 11.2021C69.7 12.0303 70.7407 12.4444 71.9953 12.4444H78.1972V9.18876H71.6317V6.55422H81.5334V15.7858ZM102.419 15.7858H97.6931L93.9078 11.5448H89.0746V8.69612H95.1054C95.918 8.69612 96.5382 8.46766 96.966 8.01071C97.4081 7.55376 97.6289 6.91119 97.6289 6.083C97.6289 5.26908 97.4081 4.64793 96.966 4.21955C96.5241 3.7769 95.9039 3.55556 95.1054 3.55556H87.1284V15.7858H83.8136V0.21419H95.1054C96.9162 0.21419 98.3346 0.735385 99.3612 1.77778C100.388 2.80589 100.901 4.2124 100.901 5.99732C100.901 7.2539 100.623 8.32485 100.067 9.21017C99.5109 10.0812 98.741 10.7095 97.7572 11.095L102.419 15.7858ZM114.314 15.7858H110.465C108.255 15.7858 106.423 15.029 104.969 13.5154C103.515 12.0018 102.787 10.1098 102.787 7.83936C102.787 5.56894 103.507 3.73406 104.947 2.33467C106.387 0.921018 108.226 0.21419 110.465 0.21419H114.314C116.61 0.21419 118.47 0.921018 119.896 2.33467C121.336 3.74833 122.056 5.58321 122.056 7.83936C122.056 10.1098 121.322 12.0018 119.853 13.5154C118.399 15.029 116.553 15.7858 114.314 15.7858ZM110.465 12.4444H114.314C115.598 12.4444 116.652 12.0303 117.48 11.2021C118.306 10.3597 118.72 9.29585 118.72 8.01071C118.72 6.7113 118.306 5.64747 117.48 4.81928C116.667 3.97679 115.612 3.55556 114.314 3.55556H110.465C109.21 3.55556 108.169 3.97679 107.343 4.81928C106.53 5.64747 106.124 6.7113 106.124 8.01071C106.124 9.29585 106.53 10.3597 107.343 11.2021C108.169 12.0303 109.21 12.4444 110.465 12.4444ZM137.618 8.91031V0.21419H140.868V8.91031C140.868 11.3521 140.198 13.1441 138.858 14.2865C137.532 15.4288 135.358 16 132.335 16C129.327 16 127.153 15.4288 125.813 14.2865C124.472 13.1441 123.802 11.3521 123.802 8.91031V0.21419H127.245V8.91031C127.245 10.3097 127.616 11.295 128.357 11.8661C129.113 12.4373 130.475 12.7229 132.442 12.7229C134.396 12.7229 135.743 12.4373 136.484 11.8661C137.24 11.295 137.618 10.3097 137.618 8.91031ZM154.162 11.5877H148.366V8.35341H154.162C154.96 8.35341 155.588 8.13922 156.044 7.71084C156.514 7.26819 156.749 6.68273 156.749 5.95449C156.749 5.21197 156.521 4.62651 156.065 4.19813C155.609 3.76975 154.974 3.55556 154.162 3.55556H146.42V15.7858H143.105V0.21419H154.162C155.987 0.21419 157.412 0.721107 158.439 1.73494C159.48 2.73449 160 4.1053 160 5.84739C160 7.57518 159.48 8.96742 158.439 10.0241C157.398 11.0665 155.973 11.5877 154.162 11.5877Z" fill="#375A6D"/>
</svg>
