<svg width="200" height="230" viewBox="0 0 200 230" fill="none" xmlns="http://www.w3.org/2000/svg">
<path d="M0 6.10127C0 2.73163 2.71343 0 6.06061 0H7.57576C10.9229 0 13.6364 2.73163 13.6364 6.10127V194.631C13.6364 198 10.9229 200.732 7.57576 200.732H6.06061C2.71342 200.732 0 198 0 194.631V6.10127ZM186.364 6.10127C186.364 2.73163 189.077 0 192.424 0H200V200.732H192.424C189.077 200.732 186.364 198 186.364 194.631V6.10127ZM6.66667 200.732C3.31948 200.732 0.606061 198 0.606061 194.631V193.105C0.606061 189.736 3.31948 187.004 6.66667 187.004H193.939C197.287 187.004 200 189.736 200 193.105V200.732H6.66667ZM6.66667 13.7279C3.31948 13.7279 0.606061 10.9962 0.606061 7.62659V6.10127C0.606061 2.73163 3.31948 0 6.66667 0H61.5152V7.62659C61.5152 10.9962 58.8018 13.7279 55.4545 13.7279H6.66667ZM145.152 13.7279C141.804 13.7279 139.091 10.9962 139.091 7.62659V6.10127C139.091 2.73163 141.804 0 145.152 0H200V7.62659C200 10.9962 197.287 13.7279 193.939 13.7279H145.152ZM55.7179 13.8435C53.4297 11.3867 53.5518 7.528 55.9906 5.22257L61.5152 0L121.131 64.0088C123.419 66.4657 123.297 70.3242 120.858 72.6296L119.755 73.6726C117.313 75.9804 113.475 75.8574 111.185 73.398L55.7179 13.8435Z" fill="#CDD1D5"/>
<path d="M89.1995 178.768L83.9147 169.835H67.2359L70.145 164.808H80.9571L73.1026 151.531L57.1026 178.768H50.0723L70.3389 144.796C70.6944 144.177 71.1147 143.689 71.5995 143.331C72.0844 142.974 72.6662 142.794 73.345 142.794C74.0238 142.794 74.5895 142.974 75.042 143.331C75.5268 143.689 75.9471 144.177 76.3026 144.796L96.6177 178.768H89.1995ZM133.139 178.768L124.218 168.908H111.03V163.441H125.721C127.951 163.441 129.632 162.839 130.763 161.635C131.895 160.399 132.46 158.625 132.46 156.315C132.46 154.005 131.863 152.296 130.667 151.19C129.503 150.051 127.854 149.481 125.721 149.481H106.521V178.768H100.412V143.283H125.721C127.725 143.283 129.519 143.592 131.103 144.21C132.687 144.796 134.028 145.658 135.127 146.797C136.226 147.903 137.067 149.254 137.648 150.848C138.23 152.443 138.521 154.232 138.521 156.217C138.521 159.178 137.875 161.668 136.582 163.685C135.321 165.67 133.543 167.102 131.248 167.98L141.867 178.768H133.139ZM145.062 178.768V143.283H176.528V149.481H151.171V172.569H176.577V178.768H145.062ZM155.68 163.344V158.121H175.219V163.344H155.68Z" fill="#CDD1D5"/>
<path d="M73.6803 229.713H60.9761C58.0327 229.713 55.5924 228.7 53.6555 226.674C51.7185 224.647 50.75 222.114 50.75 219.074C50.75 216.035 51.7091 213.578 53.627 211.705C55.5448 209.812 57.9945 208.866 60.9761 208.866H72.3985V213.339H60.9761C59.3048 213.339 57.9188 213.903 56.8173 215.031C55.7348 216.14 55.1936 217.564 55.1936 219.304C55.1936 221.024 55.7348 222.449 56.8173 223.576C57.9188 224.685 59.3048 225.24 60.9761 225.24H69.2367V220.881H60.4918V217.354H73.6803V229.713ZM101.499 229.713H95.2042L90.1624 224.035H83.7249V220.221H91.7576C92.84 220.221 93.6661 219.915 94.2358 219.304C94.8242 218.692 95.1188 217.832 95.1188 216.723C95.1188 215.633 94.8242 214.802 94.2358 214.228C93.647 213.635 92.8209 213.339 91.7576 213.339H81.1327V229.713H76.7176V208.866H91.7576C94.1691 208.866 96.0588 209.563 97.4261 210.959C98.7933 212.336 99.477 214.219 99.477 216.608C99.477 218.291 99.1067 219.724 98.3661 220.91C97.6255 222.076 96.6 222.917 95.2897 223.433L101.499 229.713ZM117.343 229.713H112.215C109.272 229.713 106.832 228.7 104.895 226.674C102.958 224.647 101.989 222.114 101.989 219.074C101.989 216.035 102.948 213.578 104.866 211.705C106.784 209.812 109.234 208.866 112.215 208.866H117.343C120.4 208.866 122.878 209.812 124.777 211.705C126.695 213.597 127.654 216.054 127.654 219.074C127.654 222.114 126.676 224.647 124.72 226.674C122.783 228.7 120.324 229.713 117.343 229.713ZM112.215 225.24H117.343C119.052 225.24 120.457 224.685 121.558 223.576C122.66 222.449 123.211 221.024 123.211 219.304C123.211 217.564 122.66 216.14 121.558 215.031C120.476 213.903 119.071 213.339 117.343 213.339H112.215C110.544 213.339 109.158 213.903 108.057 215.031C106.974 216.14 106.433 217.564 106.433 219.304C106.433 221.024 106.974 222.449 108.057 223.576C109.158 224.685 110.544 225.24 112.215 225.24ZM148.382 220.508V208.866H152.711V220.508C152.711 223.777 151.818 226.177 150.034 227.706C148.268 229.235 145.372 230 141.346 230C137.339 230 134.443 229.235 132.658 227.706C130.873 226.177 129.98 223.777 129.98 220.508V208.866H134.566V220.508C134.566 222.382 135.06 223.701 136.048 224.465C137.054 225.23 138.868 225.612 141.488 225.612C144.09 225.612 145.884 225.23 146.872 224.465C147.878 223.701 148.382 222.382 148.382 220.508ZM170.417 224.093H162.698V219.763H170.417C171.481 219.763 172.316 219.476 172.924 218.902C173.551 218.31 173.864 217.526 173.864 216.551C173.864 215.557 173.56 214.773 172.952 214.199C172.345 213.626 171.5 213.339 170.417 213.339H160.106V229.713H155.691V208.866H170.417C172.848 208.866 174.747 209.544 176.114 210.902C177.501 212.24 178.194 214.075 178.194 216.408C178.194 218.721 177.501 220.585 176.114 221.999C174.728 223.395 172.829 224.093 170.417 224.093Z" fill="#CDD1D5"/>
</svg>
