<svg width="40" height="46" viewBox="0 0 40 46" fill="none" xmlns="http://www.w3.org/2000/svg">
<path d="M0 1.22104C0 0.547109 0.542685 0.000782013 1.21212 0.000782013H1.51515C2.18459 0.000782013 2.72727 0.547109 2.72727 1.22104V38.9269C2.72727 39.6009 2.18459 40.1472 1.51515 40.1472H1.21212C0.542685 40.1472 0 39.6009 0 38.9269V1.22104ZM37.2727 1.22104C37.2727 0.547109 37.8154 0.000782013 38.4848 0.000782013H40V40.1472H38.4848C37.8154 40.1472 37.2727 39.6009 37.2727 38.9269V1.22104ZM1.33333 40.1472C0.663897 40.1472 0.121212 39.6009 0.121212 38.9269V38.6218C0.121212 37.9479 0.663897 37.4016 1.33333 37.4016H38.7879C39.4573 37.4016 40 37.9479 40 38.6218V40.1472H1.33333ZM1.33333 2.74635C0.663897 2.74635 0.121212 2.20003 0.121212 1.5261V1.22104C0.121212 0.547108 0.663897 0.000782013 1.33333 0.000782013H12.303V1.5261C12.303 2.20003 11.7604 2.74635 11.0909 2.74635H1.33333ZM29.0303 2.74635C28.3608 2.74635 27.8182 2.20003 27.8182 1.5261V1.22104C27.8182 0.547108 28.3608 0.000782013 29.0303 0.000782013H40V1.5261C40 2.20003 39.4573 2.74635 38.7879 2.74635H29.0303ZM11.1436 2.76948C10.6859 2.27811 10.7104 1.50638 11.1981 1.0453L12.303 0.000782013L24.2261 12.8025C24.6838 13.2939 24.6593 14.0656 24.1716 14.5267L23.951 14.7353C23.4627 15.1969 22.6951 15.1723 22.237 14.6804L11.1436 2.76948Z" fill="#375A6D"/>
<path d="M17.8401 35.7523L16.7831 33.9658H13.4474L14.0292 32.9603H16.1916L14.6207 30.305L11.4207 35.7523H10.0146L14.068 28.9579C14.1391 28.8342 14.2231 28.7366 14.3201 28.665C14.4171 28.5935 14.5334 28.5576 14.6692 28.5576C14.805 28.5576 14.9181 28.5935 15.0086 28.665C15.1056 28.7366 15.1896 28.8342 15.2607 28.9579L19.3237 35.7523H17.8401ZM26.628 35.7523L24.8438 33.7803H22.2062V32.687H25.1444C25.5905 32.687 25.9266 32.5666 26.1529 32.3258C26.3792 32.0785 26.4923 31.7238 26.4923 31.2617C26.4923 30.7997 26.3727 30.458 26.1335 30.2367C25.9008 30.009 25.5711 29.895 25.1444 29.895H21.3044V35.7523H20.0826V28.6553H25.1444C25.5453 28.6553 25.904 28.7171 26.2208 28.8407C26.5376 28.9579 26.8059 29.1304 27.0256 29.3581C27.2454 29.5794 27.4135 29.8495 27.5299 30.1684C27.6462 30.4873 27.7044 30.8452 27.7044 31.2422C27.7044 31.8345 27.5751 32.3323 27.3165 32.7358C27.0644 33.1328 26.7089 33.4191 26.2499 33.5949L28.3735 35.7523H26.628ZM29.0125 35.7523V28.6553H35.3059V29.895H30.2343V34.5125H35.3156V35.7523H29.0125ZM31.1362 32.6675V31.6229H35.044V32.6675H31.1362Z" fill="#375A6D"/>
<path d="M14.7363 45.9433H12.1955C11.6068 45.9433 11.1188 45.7407 10.7314 45.3353C10.344 44.93 10.1503 44.4234 10.1503 43.8155C10.1503 43.2076 10.3421 42.7163 10.7257 42.3416C11.1093 41.9631 11.5992 41.7738 12.1955 41.7738H14.48V42.6685H12.1955C11.8613 42.6685 11.584 42.7813 11.3637 43.0069C11.1473 43.2286 11.039 43.5134 11.039 43.8614C11.039 44.2055 11.1473 44.4904 11.3637 44.7159C11.584 44.9377 11.8613 45.0486 12.1955 45.0486H13.8476V44.1768H12.0986V43.4714H14.7363V45.9433ZM20.3002 45.9433H19.0411L18.0328 44.8077H16.7453V44.0449H18.3518C18.5683 44.0449 18.7335 43.9837 18.8474 43.8614C18.9651 43.7391 19.024 43.567 19.024 43.3452C19.024 43.1273 18.9651 42.961 18.8474 42.8463C18.7297 42.7277 18.5645 42.6685 18.3518 42.6685H16.2268V45.9433H15.3438V41.7738H18.3518C18.8341 41.7738 19.212 41.9133 19.4855 42.1925C19.759 42.4677 19.8957 42.8444 19.8957 43.3223C19.8957 43.6588 19.8216 43.9455 19.6735 44.1826C19.5254 44.4158 19.3203 44.584 19.0582 44.6873L20.3002 45.9433ZM23.4688 45.9433H22.4434C21.8547 45.9433 21.3666 45.7407 20.9793 45.3353C20.5919 44.93 20.3982 44.4234 20.3982 43.8155C20.3982 43.2076 20.59 42.7163 20.9736 42.3416C21.3571 41.9631 21.8471 41.7738 22.4434 41.7738H23.4688C24.0803 41.7738 24.5759 41.9631 24.9557 42.3416C25.3393 42.7201 25.5311 43.2114 25.5311 43.8155C25.5311 44.4234 25.3356 44.93 24.9443 45.3353C24.557 45.7407 24.0651 45.9433 23.4688 45.9433ZM22.4434 45.0486H23.4688C23.8106 45.0486 24.0917 44.9377 24.312 44.7159C24.5323 44.4904 24.6424 44.2055 24.6424 43.8614C24.6424 43.5134 24.5323 43.2286 24.312 43.0069C24.0955 42.7813 23.8145 42.6685 23.4688 42.6685H22.4434C22.1091 42.6685 21.8319 42.7813 21.6116 43.0069C21.3951 43.2286 21.2869 43.5134 21.2869 43.8614C21.2869 44.2055 21.3951 44.4904 21.6116 44.7159C21.8319 44.9377 22.1091 45.0486 22.4434 45.0486ZM29.6766 44.1023V41.7738H30.5425V44.1023C30.5425 44.7561 30.364 45.236 30.007 45.5418C29.6538 45.8477 29.0746 46.0006 28.2694 46.0006C27.468 46.0006 26.8888 45.8477 26.5319 45.5418C26.1748 45.236 25.9963 44.7561 25.9963 44.1023V41.7738H26.9136V44.1023C26.9136 44.477 27.0123 44.7408 27.2098 44.8937C27.4111 45.0467 27.7738 45.1231 28.2979 45.1231C28.8182 45.1231 29.1771 45.0467 29.3746 44.8937C29.5759 44.7408 29.6766 44.477 29.6766 44.1023ZM34.0837 44.8192H32.5399V43.9532H34.0837C34.2964 43.9532 34.4636 43.8958 34.5851 43.7811C34.7104 43.6626 34.7731 43.5058 34.7731 43.3108C34.7731 43.112 34.7123 42.9552 34.5908 42.8405C34.4693 42.7258 34.3002 42.6685 34.0837 42.6685H32.0214V45.9433H31.1384V41.7738H34.0837C34.5699 41.7738 34.9497 41.9095 35.2231 42.181C35.5004 42.4487 35.639 42.8157 35.639 43.2821C35.639 43.7448 35.5004 44.1176 35.2231 44.4005C34.9459 44.6796 34.5661 44.8192 34.0837 44.8192Z" fill="#375A6D"/>
</svg>
