<svg width="81" height="90" viewBox="0 0 81 90" fill="none" xmlns="http://www.w3.org/2000/svg">
<path d="M0 99.9694V0H41.8202C52.6849 0 61.2432 2.66462 67.4646 8.0245C73.686 13.3538 76.7816 21.3783 76.7816 32.0674C76.7816 39.7243 75.1124 46.0031 71.7437 50.9648C68.4054 55.9265 63.671 59.4793 57.5407 61.6233L81 100H60.7576L39.6351 64.1348H17.7842V100H0V99.9694ZM17.7842 48.5145H40.5152C47.0097 48.5145 51.7138 47.1057 54.5665 44.3185C57.4193 41.5314 58.876 37.4885 58.876 32.1899C58.876 26.4012 57.4496 22.2052 54.5665 19.6325C51.7138 17.0291 47.0097 15.7427 40.5152 15.7427H17.7842V48.5145Z" fill="#CDD1D5"/>
</svg>
