<svg width="491" height="138" viewBox="0 0 491 138" fill="none" xmlns="http://www.w3.org/2000/svg">
<path d="M182.119 137.522H147.225L128.192 105.428H70.907L84.1554 82.8492H114.757L89.9399 41.0514L33.0277 137.522H0L77.0647 9.32988C80.7966 3.10996 85.4616 0 91.0595 0C96.6574 0 101.322 3.10996 105.054 9.32988L182.119 137.522ZM357.168 137.522H315.93L282.903 100.576H240.732V75.7585H293.352C300.443 75.7585 305.854 73.7682 309.586 69.7874C313.444 65.8066 315.371 60.2087 315.371 52.9937C315.371 45.903 313.444 40.4916 309.586 36.7597C305.73 32.9034 300.319 30.9752 293.352 30.9752H223.752V137.522H194.83V1.86597H293.352C309.152 1.86597 321.528 6.4065 330.485 15.4876C339.442 24.4443 343.92 36.6974 343.92 52.2473C343.92 63.1942 341.494 72.5241 336.643 80.2369C331.791 87.8251 325.074 93.2987 316.49 96.6574L357.168 137.522ZM485.508 80.0503H413.481V57.0988H485.508V80.0503ZM490.919 137.522H367.578V1.86597H490.732V30.9752H396.501V108.413H490.919V137.522Z" fill="white"/>
</svg>
