<svg width="835" height="138" viewBox="0 0 835 138" fill="none" xmlns="http://www.w3.org/2000/svg">
<path d="M150.211 135.656H66.9885C47.7083 135.656 31.7216 129.063 19.0329 115.877C6.34433 102.691 0 86.208 0 66.4287C0 46.6494 6.2837 30.6643 18.8464 18.4732C31.4114 6.15772 47.4587 0 66.9885 0H141.814V29.1092H66.9885C56.0422 29.1092 46.9619 32.7789 39.7452 40.1184C32.6545 47.3335 29.1091 56.6013 29.1091 67.9214C29.1091 79.1173 32.6545 88.3849 39.7452 95.7244C46.9619 102.939 56.0422 106.547 66.9885 106.547H121.102V78.1843H63.8163V55.2328H150.211V135.656ZM332.447 135.656H291.208L258.181 98.71H216.01V73.8926H268.63C275.721 73.8926 281.132 71.9023 284.864 67.9214C288.722 63.9406 290.649 58.3427 290.649 51.1277C290.649 44.037 288.722 38.6257 284.864 34.8937C281.009 31.0375 275.597 29.1092 268.63 29.1092H199.029V135.656H170.107V0H268.63C284.43 0 296.806 4.54053 305.763 13.6216C314.72 22.5783 319.198 34.8314 319.198 50.3813C319.198 61.3283 316.772 70.6581 311.921 78.3709C307.069 85.9591 300.352 91.4327 291.768 94.7915L332.447 135.656ZM436.234 135.656H402.647C383.364 135.656 367.38 129.063 354.691 115.877C342.003 102.691 335.658 86.208 335.658 66.4287C335.658 46.6494 341.94 30.6643 354.505 18.4732C367.067 6.15772 383.115 0 402.647 0H436.234C456.261 0 472.495 6.15772 484.936 18.4732C497.499 30.7886 503.782 46.7737 503.782 66.4287C503.782 86.208 497.375 102.691 484.563 115.877C471.874 129.063 455.764 135.656 436.234 135.656ZM402.647 106.547H436.234C447.43 106.547 456.634 102.939 463.851 95.7244C471.065 88.3849 474.673 79.1173 474.673 67.9214C474.673 56.6013 471.065 47.3335 463.851 40.1184C456.76 32.7789 447.554 29.1092 436.234 29.1092H402.647C391.698 29.1092 382.618 32.7789 375.404 40.1184C368.313 47.3335 364.767 56.6013 364.767 67.9214C364.767 79.1173 368.313 88.3849 375.404 95.7244C382.618 102.939 391.698 106.547 402.647 106.547ZM639.56 75.7585V0H667.923V75.7585C667.923 97.0306 662.075 112.643 650.383 122.594C638.814 132.546 619.844 137.522 593.47 137.522C567.223 137.522 548.251 132.546 536.558 122.594C524.866 112.643 519.018 97.0306 519.018 75.7585V0H549.06V75.7585C549.06 87.9496 552.296 96.5331 558.763 101.509C565.357 106.485 577.237 108.973 594.404 108.973C611.447 108.973 623.202 106.485 629.67 101.509C636.264 96.5331 639.56 87.9496 639.56 75.7585ZM783.912 99.0832H733.344V70.907H783.912C790.879 70.907 796.353 69.041 800.332 65.3091C804.438 61.4528 806.49 56.3524 806.49 50.0081C806.49 43.5395 804.5 38.4391 800.519 34.7071C796.54 30.9752 791.003 29.1092 783.912 29.1092H716.364V135.656H687.441V0H783.912C799.836 0 812.275 4.41614 821.231 13.2484C830.314 21.9562 834.853 33.8984 834.853 49.0751C834.853 64.1272 830.314 76.256 821.231 85.4616C812.151 94.5426 799.712 99.0832 783.912 99.0832Z" fill="white"/>
</svg>
