<svg width="801" height="593" viewBox="0 0 801 593" fill="none" xmlns="http://www.w3.org/2000/svg">
<g id="Group 1184">
<path id="Vector 1668" d="M695.101 2.43701H683.42C677.897 2.43701 673.42 6.91417 673.42 12.437V83.4178C673.42 88.9406 677.897 93.4178 683.42 93.4178H695.101C700.624 93.4178 705.101 88.9406 705.101 83.4178V12.437C705.101 6.91416 700.624 2.43701 695.101 2.43701Z" fill="#D9D9D9"/>
<path id="Vector 1667" d="M164.903 516.795V490.849C164.903 488.943 166.449 487.397 168.356 487.397C170.262 487.397 171.808 485.851 171.808 483.945V419.646C171.808 417.584 170.136 415.912 168.074 415.912C167.084 415.912 166.134 415.519 165.434 414.818L136.557 385.942C134.682 384.066 133.629 381.523 133.629 378.871V316.482C133.629 313.83 132.575 311.287 130.7 309.411L97.5706 276.282C95.6923 274.404 93.144 273.35 90.4877 273.353L12.4493 273.445C6.92185 273.452 2.4375 268.973 2.4375 263.445V254.105C2.4375 248.582 6.91465 244.105 12.4375 244.105H113.24C115.892 244.105 118.436 243.051 120.311 241.176L130.7 230.787C132.575 228.912 133.629 226.368 133.629 223.716V149.72C133.629 144.197 138.106 139.72 143.629 139.72H150.029C155.552 139.72 160.029 144.197 160.029 149.72V165.869C160.029 171.392 164.506 175.869 170.029 175.869H180.337H491.785C494.437 175.869 496.981 174.815 498.856 172.94L535.645 136.151C537.521 134.275 540.064 133.222 542.716 133.222H641.617C644.294 133.222 646.86 132.148 648.739 130.241L672.012 106.626C672.915 105.71 673.421 104.475 673.421 103.189C673.421 100.484 675.613 98.2915 678.318 98.2915H695.102C700.624 98.2915 705.102 102.769 705.102 108.292V111.208C705.102 113.86 704.048 116.404 702.173 118.279L674.319 146.133C672.444 148.008 669.9 149.062 667.248 149.062H664.902C660.185 149.062 656.362 152.885 656.362 157.602C656.362 162.31 652.551 166.13 647.843 166.142L550.914 166.379C548.218 166.385 545.639 167.48 543.761 169.415L505.372 208.981C503.489 210.922 500.899 212.017 498.195 212.017H220.751C216.377 212.017 212.831 215.563 212.831 219.938C212.831 224.312 209.285 227.858 204.91 227.858H179.701C178.168 227.858 176.751 227.04 175.985 225.712C174.8 223.659 172.175 222.956 170.122 224.141L167.401 225.712C165.101 227.04 163.685 229.494 163.685 232.15V268.233C163.685 271.058 161.394 273.348 158.569 273.348H157.496C153.335 273.348 151.251 278.38 154.193 281.322C155.069 282.198 156.257 282.69 157.496 282.69H158.773C163.056 282.69 166.528 286.162 166.528 290.445V378.871C166.528 381.523 167.581 384.066 169.457 385.942L199.748 416.232C201.623 418.108 202.676 420.651 202.676 423.303V501.532C202.676 504.184 201.623 506.728 199.748 508.603L184.485 523.866C182.609 525.741 180.066 526.795 177.414 526.795H174.903C169.38 526.795 164.903 522.318 164.903 516.795Z" fill="#FDD24F"/>
<path id="Vector 1658" d="M202.829 233.545H183.025C177.503 233.545 173.025 238.022 173.025 243.545V252.383C173.025 257.905 177.503 262.383 183.025 262.383H202.829C208.352 262.383 212.829 257.905 212.829 252.383V243.545C212.829 238.022 208.352 233.545 202.829 233.545Z" fill="#FDD24F"/>
<text id="WC" fill="black" style="white-space: pre" xml:space="preserve" font-family="Montserrat" font-size="16" font-weight="500" letter-spacing="0em"><tspan x="177" y="254.736">WC</tspan></text>
<g id="1">
<path id="room" d="M158.052 2.43701H12.4375C6.91465 2.43701 2.4375 6.91416 2.4375 12.437V228.725C2.4375 234.244 6.90886 238.72 12.428 238.725L112.828 238.821C115.484 238.823 118.031 237.769 119.909 235.892L129.075 226.725C130.95 224.85 132.004 222.307 132.004 219.654V144.034C132.004 138.511 136.481 134.034 142.004 134.034H158.144C163.67 134.034 168.149 129.552 168.144 124.026L168.052 12.4287C168.047 6.90913 163.572 2.43701 158.052 2.43701Z" fill="#375A6D"/>
<rect id="Rectangle 426" y="25.1821" width="4.87397" height="37.3671" fill="#8FB6F9"/>
<rect id="Rectangle 428" y="170.589" width="4.87397" height="37.3671" fill="#8FB6F9"/>
<rect id="Rectangle 427" x="58.4873" width="4.87397" height="37.3671" transform="rotate(90 58.4873 0)" fill="#8FB6F9"/>
<rect id="Rectangle 433" x="157.592" width="4.87397" height="19.4959" transform="rotate(90 157.592 0)" fill="#8FB6F9"/>
<text id="label_area" fill="white" style="white-space: pre" xml:space="preserve" font-family="Montserrat" font-size="16" letter-spacing="0em"><tspan x="35.7422" y="233.44">00,00 &#x43c;&#xb2;</tspan></text>
<text id="label_price" fill="white" style="white-space: pre" xml:space="preserve" font-family="Montserrat" font-size="16" letter-spacing="0em"><tspan x="58" y="114.028">&#x446;&#x435;&#x43d;&#x430;</tspan></text>
<text id="label_name" fill="white" style="white-space: pre" xml:space="preserve" font-family="Montserrat" font-size="16" letter-spacing="0em"><tspan x="139.721" y="27.9206">100</tspan></text>
<g id="label_busy">
<path id="form" d="M126.34 15.6601L133.66 15.6601L137.321 21.9998L133.66 28.3395L126.34 28.3395L122.679 21.9998L126.34 15.6601Z" fill="url(#paint0_radial_68_2367)"/>
<text id="&#209;&#129;&#208;&#180;&#208;&#176;&#208;&#189;" fill="black" style="white-space: pre" xml:space="preserve" font-family="Montserrat" font-size="5" font-weight="500" letter-spacing="0em"><tspan x="124" y="22.7925">&#x441;&#x434;&#x430;&#x43d;</tspan></text>
</g>
<path id="label_lock" d="M72.8992 102.748V100.311C72.8992 99.8962 72.9265 99.4901 72.9801 99.0928M84.5967 102.748V100.311C84.5967 98.8262 84.235 97.3764 83.5595 96.1548C82.884 94.933 81.9277 93.9973 80.8155 93.4723C79.7042 92.9471 78.4916 92.8576 77.3384 93.2154C76.1862 93.5732 75.1471 94.3614 74.3614 95.4752M77.7731 117.37H74.8488C72.092 117.37 70.7127 117.37 69.8568 116.299C69 115.229 69 113.505 69 110.059C69 106.613 69 104.889 69.8568 103.819C70.7127 102.748 72.092 102.748 74.8488 102.748H82.6471C85.4038 102.748 86.7831 102.748 87.639 103.819C88.4959 104.889 88.4959 106.613 88.4959 110.059C88.4959 113.505 88.4959 115.229 87.639 116.299C86.7831 117.37 85.4038 117.37 82.6471 117.37H81.6723" stroke="#EADB5A" stroke-linecap="round"/>
</g>
<g id="2">
<path id="room_2" d="M227.607 2.43701H181.808C176.286 2.43701 171.808 6.91415 171.808 12.437V134.643C171.808 137.447 169.535 139.721 166.731 139.721C163.927 139.721 161.654 141.994 161.654 144.798V150.484C161.654 153.288 163.927 155.561 166.731 155.561H168.356C170.263 155.561 171.808 157.107 171.808 159.013C171.808 160.92 173.354 162.466 175.261 162.466H232.733C235.425 162.466 237.607 164.648 237.607 167.34C237.607 170.032 239.789 172.214 242.481 172.214H245.527C249.901 172.214 253.447 168.668 253.447 164.293V133.831C253.447 129.457 249.901 125.911 245.527 125.911C241.153 125.911 237.607 122.365 237.607 117.991V12.437C237.607 6.91416 233.13 2.43701 227.607 2.43701Z" fill="#375A6D"/>
<rect id="Rectangle 434" x="216.08" width="4.87397" height="21.1205" transform="rotate(90 216.08 0)" fill="#8FB6F9"/>
<text id="label_area_2" fill="white" style="white-space: pre" xml:space="preserve" font-family="Montserrat" font-size="16" letter-spacing="0em"><tspan x="179.525" y="154.644">00,00 &#x43c;&#xb2;</tspan></text>
<text id="label_price_2" fill="white" style="white-space: pre" xml:space="preserve" font-family="Montserrat" font-size="16" letter-spacing="0em"><tspan x="185" y="73.736">&#x446;&#x435;&#x43d;&#x430;</tspan></text>
<text id="label_name_2" fill="white" style="white-space: pre" xml:space="preserve" font-family="Montserrat" font-size="16" letter-spacing="0em"><tspan x="200.646" y="27.9206">100</tspan></text>
<g id="label_busy_2">
<path id="form_2" d="M187.339 15.6601L194.658 15.6601L198.318 21.9998L194.658 28.3395L187.339 28.3395L183.679 21.9998L187.339 15.6601Z" fill="url(#paint1_radial_68_2367)"/>
<text id="&#209;&#129;&#208;&#180;&#208;&#176;&#208;&#189;_2" fill="black" style="white-space: pre" xml:space="preserve" font-family="Montserrat" font-size="5" font-weight="500" letter-spacing="0em"><tspan x="184.999" y="22.793">&#x441;&#x434;&#x430;&#x43d;</tspan></text>
</g>
<path id="label_lock_2" d="M198.899 62.7482V60.3113C198.899 59.8962 198.926 59.4901 198.98 59.0928M210.597 62.7482V60.3113C210.597 58.8262 210.235 57.3764 209.559 56.1548C208.884 54.933 207.928 53.9973 206.815 53.4723C205.704 52.9471 204.492 52.8576 203.338 53.2154C202.186 53.5732 201.147 54.3614 200.361 55.4752M203.773 77.3699H200.849C198.092 77.3699 196.713 77.3699 195.857 76.2988C195 75.229 195 73.5049 195 70.059C195 66.6132 195 64.8891 195.857 63.8193C196.713 62.7482 198.092 62.7482 200.849 62.7482H208.647C211.404 62.7482 212.783 62.7482 213.639 63.8193C214.496 64.8891 214.496 66.6132 214.496 70.059C214.496 73.5049 214.496 75.229 213.639 76.2988C212.783 77.3699 211.404 77.3699 208.647 77.3699H207.672" stroke="#EADB5A" stroke-linecap="round"/>
</g>
<g id="3">
<path id="room_3" d="M310.5 2.43701H252.074C246.551 2.43701 242.074 6.91417 242.074 12.437V114.335C242.074 118.709 245.62 122.255 249.994 122.255C254.369 122.255 257.915 125.801 257.915 130.176V152.466C257.915 157.989 262.392 162.466 267.915 162.466H277.411C280.102 162.466 282.284 164.648 282.284 167.34C282.284 170.032 284.467 172.214 287.158 172.214H295.717C298.393 172.214 300.562 170.044 300.562 167.369C300.562 164.693 302.731 162.523 305.407 162.523H310.531C316.037 162.523 320.5 158.06 320.5 152.554V12.437C320.5 6.91416 316.023 2.43701 310.5 2.43701Z" fill="#375A6D"/>
<rect id="Rectangle 435" x="288.377" width="4.87397" height="21.1205" transform="rotate(90 288.377 0)" fill="#8FB6F9"/>
<text id="label_area_3" fill="white" style="white-space: pre" xml:space="preserve" font-family="Montserrat" font-size="16" letter-spacing="0em"><tspan x="261" y="154.736">00,0 &#x43c;&#xb2;</tspan></text>
<text id="label_price_3" fill="white" style="white-space: pre" xml:space="preserve" font-family="Montserrat" font-size="16" letter-spacing="0em"><tspan x="260" y="73.736">&#x446;&#x435;&#x43d;&#x430;</tspan></text>
<text id="label_name_3" fill="white" style="white-space: pre" xml:space="preserve" font-family="Montserrat" font-size="16" letter-spacing="0em"><tspan x="272.942" y="27.9206">100</tspan></text>
<g id="label_busy_3">
<path id="form_3" d="M259.339 15.6601L266.658 15.6601L270.318 21.9998L266.658 28.3395L259.339 28.3395L255.679 21.9998L259.339 15.6601Z" fill="url(#paint2_radial_68_2367)"/>
<text id="&#209;&#129;&#208;&#180;&#208;&#176;&#208;&#189;_3" fill="black" style="white-space: pre" xml:space="preserve" font-family="Montserrat" font-size="5" font-weight="500" letter-spacing="0em"><tspan x="256.999" y="22.793">&#x441;&#x434;&#x430;&#x43d;</tspan></text>
</g>
<path id="label_lock_3" d="M274.899 62.7482V60.3113C274.899 59.8962 274.926 59.4901 274.98 59.0928M286.597 62.7482V60.3113C286.597 58.8262 286.235 57.3764 285.559 56.1548C284.884 54.933 283.928 53.9973 282.815 53.4723C281.704 52.9471 280.492 52.8576 279.338 53.2154C278.186 53.5732 277.147 54.3614 276.361 55.4752M279.773 77.3699H276.849C274.092 77.3699 272.713 77.3699 271.857 76.2988C271 75.229 271 73.5049 271 70.059C271 66.6132 271 64.8891 271.857 63.8193C272.713 62.7482 274.092 62.7482 276.849 62.7482H284.647C287.404 62.7482 288.783 62.7482 289.639 63.8193C290.496 64.8891 290.496 66.6132 290.496 70.059C290.496 73.5049 290.496 75.229 289.639 76.2988C288.783 77.3699 287.404 77.3699 284.647 77.3699H283.672" stroke="#EADB5A" stroke-linecap="round"/>
</g>
<g id="4">
<path id="room_4" d="M391.698 2.43701H338.994C333.471 2.43701 328.994 6.91416 328.994 12.437V152.872C328.994 158.395 333.471 162.872 338.994 162.872H354.786C357.365 162.872 359.456 164.963 359.456 167.543C359.456 170.122 361.548 172.214 364.127 172.214H377.734C380.426 172.214 382.608 170.032 382.608 167.34C382.608 164.648 384.79 162.466 387.482 162.466H392.153C397.424 162.466 401.698 158.192 401.698 152.921V12.437C401.698 6.91416 397.22 2.43701 391.698 2.43701Z" fill="#375A6D"/>
<rect id="Rectangle 436" x="376.921" width="4.87397" height="21.1205" transform="rotate(90 376.921 0)" fill="#8FB6F9"/>
<text id="label_area_4" fill="white" style="white-space: pre" xml:space="preserve" font-family="Montserrat" font-size="16" letter-spacing="0em"><tspan x="331.929" y="154.644">00,00 &#x43c;&#xb2;</tspan></text>
<text id="label_price_4" fill="white" style="white-space: pre" xml:space="preserve" font-family="Montserrat" font-size="16" letter-spacing="0em"><tspan x="344" y="73.736">&#x446;&#x435;&#x43d;&#x430;</tspan></text>
<path id="label_lock_4" d="M358.899 62.7482V60.3113C358.899 59.8962 358.926 59.4901 358.98 59.0928M370.597 62.7482V60.3113C370.597 58.8262 370.235 57.3764 369.559 56.1548C368.884 54.933 367.928 53.9973 366.815 53.4723C365.704 52.9471 364.492 52.8576 363.338 53.2154C362.186 53.5732 361.147 54.3614 360.361 55.4752M363.773 77.3699H360.849C358.092 77.3699 356.713 77.3699 355.857 76.2988C355 75.229 355 73.5049 355 70.059C355 66.6132 355 64.8891 355.857 63.8193C356.713 62.7482 358.092 62.7482 360.849 62.7482H368.647C371.404 62.7482 372.783 62.7482 373.639 63.8193C374.496 64.8891 374.496 66.6132 374.496 70.059C374.496 73.5049 374.496 75.229 373.639 76.2988C372.783 77.3699 371.404 77.3699 368.647 77.3699H367.672" stroke="#EADB5A" stroke-linecap="round"/>
<text id="label_name_4" fill="white" style="white-space: pre" xml:space="preserve" font-family="Montserrat" font-size="16" letter-spacing="0em"><tspan x="362.299" y="27.9206">100</tspan></text>
<g id="label_busy_4">
<path id="form_4" d="M348.34 15.6601L355.66 15.6601L359.321 21.9998L355.66 28.3395L348.34 28.3395L344.679 21.9998L348.34 15.6601Z" fill="url(#paint3_radial_68_2367)"/>
<text id="&#209;&#129;&#208;&#180;&#208;&#176;&#208;&#189;_4" fill="black" style="white-space: pre" xml:space="preserve" font-family="Montserrat" font-size="5" font-weight="500" letter-spacing="0em"><tspan x="345.998" y="22.793">&#x441;&#x434;&#x430;&#x43d;</tspan></text>
</g>
</g>
<g id="5">
<path id="room_5" d="M471.711 2.43701H415.758C410.235 2.43701 405.758 6.91418 405.758 12.437V153.53C405.758 158.465 409.758 162.466 414.693 162.466H418.755C421.447 162.466 423.629 164.648 423.629 167.34C423.629 170.031 425.811 172.214 428.503 172.214H441.5C444.192 172.214 446.374 170.031 446.374 167.34C446.374 164.648 448.556 162.466 451.248 162.466H471.711C477.233 162.466 481.711 157.988 481.711 152.466V12.437C481.711 6.91416 477.233 2.43701 471.711 2.43701Z" fill="#375A6D"/>
<rect id="Rectangle 437" x="454.903" width="4.87397" height="21.1205" transform="rotate(90 454.903 0)" fill="#8FB6F9"/>
<text id="label_area_5" fill="white" style="white-space: pre" xml:space="preserve" font-family="Montserrat" font-size="16" letter-spacing="0em"><tspan x="410.1" y="154.644">00,00 &#x43c;&#xb2;</tspan></text>
<text id="label_price_5" fill="white" style="white-space: pre" xml:space="preserve" font-family="Montserrat" font-size="16" letter-spacing="0em"><tspan x="423" y="73.736">&#x446;&#x435;&#x43d;&#x430;</tspan></text>
<text id="label_name_5" fill="white" style="white-space: pre" xml:space="preserve" font-family="Montserrat" font-size="16" letter-spacing="0em"><tspan x="440.281" y="27.9206">100</tspan></text>
<g id="label_busy_5">
<path id="form_5" d="M426.34 15.6601L433.66 15.6601L437.321 21.9998L433.66 28.3395L426.34 28.3395L422.679 21.9998L426.34 15.6601Z" fill="url(#paint4_radial_68_2367)"/>
<text id="&#209;&#129;&#208;&#180;&#208;&#176;&#208;&#189;_5" fill="black" style="white-space: pre" xml:space="preserve" font-family="Montserrat" font-size="5" font-weight="500" letter-spacing="0em"><tspan x="423.998" y="22.793">&#x441;&#x434;&#x430;&#x43d;</tspan></text>
</g>
<path id="label_lock_5" d="M437.899 62.7482V60.3113C437.899 59.8962 437.926 59.4901 437.98 59.0928M449.597 62.7482V60.3113C449.597 58.8262 449.235 57.3764 448.559 56.1548C447.884 54.933 446.928 53.9973 445.815 53.4723C444.704 52.9471 443.492 52.8576 442.338 53.2154C441.186 53.5732 440.147 54.3614 439.361 55.4752M442.773 77.3699H439.849C437.092 77.3699 435.713 77.3699 434.857 76.2988C434 75.229 434 73.5049 434 70.059C434 66.6132 434 64.8891 434.857 63.8193C435.713 62.7482 437.092 62.7482 439.849 62.7482H447.647C450.404 62.7482 451.783 62.7482 452.639 63.8193C453.496 64.8891 453.496 66.6132 453.496 70.059C453.496 73.5049 453.496 75.229 452.639 76.2988C451.783 77.3699 450.404 77.3699 447.647 77.3699H446.672" stroke="#EADB5A" stroke-linecap="round"/>
</g>
<g id="6">
<path id="room_6" d="M558.223 2.43701H496.584C491.061 2.43701 486.584 6.91416 486.584 12.437V152.988C486.584 158.222 490.827 162.466 496.062 162.466C498.575 162.466 500.986 161.467 502.763 159.69L529.552 132.902C531.427 131.026 533.971 129.973 536.623 129.973H558.223C563.746 129.973 568.223 125.495 568.223 119.973V12.437C568.223 6.91417 563.746 2.43701 558.223 2.43701Z" fill="#375A6D"/>
<rect id="Rectangle 438" x="538.573" width="4.87397" height="21.1205" transform="rotate(90 538.573 0)" fill="#8FB6F9"/>
<text id="label_area_6" fill="white" style="white-space: pre" xml:space="preserve" font-family="Montserrat" font-size="16" letter-spacing="0em"><tspan x="494.581" y="122.151">00,00 &#x43c;&#xb2;</tspan></text>
<text id="label_price_6" fill="white" style="white-space: pre" xml:space="preserve" font-family="Montserrat" font-size="16" letter-spacing="0em"><tspan x="507" y="73.736">&#x446;&#x435;&#x43d;&#x430;</tspan></text>
<text id="label_name_6" fill="white" style="white-space: pre" xml:space="preserve" font-family="Montserrat" font-size="16" letter-spacing="0em"><tspan x="523.951" y="27.736">100</tspan></text>
<g id="label_busy_6">
<path id="form_6" d="M510.34 15.6601L517.66 15.6601L521.321 21.9998L517.66 28.3395L510.34 28.3395L506.679 21.9998L510.34 15.6601Z" fill="url(#paint5_radial_68_2367)"/>
<text id="&#209;&#129;&#208;&#180;&#208;&#176;&#208;&#189;_6" fill="black" style="white-space: pre" xml:space="preserve" font-family="Montserrat" font-size="5" font-weight="500" letter-spacing="0em"><tspan x="508.001" y="22.793">&#x441;&#x434;&#x430;&#x43d;</tspan></text>
</g>
<path id="label_lock_6" d="M521.899 62.7482V60.3113C521.899 59.8962 521.926 59.4901 521.98 59.0928M533.597 62.7482V60.3113C533.597 58.8262 533.235 57.3764 532.559 56.1548C531.884 54.933 530.928 53.9973 529.815 53.4723C528.704 52.9471 527.492 52.8576 526.338 53.2154C525.186 53.5732 524.147 54.3614 523.361 55.4752M526.773 77.3699H523.849C521.092 77.3699 519.713 77.3699 518.857 76.2988C518 75.229 518 73.5049 518 70.059C518 66.6132 518 64.8891 518.857 63.8193C519.713 62.7482 521.092 62.7482 523.849 62.7482H531.647C534.404 62.7482 535.783 62.7482 536.639 63.8193C537.496 64.8891 537.496 66.6132 537.496 70.059C537.496 73.5049 537.496 75.229 536.639 76.2988C535.783 77.3699 534.404 77.3699 531.647 77.3699H530.672" stroke="#EADB5A" stroke-linecap="round"/>
</g>
<g id="7">
<path id="room_7" d="M643.112 2.43701H583.504C577.981 2.43701 573.504 6.91415 573.504 12.437V119.973C573.504 125.496 577.981 129.973 583.504 129.973H632.336C635.041 129.973 637.631 128.877 639.515 126.935L650.291 115.823C652.1 113.958 653.112 111.461 653.112 108.861V12.437C653.112 6.91416 648.635 2.43701 643.112 2.43701Z" fill="#375A6D"/>
<rect id="Rectangle 439" x="623.867" width="4.87397" height="21.1205" transform="rotate(90 623.867 0)" fill="#8FB6F9"/>
<text id="label_area_7" fill="white" style="white-space: pre" xml:space="preserve" font-family="Montserrat" font-size="16" letter-spacing="0em"><tspan x="578" y="121.736">00,00 &#x43c;&#xb2;</tspan></text>
<text id="label_price_7" fill="white" style="white-space: pre" xml:space="preserve" font-family="Montserrat" font-size="16" letter-spacing="0em"><tspan x="592" y="73.736">&#x446;&#x435;&#x43d;&#x430;</tspan></text>
<text id="label_name_7" fill="white" style="white-space: pre" xml:space="preserve" font-family="Montserrat" font-size="16" letter-spacing="0em"><tspan x="610.059" y="27.736">100</tspan></text>
<g id="label_busy_7">
<path id="form_7" d="M596.34 15.6601L603.66 15.6601L607.321 21.9998L603.66 28.3395L596.34 28.3395L592.679 21.9998L596.34 15.6601Z" fill="url(#paint6_radial_68_2367)"/>
<text id="&#209;&#129;&#208;&#180;&#208;&#176;&#208;&#189;_7" fill="black" style="white-space: pre" xml:space="preserve" font-family="Montserrat" font-size="5" font-weight="500" letter-spacing="0em"><tspan x="594" y="22.793">&#x441;&#x434;&#x430;&#x43d;</tspan></text>
</g>
<path id="label_lock_7" d="M606.899 62.7482V60.3113C606.899 59.8962 606.926 59.4901 606.98 59.0928M618.597 62.7482V60.3113C618.597 58.8262 618.235 57.3764 617.559 56.1548C616.884 54.933 615.928 53.9973 614.815 53.4723C613.704 52.9471 612.492 52.8576 611.338 53.2154C610.186 53.5732 609.147 54.3614 608.361 55.4752M611.773 77.3699H608.849C606.092 77.3699 604.713 77.3699 603.857 76.2988C603 75.229 603 73.5049 603 70.059C603 66.6132 603 64.8891 603.857 63.8193C604.713 62.7482 606.092 62.7482 608.849 62.7482H616.647C619.404 62.7482 620.783 62.7482 621.639 63.8193C622.496 64.8891 622.496 66.6132 622.496 70.059C622.496 73.5049 622.496 75.229 621.639 76.2988C620.783 77.3699 619.404 77.3699 616.647 77.3699H615.672" stroke="#EADB5A" stroke-linecap="round"/>
</g>
<g id="8">
<path id="room_8" d="M800.955 83.4178V12.437C800.955 6.91418 796.478 2.43702 790.955 2.43703L735.003 2.43716C729.48 2.43717 725.003 6.91432 725.003 12.4372V20.1086C725.003 23.0671 723.693 25.8738 721.425 27.7738L713.552 34.3697C711.285 36.2697 709.975 39.0764 709.975 42.0349V83.4178C709.975 88.9406 714.452 93.4178 719.975 93.4178H790.955C796.478 93.4178 800.955 88.9406 800.955 83.4178Z" fill="#375A6D"/>
<rect id="Rectangle 440" x="745.717" width="4.87397" height="14.6219" transform="rotate(90 745.717 0)" fill="#8FB6F9"/>
<text id="label_area_8" fill="white" style="white-space: pre" xml:space="preserve" font-family="Montserrat" font-size="16" letter-spacing="0em"><tspan x="728" y="89.6579">00,00 &#x43c;&#xb2;</tspan></text>
<text id="label_price_8" fill="white" style="white-space: pre" xml:space="preserve" font-family="Montserrat" font-size="16" letter-spacing="0em"><tspan x="714" y="55.7975">&#x446;&#x435;&#x43d;&#x430;</tspan></text>
<text id="label_name_8" fill="white" style="white-space: pre" xml:space="preserve" font-family="Montserrat" font-size="16" letter-spacing="0em"><tspan x="771" y="26.2961">100</tspan></text>
<g id="label_busy_8">
<path id="form_8" d="M757.34 14.2206L764.66 14.2206L768.321 20.5604L764.66 26.9001L757.34 26.9001L753.679 20.5604L757.34 14.2206Z" fill="url(#paint7_radial_68_2367)"/>
<text id="&#209;&#129;&#208;&#180;&#208;&#176;&#208;&#189;_8" fill="black" style="white-space: pre" xml:space="preserve" font-family="Montserrat" font-size="5" font-weight="500" letter-spacing="0em"><tspan x="755" y="21.353">&#x441;&#x434;&#x430;&#x43d;</tspan></text>
</g>
<path id="label_lock_8" d="M728.899 45.7482V43.3113C728.899 42.8962 728.926 42.4901 728.98 42.0928M740.597 45.7482V43.3113C740.597 41.8262 740.235 40.3764 739.559 39.1548C738.884 37.933 737.928 36.9973 736.815 36.4723C735.704 35.9471 734.492 35.8576 733.338 36.2154C732.186 36.5732 731.147 37.3614 730.361 38.4752M733.773 60.3699H730.849C728.092 60.3699 726.713 60.3699 725.857 59.2988C725 58.229 725 56.5049 725 53.059C725 49.6132 725 47.8891 725.857 46.8193C726.713 45.7482 728.092 45.7482 730.849 45.7482H738.647C741.404 45.7482 742.783 45.7482 743.639 46.8193C744.496 47.8891 744.496 49.6132 744.496 53.059C744.496 56.5049 744.496 58.229 743.639 59.2988C742.783 60.3699 741.404 60.3699 738.647 60.3699H737.672" stroke="#EADB5A" stroke-linecap="round"/>
</g>
<g id="9">
<path id="room_9" d="M790.956 98.292H719.975C714.452 98.292 709.975 102.769 709.975 108.292V115.27C709.975 117.922 708.921 120.466 707.046 122.341L677.161 152.226C675.286 154.101 674.232 156.645 674.232 159.297V160.995C674.232 166.518 678.71 170.995 684.232 170.995H790.956C796.479 170.995 800.956 166.518 800.956 160.995V108.292C800.956 102.769 796.479 98.292 790.956 98.292Z" fill="#375A6D"/>
<text id="label_area_9" fill="white" style="white-space: pre" xml:space="preserve" font-family="Montserrat" font-size="16" letter-spacing="0em"><tspan x="728" y="167.642">00,00 &#x43c;&#xb2;</tspan></text>
<text id="label_price_9" fill="white" style="white-space: pre" xml:space="preserve" font-family="Montserrat" font-size="16" letter-spacing="0em"><tspan x="714" y="140.235">&#x446;&#x435;&#x43d;&#x430;</tspan></text>
<text id="label_name_9" fill="white" style="white-space: pre" xml:space="preserve" font-family="Montserrat" font-size="16" letter-spacing="0em"><tspan x="770.899" y="122.152">100</tspan></text>
<g id="label_busy_9">
<path id="form_9" d="M757.34 109.66L764.66 109.66L768.321 116L764.66 122.34L757.34 122.34L753.679 116L757.34 109.66Z" fill="url(#paint8_radial_68_2367)"/>
<text id="&#209;&#129;&#208;&#180;&#208;&#176;&#208;&#189;_9" fill="black" style="white-space: pre" xml:space="preserve" font-family="Montserrat" font-size="5" font-weight="500" letter-spacing="0em"><tspan x="755" y="116.793">&#x441;&#x434;&#x430;&#x43d;</tspan></text>
</g>
<path id="label_lock_9" d="M727.899 127.748V125.311C727.899 124.896 727.926 124.49 727.98 124.093M739.597 127.748V125.311C739.597 123.826 739.235 122.376 738.559 121.155C737.884 119.933 736.928 118.997 735.815 118.472C734.704 117.947 733.492 117.858 732.338 118.215C731.186 118.573 730.147 119.361 729.361 120.475M732.773 142.37H729.849C727.092 142.37 725.713 142.37 724.857 141.299C724 140.229 724 138.505 724 135.059C724 131.613 724 129.889 724.857 128.819C725.713 127.748 727.092 127.748 729.849 127.748H737.647C740.404 127.748 741.783 127.748 742.639 128.819C743.496 129.889 743.496 131.613 743.496 135.059C743.496 138.505 743.496 140.229 742.639 141.299C741.783 142.37 740.404 142.37 737.647 142.37H736.672" stroke="#EADB5A" stroke-linecap="round"/>
</g>
<g id="10">
<path id="room_10" d="M651.894 242.228V191.962C651.894 186.439 647.417 181.962 641.894 181.962H543.999C541.235 181.962 538.595 183.106 536.704 185.122L532.2 189.926C528.508 193.864 528.607 200.02 532.424 203.837L577.887 249.299C579.762 251.175 582.305 252.228 584.958 252.228H641.894C647.417 252.228 651.894 247.751 651.894 242.228Z" fill="#375A6D"/>
<text id="label_area_10" fill="white" style="white-space: pre" xml:space="preserve" font-family="Montserrat" font-size="16" letter-spacing="0em"><tspan x="578.877" y="249.687">00,00 &#x43c;&#xb2;</tspan></text>
<text id="label_price_10" fill="white" style="white-space: pre" xml:space="preserve" font-family="Montserrat" font-size="16" letter-spacing="0em"><tspan x="560" y="221.256">&#x446;&#x435;&#x43d;&#x430;</tspan></text>
<text id="label_name_10" fill="white" style="white-space: pre" xml:space="preserve" font-family="Montserrat" font-size="16" letter-spacing="0em"><tspan x="621.432" y="205.821">100</tspan></text>
<g id="label_busy_10">
<path id="form_10" d="M607.34 193.745L614.66 193.745L618.321 200.085L614.66 206.425L607.34 206.425L603.679 200.085L607.34 193.745Z" fill="url(#paint9_radial_68_2367)"/>
<text id="&#209;&#129;&#208;&#180;&#208;&#176;&#208;&#189;_10" fill="black" style="white-space: pre" xml:space="preserve" font-family="Montserrat" font-size="5" font-weight="500" letter-spacing="0em"><tspan x="605.001" y="200.877">&#x441;&#x434;&#x430;&#x43d;</tspan></text>
</g>
<path id="label_lock_10" d="M573.899 208.769V206.332C573.899 205.917 573.926 205.511 573.98 205.113M585.597 208.769V206.332C585.597 204.847 585.235 203.397 584.559 202.175C583.884 200.954 582.928 200.018 581.815 199.493C580.704 198.968 579.492 198.878 578.338 199.236C577.186 199.594 576.147 200.382 575.361 201.496M578.773 223.39H575.849C573.092 223.39 571.713 223.39 570.857 222.319C570 221.25 570 219.525 570 216.08C570 212.634 570 210.91 570.857 209.84C571.713 208.769 573.092 208.769 575.849 208.769H583.647C586.404 208.769 587.783 208.769 588.639 209.84C589.496 210.91 589.496 212.634 589.496 216.08C589.496 219.525 589.496 221.25 588.639 222.319C587.783 223.39 586.404 223.39 583.647 223.39H582.672" stroke="#EADB5A" stroke-linecap="round"/>
</g>
<g id="11">
<path id="room_11" d="M651.893 326.304V267.915C651.893 262.392 647.416 257.915 641.893 257.915H583.332C580.68 257.915 578.136 256.861 576.261 254.986L528.586 207.31C524.68 203.405 518.349 203.405 514.444 207.31L510.228 211.526C508.352 213.401 507.299 215.945 507.299 218.597V228.184C507.299 230.836 508.352 233.38 510.228 235.255L551.079 276.106C552.954 277.982 554.008 280.525 554.008 283.177V326.304C554.008 331.827 558.485 336.304 564.008 336.304H641.893C647.416 336.304 651.893 331.827 651.893 326.304Z" fill="#375A6D"/>
<text id="label_area_11" fill="white" style="white-space: pre" xml:space="preserve" font-family="Montserrat" font-size="16" letter-spacing="0em"><tspan x="580.501" y="331.732">00,00 &#x43c;&#xb2;</tspan></text>
<text id="label_price_11" fill="white" style="white-space: pre" xml:space="preserve" font-family="Montserrat" font-size="16" letter-spacing="0em"><tspan x="563" y="300.051">&#x446;&#x435;&#x43d;&#x430;</tspan></text>
<text id="label_name_11" fill="white" style="white-space: pre" xml:space="preserve" font-family="Montserrat" font-size="16" letter-spacing="0em"><tspan x="621.432" y="282.179">100</tspan></text>
<g id="label_busy_11">
<path id="form_11" d="M607.34 269.66L614.66 269.66L618.321 276L614.66 282.34L607.34 282.34L603.679 276L607.34 269.66Z" fill="url(#paint10_radial_68_2367)"/>
<text id="&#209;&#129;&#208;&#180;&#208;&#176;&#208;&#189;_11" fill="black" style="white-space: pre" xml:space="preserve" font-family="Montserrat" font-size="5" font-weight="500" letter-spacing="0em"><tspan x="605.001" y="276.792">&#x441;&#x434;&#x430;&#x43d;</tspan></text>
</g>
<path id="label_lock_11" d="M577.899 287.565V285.128C577.899 284.713 577.926 284.306 577.98 283.909M589.597 287.565V285.128C589.597 283.643 589.235 282.193 588.559 280.971C587.884 279.749 586.928 278.814 585.815 278.289C584.704 277.764 583.492 277.674 582.338 278.032C581.186 278.39 580.147 279.178 579.361 280.292M582.773 302.186H579.849C577.092 302.186 575.713 302.186 574.857 301.115C574 300.045 574 298.321 574 294.875C574 291.43 574 289.705 574.857 288.636C575.713 287.565 577.092 287.565 579.849 287.565H587.647C590.404 287.565 591.783 287.565 592.639 288.636C593.496 289.705 593.496 291.43 593.496 294.875C593.496 298.321 593.496 300.045 592.639 301.115C591.783 302.186 590.404 302.186 587.647 302.186H586.672" stroke="#EADB5A" stroke-linecap="round"/>
</g>
<g id="12">
<path id="room_12" d="M475.212 373.419V226.892C475.212 221.369 479.689 216.892 485.212 216.892H490.8C496.323 216.892 500.8 221.369 500.8 226.892V228.996C500.8 231.648 501.854 234.192 503.729 236.067L544.174 276.512C546.049 278.387 547.103 280.931 547.103 283.583V373.419C547.103 378.942 542.626 383.419 537.103 383.419H485.212C479.689 383.419 475.212 378.942 475.212 373.419Z" fill="#375A6D"/>
<text id="label_area_12" fill="white" style="white-space: pre" xml:space="preserve" font-family="Montserrat" font-size="16" letter-spacing="0em"><tspan x="477.522" y="375.597">00,00 &#x43c;&#xb2;</tspan></text>
<text id="label_price_12" fill="white" style="white-space: pre" xml:space="preserve" font-family="Montserrat" font-size="16" letter-spacing="0em"><tspan x="493" y="324.42">&#x446;&#x435;&#x43d;&#x430;</tspan></text>
<text id="label_name_12" fill="white" style="white-space: pre" xml:space="preserve" font-family="Montserrat" font-size="16" letter-spacing="0em"><tspan x="494.896" y="265.933">100</tspan></text>
<g id="label_busy_12">
<path id="form_12" d="M481.34 253.66L488.66 253.66L492.321 260L488.66 266.34L481.34 266.34L477.679 260L481.34 253.66Z" fill="url(#paint11_radial_68_2367)"/>
<text id="&#209;&#129;&#208;&#180;&#208;&#176;&#208;&#189;_12" fill="black" style="white-space: pre" xml:space="preserve" font-family="Montserrat" font-size="5" font-weight="500" letter-spacing="0em"><tspan x="479.001" y="260.792">&#x441;&#x434;&#x430;&#x43d;</tspan></text>
</g>
<path id="label_lock_12" d="M507.899 313.559V311.122C507.899 310.707 507.926 310.301 507.98 309.903M519.597 313.559V311.122C519.597 309.637 519.235 308.187 518.559 306.965C517.884 305.744 516.928 304.808 515.815 304.283C514.704 303.758 513.492 303.668 512.338 304.026C511.186 304.384 510.147 305.172 509.361 306.286M512.773 328.18H509.849C507.092 328.18 505.713 328.18 504.857 327.109C504 326.04 504 324.315 504 320.87C504 317.424 504 315.7 504.857 314.63C505.713 313.559 507.092 313.559 509.849 313.559H517.647C520.404 313.559 521.783 313.559 522.639 314.63C523.496 315.7 523.496 317.424 523.496 320.87C523.496 324.315 523.496 326.04 522.639 327.109C521.783 328.18 520.404 328.18 517.647 328.18H516.672" stroke="#EADB5A" stroke-linecap="round"/>
</g>
<g id="13">
<path id="room_13" d="M404.946 224.203H388.139C382.616 224.203 378.139 228.68 378.139 234.203V305.996C378.139 311.519 382.616 315.996 388.139 315.996H454.245C459.768 315.996 464.245 311.519 464.245 305.996V234.203C464.245 228.68 459.768 224.203 454.245 224.203H444.343C442.325 224.203 440.688 222.566 440.688 220.547C440.688 218.528 439.051 216.892 437.032 216.892H412.256C410.238 216.892 408.601 218.528 408.601 220.547C408.601 222.566 406.964 224.203 404.946 224.203Z" fill="#375A6D"/>
<text id="label_area_13" fill="white" style="white-space: pre" xml:space="preserve" font-family="Montserrat" font-size="16" letter-spacing="0em"><tspan x="389" y="307.736">00,00 &#x43c;&#xb2;</tspan></text>
<text id="label_price_13" fill="white" style="white-space: pre" xml:space="preserve" font-family="Montserrat" font-size="16" letter-spacing="0em"><tspan x="404" y="277.736">&#x446;&#x435;&#x43d;&#x430;</tspan></text>
<text id="label_name_13" fill="white" style="white-space: pre" xml:space="preserve" font-family="Montserrat" font-size="16" letter-spacing="0em"><tspan x="418.349" y="243.188">100</tspan></text>
<g id="label_busy_13">
<path id="form_13" d="M404.34 230.66L411.66 230.66L415.321 237L411.66 243.34L404.34 243.34L400.679 237L404.34 230.66Z" fill="url(#paint12_radial_68_2367)"/>
<text id="&#209;&#129;&#208;&#180;&#208;&#176;&#208;&#189;_13" fill="black" style="white-space: pre" xml:space="preserve" font-family="Montserrat" font-size="5" font-weight="500" letter-spacing="0em"><tspan x="402.001" y="237.792">&#x441;&#x434;&#x430;&#x43d;</tspan></text>
</g>
<path id="label_lock_13" d="M418.899 265.748V263.311C418.899 262.896 418.926 262.49 418.98 262.093M430.597 265.748V263.311C430.597 261.826 430.235 260.376 429.559 259.155C428.884 257.933 427.928 256.997 426.815 256.472C425.704 255.947 424.492 255.858 423.338 256.215C422.186 256.573 421.147 257.361 420.361 258.475M423.773 280.37H420.849C418.092 280.37 416.713 280.37 415.857 279.299C415 278.229 415 276.505 415 273.059C415 269.613 415 267.889 415.857 266.819C416.713 265.748 418.092 265.748 420.849 265.748H428.647C431.404 265.748 432.783 265.748 433.639 266.819C434.496 267.889 434.496 269.613 434.496 273.059C434.496 276.505 434.496 278.229 433.639 279.299C432.783 280.37 431.404 280.37 428.647 280.37H427.672" stroke="#EADB5A" stroke-linecap="round"/>
</g>
<g id="14">
<path id="room_14" d="M282.285 305.995V226.892C282.285 221.369 286.762 216.892 292.285 216.892H302.792C305.399 216.892 307.773 218.394 308.889 220.75C310.005 223.106 312.379 224.608 314.986 224.608H360.423C365.946 224.608 370.423 229.086 370.423 234.608V305.995C370.423 311.518 365.946 315.995 360.423 315.995H292.285C286.762 315.995 282.285 311.518 282.285 305.995Z" fill="#375A6D"/>
<text id="label_area_14" fill="white" style="white-space: pre" xml:space="preserve" font-family="Montserrat" font-size="16" letter-spacing="0em"><tspan x="292" y="307.736">00,00 &#x43c;&#xb2;</tspan></text>
<text id="label_price_14" fill="white" style="white-space: pre" xml:space="preserve" font-family="Montserrat" font-size="16" letter-spacing="0em"><tspan x="309" y="277.736">&#x446;&#x435;&#x43d;&#x430;</tspan></text>
<text id="label_name_14" fill="white" style="white-space: pre" xml:space="preserve" font-family="Montserrat" font-size="16" letter-spacing="0em"><tspan x="323.307" y="243.188">100</tspan></text>
<g id="label_busy_14">
<path id="form_14" d="M309.34 230.66L316.66 230.66L320.321 237L316.66 243.34L309.34 243.34L305.679 237L309.34 230.66Z" fill="url(#paint13_radial_68_2367)"/>
<text id="&#209;&#129;&#208;&#180;&#208;&#176;&#208;&#189;_14" fill="black" style="white-space: pre" xml:space="preserve" font-family="Montserrat" font-size="5" font-weight="500" letter-spacing="0em"><tspan x="306.998" y="237.792">&#x441;&#x434;&#x430;&#x43d;</tspan></text>
</g>
<path id="label_lock_14" d="M323.899 265.748V263.311C323.899 262.896 323.926 262.49 323.98 262.093M335.597 265.748V263.311C335.597 261.826 335.235 260.376 334.559 259.155C333.884 257.933 332.928 256.997 331.815 256.472C330.704 255.947 329.492 255.858 328.338 256.215C327.186 256.573 326.147 257.361 325.361 258.475M328.773 280.37H325.849C323.092 280.37 321.713 280.37 320.857 279.299C320 278.229 320 276.505 320 273.059C320 269.613 320 267.889 320.857 266.819C321.713 265.748 323.092 265.748 325.849 265.748H333.647C336.404 265.748 337.783 265.748 338.639 266.819C339.496 267.889 339.496 269.613 339.496 273.059C339.496 276.505 339.496 278.229 338.639 279.299C337.783 280.37 336.404 280.37 333.647 280.37H332.672" stroke="#EADB5A" stroke-linecap="round"/>
</g>
<g id="15">
<path id="room_15" d="M202.802 266.064L182.998 266.119C177.486 266.134 173.025 270.606 173.025 276.119V312.137C173.025 314.268 174.753 315.995 176.884 315.995C179.015 315.995 180.743 317.723 180.743 319.854V325.54C180.743 327.671 179.015 329.399 176.884 329.399C174.753 329.399 173.025 331.126 173.025 333.257V377.299C173.025 379.984 174.105 382.556 176.021 384.436L193.574 401.662C197.49 405.505 203.77 405.475 207.649 401.596L222.085 387.16C223.961 385.284 226.504 384.231 229.157 384.231H327.116C332.639 384.231 337.116 379.754 337.116 374.231V339.399C337.116 333.876 332.639 329.399 327.116 329.399H207.346C203.645 329.399 200.645 326.398 200.645 322.697V322.088C200.645 318.723 203.372 315.995 206.737 315.995C210.102 315.995 212.829 313.267 212.829 309.903V276.064C212.829 270.531 208.336 266.049 202.802 266.064Z" fill="#375A6D"/>
<text id="label_area_15" fill="white" style="white-space: pre" xml:space="preserve" font-family="Montserrat" font-size="16" letter-spacing="0em"><tspan x="260.942" y="378.847">00,00 &#x43c;&#xb2;</tspan></text>
<text id="label_price_15" fill="white" style="white-space: pre" xml:space="preserve" font-family="Montserrat" font-size="16" letter-spacing="0em"><tspan x="197" y="368.86">&#x446;&#x435;&#x43d;&#x430;</tspan></text>
<text id="label_name_15" fill="white" style="white-space: pre" xml:space="preserve" font-family="Montserrat" font-size="16" letter-spacing="0em"><tspan x="304.623" y="352.852">100</tspan></text>
<g id="label_busy_15">
<path id="form_15" d="M291.34 340.777L298.66 340.777L302.321 347.117L298.66 353.457L291.34 353.457L287.679 347.117L291.34 340.777Z" fill="url(#paint14_radial_68_2367)"/>
<text id="&#209;&#129;&#208;&#180;&#208;&#176;&#208;&#189;_15" fill="black" style="white-space: pre" xml:space="preserve" font-family="Montserrat" font-size="5" font-weight="500" letter-spacing="0em"><tspan x="289" y="347.909">&#x441;&#x434;&#x430;&#x43d;</tspan></text>
</g>
<path id="label_lock_15" d="M210.899 354.748V352.311C210.899 351.896 210.926 351.49 210.98 351.093M222.597 354.748V352.311C222.597 350.826 222.235 349.376 221.559 348.155C220.884 346.933 219.928 345.997 218.815 345.472C217.704 344.947 216.492 344.858 215.338 345.215C214.186 345.573 213.147 346.361 212.361 347.475M215.773 369.37H212.849C210.092 369.37 208.713 369.37 207.857 368.299C207 367.229 207 365.505 207 362.059C207 358.613 207 356.889 207.857 355.819C208.713 354.748 210.092 354.748 212.849 354.748H220.647C223.404 354.748 224.783 354.748 225.639 355.819C226.496 356.889 226.496 358.613 226.496 362.059C226.496 365.505 226.496 367.229 225.639 368.299C224.783 369.37 223.404 369.37 220.647 369.37H219.672" stroke="#EADB5A" stroke-linecap="round"/>
</g>
<g id="16">
<path id="room_16" d="M234.031 390.324H327.116C332.639 390.324 337.116 394.801 337.116 400.324V448.154C337.116 453.676 332.639 458.154 327.116 458.154H215.519C209.996 458.154 205.519 453.676 205.519 448.154V418.836C205.519 416.184 206.572 413.641 208.447 411.765L226.959 393.253C228.835 391.378 231.378 390.324 234.031 390.324Z" fill="#375A6D"/>
<text id="label_area_16" fill="white" style="white-space: pre" xml:space="preserve" font-family="Montserrat" font-size="16" letter-spacing="0em"><tspan x="260.941" y="454.393">00,00 &#x43c;&#xb2;</tspan></text>
<text id="label_price_16" fill="white" style="white-space: pre" xml:space="preserve" font-family="Montserrat" font-size="16" letter-spacing="0em"><tspan x="227" y="432.461">&#x446;&#x435;&#x43d;&#x430;</tspan></text>
<text id="label_name_16" fill="white" style="white-space: pre" xml:space="preserve" font-family="Montserrat" font-size="16" letter-spacing="0em"><tspan x="304.623" y="413.777">100</tspan></text>
<g id="label_busy_16">
<path id="form_16" d="M291.34 401.7L298.66 401.7L302.321 408.04L298.66 414.38L291.34 414.38L287.679 408.04L291.34 401.7Z" fill="url(#paint15_radial_68_2367)"/>
<text id="&#209;&#129;&#208;&#180;&#208;&#176;&#208;&#189;_16" fill="black" style="white-space: pre" xml:space="preserve" font-family="Montserrat" font-size="5" font-weight="500" letter-spacing="0em"><tspan x="289" y="408.833">&#x441;&#x434;&#x430;&#x43d;</tspan></text>
</g>
<path id="label_lock_16" d="M240.898 418.349V415.912C240.898 415.497 240.926 415.091 240.979 414.693M252.596 418.349V415.912C252.596 414.427 252.234 412.977 251.559 411.755C250.883 410.534 249.927 409.598 248.814 409.073C247.703 408.548 246.491 408.458 245.337 408.816C244.185 409.174 243.146 409.962 242.36 411.076M245.772 432.97H242.848C240.091 432.97 238.712 432.97 237.856 431.899C236.999 430.83 236.999 429.105 236.999 425.66C236.999 422.214 236.999 420.49 237.856 419.42C238.712 418.349 240.091 418.349 242.848 418.349H250.646C253.403 418.349 254.782 418.349 255.638 419.42C256.495 420.49 256.495 422.214 256.495 425.66C256.495 429.105 256.495 430.83 255.638 431.899C254.782 432.97 253.403 432.97 250.646 432.97H249.671" stroke="#EADB5A" stroke-linecap="round"/>
</g>
<g id="17">
<path id="room_17" d="M215.519 462.216H327.116C332.639 462.216 337.116 466.693 337.116 472.216V520.045C337.116 525.568 332.639 530.045 327.116 530.045H253.933C251.28 530.045 248.737 528.992 246.862 527.116L231.599 511.854C229.723 509.978 227.18 508.925 224.528 508.925H215.519C209.996 508.925 205.519 504.448 205.519 498.925V472.216C205.519 466.693 209.996 462.216 215.519 462.216Z" fill="#375A6D"/>
<text id="label_area_17" fill="white" style="white-space: pre" xml:space="preserve" font-family="Montserrat" font-size="16" letter-spacing="0em"><tspan x="260.941" y="524.254">00,00 &#x43c;&#xb2;</tspan></text>
<text id="label_price_17" fill="white" style="white-space: pre" xml:space="preserve" font-family="Montserrat" font-size="16" letter-spacing="0em"><tspan x="227" y="496.634">&#x446;&#x435;&#x43d;&#x430;</tspan></text>
<text id="label_name_17" fill="white" style="white-space: pre" xml:space="preserve" font-family="Montserrat" font-size="16" letter-spacing="0em"><tspan x="304.623" y="485.261">100</tspan></text>
<g id="label_busy_17">
<path id="form_17" d="M291.34 473.187L298.66 473.187L302.321 479.527L298.66 485.867L291.34 485.867L287.679 479.527L291.34 473.187Z" fill="url(#paint16_radial_68_2367)"/>
<text id="&#209;&#129;&#208;&#180;&#208;&#176;&#208;&#189;_17" fill="black" style="white-space: pre" xml:space="preserve" font-family="Montserrat" font-size="5" font-weight="500" letter-spacing="0em"><tspan x="289" y="480.32">&#x441;&#x434;&#x430;&#x43d;</tspan></text>
</g>
<path id="label_lock_17" d="M240.898 484.149V481.712C240.898 481.297 240.926 480.89 240.979 480.493M252.596 484.149V481.712C252.596 480.227 252.234 478.777 251.559 477.555C250.883 476.333 249.927 475.398 248.814 474.873C247.703 474.348 246.491 474.258 245.337 474.616C244.185 474.974 243.146 475.762 242.36 476.876M245.772 498.77H242.848C240.091 498.77 238.712 498.77 237.856 497.699C236.999 496.629 236.999 494.905 236.999 491.459C236.999 488.014 236.999 486.289 237.856 485.22C238.712 484.149 240.091 484.149 242.848 484.149H250.646C253.403 484.149 254.782 484.149 255.638 485.22C256.495 486.289 256.495 488.014 256.495 491.459C256.495 494.905 256.495 496.629 255.638 497.699C254.782 498.77 253.403 498.77 250.646 498.77H249.671" stroke="#EADB5A" stroke-linecap="round"/>
</g>
<g id="18">
<path id="room_18" d="M251.489 534.111L327.128 534.203C332.646 534.209 337.116 538.684 337.116 544.203V583C337.116 588.523 332.639 593 327.116 593H174.902C169.379 593 164.902 588.523 164.902 583V544.106C164.902 538.583 169.379 534.106 174.902 534.106H180.662C183.314 534.106 185.858 533.052 187.733 531.177L202.996 515.914C204.871 514.039 207.415 512.985 210.067 512.985H222.091C224.743 512.985 227.287 514.039 229.162 515.914L244.43 531.182C246.302 533.054 248.841 534.108 251.489 534.111Z" fill="#375A6D"/>
<text id="label_area_18" fill="white" style="white-space: pre" xml:space="preserve" font-family="Montserrat" font-size="16" letter-spacing="0em"><tspan x="260.942" y="587.616">00,00 &#x43c;&#xb2;</tspan></text>
<text id="label_price_18" fill="white" style="white-space: pre" xml:space="preserve" font-family="Montserrat" font-size="16" letter-spacing="0em"><tspan x="197" y="559.234">&#x446;&#x435;&#x43d;&#x430;</tspan></text>
<text id="label_name_18" fill="white" style="white-space: pre" xml:space="preserve" font-family="Montserrat" font-size="16" letter-spacing="0em"><tspan x="304.623" y="557.559">100</tspan></text>
<g id="label_busy_18">
<path id="form_18" d="M291.34 545.66L298.66 545.66L302.321 552L298.66 558.34L291.34 558.34L287.679 552L291.34 545.66Z" fill="url(#paint17_radial_68_2367)"/>
<text id="&#209;&#129;&#208;&#180;&#208;&#176;&#208;&#189;_18" fill="black" style="white-space: pre" xml:space="preserve" font-family="Montserrat" font-size="5" font-weight="500" letter-spacing="0em"><tspan x="289" y="552.793">&#x441;&#x434;&#x430;&#x43d;</tspan></text>
</g>
<path id="label_lock_18" d="M211.899 546.748V544.311C211.899 543.896 211.926 543.49 211.98 543.093M223.597 546.748V544.311C223.597 542.826 223.235 541.376 222.559 540.155C221.884 538.933 220.928 537.997 219.815 537.472C218.704 536.947 217.492 536.858 216.338 537.215C215.186 537.573 214.147 538.361 213.361 539.475M216.773 561.37H213.849C211.092 561.37 209.713 561.37 208.857 560.299C208 559.229 208 557.505 208 554.059C208 550.613 208 548.889 208.857 547.819C209.713 546.748 211.092 546.748 213.849 546.748H221.647C224.404 546.748 225.783 546.748 226.639 547.819C227.496 548.889 227.496 550.613 227.496 554.059C227.496 557.505 227.496 559.229 226.639 560.299C225.783 561.37 224.404 561.37 221.647 561.37H220.672" stroke="#EADB5A" stroke-linecap="round"/>
</g>
<g id="21">
<path id="room_19" d="M147.592 593H12.4375C6.91465 593 2.4375 588.522 2.4375 583V522.579C2.4375 517.056 6.91465 512.579 12.4375 512.579H147.592C153.115 512.579 157.592 517.056 157.592 522.579V583C157.592 588.522 153.115 593 147.592 593Z" fill="#375A6D"/>
<rect id="Rectangle 432" y="534.513" width="4.87397" height="37.3671" fill="#8FB6F9"/>
<text id="label_area_19" fill="white" style="white-space: pre" xml:space="preserve" font-family="Montserrat" font-size="16" letter-spacing="0em"><tspan x="14" y="587.615">00,00 &#x43c;&#xb2;</tspan></text>
<text id="label_price_19" fill="white" style="white-space: pre" xml:space="preserve" font-family="Montserrat" font-size="16" letter-spacing="0em"><tspan x="98" y="560.809">&#x446;&#x435;&#x43d;&#x430;</tspan></text>
<text id="label_name_19" fill="white" style="white-space: pre" xml:space="preserve" font-family="Montserrat" font-size="16" letter-spacing="0em"><tspan x="34.1182" y="537.252">100</tspan></text>
<g id="label_busy_19">
<path id="form_19" d="M20.3397 525.66L27.6603 525.66L31.3205 532L27.6603 538.34L20.3397 538.34L16.6795 532L20.3397 525.66Z" fill="url(#paint18_radial_68_2367)"/>
<text id="&#209;&#129;&#208;&#180;&#208;&#176;&#208;&#189;_19" fill="black" style="white-space: pre" xml:space="preserve" font-family="Montserrat" font-size="5" font-weight="500" letter-spacing="0em"><tspan x="17.998" y="532.793">&#x441;&#x434;&#x430;&#x43d;</tspan></text>
</g>
<path id="label_lock_19" d="M112.899 548.322V545.886C112.899 545.47 112.926 545.064 112.98 544.667M124.597 548.322V545.886C124.597 544.4 124.235 542.951 123.559 541.729C122.884 540.507 121.928 539.572 120.815 539.047C119.704 538.521 118.492 538.432 117.338 538.79C116.186 539.147 115.147 539.936 114.361 541.049M117.773 562.944H114.849C112.092 562.944 110.713 562.944 109.857 561.873C109 560.803 109 559.079 109 555.633C109 552.187 109 550.463 109.857 549.393C110.713 548.322 112.092 548.322 114.849 548.322H122.647C125.404 548.322 126.783 548.322 127.639 549.393C128.496 550.463 128.496 552.187 128.496 555.633C128.496 559.079 128.496 560.803 127.639 561.873C126.783 562.944 125.404 562.944 122.647 562.944H121.672" stroke="#EADB5A" stroke-linecap="round"/>
</g>
<g id="20">
<path id="room_20" d="M147.585 508.214L12.4305 508.119C6.91038 508.116 2.4375 503.639 2.4375 498.119V449.071C2.4375 443.546 6.91893 439.068 12.4445 439.071L147.599 439.166C153.119 439.17 157.592 443.646 157.592 449.166V498.214C157.592 503.74 153.111 508.218 147.585 508.214Z" fill="#375A6D"/>
<rect id="Rectangle 431" y="454.904" width="4.87397" height="37.3671" fill="#8FB6F9"/>
<text id="label_area_20" fill="white" style="white-space: pre" xml:space="preserve" font-family="Montserrat" font-size="16" letter-spacing="0em"><tspan x="14" y="501.509">00,00 &#x43c;&#xb2;</tspan></text>
<text id="label_price_20" fill="white" style="white-space: pre" xml:space="preserve" font-family="Montserrat" font-size="16" letter-spacing="0em"><tspan x="98" y="482.86">&#x446;&#x435;&#x43d;&#x430;</tspan></text>
<text id="label_name_20" fill="white" style="white-space: pre" xml:space="preserve" font-family="Montserrat" font-size="16" letter-spacing="0em"><tspan x="34.1182" y="462.517">100</tspan></text>
<g id="label_busy_20">
<path id="form_20" d="M20.3397 450.441L27.6603 450.441L31.3205 456.781L27.6603 463.121L20.3397 463.121L16.6795 456.781L20.3397 450.441Z" fill="url(#paint19_radial_68_2367)"/>
<text id="&#209;&#129;&#208;&#180;&#208;&#176;&#208;&#189;_20" fill="black" style="white-space: pre" xml:space="preserve" font-family="Montserrat" font-size="5" font-weight="500" letter-spacing="0em"><tspan x="17.998" y="457.574">&#x441;&#x434;&#x430;&#x43d;</tspan></text>
</g>
<path id="label_lock_20" d="M112.899 468.748V466.311C112.899 465.896 112.926 465.49 112.98 465.093M124.597 468.748V466.311C124.597 464.826 124.235 463.376 123.559 462.155C122.884 460.933 121.928 459.997 120.815 459.472C119.704 458.947 118.492 458.858 117.338 459.215C116.186 459.573 115.147 460.361 114.361 461.475M117.773 483.37H114.849C112.092 483.37 110.713 483.37 109.857 482.299C109 481.229 109 479.505 109 476.059C109 472.613 109 470.889 109.857 469.819C110.713 468.748 112.092 468.748 114.849 468.748H122.647C125.404 468.748 126.783 468.748 127.639 469.819C128.496 470.889 128.496 472.613 128.496 476.059C128.496 479.505 128.496 481.229 127.639 482.299C126.783 483.37 125.404 483.37 122.647 483.37H121.672" stroke="#EADB5A" stroke-linecap="round"/>
</g>
<g id="19">
<path id="room_21" d="M147.592 434.189H12.4375C6.91465 434.189 2.4375 429.712 2.4375 424.189L2.4375 376.359C2.4375 370.837 6.91466 366.359 12.4375 366.359H116.959C122.352 366.359 126.724 370.731 126.724 376.124C126.724 378.714 127.753 381.198 129.584 383.029L154.663 408.109C156.539 409.984 157.592 412.527 157.592 415.18V424.189C157.592 429.712 153.115 434.189 147.592 434.189Z" fill="#375A6D"/>
<rect id="Rectangle 430" y="381.794" width="4.87397" height="37.3671" fill="#8FB6F9"/>
<text id="label_price_21" fill="white" style="white-space: pre" xml:space="preserve" font-family="Montserrat" font-size="16" letter-spacing="0em"><tspan x="78" y="408.09">&#x446;&#x435;&#x43d;&#x430;</tspan></text>
<text id="label_name_21" fill="white" style="white-space: pre" xml:space="preserve" font-family="Montserrat" font-size="16" letter-spacing="0em"><tspan x="34.1182" y="390.219">100</tspan></text>
<g id="label_busy_21">
<path id="form_21" d="M20.3397 378.143L27.6603 378.143L31.3205 384.483L27.6603 390.823L20.3397 390.823L16.6795 384.483L20.3397 378.143Z" fill="url(#paint20_radial_68_2367)"/>
<text id="&#209;&#129;&#208;&#180;&#208;&#176;&#208;&#189;_21" fill="black" style="white-space: pre" xml:space="preserve" font-family="Montserrat" font-size="5" font-weight="500" letter-spacing="0em"><tspan x="17.998" y="385.276">&#x441;&#x434;&#x430;&#x43d;</tspan></text>
</g>
<path id="label_lock_21" d="M92.8992 395.604V393.167C92.8992 392.752 92.9265 392.346 92.9801 391.948M104.597 395.604V393.167C104.597 391.682 104.235 390.232 103.559 389.01C102.884 387.788 101.928 386.853 100.815 386.328C99.7042 385.803 98.4916 385.713 97.3384 386.071C96.1862 386.429 95.1471 387.217 94.3614 388.331M97.7731 410.225H94.8488C92.092 410.225 90.7127 410.225 89.8568 409.154C89 408.084 89 406.36 89 402.915C89 399.469 89 397.745 89.8568 396.675C90.7127 395.604 92.092 395.604 94.8488 395.604H102.647C105.404 395.604 106.783 395.604 107.639 396.675C108.496 397.745 108.496 399.469 108.496 402.915C108.496 406.36 108.496 408.084 107.639 409.154C106.783 410.225 105.404 410.225 102.647 410.225H101.672" stroke="#EADB5A" stroke-linecap="round"/>
<text id="label_area_21" fill="white" style="white-space: pre" xml:space="preserve" font-family="Montserrat" font-size="16" letter-spacing="0em"><tspan x="14" y="428.398">00,00 &#x43c;&#xb2;</tspan></text>
</g>
<g id="18_2">
<path id="room_22" d="M116.318 362.706H12.4375C6.91465 362.706 2.4375 358.229 2.4375 352.706L2.4375 297.159C2.4375 291.636 6.91466 287.159 12.4375 287.159H94.5467C95.2694 287.159 95.8553 286.573 95.8553 285.851C95.8553 284.685 97.2648 284.101 98.0892 284.925L123.389 310.225C125.264 312.1 126.318 314.644 126.318 317.296V352.706C126.318 358.229 121.84 362.706 116.318 362.706Z" fill="#375A6D"/>
<rect id="Rectangle 429" y="306.248" width="4.87397" height="37.3671" fill="#8FB6F9"/>
<text id="label_price_22" fill="white" style="white-space: pre" xml:space="preserve" font-family="Montserrat" font-size="16" letter-spacing="0em"><tspan x="78" y="333.357">&#x446;&#x435;&#x43d;&#x430;</tspan></text>
<text id="label_name_22" fill="white" style="white-space: pre" xml:space="preserve" font-family="Montserrat" font-size="16" letter-spacing="0em"><tspan x="34.1182" y="312.236">100</tspan></text>
<g id="label_busy_22">
<path id="form_22" d="M20.3397 300.159L27.6603 300.159L31.3205 306.499L27.6603 312.839L20.3397 312.839L16.6795 306.499L20.3397 300.159Z" fill="url(#paint21_radial_68_2367)"/>
<text id="&#209;&#129;&#208;&#180;&#208;&#176;&#208;&#189;_22" fill="black" style="white-space: pre" xml:space="preserve" font-family="Montserrat" font-size="5" font-weight="500" letter-spacing="0em"><tspan x="17.998" y="307.292">&#x441;&#x434;&#x430;&#x43d;</tspan></text>
</g>
<path id="label_lock_22" d="M92.8992 319.246V316.809C92.8992 316.394 92.9265 315.988 92.9801 315.591M104.597 319.246V316.809C104.597 315.324 104.235 313.874 103.559 312.653C102.884 311.431 101.928 310.495 100.815 309.97C99.7042 309.445 98.4916 309.356 97.3384 309.713C96.1862 310.071 95.1471 310.859 94.3614 311.973M97.7731 333.868H94.8488C92.092 333.868 90.7127 333.868 89.8568 332.797C89 331.727 89 330.003 89 326.557C89 323.111 89 321.387 89.8568 320.317C90.7127 319.246 92.092 319.246 94.8488 319.246H102.647C105.404 319.246 106.783 319.246 107.639 320.317C108.496 321.387 108.496 323.111 108.496 326.557C108.496 330.003 108.496 331.727 107.639 332.797C106.783 333.868 105.404 333.868 102.647 333.868H101.672" stroke="#EADB5A" stroke-linecap="round"/>
<text id="label_area_22" fill="white" style="white-space: pre" xml:space="preserve" font-family="Montserrat" font-size="16" letter-spacing="0em"><tspan x="14" y="357.727">00,00 &#x43c;&#xb2;</tspan></text>
</g>
<text id="&#208;&#178;&#209;&#133;&#208;&#190;&#208;&#180;" fill="black" style="white-space: pre" xml:space="preserve" font-family="Montserrat" font-size="16" font-weight="500" letter-spacing="0em"><tspan x="7.31152" y="265.121">&#x432;&#x445;&#x43e;&#x434;</tspan></text>
</g>
<defs>
<radialGradient id="paint0_radial_68_2367" cx="0" cy="0" r="1" gradientUnits="userSpaceOnUse" gradientTransform="translate(133.765 19.4898) rotate(130.972) scale(10.5267)">
<stop stop-color="#03CF21"/>
<stop offset="0.706731" stop-color="#20CDED"/>
</radialGradient>
<radialGradient id="paint1_radial_68_2367" cx="0" cy="0" r="1" gradientTransform="matrix(-6.90115 7.94798 -7.94678 -6.90219 194.763 19.4898)" gradientUnits="userSpaceOnUse">
<stop stop-color="#03CF21"/>
<stop offset="0.706731" stop-color="#20CDED"/>
</radialGradient>
<radialGradient id="paint2_radial_68_2367" cx="0" cy="0" r="1" gradientTransform="matrix(-6.90115 7.94798 -7.94678 -6.90219 266.763 19.4898)" gradientUnits="userSpaceOnUse">
<stop stop-color="#03CF21"/>
<stop offset="0.706731" stop-color="#20CDED"/>
</radialGradient>
<radialGradient id="paint3_radial_68_2367" cx="0" cy="0" r="1" gradientUnits="userSpaceOnUse" gradientTransform="translate(355.765 19.4898) rotate(130.972) scale(10.5267)">
<stop stop-color="#03CF21"/>
<stop offset="0.706731" stop-color="#20CDED"/>
</radialGradient>
<radialGradient id="paint4_radial_68_2367" cx="0" cy="0" r="1" gradientUnits="userSpaceOnUse" gradientTransform="translate(433.765 19.4898) rotate(130.972) scale(10.5267)">
<stop stop-color="#03CF21"/>
<stop offset="0.706731" stop-color="#20CDED"/>
</radialGradient>
<radialGradient id="paint5_radial_68_2367" cx="0" cy="0" r="1" gradientUnits="userSpaceOnUse" gradientTransform="translate(517.765 19.4898) rotate(130.972) scale(10.5267)">
<stop stop-color="#03CF21"/>
<stop offset="0.706731" stop-color="#20CDED"/>
</radialGradient>
<radialGradient id="paint6_radial_68_2367" cx="0" cy="0" r="1" gradientUnits="userSpaceOnUse" gradientTransform="translate(603.765 19.4898) rotate(130.972) scale(10.5267)">
<stop stop-color="#03CF21"/>
<stop offset="0.706731" stop-color="#20CDED"/>
</radialGradient>
<radialGradient id="paint7_radial_68_2367" cx="0" cy="0" r="1" gradientUnits="userSpaceOnUse" gradientTransform="translate(764.765 18.0504) rotate(130.972) scale(10.5267)">
<stop stop-color="#03CF21"/>
<stop offset="0.706731" stop-color="#20CDED"/>
</radialGradient>
<radialGradient id="paint8_radial_68_2367" cx="0" cy="0" r="1" gradientUnits="userSpaceOnUse" gradientTransform="translate(764.765 113.49) rotate(130.972) scale(10.5267)">
<stop stop-color="#03CF21"/>
<stop offset="0.706731" stop-color="#20CDED"/>
</radialGradient>
<radialGradient id="paint9_radial_68_2367" cx="0" cy="0" r="1" gradientUnits="userSpaceOnUse" gradientTransform="translate(614.765 197.575) rotate(130.972) scale(10.5267)">
<stop stop-color="#03CF21"/>
<stop offset="0.706731" stop-color="#20CDED"/>
</radialGradient>
<radialGradient id="paint10_radial_68_2367" cx="0" cy="0" r="1" gradientUnits="userSpaceOnUse" gradientTransform="translate(614.765 273.49) rotate(130.972) scale(10.5267)">
<stop stop-color="#03CF21"/>
<stop offset="0.706731" stop-color="#20CDED"/>
</radialGradient>
<radialGradient id="paint11_radial_68_2367" cx="0" cy="0" r="1" gradientUnits="userSpaceOnUse" gradientTransform="translate(488.765 257.49) rotate(130.972) scale(10.5267)">
<stop stop-color="#03CF21"/>
<stop offset="0.706731" stop-color="#20CDED"/>
</radialGradient>
<radialGradient id="paint12_radial_68_2367" cx="0" cy="0" r="1" gradientUnits="userSpaceOnUse" gradientTransform="translate(411.765 234.49) rotate(130.972) scale(10.5267)">
<stop stop-color="#03CF21"/>
<stop offset="0.706731" stop-color="#20CDED"/>
</radialGradient>
<radialGradient id="paint13_radial_68_2367" cx="0" cy="0" r="1" gradientUnits="userSpaceOnUse" gradientTransform="translate(316.765 234.49) rotate(130.972) scale(10.5267)">
<stop stop-color="#03CF21"/>
<stop offset="0.706731" stop-color="#20CDED"/>
</radialGradient>
<radialGradient id="paint14_radial_68_2367" cx="0" cy="0" r="1" gradientUnits="userSpaceOnUse" gradientTransform="translate(298.765 344.607) rotate(130.972) scale(10.5267)">
<stop stop-color="#03CF21"/>
<stop offset="0.706731" stop-color="#20CDED"/>
</radialGradient>
<radialGradient id="paint15_radial_68_2367" cx="0" cy="0" r="1" gradientUnits="userSpaceOnUse" gradientTransform="translate(298.765 405.53) rotate(130.972) scale(10.5267)">
<stop stop-color="#03CF21"/>
<stop offset="0.706731" stop-color="#20CDED"/>
</radialGradient>
<radialGradient id="paint16_radial_68_2367" cx="0" cy="0" r="1" gradientUnits="userSpaceOnUse" gradientTransform="translate(298.765 477.017) rotate(130.972) scale(10.5267)">
<stop stop-color="#03CF21"/>
<stop offset="0.706731" stop-color="#20CDED"/>
</radialGradient>
<radialGradient id="paint17_radial_68_2367" cx="0" cy="0" r="1" gradientUnits="userSpaceOnUse" gradientTransform="translate(298.765 549.49) rotate(130.972) scale(10.5267)">
<stop stop-color="#03CF21"/>
<stop offset="0.706731" stop-color="#20CDED"/>
</radialGradient>
<radialGradient id="paint18_radial_68_2367" cx="0" cy="0" r="1" gradientUnits="userSpaceOnUse" gradientTransform="translate(27.7649 529.49) rotate(130.972) scale(10.5267)">
<stop stop-color="#03CF21"/>
<stop offset="0.706731" stop-color="#20CDED"/>
</radialGradient>
<radialGradient id="paint19_radial_68_2367" cx="0" cy="0" r="1" gradientUnits="userSpaceOnUse" gradientTransform="translate(27.7649 454.271) rotate(130.972) scale(10.5267)">
<stop stop-color="#03CF21"/>
<stop offset="0.706731" stop-color="#20CDED"/>
</radialGradient>
<radialGradient id="paint20_radial_68_2367" cx="0" cy="0" r="1" gradientUnits="userSpaceOnUse" gradientTransform="translate(27.7649 381.973) rotate(130.972) scale(10.5267)">
<stop stop-color="#03CF21"/>
<stop offset="0.706731" stop-color="#20CDED"/>
</radialGradient>
<radialGradient id="paint21_radial_68_2367" cx="0" cy="0" r="1" gradientUnits="userSpaceOnUse" gradientTransform="translate(27.7649 303.989) rotate(130.972) scale(10.5267)">
<stop stop-color="#03CF21"/>
<stop offset="0.706731" stop-color="#20CDED"/>
</radialGradient>
</defs>
</svg>
