<svg width="801" height="609" viewBox="0 0 801 609" fill="none" xmlns="http://www.w3.org/2000/svg">
<g id="Group 1179">
<path id="Vector 1627" d="M790.067 0H755.119C749.596 0 745.119 4.47716 745.119 10V77.4163C745.119 82.9392 749.596 87.4163 755.119 87.4163H790.067C795.589 87.4163 800.067 82.9391 800.067 77.4163V10C800.067 4.47715 795.589 0 790.067 0Z" fill="#FDD24F"/>
<g id="entrance">
<path id="Vector 1628" d="M777.589 92.4111H755.536C750.013 92.4111 745.536 96.8883 745.536 102.411V265.985C745.536 271.508 741.059 275.985 735.536 275.985H97.4161C91.8933 275.985 87.4161 280.463 87.4161 285.985V509.502C87.4161 515.025 82.939 519.502 77.4161 519.502H66.6123C61.0895 519.502 56.6123 523.979 56.6123 529.502V577.77C56.6123 583.293 61.0895 587.77 66.6123 587.77H77.4161C82.939 587.77 87.4161 592.247 87.4161 597.77V599C87.4161 604.523 91.8933 609 97.4161 609H160.67C166.193 609 170.67 604.523 170.67 599V346.76C170.67 341.238 175.147 336.76 180.67 336.76H790.067C795.59 336.76 800.067 332.283 800.067 326.76V116.138C800.067 112.23 796.899 109.062 792.99 109.062C789.082 109.062 785.914 105.894 785.914 101.985V100.736C785.914 96.1385 782.186 92.4111 777.589 92.4111Z" fill="#FDD24F"/>
<path id="&#208;&#178;&#209;&#133;&#208;&#190;&#208;&#180;" d="M49.976 500.648C51.1173 500.915 51.688 501.603 51.688 502.712C51.688 503.448 51.416 504.013 50.872 504.408C50.328 504.803 49.5173 505 48.44 505H44.616V496.584H48.328C49.288 496.584 50.04 496.771 50.584 497.144C51.128 497.517 51.4 498.051 51.4 498.744C51.4 499.203 51.272 499.597 51.016 499.928C50.7707 500.248 50.424 500.488 49.976 500.648ZM45.72 500.328H48.248C48.8987 500.328 49.3947 500.205 49.736 499.96C50.088 499.715 50.264 499.357 50.264 498.888C50.264 498.419 50.088 498.067 49.736 497.832C49.3947 497.597 48.8987 497.48 48.248 497.48H45.72V500.328ZM48.392 504.104C49.1173 504.104 49.6613 503.987 50.024 503.752C50.3867 503.517 50.568 503.149 50.568 502.648C50.568 502.147 50.4027 501.779 50.072 501.544C49.7413 501.299 49.2187 501.176 48.504 501.176H45.72V504.104H48.392ZM59.6144 505L56.9424 501.48L54.2544 505H52.9744L56.3024 500.68L53.1344 496.584H54.4144L56.9424 499.88L59.4704 496.584H60.7184L57.5504 500.68L60.9104 505H59.6144ZM65.9474 505.08C65.1367 505.08 64.406 504.899 63.7554 504.536C63.1047 504.163 62.5927 503.651 62.2194 503C61.846 502.349 61.6594 501.613 61.6594 500.792C61.6594 499.971 61.846 499.235 62.2194 498.584C62.5927 497.933 63.1047 497.427 63.7554 497.064C64.406 496.701 65.1367 496.52 65.9474 496.52C66.758 496.52 67.4887 496.701 68.1394 497.064C68.79 497.427 69.2967 497.933 69.6594 498.584C70.0327 499.235 70.2194 499.971 70.2194 500.792C70.2194 501.613 70.0327 502.349 69.6594 503C69.2967 503.651 68.79 504.163 68.1394 504.536C67.4887 504.899 66.758 505.08 65.9474 505.08ZM65.9474 504.072C66.5447 504.072 67.078 503.939 67.5474 503.672C68.0274 503.395 68.4007 503.005 68.6674 502.504C68.934 502.003 69.0674 501.432 69.0674 500.792C69.0674 500.152 68.934 499.581 68.6674 499.08C68.4007 498.579 68.0274 498.195 67.5474 497.928C67.078 497.651 66.5447 497.512 65.9474 497.512C65.35 497.512 64.8114 497.651 64.3314 497.928C63.862 498.195 63.4887 498.579 63.2114 499.08C62.9447 499.581 62.8114 500.152 62.8114 500.792C62.8114 501.432 62.9447 502.003 63.2114 502.504C63.4887 503.005 63.862 503.395 64.3314 503.672C64.8114 503.939 65.35 504.072 65.9474 504.072ZM80.8084 504.008V507.032H79.7364V505H72.2004V507.032H71.1284V504.008H71.6084C72.1737 503.976 72.5577 503.56 72.7604 502.76C72.963 501.96 73.1017 500.84 73.1764 499.4L73.2884 496.584H79.4964V504.008H80.8084ZM74.2164 499.464C74.163 500.659 74.0617 501.645 73.9124 502.424C73.763 503.192 73.4964 503.72 73.1124 504.008H78.3604V497.592H74.3124L74.2164 499.464Z" fill="black"/>
<path id="&#208;&#178;&#209;&#139;&#209;&#133;&#208;&#190;&#208;&#180;" d="M6.976 555.648C8.11733 555.915 8.688 556.603 8.688 557.712C8.688 558.448 8.416 559.013 7.872 559.408C7.328 559.803 6.51733 560 5.44 560H1.616V551.584H5.328C6.288 551.584 7.04 551.771 7.584 552.144C8.128 552.517 8.4 553.051 8.4 553.744C8.4 554.203 8.272 554.597 8.016 554.928C7.77067 555.248 7.424 555.488 6.976 555.648ZM2.72 555.328H5.248C5.89867 555.328 6.39467 555.205 6.736 554.96C7.088 554.715 7.264 554.357 7.264 553.888C7.264 553.419 7.088 553.067 6.736 552.832C6.39467 552.597 5.89867 552.48 5.248 552.48H2.72V555.328ZM5.392 559.104C6.11733 559.104 6.66133 558.987 7.024 558.752C7.38667 558.517 7.568 558.149 7.568 557.648C7.568 557.147 7.40267 556.779 7.072 556.544C6.74133 556.299 6.21867 556.176 5.504 556.176H2.72V559.104H5.392ZM14.8864 554.56C15.9424 554.571 16.7477 554.805 17.3024 555.264C17.857 555.723 18.1344 556.384 18.1344 557.248C18.1344 558.144 17.8357 558.832 17.2384 559.312C16.641 559.792 15.7877 560.027 14.6784 560.016L11.3504 560V551.584H12.4864V554.528L14.8864 554.56ZM19.5424 551.584H20.6784V560H19.5424V551.584ZM14.6144 559.152C15.393 559.163 15.9797 559.008 16.3744 558.688C16.7797 558.357 16.9824 557.877 16.9824 557.248C16.9824 556.629 16.785 556.171 16.3904 555.872C15.9957 555.573 15.4037 555.419 14.6144 555.408L12.4864 555.376V559.12L14.6144 559.152ZM29.1769 560L26.5049 556.48L23.8169 560H22.5369L25.8649 555.68L22.6969 551.584H23.9769L26.5049 554.88L29.0329 551.584H30.2809L27.1129 555.68L30.4729 560H29.1769ZM35.5099 560.08C34.6992 560.08 33.9685 559.899 33.3179 559.536C32.6672 559.163 32.1552 558.651 31.7819 558C31.4085 557.349 31.2219 556.613 31.2219 555.792C31.2219 554.971 31.4085 554.235 31.7819 553.584C32.1552 552.933 32.6672 552.427 33.3179 552.064C33.9685 551.701 34.6992 551.52 35.5099 551.52C36.3205 551.52 37.0512 551.701 37.7019 552.064C38.3525 552.427 38.8592 552.933 39.2219 553.584C39.5952 554.235 39.7819 554.971 39.7819 555.792C39.7819 556.613 39.5952 557.349 39.2219 558C38.8592 558.651 38.3525 559.163 37.7019 559.536C37.0512 559.899 36.3205 560.08 35.5099 560.08ZM35.5099 559.072C36.1072 559.072 36.6405 558.939 37.1099 558.672C37.5899 558.395 37.9632 558.005 38.2299 557.504C38.4965 557.003 38.6299 556.432 38.6299 555.792C38.6299 555.152 38.4965 554.581 38.2299 554.08C37.9632 553.579 37.5899 553.195 37.1099 552.928C36.6405 552.651 36.1072 552.512 35.5099 552.512C34.9125 552.512 34.3739 552.651 33.8939 552.928C33.4245 553.195 33.0512 553.579 32.7739 554.08C32.5072 554.581 32.3739 555.152 32.3739 555.792C32.3739 556.432 32.5072 557.003 32.7739 557.504C33.0512 558.005 33.4245 558.395 33.8939 558.672C34.3739 558.939 34.9125 559.072 35.5099 559.072ZM50.3709 559.008V562.032H49.2989V560H41.7629V562.032H40.6909V559.008H41.1709C41.7362 558.976 42.1202 558.56 42.3229 557.76C42.5255 556.96 42.6642 555.84 42.7389 554.4L42.8509 551.584H49.0589V559.008H50.3709ZM43.7789 554.464C43.7255 555.659 43.6242 556.645 43.4749 557.424C43.3255 558.192 43.0589 558.72 42.6749 559.008H47.9229V552.592H43.8749L43.7789 554.464Z" fill="black"/>
</g>
<g id="10">
<path id="room" d="M164 0H41.6367C36.1139 0 31.6367 4.47714 31.6367 9.99999V261.407C31.6367 266.93 36.1139 271.407 41.6367 271.407H164C169.523 271.407 174 266.93 174 261.407V10C174 4.47715 169.523 0 164 0Z" fill="#375A6D"/>
<path id="label_lock" d="M95.7423 135.537V132.457C95.7423 131.932 95.7773 131.419 95.8459 130.917M110.728 135.537V132.457C110.728 130.58 110.265 128.747 109.399 127.203C108.534 125.659 107.309 124.476 105.884 123.812C104.46 123.149 102.907 123.035 101.429 123.488C99.9533 123.94 98.622 124.936 97.6155 126.344M101.986 154.019H98.2399C94.7083 154.019 92.9412 154.019 91.8448 152.665C90.7471 151.313 90.7471 149.134 90.7471 144.778C90.7471 140.423 90.7471 138.243 91.8448 136.891C92.9412 135.537 94.7083 135.537 98.2399 135.537H108.23C111.762 135.537 113.529 135.537 114.625 136.891C115.723 138.243 115.723 140.423 115.723 144.778C115.723 149.134 115.723 151.313 114.625 152.665C113.529 154.019 111.762 154.019 108.23 154.019H106.982" stroke="#EADB5A" stroke-linecap="round"/>
</g>
<g id="11">
<path id="room_2" d="M317.187 0H188.163C182.64 0 178.163 4.47714 178.163 9.99999V261.407C178.163 266.93 182.64 271.407 188.163 271.407H317.187C322.71 271.407 327.187 266.93 327.187 261.407V10C327.187 4.47715 322.71 0 317.187 0Z" fill="#375A6D"/>
<path id="label_lock_2" d="M244.766 135.537V132.457C244.766 131.932 244.801 131.419 244.869 130.917M259.751 135.537V132.457C259.751 130.58 259.288 128.747 258.423 127.203C257.557 125.659 256.332 124.476 254.907 123.812C253.484 123.149 251.93 123.035 250.453 123.488C248.977 123.94 247.645 124.936 246.639 126.344M251.01 154.019H247.263C243.732 154.019 241.965 154.019 240.868 152.665C239.771 151.313 239.771 149.134 239.771 144.778C239.771 140.423 239.771 138.243 240.868 136.891C241.965 135.537 243.732 135.537 247.263 135.537H257.254C260.785 135.537 262.552 135.537 263.649 136.891C264.747 138.243 264.747 140.423 264.747 144.778C264.747 149.134 264.747 151.313 263.649 152.665C262.552 154.019 260.785 154.019 257.254 154.019H256.005" stroke="#EADB5A" stroke-linecap="round"/>
</g>
<g id="3">
<path id="room_3" d="M475.369 0H341.35C335.827 0 331.35 4.47714 331.35 9.99999V261.407C331.35 266.93 335.827 271.407 341.35 271.407H475.369C480.892 271.407 485.369 266.93 485.369 261.407V10C485.369 4.47715 480.892 0 475.369 0Z" fill="#375A6D"/>
<path id="label_lock_3" d="M401.282 135.537V132.457C401.282 131.932 401.317 131.419 401.386 130.917M416.268 135.537V132.457C416.268 130.58 415.805 128.747 414.939 127.203C414.074 125.659 412.849 124.476 411.424 123.812C410 123.149 408.447 123.035 406.969 123.488C405.493 123.94 404.162 124.936 403.156 126.344M407.526 154.019H403.78C400.248 154.019 398.481 154.019 397.385 152.665C396.287 151.313 396.287 149.134 396.287 144.778C396.287 140.423 396.287 138.243 397.385 136.891C398.481 135.537 400.248 135.537 403.78 135.537H413.77C417.302 135.537 419.069 135.537 420.165 136.891C421.263 138.243 421.263 140.423 421.263 144.778C421.263 149.134 421.263 151.313 420.165 152.665C419.069 154.019 417.302 154.019 413.77 154.019H412.522" stroke="#EADB5A" stroke-linecap="round"/>
</g>
<g id="4">
<path id="room_4" d="M609.407 0H499.531C494.008 0 489.531 4.47714 489.531 9.99999V261.407C489.531 266.93 494.008 271.407 499.531 271.407H609.407C614.93 271.407 619.407 266.93 619.407 261.407V10C619.407 4.47715 614.93 0 609.407 0Z" fill="#375A6D"/>
<path id="label_lock_4" d="M546.977 135.537V132.457C546.977 131.932 547.012 131.419 547.08 130.917M561.962 135.537V132.457C561.962 130.58 561.499 128.747 560.634 127.203C559.768 125.659 558.543 124.476 557.118 123.812C555.695 123.149 554.141 123.035 552.664 123.488C551.188 123.94 549.856 124.936 548.85 126.344M553.221 154.019H549.474C545.943 154.019 544.176 154.019 543.079 152.665C541.981 151.313 541.981 149.134 541.981 144.778C541.981 140.423 541.981 138.243 543.079 136.891C544.176 135.537 545.943 135.537 549.474 135.537H559.465C562.996 135.537 564.763 135.537 565.86 136.891C566.957 138.243 566.958 140.423 566.958 144.778C566.958 149.134 566.957 151.313 565.86 152.665C564.763 154.019 562.996 154.019 559.465 154.019H558.216" stroke="#EADB5A" stroke-linecap="round"/>
</g>
<g id="5">
<path id="room_5" d="M740.957 261.407V10C740.957 4.47715 736.48 0 730.957 0H633.585C628.056 0 623.576 4.48658 623.585 10.0155L623.973 261.422C623.982 266.939 628.456 271.407 633.973 271.407H730.957C736.48 271.407 740.957 266.93 740.957 261.407Z" fill="#375A6D"/>
<path id="label_lock_5" d="M675.187 135.537V132.457C675.187 131.932 675.222 131.419 675.29 130.917M690.172 135.537V132.457C690.172 130.58 689.709 128.747 688.844 127.203C687.978 125.659 686.753 124.476 685.328 123.812C683.904 123.149 682.351 123.035 680.874 123.488C679.398 123.94 678.066 124.936 677.06 126.344M681.431 154.019H677.684C674.153 154.019 672.386 154.019 671.289 152.665C670.191 151.313 670.191 149.134 670.191 144.778C670.191 140.423 670.191 138.243 671.289 136.891C672.386 135.537 674.153 135.537 677.684 135.537H687.675C691.206 135.537 692.973 135.537 694.07 136.891C695.167 138.243 695.167 140.423 695.167 144.778C695.167 149.134 695.167 151.313 694.07 152.665C692.973 154.019 691.206 154.019 687.675 154.019H686.426" stroke="#EADB5A" stroke-linecap="round"/>
</g>
<g id="6">
<path id="room_6" d="M800.067 551.129V351.363C800.067 345.831 795.612 341.35 790.079 341.36C738.294 341.447 652.177 341.371 623.088 341.341C617.56 341.335 613.141 345.816 613.142 351.344L613.18 551.131C613.181 556.653 617.658 561.129 623.18 561.129H790.067C795.589 561.129 800.067 556.652 800.067 551.129Z" fill="#375A6D"/>
<path id="label_lock_6" d="M699.33 450.236V447.156C699.33 446.631 699.365 446.118 699.434 445.615M714.316 450.236V447.156C714.316 445.279 713.852 443.446 712.987 441.902C712.122 440.357 710.897 439.175 709.472 438.511C708.048 437.847 706.495 437.734 705.017 438.186C703.541 438.639 702.21 439.635 701.203 441.043M705.574 468.718H701.828C698.296 468.718 696.529 468.718 695.433 467.364C694.335 466.012 694.335 463.833 694.335 459.477C694.335 455.121 694.335 452.942 695.433 451.59C696.529 450.236 698.296 450.236 701.828 450.236H711.818C715.35 450.236 717.117 450.236 718.213 451.59C719.311 452.942 719.311 455.121 719.311 459.477C719.311 463.833 719.311 466.012 718.213 467.364C717.117 468.718 715.35 468.718 711.818 468.718H710.569" stroke="#EADB5A" stroke-linecap="round"/>
</g>
<g id="7">
<path id="room_7" d="M598.584 341.34H492.038C486.515 341.34 482.038 345.817 482.038 351.34V551.129C482.038 556.652 486.515 561.129 492.038 561.129H598.584C604.106 561.129 608.584 556.652 608.584 551.129V351.34C608.584 345.817 604.106 341.34 598.584 341.34Z" fill="#375A6D"/>
<path id="label_lock_7" d="M537.818 450.236V447.156C537.818 446.631 537.853 446.118 537.922 445.615M552.804 450.236V447.156C552.804 445.279 552.341 443.446 551.475 441.902C550.61 440.357 549.385 439.175 547.96 438.511C546.536 437.847 544.983 437.734 543.506 438.186C542.029 438.639 540.698 439.635 539.692 441.043M544.062 468.718H540.316C536.784 468.718 535.017 468.718 533.921 467.364C532.823 466.012 532.823 463.833 532.823 459.477C532.823 455.121 532.823 452.942 533.921 451.59C535.017 450.236 536.784 450.236 540.316 450.236H550.306C553.838 450.236 555.605 450.236 556.702 451.59C557.799 452.942 557.799 455.121 557.799 459.477C557.799 463.833 557.799 466.012 556.702 467.364C555.605 468.718 553.838 468.718 550.306 468.718H549.058" stroke="#EADB5A" stroke-linecap="round"/>
</g>
<g id="8">
<path id="room_8" d="M467.876 341.34H359.665C354.142 341.34 349.665 345.817 349.665 351.34V551.129C349.665 556.652 354.142 561.129 359.665 561.129H467.876C473.398 561.129 477.876 556.652 477.876 551.129V351.34C477.876 345.817 473.398 341.34 467.876 341.34Z" fill="#375A6D"/>
<path id="label_lock_8" d="M406.277 450.236V447.156C406.277 446.631 406.312 446.118 406.381 445.615M421.263 450.236V447.156C421.263 445.279 420.8 443.446 419.934 441.902C419.069 440.357 417.844 439.175 416.419 438.511C414.995 437.847 413.442 437.734 411.965 438.186C410.488 438.639 409.157 439.635 408.151 441.043M412.521 468.718H408.775C405.243 468.718 403.476 468.718 402.38 467.364C401.282 466.012 401.282 463.833 401.282 459.477C401.282 455.121 401.282 452.942 402.38 451.59C403.476 450.236 405.243 450.236 408.775 450.236H418.765C422.297 450.236 424.064 450.236 425.161 451.59C426.258 452.942 426.258 455.121 426.258 459.477C426.258 463.833 426.258 466.012 425.161 467.364C424.064 468.718 422.297 468.718 418.765 468.718H417.517" stroke="#EADB5A" stroke-linecap="round"/>
</g>
<g id="9">
<path id="room_9" d="M335.502 341.34H185.665C180.142 341.34 175.665 345.817 175.665 351.34V551.129C175.665 556.652 180.142 561.129 185.665 561.129H335.502C341.025 561.129 345.502 556.652 345.502 551.129V351.34C345.502 345.817 341.025 341.34 335.502 341.34Z" fill="#375A6D"/>
<path id="label_lock_9" d="M253.091 450.236V447.156C253.091 446.631 253.126 446.118 253.195 445.615M268.077 450.236V447.156C268.077 445.279 267.613 443.446 266.748 441.902C265.882 440.357 264.657 439.175 263.232 438.511C261.809 437.847 260.255 437.734 258.778 438.186C257.302 438.639 255.971 439.635 254.964 441.043M259.335 468.718H255.589C252.057 468.718 250.29 468.718 249.193 467.364C248.096 466.012 248.096 463.833 248.096 459.477C248.096 455.121 248.096 452.942 249.193 451.59C250.29 450.236 252.057 450.236 255.589 450.236H265.579C269.111 450.236 270.878 450.236 271.974 451.59C273.072 452.942 273.072 455.121 273.072 459.477C273.072 463.833 273.072 466.012 271.974 467.364C270.878 468.718 269.111 468.718 265.579 468.718H264.33" stroke="#EADB5A" stroke-linecap="round"/>
</g>
</g>
</svg>
