<svg width="850" height="417" viewBox="0 0 850 417" fill="none" xmlns="http://www.w3.org/2000/svg">
<g id="svg_ready_full" clip-path="url(#clip0_40001857_10125)">
<g id="Group 1">
<path id="Vector 38" d="M668.594 110.617H681.852C682.666 110.617 683.326 111.277 683.326 112.091V160.716C683.326 161.53 682.666 162.19 681.852 162.19H668.594C667.78 162.19 667.121 161.53 667.121 160.716V112.091C667.121 111.277 667.78 110.617 668.594 110.617Z" fill="#C3D7E0" stroke="#C3D7E0" stroke-width="6" stroke-linejoin="round"/>
<path id="Vector 36" d="M540.432 5.26233H548.534C549.348 5.26233 550.008 5.92204 550.008 6.73583V49.4673C550.008 50.2811 549.348 50.9408 548.534 50.9408H540.432C539.618 50.9408 538.959 50.2811 538.959 49.4673V6.73583C538.959 5.92204 539.618 5.26233 540.432 5.26233Z" fill="#C3D7E0" stroke="#C3D7E0" stroke-width="6" stroke-linejoin="round"/>
<path id="Vector 35" d="M424.79 0.841919H432.155C432.969 0.841919 433.628 1.50163 433.628 2.31542V50.9409C433.628 51.7547 432.969 52.4144 432.155 52.4144H424.79C423.976 52.4144 423.316 51.7547 423.316 50.9409V2.31542C423.316 1.50163 423.976 0.841919 424.79 0.841919Z" fill="#C3D7E0" stroke="#C3D7E0" stroke-width="6" stroke-linejoin="round"/>
<path id="Vector 23" d="M659.55 175.604C660.52 175.192 661.597 175.906 661.597 176.961V204.247C661.597 204.836 661.247 205.368 660.706 205.601L487.959 279.95C487.775 280.029 487.577 280.07 487.377 280.07H67.0052C66.1927 280.07 65.5336 279.412 65.5321 278.599L65.3516 179.875C65.3501 179.06 66.0102 178.398 66.8247 178.398H90.1343C90.9482 178.398 91.6074 179.058 91.6074 179.872V221.403C91.6074 222.932 92.2011 224.401 93.2632 225.5L106.524 239.22C107.634 240.369 109.164 241.017 110.76 241.017H503.96C504.749 241.017 505.531 240.858 506.258 240.55L659.55 175.604Z" fill="#FDD24F" stroke="#FDD24F" stroke-width="6" stroke-linejoin="round"/>
<path id="Vector 34" d="M422.789 108.407H433.397C434.21 108.407 434.87 109.067 434.87 109.881V116.88C434.87 120.135 437.507 122.774 440.762 122.774H447.624C448.438 122.774 449.097 123.433 449.097 124.247V150.812C449.097 151.626 448.438 152.286 447.624 152.286H440.762C437.507 152.286 434.87 154.924 434.87 158.18V168.452C434.87 169.266 434.21 169.926 433.397 169.926H422.789C421.976 169.926 421.316 169.266 421.316 168.452V158.18C421.316 154.924 418.678 152.286 415.424 152.286H410.059C409.245 152.286 408.586 151.626 408.586 150.812V124.247C408.586 123.433 409.245 122.774 410.059 122.774H415.424C418.678 122.774 421.316 120.135 421.316 116.88V109.881L421.324 109.73C421.399 108.987 422.027 108.407 422.789 108.407Z" fill="#C3D7E0" stroke="#C3D7E0" stroke-width="6" stroke-linejoin="round"/>
<path id="Vector 37" d="M540.432 111.354H548.534C549.348 111.354 550.008 112.014 550.008 112.828V163.663C550.008 164.478 549.348 165.137 548.534 165.137H540.432C539.618 165.137 538.959 164.478 538.959 163.663V112.828C538.959 112.014 539.618 111.354 540.432 111.354Z" fill="#C3D7E0" stroke="#C3D7E0" stroke-width="6" stroke-linejoin="round"/>
<path id="Vector 39" d="M772.45 262.388H822.536C823.347 262.388 824.009 263.047 824.009 263.861V274.912C824.009 275.727 823.347 276.386 822.536 276.386H772.45C771.639 276.386 770.977 275.727 770.977 274.912V263.861C770.977 263.047 771.639 262.388 772.45 262.388Z" fill="#C3D7E0" stroke="#C3D7E0" stroke-width="6" stroke-linejoin="round"/>
<path id="Vector 1621" d="M314.673 158.875H292.945C290.911 158.875 289.262 160.524 289.262 162.558V163.295C289.262 165.329 290.911 166.979 292.945 166.979H314.673C316.707 166.979 318.356 165.329 318.356 163.295V162.558C318.356 160.524 316.707 158.875 314.673 158.875Z" fill="#C3D7E0"/>
<g id="WC">
<path id="Vector 40" d="M409.039 191.66H447.232C448.093 191.66 448.791 192.523 448.791 193.589V244.703C448.791 245.768 448.093 246.632 447.232 246.632H409.039C408.178 246.632 407.48 245.768 407.48 244.703V193.589C407.48 192.523 408.178 191.66 409.039 191.66Z" fill="#FDD24F" stroke="#FDD24F" stroke-width="6" stroke-linejoin="round"/>
<text id="WC_2" fill="black" style="white-space: pre" xml:space="preserve" font-family="Montserrat" font-size="14" font-weight="bold" letter-spacing="0em"><tspan x="420.153" y="222.284">W</tspan><tspan x="423.003" y="239.284">C</tspan></text>
</g>
<g id="101">
<path id="room" d="M101.805 50.9408H208.239C209.053 50.9408 209.712 51.6005 209.712 52.4143V232.181C209.712 232.995 209.053 233.655 208.239 233.655H115.116C114.725 233.655 114.35 233.499 114.074 233.223L100.764 219.909C100.487 219.633 100.332 219.258 100.332 218.867V52.4143C100.332 51.6005 100.991 50.9408 101.805 50.9408Z" fill="#375A6D"/>
<text id="label_price" fill="white" style="white-space: pre" xml:space="preserve" font-family="Montserrat" font-size="16" letter-spacing="0em"><tspan x="109.791" y="143.368">&#x446;&#x435;&#x43d;&#x430;</tspan></text>
<path id="Rectangle 412" d="M104.014 110.617V160.716C104.014 161.326 103.52 161.822 102.91 161.822H99.5951C98.9852 161.822 98.4902 161.326 98.4902 160.716V110.617C98.4902 110.007 98.9852 109.512 99.5951 109.512H102.91C103.52 109.512 104.014 110.007 104.014 110.617Z" fill="#C3D7E0"/>
<text id="label_area" fill="white" style="white-space: pre" xml:space="preserve" font-family="Montserrat" font-size="16" letter-spacing="0em"><tspan x="114.791" y="229.368">00,00 &#x43c;&#xb2;</tspan></text>
<text id="label_name" fill="white" style="white-space: pre" xml:space="preserve" font-family="Montserrat" font-size="16" font-weight="500" letter-spacing="0em"><tspan x="173.621" y="70.5973">101</tspan></text>
<circle id="label_busy" cx="164" cy="64" r="6" fill="#DF4E4E"/>
</g>
<g id="103">
<path id="room_2" d="M326.09 0.841919H416.688C417.502 0.841919 418.161 1.50163 418.161 2.31542V53.1511C418.161 56.4063 420.8 59.0451 424.054 59.0451H427C427.814 59.0451 428.473 59.7048 428.473 60.5186V101.777C428.473 102.591 427.814 103.25 427 103.25H421.476C418.222 103.25 415.583 105.889 415.583 109.144V115.775C415.583 116.589 414.924 117.248 414.11 117.248H408.954C405.7 117.248 403.062 119.887 403.062 123.142V151.875C403.062 155.13 405.7 157.769 408.954 157.769H414.11C414.924 157.769 415.583 158.429 415.583 159.243V169.557C415.583 172.812 418.222 175.451 421.476 175.451H427C427.814 175.451 428.473 176.111 428.473 176.925V182.819C428.473 183.633 427.814 184.292 427 184.292H406.376C403.122 184.292 400.484 186.931 400.484 190.186V232.181C400.484 232.995 399.825 233.655 399.011 233.655H326.09C325.276 233.655 324.617 232.995 324.617 232.181V2.31542L324.625 2.16505C324.7 1.4219 325.327 0.841919 326.09 0.841919Z" fill="#375A6D"/>
<circle id="label_busy_2" cx="377" cy="16" r="6" fill="#DF4E4E"/>
<text id="label_name_2" fill="white" style="white-space: pre" xml:space="preserve" font-family="Montserrat" font-size="16" font-weight="500" letter-spacing="0em"><tspan x="387.225" y="21.9718">103</tspan></text>
<path id="Rectangle 413" d="M385.752 -1H335.665C335.055 -1 334.561 -0.505219 334.561 0.105124V3.05212C334.561 3.66246 335.055 4.15724 335.665 4.15724H385.752C386.362 4.15724 386.857 3.66246 386.857 3.05212V0.105124C386.857 -0.505219 386.362 -1 385.752 -1Z" fill="#C3D7E0"/>
<text id="label_area_2" fill="white" style="white-space: pre" xml:space="preserve" font-family="Montserrat" font-size="16" letter-spacing="0em"><tspan x="328.791" y="229.368">00,00 &#x43c;&#xb2;</tspan></text>
<text id="label_price_2" fill="white" style="white-space: pre" xml:space="preserve" font-family="Montserrat" font-size="16" letter-spacing="0em"><tspan x="331.791" y="92.3676">&#x446;&#x435;&#x43d;&#x430;</tspan></text>
</g>
<g id="104">
<path id="room_3" d="M440.614 0.841919H534.626C533.952 1.50899 533.534 2.43498 533.534 3.45868V51.8611C533.534 54.0944 535.282 55.9183 537.485 56.0398V105.467C535.282 105.588 533.534 107.413 533.534 109.647V164.666C533.534 167.922 536.172 170.56 539.426 170.56H549.325C552.579 170.56 555.218 167.922 555.218 164.666V164.574C555.218 163.761 555.878 163.101 556.691 163.101H574.313C575.127 163.101 575.786 163.761 575.786 164.574V200.964C575.786 201.565 575.422 202.105 574.866 202.33L516.837 225.8C515.868 226.191 514.811 225.478 514.811 224.433V223.509C514.811 220.254 512.173 217.615 508.918 217.615H508.203C504.948 217.616 502.31 220.254 502.31 223.509V232.181C502.31 232.995 501.651 233.655 500.837 233.655H454.94C454.126 233.655 453.467 232.995 453.467 232.181V190.186C453.467 186.931 450.828 184.292 447.574 184.292H435.838C435.024 184.292 434.365 183.633 434.365 182.819V176.364C434.365 175.86 434.774 175.451 435.278 175.451C438.223 175.451 440.611 173.064 440.611 170.118V159.243C440.611 158.429 441.27 157.769 442.084 157.769H448.676C451.93 157.769 454.569 155.13 454.569 151.875V123.142C454.569 119.887 451.93 117.248 448.676 117.248H442.151C441.341 117.248 440.684 116.595 440.678 115.785L440.63 108.558C440.611 105.621 438.225 103.25 435.288 103.25C434.778 103.25 434.365 102.837 434.365 102.327V59.2293C434.365 59.1277 434.448 59.0451 434.549 59.0451C437.092 59.045 439.153 56.9829 439.152 54.4397L439.141 2.31542C439.141 1.50165 439.801 0.841919 440.614 0.841919Z" fill="#375A6D"/>
<text id="label_name_3" fill="white" style="white-space: pre" xml:space="preserve" font-family="Montserrat" font-size="16" font-weight="500" letter-spacing="0em"><tspan x="502.865" y="20.4983">104</tspan></text>
<path id="Rectangle 414" d="M501.393 -1H451.306C450.696 -1 450.201 -0.505219 450.201 0.105124V3.05212C450.201 3.66246 450.696 4.15724 451.306 4.15724H501.393C502.003 4.15724 502.498 3.66246 502.498 3.05212V0.105124C502.498 -0.505219 502.003 -1 501.393 -1Z" fill="#C3D7E0"/>
<text id="label_area_3" fill="white" style="white-space: pre" xml:space="preserve" font-family="Montserrat" font-size="16" letter-spacing="0em"><tspan x="458.791" y="152.368">00,00 &#x43c;&#xb2;</tspan></text>
<text id="label_price_3" fill="white" style="white-space: pre" xml:space="preserve" font-family="Montserrat" font-size="16" letter-spacing="0em"><tspan x="441.791" y="92.3676">&#x446;&#x435;&#x43d;&#x430;</tspan></text>
<circle id="label_busy_3" cx="493" cy="14" r="6" fill="#DF4E4E"/>
</g>
<g id="105">
<path id="room_4" d="M668.578 0.841919C669.391 0.841993 670.051 1.50167 670.051 2.31542V48.7227C670.051 51.5753 672.363 53.8879 675.215 53.8879C675.626 53.8879 675.959 54.2212 675.959 54.6325V103.952C675.959 104.766 675.3 105.426 674.486 105.426H667.45C664.196 105.426 661.557 108.065 661.557 111.32V165.247C661.557 165.844 661.197 166.383 660.645 166.61L583.813 198.208C582.844 198.607 581.781 197.894 581.781 196.845V162.911C581.781 159.655 579.142 157.017 575.888 157.017H557.034C556.22 157.017 555.561 156.356 555.561 155.543V111.354L555.553 111.051C555.396 107.937 552.821 105.46 549.669 105.46H544.85C544.036 105.46 543.377 104.801 543.377 103.987V57.5716C543.377 56.7578 544.036 56.0981 544.85 56.0981H549.669C552.923 56.0981 555.561 53.4593 555.561 50.2041V4.16304C555.561 2.83971 554.979 1.65302 554.059 0.841919H668.578Z" fill="#375A6D"/>
<text id="label_name_4" fill="white" style="white-space: pre" xml:space="preserve" font-family="Montserrat" font-size="16" font-weight="500" letter-spacing="0em"><tspan x="636.922" y="16.8146">105</tspan></text>
<path id="Rectangle 415" d="M617.033 -1H566.947C566.336 -1 565.842 -0.505219 565.842 0.105124V3.05212C565.842 3.66246 566.336 4.15724 566.947 4.15724H617.033C617.643 4.15724 618.138 3.66246 618.138 3.05212V0.105124C618.138 -0.505219 617.643 -1 617.033 -1Z" fill="#C3D7E0"/>
<text id="label_area_4" fill="white" style="white-space: pre" xml:space="preserve" font-family="Montserrat" font-size="16" letter-spacing="0em"><tspan x="557.791" y="151.368">00,00 &#x43c;&#xb2;</tspan></text>
<text id="label_price_4" fill="white" style="white-space: pre" xml:space="preserve" font-family="Montserrat" font-size="16" letter-spacing="0em"><tspan x="552.791" y="92.3676">&#x446;&#x435;&#x43d;&#x430;</tspan></text>
<circle id="label_busy_4" cx="626" cy="11" r="6" fill="#DF4E4E"/>
</g>
<g id="106">
<path id="room_5" d="M683.693 53.8878H846.107C846.924 53.8878 847.58 54.5475 847.58 55.3613V149.74C847.58 150.554 846.924 151.214 846.107 151.214H747.981C744.468 151.214 741.735 154.268 742.125 157.758L744.306 177.388C744.379 178.06 743.989 178.696 743.355 178.933L694.17 197.27C693.507 197.517 692.769 197.256 692.403 196.665L692.335 196.543L679.295 170.212C678.811 169.232 679.524 168.084 680.616 168.084H682.61C685.865 168.084 688.502 165.445 688.502 162.19V110.813C688.502 107.856 686.107 105.46 683.152 105.46C682.637 105.46 682.22 105.043 682.22 104.528V55.3613C682.22 54.5475 682.879 53.8878 683.693 53.8878Z" fill="#375A6D"/>
<text id="label_name_5" fill="white" style="white-space: pre" xml:space="preserve" font-family="Montserrat" font-size="16" font-weight="500" letter-spacing="0em"><tspan x="818.117" y="70.5973">106</tspan></text>
<path id="Rectangle 416" d="M780.553 52.0459H730.466C729.856 52.0459 729.361 52.5407 729.361 53.151V56.098C729.361 56.7084 729.856 57.2031 730.466 57.2031H780.553C781.163 57.2031 781.658 56.7084 781.658 56.098V53.151C781.658 52.5407 781.163 52.0459 780.553 52.0459Z" fill="#C3D7E0"/>
<text id="label_area_5" fill="white" style="white-space: pre" xml:space="preserve" font-family="Montserrat" font-size="16" letter-spacing="0em"><tspan x="738.791" y="147.368">00,00 &#x43c;&#xb2;</tspan></text>
<text id="label_price_5" fill="white" style="white-space: pre" xml:space="preserve" font-family="Montserrat" font-size="16" letter-spacing="0em"><tspan x="723.791" y="94.3676">&#x446;&#x435;&#x43d;&#x430;</tspan></text>
<circle id="label_busy_5" cx="808" cy="66" r="6" fill="#DF4E4E"/>
</g>
<g id="107">
<path id="room_6" d="M750.427 157.77H846.108C846.918 157.77 847.581 158.429 847.581 159.243V255.389C847.581 256.203 846.918 256.862 846.108 256.862H771.582C768.333 256.862 765.689 259.501 765.689 262.756V274.913C765.689 275.727 765.034 276.386 764.216 276.386H689.408C688.843 276.386 688.328 276.063 688.082 275.555L660.88 219.379C660.503 218.599 660.877 217.664 661.688 217.359L747.356 185.159C749.875 184.21 751.436 181.67 751.134 178.991L748.962 159.406C748.866 158.533 749.551 157.77 750.427 157.77Z" fill="#375A6D"/>
<text id="label_name_6" fill="white" style="white-space: pre" xml:space="preserve" font-family="Montserrat" font-size="16" font-weight="500" letter-spacing="0em"><tspan x="813.699" y="172.269">107</tspan></text>
<path id="Rectangle 418" d="M703.949 278.228H754.036C754.646 278.228 755.141 277.733 755.141 277.123V274.176C755.141 273.566 754.646 273.071 754.036 273.071H703.949C703.339 273.071 702.844 273.566 702.844 274.176V277.123C702.844 277.733 703.339 278.228 703.949 278.228Z" fill="#C3D7E0"/>
<text id="label_area_6" fill="white" style="white-space: pre" xml:space="preserve" font-family="Montserrat" font-size="16" letter-spacing="0em"><tspan x="750.791" y="252.368">00,00 &#x43c;&#xb2;</tspan></text>
<text id="label_price_6" fill="white" style="white-space: pre" xml:space="preserve" font-family="Montserrat" font-size="16" letter-spacing="0em"><tspan x="723.791" y="220.368">&#x446;&#x435;&#x43d;&#x430;</tspan></text>
<circle id="label_busy_6" cx="804" cy="167" r="6" fill="#DF4E4E"/>
</g>
<g id="108">
<path id="room_7" d="M650.767 220.789C651.485 220.498 652.307 220.813 652.646 221.511L683.547 285.062C683.644 285.263 683.695 285.483 683.695 285.707V411.947C683.695 412.761 683.035 413.421 682.222 413.421H582.416C581.603 413.421 580.943 412.761 580.943 411.947V250.133L580.948 250.021C580.99 249.467 581.342 248.979 581.863 248.767L650.767 220.789Z" fill="#375A6D"/>
<text id="label_name_7" fill="white" style="white-space: pre" xml:space="preserve" font-family="Montserrat" font-size="16" font-weight="500" letter-spacing="0em"><tspan x="628.791" y="250.868">108</tspan></text>
<path id="Rectangle 417" d="M685.168 386.898V336.799C685.168 336.189 684.673 335.694 684.063 335.694H681.117C680.507 335.694 680.012 336.189 680.012 336.799V386.898C680.012 387.509 680.507 388.004 681.117 388.004H684.063C684.673 388.004 685.168 387.509 685.168 386.898Z" fill="#C3D7E0"/>
<text id="label_area_7" fill="white" style="white-space: pre" xml:space="preserve" font-family="Montserrat" font-size="16" letter-spacing="0em"><tspan x="581.791" y="408.368">00,00 &#x43c;&#xb2;</tspan></text>
<text id="label_price_7" fill="white" style="white-space: pre" xml:space="preserve" font-family="Montserrat" font-size="16" letter-spacing="0em"><tspan x="590.791" y="348.368">&#x446;&#x435;&#x43d;&#x430;</tspan></text>
<circle id="label_busy_7" cx="618.791" cy="244.632" r="6" fill="#DF4E4E"/>
</g>
<g id="109">
<path id="room_8" d="M572.644 252.91C573.614 252.507 574.682 253.22 574.682 254.27V411.948C574.682 412.762 574.022 413.421 573.209 413.421H465.301C464.487 413.421 463.828 412.762 463.828 411.948V292.964C463.828 292.15 464.487 291.49 465.301 291.49H500.288C503.542 291.49 506.181 288.851 506.181 285.596V281.426C506.181 280.83 506.54 280.293 507.09 280.065L572.644 252.91Z" fill="#375A6D"/>
<text id="label_area_8" fill="white" style="white-space: pre" xml:space="preserve" font-family="Montserrat" font-size="16" letter-spacing="0em"><tspan x="465.791" y="408.368">00,00 &#x43c;&#xb2;</tspan></text>
<text id="label_price_8" fill="white" style="white-space: pre" xml:space="preserve" font-family="Montserrat" font-size="16" letter-spacing="0em"><tspan x="473.791" y="351.368">&#x446;&#x435;&#x43d;&#x430;</tspan></text>
<text id="label_name_8" fill="white" style="white-space: pre" xml:space="preserve" font-family="Montserrat" font-size="16" font-weight="500" letter-spacing="0em"><tspan x="544.791" y="286.868">109</tspan></text>
<circle id="label_busy_8" cx="535.791" cy="281.632" r="6" fill="#DF4E4E"/>
</g>
<g id="entrance">
<path id="Vector 22" d="M3.84211 178.398H70.1579C71.1753 178.398 72 179.055 72 179.866V278.533C72 279.343 71.1753 280 70.1579 280H3.84211C2.82474 280 2 279.343 2 278.533V179.866C2 179.055 2.82474 178.398 3.84211 178.398Z" fill="#FDD24F" stroke="#FDD24F" stroke-width="6" stroke-linejoin="round"/>
<text id="&#195;&#144;&#194;&#146;&#195;&#144;&#194;&#165;&#195;&#144;&#194;&#158;&#195;&#144;&#194;&#148;" fill="black" style="white-space: pre" xml:space="preserve" font-family="Montserrat" font-size="16" font-weight="bold" letter-spacing="0em"><tspan x="14" y="236.736">&#x412;&#x425;&#x41e;&#x414;</tspan></text>
</g>
<g id="102">
<path id="room_9" d="M218.551 50.9409H315.778C316.592 50.9409 317.251 51.6006 317.251 52.4144V153.094C317.251 153.908 316.592 154.568 315.778 154.568H290.115C286.861 154.568 284.222 157.207 284.222 160.462V165.348C284.222 168.603 286.861 171.242 290.115 171.242H315.778C316.592 171.242 317.251 171.902 317.251 172.715V232.181C317.251 232.995 316.592 233.655 315.778 233.655H218.551C217.737 233.655 217.078 232.995 217.078 232.181V52.4144C217.078 51.6006 217.737 50.9409 218.551 50.9409Z" fill="#375A6D"/>
<circle id="label_busy_9" cx="278" cy="63" r="6" fill="#DF4E4E"/>
<text id="label_price_9" fill="white" style="white-space: pre" xml:space="preserve" font-family="Montserrat" font-size="16" letter-spacing="0em"><tspan x="220.791" y="143.368">&#x446;&#x435;&#x43d;&#x430;</tspan></text>
<text id="label_name_9" fill="white" style="white-space: pre" xml:space="preserve" font-family="Montserrat" font-size="16" font-weight="500" letter-spacing="0em"><tspan x="286.316" y="69.1238">102</tspan></text>
<path id="Rectangle 411" d="M271.584 49.099H221.497C220.887 49.099 220.393 49.5938 220.393 50.2041V53.1511C220.393 53.7615 220.887 54.2562 221.497 54.2562H271.584C272.194 54.2562 272.689 53.7615 272.689 53.1511V50.2041C272.689 49.5938 272.194 49.099 271.584 49.099Z" fill="#C3D7E0"/>
<text id="label_area_9" fill="white" style="white-space: pre" xml:space="preserve" font-family="Montserrat" font-size="16" letter-spacing="0em"><tspan x="220.791" y="229.368">00,00 &#x43c;&#xb2;</tspan></text>
</g>
</g>
</g>
<defs>
<clipPath id="clip0_40001857_10125">
<rect width="850" height="417" fill="white"/>
</clipPath>
</defs>
</svg>
