<svg width="657" height="674" viewBox="0 0 657 674" fill="none" xmlns="http://www.w3.org/2000/svg">
<g id="&#208;&#162;&#209;&#141;&#209;&#134;&#208;&#181;&#208;&#178;&#209;&#129;&#208;&#186;&#208;&#176;&#209;&#143;">
<path id="Vector 1642" d="M286.985 618.319L322 652.5V663.5C322 669.023 317.523 673.5 312 673.5H248C242.477 673.5 238 669.023 238 663.5V652.5L273.015 618.319C276.899 614.527 283.101 614.527 286.985 618.319Z" fill="#FDD24F"/>
<path id="Vector 1641" d="M338 207.5H293C287.477 207.5 283 211.977 283 217.5V603.407C283 606.03 284.031 608.548 285.87 610.418L324.38 649.582C326.219 651.452 327.25 653.97 327.25 656.593V663.5C327.25 669.023 331.727 673.5 337.25 673.5H603C608.523 673.5 613 669.023 613 663.5V581.5C613 575.977 608.523 571.5 603 571.5H573.796C570.211 571.5 566.901 573.419 565.119 576.529L543.381 614.471C541.599 617.581 538.289 619.5 534.704 619.5H383.642C380.99 619.5 378.446 618.446 376.571 616.571L350.929 590.929C349.054 589.054 348 586.51 348 583.858V217.5C348 211.977 343.523 207.5 338 207.5Z" fill="#FDD24F"/>
<path id="Vector 1637" d="M268 207.5H234C228.477 207.5 224 211.977 224 217.5V259.5C224 265.023 228.477 269.5 234 269.5H268C273.523 269.5 278 265.023 278 259.5V217.5C278 211.977 273.523 207.5 268 207.5Z" fill="#FDD24F"/>
<text id="WC" fill="black" style="white-space: pre" xml:space="preserve" font-family="Montserrat" font-size="24" font-weight="500" letter-spacing="0em"><tspan x="256" y="662.104">WC</tspan></text>
<text id="&#208;&#178;&#209;&#133;&#208;&#190;&#208;&#180;" fill="black" style="white-space: pre" xml:space="preserve" font-family="Montserrat" font-size="24" font-weight="500" letter-spacing="0em"><tspan x="548" y="659.104">&#x432;&#x445;&#x43e;&#x434;</tspan></text>
<g id="room_102">
<path id="poly" d="M615.5 117.5H363C357.477 117.5 353 121.977 353 127.5V317C353 322.523 357.477 327 363 327H642.5C648.023 327 652.5 322.523 652.5 317V165.5C652.5 159.977 648.023 155.5 642.5 155.5H635.5C629.977 155.5 625.5 151.023 625.5 145.5V127.5C625.5 121.977 621.023 117.5 615.5 117.5Z" fill="#375A6D"/>
<path id="label_lock" d="M475.8 215V212C475.8 211.489 475.834 210.989 475.9 210.5M490.2 215V212C490.2 210.172 489.755 208.387 488.923 206.884C488.092 205.38 486.914 204.228 485.545 203.581C484.177 202.935 482.684 202.825 481.265 203.265C479.846 203.706 478.567 204.676 477.6 206.047M481.8 233H478.2C474.806 233 473.108 233 472.055 231.682C471 230.365 471 228.242 471 224C471 219.758 471 217.636 472.055 216.319C473.108 215 474.806 215 478.2 215H487.8C491.194 215 492.892 215 493.945 216.319C495 217.636 495 219.758 495 224C495 228.242 495 230.365 493.945 231.682C492.892 233 491.194 233 487.8 233H486.6" stroke="#EADB5A" stroke-linecap="round"/>
<rect id="Rectangle 423" x="651" y="234.5" width="6" height="64" fill="#8FB6F9"/>
<text id="label_area" fill="white" style="white-space: pre" xml:space="preserve" font-family="Montserrat" font-size="24" letter-spacing="0em"><tspan x="386" y="321.104">00,00 &#x43c;&#xb2;</tspan></text>
<text id="label_price" fill="white" style="white-space: pre" xml:space="preserve" font-family="Montserrat" font-size="24" letter-spacing="0em"><tspan x="452" y="229.104">&#x446;&#x435;&#x43d;&#x430;</tspan></text>
<text id="label_name" fill="white" style="white-space: pre" xml:space="preserve" font-family="Montserrat" font-size="24" letter-spacing="0em"><tspan x="573" y="151.104">100</tspan></text>
<g id="label_busy">
<path id="form" d="M553.193 133.307L563.807 133.307L569.115 142.5L563.807 151.693L553.193 151.693L547.885 142.5L553.193 133.307Z" fill="url(#paint0_radial_68_2190)"/>
<text id="&#209;&#129;&#208;&#180;&#208;&#176;&#208;&#189;" fill="black" style="white-space: pre" xml:space="preserve" font-family="Montserrat" font-size="7" font-weight="500" letter-spacing="0em"><tspan x="549.8" y="143.71">&#x441;&#x434;&#x430;&#x43d;</tspan></text>
</g>
</g>
<g id="room_101">
<path id="poly" d="M224 192.5V87.5C224 81.9771 228.477 77.5 234 77.5H240C245.523 77.5 250 73.0229 250 67.5V63.5C250 57.9772 245.523 53.5 240 53.5H234C228.477 53.5 224 49.0228 224 43.5V10C224 4.47715 228.477 0 234 0H412C416.694 0 420.5 3.80558 420.5 8.5C420.5 13.1944 424.306 17 429 17H450C454.694 17 458.5 13.1944 458.5 8.5C458.5 3.80558 462.306 0 467 0H615C620.523 0 625 4.47715 625 10V103C625 108.523 620.523 113 615 113H357.5C351.977 113 347.5 117.477 347.5 123V192.5C347.5 198.023 343.023 202.5 337.5 202.5H234C228.477 202.5 224 198.023 224 192.5Z" fill="#375A6D"/>
<path id="label_lock" d="M432.8 62.5004V59.5004C432.8 58.9894 432.834 58.4894 432.9 58.0005M447.2 62.5004V59.5004C447.2 57.6723 446.755 55.8875 445.923 54.3836C445.092 52.8796 443.914 51.7277 442.545 51.0814C441.177 50.4349 439.684 50.3247 438.265 50.7652C436.846 51.2056 435.567 52.1759 434.6 53.5471M438.8 80.5H435.2C431.806 80.5 430.108 80.5 429.055 79.1815C428 77.8646 428 75.7421 428 71.5002C428 67.2583 428 65.1358 429.055 63.8188C430.108 62.5004 431.806 62.5004 435.2 62.5004H444.8C448.194 62.5004 449.892 62.5004 450.945 63.8188C452 65.1358 452 67.2583 452 71.5002C452 75.7421 452 77.8646 450.945 79.1815C449.892 80.5 448.194 80.5 444.8 80.5H443.6" stroke="#EADB5A" stroke-linecap="round"/>
<rect id="Rectangle 422" x="623" y="60.5" width="6" height="35" fill="#8FB6F9"/>
<text id="label_area" fill="white" style="white-space: pre" xml:space="preserve" font-family="Montserrat" font-size="24" letter-spacing="0em"><tspan x="236" y="194.104">00,00 &#x43c;&#xb2;</tspan></text>
<text id="label_price" fill="white" style="white-space: pre" xml:space="preserve" font-family="Montserrat" font-size="24" letter-spacing="0em"><tspan x="409" y="75.104">&#x446;&#x435;&#x43d;&#x430;</tspan></text>
<text id="label_name" fill="white" style="white-space: pre" xml:space="preserve" font-family="Montserrat" font-size="24" letter-spacing="0em"><tspan x="573" y="32.104">100</tspan></text>
<g id="label_busy">
<path id="form" d="M553.193 14.8069L563.807 14.8069L569.115 23.9995L563.807 33.1922L553.193 33.1922L547.885 23.9995L553.193 14.8069Z" fill="url(#paint1_radial_68_2190)"/>
<text id="&#209;&#129;&#208;&#180;&#208;&#176;&#208;&#189;" fill="black" style="white-space: pre" xml:space="preserve" font-family="Montserrat" font-size="7" font-weight="500" letter-spacing="0em"><tspan x="549.8" y="25.2097">&#x441;&#x434;&#x430;&#x43d;</tspan></text>
</g>
</g>
<g id="room_103">
<path id="poly" d="M591.75 332H363C357.477 332 353 336.477 353 342V431.5C353 437.023 357.477 441.5 363 441.5H603C608.523 441.5 613 437.023 613 431.5V349C613 344.306 609.194 340.5 604.5 340.5H600.25C597.903 340.5 596 338.597 596 336.25C596 333.903 594.097 332 591.75 332Z" fill="#375A6D"/>
<path id="label_lock" d="M475.8 377V374C475.8 373.489 475.834 372.989 475.9 372.5M490.2 377V374C490.2 372.172 489.755 370.387 488.923 368.884C488.092 367.38 486.914 366.228 485.545 365.581C484.177 364.935 482.684 364.825 481.265 365.265C479.846 365.706 478.567 366.676 477.6 368.047M481.8 395H478.2C474.806 395 473.108 395 472.055 393.682C471 392.365 471 390.242 471 386C471 381.758 471 379.636 472.055 378.319C473.108 377 474.806 377 478.2 377H487.8C491.194 377 492.892 377 493.945 378.319C495 379.636 495 381.758 495 386C495 390.242 495 392.365 493.945 393.682C492.892 395 491.194 395 487.8 395H486.6" stroke="#EADB5A" stroke-linecap="round"/>
<rect id="Rectangle 424" x="611" y="398.5" width="6" height="35" fill="#8FB6F9"/>
<text id="label_area" fill="white" style="white-space: pre" xml:space="preserve" font-family="Montserrat" font-size="24" letter-spacing="0em"><tspan x="386" y="434.104">00,00 &#x43c;&#xb2;</tspan></text>
<text id="label_price" fill="white" style="white-space: pre" xml:space="preserve" font-family="Montserrat" font-size="24" letter-spacing="0em"><tspan x="452" y="391.104">&#x446;&#x435;&#x43d;&#x430;</tspan></text>
<text id="label_name" fill="white" style="white-space: pre" xml:space="preserve" font-family="Montserrat" font-size="24" letter-spacing="0em"><tspan x="562" y="373.104">100</tspan></text>
<g id="label_busy">
<path id="form" d="M542.193 355.807L552.807 355.807L558.115 365L552.807 374.192L542.193 374.192L536.885 365L542.193 355.807Z" fill="url(#paint2_radial_68_2190)"/>
<text id="&#209;&#129;&#208;&#180;&#208;&#176;&#208;&#189;" fill="black" style="white-space: pre" xml:space="preserve" font-family="Montserrat" font-size="7" font-weight="500" letter-spacing="0em"><tspan x="538.8" y="366.21">&#x441;&#x434;&#x430;&#x43d;</tspan></text>
</g>
</g>
<g id="room_104">
<path id="poly" d="M603 446.5L363 446.5C357.477 446.5 353 450.977 353 456.5V579.123C353 581.776 354.054 584.319 355.929 586.194L381.306 611.571C383.181 613.447 385.725 614.5 388.377 614.5H530.152C533.764 614.5 537.096 612.552 538.867 609.403L560.133 571.598C561.904 568.449 565.236 566.5 568.848 566.5H603C608.523 566.5 613 562.023 613 556.5V456.5C613 450.977 608.523 446.5 603 446.5Z" fill="#375A6D"/>
<path id="label_lock" d="M475.8 517V514C475.8 513.489 475.834 512.989 475.9 512.5M490.2 517V514C490.2 512.172 489.755 510.387 488.923 508.884C488.092 507.38 486.914 506.228 485.545 505.581C484.177 504.935 482.684 504.825 481.265 505.265C479.846 505.706 478.567 506.676 477.6 508.047M481.8 535H478.2C474.806 535 473.108 535 472.055 533.682C471 532.365 471 530.242 471 526C471 521.758 471 519.636 472.055 518.319C473.108 517 474.806 517 478.2 517H487.8C491.194 517 492.892 517 493.945 518.319C495 519.636 495 521.758 495 526C495 530.242 495 532.365 493.945 533.682C492.892 535 491.194 535 487.8 535H486.6" stroke="#EADB5A" stroke-linecap="round"/>
<rect id="Rectangle 425" x="611" y="455.5" width="6" height="35" fill="#8FB6F9"/>
<text id="label_area" fill="white" style="white-space: pre" xml:space="preserve" font-family="Montserrat" font-size="24" letter-spacing="0em"><tspan x="386" y="607.104">00,00 &#x43c;&#xb2;</tspan></text>
<text id="label_price" fill="white" style="white-space: pre" xml:space="preserve" font-family="Montserrat" font-size="24" letter-spacing="0em"><tspan x="452" y="532.104">&#x446;&#x435;&#x43d;&#x430;</tspan></text>
<text id="label_name" fill="white" style="white-space: pre" xml:space="preserve" font-family="Montserrat" font-size="24" letter-spacing="0em"><tspan x="562" y="479.104">100</tspan></text>
<g id="label_busy">
<path id="form" d="M542.193 461.307L552.807 461.307L558.115 470.5L552.807 479.693L542.193 479.693L536.885 470.5L542.193 461.307Z" fill="url(#paint3_radial_68_2190)"/>
<text id="&#209;&#129;&#208;&#180;&#208;&#176;&#208;&#189;" fill="black" style="white-space: pre" xml:space="preserve" font-family="Montserrat" font-size="7" font-weight="500" letter-spacing="0em"><tspan x="538.8" y="471.71">&#x441;&#x434;&#x430;&#x43d;</tspan></text>
</g>
</g>
<g id="room_106">
<path id="poly" d="M87 409.5H268C273.523 409.5 278 413.977 278 419.5V541C278 546.523 273.523 551 268 551H11C5.47715 551 1 546.523 1 541V455.5C1 449.977 5.47715 445.5 11 445.5H67C72.5229 445.5 77 441.023 77 435.5V419.5C77 413.977 81.4771 409.5 87 409.5Z" fill="#375A6D"/>
<path id="label_lock" d="M142.8 475V472C142.8 471.489 142.834 470.989 142.9 470.5M157.2 475V472C157.2 470.172 156.755 468.387 155.923 466.884C155.092 465.38 153.914 464.228 152.545 463.581C151.177 462.935 149.684 462.825 148.265 463.265C146.846 463.706 145.567 464.676 144.6 466.047M148.8 493H145.2C141.806 493 140.108 493 139.055 491.682C138 490.365 138 488.242 138 484C138 479.758 138 477.636 139.055 476.319C140.108 475 141.806 475 145.2 475H154.8C158.194 475 159.892 475 160.945 476.319C162 477.636 162 479.758 162 484C162 488.242 162 490.365 160.945 491.682C159.892 493 158.194 493 154.8 493H153.6" stroke="#EADB5A" stroke-linecap="round"/>
<rect id="Rectangle 421" y="451.5" width="6" height="35" fill="#8FB6F9"/>
<text id="label_area" fill="white" style="white-space: pre" xml:space="preserve" font-family="Montserrat" font-size="24" letter-spacing="0em"><tspan x="26" y="543.604">00,00 &#x43c;&#xb2;</tspan></text>
<text id="label_price" fill="white" style="white-space: pre" xml:space="preserve" font-family="Montserrat" font-size="24" letter-spacing="0em"><tspan x="119" y="489.604">&#x446;&#x435;&#x43d;&#x430;</tspan></text>
<text id="label_name" fill="white" style="white-space: pre" xml:space="preserve" font-family="Montserrat" font-size="24" letter-spacing="0em"><tspan x="231" y="442.604">100</tspan></text>
<g id="label_busy">
<path id="form" d="M211.193 424.807L221.807 424.807L227.115 434L221.807 443.192L211.193 443.192L205.885 434L211.193 424.807Z" fill="url(#paint4_radial_68_2190)"/>
<text id="&#209;&#129;&#208;&#180;&#208;&#176;&#208;&#189;" fill="black" style="white-space: pre" xml:space="preserve" font-family="Montserrat" font-size="7" font-weight="500" letter-spacing="0em"><tspan x="207.8" y="435.21">&#x441;&#x434;&#x430;&#x43d;</tspan></text>
</g>
</g>
<g id="room_107">
<path id="poly" d="M11 556H268C273.523 556 278 560.477 278 566V603.39C278 606.023 276.962 608.55 275.11 610.422L235.89 650.078C234.038 651.95 233 654.477 233 657.11V663.5C233 669.023 228.523 673.5 223 673.5H11C5.47715 673.5 1 669.023 1 663.5V566C1 560.477 5.47716 556 11 556Z" fill="#375A6D"/>
<path id="label_lock" d="M142.8 609V606C142.8 605.489 142.834 604.989 142.9 604.5M157.2 609V606C157.2 604.172 156.755 602.387 155.923 600.884C155.092 599.38 153.914 598.228 152.545 597.581C151.177 596.935 149.684 596.825 148.265 597.265C146.846 597.706 145.567 598.676 144.6 600.047M148.8 627H145.2C141.806 627 140.108 627 139.055 625.682C138 624.365 138 622.242 138 618C138 613.758 138 611.636 139.055 610.319C140.108 609 141.806 609 145.2 609H154.8C158.194 609 159.892 609 160.945 610.319C162 611.636 162 613.758 162 618C162 622.242 162 624.365 160.945 625.682C159.892 627 158.194 627 154.8 627H153.6" stroke="#EADB5A" stroke-linecap="round"/>
<rect id="Rectangle 419" y="578.5" width="6" height="52" fill="#8FB6F9"/>
<text id="label_area" fill="white" style="white-space: pre" xml:space="preserve" font-family="Montserrat" font-size="24" letter-spacing="0em"><tspan x="26" y="666.104">00,00 &#x43c;&#xb2;</tspan></text>
<text id="label_price" fill="white" style="white-space: pre" xml:space="preserve" font-family="Montserrat" font-size="24" letter-spacing="0em"><tspan x="119" y="624.604">&#x446;&#x435;&#x43d;&#x430;</tspan></text>
<text id="label_name" fill="white" style="white-space: pre" xml:space="preserve" font-family="Montserrat" font-size="24" letter-spacing="0em"><tspan x="231" y="590.104">100</tspan></text>
<g id="label_busy">
<path id="form" d="M211.193 572.307L221.807 572.307L227.115 581.5L221.807 590.693L211.193 590.693L205.885 581.5L211.193 572.307Z" fill="url(#paint5_radial_68_2190)"/>
<text id="&#209;&#129;&#208;&#180;&#208;&#176;&#208;&#189;" fill="black" style="white-space: pre" xml:space="preserve" font-family="Montserrat" font-size="7" font-weight="500" letter-spacing="0em"><tspan x="208" y="584.01">&#x441;&#x434;&#x430;&#x43d;</tspan></text>
</g>
</g>
<g id="room_105">
<path id="poly" d="M263 274H268C273.523 274 278 278.477 278 284V394.5C278 400.023 273.523 404.5 268 404.5H82C76.4771 404.5 72 408.977 72 414.5V430.5C72 436.023 67.5229 440.5 62 440.5H11C5.47715 440.5 1 436.023 1 430.5V350C1 344.477 5.47715 340 11 340H20.5C26.0228 340 30.5 335.523 30.5 330V305C30.5 299.477 34.9771 295 40.5 295H243C248.523 295 253 290.523 253 285V284C253 278.477 257.477 274 263 274Z" fill="#375A6D"/>
<path id="label_lock" d="M142.8 339V336C142.8 335.489 142.834 334.989 142.9 334.5M157.2 339V336C157.2 334.172 156.755 332.387 155.923 330.884C155.092 329.38 153.914 328.228 152.545 327.581C151.177 326.935 149.684 326.825 148.265 327.265C146.846 327.706 145.567 328.676 144.6 330.047M148.8 357H145.2C141.806 357 140.108 357 139.055 355.682C138 354.365 138 352.242 138 348C138 343.758 138 341.636 139.055 340.319C140.108 339 141.806 339 145.2 339H154.8C158.194 339 159.892 339 160.945 340.319C162 341.636 162 343.758 162 348C162 352.242 162 354.365 160.945 355.682C159.892 357 158.194 357 154.8 357H153.6" stroke="#EADB5A" stroke-linecap="round"/>
<rect id="Rectangle 420" y="398.5" width="6" height="35" fill="#8FB6F9"/>
<text id="label_area" fill="white" style="white-space: pre" xml:space="preserve" font-family="Montserrat" font-size="24" letter-spacing="0em"><tspan x="26" y="399.104">00,00 &#x43c;&#xb2;</tspan></text>
<text id="label_price" fill="white" style="white-space: pre" xml:space="preserve" font-family="Montserrat" font-size="24" letter-spacing="0em"><tspan x="119" y="354.604">&#x446;&#x435;&#x43d;&#x430;</tspan></text>
<text id="label_name" fill="white" style="white-space: pre" xml:space="preserve" font-family="Montserrat" font-size="24" letter-spacing="0em"><tspan x="231" y="324.604">100</tspan></text>
<g id="label_busy">
<path id="form" d="M211.193 306.807L221.807 306.807L227.115 316L221.807 325.192L211.193 325.192L205.885 316L211.193 306.807Z" fill="url(#paint6_radial_68_2190)"/>
<text id="&#209;&#129;&#208;&#180;&#208;&#176;&#208;&#189;" fill="black" style="white-space: pre" xml:space="preserve" font-family="Montserrat" font-size="7" font-weight="500" letter-spacing="0em"><tspan x="207.8" y="317.21">&#x441;&#x434;&#x430;&#x43d;</tspan></text>
</g>
</g>
</g>
<defs>
<radialGradient id="paint0_radial_68_2190" cx="0" cy="0" r="1" gradientUnits="userSpaceOnUse" gradientTransform="translate(563.959 138.861) rotate(130.972) scale(15.2637 15.2637)">
<stop stop-color="#03CF21"/>
<stop offset="0.706731" stop-color="#20CDED"/>
</radialGradient>
<radialGradient id="paint1_radial_68_2190" cx="0" cy="0" r="1" gradientUnits="userSpaceOnUse" gradientTransform="translate(563.959 20.3601) rotate(130.972) scale(15.2637 15.2637)">
<stop stop-color="#03CF21"/>
<stop offset="0.706731" stop-color="#20CDED"/>
</radialGradient>
<radialGradient id="paint2_radial_68_2190" cx="0" cy="0" r="1" gradientUnits="userSpaceOnUse" gradientTransform="translate(552.959 361.36) rotate(130.972) scale(15.2637 15.2637)">
<stop stop-color="#03CF21"/>
<stop offset="0.706731" stop-color="#20CDED"/>
</radialGradient>
<radialGradient id="paint3_radial_68_2190" cx="0" cy="0" r="1" gradientUnits="userSpaceOnUse" gradientTransform="translate(552.959 466.861) rotate(130.972) scale(15.2637 15.2637)">
<stop stop-color="#03CF21"/>
<stop offset="0.706731" stop-color="#20CDED"/>
</radialGradient>
<radialGradient id="paint4_radial_68_2190" cx="0" cy="0" r="1" gradientUnits="userSpaceOnUse" gradientTransform="translate(221.959 430.36) rotate(130.972) scale(15.2637 15.2637)">
<stop stop-color="#03CF21"/>
<stop offset="0.706731" stop-color="#20CDED"/>
</radialGradient>
<radialGradient id="paint5_radial_68_2190" cx="0" cy="0" r="1" gradientUnits="userSpaceOnUse" gradientTransform="translate(221.959 577.861) rotate(130.972) scale(15.2637 15.2637)">
<stop stop-color="#03CF21"/>
<stop offset="0.706731" stop-color="#20CDED"/>
</radialGradient>
<radialGradient id="paint6_radial_68_2190" cx="0" cy="0" r="1" gradientUnits="userSpaceOnUse" gradientTransform="translate(221.959 312.36) rotate(130.972) scale(15.2637 15.2637)">
<stop stop-color="#03CF21"/>
<stop offset="0.706731" stop-color="#20CDED"/>
</radialGradient>
</defs>
</svg>
