<svg width="24" height="24" viewBox="0 0 24 24" fill="none" xmlns="http://www.w3.org/2000/svg">
<path d="M17.95 7.70961L17.81 7.62961L16.42 6.82961L13.55 5.16961C12.67 4.65961 11.33 4.65961 10.45 5.16961L7.57998 6.82961L6.18998 7.63961L6.00998 7.73961C4.21998 8.93961 4.09998 9.15961 4.09998 11.0896V15.6996C4.09998 17.6296 4.21998 17.8496 6.04998 19.0796L10.45 21.6196C10.89 21.8796 11.44 21.9996 12 21.9996C12.55 21.9996 13.11 21.8796 13.55 21.6196L17.99 19.0496C19.78 17.8496 19.9 17.6296 19.9 15.6996V11.0896C19.9 9.15961 19.78 8.93961 17.95 7.70961Z" fill="url(#paint0_linear_159_32735)"/>
<path d="M6.18994 7.64L7.57994 6.83L10.3199 5.25L10.4499 5.17C11.3299 4.66 12.6699 4.66 13.5499 5.17L13.6799 5.25L16.4199 6.83L17.8099 7.63V5.49C17.8099 3.24 16.5699 2 14.3199 2H9.66994C7.41994 2 6.18994 3.24 6.18994 5.49V7.64Z" fill="#CDD1D5"/>
<path d="M14.84 13.3393L14.22 14.0993C14.12 14.2093 14.05 14.4293 14.06 14.5793L14.12 15.5593C14.16 16.1593 13.73 16.4693 13.17 16.2493L12.26 15.8893C12.12 15.8393 11.88 15.8393 11.74 15.8893L10.83 16.2493C10.27 16.4693 9.83999 16.1593 9.87999 15.5593L9.93999 14.5793C9.94999 14.4293 9.87999 14.2093 9.77999 14.0993L9.15999 13.3393C8.76999 12.8793 8.93999 12.3693 9.51999 12.2193L10.47 11.9793C10.62 11.9393 10.8 11.7993 10.88 11.6693L11.41 10.8493C11.74 10.3393 12.26 10.3393 12.59 10.8493L13.12 11.6693C13.2 11.7993 13.38 11.9393 13.53 11.9793L14.48 12.2193C15.06 12.3693 15.23 12.8793 14.84 13.3393Z" fill="#CDD1D5"/>
<defs>
<linearGradient id="paint0_linear_159_32735" x1="4.51582" y1="6.74994" x2="23.0693" y2="15.1802" gradientUnits="userSpaceOnUse">
<stop stop-color="#3C3F43"/>
<stop offset="1" stop-color="#1E2023"/>
</linearGradient>
</defs>
</svg>
