<svg width="24" height="24" viewBox="0 0 24 24" fill="none" xmlns="http://www.w3.org/2000/svg">
<path d="M10.11 4C10.03 4.3 10 4.63 10 5V8H5V6C5 4.9 5.9 4 7 4H10.11Z" fill="#989FA7"/>
<path fill-rule="evenodd" clip-rule="evenodd" d="M10 8V19C10 21 11 22 13 22H5C3 22 2 21 2 19V11C2 9 3 8 5 8H10ZM6 13.75C6.41 13.75 6.75 13.41 6.75 13C6.75 12.59 6.41 12.25 6 12.25C5.59 12.25 5.25 12.59 5.25 13C5.25 13.41 5.59 13.75 6 13.75ZM6 16.5C6.41 16.5 6.75 16.16 6.75 15.75C6.75 15.34 6.41 15 6 15C5.59 15 5.25 15.34 5.25 15.75C5.25 16.16 5.59 16.5 6 16.5Z" fill="url(#paint0_linear_159_32795)"/>
<path d="M14 22H13C11 22 10 21 10 19V5C10 3 11 2 13 2H19C21 2 22 3 22 5V19C22 21 21 22 19 22H18" fill="#CDD1D5"/>
<path d="M18 18V22H14V18C14 17.45 14.45 17 15 17H17C17.55 17 18 17.45 18 18Z" fill="url(#paint1_linear_159_32795)"/>
<path d="M14 7C13.4533 7 13 6.89538 13 6.76923V5.23077C13 5.10462 13.4533 5 14 5C14.5467 5 15 5.10462 15 5.23077V6.76923C15 6.89538 14.5467 7 14 7Z" fill="url(#paint2_linear_159_32795)"/>
<path d="M18 7C17.4533 7 17 6.89538 17 6.76923V5.23077C17 5.10462 17.4533 5 18 5C18.5467 5 19 5.10462 19 5.23077V6.76923C19 6.89538 18.5467 7 18 7Z" fill="url(#paint3_linear_159_32795)"/>
<path d="M14 10C13.4533 10 13 9.89538 13 9.76923V8.23077C13 8.10462 13.4533 8 14 8C14.5467 8 15 8.10462 15 8.23077V9.76923C15 9.89538 14.5467 10 14 10Z" fill="url(#paint4_linear_159_32795)"/>
<path d="M18 10C17.4533 10 17 9.89538 17 9.76923V8.23077C17 8.10462 17.4533 8 18 8C18.5467 8 19 8.10462 19 8.23077V9.76923C19 9.89538 18.5467 10 18 10Z" fill="url(#paint5_linear_159_32795)"/>
<path d="M14 13C13.4533 13 13 12.8954 13 12.7692V11.2308C13 11.1046 13.4533 11 14 11C14.5467 11 15 11.1046 15 11.2308V12.7692C15 12.8954 14.5467 13 14 13Z" fill="url(#paint6_linear_159_32795)"/>
<path d="M18 13C17.4533 13 17 12.8954 17 12.7692V11.2308C17 11.1046 17.4533 11 18 11C18.5467 11 19 11.1046 19 11.2308V12.7692C19 12.8954 18.5467 13 18 13Z" fill="url(#paint7_linear_159_32795)"/>
<defs>
<linearGradient id="paint0_linear_159_32795" x1="2.28951" y1="9.59649" x2="15.8258" y2="14.8611" gradientUnits="userSpaceOnUse">
<stop stop-color="#3C3F43"/>
<stop offset="1" stop-color="#1E2023"/>
</linearGradient>
<linearGradient id="paint1_linear_159_32795" x1="14.1053" y1="17.5702" x2="19.0039" y2="19.51" gradientUnits="userSpaceOnUse">
<stop stop-color="#3C3F43"/>
<stop offset="1" stop-color="#1E2023"/>
</linearGradient>
<linearGradient id="paint2_linear_159_32795" x1="13.0526" y1="5.22807" x2="15.3284" y2="6.35459" gradientUnits="userSpaceOnUse">
<stop stop-color="#3C3F43"/>
<stop offset="1" stop-color="#1E2023"/>
</linearGradient>
<linearGradient id="paint3_linear_159_32795" x1="17.0526" y1="5.22807" x2="19.3284" y2="6.35459" gradientUnits="userSpaceOnUse">
<stop stop-color="#3C3F43"/>
<stop offset="1" stop-color="#1E2023"/>
</linearGradient>
<linearGradient id="paint4_linear_159_32795" x1="13.0526" y1="8.22807" x2="15.3284" y2="9.35459" gradientUnits="userSpaceOnUse">
<stop stop-color="#3C3F43"/>
<stop offset="1" stop-color="#1E2023"/>
</linearGradient>
<linearGradient id="paint5_linear_159_32795" x1="17.0526" y1="8.22807" x2="19.3284" y2="9.35459" gradientUnits="userSpaceOnUse">
<stop stop-color="#3C3F43"/>
<stop offset="1" stop-color="#1E2023"/>
</linearGradient>
<linearGradient id="paint6_linear_159_32795" x1="13.0526" y1="11.2281" x2="15.3284" y2="12.3546" gradientUnits="userSpaceOnUse">
<stop stop-color="#3C3F43"/>
<stop offset="1" stop-color="#1E2023"/>
</linearGradient>
<linearGradient id="paint7_linear_159_32795" x1="17.0526" y1="11.2281" x2="19.3284" y2="12.3546" gradientUnits="userSpaceOnUse">
<stop stop-color="#3C3F43"/>
<stop offset="1" stop-color="#1E2023"/>
</linearGradient>
</defs>
</svg>
