<svg width="24" height="24" viewBox="0 0 24 24" fill="none" xmlns="http://www.w3.org/2000/svg">
<path d="M10.11 4C10.03 4.3 10 4.63 10 5V8H5V6C5 4.9 5.9 4 7 4H10.11Z" fill="#989FA7"/>
<path d="M10 19V8H5C3 8 2 9 2 11V19C2 21 3 22 5 22H13C11 22 10 21 10 19ZM6.75 17C6.75 17.41 6.41 17.75 6 17.75C5.59 17.75 5.25 17.41 5.25 17V13C5.25 12.59 5.59 12.25 6 12.25C6.41 12.25 6.75 12.59 6.75 13V17Z" fill="url(#paint0_linear_159_32785)"/>
<path d="M14 22H13C11 22 10 21 10 19V5C10 3 11 2 13 2H19C21 2 22 3 22 5V19C22 21 21 22 19 22H18" fill="#CDD1D5"/>
<path d="M18 18V22H14V18C14 17.45 14.45 17 15 17H17C17.55 17 18 17.45 18 18Z" fill="url(#paint1_linear_159_32785)"/>
<path d="M14 9C13.4533 9 13 8.79077 13 8.53846V5.46154C13 5.20923 13.4533 5 14 5C14.5467 5 15 5.20923 15 5.46154V8.53846C15 8.79077 14.5467 9 14 9Z" fill="url(#paint2_linear_159_32785)"/>
<path d="M14 14C13.4533 14 13 13.7908 13 13.5385V10.4615C13 10.2092 13.4533 10 14 10C14.5467 10 15 10.2092 15 10.4615V13.5385C15 13.7908 14.5467 14 14 14Z" fill="url(#paint3_linear_159_32785)"/>
<path d="M18 9C17.4533 9 17 8.79077 17 8.53846V5.46154C17 5.20923 17.4533 5 18 5C18.5467 5 19 5.20923 19 5.46154V8.53846C19 8.79077 18.5467 9 18 9Z" fill="url(#paint4_linear_159_32785)"/>
<path d="M18 14C17.4533 14 17 13.7908 17 13.5385V10.4615C17 10.2092 17.4533 10 18 10C18.5467 10 19 10.2092 19 10.4615V13.5385C19 13.7908 18.5467 14 18 14Z" fill="url(#paint5_linear_159_32785)"/>
<defs>
<linearGradient id="paint0_linear_159_32785" x1="2.28951" y1="9.59649" x2="15.8258" y2="14.8611" gradientUnits="userSpaceOnUse">
<stop stop-color="#3C3F43"/>
<stop offset="1" stop-color="#1E2023"/>
</linearGradient>
<linearGradient id="paint1_linear_159_32785" x1="14.1053" y1="17.5702" x2="19.0039" y2="19.51" gradientUnits="userSpaceOnUse">
<stop stop-color="#3C3F43"/>
<stop offset="1" stop-color="#1E2023"/>
</linearGradient>
<linearGradient id="paint2_linear_159_32785" x1="13.0526" y1="5.45614" x2="15.7225" y2="6.11693" gradientUnits="userSpaceOnUse">
<stop stop-color="#3C3F43"/>
<stop offset="1" stop-color="#1E2023"/>
</linearGradient>
<linearGradient id="paint3_linear_159_32785" x1="13.0526" y1="10.4561" x2="15.7225" y2="11.1169" gradientUnits="userSpaceOnUse">
<stop stop-color="#3C3F43"/>
<stop offset="1" stop-color="#1E2023"/>
</linearGradient>
<linearGradient id="paint4_linear_159_32785" x1="17.0526" y1="5.45614" x2="19.7225" y2="6.11693" gradientUnits="userSpaceOnUse">
<stop stop-color="#3C3F43"/>
<stop offset="1" stop-color="#1E2023"/>
</linearGradient>
<linearGradient id="paint5_linear_159_32785" x1="17.0526" y1="10.4561" x2="19.7225" y2="11.1169" gradientUnits="userSpaceOnUse">
<stop stop-color="#3C3F43"/>
<stop offset="1" stop-color="#1E2023"/>
</linearGradient>
</defs>
</svg>
