<svg width="24" height="24" viewBox="0 0 24 24" fill="none" xmlns="http://www.w3.org/2000/svg">
<path d="M18 20.5009H17V20.2509C17 19.1509 16.1 18.2509 15 18.2509H12.75V15.9609C12.5 15.9909 12.25 16.0009 12 16.0009C11.75 16.0009 11.5 15.9909 11.25 15.9609V18.2509H9C7.9 18.2509 7 19.1509 7 20.2509V20.5009H6C5.59 20.5009 5.25 20.8409 5.25 21.2509C5.25 21.6609 5.59 22.0009 6 22.0009H18C18.41 22.0009 18.75 21.6609 18.75 21.2509C18.75 20.8409 18.41 20.5009 18 20.5009Z" fill="#CDD1D5"/>
<path d="M5.52003 11.64C4.86003 11.39 4.28003 10.98 3.82003 10.52C2.89003 9.49 2.28003 8.26 2.28003 6.82C2.28003 5.38 3.41003 4.25 4.85003 4.25H5.41003C5.15003 4.78 5.00003 5.37 5.00003 6V9C5.00003 9.94 5.18003 10.83 5.52003 11.64Z" fill="#CDD1D5"/>
<path d="M21.72 6.82C21.72 8.26 21.11 9.49 20.18 10.52C19.72 10.98 19.14 11.39 18.48 11.64C18.82 10.83 19 9.94 19 9V6C19 5.37 18.85 4.78 18.59 4.25H19.15C20.59 4.25 21.72 5.38 21.72 6.82Z" fill="#CDD1D5"/>
<path d="M15 2H9C6.79 2 5 3.79 5 6V9C5 12.87 8.13 16 12 16C15.87 16 19 12.87 19 9V6C19 3.79 17.21 2 15 2ZM14.84 8.45L14.22 9.21C14.12 9.32 14.05 9.54 14.06 9.69L14.12 10.67C14.16 11.27 13.73 11.58 13.17 11.36L12.26 11C12.12 10.95 11.88 10.95 11.74 11L10.83 11.36C10.27 11.58 9.84 11.27 9.88 10.67L9.94 9.69C9.95 9.54 9.88 9.32 9.78 9.21L9.16 8.45C8.77 7.99 8.94 7.48 9.52 7.33L10.47 7.09C10.62 7.05 10.8 6.91 10.88 6.78L11.41 5.96C11.74 5.45 12.26 5.45 12.59 5.96L13.12 6.78C13.2 6.91 13.38 7.05 13.53 7.09L14.48 7.33C15.06 7.48 15.23 7.99 14.84 8.45Z" fill="url(#paint0_linear_159_32695)"/>
<path d="M14.84 8.45062L14.22 9.21062C14.12 9.32062 14.05 9.54062 14.06 9.69062L14.12 10.6706C14.16 11.2706 13.73 11.5806 13.17 11.3606L12.26 11.0006C12.12 10.9506 11.88 10.9506 11.74 11.0006L10.83 11.3606C10.27 11.5806 9.83999 11.2706 9.87999 10.6706L9.93999 9.69062C9.94999 9.54062 9.87999 9.32062 9.77999 9.21062L9.15999 8.45062C8.76999 7.99062 8.93999 7.48062 9.51999 7.33062L10.47 7.09063C10.62 7.05063 10.8 6.91063 10.88 6.78063L11.41 5.96062C11.74 5.45063 12.26 5.45063 12.59 5.96062L13.12 6.78063C13.2 6.91063 13.38 7.05063 13.53 7.09063L14.48 7.33062C15.06 7.48062 15.23 7.99062 14.84 8.45062Z" fill="#DADDE2"/>
<defs>
<linearGradient id="paint0_linear_159_32695" x1="5.36847" y1="3.59649" x2="21.299" y2="11.4821" gradientUnits="userSpaceOnUse">
<stop stop-color="#3C3F43"/>
<stop offset="1" stop-color="#1E2023"/>
</linearGradient>
</defs>
</svg>
