<svg width="24" height="24" viewBox="0 0 24 24" fill="none" xmlns="http://www.w3.org/2000/svg">
<path d="M3.99036 14.6604L2.47037 13.1404C1.85037 12.5204 1.85037 11.5004 2.47037 10.8804L3.99036 9.36039C4.25036 9.10039 4.46036 8.59038 4.46036 8.23038V6.08042C4.46036 5.20042 5.18037 4.48038 6.06037 4.48038H8.21036C8.57036 4.48038 9.08037 4.27041 9.34037 4.01041L10.8604 2.49039C11.4804 1.87039 12.5004 1.87039 13.1204 2.49039L14.6404 4.01041C14.9004 4.27041 15.4104 4.48038 15.7704 4.48038H17.9204C18.8004 4.48038 19.5204 5.20042 19.5204 6.08042V8.23038C19.5204 8.59038 19.7304 9.10039 19.9904 9.36039L21.5104 10.8804C22.1304 11.5004 22.1304 12.5204 21.5104 13.1404L19.9904 14.6604C19.7304 14.9204 19.5204 15.4304 19.5204 15.7904V17.9404C19.5204 18.8204 18.8004 19.5404 17.9204 19.5404H15.7704C15.4104 19.5404 14.9004 19.7504 14.6404 20.0104L13.1204 21.5304C12.5004 22.1504 11.4804 22.1504 10.8604 21.5304L9.34037 20.0104C9.08037 19.7504 8.57036 19.5404 8.21036 19.5404H6.06037C5.18037 19.5404 4.46036 18.8204 4.46036 17.9404V15.7904C4.46036 15.4204 4.25036 14.9104 3.99036 14.6604Z" fill="url(#paint0_linear_159_32665)"/>
<path d="M14.9993 16C14.4393 16 13.9893 15.55 13.9893 15C13.9893 14.45 14.4393 14 14.9893 14C15.5393 14 15.9893 14.45 15.9893 15C15.9893 15.55 15.5493 16 14.9993 16Z" fill="#CDD1D5"/>
<path d="M9.00952 10C8.44952 10 7.99951 9.55 7.99951 9C7.99951 8.45 8.44951 8 8.99951 8C9.54951 8 9.99951 8.45 9.99951 9C9.99951 9.55 9.55952 10 9.00952 10Z" fill="#CDD1D5"/>
<path d="M9.00043 15.7495C8.81043 15.7495 8.62043 15.6795 8.47043 15.5295C8.18043 15.2395 8.18043 14.7595 8.47043 14.4695L14.4704 8.46945C14.7604 8.17945 15.2404 8.17945 15.5304 8.46945C15.8204 8.75945 15.8204 9.23951 15.5304 9.52951L9.53043 15.5295C9.38043 15.6795 9.19043 15.7495 9.00043 15.7495Z" fill="#CDD1D5"/>
<defs>
<linearGradient id="paint0_linear_159_32665" x1="2.53096" y1="4.30268" x2="25.2548" y2="15.551" gradientUnits="userSpaceOnUse">
<stop stop-color="#3C3F43"/>
<stop offset="1" stop-color="#1E2023"/>
</linearGradient>
</defs>
</svg>
