<svg width="24" height="24" viewBox="0 0 24 24" fill="none" xmlns="http://www.w3.org/2000/svg">
<path d="M19.56 10.99H4.93001C3.45001 10.99 2.25 9.78 2.25 8.31V5.68C2.25 4.2 3.46001 3 4.93001 3H19.56C21.04 3 22.24 4.21 22.24 5.68V8.31C22.24 9.78 21.03 10.99 19.56 10.99Z" fill="url(#paint0_linear_159_32740)"/>
<path d="M6.23999 8.74219C5.82999 8.74219 5.48999 8.40219 5.48999 7.99219V5.99219C5.48999 5.58219 5.82999 5.24219 6.23999 5.24219C6.64999 5.24219 6.98999 5.58219 6.98999 5.99219V7.99219C6.98999 8.40219 6.64999 8.74219 6.23999 8.74219Z" fill="#CDD1D5"/>
<path d="M10.24 8.74219C9.82999 8.74219 9.48999 8.40219 9.48999 7.99219V5.99219C9.48999 5.58219 9.82999 5.24219 10.24 5.24219C10.65 5.24219 10.99 5.58219 10.99 5.99219V7.99219C10.99 8.40219 10.65 8.74219 10.24 8.74219Z" fill="#CDD1D5"/>
<path d="M18.2401 7.74023H14.2401C13.8301 7.74023 13.4901 7.40023 13.4901 6.99023C13.4901 6.58023 13.8301 6.24023 14.2401 6.24023H18.2401C18.6501 6.24023 18.9901 6.58023 18.9901 6.99023C18.9901 7.40023 18.6501 7.74023 18.2401 7.74023Z" fill="#CDD1D5"/>
<path d="M19.56 20.4783H4.93001C3.45001 20.4783 2.25 19.2683 2.25 17.7983V15.1683C2.25 13.6883 3.46001 12.4883 4.93001 12.4883H19.56C21.04 12.4883 22.24 13.6983 22.24 15.1683V17.7983C22.24 19.2683 21.03 20.4783 19.56 20.4783Z" fill="url(#paint1_linear_159_32740)"/>
<path d="M6.23999 18.2305C5.82999 18.2305 5.48999 17.8905 5.48999 17.4805V15.4805C5.48999 15.0705 5.82999 14.7305 6.23999 14.7305C6.64999 14.7305 6.98999 15.0705 6.98999 15.4805V17.4805C6.98999 17.8905 6.64999 18.2305 6.23999 18.2305Z" fill="#CDD1D5"/>
<path d="M10.24 18.2305C9.82999 18.2305 9.48999 17.8905 9.48999 17.4805V15.4805C9.48999 15.0705 9.82999 14.7305 10.24 14.7305C10.65 14.7305 10.99 15.0705 10.99 15.4805V17.4805C10.99 17.8905 10.65 18.2305 10.24 18.2305Z" fill="#CDD1D5"/>
<path d="M18.2401 17.2305H14.2401C13.8301 17.2305 13.4901 16.8905 13.4901 16.4805C13.4901 16.0705 13.8301 15.7305 14.2401 15.7305H18.2401C18.6501 15.7305 18.9901 16.0705 18.9901 16.4805C18.9901 16.8905 18.6501 17.2305 18.2401 17.2305Z" fill="#CDD1D5"/>
<defs>
<linearGradient id="paint0_linear_159_32740" x1="2.77612" y1="3.91114" x2="13.9534" y2="17.7535" gradientUnits="userSpaceOnUse">
<stop stop-color="#3C3F43"/>
<stop offset="1" stop-color="#1E2023"/>
</linearGradient>
<linearGradient id="paint1_linear_159_32740" x1="2.77612" y1="13.3994" x2="13.9534" y2="27.2417" gradientUnits="userSpaceOnUse">
<stop stop-color="#3C3F43"/>
<stop offset="1" stop-color="#1E2023"/>
</linearGradient>
</defs>
</svg>
