<svg width="24" height="24" viewBox="0 0 24 24" fill="none" xmlns="http://www.w3.org/2000/svg">
<path d="M22 22.75H2C1.59 22.75 1.25 22.41 1.25 22C1.25 21.59 1.59 21.25 2 21.25H22C22.41 21.25 22.75 21.59 22.75 22C22.75 22.41 22.41 22.75 22 22.75Z" fill="url(#paint0_linear_159_32807)"/>
<path d="M21 9.98066V22.0007H2.94995L2.99995 9.97065C2.99995 9.36065 3.27995 8.78071 3.76995 8.40071L10.77 2.9607C11.49 2.3907 12.5099 2.3907 13.2299 2.9607L14.57 4.00068L19 7.44068L20.23 8.40071C20.72 8.78071 21 9.36066 21 9.98066Z" fill="#CDD1D5"/>
<path d="M13 17H11C10.17 17 9.5 17.67 9.5 18.5V22H14.5V18.5C14.5 17.67 13.83 17 13 17Z" fill="url(#paint1_linear_159_32807)"/>
<path d="M9.5 13.75H7.5C6.95 13.75 6.5 13.3 6.5 12.75V11.25C6.5 10.7 6.95 10.25 7.5 10.25H9.5C10.05 10.25 10.5 10.7 10.5 11.25V12.75C10.5 13.3 10.05 13.75 9.5 13.75Z" fill="url(#paint2_linear_159_32807)"/>
<path d="M16.5 13.75H14.5C13.95 13.75 13.5 13.3 13.5 12.75V11.25C13.5 10.7 13.95 10.25 14.5 10.25H16.5C17.05 10.25 17.5 10.7 17.5 11.25V12.75C17.5 13.3 17.05 13.75 16.5 13.75Z" fill="url(#paint3_linear_159_32807)"/>
<path d="M18.9999 7.44L14.5699 4H17.9799C18.5299 4 18.9799 4.43999 18.9799 4.98999L18.9999 7.44Z" fill="url(#paint4_linear_159_32807)"/>
<defs>
<linearGradient id="paint0_linear_159_32807" x1="1.81586" y1="21.4211" x2="2.40915" y2="25.6305" gradientUnits="userSpaceOnUse">
<stop stop-color="#3C3F43"/>
<stop offset="1" stop-color="#1E2023"/>
</linearGradient>
<linearGradient id="paint1_linear_159_32807" x1="9.63159" y1="17.5702" x2="15.3211" y2="20.3865" gradientUnits="userSpaceOnUse">
<stop stop-color="#3C3F43"/>
<stop offset="1" stop-color="#1E2023"/>
</linearGradient>
<linearGradient id="paint2_linear_159_32807" x1="6.60528" y1="10.6491" x2="10.8982" y2="13.0777" gradientUnits="userSpaceOnUse">
<stop stop-color="#3C3F43"/>
<stop offset="1" stop-color="#1E2023"/>
</linearGradient>
<linearGradient id="paint3_linear_159_32807" x1="13.6053" y1="10.6491" x2="17.8982" y2="13.0777" gradientUnits="userSpaceOnUse">
<stop stop-color="#3C3F43"/>
<stop offset="1" stop-color="#1E2023"/>
</linearGradient>
<linearGradient id="paint4_linear_159_32807" x1="14.6865" y1="4.39228" x2="19.1492" y2="7.23702" gradientUnits="userSpaceOnUse">
<stop stop-color="#3C3F43"/>
<stop offset="1" stop-color="#1E2023"/>
</linearGradient>
</defs>
</svg>
