<svg width="24" height="24" viewBox="0 0 24 24" fill="none" xmlns="http://www.w3.org/2000/svg">
<path d="M22 22.75H2C1.59 22.75 1.25 22.41 1.25 22C1.25 21.59 1.59 21.25 2 21.25H22C22.41 21.25 22.75 21.59 22.75 22C22.75 22.41 22.41 22.75 22 22.75Z" fill="url(#paint0_linear_159_32819)"/>
<path d="M21 9.98066V22.0007H2.94995L2.99995 9.97065C2.99995 9.36065 3.27995 8.78071 3.76995 8.40071L10.77 2.9607C11.49 2.3907 12.5099 2.3907 13.2299 2.9607L14.57 4.00068L19 7.44068L20.23 8.40071C20.72 8.78071 21 9.36066 21 9.98066Z" fill="#CDD1D5"/>
<path d="M7.5 14H6.5C6.225 14 6 13.7429 6 13.4286V12.5714C6 12.2571 6.225 12 6.5 12H7.5C7.775 12 8 12.2571 8 12.5714V13.4286C8 13.7429 7.775 14 7.5 14Z" fill="url(#paint1_linear_159_32819)"/>
<path d="M10 14H9C8.725 14 8.5 13.7429 8.5 13.4286V12.5714C8.5 12.2571 8.725 12 9 12H10C10.275 12 10.5 12.2571 10.5 12.5714V13.4286C10.5 13.7429 10.275 14 10 14Z" fill="url(#paint2_linear_159_32819)"/>
<path d="M7.5 16.5H6.5C6.225 16.5 6 16.2429 6 15.9286V15.0714C6 14.7571 6.225 14.5 6.5 14.5H7.5C7.775 14.5 8 14.7571 8 15.0714V15.9286C8 16.2429 7.775 16.5 7.5 16.5Z" fill="url(#paint3_linear_159_32819)"/>
<path d="M10 16.5H9C8.725 16.5 8.5 16.2429 8.5 15.9286V15.0714C8.5 14.7571 8.725 14.5 9 14.5H10C10.275 14.5 10.5 14.7571 10.5 15.0714V15.9286C10.5 16.2429 10.275 16.5 10 16.5Z" fill="url(#paint4_linear_159_32819)"/>
<path d="M14.95 14H13.95C13.675 14 13.45 13.7429 13.45 13.4286V12.5714C13.45 12.2571 13.675 12 13.95 12H14.95C15.225 12 15.45 12.2571 15.45 12.5714V13.4286C15.45 13.7429 15.225 14 14.95 14Z" fill="url(#paint5_linear_159_32819)"/>
<path d="M17.45 14H16.45C16.175 14 15.95 13.7429 15.95 13.4286V12.5714C15.95 12.2571 16.175 12 16.45 12H17.45C17.725 12 17.95 12.2571 17.95 12.5714V13.4286C17.95 13.7429 17.725 14 17.45 14Z" fill="url(#paint6_linear_159_32819)"/>
<path d="M14.95 16.5H13.95C13.675 16.5 13.45 16.2429 13.45 15.9286V15.0714C13.45 14.7571 13.675 14.5 13.95 14.5H14.95C15.225 14.5 15.45 14.7571 15.45 15.0714V15.9286C15.45 16.2429 15.225 16.5 14.95 16.5Z" fill="url(#paint7_linear_159_32819)"/>
<path d="M17.45 16.5H16.45C16.175 16.5 15.95 16.2429 15.95 15.9286V15.0714C15.95 14.7571 16.175 14.5 16.45 14.5H17.45C17.725 14.5 17.95 14.7571 17.95 15.0714V15.9286C17.95 16.2429 17.725 16.5 17.45 16.5Z" fill="url(#paint8_linear_159_32819)"/>
<path d="M18.9999 7.44L14.5699 4H17.9799C18.5299 4 18.9799 4.43999 18.9799 4.98999L18.9999 7.44Z" fill="url(#paint9_linear_159_32819)"/>
<defs>
<linearGradient id="paint0_linear_159_32819" x1="1.81586" y1="21.4211" x2="2.40915" y2="25.6305" gradientUnits="userSpaceOnUse">
<stop stop-color="#3C3F43"/>
<stop offset="1" stop-color="#1E2023"/>
</linearGradient>
<linearGradient id="paint1_linear_159_32819" x1="6.05264" y1="12.2281" x2="8.32843" y2="13.3546" gradientUnits="userSpaceOnUse">
<stop stop-color="#3C3F43"/>
<stop offset="1" stop-color="#1E2023"/>
</linearGradient>
<linearGradient id="paint2_linear_159_32819" x1="8.55264" y1="12.2281" x2="10.8284" y2="13.3546" gradientUnits="userSpaceOnUse">
<stop stop-color="#3C3F43"/>
<stop offset="1" stop-color="#1E2023"/>
</linearGradient>
<linearGradient id="paint3_linear_159_32819" x1="6.05264" y1="14.7281" x2="8.32843" y2="15.8546" gradientUnits="userSpaceOnUse">
<stop stop-color="#3C3F43"/>
<stop offset="1" stop-color="#1E2023"/>
</linearGradient>
<linearGradient id="paint4_linear_159_32819" x1="8.55264" y1="14.7281" x2="10.8284" y2="15.8546" gradientUnits="userSpaceOnUse">
<stop stop-color="#3C3F43"/>
<stop offset="1" stop-color="#1E2023"/>
</linearGradient>
<linearGradient id="paint5_linear_159_32819" x1="13.5026" y1="12.2281" x2="15.7784" y2="13.3546" gradientUnits="userSpaceOnUse">
<stop stop-color="#3C3F43"/>
<stop offset="1" stop-color="#1E2023"/>
</linearGradient>
<linearGradient id="paint6_linear_159_32819" x1="16.0026" y1="12.2281" x2="18.2784" y2="13.3546" gradientUnits="userSpaceOnUse">
<stop stop-color="#3C3F43"/>
<stop offset="1" stop-color="#1E2023"/>
</linearGradient>
<linearGradient id="paint7_linear_159_32819" x1="13.5026" y1="14.7281" x2="15.7784" y2="15.8546" gradientUnits="userSpaceOnUse">
<stop stop-color="#3C3F43"/>
<stop offset="1" stop-color="#1E2023"/>
</linearGradient>
<linearGradient id="paint8_linear_159_32819" x1="16.0026" y1="14.7281" x2="18.2784" y2="15.8546" gradientUnits="userSpaceOnUse">
<stop stop-color="#3C3F43"/>
<stop offset="1" stop-color="#1E2023"/>
</linearGradient>
<linearGradient id="paint9_linear_159_32819" x1="14.6865" y1="4.39228" x2="19.1492" y2="7.23702" gradientUnits="userSpaceOnUse">
<stop stop-color="#3C3F43"/>
<stop offset="1" stop-color="#1E2023"/>
</linearGradient>
</defs>
</svg>
