<svg width="24" height="24" viewBox="0 0 24 24" fill="none" xmlns="http://www.w3.org/2000/svg">
<path d="M12 1.75C15.54 1.75 19.5701 3.8302 20.6201 8.4502C21.7899 13.6099 18.6304 17.9697 15.7705 20.7197C14.7205 21.7397 13.36 22.25 12 22.25C10.64 22.25 9.2797 21.7397 8.21973 20.7197C5.35989 17.9698 2.20042 13.6001 3.37012 8.44043C4.42012 3.82043 8.46023 1.75 11.9902 1.75H12ZM12 7.16016C10.2603 7.16016 8.84961 8.57085 8.84961 10.3105C8.84982 12.0501 10.2604 13.46 12 13.46C13.7394 13.4597 15.1492 12.0499 15.1494 10.3105C15.1494 8.57098 13.7395 7.16037 12 7.16016Z" fill="url(#paint0_linear_159_32750)"/>
<defs>
<linearGradient id="paint0_linear_159_32750" x1="3.58728" y1="4.08772" x2="24.8314" y2="13.1929" gradientUnits="userSpaceOnUse">
<stop stop-color="#3C3F43"/>
<stop offset="1" stop-color="#1E2023"/>
</linearGradient>
</defs>
</svg>
