<svg width="24" height="24" viewBox="0 0 24 24" fill="none" xmlns="http://www.w3.org/2000/svg">
<path d="M19.88 20.9406C18.93 21.6406 17.68 22.0005 16.19 22.0005H7.80997C7.56997 22.0005 7.32998 21.9905 7.09998 21.9605L14 15.0605L19.88 20.9406Z" fill="#CDD1D5"/>
<path d="M22.0001 7.80961V16.1896C22.0001 17.6796 21.6401 18.9296 20.9401 19.8796L15.0601 13.9996L21.9601 7.09961C21.9901 7.32961 22.0001 7.56961 22.0001 7.80961Z" fill="#CDD1D5"/>
<path d="M15.7776 14.8216L21.0802 20.1242C20.8186 20.503 20.503 20.8186 20.1243 21.0802L14.8216 15.7776L8.59921 22C8.02205 21.9639 7.49901 21.8467 7.02105 21.6663C5.09119 20.9629 4 19.2495 4 16.7966V9.23948C4 5.95691 5.95691 4 9.23948 4H16.7966C19.2495 4 20.9629 5.09118 21.6663 7.02104C21.8467 7.499 21.9639 8.02204 22 8.5992L15.7776 14.8216Z" fill="#CDD1D5"/>
<path d="M15.7688 14.8116L21.0789 20.1216C20.817 20.5009 20.5009 20.817 20.1216 21.0789L14.8116 15.7688L8.58037 22C8.00241 21.9639 7.47863 21.8465 7 21.6659L7.35218 21.3137L21.6659 7C21.8465 7.47863 21.9639 8.00241 22 8.58037L15.7688 14.8116Z" fill="#1E2023"/>
<path d="M11.8306 4.29161C11.1205 1.34113 8.39206 0.0178817 6 0C3.60794 0 0.879516 1.32324 0.169374 4.27372C-0.615519 7.54607 1.47751 10.282 3.365 11.9986C4.11251 12.6781 5.04692 13 6 13C6.95308 13 7.88749 12.6602 8.635 11.9986C10.5225 10.282 12.6155 7.54608 11.8306 4.29161ZM6.05606 7.08115C5.02822 7.08115 4.18727 6.27647 4.18727 5.29298C4.18727 4.30949 5.00954 3.50481 6.05606 3.50481H6.07477C7.1026 3.50481 7.94356 4.30949 7.94356 5.29298C7.94356 6.27647 7.0839 7.08115 6.05606 7.08115Z" fill="#1E2023"/>
<path d="M6.05606 7.08115C5.02822 7.08115 4.18727 6.27647 4.18727 5.29298C4.18727 4.30949 5.00954 3.50481 6.05606 3.50481H6.07477C7.1026 3.50481 7.94356 4.30949 7.94356 5.29298C7.94356 6.27647 7.0839 7.08115 6.05606 7.08115Z" fill="white"/>
</svg>
