<svg width="24" height="24" viewBox="0 0 24 24" fill="none" xmlns="http://www.w3.org/2000/svg">
<path d="M12 22C17.5228 22 22 17.5228 22 12C22 6.47715 17.5228 2 12 2C6.47715 2 2 6.47715 2 12C2 17.5228 6.47715 22 12 22Z" fill="url(#paint0_linear_159_32671)"/>
<path d="M8.32001 16.0201C8.13001 16.0201 7.94001 15.9501 7.79001 15.8001C7.50001 15.5101 7.50001 15.0301 7.79001 14.7401L14.34 8.19016C14.63 7.90016 15.11 7.90016 15.4 8.19016C15.69 8.48016 15.69 8.96015 15.4 9.25015L8.85001 15.8001C8.70001 15.9501 8.51001 16.0201 8.32001 16.0201Z" fill="#CDD1D5"/>
<path d="M8.73001 7.66016C7.92001 7.66016 7.25 8.32017 7.25 9.14017C7.25 9.95017 7.91001 10.6201 8.73001 10.6201C9.54001 10.6201 10.21 9.96017 10.21 9.14017C10.2 8.32017 9.54001 7.66016 8.73001 7.66016Z" fill="#CDD1D5"/>
<path d="M15.27 13.3906C14.46 13.3906 13.79 14.0506 13.79 14.8706C13.79 15.6806 14.45 16.3506 15.27 16.3506C16.08 16.3506 16.75 15.6906 16.75 14.8706C16.75 14.0506 16.09 13.3906 15.27 13.3906Z" fill="#CDD1D5"/>
<defs>
<linearGradient id="paint0_linear_159_32671" x1="2.52638" y1="4.2807" x2="25.2843" y2="15.5459" gradientUnits="userSpaceOnUse">
<stop stop-color="#3C3F43"/>
<stop offset="1" stop-color="#1E2023"/>
</linearGradient>
</defs>
</svg>
