<svg width="24" height="24" viewBox="0 0 24 24" fill="none" xmlns="http://www.w3.org/2000/svg">
<path d="M16.19 2H7.82001C4.18001 2 2.01001 4.17 2.01001 7.81V16.18C2.01001 19.82 4.18001 21.99 7.82001 21.99H16.19C19.83 21.99 22 19.82 22 16.18V7.81C22 4.17 19.83 2 16.19 2Z" fill="url(#paint0_linear_159_32713)"/>
<path d="M8.19 16.7808H9.68C10.77 16.7808 11.62 15.9308 11.62 14.8408V13.3507C11.62 12.2607 10.77 11.4107 9.68 11.4107H7.77C7.85 9.60071 8.27 9.33073 9.48 8.62073C9.84 8.41073 9.95 7.95076 9.74 7.59076C9.6 7.35076 9.35 7.2207 9.09 7.2207C8.96 7.2207 8.83 7.25074 8.71 7.32074C6.92 8.38074 6.25 9.07076 6.25 12.1508V14.8207C6.25 15.9107 7.12 16.7808 8.19 16.7808Z" fill="#CDD1D5"/>
<path d="M14.32 16.7808H15.81C16.9 16.7808 17.75 15.9308 17.75 14.8408V13.3507C17.75 12.2607 16.9 11.4107 15.81 11.4107H13.9C13.98 9.60071 14.4 9.33073 15.61 8.62073C15.97 8.41073 16.08 7.95076 15.87 7.59076C15.73 7.35076 15.48 7.2207 15.22 7.2207C15.09 7.2207 14.96 7.25074 14.84 7.32074C13.05 8.38074 12.38 9.07076 12.38 12.1508V14.8207C12.39 15.9107 13.26 16.7808 14.32 16.7808Z" fill="#CDD1D5"/>
<defs>
<linearGradient id="paint0_linear_159_32713" x1="2.53613" y1="4.27956" x2="25.2827" y2="15.5391" gradientUnits="userSpaceOnUse">
<stop stop-color="#3C3F43"/>
<stop offset="1" stop-color="#1E2023"/>
</linearGradient>
</defs>
</svg>
