<svg width="24" height="24" viewBox="0 0 24 24" fill="none" xmlns="http://www.w3.org/2000/svg">
<path d="M21.9995 9.20938V14.7894C21.9995 18.8894 20.7495 20.1394 16.6495 20.1394H9.90947V17.1194C9.90947 16.7394 9.58947 16.4194 9.20947 16.4194V7.57938C9.58947 7.57938 9.90947 7.25938 9.90947 6.87938V3.85938H16.6495C20.7495 3.85938 21.9995 5.10938 21.9995 9.20938Z" fill="url(#paint0_linear_159_32660)"/>
<path d="M18.4697 11.9001C18.6397 11.7401 18.6997 11.4901 18.6297 11.2701C18.5597 11.0401 18.3697 10.8801 18.1297 10.8501L16.8497 10.6601C16.7997 10.6501 16.7597 10.6201 16.7397 10.5801L16.1697 9.42008C16.0697 9.21008 15.8497 9.08008 15.6197 9.08008C15.3797 9.08008 15.1697 9.21008 15.0597 9.42008L14.4897 10.5801C14.4697 10.6301 14.4197 10.6601 14.3697 10.6601L13.0897 10.8501C12.8597 10.8801 12.6597 11.0501 12.5897 11.2701C12.5197 11.5001 12.5797 11.7401 12.7497 11.9001L13.6797 12.8001C13.7197 12.8301 13.7297 12.8901 13.7197 12.9401L13.4997 14.2101C13.4597 14.4401 13.5497 14.6801 13.7497 14.8101C13.8597 14.8901 13.9797 14.9301 14.1097 14.9301C14.2097 14.9301 14.3097 14.9101 14.3997 14.8601L15.5497 14.2601C15.5897 14.2401 15.6497 14.2401 15.6897 14.2601L16.8397 14.8601C17.0497 14.9701 17.2997 14.9501 17.4897 14.8101C17.6797 14.6701 17.7797 14.4401 17.7397 14.2001L17.5197 12.9301C17.5097 12.8801 17.5297 12.8301 17.5597 12.7901L18.4697 11.9001Z" fill="#CDD1D5"/>
<path d="M9.21061 7.57938V16.4194C8.83061 16.4194 8.51061 16.7394 8.51061 17.1194V20.1394H7.35061C3.40061 20.1394 2.10061 18.9594 2.01061 15.2794C2.00061 15.0894 2.08061 14.9094 2.21061 14.7794C2.34061 14.6394 2.53061 14.5694 2.71061 14.5694C4.11061 14.5694 5.26061 13.4194 5.26061 12.0094C5.26061 10.5994 4.11061 9.43937 2.71061 9.43937C2.51061 9.43937 2.34061 9.36937 2.21061 9.22937C2.08061 9.09937 2.00061 8.90937 2.01061 8.72937C2.10061 5.03937 3.40061 3.85938 7.35061 3.85938H8.51061V6.87938C8.51061 7.26938 8.83061 7.57938 9.21061 7.57938Z" fill="#CDD1D5"/>
<defs>
<linearGradient id="paint0_linear_159_32660" x1="9.54609" y1="5.71587" x2="25.2855" y2="11.8367" gradientUnits="userSpaceOnUse">
<stop stop-color="#3C3F43"/>
<stop offset="1" stop-color="#1E2023"/>
</linearGradient>
</defs>
</svg>
