<svg width="24" height="24" viewBox="0 0 24 24" fill="none" xmlns="http://www.w3.org/2000/svg">
<path d="M15 15.5C15 19.09 12.09 22 8.5 22C4.91 22 2 19.09 2 15.5C2 11.91 4.91 9 8.5 9C8.67 9 8.84999 9.01 9.01999 9.02C12.19 9.27 14.73 11.81 14.98 14.98C14.99 15.15 15 15.33 15 15.5Z" fill="url(#paint0_linear_159_32729)"/>
<path d="M22 8.5C22 12.09 19.09 15 15.5 15C15.33 15 15.15 14.99 14.98 14.98C14.73 11.81 12.19 9.27 9.01999 9.02C9.00999 8.85 9 8.67 9 8.5C9 4.91 11.91 2 15.5 2C19.09 2 22 4.91 22 8.5Z" fill="#CDD1D5"/>
<path d="M5.59 2H3C2.45 2 2 2.45 2 3V5.59C2 6.48 3.07999 6.93 3.70999 6.3L6.29999 3.71001C6.91999 3.08001 6.48 2 5.59 2Z" fill="url(#paint1_linear_159_32729)"/>
<path d="M18.41 22.0003H21C21.55 22.0003 22 21.5503 22 21.0003V18.4103C22 17.5203 20.92 17.0703 20.29 17.7003L17.7 20.2903C17.08 20.9203 17.52 22.0003 18.41 22.0003Z" fill="url(#paint2_linear_159_32729)"/>
<defs>
<linearGradient id="paint0_linear_159_32729" x1="2.34215" y1="10.4825" x2="17.1348" y2="17.8048" gradientUnits="userSpaceOnUse">
<stop stop-color="#3C3F43"/>
<stop offset="1" stop-color="#1E2023"/>
</linearGradient>
<linearGradient id="paint1_linear_159_32729" x1="2.12079" y1="2.52388" x2="7.34523" y2="5.10747" gradientUnits="userSpaceOnUse">
<stop stop-color="#3C3F43"/>
<stop offset="1" stop-color="#1E2023"/>
</linearGradient>
<linearGradient id="paint2_linear_159_32729" x1="17.5312" y1="17.9301" x2="22.7556" y2="20.5137" gradientUnits="userSpaceOnUse">
<stop stop-color="#3C3F43"/>
<stop offset="1" stop-color="#1E2023"/>
</linearGradient>
</defs>
</svg>
