<svg width="24" height="24" viewBox="0 0 24 24" fill="none" xmlns="http://www.w3.org/2000/svg">
<path d="M19 9C19 12.62 16.26 15.59 12.75 15.96C12.5 15.99 12.25 16 12 16C11.75 16 11.5 15.99 11.25 15.96C7.74 15.59 5 12.62 5 9C5 5.13 8.13 2 12 2C15.87 2 19 5.13 19 9Z" fill="#CDD1D5"/>
<path d="M15.75 19.0009C15.75 19.4109 15.41 19.7509 15 19.7509H12.75V22.0009C12.75 22.4109 12.41 22.7509 12 22.7509C11.59 22.7509 11.25 22.4109 11.25 22.0009V19.7509H9C8.59 19.7509 8.25 19.4109 8.25 19.0009C8.25 18.5909 8.59 18.2509 9 18.2509H11.25V15.9609C11.5 15.9909 11.75 16.0009 12 16.0009C12.25 16.0009 12.5 15.9909 12.75 15.9609V18.2509H15C15.41 18.2509 15.75 18.5909 15.75 19.0009Z" fill="url(#paint0_linear_159_32758)"/>
<defs>
<linearGradient id="paint0_linear_159_32758" x1="8.44739" y1="16.7352" x2="16.6274" y2="21.2077" gradientUnits="userSpaceOnUse">
<stop stop-color="#3C3F43"/>
<stop offset="1" stop-color="#1E2023"/>
</linearGradient>
</defs>
</svg>
