<svg width="800" height="503" viewBox="0 0 800 503" fill="none" xmlns="http://www.w3.org/2000/svg">
<path d="M5.08861 32.9697L22.862 0.117709L280.928 143.211L266.334 179.127L34.4678 227.852L4.74683 33.8115L5.08861 32.9697Z" fill="url(#paint0_linear_842_4169)"/>
<path d="M525.216 456.103L466.283 481.825L401.087 492.133L459.934 479.607L525.216 456.103Z" fill="#48768F"/>
<path d="M292.163 370.817L375.728 380.913L316.881 393.439L233.316 383.343L292.163 370.817Z" fill="#48768F"/>
<path d="M596.924 534.7L538.077 547.226L466.283 481.825L525.217 456.104L596.924 534.7Z" fill="#375A6D"/>
<path d="M375.727 380.913L459.931 479.608L401.084 492.134L316.88 393.439L375.727 380.913Z" fill="#375A6D"/>
<path d="M182.625 180.822L123.778 193.348L98.6923 213.939L157.539 201.413L182.625 180.822Z" fill="#22303D"/>
<path d="M182.627 180.822L307.25 334.702L381.665 344.525L464.683 442.552L530.199 419.049L602.23 497.819L672.961 502.678L746.844 570.303L818.419 543.932L892.513 627.248L961.629 599.284L1034.84 674.335L1109.65 671.946L1214.99 755.183C1216.62 756.762 1217.22 759.31 1216.51 761.491C1215.79 763.63 1213.95 764.85 1210.43 764.215L1107.46 709.874L1027.9 713.171L955.313 638.694L883.185 667.368L809.929 585.062L740.57 610.777L663.217 539.705L596.921 534.7L525.214 456.104L459.932 479.608L375.728 380.913L292.163 370.817L157.542 201.413L182.627 180.822Z" fill="url(#paint1_linear_842_4169)"/>
<path d="M4.75521 34.2249L266.877 179.014L157.908 201.913L292.162 370.817L233.315 383.344L98.9593 214.3L16.5915 231.609L4.75521 34.2249Z" fill="#375A6D"/>
<defs>
<linearGradient id="paint0_linear_842_4169" x1="141.918" y1="228.558" x2="143.413" y2="0.909558" gradientUnits="userSpaceOnUse">
<stop stop-color="#5D91AD"/>
<stop offset="0.519231" stop-color="#6F9DB6"/>
<stop offset="1" stop-color="#7FA8BE"/>
</linearGradient>
<linearGradient id="paint1_linear_842_4169" x1="685.33" y1="760.922" x2="689.119" y2="184.149" gradientUnits="userSpaceOnUse">
<stop stop-color="#5D91AD"/>
<stop offset="0.519231" stop-color="#6F9DB6"/>
<stop offset="1" stop-color="#7FA8BE"/>
</linearGradient>
</defs>
</svg>
