<svg width="1122" height="542" viewBox="0 0 1122 542" fill="none" xmlns="http://www.w3.org/2000/svg">
<path d="M1289.38 160.414L1270.91 180.723V243.011H1251.2V72.3993H1163.12V469.818L1136.63 440.704V211.867H940.765V270.092H837.288V452.891V533.378H746.386V295.663H720.093V203.178H666.191V356.357H641.212V385.258L609.661 330.345H554.445V132.37H447.956L438.753 142.486V203.178V271.097H408.516V90.4623H317.803V120.81L300.056 140.318V448.119H279.678V201.011H267.845V177.167H163.33L145.581 196.676V224.132H46.982L41.7227 574.557H370.39V573.834H704.316V574.557H837.288H1029.04H1368.22V160.414H1289.38Z" fill="url(#paint0_linear_842_4161)" fill-opacity="0.4"/>
<path d="M1367.68 185.896V432.82H1335.81V334.552L1290.67 296.262V147.605H1233.57L1200.37 119.45H1157.88V269.233H1055.64V439.287H1029.08V201.661L954.722 234.321V376.22H934.805V157.741H909.576V93.5485H884.346V78.9079H873.723V91.2967H811.315V140.849H752.89L738.283 157.741V360.454H688.489V319.348L657.285 292.882V196.032H548.401V275.99H508.566V343.562L460.763 388.609H430.222V174.633L345.24 125.081V323.29H325.323V187.022H224.406V234.321H177.932V460.684H158.015V362.706H90.2942V332.299L78.3434 317.659H5.31092L0 712.949H1260.33H1335.81H1367.68H1454.12V185.896H1367.68Z" fill="url(#paint1_linear_842_4161)"/>
<defs>
<linearGradient id="paint0_linear_842_4161" x1="704.974" y1="574.557" x2="704.974" y2="72.3993" gradientUnits="userSpaceOnUse">
<stop offset="0.163" stop-color="#2F4A5A"/>
<stop offset="1" stop-color="#345467"/>
</linearGradient>
<linearGradient id="paint1_linear_842_4161" x1="-225.5" y1="471.5" x2="1846.54" y2="-150.1" gradientUnits="userSpaceOnUse">
<stop stop-color="#293E4D"/>
<stop offset="0.658654" stop-color="#325062"/>
<stop offset="1" stop-color="#375A6D"/>
</linearGradient>
</defs>
</svg>
