<svg width="402" height="470" viewBox="0 0 402 470" fill="none" xmlns="http://www.w3.org/2000/svg">
    <g id="Frame 2043683187">
        <g id="101">
            <path id="room"
                d="M349.652 17.4409L291.807 205.944C289.907 212.138 294.539 218.406 301.018 218.406H392.364C397.686 218.406 401.999 214.092 401.999 208.77V9.6356C401.999 4.31404 397.686 6.10352e-05 392.364 6.10352e-05H359.712C354.39 6.10352e-05 350.076 4.31404 350.076 9.6356V14.6141C350.076 15.5722 349.934 16.5249 349.652 17.4409Z"
                fill="#DF4E4E" />
            <path id="Vector_2"
                d="M376.227 206.192V196.3L376.872 197.004H373.859V195.7H377.711V206.192H376.227ZM384.292 206.312C383.473 206.312 382.739 206.102 382.089 205.682C381.45 205.263 380.94 204.652 380.56 203.854C380.191 203.054 380.006 202.085 380.006 200.946C380.006 199.807 380.191 198.837 380.56 198.038C380.94 197.239 381.45 196.63 382.089 196.21C382.739 195.79 383.473 195.58 384.292 195.58C385.101 195.58 385.832 195.79 386.48 196.21C387.13 196.63 387.64 197.239 388.009 198.038C388.38 198.837 388.564 199.807 388.564 200.946C388.564 202.085 388.38 203.054 388.009 203.854C387.64 204.652 387.13 205.263 386.48 205.682C385.832 206.102 385.101 206.312 384.292 206.312ZM384.292 204.978C384.842 204.978 385.322 204.828 385.731 204.528C386.151 204.228 386.476 203.779 386.705 203.179C386.945 202.58 387.065 201.835 387.065 200.946C387.065 200.056 386.945 199.312 386.705 198.713C386.476 198.113 386.151 197.664 385.731 197.364C385.322 197.064 384.842 196.914 384.292 196.914C383.743 196.914 383.258 197.064 382.838 197.364C382.419 197.664 382.089 198.113 381.849 198.713C381.62 199.312 381.504 200.056 381.504 200.946C381.504 201.835 381.62 202.58 381.849 203.179C382.089 203.779 382.419 204.228 382.838 204.528C383.258 204.828 383.743 204.978 384.292 204.978ZM391.771 206.192V196.3L392.416 197.004H389.403V195.7H393.255V206.192H391.771Z"
                fill="white" />
            <text id="label_price" fill="white" style="white-space: pre" xml:space="preserve"
                font-family="Montserrat" font-size="8" font-weight="500" letter-spacing="0em">
                <tspan x="333" y="159.018">12 838 000 &#x20bd;</tspan>
            </text>
            <path id="Vector_3"
                d="M343.916 146.997V139.932L344.376 140.435H342.225V139.503H344.976V146.997H343.916ZM349.763 147.083C349.099 147.083 348.531 146.936 348.06 146.644C347.589 146.352 347.23 145.93 346.979 145.381C346.737 144.824 346.615 144.146 346.615 143.347C346.615 142.498 346.765 141.781 347.065 141.195C347.364 140.609 347.782 140.167 348.317 139.867C348.853 139.568 349.467 139.418 350.159 139.418C350.516 139.418 350.854 139.453 351.176 139.525C351.504 139.597 351.786 139.707 352.021 139.857L351.615 140.692C351.422 140.556 351.201 140.464 350.951 140.413C350.709 140.363 350.452 140.338 350.18 140.338C349.417 140.338 348.81 140.577 348.36 141.056C347.91 141.527 347.686 142.23 347.686 143.165C347.686 143.315 347.693 143.493 347.707 143.7C347.722 143.907 347.757 144.11 347.814 144.31L347.45 143.946C347.557 143.618 347.725 143.344 347.953 143.122C348.189 142.894 348.467 142.726 348.788 142.619C349.117 142.504 349.47 142.447 349.848 142.447C350.348 142.447 350.79 142.541 351.176 142.726C351.561 142.911 351.865 143.175 352.086 143.518C352.307 143.853 352.418 144.254 352.418 144.717C352.418 145.196 352.3 145.613 352.064 145.97C351.829 146.326 351.512 146.601 351.111 146.794C350.712 146.987 350.262 147.083 349.763 147.083ZM349.72 146.216C350.048 146.216 350.334 146.155 350.576 146.034C350.827 145.913 351.023 145.745 351.165 145.531C351.308 145.309 351.379 145.052 351.379 144.76C351.379 144.318 351.226 143.968 350.919 143.711C350.613 143.446 350.195 143.315 349.666 143.315C349.324 143.315 349.024 143.379 348.767 143.507C348.51 143.636 348.307 143.81 348.157 144.032C348.014 144.246 347.943 144.492 347.943 144.771C347.943 145.028 348.011 145.266 348.146 145.488C348.282 145.702 348.482 145.877 348.745 146.013C349.01 146.148 349.334 146.216 349.72 146.216ZM354.034 147.062C353.834 147.062 353.663 146.994 353.52 146.858C353.377 146.716 353.306 146.537 353.306 146.323C353.306 146.109 353.377 145.934 353.52 145.798C353.663 145.662 353.834 145.595 354.034 145.595C354.227 145.595 354.391 145.662 354.527 145.798C354.669 145.934 354.741 146.109 354.741 146.323C354.741 146.537 354.669 146.716 354.527 146.858C354.391 146.994 354.227 147.062 354.034 147.062ZM355.74 146.997V146.269L358.791 143.325C359.062 143.068 359.262 142.844 359.39 142.651C359.526 142.451 359.615 142.269 359.658 142.105C359.708 141.934 359.733 141.77 359.733 141.612C359.733 141.227 359.597 140.924 359.326 140.702C359.055 140.481 358.659 140.371 358.138 140.371C357.738 140.371 357.378 140.438 357.056 140.574C356.735 140.702 356.457 140.906 356.221 141.184L355.493 140.553C355.779 140.189 356.16 139.91 356.639 139.718C357.124 139.517 357.656 139.418 358.234 139.418C358.755 139.418 359.208 139.503 359.594 139.675C359.979 139.839 360.276 140.078 360.482 140.392C360.696 140.706 360.803 141.077 360.803 141.505C360.803 141.748 360.771 141.987 360.707 142.223C360.643 142.458 360.522 142.708 360.343 142.972C360.164 143.237 359.907 143.532 359.572 143.861L356.853 146.484L356.596 146.066H361.124V146.997H355.74ZM365.362 146.997V141.323H366.422L368.863 145.52H368.434L370.94 141.323H371.903V146.997H370.972V142.48L371.143 142.576L368.852 146.355H368.402L366.101 142.501L366.304 142.458V146.997H365.362ZM373.4 143.497V143.015L375.38 141.281C375.637 141.045 375.808 140.86 375.894 140.724C375.98 140.581 376.023 140.446 376.023 140.317C376.023 140.132 375.937 139.974 375.766 139.846C375.594 139.71 375.324 139.643 374.952 139.643C374.695 139.643 374.46 139.685 374.245 139.771C374.039 139.849 373.868 139.967 373.732 140.124L373.207 139.718C373.393 139.489 373.635 139.314 373.935 139.193C374.242 139.064 374.599 139 375.006 139C375.584 139 376.023 139.121 376.322 139.364C376.622 139.607 376.772 139.907 376.772 140.264C376.772 140.478 376.718 140.684 376.611 140.884C376.512 141.085 376.29 141.334 375.948 141.634L374.213 143.154L374.01 142.876H376.975V143.497H373.4Z"
                fill="white" />
        </g>
        <g id="102">
            <path id="room"
                d="M392.365 220.546H294.323C289.955 220.546 286.133 223.486 285.011 227.708L278.825 250.998C278.176 253.439 278.513 256.036 279.76 258.232L356.849 393.913C357.673 395.364 358.106 397.005 358.106 398.673V459.829C358.106 465.151 362.42 469.464 367.742 469.464H392.365C397.687 469.464 402 465.151 402 459.829V230.182C402 224.86 397.687 220.546 392.365 220.546Z"
                fill="#375A6D" />
            <path id="Vector_5"
                d="M373.017 242.591V232.699L373.661 233.404H370.648V232.1H374.5V242.591H373.017ZM381.081 242.711C380.262 242.711 379.528 242.501 378.878 242.082C378.239 241.662 377.729 241.052 377.349 240.253C376.98 239.453 376.795 238.484 376.795 237.345C376.795 236.206 376.98 235.236 377.349 234.438C377.729 233.638 378.239 233.029 378.878 232.609C379.528 232.19 380.262 231.98 381.081 231.98C381.891 231.98 382.621 232.19 383.269 232.609C383.919 233.029 384.429 233.638 384.798 234.438C385.169 235.236 385.353 236.206 385.353 237.345C385.353 238.484 385.169 239.453 384.798 240.253C384.429 241.052 383.919 241.662 383.269 242.082C382.621 242.501 381.891 242.711 381.081 242.711ZM381.081 241.377C381.631 241.377 382.111 241.227 382.52 240.928C382.94 240.628 383.265 240.178 383.494 239.579C383.734 238.979 383.854 238.234 383.854 237.345C383.854 236.456 383.734 235.712 383.494 235.112C383.265 234.513 382.94 234.063 382.52 233.763C382.111 233.463 381.631 233.314 381.081 233.314C380.532 233.314 380.047 233.463 379.627 233.763C379.208 234.063 378.878 234.513 378.638 235.112C378.409 235.712 378.293 236.456 378.293 237.345C378.293 238.234 378.409 238.979 378.638 239.579C378.878 240.178 379.208 240.628 379.627 240.928C380.047 241.227 380.532 241.377 381.081 241.377ZM386.627 242.591V241.572L390.898 237.45C391.278 237.091 391.558 236.776 391.738 236.506C391.927 236.226 392.052 235.971 392.112 235.742C392.182 235.502 392.217 235.272 392.217 235.052C392.217 234.513 392.028 234.088 391.648 233.778C391.268 233.468 390.713 233.314 389.984 233.314C389.424 233.314 388.92 233.408 388.47 233.598C388.021 233.778 387.631 234.063 387.301 234.453L386.282 233.568C386.681 233.059 387.217 232.669 387.886 232.399C388.566 232.119 389.31 231.98 390.119 231.98C390.848 231.98 391.483 232.1 392.022 232.339C392.562 232.568 392.976 232.904 393.266 233.344C393.566 233.783 393.716 234.303 393.716 234.902C393.716 235.242 393.671 235.577 393.581 235.907C393.491 236.236 393.321 236.585 393.072 236.956C392.822 237.325 392.462 237.739 391.992 238.2L388.186 241.872L387.826 241.287H394.166V242.591H386.627Z"
                fill="white" />
            <text id="label_price" fill="white" style="white-space: pre" xml:space="preserve"
                font-family="Montserrat" font-size="8" font-weight="500" letter-spacing="0em">
                <tspan x="329" y="315.178">12 838 000 &#x20bd;</tspan>
            </text>
            <path id="Vector_6"
                d="M340.078 302.984V295.918L340.539 296.422H338.387V295.49H341.138V302.984H340.078ZM345.068 303.07C344.54 303.07 344.027 302.987 343.527 302.824C343.034 302.66 342.632 302.438 342.317 302.16L342.809 301.314C343.06 301.55 343.384 301.742 343.783 301.892C344.184 302.042 344.612 302.117 345.068 302.117C345.625 302.117 346.057 301.999 346.364 301.764C346.678 301.521 346.835 301.196 346.835 300.79C346.835 300.397 346.685 300.083 346.385 299.847C346.093 299.604 345.625 299.483 344.983 299.483H344.383V298.734L346.61 295.993L346.76 296.422H342.659V295.49H347.605V296.218L345.389 298.948L344.833 298.616H345.186C346.093 298.616 346.77 298.82 347.22 299.226C347.677 299.633 347.905 300.15 347.905 300.779C347.905 301.2 347.802 301.585 347.595 301.935C347.388 302.285 347.074 302.563 346.653 302.77C346.239 302.97 345.711 303.07 345.068 303.07ZM349.611 303.048C349.41 303.048 349.239 302.981 349.097 302.845C348.953 302.703 348.883 302.524 348.883 302.31C348.883 302.096 348.953 301.921 349.097 301.785C349.239 301.649 349.41 301.582 349.611 301.582C349.803 301.582 349.967 301.649 350.103 301.785C350.245 301.921 350.317 302.096 350.317 302.31C350.317 302.524 350.245 302.703 350.103 302.845C349.967 302.981 349.803 303.048 349.611 303.048ZM353.748 303.07C353.221 303.07 352.707 302.987 352.207 302.824C351.714 302.66 351.312 302.438 350.997 302.16L351.489 301.314C351.74 301.55 352.064 301.742 352.464 301.892C352.864 302.042 353.288 302.117 353.738 302.117C354.309 302.117 354.748 301.996 355.054 301.753C355.362 301.51 355.515 301.186 355.515 300.779C355.515 300.5 355.447 300.257 355.311 300.051C355.177 299.844 354.941 299.687 354.605 299.58C354.277 299.465 353.823 299.408 353.245 299.408H351.543L351.939 295.49H356.168V296.422H352.335L352.892 295.897L352.581 298.991L352.025 298.477H353.47C354.219 298.477 354.823 298.573 355.279 298.766C355.736 298.959 356.068 299.226 356.275 299.569C356.483 299.904 356.585 300.294 356.585 300.736C356.585 301.164 356.483 301.557 356.275 301.914C356.068 302.264 355.755 302.545 355.333 302.759C354.92 302.966 354.391 303.07 353.748 303.07ZM360.833 302.984V297.31H361.893L364.334 301.507H363.906L366.411 297.31H367.375V302.984H366.443V298.466L366.615 298.563L364.324 302.342H363.874L361.572 298.488L361.776 298.445V302.984H360.833ZM368.872 299.483V299.002L370.853 297.267C371.11 297.032 371.281 296.847 371.367 296.711C371.452 296.568 371.495 296.432 371.495 296.304C371.495 296.119 371.41 295.961 371.238 295.833C371.067 295.697 370.795 295.629 370.425 295.629C370.168 295.629 369.932 295.672 369.718 295.758C369.51 295.836 369.339 295.954 369.204 296.111L368.68 295.704C368.865 295.476 369.108 295.301 369.408 295.18C369.714 295.051 370.071 294.987 370.478 294.987C371.056 294.987 371.495 295.108 371.795 295.351C372.095 295.594 372.245 295.894 372.245 296.25C372.245 296.464 372.191 296.671 372.084 296.871C371.983 297.071 371.763 297.321 371.42 297.621L369.686 299.141L369.483 298.862H372.448V299.483H368.872Z"
                fill="white" />
        </g>
        <g id="103">
            <path id="room"
                d="M93.6758 374.716V460.365C93.6758 465.687 97.9895 470.001 103.311 470.001H321.047C328.472 470.001 333.106 461.958 329.385 455.535L240.987 302.972C239.264 299.998 236.088 298.167 232.65 298.167H173.969C168.647 298.167 164.334 302.481 164.334 307.803V335.639C164.334 340.961 160.02 345.274 154.698 345.274H138.105C132.783 345.274 128.469 349.588 128.469 354.91V355.445C128.469 360.767 124.156 365.08 118.834 365.08H103.311C97.9895 365.08 93.6758 369.394 93.6758 374.716Z"
                fill="#375A6D" />
            <path id="Vector_8"
                d="M106.443 459.927V450.035L107.087 450.739H104.074V449.435H107.927V459.927H106.443ZM114.507 460.047C113.688 460.047 112.954 459.837 112.304 459.417C111.665 458.998 111.155 458.387 110.775 457.589C110.406 456.789 110.221 455.82 110.221 454.681C110.221 453.542 110.406 452.572 110.775 451.773C111.155 450.974 111.665 450.365 112.304 449.945C112.954 449.525 113.688 449.315 114.507 449.315C115.317 449.315 116.047 449.525 116.696 449.945C117.345 450.365 117.855 450.974 118.224 451.773C118.595 452.572 118.779 453.542 118.779 454.681C118.779 455.82 118.595 456.789 118.224 457.589C117.855 458.387 117.345 458.998 116.696 459.417C116.047 459.837 115.317 460.047 114.507 460.047ZM114.507 458.713C115.058 458.713 115.537 458.563 115.946 458.263C116.366 457.964 116.691 457.514 116.92 456.914C117.16 456.315 117.28 455.57 117.28 454.681C117.28 453.792 117.16 453.047 116.92 452.448C116.691 451.848 116.366 451.399 115.946 451.099C115.537 450.799 115.058 450.649 114.507 450.649C113.958 450.649 113.473 450.799 113.054 451.099C112.634 451.399 112.304 451.848 112.064 452.448C111.835 453.047 111.72 453.792 111.72 454.681C111.72 455.57 111.835 456.315 112.064 456.914C112.304 457.514 112.634 457.964 113.054 458.263C113.473 458.563 113.958 458.713 114.507 458.713ZM123.279 460.047C122.54 460.047 121.82 459.931 121.12 459.702C120.431 459.472 119.867 459.163 119.427 458.773L120.116 457.589C120.466 457.919 120.921 458.188 121.48 458.398C122.04 458.608 122.639 458.713 123.279 458.713C124.058 458.713 124.663 458.548 125.092 458.218C125.532 457.878 125.752 457.424 125.752 456.854C125.752 456.304 125.542 455.865 125.122 455.535C124.713 455.195 124.058 455.026 123.159 455.026H122.319V453.977L125.437 450.14L125.647 450.739H119.906V449.435H126.831V450.455L123.728 454.276L122.949 453.812H123.443C124.713 453.812 125.662 454.097 126.291 454.666C126.931 455.236 127.25 455.959 127.25 456.839C127.25 457.428 127.106 457.968 126.816 458.458C126.527 458.947 126.087 459.337 125.497 459.627C124.918 459.907 124.178 460.047 123.279 460.047Z"
                fill="white" />
            <text id="label_price" fill="white" style="white-space: pre" xml:space="preserve"
                font-family="Montserrat" font-size="8" font-weight="500" letter-spacing="0em">
                <tspan x="179" y="414.178">12 838 000 &#x20bd;</tspan>
            </text>
            <path id="Vector_9"
                d="M186.676 403.623V402.895L189.727 399.95C189.998 399.694 190.198 399.469 190.327 399.276C190.463 399.076 190.551 398.894 190.594 398.73C190.645 398.559 190.669 398.395 190.669 398.238C190.669 397.852 190.533 397.549 190.262 397.328C189.991 397.106 189.595 396.996 189.074 396.996C188.675 396.996 188.314 397.063 187.993 397.199C187.672 397.328 187.393 397.531 187.158 397.809L186.43 397.178C186.716 396.814 187.097 396.535 187.575 396.343C188.06 396.142 188.592 396.043 189.17 396.043C189.692 396.043 190.145 396.129 190.53 396.3C190.915 396.464 191.212 396.703 191.419 397.017C191.633 397.331 191.74 397.702 191.74 398.131C191.74 398.374 191.708 398.612 191.643 398.848C191.579 399.083 191.458 399.333 191.279 399.597C191.101 399.862 190.844 400.157 190.509 400.486L187.789 403.109L187.532 402.691H192.061V403.623H186.676ZM195.992 403.708C195.408 403.708 194.883 403.558 194.418 403.259C193.962 402.959 193.598 402.523 193.326 401.952C193.063 401.382 192.93 400.689 192.93 399.876C192.93 399.062 193.063 398.369 193.326 397.799C193.598 397.228 193.962 396.792 194.418 396.493C194.883 396.193 195.408 396.043 195.992 396.043C196.57 396.043 197.092 396.193 197.555 396.493C198.02 396.792 198.384 397.228 198.647 397.799C198.912 398.369 199.043 399.062 199.043 399.876C199.043 400.689 198.912 401.382 198.647 401.952C198.384 402.523 198.02 402.959 197.555 403.259C197.092 403.558 196.57 403.708 195.992 403.708ZM195.992 402.755C196.385 402.755 196.728 402.648 197.02 402.434C197.32 402.22 197.552 401.899 197.716 401.471C197.887 401.042 197.973 400.51 197.973 399.876C197.973 399.241 197.887 398.709 197.716 398.28C197.552 397.852 197.32 397.531 197.02 397.317C196.728 397.103 196.385 396.996 195.992 396.996C195.6 396.996 195.253 397.103 194.954 397.317C194.654 397.531 194.418 397.852 194.247 398.28C194.083 398.709 194.001 399.241 194.001 399.876C194.001 400.51 194.083 401.042 194.247 401.471C194.418 401.899 194.654 402.22 194.954 402.434C195.253 402.648 195.6 402.755 195.992 402.755ZM200.652 403.687C200.452 403.687 200.281 403.619 200.138 403.483C199.996 403.341 199.924 403.162 199.924 402.948C199.924 402.734 199.996 402.559 200.138 402.424C200.281 402.288 200.452 402.22 200.652 402.22C200.845 402.22 201.009 402.288 201.145 402.424C201.287 402.559 201.359 402.734 201.359 402.948C201.359 403.162 201.287 403.341 201.145 403.483C201.009 403.619 200.845 403.687 200.652 403.687ZM202.17 401.781V401.032L206.003 396.129H207.159L203.359 401.032L202.813 400.86H208.797V401.781H202.17ZM206.335 403.623V401.781L206.367 400.86V399.233H207.373V403.623H206.335ZM212.796 403.623V397.949H213.856L216.297 402.145H215.868L218.373 397.949H219.337V403.623H218.406V399.105L218.577 399.201L216.286 402.98H215.836L213.534 399.126L213.738 399.083V403.623H212.796ZM220.834 400.122V399.64L222.814 397.906C223.071 397.67 223.242 397.485 223.328 397.349C223.414 397.207 223.457 397.071 223.457 396.942C223.457 396.757 223.371 396.6 223.2 396.471C223.028 396.335 222.757 396.268 222.386 396.268C222.129 396.268 221.893 396.311 221.679 396.396C221.473 396.474 221.301 396.592 221.166 396.749L220.641 396.343C220.827 396.115 221.069 395.939 221.369 395.818C221.676 395.69 222.033 395.625 222.439 395.625C223.018 395.625 223.457 395.746 223.756 395.989C224.056 396.232 224.206 396.532 224.206 396.889C224.206 397.103 224.152 397.309 224.045 397.51C223.946 397.71 223.724 397.959 223.382 398.259L221.647 399.779L221.444 399.501H224.409V400.122H220.834Z"
                fill="white" />
        </g>
        <g id="106">
            <path id="room"
                d="M152.022 6.10352e-05H79.223C73.9017 6.10352e-05 69.5879 4.31404 69.5879 9.6356V108.667C69.5879 113.99 73.9017 118.303 79.223 118.303H84.0406C89.362 118.303 93.6758 122.617 93.6758 127.939V235C93.6758 240.322 97.9896 244.636 103.311 244.636H152.022C157.344 244.636 161.657 240.322 161.657 235V9.6356C161.657 4.31404 157.344 6.10352e-05 152.022 6.10352e-05Z"
                fill="#DF4E4E" />
            <path id="Vector_11"
                d="M105.368 232.957V223.065L106.013 223.769H103V222.465H106.852V232.957H105.368ZM113.433 233.077C112.614 233.077 111.88 232.867 111.23 232.447C110.591 232.028 110.081 231.417 109.701 230.619C109.332 229.819 109.147 228.85 109.147 227.711C109.147 226.572 109.332 225.602 109.701 224.803C110.081 224.004 110.591 223.395 111.23 222.975C111.88 222.555 112.614 222.345 113.433 222.345C114.243 222.345 114.973 222.555 115.621 222.975C116.271 223.395 116.781 224.004 117.15 224.803C117.521 225.602 117.705 226.572 117.705 227.711C117.705 228.85 117.521 229.819 117.15 230.619C116.781 231.417 116.271 232.028 115.621 232.447C114.973 232.867 114.243 233.077 113.433 233.077ZM113.433 231.743C113.983 231.743 114.463 231.593 114.872 231.293C115.292 230.993 115.617 230.544 115.846 229.944C116.086 229.345 116.206 228.6 116.206 227.711C116.206 226.821 116.086 226.077 115.846 225.478C115.617 224.878 115.292 224.429 114.872 224.129C114.463 223.829 113.983 223.679 113.433 223.679C112.884 223.679 112.399 223.829 111.979 224.129C111.56 224.429 111.23 224.878 110.99 225.478C110.761 226.077 110.645 226.821 110.645 227.711C110.645 228.6 110.761 229.345 110.99 229.944C111.23 230.544 111.56 230.993 111.979 231.293C112.399 231.593 112.884 231.743 113.433 231.743ZM123.55 233.077C122.621 233.077 121.826 232.871 121.167 232.462C120.508 232.052 120.003 231.462 119.653 230.694C119.314 229.914 119.144 228.965 119.144 227.846C119.144 226.657 119.353 225.652 119.773 224.833C120.193 224.013 120.777 223.395 121.527 222.975C122.276 222.555 123.136 222.345 124.105 222.345C124.605 222.345 125.079 222.395 125.529 222.495C125.988 222.595 126.383 222.75 126.713 222.96L126.143 224.129C125.873 223.938 125.564 223.809 125.214 223.739C124.874 223.669 124.515 223.634 124.135 223.634C123.065 223.634 122.216 223.968 121.587 224.639C120.957 225.298 120.642 226.282 120.642 227.591C120.642 227.801 120.652 228.05 120.672 228.341C120.693 228.63 120.742 228.914 120.822 229.195L120.313 228.685C120.463 228.225 120.697 227.841 121.017 227.531C121.347 227.211 121.737 226.977 122.186 226.827C122.645 226.666 123.14 226.587 123.67 226.587C124.369 226.587 124.989 226.717 125.529 226.977C126.068 227.236 126.493 227.606 126.802 228.086C127.112 228.555 127.267 229.115 127.267 229.764C127.267 230.434 127.102 231.018 126.773 231.518C126.443 232.017 125.998 232.402 125.439 232.672C124.879 232.942 124.249 233.077 123.55 233.077ZM123.49 231.863C123.949 231.863 124.35 231.777 124.689 231.608C125.039 231.438 125.313 231.203 125.514 230.904C125.714 230.593 125.813 230.233 125.813 229.824C125.813 229.205 125.598 228.715 125.169 228.356C124.739 227.985 124.155 227.801 123.415 227.801C122.936 227.801 122.516 227.891 122.156 228.071C121.796 228.251 121.512 228.495 121.302 228.805C121.102 229.105 121.002 229.45 121.002 229.839C121.002 230.199 121.097 230.533 121.287 230.844C121.476 231.143 121.757 231.387 122.126 231.578C122.496 231.768 122.951 231.863 123.49 231.863Z"
                fill="white" />
            <path id="Vector_12"
                d="M112.047 169.158V162.092L112.507 162.595H110.355V161.664H113.107V169.158H112.047ZM114.639 167.317V166.567L118.471 161.664H119.628L115.827 166.567L115.281 166.396H121.266V167.317H114.639ZM118.803 169.158V167.317L118.835 166.396V164.769H119.842V169.158H118.803ZM122.823 169.222C122.623 169.222 122.452 169.155 122.309 169.019C122.167 168.876 122.095 168.698 122.095 168.483C122.095 168.269 122.167 168.095 122.309 167.959C122.452 167.823 122.623 167.755 122.823 167.755C123.016 167.755 123.18 167.823 123.316 167.959C123.458 168.095 123.53 168.269 123.53 168.483C123.53 168.698 123.458 168.876 123.316 169.019C123.18 169.155 123.016 169.222 122.823 169.222ZM127.564 169.244C126.9 169.244 126.333 169.097 125.862 168.805C125.391 168.512 125.031 168.091 124.78 167.541C124.538 166.985 124.416 166.307 124.416 165.507C124.416 164.658 124.566 163.941 124.866 163.355C125.166 162.77 125.583 162.328 126.119 162.028C126.654 161.728 127.268 161.578 127.96 161.578C128.318 161.578 128.656 161.614 128.977 161.685C129.306 161.757 129.587 161.867 129.823 162.017L129.416 162.852C129.223 162.716 129.003 162.624 128.752 162.574C128.51 162.524 128.253 162.499 127.981 162.499C127.218 162.499 126.611 162.738 126.161 163.216C125.712 163.687 125.487 164.391 125.487 165.325C125.487 165.475 125.494 165.654 125.508 165.861C125.523 166.067 125.559 166.271 125.615 166.471L125.251 166.107C125.358 165.778 125.527 165.504 125.755 165.282C125.99 165.054 126.268 164.886 126.59 164.779C126.918 164.665 127.272 164.608 127.65 164.608C128.149 164.608 128.592 164.701 128.977 164.886C129.362 165.072 129.666 165.336 129.887 165.679C130.109 166.014 130.219 166.414 130.219 166.878C130.219 167.356 130.101 167.774 129.866 168.13C129.63 168.487 129.313 168.762 128.913 168.954C128.513 169.147 128.064 169.244 127.564 169.244ZM127.521 168.376C127.85 168.376 128.136 168.315 128.377 168.194C128.628 168.073 128.824 167.905 128.966 167.691C129.11 167.47 129.18 167.213 129.18 166.92C129.18 166.478 129.027 166.128 128.72 165.871C128.414 165.607 127.996 165.475 127.468 165.475C127.125 165.475 126.825 165.539 126.568 165.668C126.311 165.796 126.108 165.971 125.958 166.192C125.816 166.407 125.744 166.653 125.744 166.931C125.744 167.188 125.812 167.427 125.947 167.648C126.083 167.862 126.283 168.037 126.547 168.173C126.811 168.309 127.136 168.376 127.521 168.376ZM134.381 169.158V163.484H135.441L137.882 167.68H137.454L139.959 163.484H140.922V169.158H139.991V164.64L140.162 164.736L137.871 168.516H137.422L135.12 164.661L135.323 164.619V169.158H134.381ZM142.419 165.657V165.175L144.4 163.441C144.657 163.206 144.828 163.02 144.914 162.884C144.999 162.742 145.042 162.606 145.042 162.478C145.042 162.292 144.956 162.135 144.785 162.006C144.614 161.871 144.343 161.803 143.971 161.803C143.715 161.803 143.479 161.846 143.265 161.932C143.058 162.01 142.887 162.127 142.751 162.285L142.226 161.878C142.413 161.65 142.655 161.474 142.954 161.353C143.262 161.225 143.618 161.161 144.025 161.161C144.603 161.161 145.042 161.282 145.342 161.525C145.642 161.768 145.791 162.067 145.791 162.424C145.791 162.638 145.738 162.845 145.631 163.045C145.531 163.245 145.31 163.495 144.967 163.794L143.233 165.315L143.029 165.036H145.995V165.657H142.419Z"
                fill="white" />
            <text id="label_price" fill="white" style="white-space: pre" xml:space="preserve"
                font-family="Montserrat" font-size="8" font-weight="500" letter-spacing="0em">
                <tspan x="102" y="181.178">12 838 000 &#x20bd;</tspan>
            </text>
        </g>
        <g id="107">
            <path id="room"
                d="M278.839 6.10352e-05H175.039C169.718 6.10352e-05 165.404 4.31403 165.404 9.6356V235C165.404 240.322 169.718 244.636 175.039 244.636H212.268C216.538 244.636 220.298 241.825 221.508 237.73L288.079 12.3653C289.903 6.19159 285.276 6.10352e-05 278.839 6.10352e-05Z"
                fill="#DF4E4E" />
            <path id="Vector_14"
                d="M176.028 232.957V223.065L176.673 223.769H173.66V222.465H177.512V232.957H176.028ZM184.093 233.077C183.274 233.077 182.539 232.867 181.89 232.447C181.251 232.028 180.741 231.417 180.361 230.619C179.992 229.819 179.806 228.85 179.806 227.711C179.806 226.572 179.992 225.602 180.361 224.803C180.741 224.004 181.251 223.395 181.89 222.975C182.539 222.555 183.274 222.345 184.093 222.345C184.902 222.345 185.632 222.555 186.281 222.975C186.931 223.395 187.441 224.004 187.81 224.803C188.18 225.602 188.364 226.572 188.364 227.711C188.364 228.85 188.18 229.819 187.81 230.619C187.441 231.417 186.931 232.028 186.281 232.447C185.632 232.867 184.902 233.077 184.093 233.077ZM184.093 231.743C184.643 231.743 185.123 231.593 185.532 231.293C185.951 230.993 186.277 230.544 186.506 229.944C186.746 229.345 186.866 228.6 186.866 227.711C186.866 226.821 186.746 226.077 186.506 225.478C186.277 224.878 185.951 224.429 185.532 224.129C185.123 223.829 184.643 223.679 184.093 223.679C183.544 223.679 183.059 223.829 182.639 224.129C182.219 224.429 181.89 224.878 181.65 225.478C181.421 226.077 181.305 226.821 181.305 227.711C181.305 228.6 181.421 229.345 181.65 229.944C181.89 230.544 182.219 230.993 182.639 231.293C183.059 231.593 183.544 231.743 184.093 231.743ZM191.514 232.957L195.966 223.095L196.355 223.769H190.12L190.87 223.035V225.643H189.431V222.465H197.344V223.484L193.103 232.957H191.514Z"
                fill="white" />
            <text id="label_price" fill="white" style="white-space: pre" xml:space="preserve"
                font-family="Montserrat" font-size="8" font-weight="500" letter-spacing="0em">
                <tspan x="175" y="181.178">12 838 000 &#x20bd;</tspan>
            </text>
            <path id="Vector_15"
                d="M185.916 169.158V162.092L186.376 162.595H184.225V161.664H186.976V169.158H185.916ZM191.763 169.244C191.099 169.244 190.531 169.097 190.06 168.805C189.589 168.512 189.23 168.091 188.979 167.541C188.737 166.985 188.615 166.307 188.615 165.507C188.615 164.658 188.765 163.941 189.065 163.355C189.364 162.77 189.782 162.328 190.317 162.028C190.853 161.728 191.467 161.578 192.159 161.578C192.516 161.578 192.854 161.614 193.176 161.685C193.504 161.757 193.786 161.867 194.021 162.017L193.615 162.852C193.422 162.716 193.201 162.624 192.951 162.574C192.709 162.524 192.452 162.499 192.18 162.499C191.417 162.499 190.81 162.738 190.36 163.216C189.91 163.687 189.686 164.391 189.686 165.325C189.686 165.475 189.693 165.654 189.707 165.861C189.722 166.067 189.757 166.271 189.814 166.471L189.45 166.107C189.557 165.778 189.725 165.504 189.953 165.282C190.189 165.054 190.467 164.886 190.788 164.779C191.117 164.665 191.47 164.608 191.848 164.608C192.348 164.608 192.79 164.701 193.176 164.886C193.561 165.072 193.865 165.336 194.086 165.679C194.307 166.014 194.418 166.414 194.418 166.878C194.418 167.356 194.3 167.774 194.064 168.13C193.829 168.487 193.512 168.762 193.111 168.954C192.712 169.147 192.262 169.244 191.763 169.244ZM191.72 168.376C192.048 168.376 192.334 168.315 192.576 168.194C192.827 168.073 193.023 167.905 193.165 167.691C193.308 167.47 193.379 167.213 193.379 166.92C193.379 166.478 193.226 166.128 192.919 165.871C192.613 165.607 192.195 165.475 191.666 165.475C191.324 165.475 191.024 165.539 190.767 165.668C190.51 165.796 190.307 165.971 190.157 166.192C190.014 166.407 189.943 166.653 189.943 166.931C189.943 167.188 190.011 167.427 190.146 167.648C190.282 167.862 190.482 168.037 190.745 168.173C191.01 168.309 191.334 168.376 191.72 168.376ZM196.034 169.222C195.834 169.222 195.663 169.155 195.52 169.019C195.377 168.876 195.306 168.698 195.306 168.483C195.306 168.269 195.377 168.095 195.52 167.959C195.663 167.823 195.834 167.755 196.034 167.755C196.227 167.755 196.391 167.823 196.527 167.959C196.669 168.095 196.741 168.269 196.741 168.483C196.741 168.698 196.669 168.876 196.527 169.019C196.391 169.155 196.227 169.222 196.034 169.222ZM197.74 169.158V168.43L200.791 165.486C201.062 165.229 201.262 165.004 201.39 164.811C201.526 164.611 201.615 164.429 201.658 164.265C201.708 164.094 201.733 163.93 201.733 163.773C201.733 163.388 201.597 163.085 201.326 162.863C201.055 162.641 200.659 162.531 200.138 162.531C199.738 162.531 199.378 162.598 199.056 162.734C198.735 162.863 198.457 163.066 198.221 163.345L197.493 162.713C197.779 162.349 198.16 162.071 198.639 161.878C199.124 161.678 199.656 161.578 200.234 161.578C200.755 161.578 201.208 161.664 201.594 161.835C201.979 161.999 202.276 162.239 202.482 162.552C202.696 162.866 202.803 163.238 202.803 163.666C202.803 163.909 202.771 164.148 202.707 164.383C202.643 164.619 202.522 164.868 202.343 165.133C202.164 165.397 201.907 165.692 201.572 166.021L198.853 168.644L198.596 168.226H203.124V169.158H197.74ZM207.362 169.158V163.484H208.422L210.863 167.68H210.434L212.94 163.484H213.903V169.158H212.972V164.64L213.143 164.736L210.852 168.516H210.402L208.101 164.661L208.304 164.619V169.158H207.362ZM215.4 165.657V165.175L217.38 163.441C217.637 163.206 217.808 163.02 217.894 162.884C217.98 162.742 218.023 162.606 218.023 162.478C218.023 162.292 217.937 162.135 217.766 162.006C217.594 161.871 217.324 161.803 216.952 161.803C216.695 161.803 216.46 161.846 216.245 161.932C216.039 162.01 215.868 162.127 215.732 162.285L215.207 161.878C215.393 161.65 215.635 161.474 215.935 161.353C216.242 161.225 216.599 161.161 217.006 161.161C217.584 161.161 218.023 161.282 218.322 161.525C218.622 161.768 218.772 162.067 218.772 162.424C218.772 162.638 218.718 162.845 218.611 163.045C218.512 163.245 218.29 163.495 217.948 163.794L216.213 165.315L216.01 165.036H218.975V165.657H215.4Z"
                fill="white" />
        </g>
        <g id="105">
            <path id="room"
                d="M55.1345 0H9.63516C4.31381 0 0 4.31398 0 9.63554V283.178C0 288.5 4.31381 292.813 9.63516 292.813H80.293C85.6144 292.813 89.9281 288.5 89.9281 283.178V132.221C89.9281 126.899 85.6144 122.585 80.293 122.585H74.4048C69.0834 122.585 64.7697 118.272 64.7697 112.95V9.63554C64.7697 4.31398 60.4559 0 55.1345 0Z"
                fill="#DF4E4E" />
            <text id="number_area" fill="white" style="white-space: pre" xml:space="preserve" font-family="Montserrat"
                font-size="16" font-weight="500" letter-spacing="0em">
                <tspan x="7" y="284.236">105</tspan>
            </text>
            <text id="label_area" fill="white" style="white-space: pre" xml:space="preserve" font-family="Montserrat"
                font-size="12" font-weight="500" letter-spacing="0em">
                <tspan x="25.377" y="170.802">13.6 &#x43c;&#xb2;</tspan>
            </text>
            <text id="label_price" fill="white" style="white-space: pre" xml:space="preserve" font-family="Montserrat"
                font-size="8" font-weight="500" letter-spacing="0em">
                <tspan x="19" y="181.178">2 838 000 &#x20bd;</tspan>
            </text>
        </g>
        <g id="104">
            <path id="room"
                d="M116.733 297.632H9.5945C4.29561 297.632 0 301.946 0 307.268V460.366C0 465.688 4.29561 470.001 9.5945 470.001H81.5533C86.8522 470.001 91.1478 465.688 91.1478 460.366V371.505C91.1478 366.182 95.4433 361.869 100.742 361.869H116.733C122.032 361.869 126.328 357.555 126.328 352.233V307.268C126.328 301.946 122.032 297.632 116.733 297.632Z"
                fill="#263E4B" />
            <path id="Vector_17"
                d="M10.0908 459.927V450.035L10.7353 450.739H7.72266V449.435H11.5746V459.927H10.0908ZM18.1561 460.047C17.3368 460.047 16.6024 459.837 15.9528 459.417C15.3134 458.998 14.8038 458.387 14.4241 457.589C14.0544 456.789 13.8695 455.82 13.8695 454.681C13.8695 453.542 14.0544 452.572 14.4241 451.773C14.8038 450.974 15.3134 450.365 15.9528 449.945C16.6024 449.525 17.3368 449.315 18.1561 449.315C18.9654 449.315 19.6948 449.525 20.3443 449.945C20.9938 450.365 21.5034 450.974 21.8731 451.773C22.2428 452.572 22.4277 453.542 22.4277 454.681C22.4277 455.82 22.2428 456.789 21.8731 457.589C21.5034 458.387 20.9938 458.998 20.3443 459.417C19.6948 459.837 18.9654 460.047 18.1561 460.047ZM18.1561 458.713C18.7056 458.713 19.1852 458.563 19.5949 458.263C20.0146 457.964 20.3393 457.514 20.5691 456.914C20.809 456.315 20.9289 455.57 20.9289 454.681C20.9289 453.792 20.809 453.047 20.5691 452.448C20.3393 451.848 20.0146 451.399 19.5949 451.099C19.1852 450.799 18.7056 450.649 18.1561 450.649C17.6066 450.649 17.1219 450.799 16.7022 451.099C16.2826 451.399 15.9528 451.848 15.713 452.448C15.4832 453.047 15.3683 453.792 15.3683 454.681C15.3683 455.57 15.4832 456.315 15.713 456.914C15.9528 457.514 16.2826 457.964 16.7022 458.263C17.1219 458.563 17.6066 458.713 18.1561 458.713ZM23.7165 457.349V456.3L29.0822 449.435H30.7009L25.3802 456.3L24.6158 456.06H32.9941V457.349H23.7165ZM29.5469 459.927V457.349L29.5918 456.06V453.782H31.0007V459.927H29.5469Z"
                fill="white" />
            <text id="label_price" fill="white" style="white-space: pre" xml:space="preserve"
                font-family="Montserrat" font-size="8" font-weight="500" letter-spacing="0em">
                <tspan x="15" y="415.178">12 838 000 &#x20bd;</tspan>
            </text>
            <path id="hit_2"
                d="M27.4728 403.623V396.557L27.9331 397.06H25.7812V396.129H28.5326V403.623H27.4728ZM30.0541 403.623V402.895L33.1053 399.95C33.3764 399.694 33.5763 399.469 33.7048 399.276C33.8403 399.076 33.9296 398.894 33.9724 398.73C34.0223 398.559 34.0474 398.395 34.0474 398.238C34.0474 397.852 33.9117 397.549 33.6405 397.328C33.3693 397.106 32.9731 396.996 32.4522 396.996C32.0525 396.996 31.6921 397.063 31.3709 397.199C31.0498 397.328 30.7714 397.531 30.5359 397.809L29.8079 397.178C30.0933 396.814 30.4752 396.535 30.9534 396.343C31.4387 396.142 31.9704 396.043 32.5486 396.043C33.0695 396.043 33.5228 396.129 33.9082 396.3C34.2936 396.464 34.5897 396.703 34.7968 397.017C35.0109 397.331 35.1179 397.702 35.1179 398.131C35.1179 398.374 35.0858 398.612 35.0216 398.848C34.9573 399.083 34.8359 399.333 34.6576 399.597C34.4791 399.862 34.2222 400.157 33.8868 400.486L31.1675 403.109L30.9106 402.691H35.4391V403.623H30.0541ZM37.1304 403.687C36.9305 403.687 36.7592 403.619 36.6165 403.483C36.4738 403.341 36.4024 403.162 36.4024 402.948C36.4024 402.734 36.4738 402.559 36.6165 402.424C36.7592 402.288 36.9305 402.22 37.1304 402.22C37.3231 402.22 37.4872 402.288 37.6229 402.424C37.7656 402.559 37.837 402.734 37.837 402.948C37.837 403.162 37.7656 403.341 37.6229 403.483C37.4872 403.619 37.3231 403.687 37.1304 403.687ZM41.8766 403.708C41.2699 403.708 40.7453 403.619 40.3028 403.441C39.8604 403.262 39.5178 403.009 39.2751 402.68C39.0324 402.345 38.9111 401.952 38.9111 401.503C38.9111 401.061 39.0253 400.686 39.2537 400.379C39.4892 400.065 39.8282 399.83 40.2707 399.672C40.7132 399.508 41.2485 399.426 41.8766 399.426C42.5047 399.426 43.04 399.508 43.4824 399.672C43.9321 399.83 44.2746 400.065 44.5102 400.379C44.7457 400.692 44.8635 401.067 44.8635 401.503C44.8635 401.952 44.7422 402.345 44.4995 402.68C44.2568 403.009 43.9107 403.262 43.461 403.441C43.0114 403.619 42.4833 403.708 41.8766 403.708ZM41.8766 402.841C42.4761 402.841 42.9436 402.72 43.279 402.477C43.6216 402.228 43.7929 401.891 43.7929 401.471C43.7929 401.056 43.6216 400.732 43.279 400.496C42.9436 400.253 42.4761 400.132 41.8766 400.132C41.2842 400.132 40.8202 400.253 40.4848 400.496C40.1494 400.732 39.9817 401.056 39.9817 401.471C39.9817 401.891 40.1494 402.228 40.4848 402.477C40.8202 402.72 41.2842 402.841 41.8766 402.841ZM41.8766 400.004C41.3056 400.004 40.8202 399.929 40.4206 399.779C40.0209 399.622 39.714 399.401 39.4999 399.115C39.2858 398.823 39.1787 398.476 39.1787 398.077C39.1787 397.656 39.2893 397.295 39.5106 396.996C39.739 396.688 40.0566 396.453 40.4634 396.289C40.8702 396.125 41.3413 396.043 41.8766 396.043C42.419 396.043 42.8936 396.125 43.3004 396.289C43.7072 396.453 44.0249 396.688 44.2532 396.996C44.4816 397.295 44.5958 397.656 44.5958 398.077C44.5958 398.476 44.4888 398.823 44.2747 399.115C44.0605 399.401 43.7501 399.622 43.3433 399.779C42.9364 399.929 42.4475 400.004 41.8766 400.004ZM41.8766 399.319C42.3976 399.319 42.8044 399.212 43.097 398.998C43.3968 398.784 43.5467 398.491 43.5467 398.12C43.5467 397.742 43.3932 397.445 43.0863 397.231C42.7794 397.017 42.3762 396.91 41.8766 396.91C41.3769 396.91 40.9773 397.017 40.6775 397.231C40.3849 397.445 40.2386 397.742 40.2386 398.12C40.2386 398.491 40.3813 398.784 40.6668 398.998C40.9594 399.212 41.3627 399.319 41.8766 399.319ZM49.2005 403.623V397.949H50.2603L52.7012 402.145H52.273L54.7782 397.949H55.7417V403.623H54.8103V399.105L54.9816 399.201L52.6905 402.98H52.2409L49.9392 399.126L50.1426 399.083V403.623H49.2005ZM57.2389 400.122V399.64L59.2194 397.906C59.4764 397.67 59.6477 397.485 59.7333 397.349C59.8189 397.207 59.8618 397.071 59.8618 396.942C59.8618 396.757 59.7761 396.6 59.6048 396.471C59.4335 396.335 59.1624 396.268 58.7912 396.268C58.5343 396.268 58.2987 396.311 58.0846 396.396C57.8777 396.474 57.7064 396.592 57.5707 396.749L57.0462 396.343C57.2317 396.115 57.4744 395.939 57.7742 395.818C58.0811 395.69 58.4379 395.625 58.8447 395.625C59.4228 395.625 59.8618 395.746 60.1615 395.989C60.4613 396.232 60.6112 396.532 60.6112 396.889C60.6112 397.103 60.5576 397.309 60.4506 397.51C60.3507 397.71 60.1294 397.959 59.7868 398.259L58.0525 399.779L57.8491 399.501H60.8146V400.122H57.2389Z"
                fill="white" />
        </g>
        <path id="Vector_18"
            d="M149.882 298.702H140.246C134.925 298.702 130.611 303.016 130.611 308.337V332.962C130.611 338.283 134.925 342.597 140.246 342.597H149.882C155.203 342.597 159.517 338.283 159.517 332.962V308.337C159.517 303.016 155.203 298.702 149.882 298.702Z"
            fill="#FACA3E" />
        <path id="Vector_19"
            d="M140.076 319.044L136.568 308.552H138.112L141.335 318.235H140.555L143.898 308.552H145.276L148.544 318.235H147.794L151.062 308.552H152.486L148.978 319.044H147.405L144.347 310.066H144.752L141.679 319.044H140.076ZM145.376 334.153C144.577 334.153 143.838 334.023 143.158 333.763C142.489 333.493 141.904 333.118 141.404 332.639C140.915 332.15 140.531 331.58 140.25 330.93C139.971 330.28 139.83 329.566 139.83 328.787C139.83 328.007 139.971 327.293 140.25 326.643C140.531 325.993 140.92 325.429 141.419 324.95C141.919 324.46 142.504 324.086 143.173 323.826C143.853 323.556 144.592 323.421 145.391 323.421C146.2 323.421 146.945 323.561 147.624 323.841C148.314 324.11 148.898 324.515 149.378 325.055L148.404 325.999C148.004 325.579 147.555 325.27 147.055 325.07C146.556 324.86 146.02 324.755 145.451 324.755C144.862 324.755 144.312 324.854 143.802 325.055C143.303 325.255 142.869 325.534 142.498 325.894C142.129 326.254 141.839 326.683 141.629 327.183C141.43 327.672 141.329 328.208 141.329 328.787C141.329 329.366 141.43 329.906 141.629 330.406C141.839 330.895 142.129 331.32 142.498 331.68C142.869 332.039 143.303 332.319 143.802 332.519C144.312 332.719 144.862 332.819 145.451 332.819C146.02 332.819 146.556 332.719 147.055 332.519C147.555 332.309 148.004 331.989 148.404 331.56L149.378 332.504C148.898 333.043 148.314 333.454 147.624 333.733C146.945 334.012 146.196 334.153 145.376 334.153Z"
            fill="#1E2023" />
        <path id="Vector_20" d="M61.0215 6.4235V6.10352e-05H28.9043V6.4235H61.0215Z" fill="#C3D6E0" />
        <path id="Vector_21" d="M109.197 6.4235V6.10352e-05H77.0801V6.4235H109.197Z" fill="#C3D6E0" />
        <path id="Vector_22" d="M221.607 6.4235V6.10352e-05H177.714V6.4235H221.607Z" fill="#C3D6E0" />
        <path id="Vector_23" d="M234.455 305.125V298.702H172.362V305.125H234.455Z" fill="#C3D6E0" />
        <path id="Vector_24" d="M87.7891 304.056V297.632H5.35493V304.056H87.7891Z" fill="#C3D6E0" />
        <path id="Vector_25" d="M375.771 6.4235V6.10352e-05H300.831V6.4235H375.771Z" fill="#C3D6E0" />
        <path id="Vector_26" d="M390.76 470V463.576H301.902V470H390.76Z" fill="#C3D6E0" />
        <path id="Vector_27" d="M292.076 226.49L285.873 224.823L278.486 252.314L284.689 253.981L292.076 226.49Z"
            fill="#C3D6E0" />
        <path id="Vector_28"
            d="M294.641 27.8367V17.3451H299.527C300.746 17.3451 301.695 17.5799 302.374 18.0495C303.054 18.5192 303.394 19.1886 303.394 20.0579C303.394 20.9173 303.074 21.5867 302.434 22.0663C301.795 22.536 300.945 22.7707 299.886 22.7707L300.171 22.1412C301.35 22.1412 302.264 22.376 302.914 22.8457C303.564 23.3153 303.888 23.9947 303.888 24.8841C303.888 25.8034 303.538 26.5277 302.839 27.0573C302.15 27.5769 301.14 27.8367 299.812 27.8367H294.641ZM297.054 26.0381H299.722C300.281 26.0381 300.705 25.9282 300.996 25.7084C301.286 25.4886 301.43 25.1488 301.43 24.6892C301.43 24.2495 301.286 23.9248 300.996 23.715C300.705 23.4952 300.281 23.3853 299.722 23.3853H297.054V26.0381ZM297.054 21.6916H299.317C299.847 21.6916 300.246 21.5867 300.516 21.3769C300.786 21.1571 300.921 20.8373 300.921 20.4176C300.921 19.998 300.786 19.6832 300.516 19.4734C300.246 19.2536 299.847 19.1436 299.317 19.1436H297.054V21.6916ZM304.748 17.3451H307.551L309.724 20.5225L311.897 17.3451H314.745L311.253 22.3661L315.03 27.8367H312.167L309.724 24.3595L307.311 27.8367H304.508L308.255 22.471L304.748 17.3451ZM321.119 28.0165C320.289 28.0165 319.521 27.8817 318.811 27.6119C318.112 27.3421 317.502 26.9624 316.982 26.4728C316.473 25.9832 316.074 25.4086 315.783 24.7492C315.504 24.0897 315.364 23.3703 315.364 22.5909C315.364 21.8115 315.504 21.0921 315.783 20.4326C316.074 19.7731 316.478 19.1986 316.997 18.709C317.517 18.2194 318.127 17.8397 318.826 17.5699C319.525 17.3001 320.285 17.1652 321.104 17.1652C321.934 17.1652 322.693 17.3001 323.382 17.5699C324.081 17.8397 324.686 18.2194 325.196 18.709C325.715 19.1986 326.12 19.7731 326.41 20.4326C326.7 21.0821 326.845 21.8016 326.845 22.5909C326.845 23.3703 326.7 24.0947 326.41 24.7641C326.12 25.4236 325.715 25.9982 325.196 26.4878C324.686 26.9674 324.081 27.3421 323.382 27.6119C322.693 27.8817 321.938 28.0165 321.119 28.0165ZM321.104 25.9482C321.574 25.9482 322.003 25.8682 322.393 25.7084C322.792 25.5486 323.143 25.3187 323.442 25.0189C323.742 24.7192 323.972 24.3645 324.132 23.9548C324.302 23.5451 324.387 23.0905 324.387 22.5909C324.387 22.0913 324.302 21.6367 324.132 21.227C323.972 20.8173 323.742 20.4626 323.442 20.1628C323.152 19.8631 322.807 19.6332 322.408 19.4734C322.009 19.3135 321.574 19.2336 321.104 19.2336C320.634 19.2336 320.199 19.3135 319.8 19.4734C319.41 19.6332 319.066 19.8631 318.766 20.1628C318.466 20.4626 318.232 20.8173 318.062 21.227C317.902 21.6367 317.822 22.0913 317.822 22.5909C317.822 23.0805 317.902 23.5351 318.062 23.9548C318.232 24.3645 318.461 24.7192 318.751 25.0189C319.051 25.3187 319.401 25.5486 319.8 25.7084C320.199 25.8682 320.634 25.9482 321.104 25.9482ZM335.377 26.7576V19.3235H331.78L331.735 20.8523C331.705 21.5018 331.66 22.1163 331.6 22.6958C331.55 23.2753 331.469 23.8049 331.36 24.2845C331.25 24.7542 331.105 25.1538 330.926 25.4836C330.755 25.8133 330.54 26.0481 330.281 26.188L327.688 25.8583C328.048 25.8682 328.342 25.7434 328.572 25.4836C328.812 25.2237 329.002 24.8591 329.142 24.3894C329.281 23.9098 329.382 23.3502 329.442 22.7108C329.511 22.0713 329.562 21.3769 329.592 20.6275L329.712 17.3451H337.775V26.7576H335.377ZM327.343 30.01L327.358 25.8583H339.244V30.01H336.996V27.8367H329.592V30.01H327.343Z"
            fill="#DF4E4E" />
        <g id="Vector_29">
            <path d="M298.688 56.7432H304.04V51.3903H309.393V46.0374H314.746V40.6846H320.099" fill="#DF4E4E" />
            <path d="M298.688 56.7432H304.04V51.3903H309.393V46.0374H314.746V40.6846H320.099" stroke="#989FA7"
                stroke-width="2.14115" stroke-linecap="round" stroke-linejoin="round" />
        </g>
        <g id="Vector_30">
            <path d="M331.877 426.105V431.458H337.23V436.811H342.583V442.164H347.936V447.517" fill="#DF4E4E" />
            <path d="M331.877 426.105V431.458H337.23V436.811H342.583V442.164H347.936V447.517" stroke="#989FA7"
                stroke-width="2.14115" stroke-linecap="round" stroke-linejoin="round" />
        </g>
    </g>
</svg>