<svg width="24" height="24" viewBox="0 0 24 24" fill="none" xmlns="http://www.w3.org/2000/svg">
<path d="M15.641 16.812L16.4965 14.9983C16.5196 14.9465 16.5572 14.9025 16.6048 14.8716C16.6524 14.8406 16.708 14.8242 16.7647 14.8242C16.8215 14.8242 16.877 14.8406 16.9246 14.8716C16.9722 14.9025 17.0099 14.9465 17.033 14.9983L17.8895 16.812L19.8019 17.1047C20.0475 17.1423 20.1454 17.4586 19.9685 17.6393L18.584 19.051L18.9106 21.0444C18.952 21.3004 18.695 21.4962 18.4757 21.3747L16.7647 20.4336L15.0537 21.3747C14.8334 21.4962 14.5774 21.3004 14.6189 21.0444L14.9454 19.051L13.5619 17.6393C13.3831 17.4586 13.4819 17.1423 13.7276 17.1047L15.641 16.812Z" stroke="inherit" stroke-width="1.2" stroke-linecap="round" stroke-linejoin="round"/>
<path d="M19.1175 11.9995V6.11633C19.1175 6.04203 19.103 5.96846 19.0745 5.89982C19.0461 5.83118 19.0044 5.76883 18.9518 5.71633L15.9891 2.75354C15.8832 2.6476 15.7397 2.58802 15.59 2.58789H4.62354C4.47377 2.58789 4.33014 2.64738 4.22423 2.75328C4.11833 2.85919 4.05884 3.00282 4.05884 3.15259V20.8465C4.05884 20.9963 4.11833 21.1399 4.22423 21.2458C4.33014 21.3517 4.47377 21.4112 4.62354 21.4112H10.647" stroke="inherit" stroke-width="1.6" stroke-linecap="round" stroke-linejoin="round"/>
<path d="M15.3529 2.58789V5.78786C15.3529 5.93763 15.4124 6.08126 15.5183 6.18716C15.6242 6.29306 15.7678 6.35256 15.9176 6.35256H19.1176" stroke="inherit" stroke-width="0.882365" stroke-linecap="round" stroke-linejoin="round"/>
</svg>
