<svg width="24" height="25" viewBox="0 0 24 25" fill="none" xmlns="http://www.w3.org/2000/svg">
<path d="M19.5973 9.5498C19.5973 7.44139 18.76 5.41861 17.2692 3.92773V3.92871C15.7783 2.43791 13.7564 1.59968 11.6481 1.59961C9.53965 1.59961 7.51785 2.43785 6.02698 3.92871C4.53611 5.41958 3.69788 7.44138 3.69788 9.5498C3.69794 11.2487 4.35382 12.8168 5.37073 14.3379C6.39418 15.8687 7.73567 17.2861 9.05334 18.7061H9.05432L11.6471 21.498L14.2408 18.7061C15.5587 17.2864 16.9008 15.8699 17.9244 14.3389C18.9414 12.8178 19.5972 11.2494 19.5973 9.5498ZM21.1979 9.5498C21.1978 11.6802 20.371 13.5586 19.2545 15.2285C18.1447 16.8884 16.702 18.4072 15.4137 19.7949L12.234 23.2188C12.0827 23.3816 11.8704 23.4745 11.6481 23.4746C11.4256 23.4746 11.2125 23.3817 11.0612 23.2188L7.88245 19.7949C6.59411 18.4066 5.15051 16.8876 4.04065 15.2275C2.92421 13.5577 2.09833 11.6797 2.09827 9.5498C2.09827 7.01704 3.10422 4.5878 4.89514 2.79688C6.68607 1.00596 9.1153 0 11.6481 0C14.0225 6.49405e-05 16.3055 0.88448 18.0573 2.4707L18.401 2.79688L18.7272 3.13965C20.3134 4.89147 21.1979 7.17527 21.1979 9.5498Z" fill="inherit"/>
<path d="M14.4027 9.00098C14.4027 7.5552 13.2303 6.38287 11.7845 6.38281C10.3387 6.38281 9.16638 7.55517 9.16638 9.00098C9.16644 10.4467 10.3388 11.6191 11.7845 11.6191C13.2303 11.6191 14.4027 10.4467 14.4027 9.00098ZM16.0023 9.00098C16.0023 11.3304 14.1139 13.2187 11.7845 13.2188C9.45512 13.2188 7.56683 11.3304 7.56677 9.00098C7.56677 6.67151 9.45508 4.7832 11.7845 4.7832C14.114 4.78326 16.0023 6.67155 16.0023 9.00098Z" fill="inherit"/>
</svg>
