<svg width="24" height="24" viewBox="0 0 24 24" fill="none" xmlns="http://www.w3.org/2000/svg">
<path d="M8.09232 1.95986V13.2793H2.92755V1.95986H8.09232ZM2.92755 0.544922C2.5851 0.544922 2.25668 0.693995 2.01453 0.959346C1.77239 1.2247 1.63635 1.58459 1.63635 1.95986V13.2793C1.63635 13.6546 1.77239 14.0145 2.01453 14.2798C2.25668 14.5452 2.5851 14.6943 2.92755 14.6943H8.09232C8.43475 14.6943 8.76316 14.5452 9.00533 14.2798C9.24749 14.0145 9.38352 13.6546 9.38352 13.2793V1.95986C9.38352 1.58459 9.24749 1.2247 9.00533 0.959346C8.76316 0.693995 8.43475 0.544922 8.09232 0.544922H2.92755ZM19.7131 3.37479V10.4495H13.2571V3.37479H19.7131ZM13.2571 1.95986C12.9147 1.95986 12.5863 2.10893 12.3441 2.37428C12.1019 2.63963 11.9659 2.99953 11.9659 3.37479V10.4495C11.9659 10.8247 12.1019 11.1846 12.3441 11.45C12.5863 11.7153 12.9147 11.8644 13.2571 11.8644H19.7131C20.0555 11.8644 20.3839 11.7153 20.6261 11.45C20.8682 11.1846 21.0043 10.8247 21.0043 10.4495V3.37479C21.0043 2.99953 20.8682 2.63963 20.6261 2.37428C20.3839 2.10893 20.0555 1.95986 19.7131 1.95986H13.2571ZM8.09232 18.9391V21.7689H5.50993V18.9391H8.09232ZM5.50993 17.5241C5.16749 17.5241 4.83907 17.6732 4.59692 17.9385C4.35477 18.2039 4.21874 18.5638 4.21874 18.9391V21.7689C4.21874 22.1442 4.35477 22.5041 4.59692 22.7694C4.83907 23.0347 5.16749 23.1839 5.50993 23.1839H8.09232C8.43475 23.1839 8.76316 23.0347 9.00533 22.7694C9.24749 22.5041 9.38352 22.1442 9.38352 21.7689V18.9391C9.38352 18.5638 9.24749 18.2039 9.00533 17.9385C8.76316 17.6732 8.43475 17.5241 8.09232 17.5241H5.50993ZM21.0043 16.1092V18.9391H13.2571V16.1092H21.0043ZM13.2571 14.6943C12.9147 14.6943 12.5863 14.8433 12.3441 15.1087C12.1019 15.374 11.9659 15.7339 11.9659 16.1092V18.9391C11.9659 19.3143 12.1019 19.6742 12.3441 19.9396C12.5863 20.2049 12.9147 20.354 13.2571 20.354H21.0043C21.3467 20.354 21.6751 20.2049 21.9173 19.9396C22.1594 19.6742 22.2955 19.3143 22.2955 18.9391V16.1092C22.2955 15.7339 22.1594 15.374 21.9173 15.1087C21.6751 14.8433 21.3467 14.6943 21.0043 14.6943H13.2571Z" fill="inherit"/>
</svg>
