<svg width="24" height="24" viewBox="0 0 24 24" fill="none" xmlns="http://www.w3.org/2000/svg">
<path d="M19.7935 14.2939C19.7935 12.5948 19.1377 11.0261 18.1206 9.50488C17.3528 8.35654 16.4058 7.27259 15.4243 6.20312L14.437 5.13672L11.8433 2.34375L9.25049 5.13672C7.93264 6.55632 6.5905 7.97291 5.56689 9.50391C4.54986 11.0251 3.89404 12.5942 3.89404 14.2939C3.89415 16.4022 4.73237 18.4242 6.22314 19.915C7.71399 21.4057 9.73598 22.2432 11.8442 22.2432C13.9525 22.2431 15.9745 21.4058 17.4653 19.915C18.9561 18.4242 19.7934 16.4022 19.7935 14.2939ZM21.394 14.2939C21.3939 16.8264 20.3877 19.2551 18.5972 21.0459H18.5962C16.8053 22.8367 14.3769 23.8437 11.8442 23.8438C9.31147 23.8438 6.88223 22.8368 5.09131 21.0459C3.30059 19.2551 2.29454 16.8265 2.29443 14.2939C2.29443 12.1636 3.12041 10.2851 4.23682 8.61523C5.34672 6.95515 6.79022 5.43572 8.07861 4.04785L11.2573 0.625C11.4087 0.462021 11.6218 0.369141 11.8442 0.369141C12.0666 0.369213 12.2789 0.462085 12.4302 0.625L15.6099 4.04785C16.8981 5.4361 18.3409 6.95536 19.4507 8.61523C20.5672 10.2852 21.394 12.164 21.394 14.2939Z" fill="inherit"/>
</svg>
