<svg width="24" height="24" viewBox="0 0 24 24" fill="none" xmlns="http://www.w3.org/2000/svg">
<path fill-rule="evenodd" clip-rule="evenodd" d="M2.36419 2.36321C2.71566 2.01174 3.28551 2.01174 3.63698 2.36321L21.637 20.3632C21.9885 20.7147 21.9885 21.2845 21.637 21.636C21.2855 21.9875 20.7157 21.9875 20.3642 21.636L17.2711 18.5429C15.7085 19.4075 13.9111 19.8996 12.0008 19.8996C7.1188 19.8996 2.98863 16.6907 1.59995 12.2693C1.54481 12.0937 1.54481 11.9054 1.59995 11.7299C2.25799 9.63479 3.53041 7.81386 5.20508 6.4769L2.36419 3.63601C2.01272 3.28453 2.01272 2.71469 2.36419 2.36321ZM6.48744 7.75925C5.08263 8.83076 3.99947 10.3012 3.40663 11.9996C4.64659 15.5523 8.02734 18.0996 12.0008 18.0996C13.4113 18.0996 14.7454 17.7793 15.9357 17.2075L14.0477 15.3196C13.4528 15.687 12.7511 15.8996 12.0006 15.8996C9.84667 15.8996 8.10059 14.1535 8.10059 11.9996C8.10059 11.2492 8.31314 10.5474 8.68063 9.95245L6.48744 7.75925ZM10.0219 11.2937C9.9433 11.5142 9.90059 11.7518 9.90059 11.9996C9.90059 13.1594 10.8408 14.0996 12.0006 14.0996C12.2484 14.0996 12.4859 14.0569 12.7065 13.9783L10.0219 11.2937ZM12.0008 5.89961C11.693 5.89961 11.389 5.91486 11.0895 5.9446C10.5949 5.99372 10.1541 5.63257 10.105 5.13794C10.0559 4.64332 10.417 4.20253 10.9116 4.15341C11.2701 4.11781 11.6335 4.09961 12.0008 4.09961C16.8828 4.09961 21.013 7.30852 22.4016 11.73C22.4568 11.9055 22.4568 12.0938 22.4016 12.2693C22.0954 13.2445 21.6559 14.1602 21.105 14.9953C20.8313 15.4101 20.273 15.5246 19.8581 15.2508C19.4432 14.9771 19.3288 14.4189 19.6026 14.004C20.0114 13.3843 20.3463 12.712 20.5949 11.9996C19.355 8.44691 15.9742 5.89961 12.0008 5.89961Z" fill="inherit"/>
</svg>
