<svg width="24" height="24" viewBox="0 0 24 24" fill="none" xmlns="http://www.w3.org/2000/svg">
<path fill-rule="evenodd" clip-rule="evenodd" d="M19.8364 4.16399C20.1879 4.51547 20.1879 5.08531 19.8364 5.43679L5.43642 19.8368C5.08495 20.1883 4.5151 20.1883 4.16363 19.8368C3.81216 19.4853 3.81216 18.9155 4.16363 18.564L18.5636 4.16399C18.9151 3.81252 19.4849 3.81252 19.8364 4.16399ZM21.0364 9.56399C21.3879 9.91547 21.3879 10.4853 21.0364 10.8368L11.4364 20.4368C11.0849 20.7883 10.5151 20.7883 10.1636 20.4368C9.81216 20.0853 9.81216 19.5155 10.1636 19.164L19.7636 9.56399C20.1151 9.21252 20.6849 9.21252 21.0364 9.56399Z" fill="black"/>
</svg>
