<svg width="24" height="24" viewBox="0 0 24 24" fill="none" xmlns="http://www.w3.org/2000/svg">
<g clip-path="url(#clip0_101_8211)">
<path d="M23.7227 9.10449C24.0788 9.36566 24.1564 9.86639 23.8955 10.2227C23.6343 10.5788 23.1336 10.6564 22.7773 10.3955L12 2.49121L1.22266 10.3955C0.866396 10.6564 0.365661 10.5788 0.104494 10.2227C-0.156378 9.86639 -0.0787913 9.36566 0.277346 9.10449L12 0.507812L23.7227 9.10449Z" fill="inherit"/>
<path d="M18.7002 14.249C18.7002 10.5487 15.7003 7.54883 12 7.54883C8.29969 7.54883 5.2998 10.5487 5.2998 14.249C5.2998 17.9493 8.29969 20.9492 12 20.9492C15.7003 20.9492 18.7002 17.9493 18.7002 14.249ZM20.2998 14.249C20.2998 18.833 16.584 22.5488 12 22.5488C7.41604 22.5488 3.7002 18.833 3.7002 14.249C3.7002 9.66506 7.41604 5.94922 12 5.94922C16.584 5.94922 20.2998 9.66506 20.2998 14.249Z" fill="inherit"/>
<path d="M11.2002 8.99902C11.2002 8.5572 11.5582 8.19922 12 8.19922C12.4418 8.19922 12.7998 8.5572 12.7998 8.99902V13.4492H17.25C17.6918 13.4492 18.0498 13.8072 18.0498 14.249C18.0498 14.6909 17.6918 15.0488 17.25 15.0488H11.2002V8.99902Z" fill="inherit"/>
<path d="M11.2002 19.4999V18.7499C11.2004 18.3083 11.5583 17.9501 12 17.9501C12.4417 17.9501 12.7996 18.3083 12.7998 18.7499V19.4999C12.7998 19.9418 12.4418 20.3007 12 20.3007C11.5582 20.3007 11.2002 19.9418 11.2002 19.4999ZM8.25293 16.8671C8.56535 16.5547 9.07137 16.5547 9.38379 16.8671C9.69609 17.1796 9.69617 17.6856 9.38379 17.998L8.85352 18.5283C8.54113 18.8406 8.03507 18.8405 7.72266 18.5283C7.41026 18.2159 7.4103 17.7098 7.72266 17.3974L8.25293 16.8671ZM14.6162 16.8671C14.9286 16.5547 15.4347 16.5547 15.7471 16.8671L16.2773 17.3974C16.5897 17.7098 16.5897 18.2159 16.2773 18.5283C15.9649 18.8406 15.4589 18.8406 15.1465 18.5283L14.6162 17.998C14.3038 17.6856 14.3039 17.1795 14.6162 16.8671ZM7.5 13.4501C7.94168 13.4501 8.29957 13.8083 8.2998 14.2499C8.2998 14.6918 7.94183 15.0507 7.5 15.0507H6.75C6.30817 15.0507 5.9502 14.6918 5.9502 14.2499C5.95043 13.8083 6.30832 13.4501 6.75 13.4501H7.5ZM7.72266 9.97259C8.03508 9.6602 8.54111 9.66018 8.85352 9.97259L9.38379 10.5029C9.6962 10.8153 9.69618 11.3213 9.38379 11.6337C9.07137 11.9461 8.56535 11.9461 8.25293 11.6337L7.72266 11.1035C7.41024 10.791 7.41024 10.285 7.72266 9.97259ZM15.1465 9.97259C15.4589 9.66018 15.9649 9.66018 16.2773 9.97259C16.5898 10.285 16.5898 10.791 16.2773 11.1035L15.7471 11.6337C15.4347 11.9461 14.9286 11.9461 14.6162 11.6337C14.3038 11.3213 14.3038 10.8153 14.6162 10.5029L15.1465 9.97259Z" fill="inherit"/>
</g>
<defs>
<clipPath id="clip0_101_8211">
<rect width="24" height="24" fill="white"/>
</clipPath>
</defs>
</svg>
