<svg width="24" height="24" viewBox="0 0 24 24" fill="none" xmlns="http://www.w3.org/2000/svg">
<path fill-rule="evenodd" clip-rule="evenodd" d="M7.04971 6.94949C7.04971 4.21596 9.26568 2 11.9992 2C14.7327 2 16.9487 4.21596 16.9487 6.94949C16.9487 9.68303 14.7327 11.899 11.9992 11.899C9.26568 11.899 7.04971 9.68303 7.04971 6.94949ZM11.9992 3.81818C10.2698 3.81818 8.86789 5.22012 8.86789 6.94949C8.86789 8.67887 10.2698 10.0808 11.9992 10.0808C13.7286 10.0808 15.1305 8.67887 15.1305 6.94949C15.1305 5.22012 13.7286 3.81818 11.9992 3.81818Z" fill="black"/>
<path d="M11.9992 14.9293C8.59624 14.9293 5.83759 17.6879 5.83759 21.0909C5.83759 21.593 5.43058 22 4.9285 22C4.42642 22 4.01941 21.593 4.01941 21.0909C4.01941 16.6838 7.59209 13.1111 11.9992 13.1111C16.4063 13.1111 19.979 16.6838 19.979 21.0909C19.979 21.593 19.572 22 19.0699 22C18.5678 22 18.1608 21.593 18.1608 21.0909C18.1608 17.6879 15.4022 14.9293 11.9992 14.9293Z" fill="black"/>
</svg>
