<svg width="24" height="24" viewBox="0 0 24 24" fill="none" xmlns="http://www.w3.org/2000/svg">
<path d="M21.2002 8.10547C21.2002 7.09235 20.9057 6.14578 20.3925 5.33984C20.1552 4.96718 20.265 4.47269 20.6377 4.23535C21.0103 3.99819 21.5049 4.10787 21.7421 4.48047C22.4127 5.53348 22.7998 6.77657 22.7998 8.10547C22.7996 11.9455 19.5852 15.0117 15.6797 15.0117C15.315 15.0117 14.7407 14.9725 14.1533 14.8545C13.7973 14.783 13.3883 14.6739 13.0078 14.5L12.6074 14.8857C12.6756 14.9679 12.7508 15.0677 12.8203 15.1885L12.8584 15.2451C12.8876 15.2908 12.9245 15.3534 12.9648 15.4297C13.0445 15.5808 13.1419 15.7973 13.207 16.0615C13.3407 16.6044 13.3403 17.3626 12.7978 18.0967C12.7941 18.1017 12.7899 18.1064 12.7861 18.1113C12.4756 18.511 11.8962 18.9889 11.1191 19.1318C10.7618 19.1975 10.3891 19.1867 10.0117 19.0879C10.0038 19.4894 9.88662 19.9328 9.56539 20.3682C9.56149 20.3735 9.55673 20.3786 9.5527 20.3838C9.21976 20.8123 8.64729 21.2092 7.96481 21.3359C7.4461 21.4322 6.88407 21.3666 6.3486 21.0752L5.80367 21.6035C5.24927 22.1392 4.59856 22.2625 4.04195 22.1826C3.52174 22.1079 3.08733 21.8606 2.82613 21.6436C2.81106 21.631 2.79631 21.6181 2.78219 21.6045L1.89938 20.752H1.8984C1.29861 20.1721 1.12444 19.4929 1.22848 18.875C1.32344 18.3116 1.63591 17.8663 1.8984 17.6123L9.11324 10.6396C9.07104 10.5451 9.02514 10.4412 8.98141 10.3271C8.77304 9.78386 8.56154 9.01066 8.56149 8.10645C8.56149 4.26635 11.7752 1.19947 15.6806 1.19922C16.5982 1.19922 17.4773 1.36792 18.2851 1.67578C18.6978 1.8332 18.9053 2.29524 18.748 2.70801C18.5907 3.12087 18.1277 3.32824 17.7148 3.1709C17.0867 2.93157 16.401 2.79883 15.6806 2.79883C12.6067 2.79908 10.1611 5.20127 10.1611 8.10645C10.1611 8.76393 10.3165 9.3392 10.4755 9.75391C10.5545 9.95971 10.6331 10.1215 10.6894 10.2285C10.7175 10.2819 10.7398 10.3219 10.7539 10.3457L10.7685 10.3691H10.7675C10.9753 10.6902 10.9273 11.1132 10.6523 11.3789L3.0107 18.7627C2.93032 18.8405 2.83079 18.9917 2.80563 19.1406C2.79484 19.2047 2.79812 19.265 2.81832 19.3262C2.83844 19.3869 2.8866 19.4813 3.00973 19.6006L3.85738 20.4189C3.94081 20.4855 4.10236 20.5746 4.26949 20.5986C4.40588 20.6182 4.5398 20.5996 4.69137 20.4531L5.71969 19.46L5.77926 19.4072C6.08982 19.1613 6.54022 19.1792 6.83102 19.46C7.15598 19.7736 7.44473 19.805 7.67281 19.7627C7.94211 19.7127 8.17422 19.5452 8.28414 19.4072C8.44423 19.1839 8.43441 18.9842 8.36617 18.7861C8.32899 18.6784 8.27609 18.5825 8.23043 18.5127C8.20839 18.479 8.18966 18.4536 8.17867 18.4395C8.17571 18.4356 8.17345 18.4327 8.17184 18.4307L8.17477 18.4336L8.12594 18.373C7.89464 18.0539 7.92933 17.6072 8.21871 17.3281L8.51266 17.0449L8.5732 16.9922C8.88384 16.747 9.33359 16.7653 9.62399 17.0459C10.1717 17.575 10.5805 17.6035 10.83 17.5576C11.1296 17.5025 11.3847 17.3015 11.5166 17.1348C11.702 16.8781 11.7027 16.6449 11.6533 16.4443C11.6266 16.3361 11.5848 16.2421 11.5498 16.1758C11.5328 16.1437 11.5187 16.1199 11.5107 16.1074L11.5058 16.1006L11.5068 16.1016C11.4834 16.0693 11.4626 16.0353 11.4443 16C11.4214 15.9557 11.3881 15.9125 11.3193 15.8389C11.2866 15.8039 11.107 15.6297 11.0009 15.4453C10.9335 15.328 10.872 15.1741 10.8564 14.9873C10.8407 14.7995 10.876 14.6264 10.9365 14.4756C11.0455 14.204 11.2488 13.9739 11.4511 13.7783L12.333 12.9268L12.4492 12.834C12.7348 12.6456 13.1166 12.6572 13.3916 12.8789C13.5896 13.0387 13.9712 13.1864 14.4677 13.2861C14.94 13.381 15.4083 13.4121 15.6797 13.4121C18.7537 13.4121 21.2 11.0106 21.2002 8.10547Z" fill="inherit"/>
<path d="M15.6807 5.35157C16.049 5.35095 16.4143 5.42107 16.7559 5.55762C17.0974 5.6942 17.4093 5.89464 17.6729 6.14942C17.9365 6.40424 18.1469 6.70813 18.291 7.04395C18.4352 7.37989 18.5101 7.74135 18.5107 8.10645V8.1084C18.5092 8.75409 18.2765 9.37375 17.8613 9.86329L17.6719 10.0645C17.1399 10.5785 16.4234 10.8635 15.6807 10.8623V10.8613C15.4053 10.8617 15.1315 10.8239 14.8682 10.7471L14.6074 10.6572C14.2658 10.5208 13.9541 10.3191 13.6904 10.0645C13.4267 9.80969 13.2156 9.50662 13.0713 9.1709C12.9269 8.83494 12.8525 8.47338 12.8516 8.1084V8.10645L12.8662 7.83301C12.8943 7.56181 12.9633 7.29575 13.0713 7.04395L13.1914 6.79786C13.3237 6.55893 13.4917 6.3405 13.6895 6.14942C13.9532 5.89452 14.2656 5.69316 14.6074 5.55664C14.9484 5.42048 15.313 5.35202 15.6807 5.35254V5.35157ZM15.6797 6.60157C15.4705 6.60116 15.2637 6.64094 15.0713 6.71778C14.8787 6.79472 14.7043 6.90709 14.5586 7.04786C14.4129 7.18866 14.2978 7.35532 14.2197 7.53711C14.1418 7.71887 14.1019 7.913 14.1016 8.1084C14.1024 8.30311 14.1422 8.49618 14.2197 8.67676C14.2978 8.85848 14.4128 9.0252 14.5586 9.16602C14.7044 9.3068 14.8787 9.41919 15.0713 9.4961C15.2639 9.57297 15.4713 9.61276 15.6807 9.61231H15.6826C16.1061 9.61303 16.5092 9.45057 16.8037 9.16602C17.097 8.88265 17.2591 8.50164 17.2607 8.1084L17.2529 7.96192C17.2379 7.81649 17.201 7.67324 17.1426 7.53711H17.1416C17.0637 7.35562 16.9493 7.1896 16.8037 7.04883C16.6581 6.90805 16.4845 6.7948 16.292 6.71778C16.0993 6.64075 15.892 6.6012 15.6826 6.60157H15.6797Z" fill="inherit"/>
</svg>
