<svg width="24" height="24" viewBox="0 0 24 24" fill="none" xmlns="http://www.w3.org/2000/svg">
<path d="M11.9923 21.2943C12.1573 21.2943 12.3256 21.2602 12.4971 21.192C12.6686 21.1238 12.806 21.0309 12.9094 20.9133L21.7595 12.0566C22.0451 11.771 22.2701 11.4727 22.4344 11.1618C22.5987 10.8508 22.6809 10.5111 22.6809 10.1428C22.6809 9.76822 22.5987 9.4044 22.4344 9.05132C22.2701 8.6983 22.0451 8.37895 21.7595 8.09333L17.4323 3.76617C17.1468 3.48058 16.849 3.26638 16.539 3.12358C16.229 2.98077 15.8867 2.90937 15.5121 2.90937C15.1437 2.90937 14.8005 2.98077 14.4823 3.12358C14.1642 3.26638 13.8695 3.48058 13.5982 3.76617L12.5348 4.82965L14.6941 6.99538C14.8936 7.19919 15.0615 7.44496 15.1978 7.73271C15.3341 8.02046 15.4023 8.31934 15.4023 8.62933C15.4023 9.18047 15.2061 9.64762 14.8135 10.0309C14.421 10.414 13.9564 10.6057 13.4195 10.6057C13.0823 10.6057 12.7849 10.5572 12.5272 10.4603C12.2697 10.3635 12.0347 10.2146 11.8224 10.0138L9.70599 7.8802L4.79112 12.795C4.66915 12.917 4.57515 13.0619 4.50911 13.2296C4.44309 13.3972 4.4101 13.5615 4.4101 13.7224C4.4101 14.0299 4.50733 14.2773 4.7018 14.4646C4.89627 14.6518 5.14039 14.7455 5.43411 14.7455C5.60968 14.7455 5.78107 14.7067 5.94827 14.6292C6.11547 14.5517 6.25074 14.4613 6.35405 14.358L9.93633 10.7757L10.552 11.3914L6.97618 14.9457C6.85426 15.082 6.76024 15.2313 6.6942 15.3935C6.62819 15.5556 6.5952 15.7214 6.5952 15.8907C6.5952 16.1721 6.69708 16.4146 6.90087 16.6184C7.1047 16.8222 7.34723 16.9241 7.62858 16.9241C7.79786 16.9241 7.96615 16.89 8.13336 16.8218C8.30057 16.7537 8.43581 16.6608 8.53914 16.5431L12.3798 12.7024L12.9955 13.3182L9.16132 17.1308C9.05799 17.2485 8.96867 17.3915 8.89329 17.5599C8.81791 17.7283 8.78029 17.9003 8.78029 18.0759C8.78029 18.3571 8.88217 18.5997 9.08601 18.8035C9.28978 19.0073 9.53231 19.1092 9.81366 19.1092C9.98294 19.1092 10.1466 19.0762 10.3045 19.0102C10.4623 18.9442 10.6023 18.8501 10.7242 18.7281L14.5648 14.8876L15.1806 15.5033L11.3399 19.3438C11.2179 19.4658 11.124 19.6151 11.058 19.7917C10.9919 19.9682 10.959 20.1317 10.959 20.2825C10.959 20.5868 11.0586 20.8314 11.2581 21.0166C11.4576 21.2017 11.7024 21.2943 11.9923 21.2943ZM11.9941 22.1554C11.4489 22.1554 10.984 21.9484 10.5994 21.5343C10.2148 21.1202 10.0476 20.5978 10.0978 19.967C9.46346 19.9907 8.93525 19.8096 8.51333 19.4235C8.0914 19.0374 7.89121 18.4913 7.91269 17.7852C7.22097 17.7924 6.67593 17.5983 6.27764 17.2029C5.87935 16.8075 5.69816 16.2733 5.73405 15.6001C5.12983 15.6216 4.61461 15.4638 4.18836 15.1265C3.76209 14.7893 3.54896 14.3156 3.54896 13.7056C3.54896 13.4315 3.6045 13.157 3.71562 12.882C3.82672 12.6069 3.97783 12.3705 4.16896 12.1728L9.70599 6.63586L12.3324 9.26231C12.4673 9.39718 12.629 9.51024 12.8175 9.60133C13.006 9.69247 13.2089 9.73807 13.426 9.73807C13.7116 9.73807 13.9689 9.6272 14.1978 9.40547C14.4267 9.18367 14.5412 8.92142 14.5412 8.61859C14.5412 8.43774 14.4978 8.26305 14.4109 8.0944C14.3241 7.92574 14.2132 7.76682 14.0783 7.61754L10.227 3.76617C9.94136 3.48058 9.63997 3.26638 9.32276 3.12358C9.00561 2.98077 8.65968 2.90937 8.28512 2.90937C7.91677 2.90937 7.58071 2.98077 7.27688 3.12358C6.97311 3.26638 6.67899 3.47924 6.39448 3.76216L2.84932 7.30969C2.5594 7.5996 2.3416 7.92147 2.19592 8.27524C2.05026 8.62901 1.98245 9.02368 1.99249 9.45924C1.98818 9.76565 2.04021 10.0628 2.14857 10.3505C2.25693 10.6383 2.39436 10.9006 2.56083 11.1374L1.89563 11.7811C1.69468 11.4854 1.52066 11.1273 1.37356 10.7068C1.22645 10.2863 1.14572 9.85648 1.13138 9.41728C1.11701 8.88624 1.20635 8.38573 1.3994 7.91575C1.59243 7.44568 1.8705 7.02912 2.23359 6.66601L5.74914 3.15047C6.11653 2.78306 6.51288 2.50858 6.93818 2.32703C7.36344 2.14547 7.81985 2.05469 8.30736 2.05469C8.79486 2.05469 9.24851 2.14547 9.6683 2.32703C10.0882 2.50858 10.4818 2.78306 10.8491 3.15047L11.9126 4.21395L12.9761 3.15047C13.3435 2.78306 13.7363 2.50858 14.1543 2.32703C14.5724 2.14547 15.0252 2.05469 15.5128 2.05469C16.0003 2.05469 16.4575 2.14547 16.8845 2.32703C17.3115 2.50858 17.7087 2.78306 18.0761 3.15047L22.3752 7.44962C22.7426 7.81707 23.029 8.23711 23.2342 8.70992C23.4394 9.18273 23.542 9.66062 23.542 10.1437C23.542 10.6268 23.4394 11.0782 23.2342 11.498C23.029 11.9178 22.7426 12.3114 22.3752 12.6787L13.525 21.529C13.3112 21.7571 13.0752 21.9186 12.817 22.0133C12.5587 22.1081 12.2844 22.1554 11.9941 22.1554Z" fill="inherit"/>
<path d="M14.2412 8.61719C14.2411 8.48662 14.2105 8.35868 14.1445 8.23047C14.0714 8.08834 13.9767 7.95284 13.8604 7.82324L10.0146 3.97754C9.75064 3.71356 9.47842 3.52217 9.19922 3.39648C8.92377 3.27248 8.62049 3.20801 8.28516 3.20801C7.95659 3.20801 7.66446 3.27225 7.4043 3.39453C7.20393 3.48876 7.00381 3.6194 6.80469 3.79004L6.60645 3.97363L3.06152 7.52051C2.79759 7.78445 2.60318 8.07408 2.47363 8.38867C2.34586 8.69903 2.2828 9.05147 2.29199 9.45117L2.29297 9.46289C2.28924 9.7315 2.33456 9.99152 2.42969 10.2441C2.52967 10.5095 2.65566 10.7491 2.80664 10.9639L2.9541 11.1738L2.76953 11.3516L2.10449 11.9961L1.84766 12.2441L1.64746 11.9482C1.42889 11.6266 1.24446 11.2439 1.09082 10.8047C0.933805 10.3559 0.846409 9.89582 0.831055 9.42578V9.21191C0.841958 8.71859 0.938576 8.24749 1.12207 7.80078C1.33033 7.29366 1.6307 6.84396 2.02148 6.45312L5.53711 2.9375C5.92826 2.54634 6.35568 2.24815 6.82031 2.0498C7.28479 1.85151 7.78189 1.75391 8.30762 1.75391C8.83317 1.75394 9.32742 1.852 9.78711 2.05078C10.2461 2.24926 10.671 2.54694 11.0615 2.9375L11.9121 3.78809L12.7637 2.9375C13.154 2.54712 13.578 2.24929 14.0352 2.05078C14.4934 1.85182 14.9871 1.75392 15.5127 1.75391C16.0385 1.75391 16.536 1.85166 17.002 2.0498C17.4684 2.24811 17.8968 2.54617 18.2881 2.9375L22.5869 7.23633C22.9807 7.6302 23.2894 8.08215 23.5098 8.58984C23.7301 9.09759 23.8418 9.61591 23.8418 10.1426C23.8418 10.6698 23.7299 11.1667 23.5039 11.6289C23.2826 12.0817 22.9751 12.5015 22.5869 12.8896L13.7432 21.7324C13.5018 21.99 13.2278 22.181 12.9199 22.2939C12.6269 22.4014 12.3176 22.4541 11.9941 22.4541C11.3622 22.4541 10.8189 22.2099 10.3799 21.7373C9.99974 21.328 9.80819 20.8292 9.79199 20.2588C9.22178 20.2212 8.72256 20.0205 8.31055 19.6436C7.87584 19.2457 7.65238 18.7121 7.61621 18.0742C6.9958 18.0287 6.47076 17.8164 6.06641 17.415C5.6625 17.0141 5.45795 16.4978 5.43262 15.8926C4.89363 15.859 4.41269 15.6853 4.00195 15.3604C3.49469 14.9588 3.24912 14.3937 3.24902 13.7051C3.24902 13.3894 3.31315 13.0763 3.4375 12.7686C3.5619 12.4606 3.73314 12.1904 3.95312 11.9629L3.95703 11.96L9.70605 6.21094L12.5449 9.04883C12.6539 9.15779 12.7872 9.25225 12.9482 9.33008C13.0945 9.40077 13.2523 9.43747 13.4258 9.4375C13.6241 9.4375 13.8092 9.36374 13.9893 9.18945C14.1633 9.02083 14.2412 8.83415 14.2412 8.61719ZM15.1025 8.62793C15.1025 8.36379 15.0445 8.10888 14.9268 7.86035C14.8031 7.59923 14.6532 7.38152 14.4795 7.2041L12.1113 4.82812L12.3223 4.61621L13.3857 3.55273C13.679 3.24519 14.0035 3.00839 14.3594 2.84863C14.7182 2.68757 15.1036 2.60845 15.5117 2.6084C15.9253 2.6084 16.3111 2.688 16.6641 2.85059C17.0115 3.01064 17.3384 3.24662 17.6445 3.55273L21.9717 7.87988C22.2812 8.18936 22.5264 8.53788 22.7061 8.92383C22.888 9.31488 22.9804 9.72163 22.9805 10.1416C22.9805 10.5564 22.8875 10.9446 22.6992 11.3008C22.5641 11.5564 22.3936 11.8015 22.1885 12.0361L21.9717 12.2676L13.1338 21.1094L13.1348 21.1104C12.9951 21.2693 12.8158 21.3872 12.6084 21.4697C12.4059 21.5501 12.1994 21.5938 11.9922 21.5938C11.632 21.5937 11.3125 21.4755 11.0537 21.2354C10.7857 20.9864 10.6592 20.6579 10.6592 20.2812C10.6592 20.087 10.7018 19.8875 10.7773 19.6855C10.857 19.4726 10.9729 19.2859 11.1279 19.1309L14.7559 15.502L14.5645 15.3105L10.9365 18.9395C10.7872 19.0888 10.6141 19.2049 10.4199 19.2861C10.2258 19.3673 10.0228 19.4082 9.81348 19.4082C9.45052 19.4082 9.13246 19.2731 8.87402 19.0146C8.61556 18.7562 8.48055 18.4381 8.48047 18.0752C8.48047 17.8554 8.52745 17.6415 8.61914 17.4365C8.70464 17.2455 8.80923 17.0755 8.93555 16.9316L8.94238 16.9238L8.9502 16.917L12.5703 13.3164L12.3789 13.125L8.75098 16.7539C8.6147 16.9042 8.44429 17.0182 8.24707 17.0986C8.04646 17.1804 7.83947 17.2226 7.62891 17.2227C7.26588 17.2227 6.947 17.0885 6.68848 16.8301C6.43022 16.5716 6.29492 16.2525 6.29492 15.8896C6.29493 15.6803 6.3359 15.4761 6.41602 15.2793C6.49561 15.0838 6.60917 14.9059 6.75293 14.7451L6.76465 14.7314L10.127 11.3896L9.93652 11.1992L6.56641 14.5693C6.43261 14.7032 6.26534 14.8118 6.07422 14.9004C5.86969 14.9952 5.65566 15.0449 5.43457 15.0449C5.11616 15.0449 4.83039 14.9532 4.59277 14.7656L4.49414 14.6797C4.23267 14.4278 4.1104 14.0982 4.11035 13.7217C4.11035 13.5192 4.15147 13.3175 4.22949 13.1191C4.30993 12.9149 4.42672 12.7344 4.5791 12.582L9.70703 7.4541L12.0283 9.79492L12.1709 9.91699C12.3157 10.0302 12.4695 10.1173 12.6328 10.1787C12.8501 10.2604 13.111 10.3047 13.4199 10.3047C13.8762 10.3046 14.2658 10.1449 14.6035 9.81543C14.9379 9.48895 15.1025 9.09869 15.1025 8.62793ZM15.7021 8.62793C15.7021 9.25927 15.4739 9.80422 15.0234 10.2441C14.5764 10.6806 14.0368 10.9042 13.4199 10.9043C13.0545 10.9043 12.7198 10.8522 12.4219 10.7402C12.1247 10.6285 11.8557 10.457 11.6162 10.2305L11.6094 10.2246L9.70508 8.30371L5.00293 13.0059C4.91138 13.0974 4.83974 13.2077 4.78809 13.3389C4.73432 13.4755 4.70996 13.6028 4.70996 13.7217C4.71001 13.9598 4.78286 14.1244 4.91016 14.2471C5.04358 14.3755 5.21099 14.4443 5.43457 14.4443C5.56424 14.4443 5.69275 14.4165 5.82227 14.3564C5.96554 14.29 6.06878 14.2174 6.1416 14.1445L9.93652 10.3506L10.9766 11.3906L10.7637 11.6035L7.2002 15.1445L7.12988 15.2305C7.06404 15.3175 7.01105 15.4092 6.97168 15.5059C6.9199 15.6331 6.89552 15.7605 6.89551 15.8896C6.89551 16.0893 6.96419 16.2562 7.11328 16.4053C7.26237 16.5543 7.42934 16.623 7.62891 16.623C7.7567 16.623 7.88691 16.5974 8.02051 16.543C8.15105 16.4897 8.2453 16.4214 8.31348 16.3438L12.3799 12.2773L13.4199 13.3174L13.207 13.5303L9.38184 17.333C9.30332 17.4236 9.23097 17.5387 9.16699 17.6816C9.10806 17.8134 9.08008 17.944 9.08008 18.0752C9.08015 18.2746 9.1488 18.4418 9.29785 18.5908C9.44684 18.7398 9.61395 18.8086 9.81348 18.8086C9.94257 18.8086 10.067 18.7832 10.1885 18.7324C10.31 18.6816 10.4172 18.6092 10.5117 18.5146L14.3525 14.6748L14.5645 14.4619L15.6045 15.502L15.3926 15.7148L11.5518 19.5547C11.4629 19.6436 11.3913 19.7554 11.3389 19.8955C11.2825 20.0463 11.2588 20.1741 11.2588 20.2812C11.2588 20.5129 11.3312 20.6745 11.4619 20.7959C11.6021 20.926 11.7726 20.9931 11.9922 20.9932C12.1149 20.9932 12.2454 20.9678 12.3857 20.9121C12.4872 20.8717 12.5665 20.8233 12.6279 20.7695L21.5469 11.8438C21.8143 11.5763 22.0205 11.3013 22.1689 11.0205C22.3093 10.7548 22.3809 10.4635 22.3809 10.1416C22.3808 9.81259 22.3087 9.49174 22.1621 9.17676C22.0132 8.85693 21.8094 8.56627 21.5479 8.30469L17.2197 3.97754C16.9548 3.71261 16.6855 3.52101 16.4131 3.39551C16.1462 3.27258 15.8472 3.20801 15.5117 3.20801C15.1835 3.20806 14.8827 3.27209 14.6055 3.39648C14.3273 3.52136 14.0632 3.71076 13.8154 3.97168L13.8105 3.97754L12.958 4.8291L14.9062 6.78223L14.9082 6.78418C15.1335 7.01439 15.3198 7.28914 15.4688 7.60352C15.6235 7.93014 15.7021 8.2725 15.7021 8.62793ZM14.8408 8.61719C14.8408 9.00589 14.69 9.34514 14.4062 9.62012C14.1284 9.88907 13.7985 10.0371 13.4258 10.0371C13.1652 10.0371 12.9172 9.98164 12.6865 9.87012C12.4708 9.76584 12.2808 9.63424 12.1201 9.47363L9.70508 7.05859L4.38379 12.3799C4.22167 12.5476 4.0919 12.7512 3.99414 12.9932C3.89627 13.2354 3.84863 13.4725 3.84863 13.7051C3.84873 14.2358 4.02927 14.6178 4.37402 14.8906C4.73804 15.1786 5.18203 15.3191 5.72363 15.2998L6.05078 15.2881L6.0332 15.6152C6.00089 16.2216 6.16382 16.6662 6.48926 16.9893C6.8178 17.3153 7.27824 17.4908 7.90918 17.4844L8.22168 17.4814L8.21289 17.793C8.19339 18.4341 8.37321 18.8877 8.71582 19.2012C9.07293 19.5279 9.52183 19.6871 10.0869 19.666L10.4238 19.6533L10.3965 19.9902C10.3521 20.5482 10.4991 20.9844 10.8193 21.3291C11.1495 21.6846 11.5358 21.8545 11.9941 21.8545C12.2512 21.8545 12.4906 21.8124 12.7139 21.7305C12.9222 21.654 13.1197 21.5216 13.3057 21.3232L13.3125 21.3154L22.1631 12.4658C22.5096 12.1193 22.7757 11.7522 22.9648 11.3652L23.0293 11.2227C23.1708 10.886 23.2422 10.5269 23.2422 10.1426C23.2422 9.70338 23.1489 9.26578 22.959 8.82812C22.7689 8.39037 22.5039 8.00207 22.1631 7.66113L17.8643 3.36133C17.5208 3.01786 17.1542 2.76734 16.7666 2.60254C16.3787 2.43763 15.9618 2.35352 15.5127 2.35352C15.0634 2.35353 14.6512 2.43751 14.2734 2.60156C13.8946 2.76613 13.5326 3.01716 13.1885 3.36133L12.125 4.4248L11.9131 4.6377L10.6367 3.36133C10.2926 3.01721 9.92946 2.76615 9.54883 2.60156C9.16922 2.43742 8.75669 2.35355 8.30762 2.35352C7.85836 2.35352 7.44168 2.43676 7.05566 2.60156C6.66973 2.76633 6.30454 3.01771 5.96094 3.36133L2.44531 6.87695C2.11012 7.2122 1.85452 7.59555 1.67676 8.02832C1.50055 8.45728 1.41862 8.91581 1.43164 9.40625L1.45312 9.71094C1.48625 10.0139 1.55341 10.3124 1.65625 10.6064C1.74713 10.8663 1.84981 11.0969 1.95898 11.3008L2.1748 11.0918C2.05537 10.8931 1.95315 10.6807 1.86816 10.4551C1.74664 10.1324 1.68755 9.79813 1.69238 9.4541C1.68291 8.98702 1.75672 8.55418 1.91895 8.16016C2.08071 7.76734 2.32098 7.41249 2.63672 7.09668L6.18262 3.54883L6.41406 3.33398C6.64886 3.1328 6.89418 2.97155 7.14941 2.85156C7.49692 2.68823 7.87703 2.6084 8.28516 2.6084C8.69885 2.6084 9.08751 2.68708 9.44629 2.84863C9.80146 3.00855 10.1323 3.24558 10.4395 3.55273L14.3008 7.41504C14.452 7.58236 14.5783 7.76287 14.6777 7.95605C14.7852 8.16489 14.8408 8.38637 14.8408 8.61719Z" fill="inherit"/>
</svg>
