<svg width="24" height="24" viewBox="0 0 24 24" fill="none" xmlns="http://www.w3.org/2000/svg">
<path d="M20.4606 4.83789L4.44047 20.3825C4.27347 20.5446 4.04697 20.6356 3.81079 20.6356C3.57461 20.6356 3.34811 20.5446 3.18111 20.3825C3.01411 20.2205 2.92029 20.0007 2.92029 19.7716C2.92029 19.5424 3.01411 19.3226 3.18111 19.1606L19.2012 3.61591C19.368 3.45386 19.5944 3.36277 19.8305 3.36266C20.0666 3.36256 20.293 3.45347 20.46 3.61537C20.627 3.77727 20.7209 3.99691 20.721 4.22597C20.7211 4.45504 20.6274 4.67476 20.4606 4.83681V4.83789ZM3.20336 9.13426C2.4523 8.40534 2.03041 7.41677 2.03052 6.38604C2.03062 5.35529 2.45271 4.36681 3.20392 3.63803C3.95512 2.90926 4.97393 2.4999 6.0362 2.5C7.09846 2.5001 8.11719 2.90966 8.86825 3.63858C9.61934 4.36749 10.0412 5.35605 10.0411 6.3868C10.041 7.41754 9.61889 8.40603 8.86769 9.1348C8.11648 9.86359 7.09768 10.2729 6.03541 10.2728C4.97314 10.2728 3.95442 9.86314 3.20336 9.13426ZM3.81079 6.38803C3.81108 6.74302 3.90157 7.09246 4.07426 7.40542C4.24694 7.71837 4.4965 7.98517 4.80081 8.18221C5.10513 8.37925 5.45482 8.50043 5.81893 8.53504C6.18303 8.56963 6.55031 8.51658 6.88824 8.38059C7.22618 8.24458 7.52433 8.02983 7.75631 7.75533C7.98829 7.48083 8.14693 7.15506 8.2182 6.80688C8.28946 6.45869 8.27114 6.09882 8.16486 5.75915C8.05858 5.41947 7.86762 5.11045 7.60889 4.85948C7.29758 4.5575 6.90096 4.35191 6.46921 4.26871C6.03745 4.18552 5.58996 4.22845 5.18337 4.39209C4.77676 4.55573 4.42932 4.83271 4.18499 5.188C3.94067 5.54329 3.81044 5.96091 3.81079 6.38803ZM21.6109 17.6147C21.6107 18.5138 21.2892 19.385 20.7012 20.0798C20.1132 20.7747 19.2952 21.2503 18.3864 21.4255C17.4776 21.6007 16.5343 21.4647 15.7172 21.0407C14.9001 20.6167 14.2598 19.931 13.9054 19.1003C13.551 18.2696 13.5044 17.3453 13.7736 16.485C14.0426 15.6247 14.6109 14.8816 15.3814 14.3822C16.1519 13.8828 17.077 13.6582 17.9992 13.7465C18.9212 13.8347 19.7832 14.2305 20.4383 14.8663C20.8114 15.2264 21.1071 15.6548 21.3084 16.1265C21.5097 16.5983 21.6125 17.1042 21.6109 17.6147ZM19.8309 17.6147C19.831 17.1152 19.6526 16.6311 19.3262 16.2449C18.9996 15.8588 18.5452 15.5944 18.0404 15.4969C17.5355 15.3993 17.0114 15.4746 16.5574 15.71C16.1033 15.9454 15.7475 16.3263 15.5504 16.7877C15.3533 17.2491 15.3272 17.7626 15.4766 18.2406C15.6259 18.7186 15.9415 19.1316 16.3694 19.4092C16.7974 19.6868 17.3113 19.8118 17.8236 19.7629C18.336 19.714 18.8149 19.4943 19.179 19.1411C19.3863 18.9412 19.5506 18.7033 19.6625 18.4413C19.7744 18.1793 19.8317 17.8983 19.8309 17.6147Z" fill="inherit"/>
</svg>
