<svg width="24" height="24" viewBox="0 0 24 24" fill="none" xmlns="http://www.w3.org/2000/svg">
<path d="M7.75452 2.32324C8.16103 2.15069 8.63051 2.34075 8.80334 2.74707C8.97598 3.15377 8.78622 3.62326 8.37952 3.7959C2.3392 6.36019 0.929883 14.3631 5.50354 18.7617C10.197 23.2735 18.4139 21.5675 20.9205 15.8027C21.0967 15.3979 21.5683 15.2119 21.9733 15.3877C22.3783 15.5638 22.5642 16.0353 22.3883 16.4404C19.4331 23.2373 9.88411 25.1929 4.39417 19.915C-1.0136 14.7144 0.666307 5.33227 7.75452 2.32324ZM12.4713 1.62598C13.1175 1.23947 13.7354 1.13371 14.4108 1.23926C15.0142 1.33369 15.6685 1.60248 16.3795 1.88867L16.9147 2.11914C18.1484 2.68544 19.2757 3.45444 20.2448 4.39453C21.3522 5.46916 22.2328 6.74702 22.8336 8.1543L23.0485 8.66113C23.2558 9.15949 23.4314 9.63293 23.5055 10.0791C23.6172 10.753 23.5035 11.3679 23.0992 12.0029L23.0934 12.0117C23.0662 12.0533 23.0168 12.1268 22.9791 12.1777L22.9781 12.1787C22.4976 12.8257 21.8729 13.1321 21.1276 13.2715C20.439 13.4002 19.5776 13.3965 18.5778 13.3965H16.2731C15.2477 13.3965 14.4002 13.3987 13.7311 13.3115C13.0414 13.2216 12.4206 13.0244 11.9205 12.54L11.9196 12.5391C11.4173 12.0506 11.2101 11.4392 11.1158 10.7588C11.0252 10.1036 11.027 9.27489 11.027 8.28125V6.04492C11.027 5.07806 11.0236 4.23438 11.1578 3.55859C11.3049 2.81939 11.6278 2.20843 12.2906 1.74414L12.2965 1.74023C12.3361 1.713 12.4097 1.66431 12.4606 1.63281L12.4703 1.62598H12.4713ZM14.1637 2.82031C13.8556 2.77219 13.6166 2.80545 13.2975 2.99512C13.2746 3.00953 13.2292 3.04143 13.2028 3.05957L13.2018 3.05859C12.9462 3.23946 12.8103 3.45325 12.7272 3.87109C12.6309 4.35608 12.6266 5.01309 12.6266 6.04492V8.28125C12.6266 9.32125 12.6289 10.0191 12.7008 10.5391C12.769 11.0319 12.8864 11.2467 13.0338 11.3906C13.1855 11.5376 13.4165 11.6567 13.9371 11.7246C14.4788 11.7952 15.2036 11.7969 16.2731 11.7969H18.5778C19.6392 11.7969 20.3252 11.7933 20.8336 11.6982C21.2288 11.6243 21.4492 11.507 21.6217 11.3125L21.693 11.2246C21.7059 11.207 21.7363 11.1626 21.7545 11.1348C21.9434 10.8349 21.9737 10.6204 21.9274 10.3408C21.8824 10.0698 21.768 9.75415 21.5778 9.29492L21.3619 8.7832C20.8455 7.57336 20.0873 6.47139 19.1305 5.54297C18.1736 4.61467 17.036 3.87668 15.7828 3.37305H15.7819C15.0067 3.06105 14.5455 2.88011 14.1637 2.82031Z" fill="inherit"/>
</svg>
