<svg width="24" height="24" viewBox="0 0 24 24" fill="none" xmlns="http://www.w3.org/2000/svg">
<path d="M10.504 15.3639L16.8281 9.25116L16.1551 8.58169L10.5503 14.0202L7.59309 11.1508L6.8812 11.8415L10.504 15.3639ZM11.8741 23C9.32243 22.2509 7.20545 20.735 5.52326 18.4521C3.84109 16.1694 3 13.6117 3 10.7793V4.21719L11.8741 1L20.7482 4.21719V10.7793C20.7482 13.6117 19.9072 16.1694 18.225 18.4521C16.5428 20.735 14.4258 22.2509 11.8741 23ZM11.8741 21.9923C14.1739 21.2763 16.0654 19.8723 17.5484 17.7803C19.0316 15.6884 19.7731 13.3547 19.7731 10.7793V4.87011L11.8741 1.99829L3.97517 4.87011V10.7793C3.97517 13.3547 4.71671 15.6884 6.19979 17.7803C7.68288 19.8723 9.57431 21.2763 11.8741 21.9923Z" fill="inherit" stroke="inherit" stroke-width="0.718637"/>
</svg>
