<svg width="24" height="24" viewBox="0 0 24 24" fill="none" xmlns="http://www.w3.org/2000/svg">
<path fill-rule="evenodd" clip-rule="evenodd" d="M3.40663 11.9996C4.64659 15.5523 8.02734 18.0996 12.0008 18.0996C15.9742 18.0996 19.355 15.5523 20.595 11.9996C19.355 8.44691 15.9742 5.89961 12.0008 5.89961C8.02734 5.89961 4.6466 8.44688 3.40663 11.9996ZM1.59995 11.7299C2.98865 7.30848 7.1188 4.09961 12.0008 4.09961C16.8828 4.09961 21.013 7.30852 22.4016 11.73C22.4568 11.9055 22.4568 12.0938 22.4016 12.2693C21.0129 16.6907 16.8828 19.8996 12.0008 19.8996C7.1188 19.8996 2.98863 16.6907 1.59995 12.2693C1.54481 12.0937 1.54481 11.9055 1.59995 11.7299ZM12.0003 9.89961C10.8405 9.89961 9.90034 10.8398 9.90034 11.9996C9.90034 13.1594 10.8405 14.0996 12.0003 14.0996C13.1601 14.0996 14.1003 13.1594 14.1003 11.9996C14.1003 10.8398 13.1601 9.89961 12.0003 9.89961ZM8.10034 11.9996C8.10034 9.8457 9.84643 8.09961 12.0003 8.09961C14.1543 8.09961 15.9003 9.8457 15.9003 11.9996C15.9003 14.1535 14.1543 15.8996 12.0003 15.8996C9.84643 15.8996 8.10034 14.1535 8.10034 11.9996Z" fill="inherit"/>
</svg>
