<svg width="24" height="24" viewBox="0 0 24 24" fill="none" xmlns="http://www.w3.org/2000/svg">
<path fill-rule="evenodd" clip-rule="evenodd" d="M7.76201 4.09961H16.2374C17.0455 4.0996 17.7063 4.09959 18.2434 4.14347C18.7993 4.18889 19.3014 4.28577 19.7703 4.52468C20.5041 4.89859 21.1007 5.49521 21.4746 6.22905C21.7136 6.69794 21.8104 7.20001 21.8559 7.75593C21.9103 8.42258 21.8997 9.09376 21.8997 9.76194V14.2373C21.8997 15.0453 21.8997 15.7062 21.8559 16.2433C21.8104 16.7992 21.7136 17.3013 21.4746 17.7702C21.1007 18.504 20.5041 19.1006 19.7703 19.4745C19.3014 19.7134 18.7993 19.8103 18.2434 19.8557C17.7063 19.8996 17.0455 19.8996 16.2374 19.8996H7.76205C6.95398 19.8996 6.29312 19.8996 5.75603 19.8557C5.20012 19.8103 4.69804 19.7134 4.22915 19.4745C3.49532 19.1006 2.8987 18.504 2.52479 17.7702C2.28588 17.3013 2.189 16.7992 2.14358 16.2433C2.09969 15.7062 2.0997 15.0454 2.09971 14.2373V9.76191C2.09971 9.09374 2.08911 8.42257 2.14358 7.75593C2.189 7.20001 2.28588 6.69794 2.52479 6.22905C2.89869 5.49521 3.49532 4.89859 4.22915 4.52468C4.69804 4.28577 5.20012 4.18889 5.75603 4.14347C6.29311 4.09959 6.95396 4.0996 7.76201 4.09961ZM3.89975 9.58354C3.89972 9.65361 3.89971 9.72561 3.89971 9.79961V14.1996C3.89971 15.0545 3.90041 15.6416 3.9376 16.0967C3.97392 16.5413 4.04053 16.7801 4.1286 16.953C4.32993 17.3481 4.65119 17.6694 5.04633 17.8707C5.21918 17.9588 5.45801 18.0254 5.90261 18.0617C6.35772 18.0989 6.94478 18.0996 7.79971 18.0996H16.1997C17.0546 18.0996 17.6417 18.0989 18.0968 18.0617C18.5414 18.0254 18.7802 17.9588 18.9531 17.8707C19.3482 17.6694 19.6695 17.3481 19.8708 16.953C19.9589 16.7801 20.0255 16.5413 20.0618 16.0967C20.099 15.6416 20.0997 15.0545 20.0997 14.1996V9.79961C20.0997 9.72821 20.0997 9.65869 20.0997 9.59095C19.6313 9.87052 19.0691 10.1983 18.4599 10.5375C16.8215 11.4498 14.728 12.5109 13.2094 12.8748C12.8733 12.9554 12.4018 12.9822 11.9997 12.9822C11.5977 12.9822 11.1261 12.9554 10.79 12.8748C9.32169 12.523 7.22667 11.4608 5.57912 10.5474C4.95547 10.2017 4.37872 9.86739 3.89975 9.58354ZM20.018 7.53468C19.91 7.60146 19.7854 7.678 19.6464 7.76256C19.1221 8.08156 18.3952 8.51331 17.5843 8.96484C15.9282 9.88693 14.0361 10.8258 12.79 11.1244C12.6666 11.154 12.3679 11.1822 11.9997 11.1822C11.6315 11.1822 11.3329 11.154 11.2094 11.1244C10.0148 10.8381 8.12418 9.90027 6.45186 8.97317C5.63394 8.51973 4.89696 8.08534 4.36424 7.76413C4.22108 7.67782 4.09283 7.59977 3.9819 7.53183C4.01912 7.31071 4.06894 7.16333 4.1286 7.04623C4.32993 6.65109 4.65119 6.32983 5.04633 6.1285C5.21918 6.04043 5.45801 5.97382 5.90261 5.93749C6.35772 5.90031 6.94479 5.89961 7.79971 5.89961H16.1997C17.0546 5.89961 17.6417 5.90031 18.0968 5.93749C18.5414 5.97382 18.7802 6.04043 18.9531 6.1285C19.3482 6.32983 19.6695 6.65109 19.8708 7.04623C19.9307 7.16383 19.9807 7.31197 20.018 7.53468Z" fill="inherit"/>
</svg>
