<svg width="24" height="24" viewBox="0 0 24 24" fill="none" xmlns="http://www.w3.org/2000/svg">
<path d="M11.2002 18.999V12.7988H5C4.55817 12.7988 4.2002 12.4409 4.2002 11.999C4.2002 11.5572 4.55817 11.1992 5 11.1992H11.2002V4.99902C11.2002 4.5572 11.5582 4.19922 12 4.19922C12.4418 4.19922 12.7998 4.5572 12.7998 4.99902V11.1992H19C19.4418 11.1992 19.7998 11.5572 19.7998 11.999C19.7998 12.4409 19.4418 12.7988 19 12.7988H12.7998V18.999C12.7998 19.4409 12.4418 19.7988 12 19.7988C11.5582 19.7988 11.2002 19.4409 11.2002 18.999Z" fill="inherit"/>
</svg>
