<svg width="24" height="24" viewBox="0 0 24 24" fill="none" xmlns="http://www.w3.org/2000/svg">
<path d="M17.75 7.5V6C17.75 4.34314 16.4068 3 14.75 3H5C3.34315 3 2 4.34314 2 6V18C2 19.6568 3.34315 21 5 21H18.5C20.1568 21 21.5 19.6568 21.5 18V10.5C21.5 8.84317 20.1568 7.5 18.5 7.5H5.375C4.75368 7.5 4.25 6.99632 4.25 6.375C4.25 5.75368 4.75368 5.25 5.375 5.25H14.5994" stroke="inherit" stroke-width="1.6" stroke-linecap="round"/>
<mask id="path-2-inside-1_101_8212" fill="white">
<path d="M11.375 14.3865C11.1679 14.3865 11 14.5544 11 14.7615C11 14.9686 11.1679 15.1365 11.375 15.1365V14.3865ZM19.1402 15.0267C19.2866 14.8802 19.2866 14.6428 19.1402 14.4963L16.7537 12.1099C16.6072 11.9634 16.3698 11.9634 16.2234 12.1099C16.0769 12.2563 16.0769 12.4937 16.2234 12.6402L18.3447 14.7615L16.2234 16.8828C16.0769 17.0293 16.0769 17.2667 16.2234 17.4131C16.3698 17.5596 16.6072 17.5596 16.7537 17.4131L19.1402 15.0267ZM11.375 15.1365H18.875V14.3865H11.375V15.1365Z"/>
</mask>
<path d="M11.375 14.3865C11.1679 14.3865 11 14.5544 11 14.7615C11 14.9686 11.1679 15.1365 11.375 15.1365V14.3865ZM19.1402 15.0267C19.2866 14.8802 19.2866 14.6428 19.1402 14.4963L16.7537 12.1099C16.6072 11.9634 16.3698 11.9634 16.2234 12.1099C16.0769 12.2563 16.0769 12.4937 16.2234 12.6402L18.3447 14.7615L16.2234 16.8828C16.0769 17.0293 16.0769 17.2667 16.2234 17.4131C16.3698 17.5596 16.6072 17.5596 16.7537 17.4131L19.1402 15.0267ZM11.375 15.1365H18.875V14.3865H11.375V15.1365Z" fill="white"/>
<path d="M11.375 15.1365H12.375V14.3865H11.375H10.375V15.1365H11.375ZM19.1402 15.0267L20.5544 16.4409L20.5548 16.4405L19.1402 15.0267ZM19.1402 14.4963L20.5548 13.0824L20.5544 13.082L19.1402 14.4963ZM16.7537 12.1099L15.3395 13.5241L15.3395 13.5241L16.7537 12.1099ZM16.2234 12.1099L17.6372 13.5244L17.638 13.5237L16.2234 12.1099ZM16.2234 12.6402L17.6376 11.226L16.2234 12.6402ZM18.3447 14.7615L19.7589 16.1757L21.1731 14.7615L19.7589 13.3473L18.3447 14.7615ZM16.2234 16.8828L14.8092 15.4686H14.8092L16.2234 16.8828ZM16.2234 17.4131L17.638 15.9993L17.6372 15.9985L16.2234 17.4131ZM16.7537 17.4131L15.3395 15.9989L15.3395 15.9989L16.7537 17.4131ZM18.875 15.1365V17.1365H20.875V15.1365H18.875ZM18.875 14.3865H20.875V12.3865H18.875V14.3865ZM11.375 14.3865V12.3865C10.0634 12.3865 9 13.4498 9 14.7615H11H13C13 15.659 12.2725 16.3865 11.375 16.3865V14.3865ZM11 14.7615H9C9 16.0731 10.0634 17.1365 11.375 17.1365V15.1365V13.1365C12.2725 13.1365 13 13.864 13 14.7615H11ZM19.1402 15.0267L20.5548 16.4405C21.4817 15.5131 21.4817 14.0099 20.5548 13.0824L19.1402 14.4963L17.7256 15.9101C17.0915 15.2756 17.0915 14.2473 17.7256 13.6128L19.1402 15.0267ZM19.1402 14.4963L20.5544 13.082L18.1679 10.6956L16.7537 12.1099L15.3395 13.5241L17.726 15.9105L19.1402 14.4963ZM16.7537 12.1099L18.1679 10.6956C17.2406 9.76832 15.7365 9.7678 14.8088 10.696L16.2234 12.1099L17.638 13.5237C17.003 14.159 15.9739 14.1584 15.3395 13.5241L16.7537 12.1099ZM16.2234 12.1099L14.8095 10.6953C13.8813 11.623 13.8818 13.1271 14.8092 14.0544L16.2234 12.6402L17.6376 11.226C18.272 11.8603 18.2725 12.8895 17.6372 13.5244L16.2234 12.1099ZM16.2234 12.6402L14.8092 14.0544L16.9305 16.1757L18.3447 14.7615L19.7589 13.3473L17.6376 11.226L16.2234 12.6402ZM18.3447 14.7615L16.9305 13.3473L14.8092 15.4686L16.2234 16.8828L17.6376 18.297L19.7589 16.1757L18.3447 14.7615ZM16.2234 16.8828L14.8092 15.4686C13.8818 16.3959 13.8813 17.9 14.8095 18.8277L16.2234 17.4131L17.6372 15.9985C18.2725 16.6335 18.272 17.6626 17.6376 18.297L16.2234 16.8828ZM16.2234 17.4131L14.8088 18.827C15.7365 19.7552 17.2406 19.7546 18.1679 18.8273L16.7537 17.4131L15.3395 15.9989C15.9739 15.3645 17.003 15.364 17.638 15.9993L16.2234 17.4131ZM16.7537 17.4131L18.1679 18.8273L20.5544 16.4409L19.1402 15.0267L17.726 13.6124L15.3395 15.9989L16.7537 17.4131ZM11.375 15.1365V17.1365H18.875V15.1365V13.1365H11.375V15.1365ZM18.875 15.1365H20.875V14.3865H18.875H16.875V15.1365H18.875ZM18.875 14.3865V12.3865H11.375V14.3865V16.3865H18.875V14.3865Z" fill="inherit" mask="url(#path-2-inside-1_101_8212)"/>
</svg>
