<svg width="24" height="24" viewBox="0 0 24 24" fill="none" xmlns="http://www.w3.org/2000/svg">
<path d="M21.6 12.0004C21.6 17.3023 17.302 21.6004 12 21.6004C6.69809 21.6004 2.40002 17.3023 2.40002 12.0004C2.40002 6.69846 6.69809 2.40039 12 2.40039C17.302 2.40039 21.6 6.69846 21.6 12.0004Z" fill="#DADDE2"/>
<path fill-rule="evenodd" clip-rule="evenodd" d="M7.7636 7.7636C8.11508 7.41213 8.68492 7.41213 9.0364 7.7636L12 10.7272L14.9636 7.7636C15.3151 7.41213 15.8849 7.41213 16.2364 7.7636C16.5879 8.11508 16.5879 8.68492 16.2364 9.0364L13.2728 12L16.2364 14.9636C16.5879 15.3151 16.5879 15.8849 16.2364 16.2364C15.8849 16.5879 15.3151 16.5879 14.9636 16.2364L12 13.2728L9.0364 16.2364C8.68492 16.5879 8.11508 16.5879 7.7636 16.2364C7.41213 15.8849 7.41213 15.3151 7.7636 14.9636L10.7272 12L7.7636 9.0364C7.41213 8.68492 7.41213 8.11508 7.7636 7.7636Z" fill="inherit"/>
</svg>
