<svg width="20" height="20" viewBox="0 0 20 20" fill="none" xmlns="http://www.w3.org/2000/svg">
<path fill-rule="evenodd" clip-rule="evenodd" d="M11.5 1C11.8082 1.13536 11.6236 2.27286 11.576 2.60611L10.865 7.58338L15.0085 7.58338C15.2523 7.58335 15.484 7.58332 15.6704 7.60022C15.8496 7.61648 16.1437 7.65726 16.3948 7.85903C16.693 8.0987 16.8651 8.46175 16.8617 8.84434C16.8589 9.16642 16.7042 9.41987 16.6033 9.56889C16.4983 9.72387 16.3516 9.90314 16.1972 10.0919L9.74735 17.975C9.53418 18.2355 8.80822 19.1354 8.5 19C8.19178 18.8646 8.37681 17.7272 8.42442 17.394L9.13546 12.4167L4.99194 12.4167C4.74809 12.4167 4.51646 12.4168 4.33005 12.3999C4.15081 12.3836 3.8567 12.3428 3.60564 12.1411C3.30741 11.9014 3.13536 11.5383 3.13872 11.1557C3.14155 10.8337 3.29622 10.5802 3.39714 10.4312C3.50211 10.2762 3.64881 10.097 3.80325 9.90824L10.2531 2.02512C10.4663 1.76457 11.1918 0.864637 11.5 1Z" fill="#1E2023"/>
</svg>
