<svg width="24" height="24" viewBox="0 0 24 24" fill="none" xmlns="http://www.w3.org/2000/svg">
<g clip-path="url(#clip0_159_32596)">
<path d="M23 22.0001V9.50014C23.0001 9.40222 22.9714 9.30643 22.9176 9.22465C22.8637 9.14288 22.787 9.07872 22.697 9.04014L15.697 6.04014C15.6209 6.00752 15.5379 5.99431 15.4555 6.00168C15.373 6.00905 15.2937 6.03678 15.2246 6.08238C15.1555 6.12798 15.0988 6.19002 15.0596 6.26293C15.0204 6.33585 14.9999 6.41735 15 6.50014V22.0001H14V0.750136C14 0.628608 13.9705 0.508894 13.914 0.4013C13.8575 0.293706 13.7757 0.201453 13.6756 0.132483C13.5756 0.0635128 13.4603 0.0198908 13.3396 0.00537183C13.2189 -0.00914716 13.0966 0.0058717 12.983 0.0491357L2.483 4.04914C2.34093 4.10326 2.21866 4.19928 2.13241 4.32447C2.04615 4.44966 1.99997 4.59811 2 4.75014V22.0001H1C0.734784 22.0001 0.48043 22.1055 0.292893 22.293C0.105357 22.4806 0 22.7349 0 23.0001C0 23.2654 0.105357 23.5197 0.292893 23.7072C0.48043 23.8948 0.734784 24.0001 1 24.0001H23C23.2652 24.0001 23.5196 23.8948 23.7071 23.7072C23.8946 23.5197 24 23.2654 24 23.0001C24 22.7349 23.8946 22.4806 23.7071 22.293C23.5196 22.1055 23.2652 22.0001 23 22.0001ZM20 12.7501C20 12.5512 20.079 12.3605 20.2197 12.2198C20.3603 12.0792 20.5511 12.0001 20.75 12.0001C20.9489 12.0001 21.1397 12.0792 21.2803 12.2198C21.421 12.3605 21.5 12.5512 21.5 12.7501V14.2501C21.5 14.449 21.421 14.6398 21.2803 14.7805C21.1397 14.9211 20.9489 15.0001 20.75 15.0001C20.5511 15.0001 20.3603 14.9211 20.2197 14.7805C20.079 14.6398 20 14.449 20 14.2501V12.7501ZM20 18.7501C20 18.5512 20.079 18.3605 20.2197 18.2198C20.3603 18.0792 20.5511 18.0001 20.75 18.0001C20.9489 18.0001 21.1397 18.0792 21.2803 18.2198C21.421 18.3605 21.5 18.5512 21.5 18.7501V20.2501C21.5 20.4491 21.421 20.6398 21.2803 20.7805C21.1397 20.9211 20.9489 21.0001 20.75 21.0001C20.5511 21.0001 20.3603 20.9211 20.2197 20.7805C20.079 20.6398 20 20.4491 20 20.2501V18.7501ZM16.5 12.7501C16.5 12.5512 16.579 12.3605 16.7197 12.2198C16.8603 12.0792 17.0511 12.0001 17.25 12.0001C17.4489 12.0001 17.6397 12.0792 17.7803 12.2198C17.921 12.3605 18 12.5512 18 12.7501V14.2501C18 14.449 17.921 14.6398 17.7803 14.7805C17.6397 14.9211 17.4489 15.0001 17.25 15.0001C17.0511 15.0001 16.8603 14.9211 16.7197 14.7805C16.579 14.6398 16.5 14.449 16.5 14.2501V12.7501ZM16.5 18.7501C16.5 18.5512 16.579 18.3605 16.7197 18.2198C16.8603 18.0792 17.0511 18.0001 17.25 18.0001C17.4489 18.0001 17.6397 18.0792 17.7803 18.2198C17.921 18.3605 18 18.5512 18 18.7501V20.2501C18 20.4491 17.921 20.6398 17.7803 20.7805C17.6397 20.9211 17.4489 21.0001 17.25 21.0001C17.0511 21.0001 16.8603 20.9211 16.7197 20.7805C16.579 20.6398 16.5 20.4491 16.5 20.2501V18.7501ZM9.5 6.75014C9.5 6.55122 9.57902 6.36046 9.71967 6.21981C9.86032 6.07915 10.0511 6.00014 10.25 6.00014C10.4489 6.00014 10.6397 6.07915 10.7803 6.21981C10.921 6.36046 11 6.55122 11 6.75014V8.25014C11 8.44905 10.921 8.63981 10.7803 8.78047C10.6397 8.92112 10.4489 9.00014 10.25 9.00014C10.0511 9.00014 9.86032 8.92112 9.71967 8.78047C9.57902 8.63981 9.5 8.44905 9.5 8.25014V6.75014ZM9.5 12.7501C9.5 12.5512 9.57902 12.3605 9.71967 12.2198C9.86032 12.0792 10.0511 12.0001 10.25 12.0001C10.4489 12.0001 10.6397 12.0792 10.7803 12.2198C10.921 12.3605 11 12.5512 11 12.7501V14.2501C11 14.449 10.921 14.6398 10.7803 14.7805C10.6397 14.9211 10.4489 15.0001 10.25 15.0001C10.0511 15.0001 9.86032 14.9211 9.71967 14.7805C9.57902 14.6398 9.5 14.449 9.5 14.2501V12.7501ZM9.5 18.7501C9.5 18.5512 9.57902 18.3605 9.71967 18.2198C9.86032 18.0792 10.0511 18.0001 10.25 18.0001C10.4489 18.0001 10.6397 18.0792 10.7803 18.2198C10.921 18.3605 11 18.5512 11 18.7501V20.2501C11 20.4491 10.921 20.6398 10.7803 20.7805C10.6397 20.9211 10.4489 21.0001 10.25 21.0001C10.0511 21.0001 9.86032 20.9211 9.71967 20.7805C9.57902 20.6398 9.5 20.4491 9.5 20.2501V18.7501ZM5 6.75014C5 6.55122 5.07902 6.36046 5.21967 6.21981C5.36032 6.07915 5.55109 6.00014 5.75 6.00014C5.94891 6.00014 6.13968 6.07915 6.28033 6.21981C6.42098 6.36046 6.5 6.55122 6.5 6.75014V8.25014C6.5 8.44905 6.42098 8.63981 6.28033 8.78047C6.13968 8.92112 5.94891 9.00014 5.75 9.00014C5.55109 9.00014 5.36032 8.92112 5.21967 8.78047C5.07902 8.63981 5 8.44905 5 8.25014V6.75014ZM5 12.7501C5 12.5512 5.07902 12.3605 5.21967 12.2198C5.36032 12.0792 5.55109 12.0001 5.75 12.0001C5.94891 12.0001 6.13968 12.0792 6.28033 12.2198C6.42098 12.3605 6.5 12.5512 6.5 12.7501V14.2501C6.5 14.449 6.42098 14.6398 6.28033 14.7805C6.13968 14.9211 5.94891 15.0001 5.75 15.0001C5.55109 15.0001 5.36032 14.9211 5.21967 14.7805C5.07902 14.6398 5 14.449 5 14.2501V12.7501ZM5 18.7501C5 18.5512 5.07902 18.3605 5.21967 18.2198C5.36032 18.0792 5.55109 18.0001 5.75 18.0001C5.94891 18.0001 6.13968 18.0792 6.28033 18.2198C6.42098 18.3605 6.5 18.5512 6.5 18.7501V20.2501C6.5 20.4491 6.42098 20.6398 6.28033 20.7805C6.13968 20.9211 5.94891 21.0001 5.75 21.0001C5.55109 21.0001 5.36032 20.9211 5.21967 20.7805C5.07902 20.6398 5 20.4491 5 20.2501V18.7501Z" fill="#1E2023"/>
</g>
<defs>
<clipPath id="clip0_159_32596">
<rect width="24" height="24" fill="white"/>
</clipPath>
</defs>
</svg>
