<svg width="24" height="24" viewBox="0 0 24 24" fill="none" xmlns="http://www.w3.org/2000/svg">
<path d="M20.3997 6.12006C20.3997 7.37994 19.454 8.53455 18.2994 8.74507V4.64968H20.3997V6.12006ZM3.60032 6.12006V4.64968H5.70065V8.74507C4.54604 8.42929 3.60032 7.37994 3.60032 6.12006ZM13.1562 7.34431L15.229 7.65685C15.3294 7.67142 15.4088 7.73944 15.4395 7.8366C15.4703 7.93376 15.446 8.03416 15.3732 8.10541L13.8866 9.55637L14.2299 11.6243C14.2461 11.7247 14.2072 11.8203 14.1246 11.8802C14.042 11.9401 13.94 11.9466 13.8493 11.8996L12.0097 10.9345L10.1491 11.9012C10.0584 11.9482 9.95635 11.9401 9.87377 11.8802C9.79118 11.8203 9.75231 11.7247 9.77013 11.6243L10.1199 9.5758L8.62523 8.10541C8.55236 8.03416 8.52807 7.93376 8.56046 7.8366C8.59284 7.73944 8.67057 7.67304 8.77259 7.65847L10.8292 7.35888L11.7668 5.48365C11.8122 5.39297 11.8996 5.33791 12.0016 5.33791C12.1036 5.33791 12.1911 5.39297 12.2364 5.48365L13.1562 7.34593V7.34431ZM21.4506 2.54935H18.301V1.5H5.70065V2.54935H2.54935C1.91942 2.54935 1.5 2.96877 1.5 3.5987V6.11845C1.5 8.53293 3.28455 10.528 5.70065 10.8438V10.949C5.70065 13.9934 7.80097 16.5148 10.6365 17.1447L9.9013 19.3503H7.48681C7.0674 19.3503 6.64636 19.6661 6.5411 20.0855L5.70065 22.5H18.301L17.4605 20.0855C17.3553 19.6661 16.9358 19.3503 16.5148 19.3503H14.1003L13.3651 17.1447C16.2006 16.5148 18.2994 13.9951 18.2994 10.949V10.8438C20.7138 10.528 22.5 8.53455 22.5 6.11845V3.5987C22.5 2.96877 22.0806 2.54935 21.4506 2.54935Z" fill="black"/>
</svg>
