<svg width="24" height="24" viewBox="0 0 24 24" fill="none" xmlns="http://www.w3.org/2000/svg">
<path fill-rule="evenodd" clip-rule="evenodd" d="M19.6194 15.2494C19.5455 15.2248 19.4767 15.1845 19.4172 15.1309C19.3576 15.0773 19.3084 15.0115 19.2725 14.9372C19.2365 14.8628 19.2144 14.7815 19.2076 14.6979C19.2007 14.6143 19.2091 14.53 19.2324 14.45C19.2557 14.3699 19.2934 14.2957 19.3433 14.2315C19.3931 14.1673 19.4542 14.1145 19.523 14.0761C19.5918 14.0376 19.6669 14.0144 19.744 14.0076C19.8211 14.0008 19.8987 14.0107 19.9723 14.0366L20.303 14.1708L20.3034 14.17C20.3319 14.1824 20.3608 14.1945 20.389 14.2074L20.3894 14.2065L20.8935 14.4282L20.896 14.4293C21.0419 14.4868 21.1609 14.6048 21.2267 14.7574C21.2925 14.9101 21.2997 15.0848 21.2467 15.2432C21.1938 15.4016 21.085 15.5306 20.9443 15.602C20.8037 15.6734 20.6426 15.6812 20.4967 15.6237L20.4942 15.6227L19.9491 15.3862L19.9493 15.3853L19.8677 15.3496L19.868 15.3487L19.6232 15.2508C19.6219 15.2502 19.6207 15.2498 19.6194 15.2494ZM21.8876 16.4468C21.8226 16.4024 21.7662 16.3445 21.7218 16.2764C21.6774 16.2083 21.6457 16.1314 21.6287 16.0501C21.6117 15.9687 21.6096 15.8845 21.6225 15.8023C21.6355 15.7201 21.6632 15.6414 21.7042 15.5708C21.8886 15.253 22.2509 15.1803 22.5646 15.4092C23.3189 15.9596 23.5485 16.2229 23.9359 17.0441C23.9709 17.1183 23.992 17.1992 23.9981 17.2823C24.0043 17.3653 23.9952 17.4489 23.9716 17.5281C23.948 17.6074 23.9102 17.6808 23.8604 17.7442C23.8106 17.8077 23.7498 17.8598 23.6814 17.8977C23.613 17.9356 23.5385 17.9586 23.4619 17.9652C23.3854 17.9718 23.3084 17.9621 23.2354 17.9364C23.1623 17.9108 23.0947 17.8698 23.0362 17.8157C22.9778 17.7617 22.9297 17.6957 22.8948 17.6215C22.6117 17.0216 22.4626 16.8414 21.8876 16.4468ZM22.8125 19.2273C22.8534 19.1567 22.9068 19.0956 22.9696 19.0474C23.0323 18.9992 23.1032 18.9648 23.1782 18.9464C23.2531 18.9279 23.3307 18.9256 23.4065 18.9397C23.4823 18.9537 23.5548 18.9838 23.6198 19.0283C23.9001 19.2198 23.9785 19.6043 23.7871 19.9321L23.7876 19.9324C23.3305 20.7042 22.6078 21.3132 21.8337 21.7903C21.7668 21.8322 21.6929 21.8593 21.6163 21.8701C21.5397 21.8808 21.4619 21.8751 21.3874 21.8531C21.3129 21.8311 21.2431 21.7933 21.1821 21.7419C21.1211 21.6905 21.0701 21.6265 21.032 21.5536C20.9938 21.4808 20.9694 21.4004 20.96 21.3172C20.9506 21.234 20.9565 21.1497 20.9773 21.069C20.9981 20.9883 21.0334 20.9128 21.0812 20.847C21.129 20.7812 21.1883 20.7263 21.2558 20.6854C21.8634 20.3109 22.4498 19.8393 22.8015 19.2455L22.8019 19.2458L22.8125 19.2273ZM19.4126 21.5648C19.5589 21.5144 19.7176 21.5282 19.8546 21.6034C19.9917 21.6786 20.096 21.8091 20.1453 21.9668C20.1946 22.1246 20.1848 22.2971 20.1182 22.4472C20.0515 22.5972 19.9332 22.7129 19.7888 22.7694C19.0639 23.0363 18.4002 23.2334 17.6394 23.4095C17.4884 23.4415 17.3319 23.4079 17.2036 23.3158C17.0752 23.2237 16.9854 23.0805 16.9535 22.9172C16.9216 22.7539 16.9502 22.5835 17.033 22.4428C17.1158 22.3022 17.2463 22.2025 17.3963 22.1653C18.078 22.0074 18.7726 21.801 19.4126 21.5648ZM15.2688 22.5455C16.0095 22.4506 16.2308 23.7067 15.3476 23.817C14.5993 23.9104 13.9164 23.9687 13.1353 23.9996C13.0585 24.0025 12.9819 23.989 12.9099 23.9599C12.8379 23.9307 12.7719 23.8864 12.7157 23.8295C12.6595 23.7727 12.6141 23.7044 12.5822 23.6285C12.5503 23.5526 12.5325 23.4707 12.5298 23.3874C12.5271 23.304 12.5395 23.2209 12.5664 23.1428C12.5933 23.0647 12.6341 22.9931 12.6865 22.9321C12.7389 22.8711 12.8019 22.8218 12.8718 22.7872C12.9417 22.7526 13.0172 22.7333 13.094 22.7304C13.7657 22.7037 14.5922 22.6355 15.2688 22.5455ZM10.8958 22.7301C10.9726 22.733 11.0481 22.7523 11.1181 22.7869C11.188 22.8215 11.2509 22.8708 11.3033 22.9318C11.3557 22.9928 11.3965 23.0644 11.4234 23.1425C11.4503 23.2206 11.4627 23.3037 11.46 23.387C11.4573 23.4704 11.4395 23.5523 11.4076 23.6282C11.3757 23.704 11.3304 23.7723 11.2742 23.8292C11.2179 23.886 11.1519 23.9303 11.08 23.9595C11.008 23.9886 10.9314 24.0022 10.8546 23.9992C10.0893 23.9697 9.32549 23.9056 8.56513 23.807C8.48805 23.798 8.41338 23.7724 8.34545 23.7319C8.27752 23.6914 8.21766 23.6366 8.16935 23.5708C8.12103 23.505 8.08522 23.4295 8.06397 23.3486C8.04272 23.2677 8.03646 23.183 8.04556 23.0995C8.05465 23.0159 8.07892 22.9352 8.11695 22.8619C8.15499 22.7886 8.20604 22.7242 8.26715 22.6724C8.32826 22.6206 8.39822 22.5825 8.47299 22.5603C8.54776 22.538 8.62585 22.5321 8.70274 22.5428C9.43123 22.6364 10.1628 22.6989 10.8958 22.7301ZM6.58747 22.1634C6.73953 22.1984 6.87255 22.2975 6.95727 22.4389C7.04199 22.5803 7.07148 22.7524 7.03923 22.9174C7.00699 23.0824 6.91567 23.2268 6.78535 23.3187C6.65503 23.4106 6.49639 23.4426 6.34433 23.4076C5.61474 23.2386 4.83637 23.0084 4.14371 22.7468C4.07059 22.7198 4.00311 22.6774 3.94517 22.622C3.88723 22.5666 3.83996 22.4992 3.80611 22.4239C3.77225 22.3486 3.75247 22.2667 3.7479 22.1831C3.74333 22.0994 3.75407 22.0156 3.77949 21.9364C3.80492 21.8573 3.84452 21.7844 3.89603 21.7219C3.94754 21.6595 4.00993 21.6087 4.07961 21.5725C4.14928 21.5364 4.22487 21.5155 4.302 21.5112C4.37914 21.5069 4.4563 21.5191 4.52904 21.5473C5.18979 21.7969 5.87635 21.9974 6.58747 22.1634ZM2.73267 20.6844C2.86654 20.7682 2.96444 20.9061 3.00501 21.0679C3.04559 21.2297 3.02555 21.4024 2.94927 21.5482C2.87299 21.6941 2.74665 21.8013 2.59781 21.8465C2.44898 21.8916 2.28971 21.8711 2.15477 21.7894C1.35569 21.2968 0.615248 20.6707 0.165011 19.8646C0.0863486 19.7208 0.0632203 19.5491 0.10066 19.3869C0.138099 19.2246 0.233076 19.085 0.36492 18.9984C0.496764 18.9117 0.654804 18.8851 0.804645 18.9243C0.954485 18.9635 1.084 19.0653 1.165 19.2076C1.49519 19.7991 2.13397 20.3152 2.73267 20.6844ZM1.10305 17.6063C1.03128 17.7555 0.907835 17.8676 0.759879 17.918C0.611923 17.9684 0.451573 17.953 0.314104 17.8751C0.176635 17.7972 0.0733072 17.6633 0.0268524 17.5028C-0.0196024 17.3422 -0.00537926 17.1682 0.0663929 17.019C0.378026 16.3723 0.877931 15.8405 1.44821 15.3951C1.51056 15.3464 1.58113 15.3115 1.65591 15.2924C1.73068 15.2733 1.80818 15.2704 1.884 15.2838C1.95982 15.2972 2.03246 15.3267 2.09777 15.3706C2.16309 15.4144 2.21981 15.4718 2.26468 15.5395C2.30956 15.6071 2.34171 15.6837 2.35931 15.7649C2.37691 15.846 2.37961 15.9301 2.36725 16.0124C2.3549 16.0946 2.32773 16.1735 2.28731 16.2443C2.24688 16.3152 2.19398 16.3767 2.13164 16.4254C1.72434 16.7435 1.32144 17.1539 1.10305 17.6063ZM3.4446 15.5952C3.29861 15.652 3.13782 15.6435 2.99761 15.5716C2.85739 15.4997 2.74924 15.3703 2.69694 15.2119C2.64464 15.0535 2.65248 14.879 2.71874 14.7269C2.78499 14.5747 2.90423 14.4574 3.05022 14.4006L4.03443 14.0275L4.03649 14.0268C4.18332 13.979 4.34156 13.9956 4.47722 14.0731C4.61287 14.1505 4.71512 14.2826 4.762 14.441C4.80887 14.5994 4.79664 14.7714 4.72792 14.92C4.6592 15.0687 4.53948 15.1822 4.39448 15.2362L4.39277 15.2368L3.4446 15.5952Z" fill="#1E2023"/>
<path fill-rule="evenodd" clip-rule="evenodd" d="M20 8C20 12.4183 16 16 12 20C8 16 4 12.4183 4 8C4 3.58172 7.58172 0 12 0C16.4183 0 20 3.58172 20 8ZM12 11C13.6569 11 15 9.65685 15 8C15 6.34315 13.6569 5 12 5C10.3431 5 9 6.34315 9 8C9 9.65685 10.3431 11 12 11Z" fill="#1E2023"/>
</svg>
