<svg width="24" height="24" viewBox="0 0 24 24" fill="none" xmlns="http://www.w3.org/2000/svg">
<path d="M20.4 13.1992H17.4C16.08 15.3592 14.52 17.3992 13.8 18.2392L11.88 20.6392L9.96 18.2392C9.24 17.2792 7.8 15.3592 6.36 13.1992H3.6L0 23.9992H24L20.4 13.1992Z" fill="#1E2023"/>
<path d="M12 0C8.64 0 6 2.64 6 5.88C6 9.12 12 16.8 12 16.8C12 16.8 18 9.12 18 5.88C18 2.64 15.36 0 12 0ZM12 8.4C10.68 8.4 9.6 7.32 9.6 6C9.6 4.68 10.68 3.6 12 3.6C13.32 3.6 14.4 4.68 14.4 6C14.4 7.32 13.32 8.4 12 8.4Z" fill="#1E2023"/>
</svg>
