<svg width="24" height="24" viewBox="0 0 24 24" fill="none" xmlns="http://www.w3.org/2000/svg">
<g clip-path="url(#clip0_877_7377)">
<path d="M12.6499 10C11.8249 7.67 9.60988 6 6.99988 6C3.68488 6 0.999878 8.685 0.999878 12C0.999878 15.315 3.68488 18 6.99988 18C9.60988 18 11.8249 16.33 12.6499 14H16.9999V18H20.9999V14H22.9999V10H12.6499ZM6.99988 14C5.89488 14 4.99988 13.105 4.99988 12C4.99988 10.895 5.89488 10 6.99988 10C8.10488 10 8.99988 10.895 8.99988 12C8.99988 13.105 8.10488 14 6.99988 14Z" fill="#1E2023"/>
</g>
<defs>
<clipPath id="clip0_877_7377">
<rect width="24" height="24" fill="white"/>
</clipPath>
</defs>
</svg>
