<svg width="24" height="24" viewBox="0 0 24 24" fill="none" xmlns="http://www.w3.org/2000/svg">
<g clip-path="url(#clip0_159_32589)">
<path d="M23.7488 14.0229C22.7871 13.216 21.5165 13.0139 20.4019 13.3745C20.5289 12.8782 20.6114 12.3716 20.6485 11.8607C22.2627 11.5431 23.4844 10.1176 23.4844 8.41159V6.53659C23.4844 6.14828 23.1696 5.83347 22.7813 5.83347C21.5342 5.83347 20.4376 6.48667 19.8133 7.46833C19.5921 7.00846 19.3308 6.56901 19.0323 6.15508C20.0667 4.87408 20.087 2.99528 18.9897 1.68761L17.7845 0.251218C17.5349 -0.046251 17.0914 -0.0850635 16.7939 0.164546C16.0745 0.768155 15.6333 1.6158 15.5515 2.55128C15.4696 3.48681 15.757 4.39816 16.3606 5.1175L17.5659 6.55384L17.5663 6.55389L17.5639 6.5559C18.6613 7.86236 19.2657 9.52023 19.2657 11.2241C19.2657 15.2304 16.0063 18.4898 12 18.4898C7.99367 18.4898 4.73426 15.2304 4.73426 11.2241C4.73426 9.52019 5.33867 7.86236 6.43606 6.5559L6.43367 6.55389L6.43414 6.55384L7.63939 5.1175C8.243 4.39816 8.53034 3.48676 8.4485 2.55128C8.36665 1.6158 7.92542 0.768202 7.20603 0.164546C6.90856 -0.0851104 6.46503 -0.0462979 6.21546 0.251218L5.01021 1.68756C4.40661 2.40695 4.11921 3.3183 4.2011 4.25378C4.26293 4.96042 4.53012 5.61676 4.96704 6.15583C4.66883 6.56952 4.40768 7.00871 4.18662 7.46828C3.56234 6.48662 2.46565 5.83342 1.21864 5.83342C0.830324 5.83342 0.515511 6.14823 0.515511 6.53655V8.41155C0.515511 10.1176 1.73717 11.5431 3.3515 11.8607C3.3886 12.3723 3.47127 12.8795 3.59853 13.3765C2.48379 13.0157 1.21306 13.2176 0.251183 14.0247C-0.0462857 14.2743 -0.0850982 14.7178 0.164511 15.0153L1.36976 16.4517C2.47146 17.7647 4.33568 18.0679 5.77929 17.2594C6.71384 18.2224 7.86912 18.9697 9.16287 19.4189C7.96939 20.2945 7.19295 21.7066 7.19295 23.2969C7.19295 23.6852 7.50776 24 7.89607 24H16.104C16.4923 24 16.8071 23.6852 16.8071 23.2969C16.8071 21.7066 16.0307 20.2945 14.8372 19.4189C16.1314 18.9696 17.2872 18.2218 18.2219 17.2583C19.6653 18.0659 21.5288 17.7625 22.6302 16.4499L23.8355 15.0135C24.0851 14.716 24.0463 14.2725 23.7488 14.0229Z" fill="black"/>
<path d="M10.6874 9.60942H11.1561V14.7657C11.1561 15.5424 11.7858 16.172 12.5624 16.172C13.339 16.172 13.9686 15.5423 13.9686 14.7657V8.20313C13.9686 7.42645 13.339 6.79688 12.5624 6.79688H10.6874C9.91071 6.79688 9.28113 7.4265 9.28113 8.20313C9.28113 8.97975 9.91075 9.60942 10.6874 9.60942Z" fill="black"/>
</g>
<defs>
<clipPath id="clip0_159_32589">
<rect width="24" height="24" fill="white"/>
</clipPath>
</defs>
</svg>
