<svg width="24" height="24" viewBox="0 0 24 24" fill="none" xmlns="http://www.w3.org/2000/svg">
<path d="M22.1598 20.3921L19.0183 14.9928C19.5619 14.827 20.141 14.6805 20.3816 14.265C20.7827 13.5727 20.0688 12.4371 20.2563 11.695C20.4493 10.9313 21.5892 10.2705 21.5892 9.49422C21.5892 8.73791 20.4108 7.85435 20.2175 7.09512C20.0288 6.35322 20.7405 5.21632 20.3382 4.52487C19.9359 3.83336 18.5958 3.89017 18.0442 3.35938C17.4767 2.81314 17.4784 1.47668 16.7938 1.11063C16.1065 0.743206 14.9894 1.48576 14.2262 1.30987C13.4717 1.13599 12.7976 0 12.0095 0C11.2098 0 9.93771 1.2886 9.7382 1.33497C8.97541 1.51229 7.85687 0.771549 7.17022 1.14053C6.48629 1.50782 6.49051 2.84441 5.92398 3.39155C5.37327 3.92332 4.03318 3.86897 3.63209 4.56126C3.23108 5.25342 3.9449 6.38882 3.75753 7.13125C3.56964 7.87556 2.39013 8.62973 2.39013 9.49052C2.39013 10.2669 3.5328 10.9256 3.72705 11.6889C3.91585 12.4309 3.20416 13.5676 3.60648 14.2593C3.8255 14.6358 4.32244 14.7904 4.81873 14.939C4.87665 14.9563 4.9862 15.0211 4.912 15.1292L1.83968 20.4317C1.62228 20.8068 1.79882 21.1284 2.23188 21.1466L4.35163 21.235C4.78468 21.2532 5.32793 21.5679 5.55909 21.9345L6.69021 23.7294C6.92136 24.0961 7.28813 24.0892 7.50547 23.7141C7.50547 23.7141 10.6703 18.2501 10.6716 18.2485C10.7351 18.1743 10.799 18.1896 10.8295 18.2155C11.1758 18.5104 11.6585 18.8045 12.0614 18.8045C12.4565 18.8045 12.8224 18.5276 13.1843 18.2188C13.2137 18.1937 13.2854 18.1423 13.3378 18.2491C13.3387 18.2507 16.5 23.6849 16.5 23.6849C16.7179 24.0595 17.0848 24.0658 17.3152 23.6987L18.4432 21.9017C18.6737 21.5348 19.2163 21.2189 19.6494 21.2L21.7689 21.1077C22.2018 21.0887 22.3778 20.7666 22.1598 20.3921ZM15.5127 15.4771C13.169 16.8406 10.3558 16.6945 8.20704 15.3391C5.05851 13.3224 4.02254 9.15047 5.91529 5.88365C7.82963 2.57914 12.0378 1.41312 15.3721 3.22908C15.3896 3.23861 15.4069 3.24847 15.4243 3.2582C15.449 3.27188 15.4736 3.28576 15.4982 3.29977C16.5269 3.89283 17.4189 4.75356 18.0576 5.85141C20.0097 9.2069 18.8681 13.525 15.5127 15.4771Z" fill="black"/>
<path d="M14.9765 4.28678C14.9667 4.28114 14.9569 4.27588 14.9471 4.2703C13.166 3.23945 10.8959 3.16409 8.99326 4.27102C6.16987 5.91361 5.20913 9.54688 6.85172 12.3702C7.35294 13.2318 8.03979 13.9195 8.83222 14.4131C8.89979 14.4561 8.96821 14.4978 9.03743 14.5381C11.8639 16.1755 15.4952 15.2083 17.1326 12.3819C18.7699 9.55551 17.8029 5.92424 14.9765 4.28678ZM15.6835 8.90732L14.6939 9.87195C14.3874 10.1707 14.1958 10.7604 14.2682 11.1823L14.5018 12.5444C14.5742 12.9663 14.3235 13.1484 13.9446 12.9493L12.7213 12.3061C12.3424 12.107 11.7224 12.107 11.3435 12.3061L10.1203 12.9493C9.7414 13.1484 9.49059 12.9663 9.56297 12.5444L9.79659 11.1823C9.86897 10.7604 9.67738 10.1707 9.37086 9.87195L8.38126 8.90732C8.07468 8.60858 8.17054 8.31374 8.59413 8.25212L9.96172 8.0534C10.3853 7.99185 10.8869 7.62741 11.0764 7.24358L11.688 6.00434C11.8774 5.62052 12.1874 5.62052 12.3768 6.00434L12.9885 7.24358C13.178 7.62741 13.6795 7.99185 14.1032 8.0534L15.4707 8.25212C15.8943 8.31374 15.9901 8.60858 15.6835 8.90732Z" fill="black"/>
</svg>
