<svg width="24" height="24" viewBox="0 0 24 24" fill="none" xmlns="http://www.w3.org/2000/svg">
<path d="M6 4.98951C6 4.01835 6 3.53277 6.20249 3.2651C6.37889 3.03191 6.64852 2.88761 6.9404 2.87018C7.27544 2.85017 7.67946 3.11953 8.48752 3.65823L19.0031 10.6686C19.6708 11.1137 20.0046 11.3363 20.1209 11.6168C20.2227 11.8621 20.2227 12.1377 20.1209 12.383C20.0046 12.6635 19.6708 12.886 19.0031 13.3312L8.48752 20.3415C7.67946 20.8802 7.27544 21.1496 6.9404 21.1296C6.64852 21.1122 6.37889 20.9679 6.20249 20.7347C6 20.467 6 19.9814 6 19.0103V4.98951Z" fill="currentColor"/>
</svg>
