<svg width="64" height="152" viewBox="0 0 64 152" fill="none" xmlns="http://www.w3.org/2000/svg">
<rect x="0.5" y="0.5" width="63" height="151" rx="4.5" stroke="#9747FF" stroke-dasharray="10 5"/>
<path d="M26 24.9895C26 24.0183 26 23.5328 26.2025 23.2651C26.3789 23.0319 26.6485 22.8876 26.9404 22.8702C27.2754 22.8502 27.6795 23.1195 28.4875 23.6582L39.0031 30.6686C39.6708 31.1137 40.0046 31.3363 40.1209 31.6168C40.2227 31.8621 40.2227 32.1377 40.1209 32.383C40.0046 32.6635 39.6708 32.886 39.0031 33.3312L28.4875 40.3415C27.6795 40.8802 27.2754 41.1496 26.9404 41.1296C26.6485 41.1122 26.3789 40.9679 26.2025 40.7347C26 40.467 26 39.9814 26 39.0103V24.9895Z" fill="#1E2023"/>
<path d="M26 68.9895C26 68.0183 26 67.5328 26.2025 67.2651C26.3789 67.0319 26.6485 66.8876 26.9404 66.8702C27.2754 66.8502 27.6795 67.1195 28.4875 67.6582L39.0031 74.6686C39.6708 75.1137 40.0046 75.3363 40.1209 75.6168C40.2227 75.8621 40.2227 76.1377 40.1209 76.383C40.0046 76.6635 39.6708 76.886 39.0031 77.3312L28.4875 84.3415C27.6795 84.8802 27.2754 85.1496 26.9404 85.1296C26.6485 85.1122 26.3789 84.9679 26.2025 84.7347C26 84.467 26 83.9814 26 83.0103V68.9895Z" fill="#FACA3E"/>
<path d="M26 112.99C26 112.018 26 111.533 26.2025 111.265C26.3789 111.032 26.6485 110.888 26.9404 110.87C27.2754 110.85 27.6795 111.12 28.4875 111.658L39.0031 118.669C39.6708 119.114 40.0046 119.336 40.1209 119.617C40.2227 119.862 40.2227 120.138 40.1209 120.383C40.0046 120.663 39.6708 120.886 39.0031 121.331L28.4875 128.342C27.6795 128.88 27.2754 129.15 26.9404 129.13C26.6485 129.112 26.3789 128.968 26.2025 128.735C26 128.467 26 127.981 26 127.01V112.99Z" fill="#989FA7" fill-opacity="0.5"/>
</svg>
