<svg width="24" height="24" viewBox="0 0 24 24" fill="none" xmlns="http://www.w3.org/2000/svg">
<path d="M5.00003 13.1793V15.9893C5.00003 16.7193 5.40003 17.3993 6.04003 17.7493L11.04 20.4793C11.64 20.8093 12.36 20.8093 12.96 20.4793L17.96 17.7493C18.6 17.3993 19 16.7193 19 15.9893V13.1793L12.96 16.4793C12.36 16.8093 11.64 16.8093 11.04 16.4793L5.00003 13.1793ZM11.04 3.5193L2.61003 8.1193C1.92003 8.4993 1.92003 9.4993 2.61003 9.8793L11.04 14.4793C11.64 14.8093 12.36 14.8093 12.96 14.4793L21 10.0893V15.9993C21 16.5493 21.45 16.9993 22 16.9993C22.55 16.9993 23 16.5493 23 15.9993V9.5893C23 9.2193 22.8 8.8893 22.48 8.7093L12.96 3.5193C12.6646 3.36172 12.3349 3.2793 12 3.2793C11.6652 3.2793 11.3355 3.36172 11.04 3.5193Z" fill="#1E2023"/>
</svg>
