<svg width="21" height="21" viewBox="0 0 21 21" fill="none" xmlns="http://www.w3.org/2000/svg">
<path d="M4.5 8.50041V6.50041C4.5 6.15971 4.52801 5.82641 4.58301 5.50041M16.5 8.50041V6.50041C16.5 5.28161 16.129 4.09171 15.436 3.08911C14.743 2.08641 13.762 1.31851 12.621 0.88761C11.481 0.45661 10.237 0.383109 9.05402 0.676809C7.87202 0.970409 6.806 1.61731 6 2.53141M9.5 20.5004H6.5C3.672 20.5004 2.25703 20.5004 1.37903 19.6214C0.500028 18.7434 0.5 17.3284 0.5 14.5004C0.5 11.6724 0.500028 10.2574 1.37903 9.37941C2.25703 8.50041 3.672 8.50041 6.5 8.50041H14.5C17.328 8.50041 18.743 8.50041 19.621 9.37941C20.5 10.2574 20.5 11.6724 20.5 14.5004C20.5 17.3284 20.5 18.7434 19.621 19.6214C18.743 20.5004 17.328 20.5004 14.5 20.5004H13.5" stroke="#EADB5A" stroke-linecap="round"/>
</svg>
