<svg preserveAspectRatio="none" width="100%" height="100%" overflow="visible" style="display: block;" viewBox="0 0 1920 590" fill="none" xmlns="http://www.w3.org/2000/svg">
<g id="welcome_img">
<path d="M0 0H1920V550C1920 572.091 1902.09 590 1880 590H40C17.9086 590 0 572.091 0 550V0Z" fill="url(#paint0_linear_40001665_19717)"/>
<path id="Vector" d="M1333.54 284.505C1319.06 282.666 1305.49 277.648 1292.82 269.449C1280.14 261.254 1270.01 250.824 1262.43 238.171C1254.85 225.518 1251.05 211.778 1251.04 196.951L1251 161.372C1250.98 146.22 1254.75 133.278 1262.31 122.549C1269.86 111.819 1279.97 104.044 1292.63 99.2256C1305.29 94.412 1318.86 92.9227 1333.34 94.763C1348.48 96.6855 1362.29 101.655 1374.81 109.667C1387.32 117.685 1397.37 128.02 1404.95 140.673C1412.52 153.326 1416.32 167.228 1416.34 182.38L1416.38 217.959C1416.39 232.787 1412.62 245.566 1405.07 256.295C1397.51 267.025 1387.49 274.894 1374.99 279.89C1362.49 284.891 1348.68 286.428 1333.54 284.505ZM1334 251.464C1341.89 252.466 1349.37 251.441 1356.45 248.387C1363.52 245.333 1369.27 240.549 1373.71 234.03C1378.14 227.511 1380.35 219.31 1380.34 209.427L1380.31 181.262C1380.3 171.385 1378.07 162.619 1373.62 154.972C1369.17 147.324 1363.41 141.071 1356.33 136.219C1349.25 131.367 1341.76 128.439 1333.87 127.436C1325.64 126.391 1317.99 127.396 1310.92 130.45C1303.85 133.503 1298.1 138.293 1293.67 144.813C1289.23 151.332 1287.02 159.533 1287.03 169.41L1287.06 197.576C1287.07 207.459 1289.3 216.224 1293.75 223.872C1298.2 231.519 1303.96 237.765 1311.04 242.618C1318.12 247.47 1325.77 250.418 1334 251.464ZM1312.49 443.879L1550.01 128.221L1587.52 132.987L1350 448.645L1312.49 443.879ZM1567.66 482.23C1552.86 480.348 1539.12 475.305 1526.44 467.11C1513.76 458.915 1503.63 448.57 1496.05 436.079C1488.48 423.589 1484.68 409.764 1484.66 394.612L1484.62 359.033C1484.61 343.881 1488.38 331.024 1495.93 320.456C1503.49 309.889 1513.59 302.114 1526.26 297.133C1538.92 292.159 1552.66 290.606 1567.46 292.487C1582.26 294.368 1595.92 299.401 1608.43 307.574C1620.94 315.754 1630.99 326.089 1638.57 338.58C1646.15 351.071 1649.95 364.889 1649.96 380.041L1650 415.62C1650.02 430.772 1646.25 443.635 1638.69 454.203C1631.14 464.771 1621.11 472.555 1608.61 477.551C1596.11 482.546 1582.46 484.11 1567.66 482.23ZM1567.63 449.126C1575.85 450.17 1583.49 449.166 1590.57 446.112C1597.64 443.057 1603.39 438.273 1607.83 431.755C1612.26 425.235 1614.47 417.035 1614.46 407.152L1614.43 379.479C1614.42 369.602 1612.19 360.752 1607.74 352.943C1603.29 345.132 1597.53 338.795 1590.45 333.943C1583.37 329.091 1575.72 326.142 1567.5 325.098C1559.26 324.051 1551.62 325.056 1544.54 328.111C1537.47 331.164 1531.72 336.038 1527.29 342.72C1522.86 349.401 1520.65 357.687 1520.66 367.564L1520.69 395.237C1520.7 405.12 1522.92 413.884 1527.38 421.533C1531.82 429.18 1537.58 435.426 1544.66 440.279C1551.74 445.131 1559.4 448.08 1567.63 449.126Z" fill="var(--fill-0, #517089)"/>
</g>
<defs>
<linearGradient id="paint0_linear_40001665_19717" x1="1920" y1="295" x2="0" y2="295" gradientUnits="userSpaceOnUse">
<stop stop-color="#375A6D"/>
<stop offset="1" stop-color="#22303D"/>
</linearGradient>
</defs>
</svg>
