<svg width="402" height="470" viewBox="0 0 402 470" fill="none" xmlns="http://www.w3.org/2000/svg">
<g id="Frame 2043683187">
<g id="room_107">
<path id="Vector" d="M349.652 17.4409L291.807 205.944C289.907 212.138 294.539 218.406 301.018 218.406H392.364C397.686 218.406 401.999 214.092 401.999 208.77V9.6356C401.999 4.31404 397.686 6.10352e-05 392.364 6.10352e-05H359.712C354.39 6.10352e-05 350.076 4.31404 350.076 9.6356V14.6141C350.076 15.5722 349.934 16.5249 349.652 17.4409Z" fill="#DF4E4E"/>
<text id="id" fill="white" style="white-space: pre" xml:space="preserve" font-family="Montserrat" font-size="16" font-weight="500" letter-spacing="0em"><tspan x="333" y="145">107</tspan></text>
<text id="label_area" fill="white" style="white-space: pre" xml:space="preserve" font-family="Montserrat" font-size="12" font-weight="500" letter-spacing="0em"><tspan x="333" y="155">28.5 &#x43c;&#xb2;</tspan></text>
<text id="label_price" fill="white" style="white-space: pre" xml:space="preserve" font-family="Montserrat" font-size="8" font-weight="500" letter-spacing="0em"><tspan x="333" y="159.018">6 900 000 &#x20bd;</tspan></text>
</g>
<g id="room_106">
<path id="Vector_4" d="M392.365 220.546H294.323C289.955 220.546 286.133 223.486 285.011 227.708L278.825 250.998C278.176 253.439 278.513 256.036 279.76 258.232L356.849 393.913C357.673 395.364 358.106 397.005 358.106 398.673V459.829C358.106 465.151 362.42 469.464 367.742 469.464H392.365C397.687 469.464 402 465.151 402 459.829V230.182C402 224.86 397.687 220.546 392.365 220.546Z" fill="#375A6D"/>
<path id="Vector_5" d="M373.017 242.591V232.699L373.661 233.404H370.648V232.1H374.5V242.591H373.017ZM381.081 242.711C380.262 242.711 379.528 242.501 378.878 242.082C378.239 241.662 377.729 241.052 377.349 240.253C376.98 239.453 376.795 238.484 376.795 237.345C376.795 236.206 376.98 235.236 377.349 234.438C377.729 233.638 378.239 233.029 378.878 232.609C379.528 232.19 380.262 231.98 381.081 231.98C381.891 231.98 382.621 232.19 383.269 232.609C383.919 233.029 384.429 233.638 384.798 234.438C385.169 235.236 385.353 236.206 385.353 237.345C385.353 238.484 385.169 239.453 384.798 240.253C384.429 241.052 383.919 241.662 383.269 242.082C382.621 242.501 381.891 242.711 381.081 242.711ZM381.081 241.377C381.631 241.377 382.111 241.227 382.52 240.928C382.94 240.628 383.265 240.178 383.494 239.579C383.734 238.979 383.854 238.234 383.854 237.345C383.854 236.456 383.734 235.712 383.494 235.112C383.265 234.513 382.94 234.063 382.52 233.763C382.111 233.463 381.631 233.314 381.081 233.314C380.532 233.314 380.047 233.463 379.627 233.763C379.208 234.063 378.878 234.513 378.638 235.112C378.409 235.712 378.293 236.456 378.293 237.345C378.293 238.234 378.409 238.979 378.638 239.579C378.878 240.178 379.208 240.628 379.627 240.928C380.047 241.227 380.532 241.377 381.081 241.377ZM386.627 242.591V241.572L390.898 237.45C391.278 237.091 391.558 236.776 391.738 236.506C391.927 236.226 392.052 235.971 392.112 235.742C392.182 235.502 392.217 235.272 392.217 235.052C392.217 234.513 392.028 234.088 391.648 233.778C391.268 233.468 390.713 233.314 389.984 233.314C389.424 233.314 388.92 233.408 388.47 233.598C388.021 233.778 387.631 234.063 387.301 234.453L386.282 233.568C386.681 233.059 387.217 232.669 387.886 232.399C388.566 232.119 389.31 231.98 390.119 231.98C390.848 231.98 391.483 232.1 392.022 232.339C392.562 232.568 392.976 232.904 393.266 233.344C393.566 233.783 393.716 234.303 393.716 234.902C393.716 235.242 393.671 235.577 393.581 235.907C393.491 236.236 393.321 236.585 393.072 236.956C392.822 237.325 392.462 237.739 391.992 238.2L388.186 241.872L387.826 241.287H394.166V242.591H386.627Z" fill="white"/>
<text id="id" fill="white" style="white-space: pre" xml:space="preserve" font-family="Montserrat" font-size="16" font-weight="500" letter-spacing="0em"><tspan x="329" y="301">106</tspan></text>
<text id="label_area" fill="white" style="white-space: pre" xml:space="preserve" font-family="Montserrat" font-size="12" font-weight="500" letter-spacing="0em"><tspan x="329" y="311">25.3 &#x43c;&#xb2;</tspan></text>
<text id="label_price" fill="white" style="white-space: pre" xml:space="preserve" font-family="Montserrat" font-size="8" font-weight="500" letter-spacing="0em"><tspan x="329" y="315.178">6 100 000 &#x20bd;</tspan></text>
</g>
<g id="room_104">
<path id="Vector_7" d="M93.6758 374.716V460.365C93.6758 465.687 97.9895 470.001 103.311 470.001H321.047C328.472 470.001 333.106 461.958 329.385 455.535L240.987 302.972C239.264 299.998 236.088 298.167 232.65 298.167H173.969C168.647 298.167 164.334 302.481 164.334 307.803V335.639C164.334 340.961 160.02 345.274 154.698 345.274H138.105C132.783 345.274 128.469 349.588 128.469 354.91V355.445C128.469 360.767 124.156 365.08 118.834 365.08H103.311C97.9895 365.08 93.6758 369.394 93.6758 374.716Z" fill="#375A6D"/>
<path id="Vector_8" d="M106.443 459.927V450.035L107.087 450.739H104.074V449.435H107.927V459.927H106.443ZM114.507 460.047C113.688 460.047 112.954 459.837 112.304 459.417C111.665 458.998 111.155 458.387 110.775 457.589C110.406 456.789 110.221 455.82 110.221 454.681C110.221 453.542 110.406 452.572 110.775 451.773C111.155 450.974 111.665 450.365 112.304 449.945C112.954 449.525 113.688 449.315 114.507 449.315C115.317 449.315 116.047 449.525 116.696 449.945C117.345 450.365 117.855 450.974 118.224 451.773C118.595 452.572 118.779 453.542 118.779 454.681C118.779 455.82 118.595 456.789 118.224 457.589C117.855 458.387 117.345 458.998 116.696 459.417C116.047 459.837 115.317 460.047 114.507 460.047ZM114.507 458.713C115.058 458.713 115.537 458.563 115.946 458.263C116.366 457.964 116.691 457.514 116.92 456.914C117.16 456.315 117.28 455.57 117.28 454.681C117.28 453.792 117.16 453.047 116.92 452.448C116.691 451.848 116.366 451.399 115.946 451.099C115.537 450.799 115.058 450.649 114.507 450.649C113.958 450.649 113.473 450.799 113.054 451.099C112.634 451.399 112.304 451.848 112.064 452.448C111.835 453.047 111.72 453.792 111.72 454.681C111.72 455.57 111.835 456.315 112.064 456.914C112.304 457.514 112.634 457.964 113.054 458.263C113.473 458.563 113.958 458.713 114.507 458.713ZM123.279 460.047C122.54 460.047 121.82 459.931 121.12 459.702C120.431 459.472 119.867 459.163 119.427 458.773L120.116 457.589C120.466 457.919 120.921 458.188 121.48 458.398C122.04 458.608 122.639 458.713 123.279 458.713C124.058 458.713 124.663 458.548 125.092 458.218C125.532 457.878 125.752 457.424 125.752 456.854C125.752 456.304 125.542 455.865 125.122 455.535C124.713 455.195 124.058 455.026 123.159 455.026H122.319V453.977L125.437 450.14L125.647 450.739H119.906V449.435H126.831V450.455L123.728 454.276L122.949 453.812H123.443C124.713 453.812 125.662 454.097 126.291 454.666C126.931 455.236 127.25 455.959 127.25 456.839C127.25 457.428 127.106 457.968 126.816 458.458C126.527 458.947 126.087 459.337 125.497 459.627C124.918 459.907 124.178 460.047 123.279 460.047Z" fill="white"/>
<text id="id" fill="white" style="white-space: pre" xml:space="preserve" font-family="Montserrat" font-size="16" font-weight="500" letter-spacing="0em"><tspan x="179" y="400">104</tspan></text>
<text id="label_area" fill="white" style="white-space: pre" xml:space="preserve" font-family="Montserrat" font-size="12" font-weight="500" letter-spacing="0em"><tspan x="179" y="410">22.1 &#x43c;&#xb2;</tspan></text>
<text id="label_price" fill="white" style="white-space: pre" xml:space="preserve" font-family="Montserrat" font-size="8" font-weight="500" letter-spacing="0em"><tspan x="179" y="414.178">5 200 000 &#x20bd;</tspan></text>
</g>
<g id="room_101">
<path id="Vector_10" d="M152.022 6.10352e-05H79.223C73.9017 6.10352e-05 69.5879 4.31404 69.5879 9.6356V108.667C69.5879 113.99 73.9017 118.303 79.223 118.303H84.0406C89.362 118.303 93.6758 122.617 93.6758 127.939V235C93.6758 240.322 97.9896 244.636 103.311 244.636H152.022C157.344 244.636 161.657 240.322 161.657 235V9.6356C161.657 4.31404 157.344 6.10352e-05 152.022 6.10352e-05Z" fill="#DF4E4E"/>
<text id="id" fill="white" style="white-space: pre" xml:space="preserve" font-family="Montserrat" font-size="16" font-weight="500" letter-spacing="0em"><tspan x="102" y="167">101</tspan></text>
<text id="label_area" fill="white" style="white-space: pre" xml:space="preserve" font-family="Montserrat" font-size="12" font-weight="500" letter-spacing="0em"><tspan x="102" y="177">12.5 &#x43c;&#xb2;</tspan></text>
<text id="label_price" fill="white" style="white-space: pre" xml:space="preserve" font-family="Montserrat" font-size="8" font-weight="500" letter-spacing="0em"><tspan x="102" y="181.178">3 200 000 &#x20bd;</tspan></text>
</g>
<g id="room_102">
<path id="Vector_13" d="M278.839 6.10352e-05H175.039C169.718 6.10352e-05 165.404 4.31403 165.404 9.6356V235C165.404 240.322 169.718 244.636 175.039 244.636H212.268C216.538 244.636 220.298 241.825 221.508 237.73L288.079 12.3653C289.903 6.19159 285.276 6.10352e-05 278.839 6.10352e-05Z" fill="#DF4E4E"/>
<text id="id" fill="white" style="white-space: pre" xml:space="preserve" font-family="Montserrat" font-size="16" font-weight="500" letter-spacing="0em"><tspan x="175" y="167">102</tspan></text>
<text id="label_area" fill="white" style="white-space: pre" xml:space="preserve" font-family="Montserrat" font-size="12" font-weight="500" letter-spacing="0em"><tspan x="175" y="177">15.2 &#x43c;&#xb2;</tspan></text>
<text id="label_price" fill="white" style="white-space: pre" xml:space="preserve" font-family="Montserrat" font-size="8" font-weight="500" letter-spacing="0em"><tspan x="175" y="181.178">3 800 000 &#x20bd;</tspan></text>
</g>
<g id="room_105">
<path id="hit" d="M55.1345 0H9.63516C4.31381 0 0 4.31398 0 9.63554V283.178C0 288.5 4.31381 292.813 9.63516 292.813H80.293C85.6144 292.813 89.9281 288.5 89.9281 283.178V132.221C89.9281 126.899 85.6144 122.585 80.293 122.585H74.4048C69.0834 122.585 64.7697 118.272 64.7697 112.95V9.63554C64.7697 4.31398 60.4559 0 55.1345 0Z" fill="#DF4E4E"/>
<text id="id" fill="white" style="white-space: pre" xml:space="preserve" font-family="Montserrat" font-size="16" font-weight="500" letter-spacing="0em"><tspan x="7" y="284.236">105</tspan></text>
<text id="label_area" fill="white" style="white-space: pre" xml:space="preserve" font-family="Montserrat" font-size="12" font-weight="500" letter-spacing="0em"><tspan x="25.377" y="170.802">13.6 &#x43c;&#xb2;</tspan></text>
<text id="label_price" fill="white" style="white-space: pre" xml:space="preserve" font-family="Montserrat" font-size="8" font-weight="500" letter-spacing="0em"><tspan x="19" y="181.178">2 838 000 &#x20bd;</tspan></text>
</g>
<g id="room_103">
<path id="Vector_16" d="M116.733 297.632H9.5945C4.29561 297.632 0 301.946 0 307.268V460.366C0 465.688 4.29561 470.001 9.5945 470.001H81.5533C86.8522 470.001 91.1478 465.688 91.1478 460.366V371.505C91.1478 366.182 95.4433 361.869 100.742 361.869H116.733C122.032 361.869 126.328 357.555 126.328 352.233V307.268C126.328 301.946 122.032 297.632 116.733 297.632Z" fill="#263E4B"/>
<text id="id" fill="white" style="white-space: pre" xml:space="preserve" font-family="Montserrat" font-size="16" font-weight="500" letter-spacing="0em"><tspan x="15" y="401">103</tspan></text>
<text id="label_area" fill="white" style="white-space: pre" xml:space="preserve" font-family="Montserrat" font-size="12" font-weight="500" letter-spacing="0em"><tspan x="15" y="411">18.4 &#x43c;&#xb2;</tspan></text>
<text id="label_price" fill="white" style="white-space: pre" xml:space="preserve" font-family="Montserrat" font-size="8" font-weight="500" letter-spacing="0em"><tspan x="15" y="415.178">4 500 000 &#x20bd;</tspan></text>
</g>
<path id="Vector_18" d="M149.882 298.702H140.246C134.925 298.702 130.611 303.016 130.611 308.337V332.962C130.611 338.283 134.925 342.597 140.246 342.597H149.882C155.203 342.597 159.517 338.283 159.517 332.962V308.337C159.517 303.016 155.203 298.702 149.882 298.702Z" fill="#FACA3E"/>
<path id="Vector_19" d="M140.076 319.044L136.568 308.552H138.112L141.335 318.235H140.555L143.898 308.552H145.276L148.544 318.235H147.794L151.062 308.552H152.486L148.978 319.044H147.405L144.347 310.066H144.752L141.679 319.044H140.076ZM145.376 334.153C144.577 334.153 143.838 334.023 143.158 333.763C142.489 333.493 141.904 333.118 141.404 332.639C140.915 332.15 140.531 331.58 140.25 330.93C139.971 330.28 139.83 329.566 139.83 328.787C139.83 328.007 139.971 327.293 140.25 326.643C140.531 325.993 140.92 325.429 141.419 324.95C141.919 324.46 142.504 324.086 143.173 323.826C143.853 323.556 144.592 323.421 145.391 323.421C146.2 323.421 146.945 323.561 147.624 323.841C148.314 324.11 148.898 324.515 149.378 325.055L148.404 325.999C148.004 325.579 147.555 325.27 147.055 325.07C146.556 324.86 146.02 324.755 145.451 324.755C144.862 324.755 144.312 324.854 143.802 325.055C143.303 325.255 142.869 325.534 142.498 325.894C142.129 326.254 141.839 326.683 141.629 327.183C141.43 327.672 141.329 328.208 141.329 328.787C141.329 329.366 141.43 329.906 141.629 330.406C141.839 330.895 142.129 331.32 142.498 331.68C142.869 332.039 143.303 332.319 143.802 332.519C144.312 332.719 144.862 332.819 145.451 332.819C146.02 332.819 146.556 332.719 147.055 332.519C147.555 332.309 148.004 331.989 148.404 331.56L149.378 332.504C148.898 333.043 148.314 333.454 147.624 333.733C146.945 334.012 146.196 334.153 145.376 334.153Z" fill="#1E2023"/>
<path id="Vector_20" d="M61.0215 6.4235V6.10352e-05H28.9043V6.4235H61.0215Z" fill="#C3D6E0"/>
<path id="Vector_21" d="M109.197 6.4235V6.10352e-05H77.0801V6.4235H109.197Z" fill="#C3D6E0"/>
<path id="Vector_22" d="M221.607 6.4235V6.10352e-05H177.714V6.4235H221.607Z" fill="#C3D6E0"/>
<path id="Vector_23" d="M234.455 305.125V298.702H172.362V305.125H234.455Z" fill="#C3D6E0"/>
<path id="Vector_24" d="M87.7891 304.056V297.632H5.35493V304.056H87.7891Z" fill="#C3D6E0"/>
<path id="Vector_25" d="M375.771 6.4235V6.10352e-05H300.831V6.4235H375.771Z" fill="#C3D6E0"/>
<path id="Vector_26" d="M390.76 470V463.576H301.902V470H390.76Z" fill="#C3D6E0"/>
<path id="Vector_27" d="M292.076 226.49L285.873 224.823L278.486 252.314L284.689 253.981L292.076 226.49Z" fill="#C3D6E0"/>
<path id="Vector_28" d="M294.641 27.8367V17.3451H299.527C300.746 17.3451 301.695 17.5799 302.374 18.0495C303.054 18.5192 303.394 19.1886 303.394 20.0579C303.394 20.9173 303.074 21.5867 302.434 22.0663C301.795 22.536 300.945 22.7707 299.886 22.7707L300.171 22.1412C301.35 22.1412 302.264 22.376 302.914 22.8457C303.564 23.3153 303.888 23.9947 303.888 24.8841C303.888 25.8034 303.538 26.5277 302.839 27.0573C302.15 27.5769 301.14 27.8367 299.812 27.8367H294.641ZM297.054 26.0381H299.722C300.281 26.0381 300.705 25.9282 300.996 25.7084C301.286 25.4886 301.43 25.1488 301.43 24.6892C301.43 24.2495 301.286 23.9248 300.996 23.715C300.705 23.4952 300.281 23.3853 299.722 23.3853H297.054V26.0381ZM297.054 21.6916H299.317C299.847 21.6916 300.246 21.5867 300.516 21.3769C300.786 21.1571 300.921 20.8373 300.921 20.4176C300.921 19.998 300.786 19.6832 300.516 19.4734C300.246 19.2536 299.847 19.1436 299.317 19.1436H297.054V21.6916ZM304.748 17.3451H307.551L309.724 20.5225L311.897 17.3451H314.745L311.253 22.3661L315.03 27.8367H312.167L309.724 24.3595L307.311 27.8367H304.508L308.255 22.471L304.748 17.3451ZM321.119 28.0165C320.289 28.0165 319.521 27.8817 318.811 27.6119C318.112 27.3421 317.502 26.9624 316.982 26.4728C316.473 25.9832 316.074 25.4086 315.783 24.7492C315.504 24.0897 315.364 23.3703 315.364 22.5909C315.364 21.8115 315.504 21.0921 315.783 20.4326C316.074 19.7731 316.478 19.1986 316.997 18.709C317.517 18.2194 318.127 17.8397 318.826 17.5699C319.525 17.3001 320.285 17.1652 321.104 17.1652C321.934 17.1652 322.693 17.3001 323.382 17.5699C324.081 17.8397 324.686 18.2194 325.196 18.709C325.715 19.1986 326.12 19.7731 326.41 20.4326C326.7 21.0821 326.845 21.8016 326.845 22.5909C326.845 23.3703 326.7 24.0947 326.41 24.7641C326.12 25.4236 325.715 25.9982 325.196 26.4878C324.686 26.9674 324.081 27.3421 323.382 27.6119C322.693 27.8817 321.938 28.0165 321.119 28.0165ZM321.104 25.9482C321.574 25.9482 322.003 25.8682 322.393 25.7084C322.792 25.5486 323.143 25.3187 323.442 25.0189C323.742 24.7192 323.972 24.3645 324.132 23.9548C324.302 23.5451 324.387 23.0905 324.387 22.5909C324.387 22.0913 324.302 21.6367 324.132 21.227C323.972 20.8173 323.742 20.4626 323.442 20.1628C323.152 19.8631 322.807 19.6332 322.408 19.4734C322.009 19.3135 321.574 19.2336 321.104 19.2336C320.634 19.2336 320.199 19.3135 319.8 19.4734C319.41 19.6332 319.066 19.8631 318.766 20.1628C318.466 20.4626 318.232 20.8173 318.062 21.227C317.902 21.6367 317.822 22.0913 317.822 22.5909C317.822 23.0805 317.902 23.5351 318.062 23.9548C318.232 24.3645 318.461 24.7192 318.751 25.0189C319.051 25.3187 319.401 25.5486 319.8 25.7084C320.199 25.8682 320.634 25.9482 321.104 25.9482ZM335.377 26.7576V19.3235H331.78L331.735 20.8523C331.705 21.5018 331.66 22.1163 331.6 22.6958C331.55 23.2753 331.469 23.8049 331.36 24.2845C331.25 24.7542 331.105 25.1538 330.926 25.4836C330.755 25.8133 330.54 26.0481 330.281 26.188L327.688 25.8583C328.048 25.8682 328.342 25.7434 328.572 25.4836C328.812 25.2237 329.002 24.8591 329.142 24.3894C329.281 23.9098 329.382 23.3502 329.442 22.7108C329.511 22.0713 329.562 21.3769 329.592 20.6275L329.712 17.3451H337.775V26.7576H335.377ZM327.343 30.01L327.358 25.8583H339.244V30.01H336.996V27.8367H329.592V30.01H327.343Z" fill="#DF4E4E"/>
<g id="Vector_29">
<path d="M298.688 56.7432H304.04V51.3903H309.393V46.0374H314.746V40.6846H320.099" fill="#DF4E4E"/>
<path d="M298.688 56.7432H304.04V51.3903H309.393V46.0374H314.746V40.6846H320.099" stroke="#989FA7" stroke-width="2.14115" stroke-linecap="round" stroke-linejoin="round"/>
</g>
<g id="Vector_30">
<path d="M331.877 426.105V431.458H337.23V436.811H342.583V442.164H347.936V447.517" fill="#DF4E4E"/>
<path d="M331.877 426.105V431.458H337.23V436.811H342.583V442.164H347.936V447.517" stroke="#989FA7" stroke-width="2.14115" stroke-linecap="round" stroke-linejoin="round"/>
</g>
</g>
</svg>
