<svg width="24" height="24" viewBox="0 0 24 24" fill="none" xmlns="http://www.w3.org/2000/svg">
<path fill-rule="evenodd" clip-rule="evenodd" d="M16.4154 10.3087C15.903 10.8165 15.2937 11.2196 14.6227 11.4946C13.9516 11.7696 13.232 11.9112 12.5052 11.9112C11.7785 11.9112 11.0589 11.7696 10.3878 11.4946C9.71677 11.2196 9.10753 10.8165 8.59514 10.3087C8.07972 9.80378 7.67069 9.20347 7.39157 8.54227C7.11246 7.88106 6.96877 7.172 6.96877 6.45588C6.96877 5.73976 7.11246 5.0307 7.39157 4.3695C7.67069 3.70829 8.07972 3.10798 8.59514 2.6031C9.10744 2.09507 9.71665 1.69189 10.3877 1.41677C11.0588 1.14164 11.7784 1 12.5052 1C13.2321 1 13.9517 1.14164 14.6228 1.41677C15.2938 1.69189 15.9031 2.09507 16.4154 2.6031C16.9308 3.10798 17.3398 3.70829 17.6189 4.3695C17.898 5.0307 18.0417 5.73976 18.0417 6.45588C18.0417 7.172 17.898 7.88106 17.6189 8.54227C17.3398 9.20347 16.9308 9.80378 16.4154 10.3087ZM12.5052 3.96299C11.8159 3.96299 11.1907 4.23799 10.7316 4.69174C10.4974 4.92056 10.3116 5.19279 10.1847 5.49275C10.0579 5.7927 9.99259 6.11443 9.99259 6.43938C9.99259 6.76433 10.0579 7.08606 10.1847 7.38602C10.3116 7.68597 10.4974 7.95821 10.7316 8.18702C10.9638 8.41812 11.2401 8.60159 11.5447 8.72679C11.8492 8.852 12.1759 8.91647 12.5059 8.91647C12.8359 8.91647 13.1627 8.852 13.4672 8.72679C13.7718 8.60159 14.0481 8.41812 14.2803 8.18702C14.5148 7.95828 14.701 7.68598 14.8281 7.38589C14.9552 7.0858 15.0206 6.76386 15.0206 6.43869C15.0206 6.11353 14.9552 5.79159 14.8281 5.4915C14.701 5.1914 14.5148 4.91911 14.2803 4.69037C13.8068 4.22995 13.1704 3.96867 12.5052 3.96161V3.96299ZM18.3216 11.927L19.9487 14.1133C20.031 14.2261 20.0143 14.3718 19.8984 14.4529C18.5351 15.5529 16.9414 16.2817 15.2822 16.6708L18.4206 22.6274C18.503 22.8061 18.3872 23 18.1904 23H14.8385C14.7865 22.9974 14.7361 22.981 14.6929 22.9524C14.6496 22.9238 14.6151 22.8842 14.5929 22.8377L12.5052 17.9166L10.4023 22.8213C10.3838 22.8703 10.3502 22.9124 10.3061 22.9415C10.262 22.9706 10.2097 22.9853 10.1567 22.9835H6.80475C6.60799 22.9835 6.49217 22.7731 6.5745 22.6122L9.71291 16.6708C8.02451 16.2829 6.44663 15.5248 5.0967 14.4529C4.99762 14.3704 4.96413 14.2096 5.04646 14.1119L6.67358 11.927C6.77126 11.7978 6.93593 11.7813 7.05036 11.8789C8.57979 13.1577 10.4693 13.9992 12.4899 13.9992C14.5105 13.9992 16.3833 13.1742 17.928 11.8789C18.0592 11.7827 18.2392 11.7964 18.3216 11.927Z" fill="#1E2023"/>
</svg>
