<svg width="21" height="21" viewBox="0 0 21 21" fill="none" xmlns="http://www.w3.org/2000/svg">
<path d="M9.09696 11.1085C7.89538 9.90691 6.94659 8.54827 6.25059 7.09865C6.19073 6.97396 6.16079 6.91162 6.13779 6.83273C6.05607 6.55237 6.11477 6.20811 6.28478 5.97068C6.33263 5.90387 6.38978 5.84672 6.50409 5.7324C6.8537 5.3828 7.0285 5.20799 7.14279 5.03222C7.57378 4.36933 7.57378 3.51475 7.14279 2.85186C7.0285 2.67608 6.8537 2.50127 6.50409 2.15167L6.30922 1.9568C5.77778 1.42536 5.51206 1.15963 5.22668 1.01529C4.65912 0.72822 3.98885 0.72822 3.42129 1.01529C3.13591 1.15964 2.87019 1.42536 2.33875 1.9568L2.18111 2.11443C1.65149 2.64406 1.38668 2.90887 1.18443 3.2689C0.96001 3.66841 0.798648 4.2889 0.800012 4.74712C0.80124 5.16007 0.881344 5.44229 1.04155 6.00673C1.90252 9.04013 3.527 11.9025 5.91498 14.2905C8.30296 16.6785 11.1653 18.3029 14.1987 19.1639C14.7632 19.3241 15.0454 19.4042 15.4583 19.4054C15.9166 19.4068 16.537 19.2454 16.9365 19.021C17.2966 18.8188 17.5614 18.554 18.091 18.0243L18.2486 17.8667C18.7801 17.3353 19.0458 17.0695 19.1902 16.7842C19.4772 16.2166 19.4772 15.5463 19.1902 14.9788C19.0458 14.6934 18.7801 14.4277 18.2486 13.8962L18.0538 13.7014C17.7042 13.3517 17.5294 13.1769 17.3536 13.0627C16.6907 12.6317 15.8361 12.6317 15.1732 13.0627C14.9975 13.1769 14.8227 13.3517 14.473 13.7014C14.3587 13.8157 14.3016 13.8728 14.2348 13.9207C13.9973 14.0907 13.6531 14.1494 13.3727 14.0677C13.2938 14.0447 13.2315 14.0147 13.1068 13.9549C11.6572 13.2589 10.2985 12.3101 9.09696 11.1085Z" fill="inherit" stroke="inherit" stroke-width="1.6" stroke-linecap="round" stroke-linejoin="round"/>
</svg>
