<svg width="24" height="24" viewBox="0 0 24 24" fill="none" xmlns="http://www.w3.org/2000/svg">
<path d="M1.58215 10.2055C7.75517 7.51589 11.8719 5.74243 13.9325 4.88511C19.8141 2.43905 21.0353 2.01431 21.8319 2.00019C22.0084 1.99666 22.399 2.0402 22.6531 2.24727C22.8672 2.42022 22.9261 2.65554 22.9543 2.82025C22.9825 2.98497 23.0179 3.36029 22.9896 3.65325C22.6719 7.00291 21.2918 15.1294 20.5894 18.8803C20.2929 20.4663 19.7094 20.9981 19.1423 21.051C17.9128 21.1639 16.9798 20.2392 15.7891 19.4579C13.9243 18.2355 12.8712 17.4743 11.0617 16.2824C8.97092 14.9047 10.3263 14.147 11.5182 12.9092C11.83 12.5857 17.248 7.65708 17.3539 7.20999C17.3657 7.15351 17.3786 6.94526 17.2551 6.83584C17.1315 6.72524 16.9491 6.76289 16.8162 6.79349C16.6287 6.83584 13.6513 8.80385 7.88377 12.6974C7.03748 13.2779 6.27191 13.5606 5.58715 13.5457C4.83063 13.5293 3.37523 13.1187 2.29515 12.7669C0.967991 12.3351 -0.0862019 12.108 0.00556928 11.375C0.0534163 10.9938 0.578944 10.6039 1.58215 10.2055Z" fill="#1E2023"/>
</svg>
