<svg width="24" height="24" viewBox="0 0 24 24" fill="none" xmlns="http://www.w3.org/2000/svg">
<path fill-rule="evenodd" clip-rule="evenodd" d="M20.4627 16.4723C19.8408 15.9823 19.1753 15.5412 18.5213 15.0914C17.2159 14.1916 16.0223 14.1227 15.0484 15.5675C14.501 16.3796 13.7366 16.4159 12.9361 16.0588C10.7287 15.0788 9.02504 13.5663 8.02672 11.3683C7.58473 10.3946 7.58987 9.52242 8.62417 8.83445C9.17023 8.47104 9.72142 8.03996 9.67774 7.24548C9.61992 6.20788 7.05281 2.74296 6.03907 2.37705C5.63093 2.23107 5.18292 2.23107 4.77478 2.37705C2.39654 3.159 1.41106 5.0763 2.35414 7.34698C5.16794 14.1202 10.1184 18.8345 16.9358 21.7117C17.3238 21.8746 17.7555 21.941 17.974 21.9999C19.5261 22.0149 21.3441 20.5488 21.8696 19.0951C22.3746 17.6954 21.3081 17.1402 20.4627 16.4723ZM12.8192 3.07128C17.8031 3.82316 20.1017 6.14648 20.7364 11.0663C20.7942 11.5212 20.6207 12.2054 21.2837 12.2179C21.975 12.2304 21.8079 11.5563 21.8144 11.1026C21.8722 6.46728 17.7504 2.17153 12.9644 2.01364C12.6033 2.06376 11.8555 1.76928 11.808 2.56251C11.7772 3.0976 12.4067 3.00988 12.8192 3.07128Z" fill="#1E2023"/>
<path fill-rule="evenodd" clip-rule="evenodd" d="M13.7944 4.42175C13.3151 4.36536 12.683 4.14355 12.5699 4.79643C12.4543 5.48065 13.1584 5.41047 13.6119 5.51072C16.6891 6.18491 17.762 7.28265 18.2682 10.2751C18.3414 10.7125 18.195 11.3904 18.9517 11.2776C19.5119 11.1949 19.3089 10.6135 19.3565 10.2726C19.3822 7.3992 16.869 4.7839 13.7944 4.42175Z" fill="#1E2023"/>
<path fill-rule="evenodd" clip-rule="evenodd" d="M14.0773 6.77317C13.7574 6.78069 13.4439 6.81452 13.3257 7.14911C13.1496 7.65036 13.521 7.77066 13.8987 7.83082C15.1617 8.02881 15.826 8.75814 15.9519 9.99247C15.9866 10.3283 16.2024 10.599 16.5326 10.5614C16.99 10.5075 17.0324 10.109 17.0183 9.72931C17.0401 8.34335 15.4418 6.74059 14.0773 6.77317Z" fill="#1E2023"/>
</svg>
