<svg width="24" height="24" viewBox="0 0 24 24" fill="none" xmlns="http://www.w3.org/2000/svg">
<path d="M22.7864 6.59005C22.5271 5.62614 21.7671 4.8663 20.8033 4.60675C19.0426 4.125 11.9997 4.125 11.9997 4.125C11.9997 4.125 4.95708 4.125 3.19638 4.5885C2.25114 4.84778 1.47264 5.62631 1.21336 6.59005C0.75 8.3506 0.75 12.0018 0.75 12.0018C0.75 12.0018 0.75 15.6714 1.21336 17.4135C1.47288 18.3773 2.23261 19.1372 3.19652 19.3967C4.9756 19.8786 12 19.8786 12 19.8786C12 19.8786 19.0426 19.8786 20.8033 19.4151C21.7672 19.1557 22.5271 18.3958 22.7866 17.4321C23.2499 15.6714 23.2498 12.0203 23.2498 12.0203C23.2498 12.0203 23.2684 8.35057 22.7864 6.59005ZM9.75738 15.3749V8.62865L15.6139 12.0018L9.75738 15.3749Z" fill="#1E2023"/>
</svg>
