<svg width="801" height="593" viewBox="0 0 801 593" fill="none" xmlns="http://www.w3.org/2000/svg">
<g id="1-&#209;&#143; &#208;&#144;&#208;&#183;&#208;&#184;&#208;&#189;&#209;&#129;&#208;&#186;&#208;&#176;&#209;&#143; ">
<path id="Vector 1668" d="M695.101 2.4375H683.42C677.897 2.4375 673.42 6.91466 673.42 12.4375V83.4183C673.42 88.9411 677.897 93.4183 683.42 93.4183H695.101C700.624 93.4183 705.101 88.9411 705.101 83.4183V12.4375C705.101 6.91465 700.624 2.4375 695.101 2.4375Z" fill="#D9D9D9"/>
<path id="Vector 1667" d="M164.903 516.794V490.849C164.903 488.942 166.449 487.396 168.356 487.396C170.262 487.396 171.808 485.851 171.808 483.944V419.645C171.808 417.583 170.136 415.911 168.074 415.911C167.084 415.911 166.134 415.518 165.434 414.818L136.557 385.941C134.682 384.066 133.629 381.522 133.629 378.87V316.482C133.629 313.83 132.575 311.286 130.7 309.411L97.5706 276.282C95.6923 274.403 93.144 273.35 90.4877 273.353L12.4493 273.445C6.92185 273.451 2.4375 268.972 2.4375 263.445V254.104C2.4375 248.581 6.91465 244.104 12.4375 244.104H113.035C115.808 244.104 118.456 242.953 120.347 240.925L132.312 228.099C134.039 226.248 135 223.81 135 221.278V149.588C135 144.031 139.531 139.539 145.088 139.588L150.117 139.633C155.606 139.681 160.029 144.144 160.029 149.632V165.868C160.029 171.391 164.506 175.868 170.029 175.868H180.337H491.785C494.437 175.868 496.981 174.815 498.856 172.939L535.645 136.15C537.521 134.275 540.064 133.221 542.716 133.221H641.617C644.294 133.221 646.86 132.147 648.739 130.24L672.012 106.626C672.915 105.709 673.421 104.475 673.421 103.188C673.421 100.484 675.613 98.291 678.318 98.291H695.102C700.624 98.291 705.102 102.768 705.102 108.291V111.208C705.102 113.86 704.048 116.403 702.173 118.279L674.319 146.133C672.444 148.008 669.9 149.062 667.248 149.062H664.902C660.185 149.062 656.362 152.885 656.362 157.601C656.362 162.31 652.551 166.13 647.843 166.141L550.914 166.378C548.218 166.385 545.639 167.48 543.761 169.415L505.372 208.981C503.489 210.922 500.899 212.017 498.195 212.017H220.751C216.377 212.017 212.831 215.563 212.831 219.937C212.831 224.311 209.285 227.857 204.91 227.857H179.701C178.168 227.857 176.751 227.04 175.985 225.712C174.8 223.659 172.175 222.956 170.122 224.141L167.401 225.712C165.101 227.04 163.685 229.493 163.685 232.149V268.232C163.685 271.058 161.394 273.348 158.569 273.348H157.496C153.335 273.348 151.251 278.379 154.193 281.322C155.069 282.198 156.257 282.69 157.496 282.69H158.773C163.056 282.69 166.528 286.161 166.528 290.444V378.87C166.528 381.522 167.581 384.066 169.457 385.941L199.748 416.232C201.623 418.107 202.676 420.651 202.676 423.303V501.532C202.676 504.184 201.623 506.727 199.748 508.603L184.485 523.865C182.609 525.741 180.066 526.794 177.414 526.794H174.903C169.38 526.794 164.903 522.317 164.903 516.794Z" fill="#FDD24F"/>
<path id="Vector 1658" d="M202.829 233.545H183.025C177.503 233.545 173.025 238.022 173.025 243.545V252.383C173.025 257.905 177.503 262.383 183.025 262.383H202.829C208.352 262.383 212.829 257.905 212.829 252.383V243.545C212.829 238.022 208.352 233.545 202.829 233.545Z" fill="#FDD24F"/>
<text id="WC" fill="black" style="white-space: pre" xml:space="preserve" font-family="Montserrat" font-size="16" font-weight="500" letter-spacing="0em"><tspan x="177" y="254.736">WC</tspan></text>
<g id="room_103">
<path id="poly" d="M158.052 2.4375H12.4375C6.91465 2.4375 2.4375 6.91465 2.4375 12.4375V228.726C2.4375 234.245 6.90886 238.721 12.428 238.726L112.828 238.821C115.484 238.824 118.031 237.77 119.909 235.892L129.075 226.726C130.95 224.851 132.004 222.307 132.004 219.655V144.035C132.004 138.512 136.481 134.035 142.004 134.035H158.144C163.67 134.035 168.149 129.553 168.144 124.026L168.052 12.4292C168.047 6.90961 163.572 2.4375 158.052 2.4375Z" fill="#375A6D"/>
<path id="label_lock" d="M72.8992 102.748V100.311C72.8992 99.8962 72.9265 99.4901 72.9801 99.0928M84.5967 102.748V100.311C84.5967 98.8262 84.235 97.3764 83.5595 96.1548C82.884 94.933 81.9277 93.9973 80.8155 93.4723C79.7042 92.9471 78.4916 92.8576 77.3384 93.2154C76.1862 93.5732 75.1471 94.3614 74.3614 95.4752M77.7731 117.37H74.8488C72.092 117.37 70.7127 117.37 69.8568 116.299C69 115.229 69 113.505 69 110.059C69 106.613 69 104.889 69.8568 103.819C70.7127 102.748 72.092 102.748 74.8488 102.748H82.6471C85.4038 102.748 86.7831 102.748 87.639 103.819C88.4959 104.889 88.4959 106.613 88.4959 110.059C88.4959 113.505 88.4959 115.229 87.639 116.299C86.7831 117.37 85.4038 117.37 82.6471 117.37H81.6723" stroke="#EADB5A" stroke-linecap="round"/>
<rect id="Rectangle 426" y="25.1826" width="4.87397" height="37.3671" fill="#8FB6F9"/>
<rect id="Rectangle 428" y="170.589" width="4.87397" height="37.3671" fill="#8FB6F9"/>
<rect id="Rectangle 427" x="58.4873" width="4.87397" height="37.3671" transform="rotate(90 58.4873 0)" fill="#8FB6F9"/>
<rect id="Rectangle 433" x="157.592" width="4.87397" height="19.4959" transform="rotate(90 157.592 0)" fill="#8FB6F9"/>
<text id="label_area" fill="white" style="white-space: pre" xml:space="preserve" font-family="Montserrat" font-size="16" letter-spacing="0em"><tspan x="35.7422" y="233.44">00,00 &#x43c;&#xb2;</tspan></text>
<text id="label_price" fill="white" style="white-space: pre" xml:space="preserve" font-family="Montserrat" font-size="12" letter-spacing="0em"><tspan x="58" y="110.093">&#x446;&#x435;&#x43d;&#x430;</tspan></text>
<text id="label_name" fill="white" style="white-space: pre" xml:space="preserve" font-family="Montserrat" font-size="16" letter-spacing="0em"><tspan x="135.721" y="27.9206">103</tspan></text>
<g id="label_busy">
<path id="form" d="M122.34 15.6601L129.66 15.6601L133.321 21.9998L129.66 28.3395L122.34 28.3395L118.679 21.9998L122.34 15.6601Z" fill="url(#paint0_radial_15_388)"/>
<text id="&#209;&#129;&#208;&#180;&#208;&#176;&#208;&#189;" fill="black" style="white-space: pre" xml:space="preserve" font-family="Montserrat" font-size="5" font-weight="500" letter-spacing="0em"><tspan x="120" y="22.7925">&#x441;&#x434;&#x430;&#x43d;</tspan></text>
</g>
</g>
<g id="room_104">
<path id="poly_2" d="M227.607 2.4375H181.808C176.286 2.4375 171.808 6.91464 171.808 12.4375V134.644C171.808 137.448 169.535 139.721 166.731 139.721C163.927 139.721 161.654 141.994 161.654 144.798V150.484C161.654 153.288 163.927 155.561 166.731 155.561H168.356C170.263 155.561 171.808 157.107 171.808 159.014C171.808 160.921 173.354 162.466 175.261 162.466H232.733C235.425 162.466 237.607 164.648 237.607 167.34C237.607 170.032 239.789 172.214 242.481 172.214H245.527C249.901 172.214 253.447 168.668 253.447 164.294V133.832C253.447 129.457 249.901 125.911 245.527 125.911C241.153 125.911 237.607 122.365 237.607 117.991V12.4375C237.607 6.91465 233.13 2.4375 227.607 2.4375Z" fill="#375A6D"/>
<path id="label_lock_2" d="M199.899 75.7482V73.3113C199.899 72.8962 199.926 72.4901 199.98 72.0928M211.597 75.7482V73.3113C211.597 71.8262 211.235 70.3764 210.559 69.1548C209.884 67.933 208.928 66.9973 207.815 66.4723C206.704 65.9471 205.492 65.8576 204.338 66.2154C203.186 66.5732 202.147 67.3614 201.361 68.4752M204.773 90.3699H201.849C199.092 90.3699 197.713 90.3699 196.857 89.2988C196 88.229 196 86.5049 196 83.059C196 79.6132 196 77.8891 196.857 76.8193C197.713 75.7482 199.092 75.7482 201.849 75.7482H209.647C212.404 75.7482 213.783 75.7482 214.639 76.8193C215.496 77.8891 215.496 79.6132 215.496 83.059C215.496 86.5049 215.496 88.229 214.639 89.2988C213.783 90.3699 212.404 90.3699 209.647 90.3699H208.672" stroke="#EADB5A" stroke-linecap="round"/>
<rect id="Rectangle 434" x="216.08" width="4.87397" height="21.1205" transform="rotate(90 216.08 0)" fill="#8FB6F9"/>
<text id="label_area_2" fill="white" style="white-space: pre" xml:space="preserve" font-family="Montserrat" font-size="16" letter-spacing="0em"><tspan x="173" y="154.736">00,00 &#x43c;&#xb2;</tspan></text>
<text id="label_price_2" fill="white" style="white-space: pre" xml:space="preserve" font-family="Montserrat" font-size="12" letter-spacing="0em"><tspan x="175.143" y="70.802">&#x446;&#x435;&#x43d;&#x430;</tspan></text>
<text id="label_name_2" fill="white" style="white-space: pre" xml:space="preserve" font-family="Montserrat" font-size="16" letter-spacing="0em"><tspan x="206.646" y="27.9206">104</tspan></text>
<g id="label_busy_2">
<path id="form_2" d="M193.339 15.6601L200.658 15.6601L204.318 21.9998L200.658 28.3395L193.339 28.3395L189.679 21.9998L193.339 15.6601Z" fill="url(#paint1_radial_15_388)"/>
<text id="&#209;&#129;&#208;&#180;&#208;&#176;&#208;&#189;_2" fill="black" style="white-space: pre" xml:space="preserve" font-family="Montserrat" font-size="5" font-weight="500" letter-spacing="0em"><tspan x="190.999" y="22.7925">&#x441;&#x434;&#x430;&#x43d;</tspan></text>
</g>
</g>
<g id="room_105">
<path id="poly_3" d="M310.5 2.4375H252.074C246.551 2.4375 242.074 6.91466 242.074 12.4375V114.336C242.074 118.71 245.62 122.256 249.994 122.256C254.369 122.256 257.915 125.802 257.915 130.176V152.466C257.915 157.989 262.392 162.466 267.915 162.466H277.411C280.102 162.466 282.284 164.648 282.284 167.34C282.284 170.032 284.467 172.214 287.158 172.214H295.717C298.393 172.214 300.562 170.045 300.562 167.369C300.562 164.693 302.731 162.524 305.407 162.524H310.531C316.037 162.524 320.5 158.061 320.5 152.555V12.4375C320.5 6.91465 316.023 2.4375 310.5 2.4375Z" fill="#375A6D"/>
<path id="label_lock_3" d="M274.899 75.7482V73.3113C274.899 72.8962 274.926 72.4901 274.98 72.0928M286.597 75.7482V73.3113C286.597 71.8262 286.235 70.3764 285.559 69.1548C284.884 67.933 283.928 66.9973 282.815 66.4723C281.704 65.9471 280.492 65.8576 279.338 66.2154C278.186 66.5732 277.147 67.3614 276.361 68.4752M279.773 90.3699H276.849C274.092 90.3699 272.713 90.3699 271.857 89.2988C271 88.229 271 86.5049 271 83.059C271 79.6132 271 77.8891 271.857 76.8193C272.713 75.7482 274.092 75.7482 276.849 75.7482H284.647C287.404 75.7482 288.783 75.7482 289.639 76.8193C290.496 77.8891 290.496 79.6132 290.496 83.059C290.496 86.5049 290.496 88.229 289.639 89.2988C288.783 90.3699 287.404 90.3699 284.647 90.3699H283.672" stroke="#EADB5A" stroke-linecap="round"/>
<rect id="Rectangle 435" x="288.377" width="4.87397" height="21.1205" transform="rotate(90 288.377 0)" fill="#8FB6F9"/>
<text id="label_area_3" fill="white" style="white-space: pre" xml:space="preserve" font-family="Montserrat" font-size="16" letter-spacing="0em"><tspan x="261" y="154.736">00,0 &#x43c;&#xb2;</tspan></text>
<text id="label_price_3" fill="white" style="white-space: pre" xml:space="preserve" font-family="Montserrat" font-size="12" letter-spacing="0em"><tspan x="247" y="70.802">&#x446;&#x435;&#x43d;&#x430;</tspan></text>
<text id="label_name_3" fill="white" style="white-space: pre" xml:space="preserve" font-family="Montserrat" font-size="16" letter-spacing="0em"><tspan x="287.942" y="27.9206">105</tspan></text>
<g id="label_busy_3">
<path id="form_3" d="M274.339 15.6601L281.658 15.6601L285.318 21.9998L281.658 28.3395L274.339 28.3395L270.679 21.9998L274.339 15.6601Z" fill="url(#paint2_radial_15_388)"/>
<text id="&#209;&#129;&#208;&#180;&#208;&#176;&#208;&#189;_3" fill="black" style="white-space: pre" xml:space="preserve" font-family="Montserrat" font-size="5" font-weight="500" letter-spacing="0em"><tspan x="271.999" y="22.7925">&#x441;&#x434;&#x430;&#x43d;</tspan></text>
</g>
</g>
<g id="room_106">
<path id="poly_4" d="M391.698 2.4375H338.994C333.471 2.4375 328.994 6.91465 328.994 12.4375V152.872C328.994 158.395 333.471 162.872 338.994 162.872H354.786C357.365 162.872 359.456 164.964 359.456 167.543C359.456 170.123 361.548 172.214 364.127 172.214H377.734C380.426 172.214 382.608 170.032 382.608 167.34C382.608 164.648 384.79 162.466 387.482 162.466H392.153C397.424 162.466 401.698 158.193 401.698 152.921V12.4375C401.698 6.91465 397.22 2.4375 391.698 2.4375Z" fill="#375A6D"/>
<path id="label_lock_4" d="M359.899 75.7482V73.3113C359.899 72.8962 359.926 72.4901 359.98 72.0928M371.597 75.7482V73.3113C371.597 71.8262 371.235 70.3764 370.559 69.1548C369.884 67.933 368.928 66.9973 367.815 66.4723C366.704 65.9471 365.492 65.8576 364.338 66.2154C363.186 66.5732 362.147 67.3614 361.361 68.4752M364.773 90.3699H361.849C359.092 90.3699 357.713 90.3699 356.857 89.2988C356 88.229 356 86.5049 356 83.059C356 79.6132 356 77.8891 356.857 76.8193C357.713 75.7482 359.092 75.7482 361.849 75.7482H369.647C372.404 75.7482 373.783 75.7482 374.639 76.8193C375.496 77.8891 375.496 79.6132 375.496 83.059C375.496 86.5049 375.496 88.229 374.639 89.2988C373.783 90.3699 372.404 90.3699 369.647 90.3699H368.672" stroke="#EADB5A" stroke-linecap="round"/>
<rect id="Rectangle 436" x="376.921" width="4.87397" height="21.1205" transform="rotate(90 376.921 0)" fill="#8FB6F9"/>
<text id="label_area_4" fill="white" style="white-space: pre" xml:space="preserve" font-family="Montserrat" font-size="16" letter-spacing="0em"><tspan x="331.929" y="154.644">00,00 &#x43c;&#xb2;</tspan></text>
<text id="label_price_4" fill="white" style="white-space: pre" xml:space="preserve" font-family="Montserrat" font-size="12" letter-spacing="0em"><tspan x="335" y="70.802">&#x446;&#x435;&#x43d;&#x430;</tspan></text>
<text id="label_name_4" fill="white" style="white-space: pre" xml:space="preserve" font-family="Montserrat" font-size="16" letter-spacing="0em"><tspan x="370.299" y="27.9206">106</tspan></text>
<g id="label_busy_4">
<path id="form_4" d="M356.34 15.6601L363.66 15.6601L367.321 21.9998L363.66 28.3395L356.34 28.3395L352.679 21.9998L356.34 15.6601Z" fill="url(#paint3_radial_15_388)"/>
<text id="&#209;&#129;&#208;&#180;&#208;&#176;&#208;&#189;_4" fill="black" style="white-space: pre" xml:space="preserve" font-family="Montserrat" font-size="5" font-weight="500" letter-spacing="0em"><tspan x="353.998" y="22.7925">&#x441;&#x434;&#x430;&#x43d;</tspan></text>
</g>
</g>
<g id="room_107">
<path id="poly_5" d="M471.711 2.4375H415.758C410.235 2.4375 405.758 6.91466 405.758 12.4375V153.53C405.758 158.465 409.758 162.466 414.693 162.466H418.755C421.447 162.466 423.629 164.648 423.629 167.34C423.629 170.032 425.811 172.214 428.503 172.214H441.5C444.192 172.214 446.374 170.032 446.374 167.34C446.374 164.648 448.556 162.466 451.248 162.466H471.711C477.233 162.466 481.711 157.989 481.711 152.466V12.4375C481.711 6.91465 477.233 2.4375 471.711 2.4375Z" fill="#375A6D"/>
<path id="label_lock_5" d="M437.899 75.7482V73.3113C437.899 72.8962 437.926 72.4901 437.98 72.0928M449.597 75.7482V73.3113C449.597 71.8262 449.235 70.3764 448.559 69.1548C447.884 67.933 446.928 66.9973 445.815 66.4723C444.704 65.9471 443.492 65.8576 442.338 66.2154C441.186 66.5732 440.147 67.3614 439.361 68.4752M442.773 90.3699H439.849C437.092 90.3699 435.713 90.3699 434.857 89.2988C434 88.229 434 86.5049 434 83.059C434 79.6132 434 77.8891 434.857 76.8193C435.713 75.7482 437.092 75.7482 439.849 75.7482H447.647C450.404 75.7482 451.783 75.7482 452.639 76.8193C453.496 77.8891 453.496 79.6132 453.496 83.059C453.496 86.5049 453.496 88.229 452.639 89.2988C451.783 90.3699 450.404 90.3699 447.647 90.3699H446.672" stroke="#EADB5A" stroke-linecap="round"/>
<rect id="Rectangle 437" x="454.903" width="4.87397" height="21.1205" transform="rotate(90 454.903 0)" fill="#8FB6F9"/>
<text id="label_area_5" fill="white" style="white-space: pre" xml:space="preserve" font-family="Montserrat" font-size="16" letter-spacing="0em"><tspan x="410.1" y="154.644">00,00 &#x43c;&#xb2;</tspan></text>
<text id="label_price_5" fill="white" style="white-space: pre" xml:space="preserve" font-family="Montserrat" font-size="12" letter-spacing="0em"><tspan x="410" y="70.802">&#x446;&#x435;&#x43d;&#x430;</tspan></text>
<text id="label_name_5" fill="white" style="white-space: pre" xml:space="preserve" font-family="Montserrat" font-size="16" letter-spacing="0em"><tspan x="451.281" y="27.9206">107</tspan></text>
<g id="label_busy_5">
<path id="form_5" d="M437.34 15.6601L444.66 15.6601L448.321 21.9998L444.66 28.3395L437.34 28.3395L433.679 21.9998L437.34 15.6601Z" fill="url(#paint4_radial_15_388)"/>
<text id="&#209;&#129;&#208;&#180;&#208;&#176;&#208;&#189;_5" fill="black" style="white-space: pre" xml:space="preserve" font-family="Montserrat" font-size="5" font-weight="500" letter-spacing="0em"><tspan x="434.998" y="22.7925">&#x441;&#x434;&#x430;&#x43d;</tspan></text>
</g>
</g>
<g id="room_108">
<path id="poly_6" d="M558.223 2.4375H496.584C491.061 2.4375 486.584 6.91465 486.584 12.4375V152.989C486.584 158.223 490.827 162.466 496.062 162.466C498.575 162.466 500.986 161.468 502.763 159.69L529.552 132.902C531.427 131.027 533.971 129.973 536.623 129.973H558.223C563.746 129.973 568.223 125.496 568.223 119.973V12.4375C568.223 6.91465 563.746 2.4375 558.223 2.4375Z" fill="#375A6D"/>
<path id="label_lock_6" d="M521.899 63.7482V61.3113C521.899 60.8962 521.926 60.4901 521.98 60.0928M533.597 63.7482V61.3113C533.597 59.8262 533.235 58.3764 532.559 57.1548C531.884 55.933 530.928 54.9973 529.815 54.4723C528.704 53.9471 527.492 53.8576 526.338 54.2154C525.186 54.5732 524.147 55.3614 523.361 56.4752M526.773 78.3699H523.849C521.092 78.3699 519.713 78.3699 518.857 77.2988C518 76.229 518 74.5049 518 71.059C518 67.6132 518 65.8891 518.857 64.8193C519.713 63.7482 521.092 63.7482 523.849 63.7482H531.647C534.404 63.7482 535.783 63.7482 536.639 64.8193C537.496 65.8891 537.496 67.6132 537.496 71.059C537.496 74.5049 537.496 76.229 536.639 77.2988C535.783 78.3699 534.404 78.3699 531.647 78.3699H530.672" stroke="#EADB5A" stroke-linecap="round"/>
<rect id="Rectangle 438" x="538.573" width="4.87397" height="21.1205" transform="rotate(90 538.573 0)" fill="#8FB6F9"/>
<text id="label_area_6" fill="white" style="white-space: pre" xml:space="preserve" font-family="Montserrat" font-size="16" letter-spacing="0em"><tspan x="494.581" y="122.151">00,00 &#x43c;&#xb2;</tspan></text>
<text id="label_price_6" fill="white" style="white-space: pre" xml:space="preserve" font-family="Montserrat" font-size="12" letter-spacing="0em"><tspan x="495" y="70.802">&#x446;&#x435;&#x43d;&#x430;</tspan></text>
<text id="label_name_6" fill="white" style="white-space: pre" xml:space="preserve" font-family="Montserrat" font-size="16" letter-spacing="0em"><tspan x="535.951" y="27.736">108</tspan></text>
<g id="label_busy_6">
<path id="form_6" d="M522.34 15.6601L529.66 15.6601L533.321 21.9998L529.66 28.3395L522.34 28.3395L518.679 21.9998L522.34 15.6601Z" fill="url(#paint5_radial_15_388)"/>
<text id="&#209;&#129;&#208;&#180;&#208;&#176;&#208;&#189;_6" fill="black" style="white-space: pre" xml:space="preserve" font-family="Montserrat" font-size="5" font-weight="500" letter-spacing="0em"><tspan x="520.001" y="22.7925">&#x441;&#x434;&#x430;&#x43d;</tspan></text>
</g>
</g>
<g id="room_109">
<path id="poly_7" d="M643.112 2.4375H583.504C577.981 2.4375 573.504 6.91464 573.504 12.4375V119.974C573.504 125.496 577.981 129.974 583.504 129.974H632.336C635.041 129.974 637.631 128.877 639.515 126.935L650.291 115.824C652.1 113.958 653.112 111.461 653.112 108.862V12.4375C653.112 6.91465 648.635 2.4375 643.112 2.4375Z" fill="#375A6D"/>
<path id="label_lock_7" d="M606.899 63.7482V61.3113C606.899 60.8962 606.926 60.4901 606.98 60.0928M618.597 63.7482V61.3113C618.597 59.8262 618.235 58.3764 617.559 57.1548C616.884 55.933 615.928 54.9973 614.815 54.4723C613.704 53.9471 612.492 53.8576 611.338 54.2154C610.186 54.5732 609.147 55.3614 608.361 56.4752M611.773 78.3699H608.849C606.092 78.3699 604.713 78.3699 603.857 77.2988C603 76.229 603 74.5049 603 71.059C603 67.6132 603 65.8891 603.857 64.8193C604.713 63.7482 606.092 63.7482 608.849 63.7482H616.647C619.404 63.7482 620.783 63.7482 621.639 64.8193C622.496 65.8891 622.496 67.6132 622.496 71.059C622.496 74.5049 622.496 76.229 621.639 77.2988C620.783 78.3699 619.404 78.3699 616.647 78.3699H615.672" stroke="#EADB5A" stroke-linecap="round"/>
<rect id="Rectangle 439" x="623.867" width="4.87397" height="21.1205" transform="rotate(90 623.867 0)" fill="#8FB6F9"/>
<text id="label_area_7" fill="white" style="white-space: pre" xml:space="preserve" font-family="Montserrat" font-size="16" letter-spacing="0em"><tspan x="578" y="121.736">00,00 &#x43c;&#xb2;</tspan></text>
<text id="label_price_7" fill="white" style="white-space: pre" xml:space="preserve" font-family="Montserrat" font-size="12" letter-spacing="0em"><tspan x="579" y="70.802">&#x446;&#x435;&#x43d;&#x430;</tspan></text>
<text id="label_name_7" fill="white" style="white-space: pre" xml:space="preserve" font-family="Montserrat" font-size="16" letter-spacing="0em"><tspan x="620.059" y="27.736">109</tspan></text>
<g id="label_busy_7">
<path id="form_7" d="M606.34 15.6601L613.66 15.6601L617.321 21.9998L613.66 28.3395L606.34 28.3395L602.679 21.9998L606.34 15.6601Z" fill="url(#paint6_radial_15_388)"/>
<text id="&#209;&#129;&#208;&#180;&#208;&#176;&#208;&#189;_7" fill="black" style="white-space: pre" xml:space="preserve" font-family="Montserrat" font-size="5" font-weight="500" letter-spacing="0em"><tspan x="604" y="22.7925">&#x441;&#x434;&#x430;&#x43d;</tspan></text>
</g>
</g>
<g id="room_110">
<path id="poly_8" d="M800.955 83.4183V12.4375C800.955 6.91467 796.478 2.43751 790.955 2.43752L735.003 2.43765C729.48 2.43766 725.003 6.9148 725.003 12.4376V20.1091C725.003 23.0676 723.693 25.8743 721.425 27.7743L713.552 34.3702C711.285 36.2702 709.975 39.0769 709.975 42.0354V83.4183C709.975 88.9411 714.452 93.4183 719.975 93.4183H790.955C796.478 93.4183 800.955 88.9411 800.955 83.4183Z" fill="#375A6D"/>
<path id="label_lock_8" d="M752.899 45.7482V43.3113C752.899 42.8962 752.926 42.4901 752.98 42.0928M764.597 45.7482V43.3113C764.597 41.8262 764.235 40.3764 763.559 39.1548C762.884 37.933 761.928 36.9973 760.815 36.4723C759.704 35.9471 758.492 35.8576 757.338 36.2154C756.186 36.5732 755.147 37.3614 754.361 38.4752M757.773 60.3699H754.849C752.092 60.3699 750.713 60.3699 749.857 59.2988C749 58.229 749 56.5049 749 53.059C749 49.6132 749 47.8891 749.857 46.8193C750.713 45.7482 752.092 45.7482 754.849 45.7482H762.647C765.404 45.7482 766.783 45.7482 767.639 46.8193C768.496 47.8891 768.496 49.6132 768.496 53.059C768.496 56.5049 768.496 58.229 767.639 59.2988C766.783 60.3699 765.404 60.3699 762.647 60.3699H761.672" stroke="#EADB5A" stroke-linecap="round"/>
<rect id="Rectangle 440" x="745.717" width="4.87397" height="14.6219" transform="rotate(90 745.717 0)" fill="#8FB6F9"/>
<text id="label_area_8" fill="white" style="white-space: pre" xml:space="preserve" font-family="Montserrat" font-size="16" letter-spacing="0em"><tspan x="728" y="89.6579">00,00 &#x43c;&#xb2;</tspan></text>
<text id="label_price_8" fill="white" style="white-space: pre" xml:space="preserve" font-family="Montserrat" font-size="16" letter-spacing="0em"><tspan x="714" y="55.7975">&#x446;&#x435;&#x43d;&#x430;</tspan></text>
<text id="label_name_8" fill="white" style="white-space: pre" xml:space="preserve" font-family="Montserrat" font-size="16" letter-spacing="0em"><tspan x="769" y="20.736">110</tspan></text>
<g id="label_busy_8">
<path id="form_8" d="M755.34 8.66006L762.66 8.66006L766.321 14.9998L762.66 21.3395L755.34 21.3395L751.679 14.9998L755.34 8.66006Z" fill="url(#paint7_radial_15_388)"/>
<text id="&#209;&#129;&#208;&#180;&#208;&#176;&#208;&#189;_8" fill="black" style="white-space: pre" xml:space="preserve" font-family="Montserrat" font-size="5" font-weight="500" letter-spacing="0em"><tspan x="753" y="15.7925">&#x441;&#x434;&#x430;&#x43d;</tspan></text>
</g>
</g>
<g id="room_111">
<path id="poly_9" d="M790.956 98.292H719.975C714.452 98.292 709.975 102.769 709.975 108.292V115.27C709.975 117.922 708.921 120.466 707.046 122.341L677.161 152.226C675.286 154.101 674.232 156.645 674.232 159.297V160.995C674.232 166.518 678.71 170.995 684.232 170.995H790.956C796.479 170.995 800.956 166.518 800.956 160.995V108.292C800.956 102.769 796.479 98.292 790.956 98.292Z" fill="#375A6D"/>
<path id="label_lock_9" d="M741.899 131.748V129.311C741.899 128.896 741.926 128.49 741.98 128.093M753.597 131.748V129.311C753.597 127.826 753.235 126.376 752.559 125.155C751.884 123.933 750.928 122.997 749.815 122.472C748.704 121.947 747.492 121.858 746.338 122.215C745.186 122.573 744.147 123.361 743.361 124.475M746.773 146.37H743.849C741.092 146.37 739.713 146.37 738.857 145.299C738 144.229 738 142.505 738 139.059C738 135.613 738 133.889 738.857 132.819C739.713 131.748 741.092 131.748 743.849 131.748H751.647C754.404 131.748 755.783 131.748 756.639 132.819C757.496 133.889 757.496 135.613 757.496 139.059C757.496 142.505 757.496 144.229 756.639 145.299C755.783 146.37 754.404 146.37 751.647 146.37H750.672" stroke="#EADB5A" stroke-linecap="round"/>
<text id="label_area_9" fill="white" style="white-space: pre" xml:space="preserve" font-family="Montserrat" font-size="16" letter-spacing="0em"><tspan x="728" y="167.642">00,00 &#x43c;&#xb2;</tspan></text>
<text id="label_price_9" fill="white" style="white-space: pre" xml:space="preserve" font-family="Montserrat" font-size="16" letter-spacing="0em"><tspan x="714" y="138.736">&#x446;&#x435;&#x43d;&#x430;</tspan></text>
<text id="label_name_9" fill="white" style="white-space: pre" xml:space="preserve" font-family="Montserrat" font-size="16" letter-spacing="0em"><tspan x="768.899" y="116.152">111</tspan></text>
<g id="label_busy_9">
<path id="form_9" d="M755.34 103.66L762.66 103.66L766.321 110L762.66 116.34L755.34 116.34L751.679 110L755.34 103.66Z" fill="url(#paint8_radial_15_388)"/>
<text id="&#209;&#129;&#208;&#180;&#208;&#176;&#208;&#189;_9" fill="black" style="white-space: pre" xml:space="preserve" font-family="Montserrat" font-size="5" font-weight="500" letter-spacing="0em"><tspan x="753" y="110.793">&#x441;&#x434;&#x430;&#x43d;</tspan></text>
</g>
</g>
<g id="room_112">
<path id="poly_10" d="M651.895 242.228V191.962C651.895 186.439 647.418 181.962 641.895 181.962H544C541.236 181.962 538.596 183.106 536.705 185.122L532.201 189.926C528.509 193.864 528.608 200.02 532.425 203.837L577.888 249.299C579.763 251.175 582.306 252.228 584.959 252.228H641.895C647.418 252.228 651.895 247.751 651.895 242.228Z" fill="#375A6D"/>
<path id="label_lock_10" d="M573.9 208.769V206.332C573.9 205.917 573.927 205.511 573.981 205.113M585.598 208.769V206.332C585.598 204.847 585.236 203.397 584.56 202.175C583.885 200.954 582.929 200.018 581.816 199.493C580.705 198.968 579.493 198.878 578.339 199.236C577.187 199.594 576.148 200.382 575.362 201.496M578.774 223.39H575.85C573.093 223.39 571.714 223.39 570.858 222.319C570.001 221.25 570.001 219.525 570.001 216.08C570.001 212.634 570.001 210.91 570.858 209.84C571.714 208.769 573.093 208.769 575.85 208.769H583.648C586.405 208.769 587.784 208.769 588.64 209.84C589.497 210.91 589.497 212.634 589.497 216.08C589.497 219.525 589.497 221.25 588.64 222.319C587.784 223.39 586.405 223.39 583.648 223.39H582.673" stroke="#EADB5A" stroke-linecap="round"/>
<text id="label_area_10" fill="white" style="white-space: pre" xml:space="preserve" font-family="Montserrat" font-size="16" letter-spacing="0em"><tspan x="578.878" y="249.687">00,00 &#x43c;&#xb2;</tspan></text>
<text id="label_price_10" fill="white" style="white-space: pre" xml:space="preserve" font-family="Montserrat" font-size="12" letter-spacing="0em"><tspan x="556" y="213.802">&#x446;&#x435;&#x43d;&#x430;</tspan></text>
<text id="label_name_10" fill="white" style="white-space: pre" xml:space="preserve" font-family="Montserrat" font-size="16" letter-spacing="0em"><tspan x="621.433" y="199.736">112</tspan></text>
<g id="label_busy_10">
<path id="form_10" d="M607.341 187.66L614.661 187.66L618.321 194L614.661 200.34L607.341 200.34L603.68 194L607.341 187.66Z" fill="url(#paint9_radial_15_388)"/>
<text id="&#209;&#129;&#208;&#180;&#208;&#176;&#208;&#189;_10" fill="black" style="white-space: pre" xml:space="preserve" font-family="Montserrat" font-size="5" font-weight="500" letter-spacing="0em"><tspan x="605.002" y="194.793">&#x441;&#x434;&#x430;&#x43d;</tspan></text>
</g>
</g>
<g id="room_113">
<path id="poly_11" d="M651.893 326.304V267.915C651.893 262.392 647.416 257.915 641.893 257.915H583.332C580.68 257.915 578.136 256.861 576.261 254.986L528.586 207.31C524.68 203.405 518.349 203.405 514.444 207.31L510.228 211.526C508.352 213.401 507.299 215.945 507.299 218.597V228.184C507.299 230.836 508.352 233.38 510.228 235.255L551.079 276.106C552.954 277.982 554.008 280.525 554.008 283.177V326.304C554.008 331.827 558.485 336.304 564.008 336.304H641.893C647.416 336.304 651.893 331.827 651.893 326.304Z" fill="#375A6D"/>
<path id="label_lock_11" d="M583.899 289.748V287.311C583.899 286.896 583.926 286.49 583.98 286.093M595.597 289.748V287.311C595.597 285.826 595.235 284.376 594.559 283.155C593.884 281.933 592.928 280.997 591.815 280.472C590.704 279.947 589.492 279.858 588.338 280.215C587.186 280.573 586.147 281.361 585.361 282.475M588.773 304.37H585.849C583.092 304.37 581.713 304.37 580.857 303.299C580 302.229 580 300.505 580 297.059C580 293.613 580 291.889 580.857 290.819C581.713 289.748 583.092 289.748 585.849 289.748H593.647C596.404 289.748 597.783 289.748 598.639 290.819C599.496 291.889 599.496 293.613 599.496 297.059C599.496 300.505 599.496 302.229 598.639 303.299C597.783 304.37 596.404 304.37 593.647 304.37H592.672" stroke="#EADB5A" stroke-linecap="round"/>
<text id="label_area_11" fill="white" style="white-space: pre" xml:space="preserve" font-family="Montserrat" font-size="16" letter-spacing="0em"><tspan x="580.501" y="331.732">00,00 &#x43c;&#xb2;</tspan></text>
<text id="label_price_11" fill="white" style="white-space: pre" xml:space="preserve" font-family="Montserrat" font-size="12" letter-spacing="0em"><tspan x="559" y="292.802">&#x446;&#x435;&#x43d;&#x430;</tspan></text>
<text id="label_name_11" fill="white" style="white-space: pre" xml:space="preserve" font-family="Montserrat" font-size="16" letter-spacing="0em"><tspan x="621.432" y="275.179">113</tspan></text>
<g id="label_busy_11">
<path id="form_11" d="M607.34 262.66L614.66 262.66L618.321 269L614.66 275.34L607.34 275.34L603.679 269L607.34 262.66Z" fill="url(#paint10_radial_15_388)"/>
<text id="&#209;&#129;&#208;&#180;&#208;&#176;&#208;&#189;_11" fill="black" style="white-space: pre" xml:space="preserve" font-family="Montserrat" font-size="5" font-weight="500" letter-spacing="0em"><tspan x="605.001" y="269.792">&#x441;&#x434;&#x430;&#x43d;</tspan></text>
</g>
</g>
<g id="room_114">
<path id="poly_12" d="M475.212 373.527V227C475.212 221.477 479.689 217 485.212 217H490.8C496.323 217 500.8 221.477 500.8 227V229.104C500.8 231.757 501.854 234.3 503.729 236.175L544.174 276.62C546.049 278.496 547.103 281.039 547.103 283.691V373.527C547.103 379.05 542.626 383.527 537.103 383.527H485.212C479.689 383.527 475.212 379.05 475.212 373.527Z" fill="#375A6D"/>
<path id="label_lock_12" d="M504.899 311.857V309.42C504.899 309.005 504.926 308.598 504.98 308.201M516.597 311.857V309.42C516.597 307.935 516.235 306.485 515.559 305.263C514.884 304.041 513.928 303.106 512.815 302.581C511.704 302.056 510.492 301.966 509.338 302.324C508.186 302.682 507.147 303.47 506.361 304.584M509.773 326.478H506.849C504.092 326.478 502.713 326.478 501.857 325.407C501 324.337 501 322.613 501 319.167C501 315.722 501 313.997 501.857 312.928C502.713 311.857 504.092 311.857 506.849 311.857H514.647C517.404 311.857 518.783 311.857 519.639 312.928C520.496 313.997 520.496 315.722 520.496 319.167C520.496 322.613 520.496 324.337 519.639 325.407C518.783 326.478 517.404 326.478 514.647 326.478H513.672" stroke="#EADB5A" stroke-linecap="round"/>
<text id="label_area_12" fill="white" style="white-space: pre" xml:space="preserve" font-family="Montserrat" font-size="16" letter-spacing="0em"><tspan x="477.522" y="375.706">00,00 &#x43c;&#xb2;</tspan></text>
<text id="label_price_12" fill="white" style="white-space: pre" xml:space="preserve" font-family="Montserrat" font-size="12" letter-spacing="0em"><tspan x="478" y="315.802">&#x446;&#x435;&#x43d;&#x430;</tspan></text>
<text id="label_name_12" fill="white" style="white-space: pre" xml:space="preserve" font-family="Montserrat" font-size="16" letter-spacing="0em"><tspan x="494.896" y="266.042">114</tspan></text>
<g id="label_busy_12">
<path id="form_12" d="M481.34 253.768L488.66 253.768L492.321 260.108L488.66 266.448L481.34 266.448L477.679 260.108L481.34 253.768Z" fill="url(#paint11_radial_15_388)"/>
<text id="&#209;&#129;&#208;&#180;&#208;&#176;&#208;&#189;_12" fill="black" style="white-space: pre" xml:space="preserve" font-family="Montserrat" font-size="5" font-weight="500" letter-spacing="0em"><tspan x="479.001" y="260.9">&#x441;&#x434;&#x430;&#x43d;</tspan></text>
</g>
</g>
<g id="room_115">
<path id="poly_13" d="M404.946 224.203H388.139C382.616 224.203 378.139 228.68 378.139 234.203V305.996C378.139 311.519 382.616 315.996 388.139 315.996H454.245C459.768 315.996 464.245 311.519 464.245 305.996V234.203C464.245 228.68 459.768 224.203 454.245 224.203H444.343C442.325 224.203 440.688 222.566 440.688 220.547C440.688 218.528 439.051 216.892 437.032 216.892H412.256C410.238 216.892 408.601 218.528 408.601 220.547C408.601 222.566 406.964 224.203 404.946 224.203Z" fill="#375A6D"/>
<path id="label_lock_13" d="M414.899 263.748V261.311C414.899 260.896 414.926 260.49 414.98 260.093M426.597 263.748V261.311C426.597 259.826 426.235 258.376 425.559 257.155C424.884 255.933 423.928 254.997 422.815 254.472C421.704 253.947 420.492 253.858 419.338 254.215C418.186 254.573 417.147 255.361 416.361 256.475M419.773 278.37H416.849C414.092 278.37 412.713 278.37 411.857 277.299C411 276.229 411 274.505 411 271.059C411 267.613 411 265.889 411.857 264.819C412.713 263.748 414.092 263.748 416.849 263.748H424.647C427.404 263.748 428.783 263.748 429.639 264.819C430.496 265.889 430.496 267.613 430.496 271.059C430.496 274.505 430.496 276.229 429.639 277.299C428.783 278.37 427.404 278.37 424.647 278.37H423.672" stroke="#EADB5A" stroke-linecap="round"/>
<text id="label_area_13" fill="white" style="white-space: pre" xml:space="preserve" font-family="Montserrat" font-size="16" letter-spacing="0em"><tspan x="389" y="307.736">00,00 &#x43c;&#xb2;</tspan></text>
<text id="label_price_13" fill="white" style="white-space: pre" xml:space="preserve" font-family="Montserrat" font-size="12" letter-spacing="0em"><tspan x="389" y="267.802">&#x446;&#x435;&#x43d;&#x430;</tspan></text>
<text id="label_name_13" fill="white" style="white-space: pre" xml:space="preserve" font-family="Montserrat" font-size="16" letter-spacing="0em"><tspan x="432.349" y="243.188">115</tspan></text>
<g id="label_busy_13">
<path id="form_13" d="M418.34 230.66L425.66 230.66L429.321 237L425.66 243.34L418.34 243.34L414.679 237L418.34 230.66Z" fill="url(#paint12_radial_15_388)"/>
<text id="&#209;&#129;&#208;&#180;&#208;&#176;&#208;&#189;_13" fill="black" style="white-space: pre" xml:space="preserve" font-family="Montserrat" font-size="5" font-weight="500" letter-spacing="0em"><tspan x="416.001" y="237.792">&#x441;&#x434;&#x430;&#x43d;</tspan></text>
</g>
</g>
<g id="room_116">
<path id="poly_14" d="M282.285 305.995V226.892C282.285 221.369 286.762 216.892 292.285 216.892H302.792C305.399 216.892 307.773 218.394 308.889 220.75C310.005 223.106 312.379 224.608 314.986 224.608H360.423C365.946 224.608 370.423 229.086 370.423 234.608V305.995C370.423 311.518 365.946 315.995 360.423 315.995H292.285C286.762 315.995 282.285 311.518 282.285 305.995Z" fill="#375A6D"/>
<path id="label_lock_14" d="M319.899 263.748V261.311C319.899 260.896 319.926 260.49 319.98 260.093M331.597 263.748V261.311C331.597 259.826 331.235 258.376 330.559 257.155C329.884 255.933 328.928 254.997 327.815 254.472C326.704 253.947 325.492 253.858 324.338 254.215C323.186 254.573 322.147 255.361 321.361 256.475M324.773 278.37H321.849C319.092 278.37 317.713 278.37 316.857 277.299C316 276.229 316 274.505 316 271.059C316 267.613 316 265.889 316.857 264.819C317.713 263.748 319.092 263.748 321.849 263.748H329.647C332.404 263.748 333.783 263.748 334.639 264.819C335.496 265.889 335.496 267.613 335.496 271.059C335.496 274.505 335.496 276.229 334.639 277.299C333.783 278.37 332.404 278.37 329.647 278.37H328.672" stroke="#EADB5A" stroke-linecap="round"/>
<text id="label_area_14" fill="white" style="white-space: pre" xml:space="preserve" font-family="Montserrat" font-size="16" letter-spacing="0em"><tspan x="292" y="307.736">00,00 &#x43c;&#xb2;</tspan></text>
<text id="label_price_14" fill="white" style="white-space: pre" xml:space="preserve" font-family="Montserrat" font-size="12" letter-spacing="0em"><tspan x="292" y="267.802">&#x446;&#x435;&#x43d;&#x430;</tspan></text>
<text id="label_name_14" fill="white" style="white-space: pre" xml:space="preserve" font-family="Montserrat" font-size="16" letter-spacing="0em"><tspan x="339.307" y="243.188">116</tspan></text>
<g id="label_busy_14">
<path id="form_14" d="M325.34 230.66L332.66 230.66L336.321 237L332.66 243.34L325.34 243.34L321.679 237L325.34 230.66Z" fill="url(#paint13_radial_15_388)"/>
<text id="&#209;&#129;&#208;&#180;&#208;&#176;&#208;&#189;_14" fill="black" style="white-space: pre" xml:space="preserve" font-family="Montserrat" font-size="5" font-weight="500" letter-spacing="0em"><tspan x="322.998" y="237.792">&#x441;&#x434;&#x430;&#x43d;</tspan></text>
</g>
</g>
<g id="room_117">
<path id="poly_15" d="M202.802 266.064L182.998 266.119C177.486 266.134 173.025 270.606 173.025 276.119V312.137C173.025 314.268 174.753 315.995 176.884 315.995C179.015 315.995 180.743 317.723 180.743 319.854V325.54C180.743 327.671 179.015 329.399 176.884 329.399C174.753 329.399 173.025 331.126 173.025 333.257V377.299C173.025 379.984 174.105 382.556 176.021 384.436L193.574 401.662C197.49 405.505 203.77 405.475 207.649 401.596L222.085 387.16C223.961 385.284 226.504 384.231 229.157 384.231H327.116C332.639 384.231 337.116 379.754 337.116 374.231V339.399C337.116 333.876 332.639 329.399 327.116 329.399H207.346C203.645 329.399 200.645 326.398 200.645 322.697V322.088C200.645 318.723 203.372 315.995 206.737 315.995C210.102 315.995 212.829 313.267 212.829 309.903V276.064C212.829 270.531 208.336 266.049 202.802 266.064Z" fill="#375A6D"/>
<path id="label_lock_15" d="M242.899 349.748V347.311C242.899 346.896 242.926 346.49 242.98 346.093M254.597 349.748V347.311C254.597 345.826 254.235 344.376 253.559 343.155C252.884 341.933 251.928 340.997 250.815 340.472C249.704 339.947 248.492 339.858 247.338 340.215C246.186 340.573 245.147 341.361 244.361 342.475M247.773 364.37H244.849C242.092 364.37 240.713 364.37 239.857 363.299C239 362.229 239 360.505 239 357.059C239 353.613 239 351.889 239.857 350.819C240.713 349.748 242.092 349.748 244.849 349.748H252.647C255.404 349.748 256.783 349.748 257.639 350.819C258.496 351.889 258.496 353.613 258.496 357.059C258.496 360.505 258.496 362.229 257.639 363.299C256.783 364.37 255.404 364.37 252.647 364.37H251.672" stroke="#EADB5A" stroke-linecap="round"/>
<text id="label_area_15" fill="white" style="white-space: pre" xml:space="preserve" font-family="Montserrat" font-size="16" letter-spacing="0em"><tspan x="262" y="378.736">00,00 &#x43c;&#xb2;</tspan></text>
<text id="label_price_15" fill="white" style="white-space: pre" xml:space="preserve" font-family="Montserrat" font-size="12" letter-spacing="0em"><tspan x="196" y="355.802">&#x446;&#x435;&#x43d;&#x430;</tspan></text>
<text id="label_name_15" fill="white" style="white-space: pre" xml:space="preserve" font-family="Montserrat" font-size="16" letter-spacing="0em"><tspan x="304.623" y="348.736">117</tspan></text>
<g id="label_busy_15">
<path id="form_15" d="M291.34 336.661L298.66 336.661L302.321 343.001L298.66 349.341L291.34 349.341L287.679 343.001L291.34 336.661Z" fill="url(#paint14_radial_15_388)"/>
<text id="&#209;&#129;&#208;&#180;&#208;&#176;&#208;&#189;_15" fill="black" style="white-space: pre" xml:space="preserve" font-family="Montserrat" font-size="5" font-weight="500" letter-spacing="0em"><tspan x="289" y="343.793">&#x441;&#x434;&#x430;&#x43d;</tspan></text>
</g>
</g>
<g id="room_118">
<path id="poly_16" d="M234.032 390.324H327.117C332.64 390.324 337.117 394.801 337.117 400.324V448.154C337.117 453.676 332.64 458.154 327.117 458.154H215.52C209.997 458.154 205.52 453.676 205.52 448.154V418.836C205.52 416.184 206.573 413.641 208.448 411.765L226.96 393.253C228.836 391.378 231.379 390.324 234.032 390.324Z" fill="#375A6D"/>
<path id="label_lock_16" d="M261.899 418.748V416.311C261.899 415.896 261.926 415.49 261.98 415.093M273.597 418.748V416.311C273.597 414.826 273.235 413.376 272.559 412.155C271.884 410.933 270.928 409.997 269.815 409.472C268.704 408.947 267.492 408.858 266.338 409.215C265.186 409.573 264.147 410.361 263.361 411.475M266.773 433.37H263.849C261.092 433.37 259.713 433.37 258.857 432.299C258 431.229 258 429.505 258 426.059C258 422.613 258 420.889 258.857 419.819C259.713 418.748 261.092 418.748 263.849 418.748H271.647C274.404 418.748 275.783 418.748 276.639 419.819C277.496 420.889 277.496 422.613 277.496 426.059C277.496 429.505 277.496 431.229 276.639 432.299C275.783 433.37 274.404 433.37 271.647 433.37H270.672" stroke="#EADB5A" stroke-linecap="round"/>
<text id="label_area_16" fill="white" style="white-space: pre" xml:space="preserve" font-family="Montserrat" font-size="16" letter-spacing="0em"><tspan x="262" y="454.282">00,00 &#x43c;&#xb2;</tspan></text>
<text id="label_price_16" fill="white" style="white-space: pre" xml:space="preserve" font-family="Montserrat" font-size="12" letter-spacing="0em"><tspan x="212" y="424.802">&#x446;&#x435;&#x43d;&#x430;</tspan></text>
<text id="label_name_16" fill="white" style="white-space: pre" xml:space="preserve" font-family="Montserrat" font-size="16" letter-spacing="0em"><tspan x="304.624" y="408.737">118</tspan></text>
<g id="label_busy_16">
<path id="form_16" d="M291.341 396.66L298.661 396.66L302.321 403L298.661 409.34L291.341 409.34L287.68 403L291.341 396.66Z" fill="url(#paint15_radial_15_388)"/>
<text id="&#209;&#129;&#208;&#180;&#208;&#176;&#208;&#189;_16" fill="black" style="white-space: pre" xml:space="preserve" font-family="Montserrat" font-size="5" font-weight="500" letter-spacing="0em"><tspan x="289.001" y="403.793">&#x441;&#x434;&#x430;&#x43d;</tspan></text>
</g>
</g>
<g id="room_119">
<path id="poly_17" d="M215.52 462.216H327.117C332.64 462.216 337.117 466.693 337.117 472.216V520.045C337.117 525.568 332.64 530.045 327.117 530.045H253.934C251.281 530.045 248.738 528.992 246.862 527.116L231.6 511.854C229.724 509.978 227.181 508.925 224.529 508.925H215.52C209.997 508.925 205.52 504.448 205.52 498.925V472.216C205.52 466.693 209.997 462.216 215.52 462.216Z" fill="#375A6D"/>
<path id="label_lock_17" d="M261.899 488.748V486.311C261.899 485.896 261.926 485.49 261.98 485.093M273.597 488.748V486.311C273.597 484.826 273.235 483.376 272.559 482.155C271.884 480.933 270.928 479.997 269.815 479.472C268.704 478.947 267.492 478.858 266.338 479.215C265.186 479.573 264.147 480.361 263.361 481.475M266.773 503.37H263.849C261.092 503.37 259.713 503.37 258.857 502.299C258 501.229 258 499.505 258 496.059C258 492.613 258 490.889 258.857 489.819C259.713 488.748 261.092 488.748 263.849 488.748H271.647C274.404 488.748 275.783 488.748 276.639 489.819C277.496 490.889 277.496 492.613 277.496 496.059C277.496 499.505 277.496 501.229 276.639 502.299C275.783 503.37 274.404 503.37 271.647 503.37H270.672" stroke="#EADB5A" stroke-linecap="round"/>
<text id="label_area_17" fill="white" style="white-space: pre" xml:space="preserve" font-family="Montserrat" font-size="16" letter-spacing="0em"><tspan x="262" y="524.142">00,00 &#x43c;&#xb2;</tspan></text>
<text id="label_price_17" fill="white" style="white-space: pre" xml:space="preserve" font-family="Montserrat" font-size="12" letter-spacing="0em"><tspan x="212" y="490.802">&#x446;&#x435;&#x43d;&#x430;</tspan></text>
<text id="label_name_17" fill="white" style="white-space: pre" xml:space="preserve" font-family="Montserrat" font-size="16" letter-spacing="0em"><tspan x="304.624" y="482.736">119</tspan></text>
<g id="label_busy_17">
<path id="form_17" d="M291.341 470.662L298.661 470.662L302.321 477.002L298.661 483.342L291.341 483.342L287.68 477.002L291.341 470.662Z" fill="url(#paint16_radial_15_388)"/>
<text id="&#209;&#129;&#208;&#180;&#208;&#176;&#208;&#189;_17" fill="black" style="white-space: pre" xml:space="preserve" font-family="Montserrat" font-size="5" font-weight="500" letter-spacing="0em"><tspan x="289.001" y="477.794">&#x441;&#x434;&#x430;&#x43d;</tspan></text>
</g>
</g>
<g id="room_120">
<path id="poly_18" d="M251.489 534.111L327.128 534.203C332.646 534.209 337.116 538.684 337.116 544.203V583C337.116 588.523 332.639 593 327.116 593H174.902C169.379 593 164.902 588.523 164.902 583V544.106C164.902 538.583 169.379 534.106 174.902 534.106H180.662C183.314 534.106 185.858 533.052 187.733 531.177L202.996 515.914C204.871 514.039 207.415 512.985 210.067 512.985H222.091C224.743 512.985 227.287 514.039 229.162 515.914L244.43 531.182C246.302 533.054 248.841 534.108 251.489 534.111Z" fill="#375A6D"/>
<path id="label_lock_18" d="M244.899 555.748V553.311C244.899 552.896 244.926 552.49 244.98 552.093M256.597 555.748V553.311C256.597 551.826 256.235 550.376 255.559 549.155C254.884 547.933 253.928 546.997 252.815 546.472C251.704 545.947 250.492 545.858 249.338 546.215C248.186 546.573 247.147 547.361 246.361 548.475M249.773 570.37H246.849C244.092 570.37 242.713 570.37 241.857 569.299C241 568.229 241 566.505 241 563.059C241 559.613 241 557.889 241.857 556.819C242.713 555.748 244.092 555.748 246.849 555.748H254.647C257.404 555.748 258.783 555.748 259.639 556.819C260.496 557.889 260.496 559.613 260.496 563.059C260.496 566.505 260.496 568.229 259.639 569.299C258.783 570.37 257.404 570.37 254.647 570.37H253.672" stroke="#EADB5A" stroke-linecap="round"/>
<text id="label_area_18" fill="white" style="white-space: pre" xml:space="preserve" font-family="Montserrat" font-size="16" letter-spacing="0em"><tspan x="262" y="587.505">00,00 &#x43c;&#xb2;</tspan></text>
<text id="label_price_18" fill="white" style="white-space: pre" xml:space="preserve" font-family="Montserrat" font-size="12" letter-spacing="0em"><tspan x="189" y="558.802">&#x446;&#x435;&#x43d;&#x430;</tspan></text>
<text id="label_name_18" fill="white" style="white-space: pre" xml:space="preserve" font-family="Montserrat" font-size="16" letter-spacing="0em"><tspan x="304.623" y="552.736">120</tspan></text>
<g id="label_busy_18">
<path id="form_18" d="M291.34 540.837L298.66 540.837L302.321 547.177L298.66 553.516L291.34 553.516L287.679 547.177L291.34 540.837Z" fill="url(#paint17_radial_15_388)"/>
<text id="&#209;&#129;&#208;&#180;&#208;&#176;&#208;&#189;_18" fill="black" style="white-space: pre" xml:space="preserve" font-family="Montserrat" font-size="5" font-weight="500" letter-spacing="0em"><tspan x="289" y="547.969">&#x441;&#x434;&#x430;&#x43d;</tspan></text>
</g>
</g>
<g id="room_121">
<path id="poly_19" d="M147.592 593H12.4375C6.91465 593 2.4375 588.522 2.4375 583V522.579C2.4375 517.056 6.91465 512.579 12.4375 512.579H147.592C153.115 512.579 157.592 517.056 157.592 522.579V583C157.592 588.522 153.115 593 147.592 593Z" fill="#375A6D"/>
<path id="label_lock_19" d="M72.8992 546.748V544.311C72.8992 543.896 72.9265 543.49 72.9801 543.093M84.5967 546.748V544.311C84.5967 542.826 84.235 541.376 83.5595 540.155C82.884 538.933 81.9277 537.997 80.8155 537.472C79.7042 536.947 78.4916 536.858 77.3384 537.215C76.1862 537.573 75.1471 538.361 74.3614 539.475M77.7731 561.37H74.8488C72.092 561.37 70.7127 561.37 69.8568 560.299C69 559.229 69 557.505 69 554.059C69 550.613 69 548.889 69.8568 547.819C70.7127 546.748 72.092 546.748 74.8488 546.748H82.6471C85.4038 546.748 86.7831 546.748 87.639 547.819C88.4959 548.889 88.4959 550.613 88.4959 554.059C88.4959 557.505 88.4959 559.229 87.639 560.299C86.7831 561.37 85.4038 561.37 82.6471 561.37H81.6723" stroke="#EADB5A" stroke-linecap="round"/>
<rect id="Rectangle 432" y="534.513" width="4.87397" height="37.3671" fill="#8FB6F9"/>
<text id="label_area_19" fill="white" style="white-space: pre" xml:space="preserve" font-family="Montserrat" font-size="16" letter-spacing="0em"><tspan x="84" y="587.615">00,00 &#x43c;&#xb2;</tspan></text>
<text id="label_price_19" fill="white" style="white-space: pre" xml:space="preserve" font-family="Montserrat" font-size="12" letter-spacing="0em"><tspan x="11" y="552.802">&#x446;&#x435;&#x43d;&#x430;</tspan></text>
<text id="label_name_19" fill="white" style="white-space: pre" xml:space="preserve" font-family="Montserrat" font-size="16" letter-spacing="0em"><tspan x="125.117" y="529.736">121</tspan></text>
<g id="label_busy_19">
<path id="form_19" d="M111.34 518.144L118.66 518.144L122.321 524.484L118.66 530.824L111.34 530.824L107.679 524.484L111.34 518.144Z" fill="url(#paint18_radial_15_388)"/>
<text id="&#209;&#129;&#208;&#180;&#208;&#176;&#208;&#189;_19" fill="black" style="white-space: pre" xml:space="preserve" font-family="Montserrat" font-size="5" font-weight="500" letter-spacing="0em"><tspan x="108.998" y="525.277">&#x441;&#x434;&#x430;&#x43d;</tspan></text>
</g>
</g>
<g id="room_122">
<path id="poly_20" d="M147.585 508.214L12.4305 508.119C6.91038 508.116 2.4375 503.639 2.4375 498.119V449.071C2.4375 443.546 6.91893 439.068 12.4445 439.071L147.599 439.166C153.119 439.17 157.592 443.646 157.592 449.166V498.214C157.592 503.74 153.111 508.218 147.585 508.214Z" fill="#375A6D"/>
<path id="label_lock_20" d="M72.8992 466.748V464.311C72.8992 463.896 72.9265 463.49 72.9801 463.093M84.5967 466.748V464.311C84.5967 462.826 84.235 461.376 83.5595 460.155C82.884 458.933 81.9277 457.997 80.8155 457.472C79.7042 456.947 78.4916 456.858 77.3384 457.215C76.1862 457.573 75.1471 458.361 74.3614 459.475M77.7731 481.37H74.8488C72.092 481.37 70.7127 481.37 69.8568 480.299C69 479.229 69 477.505 69 474.059C69 470.613 69 468.889 69.8568 467.819C70.7127 466.748 72.092 466.748 74.8488 466.748H82.6471C85.4038 466.748 86.7831 466.748 87.639 467.819C88.4959 468.889 88.4959 470.613 88.4959 474.059C88.4959 477.505 88.4959 479.229 87.639 480.299C86.7831 481.37 85.4038 481.37 82.6471 481.37H81.6723" stroke="#EADB5A" stroke-linecap="round"/>
<rect id="Rectangle 431" y="454.904" width="4.87397" height="37.3671" fill="#8FB6F9"/>
<text id="label_area_20" fill="white" style="white-space: pre" xml:space="preserve" font-family="Montserrat" font-size="16" letter-spacing="0em"><tspan x="84" y="501.509">00,00 &#x43c;&#xb2;</tspan></text>
<text id="label_price_20" fill="white" style="white-space: pre" xml:space="preserve" font-family="Montserrat" font-size="12" letter-spacing="0em"><tspan x="11" y="472.802">&#x446;&#x435;&#x43d;&#x430;</tspan></text>
<text id="label_name_20" fill="white" style="white-space: pre" xml:space="preserve" font-family="Montserrat" font-size="16" letter-spacing="0em"><tspan x="125.117" y="454.736">122</tspan></text>
<g id="label_busy_20">
<path id="form_20" d="M111.34 442.66L118.66 442.66L122.321 449L118.66 455.34L111.34 455.34L107.679 449L111.34 442.66Z" fill="url(#paint19_radial_15_388)"/>
<text id="&#209;&#129;&#208;&#180;&#208;&#176;&#208;&#189;_20" fill="black" style="white-space: pre" xml:space="preserve" font-family="Montserrat" font-size="5" font-weight="500" letter-spacing="0em"><tspan x="108.998" y="449.793">&#x441;&#x434;&#x430;&#x43d;</tspan></text>
</g>
</g>
<g id="room_123">
<path id="poly_21" d="M147.592 434.189H12.4375C6.91465 434.189 2.4375 429.712 2.4375 424.189L2.4375 376.359C2.4375 370.837 6.91466 366.359 12.4375 366.359H116.959C122.352 366.359 126.724 370.731 126.724 376.124C126.724 378.714 127.753 381.198 129.584 383.029L154.663 408.109C156.539 409.984 157.592 412.527 157.592 415.18V424.189C157.592 429.712 153.115 434.189 147.592 434.189Z" fill="#375A6D"/>
<path id="label_lock_21" d="M62.8992 395.748V393.311C62.8992 392.896 62.9265 392.49 62.9801 392.093M74.5967 395.748V393.311C74.5967 391.826 74.235 390.376 73.5595 389.155C72.884 387.933 71.9277 386.997 70.8155 386.472C69.7042 385.947 68.4916 385.858 67.3384 386.215C66.1862 386.573 65.1471 387.361 64.3614 388.475M67.7731 410.37H64.8488C62.092 410.37 60.7127 410.37 59.8568 409.299C59 408.229 59 406.505 59 403.059C59 399.613 59 397.889 59.8568 396.819C60.7127 395.748 62.092 395.748 64.8488 395.748H72.6471C75.4038 395.748 76.7831 395.748 77.639 396.819C78.4959 397.889 78.4959 399.613 78.4959 403.059C78.4959 406.505 78.4959 408.229 77.639 409.299C76.7831 410.37 75.4038 410.37 72.6471 410.37H71.6723" stroke="#EADB5A" stroke-linecap="round"/>
<text id="label_area_21" fill="white" style="white-space: pre" xml:space="preserve" font-family="Montserrat" font-size="16" letter-spacing="0em"><tspan x="84" y="428.398">00,00 &#x43c;&#xb2;</tspan></text>
<rect id="Rectangle 430" y="381.794" width="4.87397" height="37.3671" fill="#8FB6F9"/>
<text id="label_price_21" fill="white" style="white-space: pre" xml:space="preserve" font-family="Montserrat" font-size="12" letter-spacing="0em"><tspan x="11" y="400.802">&#x446;&#x435;&#x43d;&#x430;</tspan></text>
<text id="label_name_21" fill="white" style="white-space: pre" xml:space="preserve" font-family="Montserrat" font-size="16" letter-spacing="0em"><tspan x="95.1172" y="381.736">123</tspan></text>
<g id="label_busy_21">
<path id="form_21" d="M81.3397 369.66L88.6603 369.66L92.3205 376L88.6603 382.34L81.3397 382.34L77.6795 376L81.3397 369.66Z" fill="url(#paint20_radial_15_388)"/>
<text id="&#209;&#129;&#208;&#180;&#208;&#176;&#208;&#189;_21" fill="black" style="white-space: pre" xml:space="preserve" font-family="Montserrat" font-size="5" font-weight="500" letter-spacing="0em"><tspan x="78.998" y="376.793">&#x441;&#x434;&#x430;&#x43d;</tspan></text>
</g>
</g>
<g id="room_124">
<path id="poly_22" d="M116.318 362.706H12.4375C6.91465 362.706 2.4375 358.229 2.4375 352.706L2.4375 297.159C2.4375 291.636 6.91466 287.159 12.4375 287.159H94.5467C95.2694 287.159 95.8553 286.573 95.8553 285.851C95.8553 284.685 97.2648 284.101 98.0892 284.925L123.389 310.225C125.264 312.1 126.318 314.644 126.318 317.296V352.706C126.318 358.229 121.84 362.706 116.318 362.706Z" fill="#375A6D"/>
<path id="label_lock_22" d="M59.8992 322.748V320.311C59.8992 319.896 59.9265 319.49 59.9801 319.093M71.5967 322.748V320.311C71.5967 318.826 71.235 317.376 70.5595 316.155C69.884 314.933 68.9277 313.997 67.8155 313.472C66.7042 312.947 65.4916 312.858 64.3384 313.215C63.1862 313.573 62.1471 314.361 61.3614 315.475M64.7731 337.37H61.8488C59.092 337.37 57.7127 337.37 56.8568 336.299C56 335.229 56 333.505 56 330.059C56 326.613 56 324.889 56.8568 323.819C57.7127 322.748 59.092 322.748 61.8488 322.748H69.6471C72.4038 322.748 73.7831 322.748 74.639 323.819C75.4959 324.889 75.4959 326.613 75.4959 330.059C75.4959 333.505 75.4959 335.229 74.639 336.299C73.7831 337.37 72.4038 337.37 69.6471 337.37H68.6723" stroke="#EADB5A" stroke-linecap="round"/>
<rect id="Rectangle 429" y="306.248" width="4.87397" height="37.3671" fill="#8FB6F9"/>
<text id="label_price_22" fill="white" style="white-space: pre" xml:space="preserve" font-family="Montserrat" font-size="12" letter-spacing="0em"><tspan x="14" y="324.802">&#x446;&#x435;&#x43d;&#x430;</tspan></text>
<text id="label_name_22" fill="white" style="white-space: pre" xml:space="preserve" font-family="Montserrat" font-size="16" letter-spacing="0em"><tspan x="72.1172" y="304.737">124</tspan></text>
<g id="label_busy_22">
<path id="form_22" d="M58.3397 292.66L65.6603 292.66L69.3205 299L65.6603 305.34L58.3397 305.34L54.6795 299L58.3397 292.66Z" fill="url(#paint21_radial_15_388)"/>
<text id="&#209;&#129;&#208;&#180;&#208;&#176;&#208;&#189;_22" fill="black" style="white-space: pre" xml:space="preserve" font-family="Montserrat" font-size="5" font-weight="500" letter-spacing="0em"><tspan x="55.998" y="299.793">&#x441;&#x434;&#x430;&#x43d;</tspan></text>
</g>
<text id="label_area_22" fill="white" style="white-space: pre" xml:space="preserve" font-family="Montserrat" font-size="16" letter-spacing="0em"><tspan x="52" y="357.736">00,00 &#x43c;&#xb2;</tspan></text>
</g>
<text id="&#208;&#178;&#209;&#133;&#208;&#190;&#208;&#180;" fill="black" style="white-space: pre" xml:space="preserve" font-family="Montserrat" font-size="16" font-weight="500" letter-spacing="0em"><tspan x="7.3125" y="265.121">&#x432;&#x445;&#x43e;&#x434;</tspan></text>
</g>
<defs>
<radialGradient id="paint0_radial_15_388" cx="0" cy="0" r="1" gradientUnits="userSpaceOnUse" gradientTransform="translate(129.765 19.4898) rotate(130.972) scale(10.5267)">
<stop stop-color="#03CF21"/>
<stop offset="0.706731" stop-color="#20CDED"/>
</radialGradient>
<radialGradient id="paint1_radial_15_388" cx="0" cy="0" r="1" gradientTransform="matrix(-6.90115 7.94798 -7.94678 -6.90219 200.763 19.4898)" gradientUnits="userSpaceOnUse">
<stop stop-color="#03CF21"/>
<stop offset="0.706731" stop-color="#20CDED"/>
</radialGradient>
<radialGradient id="paint2_radial_15_388" cx="0" cy="0" r="1" gradientTransform="matrix(-6.90115 7.94798 -7.94678 -6.90219 281.763 19.4898)" gradientUnits="userSpaceOnUse">
<stop stop-color="#03CF21"/>
<stop offset="0.706731" stop-color="#20CDED"/>
</radialGradient>
<radialGradient id="paint3_radial_15_388" cx="0" cy="0" r="1" gradientUnits="userSpaceOnUse" gradientTransform="translate(363.765 19.4898) rotate(130.972) scale(10.5267)">
<stop stop-color="#03CF21"/>
<stop offset="0.706731" stop-color="#20CDED"/>
</radialGradient>
<radialGradient id="paint4_radial_15_388" cx="0" cy="0" r="1" gradientUnits="userSpaceOnUse" gradientTransform="translate(444.765 19.4898) rotate(130.972) scale(10.5267)">
<stop stop-color="#03CF21"/>
<stop offset="0.706731" stop-color="#20CDED"/>
</radialGradient>
<radialGradient id="paint5_radial_15_388" cx="0" cy="0" r="1" gradientUnits="userSpaceOnUse" gradientTransform="translate(529.765 19.4898) rotate(130.972) scale(10.5267)">
<stop stop-color="#03CF21"/>
<stop offset="0.706731" stop-color="#20CDED"/>
</radialGradient>
<radialGradient id="paint6_radial_15_388" cx="0" cy="0" r="1" gradientUnits="userSpaceOnUse" gradientTransform="translate(613.765 19.4898) rotate(130.972) scale(10.5267)">
<stop stop-color="#03CF21"/>
<stop offset="0.706731" stop-color="#20CDED"/>
</radialGradient>
<radialGradient id="paint7_radial_15_388" cx="0" cy="0" r="1" gradientUnits="userSpaceOnUse" gradientTransform="translate(762.765 12.4898) rotate(130.972) scale(10.5267)">
<stop stop-color="#03CF21"/>
<stop offset="0.706731" stop-color="#20CDED"/>
</radialGradient>
<radialGradient id="paint8_radial_15_388" cx="0" cy="0" r="1" gradientUnits="userSpaceOnUse" gradientTransform="translate(762.765 107.49) rotate(130.972) scale(10.5267)">
<stop stop-color="#03CF21"/>
<stop offset="0.706731" stop-color="#20CDED"/>
</radialGradient>
<radialGradient id="paint9_radial_15_388" cx="0" cy="0" r="1" gradientUnits="userSpaceOnUse" gradientTransform="translate(614.766 191.49) rotate(130.972) scale(10.5267)">
<stop stop-color="#03CF21"/>
<stop offset="0.706731" stop-color="#20CDED"/>
</radialGradient>
<radialGradient id="paint10_radial_15_388" cx="0" cy="0" r="1" gradientUnits="userSpaceOnUse" gradientTransform="translate(614.765 266.49) rotate(130.972) scale(10.5267)">
<stop stop-color="#03CF21"/>
<stop offset="0.706731" stop-color="#20CDED"/>
</radialGradient>
<radialGradient id="paint11_radial_15_388" cx="0" cy="0" r="1" gradientUnits="userSpaceOnUse" gradientTransform="translate(488.765 257.598) rotate(130.972) scale(10.5267)">
<stop stop-color="#03CF21"/>
<stop offset="0.706731" stop-color="#20CDED"/>
</radialGradient>
<radialGradient id="paint12_radial_15_388" cx="0" cy="0" r="1" gradientUnits="userSpaceOnUse" gradientTransform="translate(425.765 234.49) rotate(130.972) scale(10.5267)">
<stop stop-color="#03CF21"/>
<stop offset="0.706731" stop-color="#20CDED"/>
</radialGradient>
<radialGradient id="paint13_radial_15_388" cx="0" cy="0" r="1" gradientUnits="userSpaceOnUse" gradientTransform="translate(332.765 234.49) rotate(130.972) scale(10.5267)">
<stop stop-color="#03CF21"/>
<stop offset="0.706731" stop-color="#20CDED"/>
</radialGradient>
<radialGradient id="paint14_radial_15_388" cx="0" cy="0" r="1" gradientUnits="userSpaceOnUse" gradientTransform="translate(298.765 340.491) rotate(130.972) scale(10.5267)">
<stop stop-color="#03CF21"/>
<stop offset="0.706731" stop-color="#20CDED"/>
</radialGradient>
<radialGradient id="paint15_radial_15_388" cx="0" cy="0" r="1" gradientUnits="userSpaceOnUse" gradientTransform="translate(298.766 400.49) rotate(130.972) scale(10.5267)">
<stop stop-color="#03CF21"/>
<stop offset="0.706731" stop-color="#20CDED"/>
</radialGradient>
<radialGradient id="paint16_radial_15_388" cx="0" cy="0" r="1" gradientUnits="userSpaceOnUse" gradientTransform="translate(298.766 474.492) rotate(130.972) scale(10.5267)">
<stop stop-color="#03CF21"/>
<stop offset="0.706731" stop-color="#20CDED"/>
</radialGradient>
<radialGradient id="paint17_radial_15_388" cx="0" cy="0" r="1" gradientUnits="userSpaceOnUse" gradientTransform="translate(298.765 544.667) rotate(130.972) scale(10.5267)">
<stop stop-color="#03CF21"/>
<stop offset="0.706731" stop-color="#20CDED"/>
</radialGradient>
<radialGradient id="paint18_radial_15_388" cx="0" cy="0" r="1" gradientUnits="userSpaceOnUse" gradientTransform="translate(118.765 521.974) rotate(130.972) scale(10.5267)">
<stop stop-color="#03CF21"/>
<stop offset="0.706731" stop-color="#20CDED"/>
</radialGradient>
<radialGradient id="paint19_radial_15_388" cx="0" cy="0" r="1" gradientUnits="userSpaceOnUse" gradientTransform="translate(118.765 446.49) rotate(130.972) scale(10.5267)">
<stop stop-color="#03CF21"/>
<stop offset="0.706731" stop-color="#20CDED"/>
</radialGradient>
<radialGradient id="paint20_radial_15_388" cx="0" cy="0" r="1" gradientUnits="userSpaceOnUse" gradientTransform="translate(88.7649 373.49) rotate(130.972) scale(10.5267)">
<stop stop-color="#03CF21"/>
<stop offset="0.706731" stop-color="#20CDED"/>
</radialGradient>
<radialGradient id="paint21_radial_15_388" cx="0" cy="0" r="1" gradientUnits="userSpaceOnUse" gradientTransform="translate(65.7649 296.49) rotate(130.972) scale(10.5267)">
<stop stop-color="#03CF21"/>
<stop offset="0.706731" stop-color="#20CDED"/>
</radialGradient>
</defs>
</svg>
