<svg width="805" height="266" viewBox="0 0 805 266" fill="none" xmlns="http://www.w3.org/2000/svg">
<g id="&#208;&#189;&#208;&#184;&#208;&#186;&#208;&#190;&#208;&#187;&#208;&#176;&#209;&#143; &#208;&#181;&#209;&#128;&#209;&#136;&#208;&#190;&#208;&#178;&#208;&#176; 6">
<path id="Vector 2249" d="M480.461 111.264H363.676C361.467 111.264 359.676 109.473 359.676 107.264V28.6484C359.676 26.4393 361.467 24.6484 363.676 24.6484H480.461C482.671 24.6484 484.461 26.4393 484.461 28.6484V107.264C484.461 109.473 482.671 111.264 480.461 111.264Z" fill="#FDD24F"/>
<path id="Vector 2248" d="M341.655 83.3711H349.07C351.279 83.3711 353.07 85.162 353.07 87.3711V107.264C353.07 109.473 351.279 111.264 349.07 111.264H341.655C339.446 111.264 337.655 109.473 337.655 107.264V87.3711C337.655 85.162 339.446 83.3711 341.655 83.3711Z" fill="#FDD24F"/>
<path id="Union" d="M349.07 24.6484C351.279 24.6485 353.07 26.4395 353.07 28.6484V78C353.07 80.2091 351.279 82 349.07 82H340C337.791 82 336 83.7909 336 86V118.275C336 118.34 335.998 118.404 335.995 118.468C335.998 118.532 336 118.596 336 118.66V119.995C336 122.206 337.794 123.998 340.005 123.995L550.2 123.747C552.407 123.744 554.195 121.954 554.195 119.747V93.9766C554.195 91.7674 555.986 89.9766 558.195 89.9766H620.258C620.638 89.9766 620.951 90.2655 620.988 90.6357L620.996 90.7861C621.034 91.156 621.347 91.4443 621.727 91.4443H628.332C628.712 91.4443 629.025 91.156 629.062 90.7861L629.07 90.6357C629.108 90.2655 629.421 89.9766 629.801 89.9766H729.299C731.508 89.9766 733.299 91.7674 733.299 93.9766V107.264C733.299 109.473 731.508 111.264 729.299 111.264H631.636C630.306 111.264 629.212 110.253 629.08 108.957L629.053 108.432C628.921 107.136 627.827 106.125 626.497 106.125H623.562C622.231 106.125 621.137 107.136 621.006 108.432L620.979 108.957C620.847 110.253 619.753 111.264 618.423 111.264H579.482C577.273 111.264 575.482 113.055 575.482 115.264V137.581C575.482 139.01 574.72 140.331 573.482 141.046L558.611 149.632C558.003 149.983 557.313 150.167 556.611 150.167H182.37C180.161 150.167 178.37 148.376 178.37 146.167V113.796C178.37 111.587 176.579 109.796 174.37 109.796H150.11C149.54 109.796 149.071 110.229 149.015 110.784L149.003 111.009C148.947 111.564 148.478 111.997 147.908 111.997H61.2549C59.0457 111.997 57.2549 110.206 57.2549 107.997V93.9766C57.2549 91.7674 59.0457 89.9766 61.2549 89.9766H167.359C168.576 89.9766 169.562 90.9625 169.562 92.1787C169.562 93.3948 170.548 94.3807 171.764 94.3809H176.168C177.384 94.3809 178.37 93.3949 178.37 92.1787C178.37 90.9626 179.356 89.9766 180.572 89.9766H193.455C195.664 89.9766 197.455 91.7674 197.455 93.9766V119.742C197.455 121.951 199.246 123.742 201.455 123.742H318C320.209 123.742 322 121.951 322 119.742V118.66C322 118.596 322.001 118.532 322.004 118.468C322.001 118.404 322 118.34 322 118.275V115.265C322 113.056 320.209 111.265 318 111.265H313.433C312.622 111.265 311.965 110.608 311.965 109.797C311.965 108.986 311.307 108.329 310.496 108.329H309.396C307.977 108.329 306.826 107.179 306.826 105.76V96.9512C306.826 95.5323 307.977 94.3818 309.396 94.3818C310.814 94.3817 311.965 93.2321 311.965 91.8135V28.6494C311.965 26.4403 313.756 24.6494 315.965 24.6494H328.484L337.655 24.6484H349.07Z" fill="#FDD24F"/>
<path id="Vector 2250" d="M173.5 66.5H162.5C160.291 66.5 158.5 68.2909 158.5 70.5V84.5C158.5 86.7091 160.291 88.5 162.5 88.5H173.5C175.709 88.5 177.5 86.7091 177.5 84.5V70.5C177.5 68.2909 175.709 66.5 173.5 66.5Z" fill="#C3D7E0"/>
<path id="Vector 2253" d="M309.5 237.5V235.5C309.5 233.291 307.709 231.5 305.5 231.5H288C285.791 231.5 284 233.291 284 235.5V237.5C284 239.709 285.791 241.5 288 241.5H305.5C307.709 241.5 309.5 239.709 309.5 237.5Z" fill="#C3D7E0"/>
<path id="Vector 2254" d="M359 237.5V235.5C359 233.291 357.209 231.5 355 231.5H353C350.791 231.5 349 233.291 349 235.5V237.5C349 239.709 350.791 241.5 353 241.5H355C357.209 241.5 359 239.709 359 237.5Z" fill="#C3D7E0"/>
<path id="Vector 2255" d="M400.5 261.499H396.5C394.291 261.499 392.5 259.708 392.5 257.499V244.999C392.5 243.066 390.933 241.499 389 241.499C387.067 241.499 385.5 239.932 385.5 237.999V235.499C385.5 233.29 387.291 231.499 389.5 231.499H397.525C399.724 231.499 401.511 229.723 401.525 227.524L401.98 154.953C401.991 153.16 403.447 151.713 405.24 151.713C407.04 151.713 408.5 153.173 408.5 154.973V227.499C408.5 229.708 410.291 231.499 412.5 231.499H418.5C420.709 231.499 422.5 233.29 422.5 235.499V237.499C422.5 239.708 420.709 241.499 418.5 241.499H408.5C406.291 241.499 404.5 243.29 404.5 245.499V257.499C404.5 259.708 402.709 261.499 400.5 261.499Z" fill="#C3D7E0"/>
<path id="Vector 2256" d="M456 231H453C450.791 231 449 232.791 449 235V238C449 240.209 450.791 242 453 242H456C458.209 242 460 240.209 460 238V235C460 232.791 458.209 231 456 231Z" fill="#C3D7E0"/>
<path id="Vector 2257" d="M498.5 231H517C519.209 231 521 232.791 521 235V237.5C521 239.709 519.209 241.5 517 241.5H498.5C496.291 241.5 494.5 239.709 494.5 237.5V235C494.5 232.791 496.291 231 498.5 231Z" fill="#C3D7E0"/>
<text id="&#208;&#178;&#209;&#133;&#208;&#190;&#208;&#180;" fill="black" style="white-space: pre" xml:space="preserve" font-family="Montserrat" font-size="14" font-weight="600" letter-spacing="0em"><tspan x="315" y="67.519">&#x432;&#x445;&#x43e;&#x434;</tspan></text>
<text id="WC" fill="black" style="white-space: pre" xml:space="preserve" font-family="Montserrat" font-size="10" font-weight="600" letter-spacing="0em"><tspan x="340" y="94.585">W</tspan><tspan x="340" y="106.585">C</tspan></text>
<g id="room_219">
<path id="poly" d="M36.7012 84.5098V31.5851C36.7012 29.376 38.492 27.5851 40.7012 27.5851H43.7117C45.9208 27.5851 47.7117 25.7942 47.7117 23.5851V8.83008C47.7117 6.62094 49.5025 4.83008 51.7117 4.83008H86.2856C88.4947 4.83008 90.2856 6.62093 90.2856 8.83007V27.9893C90.2856 30.1984 88.4947 31.9893 86.2856 31.9893H78.8709C76.6617 31.9893 74.8709 33.7802 74.8709 35.9893V84.5098C74.8709 86.719 73.08 88.5098 70.8709 88.5098H40.7012C38.492 88.5098 36.7012 86.719 36.7012 84.5098Z" fill="#375A6D"/>
<path id="Rectangle 493" d="M67 6L67 1L80 1L80 6L67 6Z" fill="#8FB6F9"/>
<path id="label_lock" d="M52.4 48.0002V46.5002C52.4 46.2447 52.4168 45.9947 52.4498 45.7502M59.6 48.0002V46.5002C59.6 45.5861 59.3774 44.6937 58.9616 43.9418C58.5458 43.1898 57.9572 42.6139 57.2726 42.2907C56.5886 41.9675 55.8422 41.9123 55.1324 42.1326C54.4232 42.3528 53.7836 42.838 53.3 43.5235M55.4 57H53.6C51.9032 57 51.0542 57 50.5274 56.3408C50 55.6823 50 54.621 50 52.5001C50 50.3791 50 49.3179 50.5274 48.6594C51.0542 48.0002 51.9032 48.0002 53.6 48.0002H58.4C60.0968 48.0002 60.9458 48.0002 61.4726 48.6594C62 49.3179 62 50.3791 62 52.5001C62 54.621 62 55.6823 61.4726 56.3408C60.9458 57 60.0968 57 58.4 57H57.8" stroke="#EADB5A" stroke-width="0.5" stroke-linecap="round"/>
<text id="label_price" fill="white" style="white-space: pre" xml:space="preserve" font-family="Montserrat" font-size="8" letter-spacing="0em"><tspan x="40" y="54.868">&#x446;&#x435;&#x43d;&#x430;</tspan></text>
<text id="label_area" fill="white" style="white-space: pre" xml:space="preserve" font-family="Montserrat" font-size="8" letter-spacing="0em"><tspan x="38" y="83.868">00,00 &#x43c;&#xb2;</tspan></text>
<text id="label_name" fill="white" style="white-space: pre" xml:space="preserve" font-family="Montserrat" font-size="8" letter-spacing="0em"><tspan x="74" y="15.87">219</tspan></text>
<g id="label_busy">
<path id="form" d="M65.8038 9.19447L70.1962 9.19447L72.3923 12.9983L70.1962 16.8022L65.8038 16.8022L63.6077 12.9983L65.8038 9.19447Z" fill="url(#paint0_radial_391_1263)"/>
<text id="&#209;&#129;&#208;&#180;&#208;&#176;&#208;&#189;" fill="black" style="white-space: pre" xml:space="preserve" font-family="Montserrat" font-size="3" font-weight="500" letter-spacing="0em"><tspan x="64" y="14.0735">&#x441;&#x434;&#x430;&#x43d;</tspan></text>
</g>
</g>
<g id="room_220">
<path id="poly_2" d="M119.318 88.5098H80.3398C78.1307 88.5098 76.3398 86.719 76.3398 84.5098V37.4574C76.3398 35.2482 78.1307 33.4574 80.3398 33.4574H87.7545C89.9637 33.4574 91.7545 31.6665 91.7545 29.4574V8.83008C91.7545 6.62094 93.5454 4.83008 95.7545 4.83008H119.318C121.527 4.83008 123.318 6.62094 123.318 8.83008V84.5098C123.318 86.719 121.527 88.5098 119.318 88.5098Z" fill="#375A6D"/>
<path id="label_lock_2" d="M97.4 48.0002V46.5002C97.4 46.2447 97.4168 45.9947 97.4498 45.7502M104.6 48.0002V46.5002C104.6 45.5861 104.377 44.6937 103.962 43.9418C103.546 43.1898 102.957 42.6139 102.273 42.2907C101.589 41.9675 100.842 41.9123 100.132 42.1326C99.4232 42.3528 98.7836 42.838 98.3 43.5235M100.4 57H98.6C96.9032 57 96.0542 57 95.5274 56.3408C95 55.6823 95 54.621 95 52.5001C95 50.3791 95 49.3179 95.5274 48.6594C96.0542 48.0002 96.9032 48.0002 98.6 48.0002H103.4C105.097 48.0002 105.946 48.0002 106.473 48.6594C107 49.3179 107 50.3791 107 52.5001C107 54.621 107 55.6823 106.473 56.3408C105.946 57 105.097 57 103.4 57H102.8" stroke="#EADB5A" stroke-width="0.5" stroke-linecap="round"/>
<text id="label_price_2" fill="white" style="white-space: pre" xml:space="preserve" font-family="Montserrat" font-size="8" letter-spacing="0em"><tspan x="79" y="54.868">&#x446;&#x435;&#x43d;&#x430;</tspan></text>
<text id="label_area_2" fill="white" style="white-space: pre" xml:space="preserve" font-family="Montserrat" font-size="8" letter-spacing="0em"><tspan x="85" y="83.868">00,00 &#x43c;&#xb2;</tspan></text>
<text id="label_name_2" fill="white" style="white-space: pre" xml:space="preserve" font-family="Montserrat" font-size="8" letter-spacing="0em"><tspan x="107" y="15.868">220</tspan></text>
<g id="label_busy_2">
<path id="form_2" d="M98.8038 9.19447L103.196 9.19447L105.392 12.9983L103.196 16.8022L98.8038 16.8022L96.6077 12.9983L98.8038 9.19447Z" fill="url(#paint1_radial_391_1263)"/>
<text id="&#209;&#129;&#208;&#180;&#208;&#176;&#208;&#189;_2" fill="black" style="white-space: pre" xml:space="preserve" font-family="Montserrat" font-size="3" font-weight="500" letter-spacing="0em"><tspan x="97" y="14.0735">&#x441;&#x434;&#x430;&#x43d;</tspan></text>
</g>
</g>
<g id="room_221">
<path id="poly_3" d="M124.785 84.5098V8.83008C124.785 6.62094 126.576 4.83008 128.785 4.83008H164.827C167.036 4.83008 168.827 6.62094 168.827 8.83008V61.0208C168.827 63.2299 167.036 65.0208 164.827 65.0208H161.083C158.873 65.0208 157.083 66.8116 157.083 69.0208V84.5098C157.083 86.719 155.292 88.5098 153.083 88.5098H128.785C126.576 88.5098 124.785 86.719 124.785 84.5098Z" fill="#375A6D"/>
<path id="label_lock_3" d="M143.4 36.0002V34.5002C143.4 34.2447 143.417 33.9947 143.45 33.7502M150.6 36.0002V34.5002C150.6 33.5861 150.377 32.6937 149.962 31.9418C149.546 31.1898 148.957 30.6139 148.273 30.2907C147.589 29.9675 146.842 29.9123 146.132 30.1326C145.423 30.3528 144.784 30.838 144.3 31.5235M146.4 45H144.6C142.903 45 142.054 45 141.527 44.3408C141 43.6823 141 42.621 141 40.5001C141 38.3791 141 37.3179 141.527 36.6594C142.054 36.0002 142.903 36.0002 144.6 36.0002H149.4C151.097 36.0002 151.946 36.0002 152.473 36.6594C153 37.3179 153 38.3791 153 40.5001C153 42.621 153 43.6823 152.473 44.3408C151.946 45 151.097 45 149.4 45H148.8" stroke="#EADB5A" stroke-width="0.5" stroke-linecap="round"/>
<text id="label_price_3" fill="white" style="white-space: pre" xml:space="preserve" font-family="Montserrat" font-size="8" letter-spacing="0em"><tspan x="128" y="41.868">&#x446;&#x435;&#x43d;&#x430;</tspan></text>
<text id="label_area_3" fill="white" style="white-space: pre" xml:space="preserve" font-family="Montserrat" font-size="8" letter-spacing="0em"><tspan x="132" y="60.868">00,00 &#x43c;&#xb2;</tspan></text>
<text id="label_name_3" fill="white" style="white-space: pre" xml:space="preserve" font-family="Montserrat" font-size="8" letter-spacing="0em"><tspan x="153" y="15.8719">221</tspan></text>
<g id="label_busy_3">
<path id="form_3" d="M144.804 9.19447L149.196 9.19447L151.392 12.9983L149.196 16.8022L144.804 16.8022L142.608 12.9983L144.804 9.19447Z" fill="url(#paint2_radial_391_1263)"/>
<text id="&#209;&#129;&#208;&#180;&#208;&#176;&#208;&#189;_3" fill="black" style="white-space: pre" xml:space="preserve" font-family="Montserrat" font-size="3" font-weight="500" letter-spacing="0em"><tspan x="143" y="14.0735">&#x441;&#x434;&#x430;&#x43d;</tspan></text>
</g>
</g>
<g id="room_222">
<path id="poly_4" d="M178.37 84.5098V8.83008C178.37 6.62094 180.161 4.83008 182.37 4.83008H201.529C203.738 4.83008 205.529 6.62094 205.529 8.83008V11.1065C205.529 13.3157 207.32 15.1065 209.529 15.1065H214.742C216.951 15.1065 218.742 16.8974 218.742 19.1065V84.5098C218.742 86.719 216.951 88.5098 214.742 88.5098H182.37C180.161 88.5098 178.37 86.719 178.37 84.5098Z" fill="#375A6D"/>
<path id="label_lock_4" d="M194.4 45.0002V43.5002C194.4 43.2447 194.417 42.9947 194.45 42.7502M201.6 45.0002V43.5002C201.6 42.5861 201.377 41.6937 200.962 40.9418C200.546 40.1898 199.957 39.6139 199.273 39.2907C198.589 38.9675 197.842 38.9123 197.132 39.1326C196.423 39.3528 195.784 39.838 195.3 40.5235M197.4 54H195.6C193.903 54 193.054 54 192.527 53.3408C192 52.6823 192 51.621 192 49.5001C192 47.3791 192 46.3179 192.527 45.6594C193.054 45.0002 193.903 45.0002 195.6 45.0002H200.4C202.097 45.0002 202.946 45.0002 203.473 45.6594C204 46.3179 204 47.3791 204 49.5001C204 51.621 204 52.6823 203.473 53.3408C202.946 54 202.097 54 200.4 54H199.8" stroke="#EADB5A" stroke-width="0.5" stroke-linecap="round"/>
<text id="label_price_4" fill="white" style="white-space: pre" xml:space="preserve" font-family="Montserrat" font-size="8" letter-spacing="0em"><tspan x="181" y="54.868">&#x446;&#x435;&#x43d;&#x430;</tspan></text>
<text id="label_area_4" fill="white" style="white-space: pre" xml:space="preserve" font-family="Montserrat" font-size="8" letter-spacing="0em"><tspan x="181" y="83.868">00,00 &#x43c;&#xb2;</tspan></text>
<text id="label_name_4" fill="white" style="white-space: pre" xml:space="preserve" font-family="Montserrat" font-size="8" letter-spacing="0em"><tspan x="191" y="15.8719">222</tspan></text>
<g id="label_busy_4">
<path id="form_4" d="M182.804 9.19447L187.196 9.19447L189.392 12.9983L187.196 16.8022L182.804 16.8022L180.608 12.9983L182.804 9.19447Z" fill="url(#paint3_radial_391_1263)"/>
<text id="&#209;&#129;&#208;&#180;&#208;&#176;&#208;&#189;_4" fill="black" style="white-space: pre" xml:space="preserve" font-family="Montserrat" font-size="3" font-weight="500" letter-spacing="0em"><tspan x="181" y="14.0735">&#x441;&#x434;&#x430;&#x43d;</tspan></text>
</g>
</g>
<g id="room_223">
<path id="poly_5" d="M220.21 85.9779V8.83008C220.21 6.62094 222.001 4.83008 224.21 4.83008H254.38C256.589 4.83008 258.38 6.62094 258.38 8.83008V107.999C258.38 110.208 256.589 111.999 254.38 111.999H202.923C200.714 111.999 198.923 110.208 198.923 107.999V93.9779C198.923 91.7687 200.714 89.9779 202.923 89.9779H216.21C218.419 89.9779 220.21 88.187 220.21 85.9779Z" fill="#375A6D"/>
<path id="label_lock_5" d="M236.4 56.0002V54.5002C236.4 54.2447 236.417 53.9947 236.45 53.7502M243.6 56.0002V54.5002C243.6 53.5861 243.377 52.6937 242.962 51.9418C242.546 51.1898 241.957 50.6139 241.273 50.2907C240.589 49.9675 239.842 49.9123 239.132 50.1326C238.423 50.3528 237.784 50.838 237.3 51.5235M239.4 65H237.6C235.903 65 235.054 65 234.527 64.3408C234 63.6823 234 62.621 234 60.5001C234 58.3791 234 57.3179 234.527 56.6594C235.054 56.0002 235.903 56.0002 237.6 56.0002H242.4C244.097 56.0002 244.946 56.0002 245.473 56.6594C246 57.3179 246 58.3791 246 60.5001C246 62.621 246 63.6823 245.473 64.3408C244.946 65 244.097 65 242.4 65H241.8" stroke="#EADB5A" stroke-width="0.5" stroke-linecap="round"/>
<text id="label_price_5" fill="white" style="white-space: pre" xml:space="preserve" font-family="Montserrat" font-size="8" letter-spacing="0em"><tspan x="224" y="54.868">&#x446;&#x435;&#x43d;&#x430;</tspan></text>
<text id="label_area_5" fill="white" style="white-space: pre" xml:space="preserve" font-family="Montserrat" font-size="8" letter-spacing="0em"><tspan x="205" y="106.868">00,00 &#x43c;&#xb2;</tspan></text>
<text id="label_name_5" fill="white" style="white-space: pre" xml:space="preserve" font-family="Montserrat" font-size="8" letter-spacing="0em"><tspan x="242" y="15.8739">223</tspan></text>
<g id="label_busy_5">
<path id="form_5" d="M233.804 9.19447L238.196 9.19447L240.392 12.9983L238.196 16.8022L233.804 16.8022L231.608 12.9983L233.804 9.19447Z" fill="url(#paint4_radial_391_1263)"/>
<text id="&#209;&#129;&#208;&#180;&#208;&#176;&#208;&#189;_5" fill="black" style="white-space: pre" xml:space="preserve" font-family="Montserrat" font-size="3" font-weight="500" letter-spacing="0em"><tspan x="232" y="14.0735">&#x441;&#x434;&#x430;&#x43d;</tspan></text>
</g>
</g>
<g id="room_224">
<path id="poly_6" d="M301.358 111.999H263.848C261.639 111.999 259.848 110.208 259.848 107.999V8.83008C259.848 6.62094 261.639 4.83008 263.848 4.83008H301.358C303.567 4.83008 305.358 6.62094 305.358 8.83008V107.999C305.358 110.208 303.567 111.999 301.358 111.999Z" fill="#375A6D"/>
<path id="label_lock_6" d="M279.4 56.0002V54.5002C279.4 54.2447 279.417 53.9947 279.45 53.7502M286.6 56.0002V54.5002C286.6 53.5861 286.377 52.6937 285.962 51.9418C285.546 51.1898 284.957 50.6139 284.273 50.2907C283.589 49.9675 282.842 49.9123 282.132 50.1326C281.423 50.3528 280.784 50.838 280.3 51.5235M282.4 65H280.6C278.903 65 278.054 65 277.527 64.3408C277 63.6823 277 62.621 277 60.5001C277 58.3791 277 57.3179 277.527 56.6594C278.054 56.0002 278.903 56.0002 280.6 56.0002H285.4C287.097 56.0002 287.946 56.0002 288.473 56.6594C289 57.3179 289 58.3791 289 60.5001C289 62.621 289 63.6823 288.473 64.3408C287.946 65 287.097 65 285.4 65H284.8" stroke="#EADB5A" stroke-width="0.5" stroke-linecap="round"/>
<text id="label_price_6" fill="white" style="white-space: pre" xml:space="preserve" font-family="Montserrat" font-size="8" letter-spacing="0em"><tspan x="263" y="60.868">&#x446;&#x435;&#x43d;&#x430;</tspan></text>
<text id="label_area_6" fill="white" style="white-space: pre" xml:space="preserve" font-family="Montserrat" font-size="8" letter-spacing="0em"><tspan x="266" y="106.868">00,00 &#x43c;&#xb2;</tspan></text>
<text id="label_name_6" fill="white" style="white-space: pre" xml:space="preserve" font-family="Montserrat" font-size="8" letter-spacing="0em"><tspan x="289" y="15.8778">224</tspan></text>
<g id="label_busy_6">
<path id="form_6" d="M280.804 9.19447L285.196 9.19447L287.392 12.9983L285.196 16.8022L280.804 16.8022L278.608 12.9983L280.804 9.19447Z" fill="url(#paint5_radial_391_1263)"/>
<text id="&#209;&#129;&#208;&#180;&#208;&#176;&#208;&#189;_6" fill="black" style="white-space: pre" xml:space="preserve" font-family="Montserrat" font-size="3" font-weight="500" letter-spacing="0em"><tspan x="279" y="14.0735">&#x441;&#x434;&#x430;&#x43d;</tspan></text>
</g>
</g>
<g id="room_201">
<path id="poly_7" d="M495.068 111.264H548.727C550.936 111.264 552.727 109.474 552.727 107.264V93.9775C552.727 91.7684 550.936 89.9775 548.727 89.9775H536.908C534.699 89.9775 532.908 88.1867 532.908 85.9775V8.0957C532.908 5.88656 531.117 4.0957 528.908 4.0957H498.004C495.795 4.0957 494.004 5.88656 494.004 8.0957V23.1806C494.004 23.9913 493.347 24.6486 492.536 24.6486C491.726 24.6486 491.068 25.3059 491.068 26.1167V107.264C491.068 109.474 492.859 111.264 495.068 111.264Z" fill="#375A6D"/>
<path id="label_lock_7" d="M511.4 57.0002V55.5002C511.4 55.2447 511.417 54.9947 511.45 54.7502M518.6 57.0002V55.5002C518.6 54.5861 518.377 53.6937 517.962 52.9418C517.546 52.1898 516.957 51.6139 516.273 51.2907C515.589 50.9675 514.842 50.9123 514.132 51.1326C513.423 51.3528 512.784 51.838 512.3 52.5235M514.4 66H512.6C510.903 66 510.054 66 509.527 65.3408C509 64.6823 509 63.621 509 61.5001C509 59.3791 509 58.3179 509.527 57.6594C510.054 57.0002 510.903 57.0002 512.6 57.0002H517.4C519.097 57.0002 519.946 57.0002 520.473 57.6594C521 58.3179 521 59.3791 521 61.5001C521 63.621 521 64.6823 520.473 65.3408C519.946 66 519.097 66 517.4 66H516.8" stroke="#EADB5A" stroke-width="0.5" stroke-linecap="round"/>
<text id="label_price_7" fill="white" style="white-space: pre" xml:space="preserve" font-family="Montserrat" font-size="8" letter-spacing="0em"><tspan x="493" y="62.868">&#x446;&#x435;&#x43d;&#x430;</tspan></text>
<text id="label_area_7" fill="white" style="white-space: pre" xml:space="preserve" font-family="Montserrat" font-size="8" letter-spacing="0em"><tspan x="514" y="106.868">00,00 &#x43c;&#xb2;</tspan></text>
<text id="label_name_7" fill="white" style="white-space: pre" xml:space="preserve" font-family="Montserrat" font-size="8" letter-spacing="0em"><tspan x="516" y="14.8856">201</tspan></text>
<g id="label_busy_7">
<path id="form_7" d="M507.804 8.19447L512.196 8.19447L514.392 11.9983L512.196 15.8022L507.804 15.8022L505.608 11.9983L507.804 8.19447Z" fill="url(#paint6_radial_391_1263)"/>
<text id="&#209;&#129;&#208;&#180;&#208;&#176;&#208;&#189;_7" fill="black" style="white-space: pre" xml:space="preserve" font-family="Montserrat" font-size="3" font-weight="500" letter-spacing="0em"><tspan x="506" y="13.0735">&#x441;&#x434;&#x430;&#x43d;</tspan></text>
</g>
</g>
<g id="room_202">
<path id="poly_8" d="M534.376 84.5095V8.0957C534.376 5.88656 536.167 4.0957 538.376 4.0957H572.95C575.159 4.0957 576.95 5.88656 576.95 8.0957V84.5095C576.95 86.7186 575.159 88.5095 572.95 88.5095H538.376C536.167 88.5095 534.376 86.7186 534.376 84.5095Z" fill="#375A6D"/>
<path id="label_lock_8" d="M552.4 45.0002V43.5002C552.4 43.2447 552.417 42.9947 552.45 42.7502M559.6 45.0002V43.5002C559.6 42.5861 559.377 41.6937 558.962 40.9418C558.546 40.1898 557.957 39.6139 557.273 39.2907C556.589 38.9675 555.842 38.9123 555.132 39.1326C554.423 39.3528 553.784 39.838 553.3 40.5235M555.4 54H553.6C551.903 54 551.054 54 550.527 53.3408C550 52.6823 550 51.621 550 49.5001C550 47.3791 550 46.3179 550.527 45.6594C551.054 45.0002 551.903 45.0002 553.6 45.0002H558.4C560.097 45.0002 560.946 45.0002 561.473 45.6594C562 46.3179 562 47.3791 562 49.5001C562 51.621 562 52.6823 561.473 53.3408C560.946 54 560.097 54 558.4 54H557.8" stroke="#EADB5A" stroke-width="0.5" stroke-linecap="round"/>
<text id="label_price_8" fill="white" style="white-space: pre" xml:space="preserve" font-family="Montserrat" font-size="8" letter-spacing="0em"><tspan x="537" y="47.868">&#x446;&#x435;&#x43d;&#x430;</tspan></text>
<text id="label_area_8" fill="white" style="white-space: pre" xml:space="preserve" font-family="Montserrat" font-size="8" letter-spacing="0em"><tspan x="539" y="83.868">00,00 &#x43c;&#xb2;</tspan></text>
<text id="label_name_8" fill="white" style="white-space: pre" xml:space="preserve" font-family="Montserrat" font-size="8" letter-spacing="0em"><tspan x="560" y="14.8856">202</tspan></text>
<g id="label_busy_8">
<path id="form_8" d="M551.804 8.19252L556.196 8.19252L558.392 11.9964L556.196 15.8002L551.804 15.8002L549.608 11.9964L551.804 8.19252Z" fill="url(#paint7_radial_391_1263)"/>
<text id="&#209;&#129;&#208;&#180;&#208;&#176;&#208;&#189;_8" fill="black" style="white-space: pre" xml:space="preserve" font-family="Montserrat" font-size="3" font-weight="500" letter-spacing="0em"><tspan x="550" y="13.0716">&#x441;&#x434;&#x430;&#x43d;</tspan></text>
</g>
</g>
<g id="room_203">
<path id="poly_9" d="M616.992 88.5095H582.418C580.209 88.5095 578.418 86.7186 578.418 84.5095V8.0957C578.418 5.88656 580.209 4.0957 582.418 4.0957H616.992C619.201 4.0957 620.992 5.88656 620.992 8.0957V84.5095C620.992 86.7186 619.201 88.5095 616.992 88.5095Z" fill="#375A6D"/>
<path id="label_lock_9" d="M595.4 45.0002V43.5002C595.4 43.2447 595.417 42.9947 595.45 42.7502M602.6 45.0002V43.5002C602.6 42.5861 602.377 41.6937 601.962 40.9418C601.546 40.1898 600.957 39.6139 600.273 39.2907C599.589 38.9675 598.842 38.9123 598.132 39.1326C597.423 39.3528 596.784 39.838 596.3 40.5235M598.4 54H596.6C594.903 54 594.054 54 593.527 53.3408C593 52.6823 593 51.621 593 49.5001C593 47.3791 593 46.3179 593.527 45.6594C594.054 45.0002 594.903 45.0002 596.6 45.0002H601.4C603.097 45.0002 603.946 45.0002 604.473 45.6594C605 46.3179 605 47.3791 605 49.5001C605 51.621 605 52.6823 604.473 53.3408C603.946 54 603.097 54 601.4 54H600.8" stroke="#EADB5A" stroke-width="0.5" stroke-linecap="round"/>
<text id="label_price_9" fill="white" style="white-space: pre" xml:space="preserve" font-family="Montserrat" font-size="8" letter-spacing="0em"><tspan x="581" y="47.868">&#x446;&#x435;&#x43d;&#x430;</tspan></text>
<text id="label_area_9" fill="white" style="white-space: pre" xml:space="preserve" font-family="Montserrat" font-size="8" letter-spacing="0em"><tspan x="583" y="83.868">00,00 &#x43c;&#xb2;</tspan></text>
<text id="label_name_9" fill="white" style="white-space: pre" xml:space="preserve" font-family="Montserrat" font-size="8" letter-spacing="0em"><tspan x="604" y="14.8875">203</tspan></text>
<g id="label_busy_9">
<path id="form_9" d="M595.804 8.19447L600.196 8.19447L602.392 11.9983L600.196 15.8022L595.804 15.8022L593.608 11.9983L595.804 8.19447Z" fill="url(#paint8_radial_391_1263)"/>
<text id="&#209;&#129;&#208;&#180;&#208;&#176;&#208;&#189;_9" fill="black" style="white-space: pre" xml:space="preserve" font-family="Montserrat" font-size="3" font-weight="500" letter-spacing="0em"><tspan x="594" y="13.0755">&#x441;&#x434;&#x430;&#x43d;</tspan></text>
</g>
</g>
<g id="room_204">
<path id="poly_10" d="M629.066 8.0957V84.5095C629.066 86.7186 630.857 88.5095 633.066 88.5095H666.906C669.115 88.5095 670.906 86.7186 670.906 84.5095V8.0957C670.906 5.88656 669.115 4.0957 666.906 4.0957H633.066C630.857 4.0957 629.066 5.88656 629.066 8.0957Z" fill="#375A6D"/>
<path id="label_lock_10" d="M646.4 45.0002V43.5002C646.4 43.2447 646.417 42.9947 646.45 42.7502M653.6 45.0002V43.5002C653.6 42.5861 653.377 41.6937 652.962 40.9418C652.546 40.1898 651.957 39.6139 651.273 39.2907C650.589 38.9675 649.842 38.9123 649.132 39.1326C648.423 39.3528 647.784 39.838 647.3 40.5235M649.4 54H647.6C645.903 54 645.054 54 644.527 53.3408C644 52.6823 644 51.621 644 49.5001C644 47.3791 644 46.3179 644.527 45.6594C645.054 45.0002 645.903 45.0002 647.6 45.0002H652.4C654.097 45.0002 654.946 45.0002 655.473 45.6594C656 46.3179 656 47.3791 656 49.5001C656 51.621 656 52.6823 655.473 53.3408C654.946 54 654.097 54 652.4 54H651.8" stroke="#EADB5A" stroke-width="0.5" stroke-linecap="round"/>
<text id="label_price_10" fill="white" style="white-space: pre" xml:space="preserve" font-family="Montserrat" font-size="8" letter-spacing="0em"><tspan x="632" y="47.868">&#x446;&#x435;&#x43d;&#x430;</tspan></text>
<text id="label_area_10" fill="white" style="white-space: pre" xml:space="preserve" font-family="Montserrat" font-size="8" letter-spacing="0em"><tspan x="633" y="83.868">00,00 &#x43c;&#xb2;</tspan></text>
<text id="label_name_10" fill="white" style="white-space: pre" xml:space="preserve" font-family="Montserrat" font-size="8" letter-spacing="0em"><tspan x="654" y="14.8875">204</tspan></text>
<g id="label_busy_10">
<path id="form_10" d="M645.804 8.19643L650.196 8.19643L652.392 12.0003L650.196 15.8041L645.804 15.8041L643.608 12.0003L645.804 8.19643Z" fill="url(#paint9_radial_391_1263)"/>
<text id="&#209;&#129;&#208;&#180;&#208;&#176;&#208;&#189;_10" fill="black" style="white-space: pre" xml:space="preserve" font-family="Montserrat" font-size="3" font-weight="500" letter-spacing="0em"><tspan x="644" y="13.0755">&#x441;&#x434;&#x430;&#x43d;</tspan></text>
</g>
</g>
<g id="room_205">
<path id="poly_11" d="M672.374 8.08206V84.527C672.374 86.7362 674.165 88.5095 676.374 88.5095H708.746C710.955 88.5095 712.746 86.7186 712.746 84.5095V8.0957C712.746 5.88656 710.955 4.0957 708.746 4.0957H676.374C674.165 4.0957 672.374 5.87292 672.374 8.08206Z" fill="#375A6D"/>
<path id="label_lock_11" d="M689.4 45.0002V43.5002C689.4 43.2447 689.417 42.9947 689.45 42.7502M696.6 45.0002V43.5002C696.6 42.5861 696.377 41.6937 695.962 40.9418C695.546 40.1898 694.957 39.6139 694.273 39.2907C693.589 38.9675 692.842 38.9123 692.132 39.1326C691.423 39.3528 690.784 39.838 690.3 40.5235M692.4 54H690.6C688.903 54 688.054 54 687.527 53.3408C687 52.6823 687 51.621 687 49.5001C687 47.3791 687 46.3179 687.527 45.6594C688.054 45.0002 688.903 45.0002 690.6 45.0002H695.4C697.097 45.0002 697.946 45.0002 698.473 45.6594C699 46.3179 699 47.3791 699 49.5001C699 51.621 699 52.6823 698.473 53.3408C697.946 54 697.097 54 695.4 54H694.8" stroke="#EADB5A" stroke-width="0.5" stroke-linecap="round"/>
<text id="label_price_11" fill="white" style="white-space: pre" xml:space="preserve" font-family="Montserrat" font-size="8" letter-spacing="0em"><tspan x="675" y="47.868">&#x446;&#x435;&#x43d;&#x430;</tspan></text>
<text id="label_area_11" fill="white" style="white-space: pre" xml:space="preserve" font-family="Montserrat" font-size="8" letter-spacing="0em"><tspan x="675" y="83.868">00,00 &#x43c;&#xb2;</tspan></text>
<text id="label_name_11" fill="white" style="white-space: pre" xml:space="preserve" font-family="Montserrat" font-size="8" letter-spacing="0em"><tspan x="696" y="14.8875">205</tspan></text>
<g id="label_busy_11">
<path id="form_11" d="M687.804 8.19447L692.196 8.19447L694.392 11.9983L692.196 15.8022L687.804 15.8022L685.608 11.9983L687.804 8.19447Z" fill="url(#paint10_radial_391_1263)"/>
<text id="&#209;&#129;&#208;&#180;&#208;&#176;&#208;&#189;_11" fill="black" style="white-space: pre" xml:space="preserve" font-family="Montserrat" font-size="3" font-weight="500" letter-spacing="0em"><tspan x="686" y="13.0755">&#x441;&#x434;&#x430;&#x43d;</tspan></text>
</g>
</g>
<g id="room_206">
<path id="poly_12" d="M714.214 8.0957V84.5095C714.214 86.7186 716.005 88.5095 718.214 88.5095H756.458C758.667 88.5095 760.458 86.7186 760.458 84.5095V28.6486C760.458 26.4395 758.63 24.6486 756.421 24.6486C754.212 24.6486 752.384 22.8578 752.384 20.6486V8.0957C752.384 5.88656 750.593 4.0957 748.384 4.0957H718.214C716.005 4.0957 714.214 5.88656 714.214 8.0957Z" fill="#375A6D"/>
<path id="label_lock_12" d="M731.4 45.0002V43.5002C731.4 43.2447 731.417 42.9947 731.45 42.7502M738.6 45.0002V43.5002C738.6 42.5861 738.377 41.6937 737.962 40.9418C737.546 40.1898 736.957 39.6139 736.273 39.2907C735.589 38.9675 734.842 38.9123 734.132 39.1326C733.423 39.3528 732.784 39.838 732.3 40.5235M734.4 54H732.6C730.903 54 730.054 54 729.527 53.3408C729 52.6823 729 51.621 729 49.5001C729 47.3791 729 46.3179 729.527 45.6594C730.054 45.0002 730.903 45.0002 732.6 45.0002H737.4C739.097 45.0002 739.946 45.0002 740.473 45.6594C741 46.3179 741 47.3791 741 49.5001C741 51.621 741 52.6823 740.473 53.3408C739.946 54 739.097 54 737.4 54H736.8" stroke="#EADB5A" stroke-width="0.5" stroke-linecap="round"/>
<text id="label_price_12" fill="white" style="white-space: pre" xml:space="preserve" font-family="Montserrat" font-size="8" letter-spacing="0em"><tspan x="716" y="47.868">&#x446;&#x435;&#x43d;&#x430;</tspan></text>
<text id="label_area_12" fill="white" style="white-space: pre" xml:space="preserve" font-family="Montserrat" font-size="8" letter-spacing="0em"><tspan x="723" y="83.868">00,00 &#x43c;&#xb2;</tspan></text>
<text id="label_name_12" fill="white" style="white-space: pre" xml:space="preserve" font-family="Montserrat" font-size="8" letter-spacing="0em"><tspan x="735" y="14.8875">206</tspan></text>
<g id="label_busy_12">
<path id="form_12" d="M726.804 8.19643L731.196 8.19643L733.392 12.0003L731.196 15.8041L726.804 15.8041L724.608 12.0003L726.804 8.19643Z" fill="url(#paint11_radial_391_1263)"/>
<text id="&#209;&#129;&#208;&#180;&#208;&#176;&#208;&#189;_12" fill="black" style="white-space: pre" xml:space="preserve" font-family="Montserrat" font-size="3" font-weight="500" letter-spacing="0em"><tspan x="725" y="13.0755">&#x441;&#x434;&#x430;&#x43d;</tspan></text>
</g>
</g>
<g id="room_207">
<path id="poly_13" d="M734.767 93.9774V107.264C734.767 109.473 736.557 111.264 738.767 111.264H800.5C802.709 111.264 804.5 109.473 804.5 107.264V28.6484C804.5 26.4393 802.709 24.6484 800.5 24.6484H765.926C763.717 24.6484 761.926 26.4393 761.926 28.6484V85.9774C761.926 88.1865 760.135 89.9774 757.926 89.9774H738.767C736.557 89.9774 734.767 91.7682 734.767 93.9774Z" fill="#375A6D"/>
<path id="label_lock_13" d="M786.4 67.0002V65.5002C786.4 65.2447 786.417 64.9947 786.45 64.7502M793.6 67.0002V65.5002C793.6 64.5861 793.377 63.6937 792.962 62.9418C792.546 62.1898 791.957 61.6139 791.273 61.2907C790.589 60.9675 789.842 60.9123 789.132 61.1326C788.423 61.3528 787.784 61.838 787.3 62.5235M789.4 76H787.6C785.903 76 785.054 76 784.527 75.3408C784 74.6823 784 73.621 784 71.5001C784 69.3791 784 68.3179 784.527 67.6594C785.054 67.0002 785.903 67.0002 787.6 67.0002H792.4C794.097 67.0002 794.946 67.0002 795.473 67.6594C796 68.3179 796 69.3791 796 71.5001C796 73.621 796 74.6823 795.473 75.3408C794.946 76 794.097 76 792.4 76H791.8" stroke="#EADB5A" stroke-width="0.5" stroke-linecap="round"/>
<text id="label_price_13" fill="white" style="white-space: pre" xml:space="preserve" font-family="Montserrat" font-size="8" letter-spacing="0em"><tspan x="764" y="62.868">&#x446;&#x435;&#x43d;&#x430;</tspan></text>
<text id="label_area_13" fill="white" style="white-space: pre" xml:space="preserve" font-family="Montserrat" font-size="8" letter-spacing="0em"><tspan x="767" y="106.868">00,00 &#x43c;&#xb2;</tspan></text>
<text id="label_name_13" fill="white" style="white-space: pre" xml:space="preserve" font-family="Montserrat" font-size="8" letter-spacing="0em"><tspan x="788" y="34.8895">207</tspan></text>
<g id="label_busy_13">
<path id="form_13" d="M779.804 28.1964L784.196 28.1964L786.392 32.0003L784.196 35.8041L779.804 35.8041L777.608 32.0003L779.804 28.1964Z" fill="url(#paint12_radial_391_1263)"/>
<text id="&#209;&#129;&#208;&#180;&#208;&#176;&#208;&#189;_13" fill="black" style="white-space: pre" xml:space="preserve" font-family="Montserrat" font-size="3" font-weight="500" letter-spacing="0em"><tspan x="778" y="33.0755">&#x441;&#x434;&#x430;&#x43d;</tspan></text>
</g>
</g>
<g id="room_208">
<path id="poly_14" d="M580.95 122.275H678.651C680.86 122.275 682.651 124.066 682.651 126.275V204.891C682.651 207.1 680.86 208.891 678.651 208.891H642.609C640.4 208.891 638.609 207.1 638.609 204.891V157.839C638.609 155.63 636.818 153.839 634.609 153.839H586.888C585.459 153.839 584.138 153.076 583.424 151.839L577.486 141.554C577.135 140.946 576.95 140.257 576.95 139.554V126.275C576.95 124.066 578.741 122.275 580.95 122.275Z" fill="#375A6D"/>
<path id="label_lock_14" d="M652.4 157V155.5C652.4 155.245 652.417 154.995 652.45 154.75M659.6 157V155.5C659.6 154.586 659.377 153.694 658.962 152.942C658.546 152.19 657.957 151.614 657.273 151.291C656.589 150.967 655.842 150.912 655.132 151.133C654.423 151.353 653.784 151.838 653.3 152.524M655.4 166H653.6C651.903 166 651.054 166 650.527 165.341C650 164.682 650 163.621 650 161.5C650 159.379 650 158.318 650.527 157.659C651.054 157 651.903 157 653.6 157H658.4C660.097 157 660.946 157 661.473 157.659C662 158.318 662 159.379 662 161.5C662 163.621 662 164.682 661.473 165.341C660.946 166 660.097 166 658.4 166H657.8" stroke="#EADB5A" stroke-width="0.5" stroke-linecap="round"/>
<text id="label_price_14" fill="white" style="white-space: pre" xml:space="preserve" font-family="Montserrat" font-size="8" letter-spacing="0em"><tspan x="587" y="147.868">&#x446;&#x435;&#x43d;&#x430;</tspan></text>
<text id="label_area_14" fill="white" style="white-space: pre" xml:space="preserve" font-family="Montserrat" font-size="8" letter-spacing="0em"><tspan x="645" y="202.868">00,00 &#x43c;&#xb2;</tspan></text>
<text id="label_name_14" fill="white" style="white-space: pre" xml:space="preserve" font-family="Montserrat" font-size="8" letter-spacing="0em"><tspan x="666" y="132.889">208</tspan></text>
<g id="label_busy_14">
<path id="form_14" d="M657.804 126.196L662.196 126.196L664.392 130L662.196 133.804L657.804 133.804L655.608 130L657.804 126.196Z" fill="url(#paint13_radial_391_1263)"/>
<text id="&#209;&#129;&#208;&#180;&#208;&#176;&#208;&#189;_14" fill="black" style="white-space: pre" xml:space="preserve" font-family="Montserrat" font-size="3" font-weight="500" letter-spacing="0em"><tspan x="656" y="131.076">&#x441;&#x434;&#x430;&#x43d;</tspan></text>
</g>
</g>
<g id="room_209">
<path id="poly_15" d="M637.141 159.306V204.891C637.141 207.1 635.35 208.891 633.141 208.891H569.95C567.741 208.891 565.95 207.1 565.95 204.891V163.718C565.95 163.016 565.765 162.326 565.414 161.718L561.333 154.649C560.228 152.736 560.884 150.29 562.797 149.185L572.252 143.727C574.165 142.622 576.612 143.277 577.716 145.191L582.402 153.306C583.116 154.544 584.437 155.306 585.866 155.306H633.141C635.35 155.306 637.141 157.097 637.141 159.306Z" fill="#375A6D"/>
<path id="label_lock_15" d="M596.4 177V175.5C596.4 175.245 596.417 174.995 596.45 174.75M603.6 177V175.5C603.6 174.586 603.377 173.694 602.962 172.942C602.546 172.19 601.957 171.614 601.273 171.291C600.589 170.967 599.842 170.912 599.132 171.133C598.423 171.353 597.784 171.838 597.3 172.524M599.4 186H597.6C595.903 186 595.054 186 594.527 185.341C594 184.682 594 183.621 594 181.5C594 179.379 594 178.318 594.527 177.659C595.054 177 595.903 177 597.6 177H602.4C604.097 177 604.946 177 605.473 177.659C606 178.318 606 179.379 606 181.5C606 183.621 606 184.682 605.473 185.341C604.946 186 604.097 186 602.4 186H601.8" stroke="#EADB5A" stroke-width="0.5" stroke-linecap="round"/>
<text id="label_price_15" fill="white" style="white-space: pre" xml:space="preserve" font-family="Montserrat" font-size="8" letter-spacing="0em"><tspan x="569" y="180.868">&#x446;&#x435;&#x43d;&#x430;</tspan></text>
<text id="label_area_15" fill="white" style="white-space: pre" xml:space="preserve" font-family="Montserrat" font-size="8" letter-spacing="0em"><tspan x="599" y="202.868">00,00 &#x43c;&#xb2;</tspan></text>
<text id="label_name_15" fill="white" style="white-space: pre" xml:space="preserve" font-family="Montserrat" font-size="8" letter-spacing="0em"><tspan x="620" y="165.889">209</tspan></text>
<g id="label_busy_15">
<path id="form_15" d="M611.804 159.196L616.196 159.196L618.392 163L616.196 166.804L611.804 166.804L609.608 163L611.804 159.196Z" fill="url(#paint14_radial_391_1263)"/>
<text id="&#209;&#129;&#208;&#180;&#208;&#176;&#208;&#189;_15" fill="black" style="white-space: pre" xml:space="preserve" font-family="Montserrat" font-size="3" font-weight="500" letter-spacing="0em"><tspan x="610" y="164.076">&#x441;&#x434;&#x430;&#x43d;</tspan></text>
</g>
</g>
<g id="room_210">
<path id="poly_16" d="M564.472 164.453V204.891C564.472 207.1 562.681 208.891 560.472 208.891H508.874C507.813 208.891 506.796 208.47 506.046 207.72L494.442 196.116C493.692 195.366 493.271 194.349 493.271 193.288V155.637C493.271 153.428 495.061 151.637 497.271 151.637H555.382C556.811 151.637 558.131 152.399 558.846 153.637L563.936 162.453C564.287 163.061 564.472 163.751 564.472 164.453Z" fill="#375A6D"/>
<path id="label_lock_16" d="M525.4 176V174.5C525.4 174.245 525.417 173.995 525.45 173.75M532.6 176V174.5C532.6 173.586 532.377 172.694 531.962 171.942C531.546 171.19 530.957 170.614 530.273 170.291C529.589 169.967 528.842 169.912 528.132 170.133C527.423 170.353 526.784 170.838 526.3 171.524M528.4 185H526.6C524.903 185 524.054 185 523.527 184.341C523 183.682 523 182.621 523 180.5C523 178.379 523 177.318 523.527 176.659C524.054 176 524.903 176 526.6 176H531.4C533.097 176 533.946 176 534.473 176.659C535 177.318 535 178.379 535 180.5C535 182.621 535 183.682 534.473 184.341C533.946 185 533.097 185 531.4 185H530.8" stroke="#EADB5A" stroke-width="0.5" stroke-linecap="round"/>
<text id="label_price_16" fill="white" style="white-space: pre" xml:space="preserve" font-family="Montserrat" font-size="8" letter-spacing="0em"><tspan x="498" y="180.868">&#x446;&#x435;&#x43d;&#x430;</tspan></text>
<text id="label_area_16" fill="white" style="white-space: pre" xml:space="preserve" font-family="Montserrat" font-size="8" letter-spacing="0em"><tspan x="524" y="202.868">00,00 &#x43c;&#xb2;</tspan></text>
<text id="label_name_16" fill="white" style="white-space: pre" xml:space="preserve" font-family="Montserrat" font-size="8" letter-spacing="0em"><tspan x="546" y="162.893">210</tspan></text>
<g id="label_busy_16">
<path id="form_16" d="M537.804 156.196L542.196 156.196L544.392 160L542.196 163.804L537.804 163.804L535.608 160L537.804 156.196Z" fill="url(#paint15_radial_391_1263)"/>
<text id="&#209;&#129;&#208;&#180;&#208;&#176;&#208;&#189;_16" fill="black" style="white-space: pre" xml:space="preserve" font-family="Montserrat" font-size="3" font-weight="500" letter-spacing="0em"><tspan x="536" y="161.076">&#x441;&#x434;&#x430;&#x43d;</tspan></text>
</g>
</g>
<g id="room_211">
<path id="poly_17" d="M491.802 194.022V155.637C491.802 153.428 490.011 151.637 487.802 151.637H460.568C458.359 151.637 456.568 153.428 456.568 155.637V227.962C456.568 229.186 457.56 230.178 458.784 230.178C460.008 230.178 461 231.17 461 232.394V240.476C461 241.7 460.008 242.692 458.784 242.692C457.56 242.692 456.568 243.684 456.568 244.908V257.742C456.568 259.951 458.359 261.742 460.568 261.742H517.163C519.372 261.742 521.163 259.951 521.163 257.742V246.657C521.163 244.448 519.372 242.657 517.163 242.657H497.27C495.061 242.657 493.27 240.866 493.27 238.657V234.178C493.27 231.969 495.061 230.178 497.27 230.178H517.163C519.372 230.178 521.163 228.387 521.163 226.178V214.359C521.163 212.15 519.372 210.359 517.163 210.359H508.139C507.079 210.359 506.061 209.938 505.311 209.188L492.974 196.85C492.223 196.1 491.802 195.083 491.802 194.022Z" fill="#375A6D"/>
<path id="label_lock_17" d="M471.4 199V197.5C471.4 197.245 471.417 196.995 471.45 196.75M478.6 199V197.5C478.6 196.586 478.377 195.694 477.962 194.942C477.546 194.19 476.957 193.614 476.273 193.291C475.589 192.967 474.842 192.912 474.132 193.133C473.423 193.353 472.784 193.838 472.3 194.524M474.4 208H472.6C470.903 208 470.054 208 469.527 207.341C469 206.682 469 205.621 469 203.5C469 201.379 469 200.318 469.527 199.659C470.054 199 470.903 199 472.6 199H477.4C479.097 199 479.946 199 480.473 199.659C481 200.318 481 201.379 481 203.5C481 205.621 481 206.682 480.473 207.341C479.946 208 479.097 208 477.4 208H476.8" stroke="#EADB5A" stroke-width="0.5" stroke-linecap="round"/>
<text id="label_price_17" fill="white" style="white-space: pre" xml:space="preserve" font-family="Montserrat" font-size="8" letter-spacing="0em"><tspan x="460" y="219.868">&#x446;&#x435;&#x43d;&#x430;</tspan></text>
<text id="label_area_17" fill="white" style="white-space: pre" xml:space="preserve" font-family="Montserrat" font-size="8" letter-spacing="0em"><tspan x="482" y="255.868">00,00 &#x43c;&#xb2;</tspan></text>
<text id="label_name_17" fill="white" style="white-space: pre" xml:space="preserve" font-family="Montserrat" font-size="8" letter-spacing="0em"><tspan x="475" y="161.893">211</tspan></text>
<g id="label_busy_17">
<path id="form_17" d="M466.804 155.194L471.196 155.194L473.392 158.998L471.196 162.802L466.804 162.802L464.608 158.998L466.804 155.194Z" fill="url(#paint16_radial_391_1263)"/>
<text id="&#209;&#129;&#208;&#180;&#208;&#176;&#208;&#189;_17" fill="black" style="white-space: pre" xml:space="preserve" font-family="Montserrat" font-size="3" font-weight="500" letter-spacing="0em"><tspan x="465" y="160.076">&#x441;&#x434;&#x430;&#x43d;</tspan></text>
</g>
</g>
<g id="room_212">
<path id="poly_18" d="M455.1 226.508V155.637C455.1 153.428 453.309 151.637 451.1 151.637H413.59C411.381 151.637 409.59 153.428 409.59 155.637V226.178C409.59 228.387 411.381 230.178 413.59 230.178H419.537C421.746 230.178 423.537 231.969 423.537 234.178V238.657C423.537 240.866 421.746 242.657 419.537 242.657H409.92C407.711 242.657 405.92 244.448 405.92 246.657V257.742C405.92 259.951 407.711 261.742 409.92 261.742H451.1C453.309 261.742 455.1 259.951 455.1 257.742V246.327C455.1 244.3 453.457 242.657 451.43 242.657C449.403 242.657 447.76 241.014 447.76 238.987V233.848C447.76 231.821 449.403 230.178 451.43 230.178C453.457 230.178 455.1 228.535 455.1 226.508Z" fill="#375A6D"/>
<path id="label_lock_18" d="M429.4 199V197.5C429.4 197.245 429.417 196.995 429.45 196.75M436.6 199V197.5C436.6 196.586 436.377 195.694 435.962 194.942C435.546 194.19 434.957 193.614 434.273 193.291C433.589 192.967 432.842 192.912 432.132 193.133C431.423 193.353 430.784 193.838 430.3 194.524M432.4 208H430.6C428.903 208 428.054 208 427.527 207.341C427 206.682 427 205.621 427 203.5C427 201.379 427 200.318 427.527 199.659C428.054 199 428.903 199 430.6 199H435.4C437.097 199 437.946 199 438.473 199.659C439 200.318 439 201.379 439 203.5C439 205.621 439 206.682 438.473 207.341C437.946 208 437.097 208 435.4 208H434.8" stroke="#EADB5A" stroke-width="0.5" stroke-linecap="round"/>
<text id="label_price_18" fill="white" style="white-space: pre" xml:space="preserve" font-family="Montserrat" font-size="8" letter-spacing="0em"><tspan x="413" y="201.868">&#x446;&#x435;&#x43d;&#x430;</tspan></text>
<text id="label_area_18" fill="white" style="white-space: pre" xml:space="preserve" font-family="Montserrat" font-size="8" letter-spacing="0em"><tspan x="413" y="255.868">00,00 &#x43c;&#xb2;</tspan></text>
<text id="label_name_18" fill="white" style="white-space: pre" xml:space="preserve" font-family="Montserrat" font-size="8" letter-spacing="0em"><tspan x="438" y="161.893">212</tspan></text>
<g id="label_busy_18">
<path id="form_18" d="M429.804 155.194L434.196 155.194L436.392 158.998L434.196 162.802L429.804 162.802L427.608 158.998L429.804 155.194Z" fill="url(#paint17_radial_391_1263)"/>
<text id="&#209;&#129;&#208;&#180;&#208;&#176;&#208;&#189;_18" fill="black" style="white-space: pre" xml:space="preserve" font-family="Montserrat" font-size="3" font-weight="500" letter-spacing="0em"><tspan x="428" y="160.074">&#x441;&#x434;&#x430;&#x43d;</tspan></text>
</g>
</g>
<g id="room_213">
<path id="poly_19" d="M391.24 245.96V257.742C391.24 259.951 389.449 261.742 387.24 261.742H352.666C350.457 261.742 348.666 259.951 348.666 257.742V246.657C348.666 244.448 350.457 242.657 352.666 242.657H355.677C357.886 242.657 359.677 240.866 359.677 238.657V234.178C359.677 231.969 357.886 230.178 355.677 230.178H352.666C350.457 230.178 348.666 228.387 348.666 226.178V155.637C348.666 153.428 350.457 151.637 352.666 151.637H396.782C398.991 151.637 400.782 153.428 400.782 155.637V226.178C400.782 228.387 398.991 230.178 396.782 230.178H388.634C386.424 230.178 384.634 231.969 384.634 234.178V239.354C384.634 241.178 386.112 242.657 387.937 242.657C389.761 242.657 391.24 244.136 391.24 245.96Z" fill="#375A6D"/>
<path id="label_lock_19" d="M370.4 199V197.5C370.4 197.245 370.417 196.995 370.45 196.75M377.6 199V197.5C377.6 196.586 377.377 195.694 376.962 194.942C376.546 194.19 375.957 193.614 375.273 193.291C374.589 192.967 373.842 192.912 373.132 193.133C372.423 193.353 371.784 193.838 371.3 194.524M373.4 208H371.6C369.903 208 369.054 208 368.527 207.341C368 206.682 368 205.621 368 203.5C368 201.379 368 200.318 368.527 199.659C369.054 199 369.903 199 371.6 199H376.4C378.097 199 378.946 199 379.473 199.659C380 200.318 380 201.379 380 203.5C380 205.621 380 206.682 379.473 207.341C378.946 208 378.097 208 376.4 208H375.8" stroke="#EADB5A" stroke-width="0.5" stroke-linecap="round"/>
<text id="label_price_19" fill="white" style="white-space: pre" xml:space="preserve" font-family="Montserrat" font-size="8" letter-spacing="0em"><tspan x="351" y="201.868">&#x446;&#x435;&#x43d;&#x430;</tspan></text>
<text id="label_area_19" fill="white" style="white-space: pre" xml:space="preserve" font-family="Montserrat" font-size="8" letter-spacing="0em"><tspan x="353" y="255.868">00,00 &#x43c;&#xb2;</tspan></text>
<text id="label_name_19" fill="white" style="white-space: pre" xml:space="preserve" font-family="Montserrat" font-size="8" letter-spacing="0em"><tspan x="384" y="161.895">213</tspan></text>
<g id="label_busy_19">
<path id="form_19" d="M375.804 155.194L380.196 155.194L382.392 158.998L380.196 162.802L375.804 162.802L373.608 158.998L375.804 155.194Z" fill="url(#paint18_radial_391_1263)"/>
<text id="&#209;&#129;&#208;&#180;&#208;&#176;&#208;&#189;_19" fill="black" style="white-space: pre" xml:space="preserve" font-family="Montserrat" font-size="3" font-weight="500" letter-spacing="0em"><tspan x="374" y="160.076">&#x441;&#x434;&#x430;&#x43d;</tspan></text>
</g>
</g>
<g id="room_214">
<path id="poly_20" d="M347.127 155.637V257.742C347.127 259.951 345.336 261.742 343.127 261.742H288C285.791 261.742 284 259.951 284 257.742V246.657C284 244.448 285.791 242.657 288 242.657H306.425C308.634 242.657 310.425 240.866 310.425 238.657V234.178C310.425 231.969 308.634 230.178 306.425 230.178H288C285.791 230.178 284 228.387 284 226.178V216.561C284 214.352 285.791 212.561 288 212.561H292.62C293.68 212.561 294.698 212.14 295.448 211.39L304.115 202.723C304.866 201.972 305.287 200.955 305.287 199.894V155.637C305.287 153.428 307.078 151.637 309.287 151.637H343.127C345.336 151.637 347.127 153.428 347.127 155.637Z" fill="#375A6D"/>
<path id="label_lock_20" d="M320.4 199V197.5C320.4 197.245 320.417 196.995 320.45 196.75M327.6 199V197.5C327.6 196.586 327.377 195.694 326.962 194.942C326.546 194.19 325.957 193.614 325.273 193.291C324.589 192.967 323.842 192.912 323.132 193.133C322.423 193.353 321.784 193.838 321.3 194.524M323.4 208H321.6C319.903 208 319.054 208 318.527 207.341C318 206.682 318 205.621 318 203.5C318 201.379 318 200.318 318.527 199.659C319.054 199 319.903 199 321.6 199H326.4C328.097 199 328.946 199 329.473 199.659C330 200.318 330 201.379 330 203.5C330 205.621 330 206.682 329.473 207.341C328.946 208 328.097 208 326.4 208H325.8" stroke="#EADB5A" stroke-width="0.5" stroke-linecap="round"/>
<text id="label_price_20" fill="white" style="white-space: pre" xml:space="preserve" font-family="Montserrat" font-size="8" letter-spacing="0em"><tspan x="290" y="223.868">&#x446;&#x435;&#x43d;&#x430;</tspan></text>
<text id="label_area_20" fill="white" style="white-space: pre" xml:space="preserve" font-family="Montserrat" font-size="8" letter-spacing="0em"><tspan x="290" y="255.868">00,00 &#x43c;&#xb2;</tspan></text>
<text id="label_name_20" fill="white" style="white-space: pre" xml:space="preserve" font-family="Montserrat" font-size="8" letter-spacing="0em"><tspan x="330" y="161.895">214</tspan></text>
<g id="label_busy_20">
<path id="form_20" d="M321.804 155.194L326.196 155.194L328.392 158.998L326.196 162.802L321.804 162.802L319.608 158.998L321.804 155.194Z" fill="url(#paint19_radial_391_1263)"/>
<text id="&#209;&#129;&#208;&#180;&#208;&#176;&#208;&#189;_20" fill="black" style="white-space: pre" xml:space="preserve" font-family="Montserrat" font-size="3" font-weight="500" letter-spacing="0em"><tspan x="320" y="160.076">&#x441;&#x434;&#x430;&#x43d;</tspan></text>
</g>
</g>
<g id="room_215">
<path id="poly_21" d="M303.889 199.16V155.637C303.889 153.428 302.098 151.637 299.889 151.637H241.826C239.617 151.637 237.826 153.428 237.826 155.637V207.093C237.826 209.303 239.617 211.093 241.826 211.093H291.956C293.017 211.093 294.034 210.672 294.784 209.922L302.718 201.988C303.468 201.238 303.889 200.221 303.889 199.16Z" fill="#375A6D"/>
<path id="label_lock_21" d="M267.4 179V177.5C267.4 177.245 267.417 176.995 267.45 176.75M274.6 179V177.5C274.6 176.586 274.377 175.694 273.962 174.942C273.546 174.19 272.957 173.614 272.273 173.291C271.589 172.967 270.842 172.912 270.132 173.133C269.423 173.353 268.784 173.838 268.3 174.524M270.4 188H268.6C266.903 188 266.054 188 265.527 187.341C265 186.682 265 185.621 265 183.5C265 181.379 265 180.318 265.527 179.659C266.054 179 266.903 179 268.6 179H273.4C275.097 179 275.946 179 276.473 179.659C277 180.318 277 181.379 277 183.5C277 185.621 277 186.682 276.473 187.341C275.946 188 275.097 188 273.4 188H272.8" stroke="#EADB5A" stroke-width="0.5" stroke-linecap="round"/>
<text id="label_price_21" fill="white" style="white-space: pre" xml:space="preserve" font-family="Montserrat" font-size="8" letter-spacing="0em"><tspan x="240" y="182.868">&#x446;&#x435;&#x43d;&#x430;</tspan></text>
<text id="label_area_21" fill="white" style="white-space: pre" xml:space="preserve" font-family="Montserrat" font-size="8" letter-spacing="0em"><tspan x="258" y="204.868">00,00 &#x43c;&#xb2;</tspan></text>
<text id="label_name_21" fill="white" style="white-space: pre" xml:space="preserve" font-family="Montserrat" font-size="8" letter-spacing="0em"><tspan x="287" y="161.895">215</tspan></text>
<g id="label_busy_21">
<path id="form_21" d="M278.804 155.194L283.196 155.194L285.392 158.998L283.196 162.802L278.804 162.802L276.608 158.998L278.804 155.194Z" fill="url(#paint20_radial_391_1263)"/>
<text id="&#209;&#129;&#208;&#180;&#208;&#176;&#208;&#189;_21" fill="black" style="white-space: pre" xml:space="preserve" font-family="Montserrat" font-size="3" font-weight="500" letter-spacing="0em"><tspan x="277" y="160.076">&#x441;&#x434;&#x430;&#x43d;</tspan></text>
</g>
</g>
<g id="room_216">
<path id="poly_22" d="M236.358 155.637V207.093C236.358 209.303 234.567 211.093 232.358 211.093H170.625C168.416 211.093 166.625 209.303 166.625 207.093V155.637C166.625 153.428 168.416 151.637 170.625 151.637H232.358C234.567 151.637 236.358 153.428 236.358 155.637Z" fill="#375A6D"/>
<path id="label_lock_22" d="M195.4 179V177.5C195.4 177.245 195.417 176.995 195.45 176.75M202.6 179V177.5C202.6 176.586 202.377 175.694 201.962 174.942C201.546 174.19 200.957 173.614 200.273 173.291C199.589 172.967 198.842 172.912 198.132 173.133C197.423 173.353 196.784 173.838 196.3 174.524M198.4 188H196.6C194.903 188 194.054 188 193.527 187.341C193 186.682 193 185.621 193 183.5C193 181.379 193 180.318 193.527 179.659C194.054 179 194.903 179 196.6 179H201.4C203.097 179 203.946 179 204.473 179.659C205 180.318 205 181.379 205 183.5C205 185.621 205 186.682 204.473 187.341C203.946 188 203.097 188 201.4 188H200.8" stroke="#EADB5A" stroke-width="0.5" stroke-linecap="round"/>
<text id="label_price_22" fill="white" style="white-space: pre" xml:space="preserve" font-family="Montserrat" font-size="8" letter-spacing="0em"><tspan x="170" y="182.868">&#x446;&#x435;&#x43d;&#x430;</tspan></text>
<text id="label_area_22" fill="white" style="white-space: pre" xml:space="preserve" font-family="Montserrat" font-size="8" letter-spacing="0em"><tspan x="198" y="204.868">00,00 &#x43c;&#xb2;</tspan></text>
<text id="label_name_22" fill="white" style="white-space: pre" xml:space="preserve" font-family="Montserrat" font-size="8" letter-spacing="0em"><tspan x="219" y="161.895">216</tspan></text>
<g id="label_busy_22">
<path id="form_22" d="M210.804 155.194L215.196 155.194L217.392 158.998L215.196 162.802L210.804 162.802L208.608 158.998L210.804 155.194Z" fill="url(#paint21_radial_391_1263)"/>
<text id="&#209;&#129;&#208;&#180;&#208;&#176;&#208;&#189;_22" fill="black" style="white-space: pre" xml:space="preserve" font-family="Montserrat" font-size="3" font-weight="500" letter-spacing="0em"><tspan x="209" y="160.074">&#x441;&#x434;&#x430;&#x43d;</tspan></text>
</g>
</g>
<g id="room_217">
<path id="poly_23" d="M165.157 154.167V207.092C165.157 209.301 163.367 211.092 161.157 211.092H123.647C121.438 211.092 119.647 209.301 119.647 207.092V127.742C119.647 125.533 121.438 123.742 123.647 123.742H172.902C175.111 123.742 176.902 125.533 176.902 127.742V146.167C176.902 148.377 175.111 150.167 172.902 150.167H169.157C166.948 150.167 165.157 151.958 165.157 154.167Z" fill="#375A6D"/>
<path id="label_lock_23" d="M139.4 163V161.5C139.4 161.245 139.417 160.995 139.45 160.75M146.6 163V161.5C146.6 160.586 146.377 159.694 145.962 158.942C145.546 158.19 144.957 157.614 144.273 157.291C143.589 156.967 142.842 156.912 142.132 157.133C141.423 157.353 140.784 157.838 140.3 158.524M142.4 172H140.6C138.903 172 138.054 172 137.527 171.341C137 170.682 137 169.621 137 167.5C137 165.379 137 164.318 137.527 163.659C138.054 163 138.903 163 140.6 163H145.4C147.097 163 147.946 163 148.473 163.659C149 164.318 149 165.379 149 167.5C149 169.621 149 170.682 148.473 171.341C147.946 172 147.097 172 145.4 172H144.8" stroke="#EADB5A" stroke-width="0.5" stroke-linecap="round"/>
<text id="label_price_23" fill="white" style="white-space: pre" xml:space="preserve" font-family="Montserrat" font-size="8" letter-spacing="0em"><tspan x="122" y="169.868">&#x446;&#x435;&#x43d;&#x430;</tspan></text>
<text id="label_area_23" fill="white" style="white-space: pre" xml:space="preserve" font-family="Montserrat" font-size="8" letter-spacing="0em"><tspan x="125" y="204.868">00,00 &#x43c;&#xb2;</tspan></text>
<text id="label_name_23" fill="white" style="white-space: pre" xml:space="preserve" font-family="Montserrat" font-size="8" letter-spacing="0em"><tspan x="160" y="133.897">217</tspan></text>
<g id="label_busy_23">
<path id="form_23" d="M151.804 127.194L156.196 127.194L158.392 130.998L156.196 134.802L151.804 134.802L149.608 130.998L151.804 127.194Z" fill="url(#paint22_radial_391_1263)"/>
<text id="&#209;&#129;&#208;&#180;&#208;&#176;&#208;&#189;_23" fill="black" style="white-space: pre" xml:space="preserve" font-family="Montserrat" font-size="3" font-weight="500" letter-spacing="0em"><tspan x="150" y="132.076">&#x441;&#x434;&#x430;&#x43d;</tspan></text>
</g>
</g>
<g id="room_218">
<path id="poly_24" d="M0 107.998V31.584C0 29.3748 1.79087 27.584 4 27.584H31.2336C33.4427 27.584 35.2336 29.3748 35.2336 31.584V85.9768C35.2336 88.1859 37.0244 89.9768 39.2336 89.9768H51.7865C53.9956 89.9768 55.7865 91.7676 55.7865 93.9768V107.998C55.7865 110.207 53.9956 111.998 51.7865 111.998H4C1.79086 111.998 0 110.207 0 107.998Z" fill="#375A6D"/>
<path id="label_lock_24" d="M14.4 64.0002V62.5002C14.4 62.2447 14.4168 61.9947 14.4498 61.7502M21.6 64.0002V62.5002C21.6 61.5861 21.3774 60.6937 20.9616 59.9418C20.5458 59.1898 19.9572 58.6139 19.2726 58.2907C18.5886 57.9675 17.8422 57.9123 17.1324 58.1326C16.4232 58.3528 15.7836 58.838 15.3 59.5235M17.4 73H15.6C13.9032 73 13.0542 73 12.5274 72.3408C12 71.6823 12 70.621 12 68.5001C12 66.3791 12 65.3179 12.5274 64.6594C13.0542 64.0002 13.9032 64.0002 15.6 64.0002H20.4C22.0968 64.0002 22.9458 64.0002 23.4726 64.6594C24 65.3179 24 66.3791 24 68.5001C24 70.621 24 71.6823 23.4726 72.3408C22.9458 73 22.0968 73 20.4 73H19.8" stroke="#EADB5A" stroke-width="0.5" stroke-linecap="round"/>
<text id="label_price_24" fill="white" style="white-space: pre" xml:space="preserve" font-family="Montserrat" font-size="8" letter-spacing="0em"><tspan x="3" y="69.868">&#x446;&#x435;&#x43d;&#x430;</tspan></text>
<text id="label_area_24" fill="white" style="white-space: pre" xml:space="preserve" font-family="Montserrat" font-size="8" letter-spacing="0em"><tspan x="3" y="107.868">00,00 &#x43c;&#xb2;</tspan></text>
<text id="label_name_24" fill="white" style="white-space: pre" xml:space="preserve" font-family="Montserrat" font-size="8" letter-spacing="0em"><tspan x="19" y="38.868">218</tspan></text>
<g id="label_busy_24">
<path id="form_24" d="M10.8038 32.1945L15.1962 32.1945L17.3923 35.9983L15.1962 39.8022L10.8038 39.8022L8.6077 35.9983L10.8038 32.1945Z" fill="url(#paint23_radial_391_1263)"/>
<text id="&#209;&#129;&#208;&#180;&#208;&#176;&#208;&#189;_24" fill="black" style="white-space: pre" xml:space="preserve" font-family="Montserrat" font-size="3" font-weight="500" letter-spacing="0em"><tspan x="9" y="37.0755">&#x441;&#x434;&#x430;&#x43d;</tspan></text>
</g>
</g>
<path id="Rectangle 494" d="M111 6L111 1L131 1L131 6L111 6Z" fill="#8FB6F9"/>
<path id="Rectangle 495" d="M247 6L247 1L271 1L271 6L247 6Z" fill="#8FB6F9"/>
<path id="Rectangle 496" d="M521 5L521 -4.76834e-07L545 -1.9064e-07L545 5L521 5Z" fill="#8FB6F9"/>
<path id="Rectangle 497" d="M566 5L566 -4.76834e-07L590 -1.9064e-07L590 5L566 5Z" fill="#8FB6F9"/>
<path id="Rectangle 498" d="M661 5L661 0L681 -2.3834e-07L681 5L661 5Z" fill="#8FB6F9"/>
<path id="Rectangle 499" d="M704 5L704 0L724 -2.3834e-07L724 5L704 5Z" fill="#8FB6F9"/>
<path id="Rectangle 485" d="M284 266L284 261L391.237 261L391.237 266L284 266Z" fill="#8FB6F9"/>
<path id="Rectangle 486" d="M405.913 266L405.913 261L521.164 261L521.164 266L405.913 266Z" fill="#8FB6F9"/>
<path id="Rectangle 487" d="M544 213L544 208L564.47 208L564.47 213L544 213Z" fill="#8FB6F9"/>
<path id="Rectangle 490" d="M245 215L245 210L265 210L265 215L245 215Z" fill="#8FB6F9"/>
<path id="Rectangle 491" d="M132 215L132 210L152 210L152 215L132 215Z" fill="#8FB6F9"/>
<path id="Rectangle 492" d="M184 215L184 210L204 210L204 215L184 215Z" fill="#8FB6F9"/>
<path id="Rectangle 488" d="M591 213L591 208L611.47 208L611.47 213L591 213Z" fill="#8FB6F9"/>
<path id="Rectangle 489" d="M638.613 213L638.613 208L659.47 208L659.47 213L638.613 213Z" fill="#8FB6F9"/>
</g>
<defs>
<radialGradient id="paint0_radial_391_1263" cx="0" cy="0" r="1" gradientUnits="userSpaceOnUse" gradientTransform="translate(70.2589 11.4923) rotate(130.972) scale(6.316)">
<stop stop-color="#03CF21"/>
<stop offset="0.706731" stop-color="#20CDED"/>
</radialGradient>
<radialGradient id="paint1_radial_391_1263" cx="0" cy="0" r="1" gradientUnits="userSpaceOnUse" gradientTransform="translate(103.259 11.4923) rotate(130.972) scale(6.316)">
<stop stop-color="#03CF21"/>
<stop offset="0.706731" stop-color="#20CDED"/>
</radialGradient>
<radialGradient id="paint2_radial_391_1263" cx="0" cy="0" r="1" gradientUnits="userSpaceOnUse" gradientTransform="translate(149.259 11.4923) rotate(130.972) scale(6.316)">
<stop stop-color="#03CF21"/>
<stop offset="0.706731" stop-color="#20CDED"/>
</radialGradient>
<radialGradient id="paint3_radial_391_1263" cx="0" cy="0" r="1" gradientUnits="userSpaceOnUse" gradientTransform="translate(187.259 11.4923) rotate(130.972) scale(6.316)">
<stop stop-color="#03CF21"/>
<stop offset="0.706731" stop-color="#20CDED"/>
</radialGradient>
<radialGradient id="paint4_radial_391_1263" cx="0" cy="0" r="1" gradientUnits="userSpaceOnUse" gradientTransform="translate(238.259 11.4923) rotate(130.972) scale(6.316)">
<stop stop-color="#03CF21"/>
<stop offset="0.706731" stop-color="#20CDED"/>
</radialGradient>
<radialGradient id="paint5_radial_391_1263" cx="0" cy="0" r="1" gradientUnits="userSpaceOnUse" gradientTransform="translate(285.259 11.4923) rotate(130.972) scale(6.316)">
<stop stop-color="#03CF21"/>
<stop offset="0.706731" stop-color="#20CDED"/>
</radialGradient>
<radialGradient id="paint6_radial_391_1263" cx="0" cy="0" r="1" gradientUnits="userSpaceOnUse" gradientTransform="translate(512.259 10.4923) rotate(130.972) scale(6.316)">
<stop stop-color="#03CF21"/>
<stop offset="0.706731" stop-color="#20CDED"/>
</radialGradient>
<radialGradient id="paint7_radial_391_1263" cx="0" cy="0" r="1" gradientUnits="userSpaceOnUse" gradientTransform="translate(556.259 10.4904) rotate(130.972) scale(6.316)">
<stop stop-color="#03CF21"/>
<stop offset="0.706731" stop-color="#20CDED"/>
</radialGradient>
<radialGradient id="paint8_radial_391_1263" cx="0" cy="0" r="1" gradientUnits="userSpaceOnUse" gradientTransform="translate(600.259 10.4923) rotate(130.972) scale(6.316)">
<stop stop-color="#03CF21"/>
<stop offset="0.706731" stop-color="#20CDED"/>
</radialGradient>
<radialGradient id="paint9_radial_391_1263" cx="0" cy="0" r="1" gradientUnits="userSpaceOnUse" gradientTransform="translate(650.259 10.4943) rotate(130.972) scale(6.316)">
<stop stop-color="#03CF21"/>
<stop offset="0.706731" stop-color="#20CDED"/>
</radialGradient>
<radialGradient id="paint10_radial_391_1263" cx="0" cy="0" r="1" gradientUnits="userSpaceOnUse" gradientTransform="translate(692.259 10.4923) rotate(130.972) scale(6.316)">
<stop stop-color="#03CF21"/>
<stop offset="0.706731" stop-color="#20CDED"/>
</radialGradient>
<radialGradient id="paint11_radial_391_1263" cx="0" cy="0" r="1" gradientUnits="userSpaceOnUse" gradientTransform="translate(731.259 10.4943) rotate(130.972) scale(6.316)">
<stop stop-color="#03CF21"/>
<stop offset="0.706731" stop-color="#20CDED"/>
</radialGradient>
<radialGradient id="paint12_radial_391_1263" cx="0" cy="0" r="1" gradientUnits="userSpaceOnUse" gradientTransform="translate(784.259 30.4943) rotate(130.972) scale(6.316)">
<stop stop-color="#03CF21"/>
<stop offset="0.706731" stop-color="#20CDED"/>
</radialGradient>
<radialGradient id="paint13_radial_391_1263" cx="0" cy="0" r="1" gradientUnits="userSpaceOnUse" gradientTransform="translate(662.259 128.494) rotate(130.972) scale(6.316)">
<stop stop-color="#03CF21"/>
<stop offset="0.706731" stop-color="#20CDED"/>
</radialGradient>
<radialGradient id="paint14_radial_391_1263" cx="0" cy="0" r="1" gradientUnits="userSpaceOnUse" gradientTransform="translate(616.259 161.494) rotate(130.972) scale(6.316)">
<stop stop-color="#03CF21"/>
<stop offset="0.706731" stop-color="#20CDED"/>
</radialGradient>
<radialGradient id="paint15_radial_391_1263" cx="0" cy="0" r="1" gradientUnits="userSpaceOnUse" gradientTransform="translate(542.259 158.494) rotate(130.972) scale(6.316)">
<stop stop-color="#03CF21"/>
<stop offset="0.706731" stop-color="#20CDED"/>
</radialGradient>
<radialGradient id="paint16_radial_391_1263" cx="0" cy="0" r="1" gradientUnits="userSpaceOnUse" gradientTransform="translate(471.259 157.492) rotate(130.972) scale(6.316)">
<stop stop-color="#03CF21"/>
<stop offset="0.706731" stop-color="#20CDED"/>
</radialGradient>
<radialGradient id="paint17_radial_391_1263" cx="0" cy="0" r="1" gradientUnits="userSpaceOnUse" gradientTransform="translate(434.259 157.492) rotate(130.972) scale(6.316)">
<stop stop-color="#03CF21"/>
<stop offset="0.706731" stop-color="#20CDED"/>
</radialGradient>
<radialGradient id="paint18_radial_391_1263" cx="0" cy="0" r="1" gradientUnits="userSpaceOnUse" gradientTransform="translate(380.259 157.492) rotate(130.972) scale(6.316)">
<stop stop-color="#03CF21"/>
<stop offset="0.706731" stop-color="#20CDED"/>
</radialGradient>
<radialGradient id="paint19_radial_391_1263" cx="0" cy="0" r="1" gradientUnits="userSpaceOnUse" gradientTransform="translate(326.259 157.492) rotate(130.972) scale(6.316)">
<stop stop-color="#03CF21"/>
<stop offset="0.706731" stop-color="#20CDED"/>
</radialGradient>
<radialGradient id="paint20_radial_391_1263" cx="0" cy="0" r="1" gradientUnits="userSpaceOnUse" gradientTransform="translate(283.259 157.492) rotate(130.972) scale(6.316)">
<stop stop-color="#03CF21"/>
<stop offset="0.706731" stop-color="#20CDED"/>
</radialGradient>
<radialGradient id="paint21_radial_391_1263" cx="0" cy="0" r="1" gradientUnits="userSpaceOnUse" gradientTransform="translate(215.259 157.492) rotate(130.972) scale(6.316)">
<stop stop-color="#03CF21"/>
<stop offset="0.706731" stop-color="#20CDED"/>
</radialGradient>
<radialGradient id="paint22_radial_391_1263" cx="0" cy="0" r="1" gradientUnits="userSpaceOnUse" gradientTransform="translate(156.259 129.492) rotate(130.972) scale(6.316)">
<stop stop-color="#03CF21"/>
<stop offset="0.706731" stop-color="#20CDED"/>
</radialGradient>
<radialGradient id="paint23_radial_391_1263" cx="0" cy="0" r="1" gradientUnits="userSpaceOnUse" gradientTransform="translate(15.2589 34.4923) rotate(130.972) scale(6.316)">
<stop stop-color="#03CF21"/>
<stop offset="0.706731" stop-color="#20CDED"/>
</radialGradient>
</defs>
</svg>
