<svg width="1208" height="484" viewBox="0 0 1208 484" fill="none" xmlns="http://www.w3.org/2000/svg">
<g id="Frame 2043683229">
<rect width="1208" height="484" fill="white"/>
<path id="Vector 2249" d="M704.461 235.264H587.676C585.467 235.264 583.676 233.473 583.676 231.264V152.648C583.676 150.439 585.467 148.648 587.676 148.648H704.461C706.671 148.648 708.461 150.439 708.461 152.648V231.264C708.461 233.473 706.671 235.264 704.461 235.264Z" fill="#FDD24F"/>
<path id="Vector 2248" d="M565.655 207.371H573.07C575.279 207.371 577.07 209.162 577.07 211.371V231.264C577.07 233.473 575.279 235.264 573.07 235.264H565.655C563.446 235.264 561.655 233.473 561.655 231.264V211.371C561.655 209.162 563.446 207.371 565.655 207.371Z" fill="#FDD24F"/>
<path id="Union" d="M391.359 213.977C392.576 213.977 393.562 214.963 393.562 216.179C393.562 217.395 394.548 218.381 395.764 218.381H400.168C401.384 218.381 402.37 217.395 402.37 216.179C402.37 214.963 403.356 213.977 404.572 213.977H417.455C419.664 213.977 421.455 215.767 421.455 217.977V243.742C421.455 245.951 423.246 247.742 425.455 247.742H774.195C776.404 247.742 778.195 245.951 778.195 243.742V217.977C778.195 215.767 779.986 213.977 782.195 213.977H844.258C844.638 213.977 844.951 214.266 844.988 214.636L844.996 214.786C845.034 215.156 845.347 215.444 845.727 215.444H852.332C852.712 215.444 853.025 215.156 853.062 214.786L853.07 214.636C853.108 214.266 853.421 213.977 853.801 213.977H953.299C955.508 213.977 957.299 215.767 957.299 217.977V231.264C957.299 233.473 955.508 235.264 953.299 235.264H855.636C854.306 235.264 853.212 234.253 853.08 232.957L853.053 232.432C852.921 231.136 851.827 230.125 850.497 230.125H847.562C846.231 230.125 845.137 231.136 845.006 232.432L844.979 232.957C844.847 234.253 843.753 235.264 842.423 235.264H803.482C801.273 235.264 799.482 237.055 799.482 239.264V261.581C799.482 263.01 798.72 264.331 797.482 265.046L782.611 273.632C782.003 273.983 781.313 274.167 780.611 274.167H406.37C404.161 274.167 402.37 272.376 402.37 270.167V237.796C402.37 235.587 400.579 233.796 398.37 233.796H374.11C373.54 233.796 373.071 234.229 373.015 234.784L373.003 235.009C372.947 235.564 372.478 235.997 371.908 235.997H285.255C283.046 235.997 281.255 234.206 281.255 231.997V217.977C281.255 215.767 283.046 213.977 285.255 213.977H391.359ZM573.07 148.648C575.279 148.649 577.07 150.44 577.07 152.648V201.903C577.07 204.112 575.279 205.903 573.07 205.903H564.188C561.978 205.903 560.188 207.694 560.188 209.903V242.275C560.187 244.485 558.397 246.275 556.188 246.275H550.241C548.032 246.275 546.241 244.485 546.241 242.275V239.265C546.241 237.056 544.45 235.265 542.241 235.265H537.433C536.622 235.265 535.965 234.608 535.965 233.797C535.965 232.986 535.307 232.329 534.496 232.329H533.396C531.977 232.329 530.826 231.179 530.826 229.76V220.951C530.826 219.532 531.977 218.382 533.396 218.382C534.814 218.382 535.965 217.232 535.965 215.813V152.649C535.965 150.44 537.756 148.649 539.965 148.649H552.484L561.655 148.648H573.07Z" fill="#FDD24F"/>
<path id="Vector 2250" d="M397.5 190.5H386.5C384.291 190.5 382.5 192.291 382.5 194.5V208.5C382.5 210.709 384.291 212.5 386.5 212.5H397.5C399.709 212.5 401.5 210.709 401.5 208.5V194.5C401.5 192.291 399.709 190.5 397.5 190.5Z" fill="#C3D7E0"/>
<path id="Vector 2251" d="M563.5 139.5V146H608.5V139.5H563.5Z" fill="#C3D7E0"/>
<path id="Vector 2252" d="M627.5 146V139.5H687.5V146H627.5Z" fill="#C3D7E0"/>
<path id="Vector 2253" d="M533.5 361.5V359.5C533.5 357.291 531.709 355.5 529.5 355.5H512C509.791 355.5 508 357.291 508 359.5V361.5C508 363.709 509.791 365.5 512 365.5H529.5C531.709 365.5 533.5 363.709 533.5 361.5Z" fill="#C3D7E0"/>
<path id="Vector 2254" d="M583 361.5V359.5C583 357.291 581.209 355.5 579 355.5H577C574.791 355.5 573 357.291 573 359.5V361.5C573 363.709 574.791 365.5 577 365.5H579C581.209 365.5 583 363.709 583 361.5Z" fill="#C3D7E0"/>
<path id="Vector 2255" d="M624.5 385.499H620.5C618.291 385.499 616.5 383.708 616.5 381.499V368.999C616.5 367.066 614.933 365.499 613 365.499C611.067 365.499 609.5 363.932 609.5 361.999V359.499C609.5 357.29 611.291 355.499 613.5 355.499H621.525C623.724 355.499 625.511 353.723 625.525 351.524L625.98 278.953C625.991 277.16 627.447 275.713 629.24 275.713C631.04 275.713 632.5 277.173 632.5 278.973V351.499C632.5 353.708 634.291 355.499 636.5 355.499H642.5C644.709 355.499 646.5 357.29 646.5 359.499V361.499C646.5 363.708 644.709 365.499 642.5 365.499H632.5C630.291 365.499 628.5 367.29 628.5 369.499V381.499C628.5 383.708 626.709 385.499 624.5 385.499Z" fill="#C3D7E0"/>
<path id="Vector 2256" d="M680 355H677C674.791 355 673 356.791 673 359V362C673 364.209 674.791 366 677 366H680C682.209 366 684 364.209 684 362V359C684 356.791 682.209 355 680 355Z" fill="#C3D7E0"/>
<path id="Vector 2257" d="M722.5 355H741C743.209 355 745 356.791 745 359V361.5C745 363.709 743.209 365.5 741 365.5H722.5C720.291 365.5 718.5 363.709 718.5 361.5V359C718.5 356.791 720.291 355 722.5 355Z" fill="#C3D7E0"/>
<text id="&#208;&#178;&#209;&#133;&#208;&#190;&#208;&#180;" fill="black" style="white-space: pre" xml:space="preserve" font-family="Montserrat" font-size="14" font-weight="600" letter-spacing="0em"><tspan x="539" y="191.519">&#x432;&#x445;&#x43e;&#x434;</tspan></text>
<text id="WC" fill="black" style="white-space: pre" xml:space="preserve" font-family="Montserrat" font-size="10" font-weight="600" letter-spacing="0em"><tspan x="564" y="218.585">W</tspan><tspan x="564" y="230.585">C</tspan></text>
<g id="room_219">
<path id="poly" d="M260.701 208.51V155.585C260.701 153.376 262.492 151.585 264.701 151.585H267.712C269.921 151.585 271.712 149.794 271.712 147.585V132.83C271.712 130.621 273.503 128.83 275.712 128.83H310.286C312.495 128.83 314.286 130.621 314.286 132.83V151.989C314.286 154.198 312.495 155.989 310.286 155.989H302.871C300.662 155.989 298.871 157.78 298.871 159.989V208.51C298.871 210.719 297.08 212.51 294.871 212.51H264.701C262.492 212.51 260.701 210.719 260.701 208.51Z" fill="#375A6D"/>
<path id="Rectangle 493" d="M291 130L291 125L304 125L304 130L291 130Z" fill="#8FB6F9"/>
<path id="label_lock" d="M276.4 172V170.5C276.4 170.245 276.417 169.995 276.45 169.75M283.6 172V170.5C283.6 169.586 283.377 168.694 282.962 167.942C282.546 167.19 281.957 166.614 281.273 166.291C280.589 165.967 279.842 165.912 279.132 166.133C278.423 166.353 277.784 166.838 277.3 167.524M279.4 181H277.6C275.903 181 275.054 181 274.527 180.341C274 179.682 274 178.621 274 176.5C274 174.379 274 173.318 274.527 172.659C275.054 172 275.903 172 277.6 172H282.4C284.097 172 284.946 172 285.473 172.659C286 173.318 286 174.379 286 176.5C286 178.621 286 179.682 285.473 180.341C284.946 181 284.097 181 282.4 181H281.8" stroke="#EADB5A" stroke-width="0.5" stroke-linecap="round"/>
<text id="label_price" fill="white" style="white-space: pre" xml:space="preserve" font-family="Montserrat" font-size="8" letter-spacing="0em"><tspan x="264" y="178.868">&#x446;&#x435;&#x43d;&#x430;</tspan></text>
<text id="label_area" fill="white" style="white-space: pre" xml:space="preserve" font-family="Montserrat" font-size="8" letter-spacing="0em"><tspan x="262" y="207.868">00,00 &#x43c;&#xb2;</tspan></text>
<text id="label_name" fill="white" style="white-space: pre" xml:space="preserve" font-family="Montserrat" font-size="8" letter-spacing="0em"><tspan x="298" y="139.87">100</tspan></text>
<g id="label_busy">
<path id="form" d="M289.804 133.194L294.196 133.194L296.392 136.998L294.196 140.802L289.804 140.802L287.608 136.998L289.804 133.194Z" fill="url(#paint0_radial_379_1570)"/>
<text id="&#209;&#129;&#208;&#180;&#208;&#176;&#208;&#189;" fill="black" style="white-space: pre" xml:space="preserve" font-family="Montserrat" font-size="3" font-weight="500" letter-spacing="0em"><tspan x="288" y="138.074">&#x441;&#x434;&#x430;&#x43d;</tspan></text>
</g>
</g>
<g id="room_220">
<path id="poly_2" d="M343.318 212.51H304.34C302.131 212.51 300.34 210.719 300.34 208.51V161.457C300.34 159.248 302.131 157.457 304.34 157.457H311.755C313.964 157.457 315.755 155.666 315.755 153.457V132.83C315.755 130.621 317.545 128.83 319.755 128.83H343.318C345.527 128.83 347.318 130.621 347.318 132.83V208.51C347.318 210.719 345.527 212.51 343.318 212.51Z" fill="#375A6D"/>
<path id="label_lock_2" d="M321.4 172V170.5C321.4 170.245 321.417 169.995 321.45 169.75M328.6 172V170.5C328.6 169.586 328.377 168.694 327.962 167.942C327.546 167.19 326.957 166.614 326.273 166.291C325.589 165.967 324.842 165.912 324.132 166.133C323.423 166.353 322.784 166.838 322.3 167.524M324.4 181H322.6C320.903 181 320.054 181 319.527 180.341C319 179.682 319 178.621 319 176.5C319 174.379 319 173.318 319.527 172.659C320.054 172 320.903 172 322.6 172H327.4C329.097 172 329.946 172 330.473 172.659C331 173.318 331 174.379 331 176.5C331 178.621 331 179.682 330.473 180.341C329.946 181 329.097 181 327.4 181H326.8" stroke="#EADB5A" stroke-width="0.5" stroke-linecap="round"/>
<text id="label_price_2" fill="white" style="white-space: pre" xml:space="preserve" font-family="Montserrat" font-size="8" letter-spacing="0em"><tspan x="303" y="178.868">&#x446;&#x435;&#x43d;&#x430;</tspan></text>
<text id="label_area_2" fill="white" style="white-space: pre" xml:space="preserve" font-family="Montserrat" font-size="8" letter-spacing="0em"><tspan x="309" y="207.868">00,00 &#x43c;&#xb2;</tspan></text>
<text id="label_name_2" fill="white" style="white-space: pre" xml:space="preserve" font-family="Montserrat" font-size="8" letter-spacing="0em"><tspan x="331" y="139.868">100</tspan></text>
<g id="label_busy_2">
<path id="form_2" d="M322.804 133.194L327.196 133.194L329.392 136.998L327.196 140.802L322.804 140.802L320.608 136.998L322.804 133.194Z" fill="url(#paint1_radial_379_1570)"/>
<text id="&#209;&#129;&#208;&#180;&#208;&#176;&#208;&#189;_2" fill="black" style="white-space: pre" xml:space="preserve" font-family="Montserrat" font-size="3" font-weight="500" letter-spacing="0em"><tspan x="321" y="138.074">&#x441;&#x434;&#x430;&#x43d;</tspan></text>
</g>
</g>
<g id="room_221">
<path id="poly_3" d="M348.785 208.51V132.83C348.785 130.621 350.576 128.83 352.785 128.83H388.827C391.036 128.83 392.827 130.621 392.827 132.83V185.021C392.827 187.23 391.036 189.021 388.827 189.021H385.083C382.873 189.021 381.083 190.812 381.083 193.021V208.51C381.083 210.719 379.292 212.51 377.083 212.51H352.785C350.576 212.51 348.785 210.719 348.785 208.51Z" fill="#375A6D"/>
<path id="label_lock_3" d="M367.4 160V158.5C367.4 158.245 367.417 157.995 367.45 157.75M374.6 160V158.5C374.6 157.586 374.377 156.694 373.962 155.942C373.546 155.19 372.957 154.614 372.273 154.291C371.589 153.967 370.842 153.912 370.132 154.133C369.423 154.353 368.784 154.838 368.3 155.524M370.4 169H368.6C366.903 169 366.054 169 365.527 168.341C365 167.682 365 166.621 365 164.5C365 162.379 365 161.318 365.527 160.659C366.054 160 366.903 160 368.6 160H373.4C375.097 160 375.946 160 376.473 160.659C377 161.318 377 162.379 377 164.5C377 166.621 377 167.682 376.473 168.341C375.946 169 375.097 169 373.4 169H372.8" stroke="#EADB5A" stroke-width="0.5" stroke-linecap="round"/>
<text id="label_price_3" fill="white" style="white-space: pre" xml:space="preserve" font-family="Montserrat" font-size="8" letter-spacing="0em"><tspan x="352" y="165.868">&#x446;&#x435;&#x43d;&#x430;</tspan></text>
<text id="label_area_3" fill="white" style="white-space: pre" xml:space="preserve" font-family="Montserrat" font-size="8" letter-spacing="0em"><tspan x="356" y="184.868">00,00 &#x43c;&#xb2;</tspan></text>
<text id="label_name_3" fill="white" style="white-space: pre" xml:space="preserve" font-family="Montserrat" font-size="8" letter-spacing="0em"><tspan x="377" y="139.872">100</tspan></text>
<g id="label_busy_3">
<path id="form_3" d="M368.804 133.194L373.196 133.194L375.392 136.998L373.196 140.802L368.804 140.802L366.608 136.998L368.804 133.194Z" fill="url(#paint2_radial_379_1570)"/>
<text id="&#209;&#129;&#208;&#180;&#208;&#176;&#208;&#189;_3" fill="black" style="white-space: pre" xml:space="preserve" font-family="Montserrat" font-size="3" font-weight="500" letter-spacing="0em"><tspan x="367" y="138.074">&#x441;&#x434;&#x430;&#x43d;</tspan></text>
</g>
</g>
<g id="room_222">
<path id="poly_4" d="M402.37 208.51V132.83C402.37 130.621 404.161 128.83 406.37 128.83H425.529C427.738 128.83 429.529 130.621 429.529 132.83V135.107C429.529 137.316 431.32 139.107 433.529 139.107H438.742C440.951 139.107 442.742 140.897 442.742 143.107V208.51C442.742 210.719 440.951 212.51 438.742 212.51H406.37C404.161 212.51 402.37 210.719 402.37 208.51Z" fill="#375A6D"/>
<path id="label_lock_4" d="M418.4 169V167.5C418.4 167.245 418.417 166.995 418.45 166.75M425.6 169V167.5C425.6 166.586 425.377 165.694 424.962 164.942C424.546 164.19 423.957 163.614 423.273 163.291C422.589 162.967 421.842 162.912 421.132 163.133C420.423 163.353 419.784 163.838 419.3 164.524M421.4 178H419.6C417.903 178 417.054 178 416.527 177.341C416 176.682 416 175.621 416 173.5C416 171.379 416 170.318 416.527 169.659C417.054 169 417.903 169 419.6 169H424.4C426.097 169 426.946 169 427.473 169.659C428 170.318 428 171.379 428 173.5C428 175.621 428 176.682 427.473 177.341C426.946 178 426.097 178 424.4 178H423.8" stroke="#EADB5A" stroke-width="0.5" stroke-linecap="round"/>
<text id="label_price_4" fill="white" style="white-space: pre" xml:space="preserve" font-family="Montserrat" font-size="8" letter-spacing="0em"><tspan x="405" y="178.868">&#x446;&#x435;&#x43d;&#x430;</tspan></text>
<text id="label_area_4" fill="white" style="white-space: pre" xml:space="preserve" font-family="Montserrat" font-size="8" letter-spacing="0em"><tspan x="405" y="207.868">00,00 &#x43c;&#xb2;</tspan></text>
<text id="label_name_4" fill="white" style="white-space: pre" xml:space="preserve" font-family="Montserrat" font-size="8" letter-spacing="0em"><tspan x="415" y="139.872">100</tspan></text>
<g id="label_busy_4">
<path id="form_4" d="M406.804 133.194L411.196 133.194L413.392 136.998L411.196 140.802L406.804 140.802L404.608 136.998L406.804 133.194Z" fill="url(#paint3_radial_379_1570)"/>
<text id="&#209;&#129;&#208;&#180;&#208;&#176;&#208;&#189;_4" fill="black" style="white-space: pre" xml:space="preserve" font-family="Montserrat" font-size="3" font-weight="500" letter-spacing="0em"><tspan x="405" y="138.074">&#x441;&#x434;&#x430;&#x43d;</tspan></text>
</g>
</g>
<g id="room_223">
<path id="poly_5" d="M444.21 209.978V132.83C444.21 130.621 446.001 128.83 448.21 128.83H478.38C480.589 128.83 482.38 130.621 482.38 132.83V231.999C482.38 234.208 480.589 235.999 478.38 235.999H426.923C424.714 235.999 422.923 234.208 422.923 231.999V217.978C422.923 215.769 424.714 213.978 426.923 213.978H440.21C442.419 213.978 444.21 212.187 444.21 209.978Z" fill="#375A6D"/>
<path id="label_lock_5" d="M460.4 180V178.5C460.4 178.245 460.417 177.995 460.45 177.75M467.6 180V178.5C467.6 177.586 467.377 176.694 466.962 175.942C466.546 175.19 465.957 174.614 465.273 174.291C464.589 173.967 463.842 173.912 463.132 174.133C462.423 174.353 461.784 174.838 461.3 175.524M463.4 189H461.6C459.903 189 459.054 189 458.527 188.341C458 187.682 458 186.621 458 184.5C458 182.379 458 181.318 458.527 180.659C459.054 180 459.903 180 461.6 180H466.4C468.097 180 468.946 180 469.473 180.659C470 181.318 470 182.379 470 184.5C470 186.621 470 187.682 469.473 188.341C468.946 189 468.097 189 466.4 189H465.8" stroke="#EADB5A" stroke-width="0.5" stroke-linecap="round"/>
<text id="label_price_5" fill="white" style="white-space: pre" xml:space="preserve" font-family="Montserrat" font-size="8" letter-spacing="0em"><tspan x="448" y="178.868">&#x446;&#x435;&#x43d;&#x430;</tspan></text>
<text id="label_area_5" fill="white" style="white-space: pre" xml:space="preserve" font-family="Montserrat" font-size="8" letter-spacing="0em"><tspan x="429" y="230.868">00,00 &#x43c;&#xb2;</tspan></text>
<text id="label_name_5" fill="white" style="white-space: pre" xml:space="preserve" font-family="Montserrat" font-size="8" letter-spacing="0em"><tspan x="466" y="139.874">100</tspan></text>
<g id="label_busy_5">
<path id="form_5" d="M457.804 133.194L462.196 133.194L464.392 136.998L462.196 140.802L457.804 140.802L455.608 136.998L457.804 133.194Z" fill="url(#paint4_radial_379_1570)"/>
<text id="&#209;&#129;&#208;&#180;&#208;&#176;&#208;&#189;_5" fill="black" style="white-space: pre" xml:space="preserve" font-family="Montserrat" font-size="3" font-weight="500" letter-spacing="0em"><tspan x="456" y="138.074">&#x441;&#x434;&#x430;&#x43d;</tspan></text>
</g>
</g>
<g id="room_224">
<path id="poly_6" d="M525.358 235.999H487.848C485.639 235.999 483.848 234.208 483.848 231.999V132.83C483.848 130.621 485.639 128.83 487.848 128.83H525.358C527.567 128.83 529.358 130.621 529.358 132.83V231.999C529.358 234.208 527.567 235.999 525.358 235.999Z" fill="#375A6D"/>
<path id="label_lock_6" d="M503.4 180V178.5C503.4 178.245 503.417 177.995 503.45 177.75M510.6 180V178.5C510.6 177.586 510.377 176.694 509.962 175.942C509.546 175.19 508.957 174.614 508.273 174.291C507.589 173.967 506.842 173.912 506.132 174.133C505.423 174.353 504.784 174.838 504.3 175.524M506.4 189H504.6C502.903 189 502.054 189 501.527 188.341C501 187.682 501 186.621 501 184.5C501 182.379 501 181.318 501.527 180.659C502.054 180 502.903 180 504.6 180H509.4C511.097 180 511.946 180 512.473 180.659C513 181.318 513 182.379 513 184.5C513 186.621 513 187.682 512.473 188.341C511.946 189 511.097 189 509.4 189H508.8" stroke="#EADB5A" stroke-width="0.5" stroke-linecap="round"/>
<text id="label_price_6" fill="white" style="white-space: pre" xml:space="preserve" font-family="Montserrat" font-size="8" letter-spacing="0em"><tspan x="487" y="184.868">&#x446;&#x435;&#x43d;&#x430;</tspan></text>
<text id="label_area_6" fill="white" style="white-space: pre" xml:space="preserve" font-family="Montserrat" font-size="8" letter-spacing="0em"><tspan x="490" y="230.868">00,00 &#x43c;&#xb2;</tspan></text>
<text id="label_name_6" fill="white" style="white-space: pre" xml:space="preserve" font-family="Montserrat" font-size="8" letter-spacing="0em"><tspan x="513" y="139.878">100</tspan></text>
<g id="label_busy_6">
<path id="form_6" d="M504.804 133.194L509.196 133.194L511.392 136.998L509.196 140.802L504.804 140.802L502.608 136.998L504.804 133.194Z" fill="url(#paint5_radial_379_1570)"/>
<text id="&#209;&#129;&#208;&#180;&#208;&#176;&#208;&#189;_6" fill="black" style="white-space: pre" xml:space="preserve" font-family="Montserrat" font-size="3" font-weight="500" letter-spacing="0em"><tspan x="503" y="138.074">&#x441;&#x434;&#x430;&#x43d;</tspan></text>
</g>
</g>
<g id="room_101">
<path id="poly_7" d="M538.166 110.074V134.372C538.166 136.581 539.957 138.372 542.166 138.372H543C545.209 138.372 547 140.199 547 142.409C547 144.618 548.791 146.445 551 146.445H558C560.209 146.445 562 144.618 562 142.409C562 140.199 563.791 138.372 566 138.372H606.798C608.622 138.372 610.101 139.851 610.101 141.675C610.101 143.499 611.58 144.978 613.404 144.978H622.947C624.771 144.978 626.25 143.499 626.25 141.675C626.25 139.851 627.729 138.372 629.553 138.372H684.643C686.852 138.372 688.643 140.2 688.643 142.409C688.643 144.618 690.434 146.446 692.643 146.446H701.525C703.735 146.446 705.525 144.655 705.525 142.446V110.074C705.525 107.865 703.735 106.074 701.525 106.074H661.079C658.87 106.074 657.079 104.246 657.079 102.037C657.079 99.828 655.288 98 653.079 98H649.335C647.126 98 645.335 99.7909 645.335 102V103.505C645.335 104.924 644.185 106.074 642.766 106.074C641.347 106.074 640.197 104.924 640.197 103.505V103.138C640.197 101.517 638.882 100.202 637.26 100.202H626.25C624.628 100.202 623.314 101.517 623.314 103.138C623.314 104.76 621.999 106.074 620.378 106.074H615.239C613.618 106.074 612.303 104.76 612.303 103.138C612.303 101.517 610.989 100.202 609.367 100.202H582.208C580.586 100.202 579.272 101.517 579.272 103.138C579.272 104.76 577.957 106.074 576.336 106.074H542.166C539.957 106.074 538.166 107.865 538.166 110.074Z" fill="#375A6D"/>
<path id="label_lock_7" d="M618.4 122V120.5C618.4 120.245 618.417 119.995 618.45 119.75M625.6 122V120.5C625.6 119.586 625.377 118.694 624.962 117.942C624.546 117.19 623.957 116.614 623.273 116.291C622.589 115.967 621.842 115.912 621.132 116.133C620.423 116.353 619.784 116.838 619.3 117.524M621.4 131H619.6C617.903 131 617.054 131 616.527 130.341C616 129.682 616 128.621 616 126.5C616 124.379 616 123.318 616.527 122.659C617.054 122 617.903 122 619.6 122H624.4C626.097 122 626.946 122 627.473 122.659C628 123.318 628 124.379 628 126.5C628 128.621 628 129.682 627.473 130.341C626.946 131 626.097 131 624.4 131H623.8" stroke="#EADB5A" stroke-width="0.5" stroke-linecap="round"/>
<text id="label_price_7" fill="white" style="white-space: pre" xml:space="preserve" font-family="Montserrat" font-size="8" letter-spacing="0em"><tspan x="555" y="124.868">&#x446;&#x435;&#x43d;&#x430;</tspan></text>
<text id="label_area_7" fill="white" style="white-space: pre" xml:space="preserve" font-family="Montserrat" font-size="8" letter-spacing="0em"><tspan x="668" y="133.868">00,00 &#x43c;&#xb2;</tspan></text>
<text id="label_name_7" fill="white" style="white-space: pre" xml:space="preserve" font-family="Montserrat" font-size="8" letter-spacing="0em"><tspan x="689" y="116.882">100</tspan></text>
<g id="label_busy_7">
<path id="form_7" d="M680.804 110.194L685.196 110.194L687.392 113.998L685.196 117.802L680.804 117.802L678.608 113.998L680.804 110.194Z" fill="url(#paint6_radial_379_1570)"/>
<text id="&#209;&#129;&#208;&#180;&#208;&#176;&#208;&#189;_7" fill="black" style="white-space: pre" xml:space="preserve" font-family="Montserrat" font-size="3" font-weight="500" letter-spacing="0em"><tspan x="679" y="115.074">&#x441;&#x434;&#x430;&#x43d;</tspan></text>
</g>
</g>
<g id="room_201">
<path id="poly_8" d="M719.068 235.264H772.727C774.936 235.264 776.727 233.474 776.727 231.264V217.978C776.727 215.768 774.936 213.978 772.727 213.978H760.908C758.699 213.978 756.908 212.187 756.908 209.978V132.096C756.908 129.887 755.117 128.096 752.908 128.096H722.004C719.795 128.096 718.004 129.887 718.004 132.096V147.181C718.004 147.991 717.347 148.649 716.536 148.649C715.726 148.649 715.068 149.306 715.068 150.117V231.264C715.068 233.474 716.859 235.264 719.068 235.264Z" fill="#375A6D"/>
<path id="label_lock_8" d="M735.4 181V179.5C735.4 179.245 735.417 178.995 735.45 178.75M742.6 181V179.5C742.6 178.586 742.377 177.694 741.962 176.942C741.546 176.19 740.957 175.614 740.273 175.291C739.589 174.967 738.842 174.912 738.132 175.133C737.423 175.353 736.784 175.838 736.3 176.524M738.4 190H736.6C734.903 190 734.054 190 733.527 189.341C733 188.682 733 187.621 733 185.5C733 183.379 733 182.318 733.527 181.659C734.054 181 734.903 181 736.6 181H741.4C743.097 181 743.946 181 744.473 181.659C745 182.318 745 183.379 745 185.5C745 187.621 745 188.682 744.473 189.341C743.946 190 743.097 190 741.4 190H740.8" stroke="#EADB5A" stroke-width="0.5" stroke-linecap="round"/>
<text id="label_price_8" fill="white" style="white-space: pre" xml:space="preserve" font-family="Montserrat" font-size="8" letter-spacing="0em"><tspan x="717" y="186.868">&#x446;&#x435;&#x43d;&#x430;</tspan></text>
<text id="label_area_8" fill="white" style="white-space: pre" xml:space="preserve" font-family="Montserrat" font-size="8" letter-spacing="0em"><tspan x="738" y="230.868">00,00 &#x43c;&#xb2;</tspan></text>
<text id="label_name_8" fill="white" style="white-space: pre" xml:space="preserve" font-family="Montserrat" font-size="8" letter-spacing="0em"><tspan x="740" y="138.886">100</tspan></text>
<g id="label_busy_8">
<path id="form_8" d="M731.804 132.194L736.196 132.194L738.392 135.998L736.196 139.802L731.804 139.802L729.608 135.998L731.804 132.194Z" fill="url(#paint7_radial_379_1570)"/>
<text id="&#209;&#129;&#208;&#180;&#208;&#176;&#208;&#189;_8" fill="black" style="white-space: pre" xml:space="preserve" font-family="Montserrat" font-size="3" font-weight="500" letter-spacing="0em"><tspan x="730" y="137.074">&#x441;&#x434;&#x430;&#x43d;</tspan></text>
</g>
</g>
<g id="room_202">
<path id="poly_9" d="M758.376 208.509V132.096C758.376 129.887 760.167 128.096 762.376 128.096H796.95C799.159 128.096 800.95 129.887 800.95 132.096V208.509C800.95 210.719 799.159 212.509 796.95 212.509H762.376C760.167 212.509 758.376 210.719 758.376 208.509Z" fill="#375A6D"/>
<path id="label_lock_9" d="M776.4 169V167.5C776.4 167.245 776.417 166.995 776.45 166.75M783.6 169V167.5C783.6 166.586 783.377 165.694 782.962 164.942C782.546 164.19 781.957 163.614 781.273 163.291C780.589 162.967 779.842 162.912 779.132 163.133C778.423 163.353 777.784 163.838 777.3 164.524M779.4 178H777.6C775.903 178 775.054 178 774.527 177.341C774 176.682 774 175.621 774 173.5C774 171.379 774 170.318 774.527 169.659C775.054 169 775.903 169 777.6 169H782.4C784.097 169 784.946 169 785.473 169.659C786 170.318 786 171.379 786 173.5C786 175.621 786 176.682 785.473 177.341C784.946 178 784.097 178 782.4 178H781.8" stroke="#EADB5A" stroke-width="0.5" stroke-linecap="round"/>
<text id="label_price_9" fill="white" style="white-space: pre" xml:space="preserve" font-family="Montserrat" font-size="8" letter-spacing="0em"><tspan x="761" y="171.868">&#x446;&#x435;&#x43d;&#x430;</tspan></text>
<text id="label_area_9" fill="white" style="white-space: pre" xml:space="preserve" font-family="Montserrat" font-size="8" letter-spacing="0em"><tspan x="763" y="207.868">00,00 &#x43c;&#xb2;</tspan></text>
<text id="label_name_9" fill="white" style="white-space: pre" xml:space="preserve" font-family="Montserrat" font-size="8" letter-spacing="0em"><tspan x="784" y="138.886">100</tspan></text>
<g id="label_busy_9">
<path id="form_9" d="M775.804 132.193L780.196 132.193L782.392 135.996L780.196 139.8L775.804 139.8L773.608 135.996L775.804 132.193Z" fill="url(#paint8_radial_379_1570)"/>
<text id="&#209;&#129;&#208;&#180;&#208;&#176;&#208;&#189;_9" fill="black" style="white-space: pre" xml:space="preserve" font-family="Montserrat" font-size="3" font-weight="500" letter-spacing="0em"><tspan x="774" y="137.072">&#x441;&#x434;&#x430;&#x43d;</tspan></text>
</g>
</g>
<g id="room_203">
<path id="poly_10" d="M840.992 212.509H806.418C804.209 212.509 802.418 210.719 802.418 208.509V132.096C802.418 129.887 804.209 128.096 806.418 128.096H840.992C843.201 128.096 844.992 129.887 844.992 132.096V208.509C844.992 210.719 843.201 212.509 840.992 212.509Z" fill="#375A6D"/>
<path id="label_lock_10" d="M819.4 169V167.5C819.4 167.245 819.417 166.995 819.45 166.75M826.6 169V167.5C826.6 166.586 826.377 165.694 825.962 164.942C825.546 164.19 824.957 163.614 824.273 163.291C823.589 162.967 822.842 162.912 822.132 163.133C821.423 163.353 820.784 163.838 820.3 164.524M822.4 178H820.6C818.903 178 818.054 178 817.527 177.341C817 176.682 817 175.621 817 173.5C817 171.379 817 170.318 817.527 169.659C818.054 169 818.903 169 820.6 169H825.4C827.097 169 827.946 169 828.473 169.659C829 170.318 829 171.379 829 173.5C829 175.621 829 176.682 828.473 177.341C827.946 178 827.097 178 825.4 178H824.8" stroke="#EADB5A" stroke-width="0.5" stroke-linecap="round"/>
<text id="label_price_10" fill="white" style="white-space: pre" xml:space="preserve" font-family="Montserrat" font-size="8" letter-spacing="0em"><tspan x="805" y="171.868">&#x446;&#x435;&#x43d;&#x430;</tspan></text>
<text id="label_area_10" fill="white" style="white-space: pre" xml:space="preserve" font-family="Montserrat" font-size="8" letter-spacing="0em"><tspan x="807" y="207.868">00,00 &#x43c;&#xb2;</tspan></text>
<text id="label_name_10" fill="white" style="white-space: pre" xml:space="preserve" font-family="Montserrat" font-size="8" letter-spacing="0em"><tspan x="828" y="138.888">100</tspan></text>
<g id="label_busy_10">
<path id="form_10" d="M819.804 132.194L824.196 132.194L826.392 135.998L824.196 139.802L819.804 139.802L817.608 135.998L819.804 132.194Z" fill="url(#paint9_radial_379_1570)"/>
<text id="&#209;&#129;&#208;&#180;&#208;&#176;&#208;&#189;_10" fill="black" style="white-space: pre" xml:space="preserve" font-family="Montserrat" font-size="3" font-weight="500" letter-spacing="0em"><tspan x="818" y="137.076">&#x441;&#x434;&#x430;&#x43d;</tspan></text>
</g>
</g>
<g id="room_204">
<path id="poly_11" d="M853.066 132.096V208.509C853.066 210.719 854.857 212.509 857.066 212.509H890.906C893.115 212.509 894.906 210.719 894.906 208.509V132.096C894.906 129.887 893.115 128.096 890.906 128.096H857.066C854.857 128.096 853.066 129.887 853.066 132.096Z" fill="#375A6D"/>
<path id="label_lock_11" d="M870.4 169V167.5C870.4 167.245 870.417 166.995 870.45 166.75M877.6 169V167.5C877.6 166.586 877.377 165.694 876.962 164.942C876.546 164.19 875.957 163.614 875.273 163.291C874.589 162.967 873.842 162.912 873.132 163.133C872.423 163.353 871.784 163.838 871.3 164.524M873.4 178H871.6C869.903 178 869.054 178 868.527 177.341C868 176.682 868 175.621 868 173.5C868 171.379 868 170.318 868.527 169.659C869.054 169 869.903 169 871.6 169H876.4C878.097 169 878.946 169 879.473 169.659C880 170.318 880 171.379 880 173.5C880 175.621 880 176.682 879.473 177.341C878.946 178 878.097 178 876.4 178H875.8" stroke="#EADB5A" stroke-width="0.5" stroke-linecap="round"/>
<text id="label_price_11" fill="white" style="white-space: pre" xml:space="preserve" font-family="Montserrat" font-size="8" letter-spacing="0em"><tspan x="856" y="171.868">&#x446;&#x435;&#x43d;&#x430;</tspan></text>
<text id="label_area_11" fill="white" style="white-space: pre" xml:space="preserve" font-family="Montserrat" font-size="8" letter-spacing="0em"><tspan x="857" y="207.868">00,00 &#x43c;&#xb2;</tspan></text>
<text id="label_name_11" fill="white" style="white-space: pre" xml:space="preserve" font-family="Montserrat" font-size="8" letter-spacing="0em"><tspan x="878" y="138.888">100</tspan></text>
<g id="label_busy_11">
<path id="form_11" d="M869.804 132.196L874.196 132.196L876.392 136L874.196 139.804L869.804 139.804L867.608 136L869.804 132.196Z" fill="url(#paint10_radial_379_1570)"/>
<text id="&#209;&#129;&#208;&#180;&#208;&#176;&#208;&#189;_11" fill="black" style="white-space: pre" xml:space="preserve" font-family="Montserrat" font-size="3" font-weight="500" letter-spacing="0em"><tspan x="868" y="137.076">&#x441;&#x434;&#x430;&#x43d;</tspan></text>
</g>
</g>
<g id="room_205">
<path id="poly_12" d="M896.374 132.082V208.527C896.374 210.736 898.165 212.509 900.374 212.509H932.746C934.955 212.509 936.746 210.719 936.746 208.509V132.096C936.746 129.887 934.955 128.096 932.746 128.096H900.374C898.165 128.096 896.374 129.873 896.374 132.082Z" fill="#375A6D"/>
<path id="label_lock_12" d="M913.4 169V167.5C913.4 167.245 913.417 166.995 913.45 166.75M920.6 169V167.5C920.6 166.586 920.377 165.694 919.962 164.942C919.546 164.19 918.957 163.614 918.273 163.291C917.589 162.967 916.842 162.912 916.132 163.133C915.423 163.353 914.784 163.838 914.3 164.524M916.4 178H914.6C912.903 178 912.054 178 911.527 177.341C911 176.682 911 175.621 911 173.5C911 171.379 911 170.318 911.527 169.659C912.054 169 912.903 169 914.6 169H919.4C921.097 169 921.946 169 922.473 169.659C923 170.318 923 171.379 923 173.5C923 175.621 923 176.682 922.473 177.341C921.946 178 921.097 178 919.4 178H918.8" stroke="#EADB5A" stroke-width="0.5" stroke-linecap="round"/>
<text id="label_price_12" fill="white" style="white-space: pre" xml:space="preserve" font-family="Montserrat" font-size="8" letter-spacing="0em"><tspan x="899" y="171.868">&#x446;&#x435;&#x43d;&#x430;</tspan></text>
<text id="label_area_12" fill="white" style="white-space: pre" xml:space="preserve" font-family="Montserrat" font-size="8" letter-spacing="0em"><tspan x="899" y="207.868">00,00 &#x43c;&#xb2;</tspan></text>
<text id="label_name_12" fill="white" style="white-space: pre" xml:space="preserve" font-family="Montserrat" font-size="8" letter-spacing="0em"><tspan x="920" y="138.888">100</tspan></text>
<g id="label_busy_12">
<path id="form_12" d="M911.804 132.194L916.196 132.194L918.392 135.998L916.196 139.802L911.804 139.802L909.608 135.998L911.804 132.194Z" fill="url(#paint11_radial_379_1570)"/>
<text id="&#209;&#129;&#208;&#180;&#208;&#176;&#208;&#189;_12" fill="black" style="white-space: pre" xml:space="preserve" font-family="Montserrat" font-size="3" font-weight="500" letter-spacing="0em"><tspan x="910" y="137.076">&#x441;&#x434;&#x430;&#x43d;</tspan></text>
</g>
</g>
<g id="room_206">
<path id="poly_13" d="M938.214 132.096V208.509C938.214 210.719 940.005 212.509 942.214 212.509H980.458C982.667 212.509 984.458 210.719 984.458 208.509V152.649C984.458 150.439 982.63 148.649 980.421 148.649C978.212 148.649 976.384 146.858 976.384 144.649V132.096C976.384 129.887 974.593 128.096 972.384 128.096H942.214C940.005 128.096 938.214 129.887 938.214 132.096Z" fill="#375A6D"/>
<path id="label_lock_13" d="M955.4 169V167.5C955.4 167.245 955.417 166.995 955.45 166.75M962.6 169V167.5C962.6 166.586 962.377 165.694 961.962 164.942C961.546 164.19 960.957 163.614 960.273 163.291C959.589 162.967 958.842 162.912 958.132 163.133C957.423 163.353 956.784 163.838 956.3 164.524M958.4 178H956.6C954.903 178 954.054 178 953.527 177.341C953 176.682 953 175.621 953 173.5C953 171.379 953 170.318 953.527 169.659C954.054 169 954.903 169 956.6 169H961.4C963.097 169 963.946 169 964.473 169.659C965 170.318 965 171.379 965 173.5C965 175.621 965 176.682 964.473 177.341C963.946 178 963.097 178 961.4 178H960.8" stroke="#EADB5A" stroke-width="0.5" stroke-linecap="round"/>
<text id="label_price_13" fill="white" style="white-space: pre" xml:space="preserve" font-family="Montserrat" font-size="8" letter-spacing="0em"><tspan x="940" y="171.868">&#x446;&#x435;&#x43d;&#x430;</tspan></text>
<text id="label_area_13" fill="white" style="white-space: pre" xml:space="preserve" font-family="Montserrat" font-size="8" letter-spacing="0em"><tspan x="947" y="207.868">00,00 &#x43c;&#xb2;</tspan></text>
<text id="label_name_13" fill="white" style="white-space: pre" xml:space="preserve" font-family="Montserrat" font-size="8" letter-spacing="0em"><tspan x="959" y="138.888">100</tspan></text>
<g id="label_busy_13">
<path id="form_13" d="M950.804 132.196L955.196 132.196L957.392 136L955.196 139.804L950.804 139.804L948.608 136L950.804 132.196Z" fill="url(#paint12_radial_379_1570)"/>
<text id="&#209;&#129;&#208;&#180;&#208;&#176;&#208;&#189;_13" fill="black" style="white-space: pre" xml:space="preserve" font-family="Montserrat" font-size="3" font-weight="500" letter-spacing="0em"><tspan x="949" y="137.076">&#x441;&#x434;&#x430;&#x43d;</tspan></text>
</g>
</g>
<g id="room_207">
<path id="poly_14" d="M958.767 217.977V231.264C958.767 233.473 960.557 235.264 962.767 235.264H1024.5C1026.71 235.264 1028.5 233.473 1028.5 231.264V152.648C1028.5 150.439 1026.71 148.648 1024.5 148.648H989.926C987.717 148.648 985.926 150.439 985.926 152.648V209.977C985.926 212.187 984.135 213.977 981.926 213.977H962.767C960.557 213.977 958.767 215.768 958.767 217.977Z" fill="#375A6D"/>
<path id="label_lock_14" d="M1010.4 191V189.5C1010.4 189.245 1010.42 188.995 1010.45 188.75M1017.6 191V189.5C1017.6 188.586 1017.38 187.694 1016.96 186.942C1016.55 186.19 1015.96 185.614 1015.27 185.291C1014.59 184.967 1013.84 184.912 1013.13 185.133C1012.42 185.353 1011.78 185.838 1011.3 186.524M1013.4 200H1011.6C1009.9 200 1009.05 200 1008.53 199.341C1008 198.682 1008 197.621 1008 195.5C1008 193.379 1008 192.318 1008.53 191.659C1009.05 191 1009.9 191 1011.6 191H1016.4C1018.1 191 1018.95 191 1019.47 191.659C1020 192.318 1020 193.379 1020 195.5C1020 197.621 1020 198.682 1019.47 199.341C1018.95 200 1018.1 200 1016.4 200H1015.8" stroke="#EADB5A" stroke-width="0.5" stroke-linecap="round"/>
<text id="label_price_14" fill="white" style="white-space: pre" xml:space="preserve" font-family="Montserrat" font-size="8" letter-spacing="0em"><tspan x="988" y="186.868">&#x446;&#x435;&#x43d;&#x430;</tspan></text>
<text id="label_area_14" fill="white" style="white-space: pre" xml:space="preserve" font-family="Montserrat" font-size="8" letter-spacing="0em"><tspan x="991" y="230.868">00,00 &#x43c;&#xb2;</tspan></text>
<text id="label_name_14" fill="white" style="white-space: pre" xml:space="preserve" font-family="Montserrat" font-size="8" letter-spacing="0em"><tspan x="1012" y="158.889">100</tspan></text>
<g id="label_busy_14">
<path id="form_14" d="M1003.8 152.196L1008.2 152.196L1010.39 156L1008.2 159.804L1003.8 159.804L1001.61 156L1003.8 152.196Z" fill="url(#paint13_radial_379_1570)"/>
<text id="&#209;&#129;&#208;&#180;&#208;&#176;&#208;&#189;_14" fill="black" style="white-space: pre" xml:space="preserve" font-family="Montserrat" font-size="3" font-weight="500" letter-spacing="0em"><tspan x="1002" y="157.076">&#x441;&#x434;&#x430;&#x43d;</tspan></text>
</g>
</g>
<g id="room_208">
<path id="poly_15" d="M804.95 246.275H902.651C904.86 246.275 906.651 248.066 906.651 250.275V328.891C906.651 331.1 904.86 332.891 902.651 332.891H866.609C864.4 332.891 862.609 331.1 862.609 328.891V281.839C862.609 279.63 860.818 277.839 858.609 277.839H810.888C809.459 277.839 808.138 277.076 807.424 275.839L801.486 265.554C801.135 264.946 800.95 264.257 800.95 263.554V250.275C800.95 248.066 802.741 246.275 804.95 246.275Z" fill="#375A6D"/>
<path id="label_lock_15" d="M876.4 281V279.5C876.4 279.245 876.417 278.995 876.45 278.75M883.6 281V279.5C883.6 278.586 883.377 277.694 882.962 276.942C882.546 276.19 881.957 275.614 881.273 275.291C880.589 274.967 879.842 274.912 879.132 275.133C878.423 275.353 877.784 275.838 877.3 276.524M879.4 290H877.6C875.903 290 875.054 290 874.527 289.341C874 288.682 874 287.621 874 285.5C874 283.379 874 282.318 874.527 281.659C875.054 281 875.903 281 877.6 281H882.4C884.097 281 884.946 281 885.473 281.659C886 282.318 886 283.379 886 285.5C886 287.621 886 288.682 885.473 289.341C884.946 290 884.097 290 882.4 290H881.8" stroke="#EADB5A" stroke-width="0.5" stroke-linecap="round"/>
<text id="label_price_15" fill="white" style="white-space: pre" xml:space="preserve" font-family="Montserrat" font-size="8" letter-spacing="0em"><tspan x="811" y="271.868">&#x446;&#x435;&#x43d;&#x430;</tspan></text>
<text id="label_area_15" fill="white" style="white-space: pre" xml:space="preserve" font-family="Montserrat" font-size="8" letter-spacing="0em"><tspan x="869" y="326.868">00,00 &#x43c;&#xb2;</tspan></text>
<text id="label_name_15" fill="white" style="white-space: pre" xml:space="preserve" font-family="Montserrat" font-size="8" letter-spacing="0em"><tspan x="890" y="256.889">100</tspan></text>
<g id="label_busy_15">
<path id="form_15" d="M881.804 250.196L886.196 250.196L888.392 254L886.196 257.804L881.804 257.804L879.608 254L881.804 250.196Z" fill="url(#paint14_radial_379_1570)"/>
<text id="&#209;&#129;&#208;&#180;&#208;&#176;&#208;&#189;_15" fill="black" style="white-space: pre" xml:space="preserve" font-family="Montserrat" font-size="3" font-weight="500" letter-spacing="0em"><tspan x="880" y="255.076">&#x441;&#x434;&#x430;&#x43d;</tspan></text>
</g>
</g>
<g id="room_209">
<path id="poly_16" d="M861.141 283.306V328.891C861.141 331.1 859.35 332.891 857.141 332.891H793.95C791.741 332.891 789.95 331.1 789.95 328.891V287.718C789.95 287.016 789.765 286.326 789.414 285.718L785.333 278.649C784.228 276.736 784.884 274.29 786.797 273.185L796.252 267.727C798.165 266.622 800.612 267.277 801.716 269.191L806.402 277.306C807.116 278.544 808.437 279.306 809.866 279.306H857.141C859.35 279.306 861.141 281.097 861.141 283.306Z" fill="#375A6D"/>
<path id="label_lock_16" d="M820.4 301V299.5C820.4 299.245 820.417 298.995 820.45 298.75M827.6 301V299.5C827.6 298.586 827.377 297.694 826.962 296.942C826.546 296.19 825.957 295.614 825.273 295.291C824.589 294.967 823.842 294.912 823.132 295.133C822.423 295.353 821.784 295.838 821.3 296.524M823.4 310H821.6C819.903 310 819.054 310 818.527 309.341C818 308.682 818 307.621 818 305.5C818 303.379 818 302.318 818.527 301.659C819.054 301 819.903 301 821.6 301H826.4C828.097 301 828.946 301 829.473 301.659C830 302.318 830 303.379 830 305.5C830 307.621 830 308.682 829.473 309.341C828.946 310 828.097 310 826.4 310H825.8" stroke="#EADB5A" stroke-width="0.5" stroke-linecap="round"/>
<text id="label_price_16" fill="white" style="white-space: pre" xml:space="preserve" font-family="Montserrat" font-size="8" letter-spacing="0em"><tspan x="793" y="304.868">&#x446;&#x435;&#x43d;&#x430;</tspan></text>
<text id="label_area_16" fill="white" style="white-space: pre" xml:space="preserve" font-family="Montserrat" font-size="8" letter-spacing="0em"><tspan x="823" y="326.868">00,00 &#x43c;&#xb2;</tspan></text>
<text id="label_name_16" fill="white" style="white-space: pre" xml:space="preserve" font-family="Montserrat" font-size="8" letter-spacing="0em"><tspan x="844" y="289.889">100</tspan></text>
<g id="label_busy_16">
<path id="form_16" d="M835.804 283.196L840.196 283.196L842.392 287L840.196 290.804L835.804 290.804L833.608 287L835.804 283.196Z" fill="url(#paint15_radial_379_1570)"/>
<text id="&#209;&#129;&#208;&#180;&#208;&#176;&#208;&#189;_16" fill="black" style="white-space: pre" xml:space="preserve" font-family="Montserrat" font-size="3" font-weight="500" letter-spacing="0em"><tspan x="834" y="288.076">&#x441;&#x434;&#x430;&#x43d;</tspan></text>
</g>
</g>
<g id="room_210">
<path id="poly_17" d="M788.472 288.453V328.891C788.472 331.1 786.681 332.891 784.472 332.891H732.874C731.813 332.891 730.796 332.47 730.046 331.72L718.442 320.116C717.692 319.366 717.271 318.349 717.271 317.288V279.637C717.271 277.428 719.061 275.637 721.271 275.637H779.382C780.811 275.637 782.131 276.399 782.846 277.637L787.936 286.453C788.287 287.061 788.472 287.751 788.472 288.453Z" fill="#375A6D"/>
<path id="label_lock_17" d="M749.4 300V298.5C749.4 298.245 749.417 297.995 749.45 297.75M756.6 300V298.5C756.6 297.586 756.377 296.694 755.962 295.942C755.546 295.19 754.957 294.614 754.273 294.291C753.589 293.967 752.842 293.912 752.132 294.133C751.423 294.353 750.784 294.838 750.3 295.524M752.4 309H750.6C748.903 309 748.054 309 747.527 308.341C747 307.682 747 306.621 747 304.5C747 302.379 747 301.318 747.527 300.659C748.054 300 748.903 300 750.6 300H755.4C757.097 300 757.946 300 758.473 300.659C759 301.318 759 302.379 759 304.5C759 306.621 759 307.682 758.473 308.341C757.946 309 757.097 309 755.4 309H754.8" stroke="#EADB5A" stroke-width="0.5" stroke-linecap="round"/>
<text id="label_price_17" fill="white" style="white-space: pre" xml:space="preserve" font-family="Montserrat" font-size="8" letter-spacing="0em"><tspan x="722" y="304.868">&#x446;&#x435;&#x43d;&#x430;</tspan></text>
<text id="label_area_17" fill="white" style="white-space: pre" xml:space="preserve" font-family="Montserrat" font-size="8" letter-spacing="0em"><tspan x="750" y="326.868">00,00 &#x43c;&#xb2;</tspan></text>
<text id="label_name_17" fill="white" style="white-space: pre" xml:space="preserve" font-family="Montserrat" font-size="8" letter-spacing="0em"><tspan x="767" y="289.891">100</tspan></text>
<g id="label_busy_17">
<path id="form_17" d="M758.804 283.194L763.196 283.194L765.392 286.998L763.196 290.802L758.804 290.802L756.608 286.998L758.804 283.194Z" fill="url(#paint16_radial_379_1570)"/>
<text id="&#209;&#129;&#208;&#180;&#208;&#176;&#208;&#189;_17" fill="black" style="white-space: pre" xml:space="preserve" font-family="Montserrat" font-size="3" font-weight="500" letter-spacing="0em"><tspan x="757" y="288.074">&#x441;&#x434;&#x430;&#x43d;</tspan></text>
</g>
</g>
<g id="room_211">
<path id="poly_18" d="M715.802 318.022V279.637C715.802 277.428 714.011 275.637 711.802 275.637H684.568C682.359 275.637 680.568 277.428 680.568 279.637V351.962C680.568 353.186 681.56 354.178 682.784 354.178C684.008 354.178 685 355.17 685 356.394V364.476C685 365.7 684.008 366.692 682.784 366.692C681.56 366.692 680.568 367.684 680.568 368.908V381.742C680.568 383.951 682.359 385.742 684.568 385.742H741.163C743.372 385.742 745.163 383.951 745.163 381.742V370.657C745.163 368.448 743.372 366.657 741.163 366.657H721.27C719.061 366.657 717.27 364.866 717.27 362.657V358.178C717.27 355.969 719.061 354.178 721.27 354.178H741.163C743.372 354.178 745.163 352.387 745.163 350.178V338.359C745.163 336.15 743.372 334.359 741.163 334.359H732.139C731.079 334.359 730.061 333.938 729.311 333.188L716.974 320.85C716.223 320.1 715.802 319.083 715.802 318.022Z" fill="#375A6D"/>
<path id="label_lock_18" d="M695.4 323V321.5C695.4 321.245 695.417 320.995 695.45 320.75M702.6 323V321.5C702.6 320.586 702.377 319.694 701.962 318.942C701.546 318.19 700.957 317.614 700.273 317.291C699.589 316.967 698.842 316.912 698.132 317.133C697.423 317.353 696.784 317.838 696.3 318.524M698.4 332H696.6C694.903 332 694.054 332 693.527 331.341C693 330.682 693 329.621 693 327.5C693 325.379 693 324.318 693.527 323.659C694.054 323 694.903 323 696.6 323H701.4C703.097 323 703.946 323 704.473 323.659C705 324.318 705 325.379 705 327.5C705 329.621 705 330.682 704.473 331.341C703.946 332 703.097 332 701.4 332H700.8" stroke="#EADB5A" stroke-width="0.5" stroke-linecap="round"/>
<text id="label_price_18" fill="white" style="white-space: pre" xml:space="preserve" font-family="Montserrat" font-size="8" letter-spacing="0em"><tspan x="684" y="343.868">&#x446;&#x435;&#x43d;&#x430;</tspan></text>
<text id="label_area_18" fill="white" style="white-space: pre" xml:space="preserve" font-family="Montserrat" font-size="8" letter-spacing="0em"><tspan x="706" y="379.868">00,00 &#x43c;&#xb2;</tspan></text>
<text id="label_name_18" fill="white" style="white-space: pre" xml:space="preserve" font-family="Montserrat" font-size="8" letter-spacing="0em"><tspan x="699" y="285.893">100</tspan></text>
<g id="label_busy_18">
<path id="form_18" d="M690.804 279.194L695.196 279.194L697.392 282.998L695.196 286.802L690.804 286.802L688.608 282.998L690.804 279.194Z" fill="url(#paint17_radial_379_1570)"/>
<text id="&#209;&#129;&#208;&#180;&#208;&#176;&#208;&#189;_18" fill="black" style="white-space: pre" xml:space="preserve" font-family="Montserrat" font-size="3" font-weight="500" letter-spacing="0em"><tspan x="689" y="284.076">&#x441;&#x434;&#x430;&#x43d;</tspan></text>
</g>
</g>
<g id="room_212">
<path id="poly_19" d="M679.1 350.508V279.637C679.1 277.428 677.309 275.637 675.1 275.637H637.59C635.381 275.637 633.59 277.428 633.59 279.637V350.178C633.59 352.387 635.381 354.178 637.59 354.178H643.537C645.746 354.178 647.537 355.969 647.537 358.178V362.657C647.537 364.866 645.746 366.657 643.537 366.657H633.92C631.711 366.657 629.92 368.448 629.92 370.657V381.742C629.92 383.951 631.711 385.742 633.92 385.742H675.1C677.309 385.742 679.1 383.951 679.1 381.742V370.327C679.1 368.3 677.457 366.657 675.43 366.657C673.403 366.657 671.76 365.014 671.76 362.987V357.848C671.76 355.821 673.403 354.178 675.43 354.178C677.457 354.178 679.1 352.535 679.1 350.508Z" fill="#375A6D"/>
<path id="label_lock_19" d="M653.4 323V321.5C653.4 321.245 653.417 320.995 653.45 320.75M660.6 323V321.5C660.6 320.586 660.377 319.694 659.962 318.942C659.546 318.19 658.957 317.614 658.273 317.291C657.589 316.967 656.842 316.912 656.132 317.133C655.423 317.353 654.784 317.838 654.3 318.524M656.4 332H654.6C652.903 332 652.054 332 651.527 331.341C651 330.682 651 329.621 651 327.5C651 325.379 651 324.318 651.527 323.659C652.054 323 652.903 323 654.6 323H659.4C661.097 323 661.946 323 662.473 323.659C663 324.318 663 325.379 663 327.5C663 329.621 663 330.682 662.473 331.341C661.946 332 661.097 332 659.4 332H658.8" stroke="#EADB5A" stroke-width="0.5" stroke-linecap="round"/>
<text id="label_price_19" fill="white" style="white-space: pre" xml:space="preserve" font-family="Montserrat" font-size="8" letter-spacing="0em"><tspan x="637" y="325.868">&#x446;&#x435;&#x43d;&#x430;</tspan></text>
<text id="label_area_19" fill="white" style="white-space: pre" xml:space="preserve" font-family="Montserrat" font-size="8" letter-spacing="0em"><tspan x="637" y="379.868">00,00 &#x43c;&#xb2;</tspan></text>
<text id="label_name_19" fill="white" style="white-space: pre" xml:space="preserve" font-family="Montserrat" font-size="8" letter-spacing="0em"><tspan x="662" y="285.893">100</tspan></text>
<g id="label_busy_19">
<path id="form_19" d="M653.804 279.194L658.196 279.194L660.392 282.998L658.196 286.802L653.804 286.802L651.608 282.998L653.804 279.194Z" fill="url(#paint18_radial_379_1570)"/>
<text id="&#209;&#129;&#208;&#180;&#208;&#176;&#208;&#189;_19" fill="black" style="white-space: pre" xml:space="preserve" font-family="Montserrat" font-size="3" font-weight="500" letter-spacing="0em"><tspan x="652" y="284.074">&#x441;&#x434;&#x430;&#x43d;</tspan></text>
</g>
</g>
<g id="room_213">
<path id="poly_20" d="M615.24 369.96V381.742C615.24 383.951 613.449 385.742 611.24 385.742H576.666C574.457 385.742 572.666 383.951 572.666 381.742V370.657C572.666 368.448 574.457 366.657 576.666 366.657H579.677C581.886 366.657 583.677 364.866 583.677 362.657V358.178C583.677 355.969 581.886 354.178 579.677 354.178H576.666C574.457 354.178 572.666 352.387 572.666 350.178V279.637C572.666 277.428 574.457 275.637 576.666 275.637H620.782C622.991 275.637 624.782 277.428 624.782 279.637V350.178C624.782 352.387 622.991 354.178 620.782 354.178H612.634C610.424 354.178 608.634 355.969 608.634 358.178V363.354C608.634 365.178 610.112 366.657 611.937 366.657C613.761 366.657 615.24 368.136 615.24 369.96Z" fill="#375A6D"/>
<path id="label_lock_20" d="M594.4 323V321.5C594.4 321.245 594.417 320.995 594.45 320.75M601.6 323V321.5C601.6 320.586 601.377 319.694 600.962 318.942C600.546 318.19 599.957 317.614 599.273 317.291C598.589 316.967 597.842 316.912 597.132 317.133C596.423 317.353 595.784 317.838 595.3 318.524M597.4 332H595.6C593.903 332 593.054 332 592.527 331.341C592 330.682 592 329.621 592 327.5C592 325.379 592 324.318 592.527 323.659C593.054 323 593.903 323 595.6 323H600.4C602.097 323 602.946 323 603.473 323.659C604 324.318 604 325.379 604 327.5C604 329.621 604 330.682 603.473 331.341C602.946 332 602.097 332 600.4 332H599.8" stroke="#EADB5A" stroke-width="0.5" stroke-linecap="round"/>
<text id="label_price_20" fill="white" style="white-space: pre" xml:space="preserve" font-family="Montserrat" font-size="8" letter-spacing="0em"><tspan x="575" y="325.868">&#x446;&#x435;&#x43d;&#x430;</tspan></text>
<text id="label_area_20" fill="white" style="white-space: pre" xml:space="preserve" font-family="Montserrat" font-size="8" letter-spacing="0em"><tspan x="577" y="379.868">00,00 &#x43c;&#xb2;</tspan></text>
<text id="label_name_20" fill="white" style="white-space: pre" xml:space="preserve" font-family="Montserrat" font-size="8" letter-spacing="0em"><tspan x="608" y="285.895">100</tspan></text>
<g id="label_busy_20">
<path id="form_20" d="M599.804 279.194L604.196 279.194L606.392 282.998L604.196 286.802L599.804 286.802L597.608 282.998L599.804 279.194Z" fill="url(#paint19_radial_379_1570)"/>
<text id="&#209;&#129;&#208;&#180;&#208;&#176;&#208;&#189;_20" fill="black" style="white-space: pre" xml:space="preserve" font-family="Montserrat" font-size="3" font-weight="500" letter-spacing="0em"><tspan x="598" y="284.076">&#x441;&#x434;&#x430;&#x43d;</tspan></text>
</g>
</g>
<g id="room_214">
<path id="poly_21" d="M571.127 279.637V381.742C571.127 383.951 569.336 385.742 567.127 385.742H512C509.791 385.742 508 383.951 508 381.742V370.657C508 368.448 509.791 366.657 512 366.657H530.425C532.634 366.657 534.425 364.866 534.425 362.657V358.178C534.425 355.969 532.634 354.178 530.425 354.178H512C509.791 354.178 508 352.387 508 350.178V340.561C508 338.352 509.791 336.561 512 336.561H516.62C517.68 336.561 518.698 336.14 519.448 335.39L528.115 326.723C528.866 325.972 529.287 324.955 529.287 323.894V279.637C529.287 277.428 531.078 275.637 533.287 275.637H567.127C569.336 275.637 571.127 277.428 571.127 279.637Z" fill="#375A6D"/>
<path id="label_lock_21" d="M544.4 323V321.5C544.4 321.245 544.417 320.995 544.45 320.75M551.6 323V321.5C551.6 320.586 551.377 319.694 550.962 318.942C550.546 318.19 549.957 317.614 549.273 317.291C548.589 316.967 547.842 316.912 547.132 317.133C546.423 317.353 545.784 317.838 545.3 318.524M547.4 332H545.6C543.903 332 543.054 332 542.527 331.341C542 330.682 542 329.621 542 327.5C542 325.379 542 324.318 542.527 323.659C543.054 323 543.903 323 545.6 323H550.4C552.097 323 552.946 323 553.473 323.659C554 324.318 554 325.379 554 327.5C554 329.621 554 330.682 553.473 331.341C552.946 332 552.097 332 550.4 332H549.8" stroke="#EADB5A" stroke-width="0.5" stroke-linecap="round"/>
<text id="label_price_21" fill="white" style="white-space: pre" xml:space="preserve" font-family="Montserrat" font-size="8" letter-spacing="0em"><tspan x="514" y="347.868">&#x446;&#x435;&#x43d;&#x430;</tspan></text>
<text id="label_area_21" fill="white" style="white-space: pre" xml:space="preserve" font-family="Montserrat" font-size="8" letter-spacing="0em"><tspan x="514" y="379.868">00,00 &#x43c;&#xb2;</tspan></text>
<text id="label_name_21" fill="white" style="white-space: pre" xml:space="preserve" font-family="Montserrat" font-size="8" letter-spacing="0em"><tspan x="554" y="285.895">100</tspan></text>
<g id="label_busy_21">
<path id="form_21" d="M545.804 279.194L550.196 279.194L552.392 282.998L550.196 286.802L545.804 286.802L543.608 282.998L545.804 279.194Z" fill="url(#paint20_radial_379_1570)"/>
<text id="&#209;&#129;&#208;&#180;&#208;&#176;&#208;&#189;_21" fill="black" style="white-space: pre" xml:space="preserve" font-family="Montserrat" font-size="3" font-weight="500" letter-spacing="0em"><tspan x="544" y="284.076">&#x441;&#x434;&#x430;&#x43d;</tspan></text>
</g>
</g>
<g id="room_215">
<path id="poly_22" d="M527.889 323.16V279.637C527.889 277.428 526.098 275.637 523.889 275.637H465.826C463.617 275.637 461.826 277.428 461.826 279.637V331.093C461.826 333.303 463.617 335.093 465.826 335.093H515.956C517.017 335.093 518.034 334.672 518.784 333.922L526.718 325.988C527.468 325.238 527.889 324.221 527.889 323.16Z" fill="#375A6D"/>
<path id="label_lock_22" d="M491.4 303V301.5C491.4 301.245 491.417 300.995 491.45 300.75M498.6 303V301.5C498.6 300.586 498.377 299.694 497.962 298.942C497.546 298.19 496.957 297.614 496.273 297.291C495.589 296.967 494.842 296.912 494.132 297.133C493.423 297.353 492.784 297.838 492.3 298.524M494.4 312H492.6C490.903 312 490.054 312 489.527 311.341C489 310.682 489 309.621 489 307.5C489 305.379 489 304.318 489.527 303.659C490.054 303 490.903 303 492.6 303H497.4C499.097 303 499.946 303 500.473 303.659C501 304.318 501 305.379 501 307.5C501 309.621 501 310.682 500.473 311.341C499.946 312 499.097 312 497.4 312H496.8" stroke="#EADB5A" stroke-width="0.5" stroke-linecap="round"/>
<text id="label_price_22" fill="white" style="white-space: pre" xml:space="preserve" font-family="Montserrat" font-size="8" letter-spacing="0em"><tspan x="464" y="306.868">&#x446;&#x435;&#x43d;&#x430;</tspan></text>
<text id="label_area_22" fill="white" style="white-space: pre" xml:space="preserve" font-family="Montserrat" font-size="8" letter-spacing="0em"><tspan x="482" y="328.868">00,00 &#x43c;&#xb2;</tspan></text>
<text id="label_name_22" fill="white" style="white-space: pre" xml:space="preserve" font-family="Montserrat" font-size="8" letter-spacing="0em"><tspan x="511" y="285.895">100</tspan></text>
<g id="label_busy_22">
<path id="form_22" d="M502.804 279.194L507.196 279.194L509.392 282.998L507.196 286.802L502.804 286.802L500.608 282.998L502.804 279.194Z" fill="url(#paint21_radial_379_1570)"/>
<text id="&#209;&#129;&#208;&#180;&#208;&#176;&#208;&#189;_22" fill="black" style="white-space: pre" xml:space="preserve" font-family="Montserrat" font-size="3" font-weight="500" letter-spacing="0em"><tspan x="501" y="284.076">&#x441;&#x434;&#x430;&#x43d;</tspan></text>
</g>
</g>
<g id="room_216">
<path id="poly_23" d="M460.358 279.637V331.093C460.358 333.303 458.567 335.093 456.358 335.093H394.625C392.416 335.093 390.625 333.303 390.625 331.093V279.637C390.625 277.428 392.416 275.637 394.625 275.637H456.358C458.567 275.637 460.358 277.428 460.358 279.637Z" fill="#375A6D"/>
<path id="label_lock_23" d="M419.4 303V301.5C419.4 301.245 419.417 300.995 419.45 300.75M426.6 303V301.5C426.6 300.586 426.377 299.694 425.962 298.942C425.546 298.19 424.957 297.614 424.273 297.291C423.589 296.967 422.842 296.912 422.132 297.133C421.423 297.353 420.784 297.838 420.3 298.524M422.4 312H420.6C418.903 312 418.054 312 417.527 311.341C417 310.682 417 309.621 417 307.5C417 305.379 417 304.318 417.527 303.659C418.054 303 418.903 303 420.6 303H425.4C427.097 303 427.946 303 428.473 303.659C429 304.318 429 305.379 429 307.5C429 309.621 429 310.682 428.473 311.341C427.946 312 427.097 312 425.4 312H424.8" stroke="#EADB5A" stroke-width="0.5" stroke-linecap="round"/>
<text id="label_price_23" fill="white" style="white-space: pre" xml:space="preserve" font-family="Montserrat" font-size="8" letter-spacing="0em"><tspan x="394" y="306.868">&#x446;&#x435;&#x43d;&#x430;</tspan></text>
<text id="label_area_23" fill="white" style="white-space: pre" xml:space="preserve" font-family="Montserrat" font-size="8" letter-spacing="0em"><tspan x="422" y="328.868">00,00 &#x43c;&#xb2;</tspan></text>
<text id="label_name_23" fill="white" style="white-space: pre" xml:space="preserve" font-family="Montserrat" font-size="8" letter-spacing="0em"><tspan x="443" y="285.895">100</tspan></text>
<g id="label_busy_23">
<path id="form_23" d="M434.804 279.194L439.196 279.194L441.392 282.998L439.196 286.802L434.804 286.802L432.608 282.998L434.804 279.194Z" fill="url(#paint22_radial_379_1570)"/>
<text id="&#209;&#129;&#208;&#180;&#208;&#176;&#208;&#189;_23" fill="black" style="white-space: pre" xml:space="preserve" font-family="Montserrat" font-size="3" font-weight="500" letter-spacing="0em"><tspan x="433" y="284.074">&#x441;&#x434;&#x430;&#x43d;</tspan></text>
</g>
</g>
<g id="room_217">
<path id="poly_24" d="M389.157 278.167V331.092C389.157 333.301 387.367 335.092 385.157 335.092H347.647C345.438 335.092 343.647 333.301 343.647 331.092V251.742C343.647 249.533 345.438 247.742 347.647 247.742H396.902C399.111 247.742 400.902 249.533 400.902 251.742V270.167C400.902 272.377 399.111 274.167 396.902 274.167H393.157C390.948 274.167 389.157 275.958 389.157 278.167Z" fill="#375A6D"/>
<path id="label_lock_24" d="M363.4 287V285.5C363.4 285.245 363.417 284.995 363.45 284.75M370.6 287V285.5C370.6 284.586 370.377 283.694 369.962 282.942C369.546 282.19 368.957 281.614 368.273 281.291C367.589 280.967 366.842 280.912 366.132 281.133C365.423 281.353 364.784 281.838 364.3 282.524M366.4 296H364.6C362.903 296 362.054 296 361.527 295.341C361 294.682 361 293.621 361 291.5C361 289.379 361 288.318 361.527 287.659C362.054 287 362.903 287 364.6 287H369.4C371.097 287 371.946 287 372.473 287.659C373 288.318 373 289.379 373 291.5C373 293.621 373 294.682 372.473 295.341C371.946 296 371.097 296 369.4 296H368.8" stroke="#EADB5A" stroke-width="0.5" stroke-linecap="round"/>
<text id="label_price_24" fill="white" style="white-space: pre" xml:space="preserve" font-family="Montserrat" font-size="8" letter-spacing="0em"><tspan x="346" y="293.868">&#x446;&#x435;&#x43d;&#x430;</tspan></text>
<text id="label_area_24" fill="white" style="white-space: pre" xml:space="preserve" font-family="Montserrat" font-size="8" letter-spacing="0em"><tspan x="349" y="328.868">00,00 &#x43c;&#xb2;</tspan></text>
<text id="label_name_24" fill="white" style="white-space: pre" xml:space="preserve" font-family="Montserrat" font-size="8" letter-spacing="0em"><tspan x="384" y="257.897">100</tspan></text>
<g id="label_busy_24">
<path id="form_24" d="M375.804 251.194L380.196 251.194L382.392 254.998L380.196 258.802L375.804 258.802L373.608 254.998L375.804 251.194Z" fill="url(#paint23_radial_379_1570)"/>
<text id="&#209;&#129;&#208;&#180;&#208;&#176;&#208;&#189;_24" fill="black" style="white-space: pre" xml:space="preserve" font-family="Montserrat" font-size="3" font-weight="500" letter-spacing="0em"><tspan x="374" y="256.076">&#x441;&#x434;&#x430;&#x43d;</tspan></text>
</g>
</g>
<g id="room_218">
<path id="poly_25" d="M224 231.998V155.584C224 153.375 225.791 151.584 228 151.584H255.234C257.443 151.584 259.234 153.375 259.234 155.584V209.977C259.234 212.186 261.024 213.977 263.234 213.977H275.786C277.996 213.977 279.786 215.768 279.786 217.977V231.998C279.786 234.207 277.996 235.998 275.786 235.998H228C225.791 235.998 224 234.207 224 231.998Z" fill="#375A6D"/>
<path id="label_lock_25" d="M238.4 188V186.5C238.4 186.245 238.417 185.995 238.45 185.75M245.6 188V186.5C245.6 185.586 245.377 184.694 244.962 183.942C244.546 183.19 243.957 182.614 243.273 182.291C242.589 181.967 241.842 181.912 241.132 182.133C240.423 182.353 239.784 182.838 239.3 183.524M241.4 197H239.6C237.903 197 237.054 197 236.527 196.341C236 195.682 236 194.621 236 192.5C236 190.379 236 189.318 236.527 188.659C237.054 188 237.903 188 239.6 188H244.4C246.097 188 246.946 188 247.473 188.659C248 189.318 248 190.379 248 192.5C248 194.621 248 195.682 247.473 196.341C246.946 197 246.097 197 244.4 197H243.8" stroke="#EADB5A" stroke-width="0.5" stroke-linecap="round"/>
<text id="label_price_25" fill="white" style="white-space: pre" xml:space="preserve" font-family="Montserrat" font-size="8" letter-spacing="0em"><tspan x="227" y="193.868">&#x446;&#x435;&#x43d;&#x430;</tspan></text>
<text id="label_area_25" fill="white" style="white-space: pre" xml:space="preserve" font-family="Montserrat" font-size="8" letter-spacing="0em"><tspan x="227" y="231.868">00,00 &#x43c;&#xb2;</tspan></text>
<text id="label_name_25" fill="white" style="white-space: pre" xml:space="preserve" font-family="Montserrat" font-size="8" letter-spacing="0em"><tspan x="243" y="162.868">100</tspan></text>
<g id="label_busy_25">
<path id="form_25" d="M234.804 156.194L239.196 156.194L241.392 159.998L239.196 163.802L234.804 163.802L232.608 159.998L234.804 156.194Z" fill="url(#paint24_radial_379_1570)"/>
<text id="&#209;&#129;&#208;&#180;&#208;&#176;&#208;&#189;_25" fill="black" style="white-space: pre" xml:space="preserve" font-family="Montserrat" font-size="3" font-weight="500" letter-spacing="0em"><tspan x="233" y="161.076">&#x441;&#x434;&#x430;&#x43d;</tspan></text>
</g>
</g>
<path id="Rectangle 494" d="M335 130L335 125L355 125L355 130L335 130Z" fill="#8FB6F9"/>
<path id="Rectangle 495" d="M471 130L471 125L495 125L495 130L471 130Z" fill="#8FB6F9"/>
<path id="Rectangle 496" d="M745 129L745 124L769 124L769 129L745 129Z" fill="#8FB6F9"/>
<path id="Rectangle 497" d="M790 129L790 124L814 124L814 129L790 129Z" fill="#8FB6F9"/>
<path id="Rectangle 498" d="M885 129L885 124L905 124L905 129L885 129Z" fill="#8FB6F9"/>
<path id="Rectangle 499" d="M928 129L928 124L948 124L948 129L928 129Z" fill="#8FB6F9"/>
<path id="Rectangle 485" d="M508 390L508 385L615.237 385L615.237 390L508 390Z" fill="#8FB6F9"/>
<path id="Rectangle 486" d="M629.913 390L629.913 385L745.164 385L745.164 390L629.913 390Z" fill="#8FB6F9"/>
<path id="Rectangle 487" d="M768 337L768 332L788.47 332L788.47 337L768 337Z" fill="#8FB6F9"/>
<path id="Rectangle 490" d="M469 339L469 334L489 334L489 339L469 339Z" fill="#8FB6F9"/>
<path id="Rectangle 491" d="M356 339L356 334L376 334L376 339L356 339Z" fill="#8FB6F9"/>
<path id="Rectangle 492" d="M408 339L408 334L428 334L428 339L408 339Z" fill="#8FB6F9"/>
<path id="Rectangle 488" d="M815 337L815 332L835.47 332L835.47 337L815 337Z" fill="#8FB6F9"/>
<path id="Rectangle 489" d="M862.613 337L862.613 332L883.47 332L883.47 337L862.613 337Z" fill="#8FB6F9"/>
</g>
<defs>
<radialGradient id="paint0_radial_379_1570" cx="0" cy="0" r="1" gradientUnits="userSpaceOnUse" gradientTransform="translate(294.259 135.492) rotate(130.972) scale(6.316)">
<stop stop-color="#03CF21"/>
<stop offset="0.706731" stop-color="#20CDED"/>
</radialGradient>
<radialGradient id="paint1_radial_379_1570" cx="0" cy="0" r="1" gradientUnits="userSpaceOnUse" gradientTransform="translate(327.259 135.492) rotate(130.972) scale(6.316)">
<stop stop-color="#03CF21"/>
<stop offset="0.706731" stop-color="#20CDED"/>
</radialGradient>
<radialGradient id="paint2_radial_379_1570" cx="0" cy="0" r="1" gradientUnits="userSpaceOnUse" gradientTransform="translate(373.259 135.492) rotate(130.972) scale(6.316)">
<stop stop-color="#03CF21"/>
<stop offset="0.706731" stop-color="#20CDED"/>
</radialGradient>
<radialGradient id="paint3_radial_379_1570" cx="0" cy="0" r="1" gradientUnits="userSpaceOnUse" gradientTransform="translate(411.259 135.492) rotate(130.972) scale(6.316)">
<stop stop-color="#03CF21"/>
<stop offset="0.706731" stop-color="#20CDED"/>
</radialGradient>
<radialGradient id="paint4_radial_379_1570" cx="0" cy="0" r="1" gradientUnits="userSpaceOnUse" gradientTransform="translate(462.259 135.492) rotate(130.972) scale(6.316)">
<stop stop-color="#03CF21"/>
<stop offset="0.706731" stop-color="#20CDED"/>
</radialGradient>
<radialGradient id="paint5_radial_379_1570" cx="0" cy="0" r="1" gradientUnits="userSpaceOnUse" gradientTransform="translate(509.259 135.492) rotate(130.972) scale(6.316)">
<stop stop-color="#03CF21"/>
<stop offset="0.706731" stop-color="#20CDED"/>
</radialGradient>
<radialGradient id="paint6_radial_379_1570" cx="0" cy="0" r="1" gradientUnits="userSpaceOnUse" gradientTransform="translate(685.259 112.492) rotate(130.972) scale(6.316)">
<stop stop-color="#03CF21"/>
<stop offset="0.706731" stop-color="#20CDED"/>
</radialGradient>
<radialGradient id="paint7_radial_379_1570" cx="0" cy="0" r="1" gradientUnits="userSpaceOnUse" gradientTransform="translate(736.259 134.492) rotate(130.972) scale(6.316)">
<stop stop-color="#03CF21"/>
<stop offset="0.706731" stop-color="#20CDED"/>
</radialGradient>
<radialGradient id="paint8_radial_379_1570" cx="0" cy="0" r="1" gradientUnits="userSpaceOnUse" gradientTransform="translate(780.259 134.49) rotate(130.972) scale(6.316)">
<stop stop-color="#03CF21"/>
<stop offset="0.706731" stop-color="#20CDED"/>
</radialGradient>
<radialGradient id="paint9_radial_379_1570" cx="0" cy="0" r="1" gradientUnits="userSpaceOnUse" gradientTransform="translate(824.259 134.492) rotate(130.972) scale(6.316)">
<stop stop-color="#03CF21"/>
<stop offset="0.706731" stop-color="#20CDED"/>
</radialGradient>
<radialGradient id="paint10_radial_379_1570" cx="0" cy="0" r="1" gradientUnits="userSpaceOnUse" gradientTransform="translate(874.259 134.494) rotate(130.972) scale(6.316)">
<stop stop-color="#03CF21"/>
<stop offset="0.706731" stop-color="#20CDED"/>
</radialGradient>
<radialGradient id="paint11_radial_379_1570" cx="0" cy="0" r="1" gradientUnits="userSpaceOnUse" gradientTransform="translate(916.259 134.492) rotate(130.972) scale(6.316)">
<stop stop-color="#03CF21"/>
<stop offset="0.706731" stop-color="#20CDED"/>
</radialGradient>
<radialGradient id="paint12_radial_379_1570" cx="0" cy="0" r="1" gradientUnits="userSpaceOnUse" gradientTransform="translate(955.259 134.494) rotate(130.972) scale(6.316)">
<stop stop-color="#03CF21"/>
<stop offset="0.706731" stop-color="#20CDED"/>
</radialGradient>
<radialGradient id="paint13_radial_379_1570" cx="0" cy="0" r="1" gradientUnits="userSpaceOnUse" gradientTransform="translate(1008.26 154.494) rotate(130.972) scale(6.316)">
<stop stop-color="#03CF21"/>
<stop offset="0.706731" stop-color="#20CDED"/>
</radialGradient>
<radialGradient id="paint14_radial_379_1570" cx="0" cy="0" r="1" gradientUnits="userSpaceOnUse" gradientTransform="translate(886.259 252.494) rotate(130.972) scale(6.316)">
<stop stop-color="#03CF21"/>
<stop offset="0.706731" stop-color="#20CDED"/>
</radialGradient>
<radialGradient id="paint15_radial_379_1570" cx="0" cy="0" r="1" gradientUnits="userSpaceOnUse" gradientTransform="translate(840.259 285.494) rotate(130.972) scale(6.316)">
<stop stop-color="#03CF21"/>
<stop offset="0.706731" stop-color="#20CDED"/>
</radialGradient>
<radialGradient id="paint16_radial_379_1570" cx="0" cy="0" r="1" gradientUnits="userSpaceOnUse" gradientTransform="translate(763.259 285.492) rotate(130.972) scale(6.316)">
<stop stop-color="#03CF21"/>
<stop offset="0.706731" stop-color="#20CDED"/>
</radialGradient>
<radialGradient id="paint17_radial_379_1570" cx="0" cy="0" r="1" gradientUnits="userSpaceOnUse" gradientTransform="translate(695.259 281.492) rotate(130.972) scale(6.316)">
<stop stop-color="#03CF21"/>
<stop offset="0.706731" stop-color="#20CDED"/>
</radialGradient>
<radialGradient id="paint18_radial_379_1570" cx="0" cy="0" r="1" gradientUnits="userSpaceOnUse" gradientTransform="translate(658.259 281.492) rotate(130.972) scale(6.316)">
<stop stop-color="#03CF21"/>
<stop offset="0.706731" stop-color="#20CDED"/>
</radialGradient>
<radialGradient id="paint19_radial_379_1570" cx="0" cy="0" r="1" gradientUnits="userSpaceOnUse" gradientTransform="translate(604.259 281.492) rotate(130.972) scale(6.316)">
<stop stop-color="#03CF21"/>
<stop offset="0.706731" stop-color="#20CDED"/>
</radialGradient>
<radialGradient id="paint20_radial_379_1570" cx="0" cy="0" r="1" gradientUnits="userSpaceOnUse" gradientTransform="translate(550.259 281.492) rotate(130.972) scale(6.316)">
<stop stop-color="#03CF21"/>
<stop offset="0.706731" stop-color="#20CDED"/>
</radialGradient>
<radialGradient id="paint21_radial_379_1570" cx="0" cy="0" r="1" gradientUnits="userSpaceOnUse" gradientTransform="translate(507.259 281.492) rotate(130.972) scale(6.316)">
<stop stop-color="#03CF21"/>
<stop offset="0.706731" stop-color="#20CDED"/>
</radialGradient>
<radialGradient id="paint22_radial_379_1570" cx="0" cy="0" r="1" gradientUnits="userSpaceOnUse" gradientTransform="translate(439.259 281.492) rotate(130.972) scale(6.316)">
<stop stop-color="#03CF21"/>
<stop offset="0.706731" stop-color="#20CDED"/>
</radialGradient>
<radialGradient id="paint23_radial_379_1570" cx="0" cy="0" r="1" gradientUnits="userSpaceOnUse" gradientTransform="translate(380.259 253.492) rotate(130.972) scale(6.316)">
<stop stop-color="#03CF21"/>
<stop offset="0.706731" stop-color="#20CDED"/>
</radialGradient>
<radialGradient id="paint24_radial_379_1570" cx="0" cy="0" r="1" gradientUnits="userSpaceOnUse" gradientTransform="translate(239.259 158.492) rotate(130.972) scale(6.316)">
<stop stop-color="#03CF21"/>
<stop offset="0.706731" stop-color="#20CDED"/>
</radialGradient>
</defs>
</svg>
