<svg width="920" height="453" viewBox="0 0 920 453" fill="none" xmlns="http://www.w3.org/2000/svg">
<g id="&#208;&#151;&#208;&#184;&#208;&#187;&#208;&#176;&#208;&#189;&#209;&#130;&#208;&#190;&#208;&#178;&#209;&#129;&#208;&#186;&#208;&#176;&#209;&#143;">
<path id="Vector 38" d="M735.905 122H727C724.239 122 722 124.239 722 127V175.289C722 178.051 724.239 180.289 727 180.289H735.905C738.666 180.289 740.905 178.051 740.905 175.289V127C740.905 124.239 738.666 122 735.905 122Z" fill="#D9D9D9"/>
<path id="Vector 35" d="M464.178 4H460C457.239 4 455 6.23858 455 9V58.077C455 60.8384 457.239 63.077 460 63.077H464.178C466.94 63.077 469.178 60.8384 469.178 58.077V9C469.178 6.23858 466.94 4 464.178 4Z" fill="#D9D9D9"/>
<path id="Vector 1622" d="M592 7H586C583.239 7 581 9.23858 581 12V55C581 57.7614 583.239 60 586 60H592C594.761 60 597 57.7614 597 55V12C597 9.23858 594.761 7 592 7Z" fill="#D9D9D9"/>
<path id="Vector 23" d="M91 193H79C73.4772 193 69 197.477 69 203V297C69 302.523 73.4771 307 79 307H536.002C537.321 307 538.627 306.739 539.845 306.232L737.265 224.053C742.556 221.85 744.917 215.66 742.437 210.493L733.082 191.004C730.79 186.229 725.173 184.07 720.272 186.08L541.869 259.252C540.665 259.746 539.376 260 538.074 260H122.885C120.09 260 117.423 258.83 115.529 256.775L103.645 243.871C101.944 242.025 101 239.607 101 237.096V203C101 197.477 96.5228 193 91 193Z" fill="#FDD24F"/>
<path id="Vector 34" d="M451.729 129.034L451.729 124C451.729 121.239 453.968 119 456.729 119H466.117C468.878 119 471.117 121.239 471.117 124V129.034C471.117 131.795 473.355 134.034 476.117 134.034H481C483.761 134.034 486 136.272 486 139.034V164C486 166.761 483.761 169 481 169H476.312C473.551 169 471.312 171.239 471.312 174V183C471.312 185.761 469.074 188 466.313 188H457.708C454.947 188 452.708 185.761 452.708 183V173.936C452.708 171.2 450.509 168.972 447.773 168.936L443.935 168.887C441.199 168.851 439 166.623 439 163.887V139.034C439 136.272 441.239 134.034 444 134.034H446.729C449.491 134.034 451.729 131.795 451.729 129.034Z" fill="#D9D9D9"/>
<path id="Vector 37" d="M593 121H585C582.239 121 580 123.239 580 126V178C580 180.761 582.239 183 585 183H593C595.761 183 598 180.761 598 178V126C598 123.239 595.761 121 593 121Z" fill="#D9D9D9"/>
<path id="Vector 39" d="M890.865 285H841C838.239 285 836 287.239 836 290V298.117C836 300.878 838.239 303.117 841 303.117H890.865C893.626 303.117 895.865 300.878 895.865 298.117V290C895.865 287.239 893.626 285 890.865 285Z" fill="#D9D9D9"/>
<path id="Vector 1621" d="M338.5 174H314.5C312.015 174 310 176.015 310 178.5C310 180.985 312.015 183 314.5 183H338.5C340.985 183 343 180.985 343 178.5C343 176.015 340.985 174 338.5 174Z" fill="#D9D9D9"/>
<g id="WC">
<path id="Vector 40" d="M480 207H441C438.239 207 436 209.239 436 212V251C436 253.761 438.239 256 441 256H480C482.761 256 485 253.761 485 251V212C485 209.239 482.761 207 480 207Z" fill="#FDD24F"/>
<text id="WC_2" fill="black" style="white-space: pre" xml:space="preserve" font-family="Montserrat" font-size="16" font-weight="600" letter-spacing="0em"><tspan x="444.736" y="236.443">WC</tspan></text>
</g>
<path id="Rectangle 412" d="M109.853 121.154C110.957 121.154 111.853 122.05 111.853 123.154L111.853 175.868C111.853 176.973 110.957 177.868 109.853 177.868L107.157 177.868C106.053 177.868 105.157 176.973 105.157 175.868L105.157 123.154C105.157 122.05 106.053 121.154 107.157 121.154H109.853Z" fill="#8FB6F9"/>
<g id="entrance">
<path id="Vector 22" d="M55.0255 192.975L10.0255 192.86C4.49273 192.845 0 197.327 0 202.86V297C0 302.523 4.47715 307 10 307H55C60.5228 307 65 302.523 65 297V202.974C65 197.462 60.5384 192.989 55.0255 192.975Z" fill="#FDD24F"/>
<text id="&#208;&#146;&#208;&#165;&#208;&#158;&#208;&#148;" fill="black" style="white-space: pre" xml:space="preserve" font-family="Montserrat" font-size="16" font-weight="600" letter-spacing="0em"><tspan x="7" y="257.736">&#x412;&#x425;&#x41e;&#x414;</tspan></text>
</g>
<g id="room_101">
<path id="poly" d="M217 57.0002L115.009 56.9991C109.482 56.9991 105.004 61.4815 105.009 67.0078L105.155 236.159C105.157 238.689 106.118 241.124 107.844 242.973L112.579 248.048L117.035 252.823C118.926 254.85 121.574 256 124.346 256H217C222.523 256 227 251.523 227 246V67.0002C227 61.4774 222.523 57.0003 217 57.0002Z" fill="#375A6D"/>
<text id="label_name" fill="white" style="white-space: pre" xml:space="preserve" font-family="Montserrat" font-size="22" letter-spacing="0em"><tspan x="184.048" y="85.8265">101</tspan></text>
<g id="label_busy">
<path id="form" d="M167.742 69.8919L175.527 69.8919L179.419 76.6335L175.527 83.3751L167.742 83.3751L163.85 76.6335L167.742 69.8919Z" fill="url(#paint0_radial_2_4270)"/>
<text id="&#209;&#129;&#208;&#180;&#208;&#176;&#208;&#189;" fill="black" style="white-space: pre" xml:space="preserve" font-family="Montserrat" font-size="5" font-weight="500" letter-spacing="0em"><tspan x="165.001" y="77.7915">&#x441;&#x434;&#x430;&#x43d;</tspan></text>
</g>
<text id="label_area" fill="white" style="white-space: pre" xml:space="preserve" font-family="Montserrat" font-size="18" letter-spacing="0em"><tspan x="144.001" y="245.453">00,00 &#x43c;&#xb2;</tspan></text>
<path id="label_lock" d="M159.588 145.887V142.658C159.588 142.108 159.624 141.57 159.696 141.043M175.184 145.887V142.658C175.184 140.69 174.702 138.768 173.801 137.149C172.9 135.53 171.625 134.29 170.142 133.595C168.661 132.899 167.044 132.78 165.507 133.254C163.97 133.728 162.585 134.773 161.537 136.249M166.086 165.264H162.187C158.512 165.264 156.672 165.264 155.531 163.845C154.389 162.427 154.389 160.142 154.389 155.576C154.389 151.009 154.389 148.724 155.531 147.307C156.672 145.887 158.512 145.887 162.187 145.887H172.585C176.26 145.887 178.099 145.887 179.24 147.307C180.383 148.724 180.383 151.009 180.383 155.576C180.383 160.142 180.383 162.427 179.24 163.845C178.099 165.264 176.26 165.264 172.585 165.264H171.285" stroke="#EADB5A" stroke-linecap="round"/>
<text id="label_price" fill="white" style="white-space: pre" xml:space="preserve" font-family="Montserrat" font-size="18" letter-spacing="0em"><tspan x="117.367" y="159.087">&#x446;&#x435;&#x43d;&#x430;</tspan></text>
</g>
<g id="room_102">
<path id="poly_2" d="M333 57.001H241.008C235.485 57.001 231.008 61.4781 231.008 67.001V246.001C231.008 251.524 235.485 256.001 241.008 256.001H333C338.523 256.001 343 251.524 343 246.001V195.052C343 189.509 338.491 185.024 332.948 185.052L314.105 185.149C310.484 185.168 307.538 182.237 307.538 178.616C307.538 175.008 310.463 172.083 314.071 172.083H333C338.523 172.083 343 167.605 343 162.083V67.001C343 61.4781 338.523 57.001 333 57.001Z" fill="#375A6D"/>
<rect id="Rectangle 411" x="237" y="54" width="56.7139" height="6.30155" fill="#8FB6F9"/>
<text id="label_name_2" fill="white" style="white-space: pre" xml:space="preserve" font-family="Montserrat" font-size="22" letter-spacing="0em"><tspan x="300.839" y="85.8265">102</tspan></text>
<g id="label_busy_2">
<path id="form_2" d="M286.742 69.8851L294.526 69.8851L298.419 76.6267L294.526 83.3683L286.742 83.3683L282.85 76.6267L286.742 69.8851Z" fill="url(#paint1_radial_2_4270)"/>
<text id="&#209;&#129;&#208;&#180;&#208;&#176;&#208;&#189;_2" fill="black" style="white-space: pre" xml:space="preserve" font-family="Montserrat" font-size="5" font-weight="500" letter-spacing="0em"><tspan x="284.431" y="77.3443">&#x441;&#x434;&#x430;&#x43d;</tspan></text>
</g>
<text id="label_area_2" fill="white" style="white-space: pre" xml:space="preserve" font-family="Montserrat" font-size="18" letter-spacing="0em"><tspan x="261" y="245.453">00,00 &#x43c;&#xb2;</tspan></text>
<path id="label_lock_2" d="M278.742 145.888V142.659C278.742 142.109 278.778 141.57 278.85 141.044M294.338 145.888V142.659C294.338 140.691 293.856 138.769 292.955 137.15C292.054 135.531 290.779 134.291 289.297 133.596C287.815 132.9 286.198 132.781 284.661 133.255C283.124 133.729 281.739 134.774 280.691 136.25M285.24 165.265H281.341C277.666 165.265 275.827 165.265 274.685 163.846C273.543 162.428 273.543 160.143 273.543 155.577C273.543 151.01 273.543 148.725 274.685 147.308C275.827 145.888 277.666 145.888 281.341 145.888H291.739C295.414 145.888 297.253 145.888 298.394 147.308C299.537 148.725 299.537 151.01 299.537 155.577C299.537 160.143 299.537 162.428 298.394 163.846C297.253 165.265 295.414 165.265 291.739 165.265H290.439" stroke="#EADB5A" stroke-linecap="round"/>
<text id="label_price_2" fill="white" style="white-space: pre" xml:space="preserve" font-family="Montserrat" font-size="18" letter-spacing="0em"><tspan x="239.672" y="159.087">&#x446;&#x435;&#x43d;&#x430;</tspan></text>
</g>
<g id="room_103">
<path id="poly_3" d="M442 3H357.01C351.487 3 347.01 7.47715 347.01 13V246C347.01 251.523 351.487 256 357.01 256H423C428.523 256 433 251.523 433 246V210C433 206.686 435.686 204 439 204H459.375C461.377 204 463 202.377 463 200.375V193.5C463 191.567 461.433 190 459.5 190H456H452.5C450.567 190 449 188.433 449 186.5V177.5C449 173.91 446.09 171 442.5 171H439C437.343 171 436 169.657 436 168V135C436 133.343 437.343 132 439 132H442.5C446.069 132.1 449.016 129.233 449.016 125.663V120.484C449.016 118.56 450.576 117 452.5 117H456H459.5C461.433 117 463 115.433 463 113.5V68.5C463 66.567 461.433 65 459.5 65H455C453.343 65 452 63.6569 452 62V13C452 7.47715 447.523 3 442 3Z" fill="#375A6D"/>
<rect id="Rectangle 413" x="359" width="56.7139" height="6.30155" fill="#8FB6F9"/>
<text id="label_name_3" fill="white" style="white-space: pre" xml:space="preserve" font-family="Montserrat" font-size="22" letter-spacing="0em"><tspan x="405" y="30.387">103</tspan></text>
<g id="label_busy_3">
<path id="form_3" d="M389.741 14.8929L397.525 14.8929L401.418 21.6345L397.525 28.3761L389.741 28.3761L385.848 21.6345L389.741 14.8929Z" fill="url(#paint2_radial_2_4270)"/>
<text id="&#209;&#129;&#208;&#180;&#208;&#176;&#208;&#189;_3" fill="black" style="white-space: pre" xml:space="preserve" font-family="Montserrat" font-size="5" font-weight="500" letter-spacing="0em"><tspan x="387" y="22.7915">&#x441;&#x434;&#x430;&#x43d;</tspan></text>
</g>
<text id="label_area_3" fill="white" style="white-space: pre" xml:space="preserve" font-family="Montserrat" font-size="18" letter-spacing="0em"><tspan x="360" y="195.453">00,00 &#x43c;&#xb2;</tspan></text>
<path id="label_lock_3" d="M391.593 123.045V119.815C391.593 119.265 391.63 118.727 391.701 118.2M407.19 123.045V119.815C407.19 117.847 406.707 115.926 405.807 114.307C404.906 112.688 403.631 111.448 402.148 110.752C400.666 110.056 399.05 109.937 397.512 110.411C395.976 110.886 394.59 111.93 393.543 113.406M398.092 142.421H394.193C390.517 142.421 388.678 142.421 387.537 141.002C386.394 139.584 386.394 137.299 386.394 132.733C386.394 128.166 386.394 125.882 387.537 124.464C388.678 123.045 390.517 123.045 394.193 123.045H404.59C408.266 123.045 410.105 123.045 411.246 124.464C412.388 125.882 412.388 128.166 412.388 132.733C412.388 137.299 412.388 139.584 411.246 141.002C410.105 142.421 408.266 142.421 404.59 142.421H403.29" stroke="#EADB5A" stroke-linecap="round"/>
<text id="label_price_3" fill="white" style="white-space: pre" xml:space="preserve" font-family="Montserrat" font-size="18" letter-spacing="0em"><tspan x="357" y="96.453">&#x446;&#x435;&#x43d;&#x430;</tspan></text>
</g>
<g id="room_104">
<path id="poly_4" d="M580 3H482C476.477 3 472 7.47715 472 13V63C472 64.1046 471.105 65 470 65C468.343 65 467 66.3431 467 68V113.5C467 115.433 468.567 117 470.5 117C472.433 117 474 118.567 474 120.5V124.5C474 128.642 477.358 132 481.5 132H485.5C487.433 132 489 133.567 489 135.5V167C489 169.209 487.209 171 485 171H481.5C477.384 171 474.044 174.331 474.032 178.447L474.01 186.5C474.005 188.435 472.435 190 470.5 190C468.567 190 467 191.567 467 193.5V200.5C467 202.433 468.567 204 470.5 204H481.5C485.09 204 488 206.91 488 210.5V246C488 251.523 492.477 256 498 256H536.5C541.195 256 545 252.194 545 247.5V243.5C545 241.015 547.015 239 549.5 239C551.985 239 554 241.033 554 243.518C554 246.766 557.309 248.993 560.305 247.736L617.871 223.573C621.584 222.014 624 218.38 624 214.352V184C624 181.239 621.762 179 619 179H603C601.343 179 600 180.343 600 182C600 183.657 598.657 185 597 185H587.5H582.5C580.015 185 578 182.985 578 180.5V121.5C578 120.119 579.119 119 580.5 119C581.881 119 583 117.881 583 116.5V64.757C583 63.2468 581.776 62.0225 580.266 62.0225C579.015 62.0225 578 61.0082 578 59.757V9C578 7.89543 578.896 7 580 7C581.105 7 582 6.10457 582 5C582 3.89543 581.105 3 580 3Z" fill="#375A6D"/>
<rect id="Rectangle 414" x="486" width="56.7139" height="6.30155" fill="#8FB6F9"/>
<text id="label_name_4" fill="white" style="white-space: pre" xml:space="preserve" font-family="Montserrat" font-size="22" letter-spacing="0em"><tspan x="528.999" y="33.387">104</tspan></text>
<g id="label_busy_4">
<path id="form_4" d="M514.74 15.8929L522.524 15.8929L526.417 22.6345L522.524 29.3761L514.74 29.3761L510.847 22.6345L514.74 15.8929Z" fill="url(#paint3_radial_2_4270)"/>
<text id="&#209;&#129;&#208;&#180;&#208;&#176;&#208;&#189;_4" fill="black" style="white-space: pre" xml:space="preserve" font-family="Montserrat" font-size="5" font-weight="500" letter-spacing="0em"><tspan x="511.483" y="23.1275">&#x441;&#x434;&#x430;&#x43d;</tspan></text>
</g>
<text id="label_area_4" fill="white" style="white-space: pre" xml:space="preserve" font-family="Montserrat" font-size="18" letter-spacing="0em"><tspan x="486.999" y="196.453">00,00 &#x43c;&#xb2;</tspan></text>
<path id="label_lock_4" d="M518.26 123.045V119.815C518.26 119.265 518.297 118.727 518.368 118.2M533.857 123.045V119.815C533.857 117.847 533.374 115.926 532.474 114.307C531.573 112.688 530.298 111.448 528.815 110.752C527.333 110.056 525.717 109.937 524.179 110.411C522.643 110.886 521.257 111.93 520.21 113.406M524.759 142.421H520.86C517.184 142.421 515.345 142.421 514.204 141.002C513.061 139.584 513.061 137.299 513.061 132.733C513.061 128.166 513.061 125.882 514.204 124.464C515.345 123.045 517.184 123.045 520.86 123.045H531.257C534.933 123.045 536.772 123.045 537.913 124.464C539.055 125.882 539.055 128.166 539.055 132.733C539.055 137.299 539.055 139.584 537.913 141.002C536.772 142.421 534.933 142.421 531.257 142.421H529.957" stroke="#EADB5A" stroke-linecap="round"/>
<text id="label_price_4" fill="white" style="white-space: pre" xml:space="preserve" font-family="Montserrat" font-size="18" letter-spacing="0em"><tspan x="476" y="96.453">&#x446;&#x435;&#x43d;&#x430;</tspan></text>
</g>
<g id="room_105">
<path id="poly_5" d="M717.159 3H597.045C595.94 3 595.045 3.89543 595.045 5C595.045 6.10457 595.94 7 597.045 7H597.537C598.914 7 600.03 8.11595 600.03 9.49255V58.9699C600.03 60.6434 598.673 62 597 62H593.5H590.5C588.567 62 587.001 63.5675 587.003 65.5L587.042 115.5C587.044 117.433 588.611 119 590.545 119H593.545H597.045C598.702 119 600.045 120.343 600.045 122V169.545C600.045 172.558 602.487 175 605.5 175H620.5C624.655 175 628.037 178.344 628.083 182.5L628.138 187.5L628.212 204.327C628.243 211.435 635.473 216.243 642.04 213.521L711.937 184.557C715.674 183.009 718.109 179.363 718.109 175.319V122.891C718.109 120.742 719.851 119 722 119H726H730C732.209 119 734 117.209 734 115V63.4941C734 61.5644 732.436 60 730.506 60C728.571 60 727.005 58.4284 727.012 56.4941L727.158 13.0338C727.177 7.49776 722.695 3 717.159 3Z" fill="#375A6D"/>
<rect id="Rectangle 415" x="613.045" width="56.7139" height="6.30155" fill="#8FB6F9"/>
<text id="label_name_5" fill="white" style="white-space: pre" xml:space="preserve" font-family="Montserrat" font-size="22" letter-spacing="0em"><tspan x="675.045" y="33.387">105</tspan></text>
<g id="label_busy_5">
<path id="form_5" d="M658.787 15.8929L666.572 15.8929L670.464 22.6345L666.572 29.3761L658.787 29.3761L654.895 22.6345L658.787 15.8929Z" fill="url(#paint4_radial_2_4270)"/>
<text id="&#209;&#129;&#208;&#180;&#208;&#176;&#208;&#189;_5" fill="black" style="white-space: pre" xml:space="preserve" font-family="Montserrat" font-size="5" font-weight="500" letter-spacing="0em"><tspan x="656.045" y="23.7925">&#x441;&#x434;&#x430;&#x43d;</tspan></text>
</g>
<text id="label_area_5" fill="white" style="white-space: pre" xml:space="preserve" font-family="Montserrat" font-size="18" letter-spacing="0em"><tspan x="608.045" y="159.453">00,00 &#x43c;&#xb2;</tspan></text>
<path id="label_lock_5" d="M652.063 102.565V99.3356C652.063 98.7854 652.1 98.2472 652.171 97.7208M667.66 102.565V99.3356C667.66 97.3675 667.177 95.4462 666.277 93.8272C665.376 92.2081 664.101 90.9682 662.618 90.2724C661.136 89.5764 659.52 89.4577 657.982 89.932C656.446 90.4061 655.06 91.4507 654.013 92.9267M658.562 121.942H654.663C650.987 121.942 649.148 121.942 648.007 120.523C646.864 119.105 646.864 116.82 646.864 112.253C646.864 107.687 646.864 105.402 648.007 103.984C649.148 102.565 650.987 102.565 654.663 102.565H665.06C668.736 102.565 670.575 102.565 671.716 103.984C672.858 105.402 672.858 107.687 672.858 112.253C672.858 116.82 672.858 119.105 671.716 120.523C670.575 121.942 668.736 121.942 665.06 121.942H663.76" stroke="#EADB5A" stroke-linecap="round"/>
<text id="label_price_5" fill="white" style="white-space: pre" xml:space="preserve" font-family="Montserrat" font-size="18" letter-spacing="0em"><tspan x="608" y="96.453">&#x446;&#x435;&#x43d;&#x430;</tspan></text>
</g>
<g id="room_106">
<path id="poly_6" d="M920 157.999V69.999C920 64.4762 915.523 59.999 910 59.999H741.5C739.567 59.999 738 61.566 738 63.499V111.999V114.999C738 117.208 739.791 118.999 742 118.999C743.657 118.999 745 120.342 745 121.999V177.307C745 179.887 742.888 181.966 740.309 181.925C736.852 181.871 734.564 185.495 736.098 188.593L747.057 210.717C749.337 215.321 754.736 217.448 759.544 215.636L801.786 199.717C806.037 198.116 808.674 193.85 808.207 189.331L807.5 182.499L807.141 179.028C806.531 173.13 811.158 167.999 817.088 167.999H910C915.523 167.999 920 163.522 920 157.999Z" fill="#375A6D"/>
<rect id="Rectangle 416" x="791" y="57" width="56.7139" height="6.30155" fill="#8FB6F9"/>
<text id="label_name_6" fill="white" style="white-space: pre" xml:space="preserve" font-family="Montserrat" font-size="22" letter-spacing="0em"><tspan x="867" y="86.387">106</tspan></text>
<g id="label_busy_6">
<path id="form_6" d="M851.742 71.8929L859.526 71.8929L863.419 78.6345L859.526 85.3761L851.742 85.3761L847.849 78.6345L851.742 71.8929Z" fill="url(#paint5_radial_2_4270)"/>
<text id="&#209;&#129;&#208;&#180;&#208;&#176;&#208;&#189;_6" fill="black" style="white-space: pre" xml:space="preserve" font-family="Montserrat" font-size="5" font-weight="500" letter-spacing="0em"><tspan x="849" y="79.7915">&#x441;&#x434;&#x430;&#x43d;</tspan></text>
</g>
<text id="label_area_6" fill="white" style="white-space: pre" xml:space="preserve" font-family="Montserrat" font-size="18" letter-spacing="0em"><tspan x="833.291" y="158.299">00,00 &#x43c;&#xb2;</tspan></text>
<path id="label_lock_6" d="M818.071 115.168V111.938C818.071 111.388 818.107 110.85 818.179 110.323M833.667 115.168V111.938C833.667 109.97 833.185 108.049 832.284 106.43C831.384 104.811 830.109 103.571 828.626 102.875C827.144 102.179 825.527 102.06 823.99 102.535C822.453 103.009 821.068 104.053 820.02 105.529M824.569 134.544H820.67C816.995 134.544 815.156 134.544 814.014 133.125C812.872 131.707 812.872 129.423 812.872 124.856C812.872 120.29 812.872 118.005 814.014 116.587C815.156 115.168 816.995 115.168 820.67 115.168H831.068C834.743 115.168 836.582 115.168 837.723 116.587C838.866 118.005 838.866 120.29 838.866 124.856C838.866 129.423 838.866 131.707 837.723 133.125C836.582 134.544 834.743 134.544 831.068 134.544H829.768" stroke="#EADB5A" stroke-linecap="round"/>
<text id="label_price_6" fill="white" style="white-space: pre" xml:space="preserve" font-family="Montserrat" font-size="18" letter-spacing="0em"><tspan x="752" y="127.453">&#x446;&#x435;&#x43d;&#x430;</tspan></text>
</g>
<g id="room_107">
<path id="poly_7" d="M909.998 171.999H820.548C814.892 171.999 810.464 176.868 811 182.499L812.5 193.999C812.797 197.555 810.711 200.88 807.381 202.162L724.55 234.042C719.091 236.143 716.593 242.46 719.139 247.727L743.285 297.675C744.954 301.129 748.452 303.323 752.288 303.323H822.426C827.949 303.323 832.426 298.846 832.426 293.323V289.499C832.426 285.606 835.583 282.449 839.476 282.449H909.998C915.521 282.449 919.998 277.972 919.998 272.449V181.999C919.998 176.476 915.521 171.999 909.998 171.999Z" fill="#375A6D"/>
<rect id="Rectangle 418" x="819.714" y="306.301" width="56.7139" height="6.30154" transform="rotate(-180 819.714 306.301)" fill="#8FB6F9"/>
<text id="label_name_7" fill="white" style="white-space: pre" xml:space="preserve" font-family="Montserrat" font-size="22" letter-spacing="0em"><tspan x="867" y="199.387">107</tspan></text>
<g id="label_busy_7">
<path id="form_7" d="M851.742 181.893L859.526 181.893L863.419 188.634L859.526 195.376L851.742 195.376L847.849 188.634L851.742 181.893Z" fill="url(#paint6_radial_2_4270)"/>
<text id="&#209;&#129;&#208;&#180;&#208;&#176;&#208;&#189;_7" fill="black" style="white-space: pre" xml:space="preserve" font-family="Montserrat" font-size="5" font-weight="500" letter-spacing="0em"><tspan x="849" y="189.793">&#x441;&#x434;&#x430;&#x43d;</tspan></text>
</g>
<text id="label_area_7" fill="white" style="white-space: pre" xml:space="preserve" font-family="Montserrat" font-size="18" letter-spacing="0em"><tspan x="831.291" y="276.666">00,00 &#x43c;&#xb2;</tspan></text>
<path id="label_lock_7" d="M818.071 234.322V231.092C818.071 230.542 818.107 230.004 818.179 229.478M833.667 234.322V231.092C833.667 229.124 833.185 227.203 832.284 225.584C831.384 223.965 830.109 222.725 828.626 222.029C827.144 221.333 825.527 221.215 823.99 221.689C822.453 222.163 821.068 223.207 820.02 224.684M824.569 253.699H820.67C816.995 253.699 815.156 253.699 814.014 252.279C812.872 250.862 812.872 248.577 812.872 244.01C812.872 239.444 812.872 237.159 814.014 235.741C815.156 234.322 816.995 234.322 820.67 234.322H831.068C834.743 234.322 836.582 234.322 837.723 235.741C838.866 237.159 838.866 239.444 838.866 244.01C838.866 248.577 838.866 250.862 837.723 252.279C836.582 253.699 834.743 253.699 831.068 253.699H829.768" stroke="#EADB5A" stroke-linecap="round"/>
<text id="label_price_7" fill="white" style="white-space: pre" xml:space="preserve" font-family="Montserrat" font-size="18" letter-spacing="0em"><tspan x="752.22" y="247.52">&#x446;&#x435;&#x43d;&#x430;</tspan></text>
</g>
<g id="room_108">
<path id="poly_8" d="M702.645 244.006L637.249 270.472C633.472 272.001 631 275.668 631 279.742V443.001C631 448.524 635.478 453.001 641 453.001H737C742.523 453.001 747 448.524 747 443.001V315.37C747 313.837 746.648 312.324 745.97 310.949L715.366 248.855C713.051 244.156 707.501 242.041 702.645 244.006Z" fill="#375A6D"/>
<rect id="Rectangle 417" x="749.302" y="365" width="56.7139" height="6.30155" transform="rotate(90 749.302 365)" fill="#8FB6F9"/>
<text id="label_name_8" fill="white" style="white-space: pre" xml:space="preserve" font-family="Montserrat" font-size="22" letter-spacing="0em"><tspan x="676.999" y="287.387">108</tspan></text>
<g id="label_busy_8">
<path id="form_8" d="M661.741 272.892L669.526 272.892L673.418 279.634L669.526 286.375L661.741 286.375L657.849 279.634L661.741 272.892Z" fill="url(#paint7_radial_2_4270)"/>
<text id="&#209;&#129;&#208;&#180;&#208;&#176;&#208;&#189;_8" fill="black" style="white-space: pre" xml:space="preserve" font-family="Montserrat" font-size="5" font-weight="500" letter-spacing="0em"><tspan x="658.999" y="280.793">&#x441;&#x434;&#x430;&#x43d;</tspan></text>
</g>
<text id="label_area_8" fill="white" style="white-space: pre" xml:space="preserve" font-family="Montserrat" font-size="18" letter-spacing="0em"><tspan x="641" y="442.453">00,00 &#x43c;&#xb2;</tspan></text>
<path id="label_lock_8" d="M681.011 351.113V347.883C681.011 347.333 681.048 346.795 681.119 346.269M696.608 351.113V347.883C696.608 345.915 696.125 343.994 695.225 342.375C694.324 340.756 693.049 339.516 691.566 338.82C690.084 338.124 688.468 338.006 686.93 338.48C685.394 338.954 684.008 339.999 682.961 341.475M687.51 370.49H683.611C679.935 370.49 678.096 370.49 676.955 369.07C675.812 367.653 675.812 365.368 675.812 360.801C675.812 356.235 675.812 353.95 676.955 352.532C678.096 351.113 679.935 351.113 683.611 351.113H694.008C697.684 351.113 699.523 351.113 700.664 352.532C701.806 353.95 701.806 356.235 701.806 360.801C701.806 365.368 701.806 367.653 700.664 369.07C699.523 370.49 697.684 370.49 694.008 370.49H692.708" stroke="#EADB5A" stroke-linecap="round"/>
<text id="label_price_8" fill="white" style="white-space: pre" xml:space="preserve" font-family="Montserrat" font-size="18" letter-spacing="0em"><tspan x="641" y="363.453">&#x446;&#x435;&#x43d;&#x430;</tspan></text>
</g>
<g id="room_109">
<path id="poly_9" d="M542.126 317.274L513.071 317.07C507.52 317.031 503 321.519 503 327.07V442.999C503 448.522 507.477 452.999 513 452.999H617C622.523 452.999 627 448.522 627 442.999V288.944C627 281.823 619.768 276.984 613.185 279.7L552.821 304.613C550.358 305.629 548.752 308.031 548.752 310.695C548.752 314.347 545.778 317.3 542.126 317.274Z" fill="#375A6D"/>
<text id="label_name_9" fill="white" style="white-space: pre" xml:space="preserve" font-family="Montserrat" font-size="22" letter-spacing="0em"><tspan x="578" y="331.387">109</tspan></text>
<g id="label_busy_9">
<path id="form_9" d="M563.741 316.892L571.526 316.892L575.418 323.634L571.526 330.375L563.741 330.375L559.849 323.634L563.741 316.892Z" fill="url(#paint8_radial_2_4270)"/>
<text id="&#209;&#129;&#208;&#180;&#208;&#176;&#208;&#189;_9" fill="black" style="white-space: pre" xml:space="preserve" font-family="Montserrat" font-size="5" font-weight="500" letter-spacing="0em"><tspan x="561" y="324.792">&#x441;&#x434;&#x430;&#x43d;</tspan></text>
</g>
<text id="label_area_9" fill="white" style="white-space: pre" xml:space="preserve" font-family="Montserrat" font-size="18" letter-spacing="0em"><tspan x="512" y="442.453">00,00 &#x43c;&#xb2;</tspan></text>
<path id="label_lock_9" d="M556.707 376.319V373.089C556.707 372.539 556.744 372.001 556.815 371.475M572.304 376.319V373.089C572.304 371.121 571.821 369.2 570.921 367.581C570.02 365.962 568.745 364.722 567.262 364.026C565.781 363.33 564.164 363.212 562.626 363.686C561.09 364.16 559.704 365.205 558.657 366.681M563.206 395.696H559.307C555.631 395.696 553.792 395.696 552.651 394.276C551.509 392.859 551.509 390.574 551.509 386.007C551.509 381.441 551.509 379.156 552.651 377.738C553.792 376.319 555.631 376.319 559.307 376.319H569.704C573.38 376.319 575.219 376.319 576.36 377.738C577.502 379.156 577.502 381.441 577.502 386.007C577.502 390.574 577.502 392.859 576.36 394.276C575.219 395.696 573.38 395.696 569.704 395.696H568.405" stroke="#EADB5A" stroke-linecap="round"/>
<text id="label_price_9" fill="white" style="white-space: pre" xml:space="preserve" font-family="Montserrat" font-size="18" letter-spacing="0em"><tspan x="512" y="377.127">&#x446;&#x435;&#x43d;&#x430;</tspan></text>
</g>
</g>
<defs>
<radialGradient id="paint0_radial_2_4270" cx="0" cy="0" r="1" gradientUnits="userSpaceOnUse" gradientTransform="translate(175.638 73.9645) rotate(130.972) scale(11.1939)">
<stop stop-color="#03CF21"/>
<stop offset="0.706731" stop-color="#20CDED"/>
</radialGradient>
<radialGradient id="paint1_radial_2_4270" cx="0" cy="0" r="1" gradientUnits="userSpaceOnUse" gradientTransform="translate(294.638 73.9576) rotate(130.972) scale(11.1939)">
<stop stop-color="#03CF21"/>
<stop offset="0.706731" stop-color="#20CDED"/>
</radialGradient>
<radialGradient id="paint2_radial_2_4270" cx="0" cy="0" r="1" gradientUnits="userSpaceOnUse" gradientTransform="translate(397.637 18.9654) rotate(130.972) scale(11.1939)">
<stop stop-color="#03CF21"/>
<stop offset="0.706731" stop-color="#20CDED"/>
</radialGradient>
<radialGradient id="paint3_radial_2_4270" cx="0" cy="0" r="1" gradientUnits="userSpaceOnUse" gradientTransform="translate(522.635 19.9654) rotate(130.972) scale(11.1939)">
<stop stop-color="#03CF21"/>
<stop offset="0.706731" stop-color="#20CDED"/>
</radialGradient>
<radialGradient id="paint4_radial_2_4270" cx="0" cy="0" r="1" gradientUnits="userSpaceOnUse" gradientTransform="translate(666.683 19.9654) rotate(130.972) scale(11.1939)">
<stop stop-color="#03CF21"/>
<stop offset="0.706731" stop-color="#20CDED"/>
</radialGradient>
<radialGradient id="paint5_radial_2_4270" cx="0" cy="0" r="1" gradientUnits="userSpaceOnUse" gradientTransform="translate(859.637 75.9654) rotate(130.972) scale(11.1939)">
<stop stop-color="#03CF21"/>
<stop offset="0.706731" stop-color="#20CDED"/>
</radialGradient>
<radialGradient id="paint6_radial_2_4270" cx="0" cy="0" r="1" gradientUnits="userSpaceOnUse" gradientTransform="translate(859.637 185.965) rotate(130.972) scale(11.1939)">
<stop stop-color="#03CF21"/>
<stop offset="0.706731" stop-color="#20CDED"/>
</radialGradient>
<radialGradient id="paint7_radial_2_4270" cx="0" cy="0" r="1" gradientUnits="userSpaceOnUse" gradientTransform="translate(669.637 276.964) rotate(130.972) scale(11.1939)">
<stop stop-color="#03CF21"/>
<stop offset="0.706731" stop-color="#20CDED"/>
</radialGradient>
<radialGradient id="paint8_radial_2_4270" cx="0" cy="0" r="1" gradientUnits="userSpaceOnUse" gradientTransform="translate(571.637 320.964) rotate(130.972) scale(11.1939)">
<stop stop-color="#03CF21"/>
<stop offset="0.706731" stop-color="#20CDED"/>
</radialGradient>
</defs>
</svg>
