<svg width="695" height="782" viewBox="0 0 695 782" fill="none" xmlns="http://www.w3.org/2000/svg">
<g id="&#208;&#156;&#208;&#176;&#209;&#128;&#209;&#136;&#209;&#128;&#209;&#131;&#209;&#130;&#208;&#189;&#208;&#176;&#209;&#143; 2 &#209;&#141;&#209;&#130;&#208;&#176;&#208;&#182; 1" clip-path="url(#clip0_38_3207)">
<g id="&#195;&#144;&#194;&#156;&#195;&#144;&#194;&#176;&#195;&#145;&#194;&#128;&#195;&#145;&#194;&#136;&#195;&#145;&#194;&#128;&#195;&#145;&#194;&#131;&#195;&#145;&#194;&#130;&#195;&#144;&#194;&#189;&#195;&#144;&#194;&#176;&#195;&#145;&#194;&#143; 2 &#195;&#145;&#194;&#141;&#195;&#145;&#194;&#130;&#195;&#144;&#194;&#176;&#195;&#144;&#194;&#182;">
<path id="Vector 2122" d="M401 484.5V478C401 472.477 405.477 468 411 468H512C517.523 468 522 472.477 522 478V484.5C522 490.023 517.523 494.5 512 494.5H411C405.477 494.5 401 490.023 401 484.5Z" fill="#D9D9D9"/>
<path id="Vector 2114" d="M385 68V10C385 4.47715 389.477 0 395 0H536C541.523 0 546 4.47715 546 10V68C546 73.5228 541.523 78 536 78H395C389.477 78 385 73.5228 385 68Z" fill="#D9D9D9"/>
<path id="Vector 2109" d="M70 479H10C4.47715 479 0 483.477 0 489V614C0 619.523 4.47715 624 10 624H70C75.5229 624 80 619.523 80 614V489C80 483.477 75.5229 479 70 479Z" fill="#D9D9D9"/>
<path id="Vector 2119" d="M518 504H509C503.477 504 499 508.477 499 514V578C499 583.523 503.477 588 509 588H518C523.523 588 528 583.523 528 578V514C528 508.477 523.523 504 518 504Z" fill="#D9D9D9"/>
<path id="Vector 2120" d="M415 504H406C400.477 504 396 508.477 396 514V578C396 583.523 400.477 588 406 588H415C420.523 588 425 583.523 425 578V514C425 508.477 420.523 504 415 504Z" fill="#D9D9D9"/>
<path id="Vector 2121" d="M429 582V521C429 515.477 433.477 511 439 511H485C490.523 511 495 515.477 495 521V582C495 587.523 490.523 592 485 592H439C433.477 592 429 587.523 429 582Z" fill="#FDD24F"/>
<text id="&#195;&#144;&#194;&#178;&#195;&#145;&#194;&#133;&#195;&#144;&#194;&#190;&#195;&#144;&#194;&#180;" fill="black" style="white-space: pre" xml:space="preserve" font-family="Montserrat" font-size="12" letter-spacing="0em"><tspan x="481" y="484.604">&#x432;&#x445;&#x43e;&#x434;</tspan></text>
<text id="WC" fill="black" style="white-space: pre" xml:space="preserve" font-family="Montserrat" font-size="12" letter-spacing="0em"><tspan x="451" y="582.604">WC</tspan></text>
<g id="Group 1202">
<path id="Vector 2087" d="M407 4V74" stroke="black"/>
<path id="Vector 2088" d="M414 4V74" stroke="black"/>
<path id="Vector 2089" d="M421 4V74" stroke="black"/>
<path id="Vector 2090" d="M428 4V74" stroke="black"/>
<path id="Vector 2091" d="M435 4V74" stroke="black"/>
<path id="Vector 2092" d="M442 4V74" stroke="black"/>
<path id="Arrow 14" d="M458.354 39.3537C458.549 39.1584 458.549 38.8418 458.354 38.6465L455.172 35.4646C454.976 35.2693 454.66 35.2693 454.464 35.4646C454.269 35.6598 454.269 35.9764 454.464 36.1717L457.293 39.0001L454.464 41.8285C454.269 42.0238 454.269 42.3404 454.464 42.5356C454.66 42.7309 454.976 42.7309 455.172 42.5356L458.354 39.3537ZM407 39.0001V39.5001H458V39.0001V38.5001H407V39.0001Z" fill="black"/>
</g>
<g id="Group 1203">
<path id="Vector 2087_2" d="M5.00024 613H75.0002" stroke="black"/>
<path id="Vector 2088_2" d="M5.00024 606H75.0002" stroke="black"/>
<path id="Vector 2089_2" d="M5.00024 599H75.0002" stroke="black"/>
<path id="Vector 2090_2" d="M5.00024 592H75.0002" stroke="black"/>
<path id="Vector 2091_2" d="M5.00024 585H75.0002" stroke="black"/>
<path id="Vector 2092_2" d="M5.00024 578H75.0002" stroke="black"/>
<path id="Arrow 14_2" d="M40.3537 561.647C40.1584 561.451 39.8419 561.451 39.6466 561.647L36.4646 564.829C36.2693 565.024 36.2693 565.341 36.4646 565.536C36.6599 565.731 36.9765 565.731 37.1717 565.536L40.0001 562.707L42.8286 565.536C43.0238 565.731 43.3404 565.731 43.5357 565.536C43.7309 565.341 43.7309 565.024 43.5357 564.829L40.3537 561.647ZM40.0001 613H40.5001V562H40.0001H39.5001V613H40.0001Z" fill="black"/>
</g>
<g id="Group 1204">
<path id="Vector 2087_3" d="M415 473V490" stroke="black" stroke-width="0.5"/>
<path id="Vector 2088_3" d="M419.315 473V490" stroke="black" stroke-width="0.5"/>
<path id="Vector 2089_3" d="M423.632 473V490" stroke="black" stroke-width="0.5"/>
<path id="Vector 2090_3" d="M427.947 473V490" stroke="black" stroke-width="0.5"/>
<path id="Vector 2091_3" d="M432.262 473V490" stroke="black" stroke-width="0.5"/>
<path id="Vector 2092_3" d="M436.577 473V490" stroke="black" stroke-width="0.5"/>
<path id="Arrow 14_3" d="M446.617 481.677C446.715 481.579 446.715 481.421 446.617 481.323L445.026 479.732C444.929 479.635 444.771 479.635 444.673 479.732C444.575 479.83 444.575 479.988 444.673 480.086L446.087 481.5L444.673 482.914C444.575 483.012 444.575 483.17 444.673 483.268C444.771 483.365 444.929 483.365 445.026 483.268L446.617 481.677ZM415 481.5V481.75H446.441V481.5V481.25H415V481.5Z" fill="black"/>
</g>
<g id="Group 1205">
<path id="Vector 2087_4" d="M419 515.001H402" stroke="black" stroke-width="0.5"/>
<path id="Vector 2088_4" d="M419 519.316H402" stroke="black" stroke-width="0.5"/>
<path id="Vector 2089_4" d="M419 523.632H402" stroke="black" stroke-width="0.5"/>
<path id="Vector 2090_4" d="M419 527.948H402" stroke="black" stroke-width="0.5"/>
<path id="Vector 2091_4" d="M419 532.262H402" stroke="black" stroke-width="0.5"/>
<path id="Vector 2092_4" d="M419 536.578H402" stroke="black" stroke-width="0.5"/>
<path id="Arrow 14_4" d="M410.823 546.617C410.921 546.715 411.079 546.715 411.177 546.617L412.768 545.026C412.866 544.929 412.866 544.771 412.768 544.673C412.67 544.575 412.512 544.575 412.414 544.673L411 546.087L409.586 544.673C409.488 544.575 409.33 544.575 409.232 544.673C409.135 544.771 409.135 544.929 409.232 545.026L410.823 546.617ZM411 515H410.75V546.441H411H411.25V515H411Z" fill="black"/>
</g>
<g id="Group 1206">
<path id="Vector 2087_5" d="M522 515.001H505" stroke="black" stroke-width="0.5"/>
<path id="Vector 2088_5" d="M522 519.316H505" stroke="black" stroke-width="0.5"/>
<path id="Vector 2089_5" d="M522 523.632H505" stroke="black" stroke-width="0.5"/>
<path id="Vector 2090_5" d="M522 527.948H505" stroke="black" stroke-width="0.5"/>
<path id="Vector 2091_5" d="M522 532.262H505" stroke="black" stroke-width="0.5"/>
<path id="Vector 2092_5" d="M522 536.578H505" stroke="black" stroke-width="0.5"/>
<path id="Arrow 14_5" d="M513.823 546.617C513.921 546.715 514.079 546.715 514.177 546.617L515.768 545.026C515.866 544.929 515.866 544.771 515.768 544.673C515.67 544.575 515.512 544.575 515.414 544.673L514 546.087L512.586 544.673C512.488 544.575 512.33 544.575 512.232 544.673C512.135 544.771 512.135 544.929 512.232 545.026L513.823 546.617ZM514 515H513.75V546.441H514H514.25V515H514Z" fill="black"/>
</g>
<g id="room_202">
<path id="poly" d="M555 634V769C555 774.523 550.523 779 545 779H491C485.477 779 481 774.523 481 769V634C481 628.477 485.477 624 491 624H545C550.523 624 555 628.477 555 634Z" fill="#375A6D"/>
<path id="label_lock" d="M512 697V694.5C512 694.074 512.028 693.658 512.083 693.25M524 697V694.5C524 692.977 523.629 691.49 522.936 690.236C522.243 688.983 521.262 688.023 520.121 687.485C518.981 686.946 517.737 686.854 516.554 687.221C515.372 687.588 514.306 688.397 513.5 689.539M517 712H514C511.172 712 509.757 712 508.879 710.901C508 709.804 508 708.035 508 704.5C508 700.965 508 699.197 508.879 698.099C509.757 697 511.172 697 514 697H522C524.828 697 526.243 697 527.121 698.099C528 699.197 528 700.965 528 704.5C528 708.035 528 709.804 527.121 710.901C526.243 712 524.828 712 522 712H521" stroke="#EADB5A" stroke-linecap="round"/>
<text id="label_price" fill="white" style="white-space: pre" xml:space="preserve" font-family="Montserrat" font-size="12" letter-spacing="0em"><tspan x="485" y="696.604">&#x446;&#x435;&#x43d;&#x430;</tspan></text>
<text id="label_area" fill="white" style="white-space: pre" xml:space="preserve" font-family="Montserrat" font-size="12" letter-spacing="0em"><tspan x="499" y="774.604">00,00 &#x43c;&#xb2;</tspan></text>
<text id="label_name" fill="white" style="white-space: pre" xml:space="preserve" font-family="Montserrat" font-size="12" letter-spacing="0em"><tspan x="530" y="637.604">202</tspan></text>
<g id="label_busy">
<path id="form" d="M519.072 628.939H524.928L527.856 634.011L524.928 639.083H519.072L516.144 634.011L519.072 628.939Z" fill="url(#paint0_radial_38_3207)"/>
<text id="&#195;&#145;&#194;&#129;&#195;&#144;&#194;&#180;&#195;&#144;&#194;&#176;&#195;&#144;&#194;&#189;" fill="black" style="white-space: pre" xml:space="preserve" font-family="Montserrat" font-size="4" letter-spacing="0em"><tspan x="517" y="634.88">&#x441;&#x434;&#x430;&#x43d;</tspan></text>
</g>
</g>
<g id="room_207_3">
<path id="poly_2" d="M568.5 779H682C687.523 779 692 774.523 692 769V713.5C692 707.977 687.523 703.5 682 703.5H568.5C562.977 703.5 558.5 707.977 558.5 713.5V769C558.5 774.523 562.977 779 568.5 779Z" fill="#375A6D"/>
<path id="Rectangle 541" d="M695 725H689V757H695V725Z" fill="#8FB6F9"/>
<path id="label_lock_2" d="M617 738V735.5C617 735.074 617.028 734.658 617.083 734.25M629 738V735.5C629 733.977 628.629 732.49 627.936 731.236C627.243 729.983 626.262 729.023 625.121 728.485C623.981 727.946 622.737 727.854 621.554 728.221C620.372 728.588 619.306 729.397 618.5 730.539M622 753H619C616.172 753 614.757 753 613.879 751.901C613 750.804 613 749.035 613 745.5C613 741.965 613 740.197 613.879 739.099C614.757 738 616.172 738 619 738H627C629.828 738 631.243 738 632.121 739.099C633 740.197 633 741.965 633 745.5C633 749.035 633 750.804 632.121 751.901C631.243 753 629.828 753 627 753H626" stroke="#EADB5A" stroke-linecap="round"/>
<text id="label_price_2" fill="white" style="white-space: pre" xml:space="preserve" font-family="Montserrat" font-size="12" letter-spacing="0em"><tspan x="563" y="743.604">&#x446;&#x435;&#x43d;&#x430;</tspan></text>
<text id="label_area_2" fill="white" style="white-space: pre" xml:space="preserve" font-family="Montserrat" font-size="12" letter-spacing="0em"><tspan x="637" y="773.604">00,00 &#x43c;&#xb2;</tspan></text>
<text id="label_name_2" fill="white" style="white-space: pre" xml:space="preserve" font-family="Montserrat" font-size="12" letter-spacing="0em"><tspan x="654.856" y="717.802">207&#x412;</tspan></text>
<g id="label_busy_2">
<path id="form_2" d="M643.928 709.139H649.784L652.712 714.211L649.784 719.283H643.928L641 714.211L643.928 709.139Z" fill="url(#paint1_radial_38_3207)"/>
<text id="&#195;&#145;&#194;&#129;&#195;&#144;&#194;&#180;&#195;&#144;&#194;&#176;&#195;&#144;&#194;&#189;_2" fill="black" style="white-space: pre" xml:space="preserve" font-family="Montserrat" font-size="4" letter-spacing="0em"><tspan x="641.856" y="715.08">&#x441;&#x434;&#x430;&#x43d;</tspan></text>
</g>
</g>
<g id="room_207_2+">
<path id="poly_3" d="M682 634.5H599C593.477 634.5 589 638.977 589 644.5V689.5C589 695.023 593.477 699.5 599 699.5H682C687.523 699.5 692 695.023 692 689.5V644.5C692 638.977 687.523 634.5 682 634.5Z" fill="#375A6D"/>
<path id="label_lock_3" d="M635 661V658.5C635 658.074 635.028 657.658 635.083 657.25M647 661V658.5C647 656.977 646.629 655.49 645.936 654.236C645.243 652.983 644.262 652.023 643.121 651.485C641.981 650.946 640.737 650.854 639.554 651.221C638.372 651.588 637.306 652.397 636.5 653.539M640 676H637C634.172 676 632.757 676 631.879 674.901C631 673.804 631 672.035 631 668.5C631 664.965 631 663.197 631.879 662.099C632.757 661 634.172 661 637 661H645C647.828 661 649.243 661 650.121 662.099C651 663.197 651 664.965 651 668.5C651 672.035 651 673.804 650.121 674.901C649.243 676 647.828 676 645 676H644" stroke="#EADB5A" stroke-linecap="round"/>
<text id="label_price_3" fill="white" style="white-space: pre" xml:space="preserve" font-family="Montserrat" font-size="12" letter-spacing="0em"><tspan x="594" y="670.604">&#x446;&#x435;&#x43d;&#x430;</tspan></text>
<text id="label_area_3" fill="white" style="white-space: pre" xml:space="preserve" font-family="Montserrat" font-size="12" letter-spacing="0em"><tspan x="637" y="694.604">00,00 &#x43c;&#xb2;</tspan></text>
<text id="label_name_3" fill="white" style="white-space: pre" xml:space="preserve" font-family="Montserrat" font-size="12" letter-spacing="0em"><tspan x="650.856" y="649.802">207&#x411;+</tspan></text>
<g id="label_busy_3">
<path id="form_3" d="M639.928 641.141H645.784L648.712 646.213L645.784 651.284H639.928L637 646.213L639.928 641.141Z" fill="url(#paint2_radial_38_3207)"/>
<text id="&#195;&#145;&#194;&#129;&#195;&#144;&#194;&#180;&#195;&#144;&#194;&#176;&#195;&#144;&#194;&#189;_3" fill="black" style="white-space: pre" xml:space="preserve" font-family="Montserrat" font-size="4" letter-spacing="0em"><tspan x="637.856" y="647.082">&#x441;&#x434;&#x430;&#x43d;</tspan></text>
</g>
</g>
<g id="room_207_2">
<path id="poly_4" d="M682 570.5H599C593.477 570.5 589 574.977 589 580.5V620.5C589 626.023 593.477 630.5 599 630.5H682C687.523 630.5 692 626.023 692 620.5V580.5C692 574.977 687.523 570.5 682 570.5Z" fill="#375A6D"/>
<path id="Rectangle 540" d="M695 585H689V617H695V585Z" fill="#8FB6F9"/>
<path id="label_lock_4" d="M635 597V594.5C635 594.074 635.028 593.658 635.083 593.25M647 597V594.5C647 592.977 646.629 591.49 645.936 590.236C645.243 588.983 644.262 588.023 643.121 587.485C641.981 586.946 640.737 586.854 639.554 587.221C638.372 587.588 637.306 588.397 636.5 589.539M640 612H637C634.172 612 632.757 612 631.879 610.901C631 609.804 631 608.035 631 604.5C631 600.965 631 599.197 631.879 598.099C632.757 597 634.172 597 637 597H645C647.828 597 649.243 597 650.121 598.099C651 599.197 651 600.965 651 604.5C651 608.035 651 609.804 650.121 610.901C649.243 612 647.828 612 645 612H644" stroke="#EADB5A" stroke-linecap="round"/>
<text id="label_price_4" fill="white" style="white-space: pre" xml:space="preserve" font-family="Montserrat" font-size="12" letter-spacing="0em"><tspan x="594" y="604.604">&#x446;&#x435;&#x43d;&#x430;</tspan></text>
<text id="label_area_4" fill="white" style="white-space: pre" xml:space="preserve" font-family="Montserrat" font-size="12" letter-spacing="0em"><tspan x="637" y="625.604">00,00 &#x43c;&#xb2;</tspan></text>
<text id="label_name_4" fill="white" style="white-space: pre" xml:space="preserve" font-family="Montserrat" font-size="12" letter-spacing="0em"><tspan x="655.856" y="583.802">207&#x411;</tspan></text>
<g id="label_busy_4">
<path id="form_4" d="M644.928 575.147H650.784L653.712 580.218L650.784 585.29H644.928L642 580.218L644.928 575.147Z" fill="url(#paint3_radial_38_3207)"/>
<text id="&#195;&#145;&#194;&#129;&#195;&#144;&#194;&#180;&#195;&#144;&#194;&#176;&#195;&#144;&#194;&#189;_4" fill="black" style="white-space: pre" xml:space="preserve" font-family="Montserrat" font-size="4" letter-spacing="0em"><tspan x="642.856" y="581.087">&#x441;&#x434;&#x430;&#x43d;</tspan></text>
</g>
</g>
<g id="room_207_1">
<path id="poly_5" d="M682 475H564C558.477 475 554 479.477 554 485V548.5C554 554.023 558.477 558.5 564 558.5H682C687.523 558.5 692 554.023 692 548.5V485C692 479.477 687.523 475 682 475Z" fill="#375A6D"/>
<path id="Rectangle 539" d="M695 501H689V533H695V501Z" fill="#8FB6F9"/>
<path id="label_lock_5" d="M617 514V511.5C617 511.074 617.028 510.658 617.083 510.25M629 514V511.5C629 509.977 628.629 508.49 627.936 507.236C627.243 505.983 626.262 505.023 625.121 504.485C623.981 503.946 622.737 503.854 621.554 504.221C620.372 504.588 619.306 505.397 618.5 506.539M622 529H619C616.172 529 614.757 529 613.879 527.901C613 526.804 613 525.035 613 521.5C613 517.965 613 516.197 613.879 515.099C614.757 514 616.172 514 619 514H627C629.828 514 631.243 514 632.121 515.099C633 516.197 633 517.965 633 521.5C633 525.035 633 526.804 632.121 527.901C631.243 529 629.828 529 627 529H626" stroke="#EADB5A" stroke-linecap="round"/>
<text id="label_price_5" fill="white" style="white-space: pre" xml:space="preserve" font-family="Montserrat" font-size="12" letter-spacing="0em"><tspan x="561" y="522.604">&#x446;&#x435;&#x43d;&#x430;</tspan></text>
<text id="label_area_5" fill="white" style="white-space: pre" xml:space="preserve" font-family="Montserrat" font-size="12" letter-spacing="0em"><tspan x="637" y="553.604">00,00 &#x43c;&#xb2;</tspan></text>
<text id="label_name_5" fill="white" style="white-space: pre" xml:space="preserve" font-family="Montserrat" font-size="12" letter-spacing="0em"><tspan x="654.856" y="492.802">207A</tspan></text>
<g id="label_busy_5">
<path id="form_5" d="M643.928 484.147H649.784L652.712 489.219L649.784 494.291H643.928L641 489.219L643.928 484.147Z" fill="url(#paint4_radial_38_3207)"/>
<text id="&#195;&#145;&#194;&#129;&#195;&#144;&#194;&#180;&#195;&#144;&#194;&#176;&#195;&#144;&#194;&#189;_5" fill="black" style="white-space: pre" xml:space="preserve" font-family="Montserrat" font-size="4" letter-spacing="0em"><tspan x="641.856" y="490.088">&#x441;&#x434;&#x430;&#x43d;</tspan></text>
</g>
</g>
<g id="room_207+">
<path id="poly_6" d="M564 394H682C687.523 394 692 398.477 692 404V459.5C692 465.023 687.523 469.5 682 469.5H564C558.477 469.5 554 465.023 554 459.5V404C554 398.477 558.477 394 564 394Z" fill="#375A6D"/>
<path id="Rectangle 538" d="M695 416H689V448H695V416Z" fill="#8FB6F9"/>
<path id="label_lock_6" d="M617 429V426.5C617 426.074 617.028 425.658 617.083 425.25M629 429V426.5C629 424.977 628.629 423.49 627.936 422.236C627.243 420.983 626.262 420.023 625.121 419.485C623.981 418.946 622.737 418.854 621.554 419.221C620.372 419.588 619.306 420.397 618.5 421.539M622 444H619C616.172 444 614.757 444 613.879 442.901C613 441.804 613 440.035 613 436.5C613 432.965 613 431.197 613.879 430.099C614.757 429 616.172 429 619 429H627C629.828 429 631.243 429 632.121 430.099C633 431.197 633 432.965 633 436.5C633 440.035 633 441.804 632.121 442.901C631.243 444 629.828 444 627 444H626" stroke="#EADB5A" stroke-linecap="round"/>
<text id="label_price_6" fill="white" style="white-space: pre" xml:space="preserve" font-family="Montserrat" font-size="12" letter-spacing="0em"><tspan x="561" y="435.604">&#x446;&#x435;&#x43d;&#x430;</tspan></text>
<text id="label_area_6" fill="white" style="white-space: pre" xml:space="preserve" font-family="Montserrat" font-size="12" letter-spacing="0em"><tspan x="637" y="464.604">00,00 &#x43c;&#xb2;</tspan></text>
<text id="label_name_6" fill="white" style="white-space: pre" xml:space="preserve" font-family="Montserrat" font-size="12" letter-spacing="0em"><tspan x="658.856" y="409.802">207+</tspan></text>
<g id="label_busy_6">
<path id="form_6" d="M647.928 401.149H653.784L656.712 406.22L653.784 411.292H647.928L645 406.22L647.928 401.149Z" fill="url(#paint5_radial_38_3207)"/>
<text id="&#195;&#145;&#194;&#129;&#195;&#144;&#194;&#180;&#195;&#144;&#194;&#176;&#195;&#144;&#194;&#189;_6" fill="black" style="white-space: pre" xml:space="preserve" font-family="Montserrat" font-size="4" letter-spacing="0em"><tspan x="645.856" y="407.089">&#x441;&#x434;&#x430;&#x43d;</tspan></text>
</g>
</g>
<g id="room_213">
<path id="poly_7" d="M682 303H599C593.477 303 589 307.477 589 313V354.5C589 360.023 593.477 364.5 599 364.5H682C687.523 364.5 692 360.023 692 354.5V313C692 307.477 687.523 303 682 303Z" fill="#375A6D"/>
<path id="Rectangle 529" d="M695 318H689V350H695V318Z" fill="#8FB6F9"/>
<path id="label_lock_7" d="M635 329V326.5C635 326.074 635.028 325.658 635.083 325.25M647 329V326.5C647 324.977 646.629 323.49 645.936 322.236C645.243 320.983 644.262 320.023 643.121 319.485C641.981 318.946 640.737 318.854 639.554 319.221C638.372 319.588 637.306 320.397 636.5 321.539M640 344H637C634.172 344 632.757 344 631.879 342.901C631 341.804 631 340.035 631 336.5C631 332.965 631 331.197 631.879 330.099C632.757 329 634.172 329 637 329H645C647.828 329 649.243 329 650.121 330.099C651 331.197 651 332.965 651 336.5C651 340.035 651 341.804 650.121 342.901C649.243 344 647.828 344 645 344H644" stroke="#EADB5A" stroke-linecap="round"/>
<text id="label_price_7" fill="white" style="white-space: pre" xml:space="preserve" font-family="Montserrat" font-size="12" letter-spacing="0em"><tspan x="594" y="337.604">&#x446;&#x435;&#x43d;&#x430;</tspan></text>
<text id="label_area_7" fill="white" style="white-space: pre" xml:space="preserve" font-family="Montserrat" font-size="12" letter-spacing="0em"><tspan x="637" y="359.604">00,00 &#x43c;&#xb2;</tspan></text>
<text id="label_name_7" fill="white" style="white-space: pre" xml:space="preserve" font-family="Montserrat" font-size="12" letter-spacing="0em"><tspan x="668" y="316.604">213</tspan></text>
<g id="label_busy_7">
<path id="form_7" d="M657.072 307.954H662.928L665.856 313.026L662.928 318.097H657.072L654.144 313.026L657.072 307.954Z" fill="url(#paint6_radial_38_3207)"/>
<text id="&#195;&#145;&#194;&#129;&#195;&#144;&#194;&#180;&#195;&#144;&#194;&#176;&#195;&#144;&#194;&#189;_7" fill="black" style="white-space: pre" xml:space="preserve" font-family="Montserrat" font-size="4" letter-spacing="0em"><tspan x="655" y="313.895">&#x441;&#x434;&#x430;&#x43d;</tspan></text>
</g>
</g>
<g id="room_212">
<path id="poly_8" d="M682 225H599C593.477 225 589 229.477 589 235V289C589 294.523 593.477 299 599 299H682C687.523 299 692 294.523 692 289V235C692 229.477 687.523 225 682 225Z" fill="#375A6D"/>
<path id="Rectangle 528" d="M695 246H689V278H695V246Z" fill="#8FB6F9"/>
<path id="label_lock_8" d="M635 257V254.5C635 254.074 635.028 253.658 635.083 253.25M647 257V254.5C647 252.977 646.629 251.49 645.936 250.236C645.243 248.983 644.262 248.023 643.121 247.485C641.981 246.946 640.737 246.854 639.554 247.221C638.372 247.588 637.306 248.397 636.5 249.539M640 272H637C634.172 272 632.757 272 631.879 270.901C631 269.804 631 268.035 631 264.5C631 260.965 631 259.197 631.879 258.099C632.757 257 634.172 257 637 257H645C647.828 257 649.243 257 650.121 258.099C651 259.197 651 260.965 651 264.5C651 268.035 651 269.804 650.121 270.901C649.243 272 647.828 272 645 272H644" stroke="#EADB5A" stroke-linecap="round"/>
<text id="label_price_8" fill="white" style="white-space: pre" xml:space="preserve" font-family="Montserrat" font-size="12" letter-spacing="0em"><tspan x="594" y="265.604">&#x446;&#x435;&#x43d;&#x430;</tspan></text>
<text id="label_area_8" fill="white" style="white-space: pre" xml:space="preserve" font-family="Montserrat" font-size="12" letter-spacing="0em"><tspan x="637" y="294.604">00,00 &#x43c;&#xb2;</tspan></text>
<text id="label_name_8" fill="white" style="white-space: pre" xml:space="preserve" font-family="Montserrat" font-size="12" letter-spacing="0em"><tspan x="668" y="239.604">212</tspan></text>
<g id="label_busy_8">
<path id="form_8" d="M657.072 230.955H662.928L665.856 236.026L662.928 241.098H657.072L654.144 236.026L657.072 230.955Z" fill="url(#paint7_radial_38_3207)"/>
<text id="&#195;&#145;&#194;&#129;&#195;&#144;&#194;&#180;&#195;&#144;&#194;&#176;&#195;&#144;&#194;&#189;_8" fill="black" style="white-space: pre" xml:space="preserve" font-family="Montserrat" font-size="4" letter-spacing="0em"><tspan x="655" y="236.896">&#x441;&#x434;&#x430;&#x43d;</tspan></text>
</g>
</g>
<g id="room_214">
<path id="poly_9" d="M682 150H599C593.477 150 589 154.477 589 160V211C589 216.523 593.477 221 599 221H682C687.523 221 692 216.523 692 211V160C692 154.477 687.523 150 682 150Z" fill="#375A6D"/>
<path id="Rectangle 527" d="M695 170H689V202H695V170Z" fill="#8FB6F9"/>
<path id="label_lock_9" d="M635 181V178.5C635 178.074 635.028 177.658 635.083 177.25M647 181V178.5C647 176.977 646.629 175.49 645.936 174.236C645.243 172.983 644.262 172.023 643.121 171.485C641.981 170.946 640.737 170.854 639.554 171.221C638.372 171.588 637.306 172.397 636.5 173.539M640 196H637C634.172 196 632.757 196 631.879 194.901C631 193.804 631 192.035 631 188.5C631 184.965 631 183.197 631.879 182.099C632.757 181 634.172 181 637 181H645C647.828 181 649.243 181 650.121 182.099C651 183.197 651 184.965 651 188.5C651 192.035 651 193.804 650.121 194.901C649.243 196 647.828 196 645 196H644" stroke="#EADB5A" stroke-linecap="round"/>
<text id="label_price_9" fill="white" style="white-space: pre" xml:space="preserve" font-family="Montserrat" font-size="12" letter-spacing="0em"><tspan x="594" y="189.604">&#x446;&#x435;&#x43d;&#x430;</tspan></text>
<text id="label_area_9" fill="white" style="white-space: pre" xml:space="preserve" font-family="Montserrat" font-size="12" letter-spacing="0em"><tspan x="637" y="216.604">00,00 &#x43c;&#xb2;</tspan></text>
<text id="label_name_9" fill="white" style="white-space: pre" xml:space="preserve" font-family="Montserrat" font-size="12" letter-spacing="0em"><tspan x="668" y="163.604">214</tspan></text>
<g id="label_busy_9">
<path id="form_9" d="M657.072 154.962H662.928L665.856 160.034L662.928 165.106H657.072L654.144 160.034L657.072 154.962Z" fill="url(#paint8_radial_38_3207)"/>
<text id="&#195;&#145;&#194;&#129;&#195;&#144;&#194;&#180;&#195;&#144;&#194;&#176;&#195;&#144;&#194;&#189;_9" fill="black" style="white-space: pre" xml:space="preserve" font-family="Montserrat" font-size="4" letter-spacing="0em"><tspan x="655" y="160.903">&#x441;&#x434;&#x430;&#x43d;</tspan></text>
</g>
</g>
<g id="room_215">
<path id="poly_10" d="M682 83.5H599C593.477 83.5 589 87.9772 589 93.5V136C589 141.523 593.477 146 599 146H682C687.523 146 692 141.523 692 136V93.5C692 87.9772 687.523 83.5 682 83.5Z" fill="#375A6D"/>
<path id="Rectangle 526" d="M695 99H689V131H695V99Z" fill="#8FB6F9"/>
<path id="label_lock_10" d="M635 110V107.5C635 107.074 635.028 106.658 635.083 106.25M647 110V107.5C647 105.977 646.629 104.49 645.936 103.236C645.243 101.983 644.262 101.023 643.121 100.485C641.981 99.9458 640.737 99.8539 639.554 100.221C638.372 100.588 637.306 101.397 636.5 102.539M640 125H637C634.172 125 632.757 125 631.879 123.901C631 122.804 631 121.035 631 117.5C631 113.965 631 112.197 631.879 111.099C632.757 110 634.172 110 637 110H645C647.828 110 649.243 110 650.121 111.099C651 112.197 651 113.965 651 117.5C651 121.035 651 122.804 650.121 123.901C649.243 125 647.828 125 645 125H644" stroke="#EADB5A" stroke-linecap="round"/>
<text id="label_price_10" fill="white" style="white-space: pre" xml:space="preserve" font-family="Montserrat" font-size="12" letter-spacing="0em"><tspan x="594" y="118.604">&#x446;&#x435;&#x43d;&#x430;</tspan></text>
<text id="label_area_10" fill="white" style="white-space: pre" xml:space="preserve" font-family="Montserrat" font-size="12" letter-spacing="0em"><tspan x="637" y="141.604">00,00 &#x43c;&#xb2;</tspan></text>
<text id="label_name_10" fill="white" style="white-space: pre" xml:space="preserve" font-family="Montserrat" font-size="12" letter-spacing="0em"><tspan x="668" y="97.604">215</tspan></text>
<g id="label_busy_10">
<path id="form_10" d="M657.072 88.9639H662.928L665.856 94.0357L662.928 99.1075H657.072L654.144 94.0357L657.072 88.9639Z" fill="url(#paint9_radial_38_3207)"/>
<text id="&#195;&#145;&#194;&#129;&#195;&#144;&#194;&#180;&#195;&#144;&#194;&#176;&#195;&#144;&#194;&#189;_10" fill="black" style="white-space: pre" xml:space="preserve" font-family="Montserrat" font-size="4" letter-spacing="0em"><tspan x="655" y="94.9045">&#x441;&#x434;&#x430;&#x43d;</tspan></text>
</g>
</g>
<g id="room_215+">
<path id="poly_11" d="M682 3H599C593.477 3 589 7.47715 589 13V69.5C589 75.0229 593.477 79.5 599 79.5H682C687.523 79.5 692 75.0229 692 69.5V13C692 7.47715 687.523 3 682 3Z" fill="#375A6D"/>
<path id="Rectangle 525" d="M695 25H689V57H695V25Z" fill="#8FB6F9"/>
<path id="label_lock_11" d="M635 36.0003V33.5004C635 33.0745 635.028 32.6579 635.083 32.2504M647 36.0003V33.5004C647 31.9769 646.629 30.4896 645.936 29.2363C645.243 27.983 644.262 27.0231 643.121 26.4845C641.981 25.9458 640.737 25.8539 639.554 26.221C638.372 26.588 637.306 27.3966 636.5 28.5392M640 51H637C634.172 51 632.757 51 631.879 49.9013C631 48.8038 631 47.0351 631 43.5002C631 39.9652 631 38.1965 631.879 37.099C632.757 36.0003 634.172 36.0003 637 36.0003H645C647.828 36.0003 649.243 36.0003 650.121 37.099C651 38.1965 651 39.9652 651 43.5002C651 47.0351 651 48.8038 650.121 49.9013C649.243 51 647.828 51 645 51H644" stroke="#EADB5A" stroke-linecap="round"/>
<text id="label_price_11" fill="white" style="white-space: pre" xml:space="preserve" font-family="Montserrat" font-size="12" letter-spacing="0em"><tspan x="594" y="44.604">&#x446;&#x435;&#x43d;&#x430;</tspan></text>
<text id="label_area_11" fill="white" style="white-space: pre" xml:space="preserve" font-family="Montserrat" font-size="12" letter-spacing="0em"><tspan x="637" y="74.604">00,00 &#x43c;&#xb2;</tspan></text>
<text id="label_name_11" fill="white" style="white-space: pre" xml:space="preserve" font-family="Montserrat" font-size="12" letter-spacing="0em"><tspan x="662.856" y="16.802">215+</tspan></text>
<g id="label_busy_11">
<path id="form_11" d="M651.928 8.16235H657.784L660.712 13.2342L657.784 18.306H651.928L649 13.2342L651.928 8.16235Z" fill="url(#paint10_radial_38_3207)"/>
<text id="&#195;&#145;&#194;&#129;&#195;&#144;&#194;&#180;&#195;&#144;&#194;&#176;&#195;&#144;&#194;&#189;_11" fill="black" style="white-space: pre" xml:space="preserve" font-family="Montserrat" font-size="4" letter-spacing="0em"><tspan x="649.856" y="14.1034">&#x441;&#x434;&#x430;&#x43d;</tspan></text>
</g>
</g>
<g id="room_201">
<path id="poly_12" d="M477 634V769C477 774.523 472.523 779 467 779H413C407.477 779 403 774.523 403 769V634C403 628.477 407.477 624 413 624H467C472.523 624 477 628.477 477 634Z" fill="#375A6D"/>
<path id="label_lock_12" d="M434 697V694.5C434 694.074 434.028 693.658 434.083 693.25M446 697V694.5C446 692.977 445.629 691.49 444.936 690.236C444.243 688.983 443.262 688.023 442.121 687.485C440.981 686.946 439.737 686.854 438.554 687.221C437.372 687.588 436.306 688.397 435.5 689.539M439 712H436C433.172 712 431.757 712 430.879 710.901C430 709.804 430 708.035 430 704.5C430 700.965 430 699.197 430.879 698.099C431.757 697 433.172 697 436 697H444C446.828 697 448.243 697 449.121 698.099C450 699.197 450 700.965 450 704.5C450 708.035 450 709.804 449.121 710.901C448.243 712 446.828 712 444 712H443" stroke="#EADB5A" stroke-linecap="round"/>
<text id="label_price_12" fill="white" style="white-space: pre" xml:space="preserve" font-family="Montserrat" font-size="12" letter-spacing="0em"><tspan x="408" y="696.604">&#x446;&#x435;&#x43d;&#x430;</tspan></text>
<text id="label_area_12" fill="white" style="white-space: pre" xml:space="preserve" font-family="Montserrat" font-size="12" letter-spacing="0em"><tspan x="418" y="773.604">00,00 &#x43c;&#xb2;</tspan></text>
<text id="label_name_12" fill="white" style="white-space: pre" xml:space="preserve" font-family="Montserrat" font-size="12" letter-spacing="0em"><tspan x="451" y="637.604">201</tspan></text>
<g id="label_busy_12">
<path id="form_12" d="M440.072 628.942H445.928L448.856 634.014L445.928 639.086H440.072L437.144 634.014L440.072 628.942Z" fill="url(#paint11_radial_38_3207)"/>
<text id="&#195;&#145;&#194;&#129;&#195;&#144;&#194;&#180;&#195;&#144;&#194;&#176;&#195;&#144;&#194;&#189;_12" fill="black" style="white-space: pre" xml:space="preserve" font-family="Montserrat" font-size="4" letter-spacing="0em"><tspan x="438" y="634.883">&#x441;&#x434;&#x430;&#x43d;</tspan></text>
</g>
</g>
<g id="room_205+">
<path id="poly_13" d="M388 644V769C388 774.523 383.523 779 378 779H325.5C319.977 779 315.5 774.523 315.5 769V644C315.5 638.477 319.977 634 325.5 634H378C383.523 634 388 638.477 388 644Z" fill="#375A6D"/>
<path id="Rectangle 548" d="M362 782V776H342V782H362Z" fill="#8FB6F9"/>
<path id="label_lock_13" d="M346 705V702.5C346 702.074 346.028 701.658 346.083 701.25M358 705V702.5C358 700.977 357.629 699.49 356.936 698.236C356.243 696.983 355.262 696.023 354.121 695.485C352.981 694.946 351.737 694.854 350.554 695.221C349.372 695.588 348.306 696.397 347.5 697.539M351 720H348C345.172 720 343.757 720 342.879 718.901C342 717.804 342 716.035 342 712.5C342 708.965 342 707.197 342.879 706.099C343.757 705 345.172 705 348 705H356C358.828 705 360.243 705 361.121 706.099C362 707.197 362 708.965 362 712.5C362 716.035 362 717.804 361.121 718.901C360.243 720 358.828 720 356 720H355" stroke="#EADB5A" stroke-linecap="round"/>
<text id="label_price_13" fill="white" style="white-space: pre" xml:space="preserve" font-family="Montserrat" font-size="12" letter-spacing="0em"><tspan x="319" y="710.604">&#x446;&#x435;&#x43d;&#x430;</tspan></text>
<text id="label_area_13" fill="white" style="white-space: pre" xml:space="preserve" font-family="Montserrat" font-size="12" letter-spacing="0em"><tspan x="330" y="773.604">00,00 &#x43c;&#xb2;</tspan></text>
<text id="label_name_13" fill="white" style="white-space: pre" xml:space="preserve" font-family="Montserrat" font-size="12" letter-spacing="0em"><tspan x="354.856" y="649.802">205+</tspan></text>
<g id="label_busy_13">
<path id="form_13" d="M343.928 641.144H349.784L352.712 646.215L349.784 651.287H343.928L341 646.215L343.928 641.144Z" fill="url(#paint12_radial_38_3207)"/>
<text id="&#195;&#145;&#194;&#129;&#195;&#144;&#194;&#180;&#195;&#144;&#194;&#176;&#195;&#144;&#194;&#189;_13" fill="black" style="white-space: pre" xml:space="preserve" font-family="Montserrat" font-size="4" letter-spacing="0em"><tspan x="341.856" y="647.084">&#x441;&#x434;&#x430;&#x43d;</tspan></text>
</g>
</g>
<g id="room_204+">
<path id="poly_14" d="M378 579H329.5C323.977 579 319.5 574.523 319.5 569V485C319.5 479.477 323.977 475 329.5 475H378C383.523 475 388 479.477 388 485V569C388 574.523 383.523 579 378 579Z" fill="#375A6D"/>
<path id="Rectangle 535" d="M368 478V472H340V478H368Z" fill="#8FB6F9"/>
<path id="label_lock_14" d="M348 521V518.5C348 518.074 348.028 517.658 348.083 517.25M360 521V518.5C360 516.977 359.629 515.49 358.936 514.236C358.243 512.983 357.262 512.023 356.121 511.485C354.981 510.946 353.737 510.854 352.554 511.221C351.372 511.588 350.306 512.397 349.5 513.539M353 536H350C347.172 536 345.757 536 344.879 534.901C344 533.804 344 532.035 344 528.5C344 524.965 344 523.197 344.879 522.099C345.757 521 347.172 521 350 521H358C360.828 521 362.243 521 363.121 522.099C364 523.197 364 524.965 364 528.5C364 532.035 364 533.804 363.121 534.901C362.243 536 360.828 536 358 536H357" stroke="#EADB5A" stroke-linecap="round"/>
<text id="label_price_14" fill="white" style="white-space: pre" xml:space="preserve" font-family="Montserrat" font-size="10" letter-spacing="0em"><tspan x="324" y="528.17">&#x446;&#x435;&#x43d;&#x430;</tspan></text>
<text id="label_area_14" fill="white" style="white-space: pre" xml:space="preserve" font-family="Montserrat" font-size="12" letter-spacing="0em"><tspan x="330" y="574.604">00,00 &#x43c;&#xb2;</tspan></text>
<text id="label_name_14" fill="white" style="white-space: pre" xml:space="preserve" font-family="Montserrat" font-size="12" letter-spacing="0em"><tspan x="353.856" y="491.802">204+</tspan></text>
<g id="label_busy_14">
<path id="form_14" d="M342.928 483.148H348.784L351.712 488.22L348.784 493.292H342.928L340 488.22L342.928 483.148Z" fill="url(#paint13_radial_38_3207)"/>
<text id="&#195;&#145;&#194;&#129;&#195;&#144;&#194;&#180;&#195;&#144;&#194;&#176;&#195;&#144;&#194;&#189;_14" fill="black" style="white-space: pre" xml:space="preserve" font-family="Montserrat" font-size="4" letter-spacing="0em"><tspan x="340.856" y="489.089">&#x441;&#x434;&#x430;&#x43d;</tspan></text>
</g>
</g>
<g id="room_208">
<path id="poly_15" d="M396 438V344C396 338.477 400.477 334 406 334H478C483.523 334 488 338.477 488 344V438C488 443.523 483.523 448 478 448H406C400.477 448 396 443.523 396 438Z" fill="#375A6D"/>
<path id="Rectangle 533" d="M399 375H393V407H399V375Z" fill="#8FB6F9"/>
<path id="label_lock_15" d="M436 388V385.5C436 385.074 436.028 384.658 436.083 384.25M448 388V385.5C448 383.977 447.629 382.49 446.936 381.236C446.243 379.983 445.262 379.023 444.121 378.485C442.981 377.946 441.737 377.854 440.554 378.221C439.372 378.588 438.306 379.397 437.5 380.539M441 403H438C435.172 403 433.757 403 432.879 401.901C432 400.804 432 399.035 432 395.5C432 391.965 432 390.197 432.879 389.099C433.757 388 435.172 388 438 388H446C448.828 388 450.243 388 451.121 389.099C452 390.197 452 391.965 452 395.5C452 399.035 452 400.804 451.121 401.901C450.243 403 448.828 403 446 403H445" stroke="#EADB5A" stroke-linecap="round"/>
<text id="label_price_15" fill="white" style="white-space: pre" xml:space="preserve" font-family="Montserrat" font-size="12" letter-spacing="0em"><tspan x="402" y="394.604">&#x446;&#x435;&#x43d;&#x430;</tspan></text>
<text id="label_area_15" fill="white" style="white-space: pre" xml:space="preserve" font-family="Montserrat" font-size="12" letter-spacing="0em"><tspan x="432" y="443.604">00,00 &#x43c;&#xb2;</tspan></text>
<text id="label_name_15" fill="white" style="white-space: pre" xml:space="preserve" font-family="Montserrat" font-size="12" letter-spacing="0em"><tspan x="463" y="348.604">208</tspan></text>
<g id="label_busy_15">
<path id="form_15" d="M452.072 339.951H457.928L460.856 345.023L457.928 350.095H452.072L449.144 345.023L452.072 339.951Z" fill="url(#paint14_radial_38_3207)"/>
<text id="&#195;&#145;&#194;&#129;&#195;&#144;&#194;&#180;&#195;&#144;&#194;&#176;&#195;&#144;&#194;&#189;_15" fill="black" style="white-space: pre" xml:space="preserve" font-family="Montserrat" font-size="4" letter-spacing="0em"><tspan x="450" y="345.892">&#x441;&#x434;&#x430;&#x43d;</tspan></text>
</g>
</g>
<g id="room_209">
<path id="poly_16" d="M523 239.5H398C392.477 239.5 388 243.977 388 249.5V309.5C388 315.023 392.477 319.5 398 319.5H523C528.523 319.5 533 315.023 533 309.5V249.5C533 243.977 528.523 239.5 523 239.5Z" fill="#375A6D"/>
<path id="Rectangle 532" d="M391 264H385V296H391V264Z" fill="#8FB6F9"/>
<path id="label_lock_16" d="M455 277V274.5C455 274.074 455.028 273.658 455.083 273.25M467 277V274.5C467 272.977 466.629 271.49 465.936 270.236C465.243 268.983 464.262 268.023 463.121 267.485C461.981 266.946 460.737 266.854 459.554 267.221C458.372 267.588 457.306 268.397 456.5 269.539M460 292H457C454.172 292 452.757 292 451.879 290.901C451 289.804 451 288.035 451 284.5C451 280.965 451 279.197 451.879 278.099C452.757 277 454.172 277 457 277H465C467.828 277 469.243 277 470.121 278.099C471 279.197 471 280.965 471 284.5C471 288.035 471 289.804 470.121 290.901C469.243 292 467.828 292 465 292H464" stroke="#EADB5A" stroke-linecap="round"/>
<text id="label_price_16" fill="white" style="white-space: pre" xml:space="preserve" font-family="Montserrat" font-size="12" letter-spacing="0em"><tspan x="400" y="283.604">&#x446;&#x435;&#x43d;&#x430;</tspan></text>
<text id="label_area_16" fill="white" style="white-space: pre" xml:space="preserve" font-family="Montserrat" font-size="12" letter-spacing="0em"><tspan x="475" y="314.604">00,00 &#x43c;&#xb2;</tspan></text>
<text id="label_name_16" fill="white" style="white-space: pre" xml:space="preserve" font-family="Montserrat" font-size="12" letter-spacing="0em"><tspan x="505.856" y="253.802">209</tspan></text>
<g id="label_busy_16">
<path id="form_16" d="M494.928 245.152H500.784L503.712 250.224L500.784 255.296H494.928L492 250.224L494.928 245.152Z" fill="url(#paint15_radial_38_3207)"/>
<text id="&#195;&#145;&#194;&#129;&#195;&#144;&#194;&#180;&#195;&#144;&#194;&#176;&#195;&#144;&#194;&#189;_16" fill="black" style="white-space: pre" xml:space="preserve" font-family="Montserrat" font-size="4" letter-spacing="0em"><tspan x="492.856" y="251.093">&#x441;&#x434;&#x430;&#x43d;</tspan></text>
</g>
</g>
<g id="room_210">
<path id="poly_17" d="M523 163H398C392.477 163 388 167.477 388 173V225.5C388 231.023 392.477 235.5 398 235.5H523C528.523 235.5 533 231.023 533 225.5V173C533 167.477 528.523 163 523 163Z" fill="#375A6D"/>
<path id="Rectangle 531" d="M391 183H385V215H391V183Z" fill="#8FB6F9"/>
<path id="label_lock_17" d="M455 196V193.5C455 193.074 455.028 192.658 455.083 192.25M467 196V193.5C467 191.977 466.629 190.49 465.936 189.236C465.243 187.983 464.262 187.023 463.121 186.485C461.981 185.946 460.737 185.854 459.554 186.221C458.372 186.588 457.306 187.397 456.5 188.539M460 211H457C454.172 211 452.757 211 451.879 209.901C451 208.804 451 207.035 451 203.5C451 199.965 451 198.197 451.879 197.099C452.757 196 454.172 196 457 196H465C467.828 196 469.243 196 470.121 197.099C471 198.197 471 199.965 471 203.5C471 207.035 471 208.804 470.121 209.901C469.243 211 467.828 211 465 211H464" stroke="#EADB5A" stroke-linecap="round"/>
<text id="label_price_17" fill="white" style="white-space: pre" xml:space="preserve" font-family="Montserrat" font-size="12" letter-spacing="0em"><tspan x="400" y="202.604">&#x446;&#x435;&#x43d;&#x430;</tspan></text>
<text id="label_area_17" fill="white" style="white-space: pre" xml:space="preserve" font-family="Montserrat" font-size="12" letter-spacing="0em"><tspan x="475" y="231.604">00,00 &#x43c;&#xb2;</tspan></text>
<text id="label_name_17" fill="white" style="white-space: pre" xml:space="preserve" font-family="Montserrat" font-size="12" letter-spacing="0em"><tspan x="509" y="178.604">210</tspan></text>
<g id="label_busy_17">
<path id="form_17" d="M498.072 169.956H503.928L506.856 175.027L503.928 180.099H498.072L495.144 175.027L498.072 169.956Z" fill="url(#paint16_radial_38_3207)"/>
<text id="&#195;&#145;&#194;&#129;&#195;&#144;&#194;&#180;&#195;&#144;&#194;&#176;&#195;&#144;&#194;&#189;_17" fill="black" style="white-space: pre" xml:space="preserve" font-family="Montserrat" font-size="4" letter-spacing="0em"><tspan x="496" y="175.897">&#x441;&#x434;&#x430;&#x43d;</tspan></text>
</g>
</g>
<g id="room_211">
<path id="poly_18" d="M520 85H395C389.477 85 385 89.4772 385 95V152C385 157.523 389.477 162 395 162H520C525.523 162 530 157.523 530 152V95C530 89.4772 525.523 85 520 85Z" fill="#375A6D"/>
<path id="Rectangle 530" d="M388 108H382V140H388V108Z" fill="#8FB6F9"/>
<path id="label_lock_18" d="M452 122V119.5C452 119.074 452.028 118.658 452.083 118.25M464 122V119.5C464 117.977 463.629 116.49 462.936 115.236C462.243 113.983 461.262 113.023 460.121 112.485C458.981 111.946 457.737 111.854 456.554 112.221C455.372 112.588 454.306 113.397 453.5 114.539M457 137H454C451.172 137 449.757 137 448.879 135.901C448 134.804 448 133.035 448 129.5C448 125.965 448 124.197 448.879 123.099C449.757 122 451.172 122 454 122H462C464.828 122 466.243 122 467.121 123.099C468 124.197 468 125.965 468 129.5C468 133.035 468 134.804 467.121 135.901C466.243 137 464.828 137 462 137H461" stroke="#EADB5A" stroke-linecap="round"/>
<text id="label_price_18" fill="white" style="white-space: pre" xml:space="preserve" font-family="Montserrat" font-size="12" letter-spacing="0em"><tspan x="397" y="127.604">&#x446;&#x435;&#x43d;&#x430;</tspan></text>
<text id="label_area_18" fill="white" style="white-space: pre" xml:space="preserve" font-family="Montserrat" font-size="12" letter-spacing="0em"><tspan x="475" y="154.604">00,00 &#x43c;&#xb2;</tspan></text>
<text id="label_name_18" fill="white" style="white-space: pre" xml:space="preserve" font-family="Montserrat" font-size="12" letter-spacing="0em"><tspan x="506" y="98.604">211</tspan></text>
<g id="label_busy_18">
<path id="form_18" d="M495.072 89.9585H500.928L503.856 95.0303L500.928 100.102H495.072L492.144 95.0303L495.072 89.9585Z" fill="url(#paint17_radial_38_3207)"/>
<text id="&#195;&#145;&#194;&#129;&#195;&#144;&#194;&#180;&#195;&#144;&#194;&#176;&#195;&#144;&#194;&#189;_18" fill="black" style="white-space: pre" xml:space="preserve" font-family="Montserrat" font-size="4" letter-spacing="0em"><tspan x="493" y="95.8993">&#x441;&#x434;&#x430;&#x43d;</tspan></text>
</g>
</g>
<g id="room_204">
<path id="poly_19" d="M305.5 579H243.5C237.977 579 233.5 574.523 233.5 569V485C233.5 479.477 237.977 475 243.5 475H305.5C311.023 475 315.5 479.477 315.5 485V569C315.5 574.523 311.023 579 305.5 579Z" fill="#375A6D"/>
<path id="Rectangle 536" d="M289 478V472H261V478H289Z" fill="#8FB6F9"/>
<path id="label_lock_19" d="M269 521V518.5C269 518.074 269.028 517.658 269.083 517.25M281 521V518.5C281 516.977 280.629 515.49 279.936 514.236C279.243 512.983 278.262 512.023 277.121 511.485C275.981 510.946 274.737 510.854 273.554 511.221C272.372 511.588 271.306 512.397 270.5 513.539M274 536H271C268.172 536 266.757 536 265.879 534.901C265 533.804 265 532.035 265 528.5C265 524.965 265 523.197 265.879 522.099C266.757 521 268.172 521 271 521H279C281.828 521 283.243 521 284.121 522.099C285 523.197 285 524.965 285 528.5C285 532.035 285 533.804 284.121 534.901C283.243 536 281.828 536 279 536H278" stroke="#EADB5A" stroke-linecap="round"/>
<text id="label_price_19" fill="white" style="white-space: pre" xml:space="preserve" font-family="Montserrat" font-size="10" letter-spacing="0em"><tspan x="238" y="528.17">&#x446;&#x435;&#x43d;&#x430;</tspan></text>
<text id="label_area_19" fill="white" style="white-space: pre" xml:space="preserve" font-family="Montserrat" font-size="12" letter-spacing="0em"><tspan x="258" y="574.604">00,00 &#x43c;&#xb2;</tspan></text>
<text id="label_name_19" fill="white" style="white-space: pre" xml:space="preserve" font-family="Montserrat" font-size="12" letter-spacing="0em"><tspan x="289" y="490.604">204</tspan></text>
<g id="label_busy_19">
<path id="form_19" d="M278.072 481.951H283.928L286.856 487.023L283.928 492.095H278.072L275.144 487.023L278.072 481.951Z" fill="url(#paint18_radial_38_3207)"/>
<text id="&#195;&#145;&#194;&#129;&#195;&#144;&#194;&#180;&#195;&#144;&#194;&#176;&#195;&#144;&#194;&#189;_19" fill="black" style="white-space: pre" xml:space="preserve" font-family="Montserrat" font-size="4" letter-spacing="0em"><tspan x="276" y="487.892">&#x441;&#x434;&#x430;&#x43d;</tspan></text>
</g>
</g>
<g id="room_203">
<path id="poly_20" d="M219.5 579H162C156.477 579 152 574.523 152 569V485C152 479.477 156.477 475 162 475H219.5C225.023 475 229.5 479.477 229.5 485V569C229.5 574.523 225.023 579 219.5 579Z" fill="#375A6D"/>
<path id="Rectangle 537" d="M205 478V472H177V478H205Z" fill="#8FB6F9"/>
<path id="label_lock_20" d="M185 521V518.5C185 518.074 185.028 517.658 185.083 517.25M197 521V518.5C197 516.977 196.629 515.49 195.936 514.236C195.243 512.983 194.262 512.023 193.121 511.485C191.981 510.946 190.737 510.854 189.554 511.221C188.372 511.588 187.306 512.397 186.5 513.539M190 536H187C184.172 536 182.757 536 181.879 534.901C181 533.804 181 532.035 181 528.5C181 524.965 181 523.197 181.879 522.099C182.757 521 184.172 521 187 521H195C197.828 521 199.243 521 200.121 522.099C201 523.197 201 524.965 201 528.5C201 532.035 201 533.804 200.121 534.901C199.243 536 197.828 536 195 536H194" stroke="#EADB5A" stroke-linecap="round"/>
<text id="label_price_20" fill="white" style="white-space: pre" xml:space="preserve" font-family="Montserrat" font-size="10" letter-spacing="0em"><tspan x="155" y="528.17">&#x446;&#x435;&#x43d;&#x430;</tspan></text>
<text id="label_area_20" fill="white" style="white-space: pre" xml:space="preserve" font-family="Montserrat" font-size="12" letter-spacing="0em"><tspan x="172" y="574.604">00,00 &#x43c;&#xb2;</tspan></text>
<text id="label_name_20" fill="white" style="white-space: pre" xml:space="preserve" font-family="Montserrat" font-size="12" letter-spacing="0em"><tspan x="203" y="490.604">203</tspan></text>
<g id="label_busy_20">
<path id="form_20" d="M192.072 481.954H197.928L200.856 487.026L197.928 492.098H192.072L189.144 487.026L192.072 481.954Z" fill="url(#paint19_radial_38_3207)"/>
<text id="&#195;&#145;&#194;&#129;&#195;&#144;&#194;&#180;&#195;&#144;&#194;&#176;&#195;&#144;&#194;&#189;_20" fill="black" style="white-space: pre" xml:space="preserve" font-family="Montserrat" font-size="4" letter-spacing="0em"><tspan x="190" y="487.895">&#x441;&#x434;&#x430;&#x43d;</tspan></text>
</g>
</g>
<g id="room_202_2">
<path id="poly_21" d="M89.5 569V485C89.5 479.477 93.9772 475 99.5 475H138C143.523 475 148 479.477 148 485V569C148 574.523 143.523 579 138 579H99.5C93.9772 579 89.5 574.523 89.5 569Z" fill="#375A6D"/>
<path id="Rectangle 534" d="M133 478V472H105V478H133Z" fill="#8FB6F9"/>
<path id="label_lock_21" d="M113 521V518.5C113 518.074 113.028 517.658 113.083 517.25M125 521V518.5C125 516.977 124.629 515.49 123.936 514.236C123.243 512.983 122.262 512.023 121.121 511.485C119.981 510.946 118.737 510.854 117.554 511.221C116.372 511.588 115.306 512.397 114.5 513.539M118 536H115C112.172 536 110.757 536 109.879 534.901C109 533.804 109 532.035 109 528.5C109 524.965 109 523.197 109.879 522.099C110.757 521 112.172 521 115 521H123C125.828 521 127.243 521 128.121 522.099C129 523.197 129 524.965 129 528.5C129 532.035 129 533.804 128.121 534.901C127.243 536 125.828 536 123 536H122" stroke="#EADB5A" stroke-linecap="round"/>
<text id="label_price_21" fill="white" style="white-space: pre" xml:space="preserve" font-family="Montserrat" font-size="10" letter-spacing="0em"><tspan x="94" y="528.17">&#x446;&#x435;&#x43d;&#x430;</tspan></text>
<text id="label_area_21" fill="white" style="white-space: pre" xml:space="preserve" font-family="Montserrat" font-size="12" letter-spacing="0em"><tspan x="93" y="574.604">00,00 &#x43c;&#xb2;</tspan></text>
<text id="label_name_21" fill="white" style="white-space: pre" xml:space="preserve" font-family="Montserrat" font-size="12" letter-spacing="0em"><tspan x="122" y="490.604">202</tspan></text>
<g id="label_busy_21">
<path id="form_21" d="M111.072 481.954H116.928L119.856 487.025L116.928 492.097H111.072L108.144 487.025L111.072 481.954Z" fill="url(#paint20_radial_38_3207)"/>
<text id="&#195;&#145;&#194;&#129;&#195;&#144;&#194;&#180;&#195;&#144;&#194;&#176;&#195;&#144;&#194;&#189;_21" fill="black" style="white-space: pre" xml:space="preserve" font-family="Montserrat" font-size="4" letter-spacing="0em"><tspan x="109" y="487.895">&#x441;&#x434;&#x430;&#x43d;</tspan></text>
</g>
</g>
<g id="room_205">
<path id="poly_22" d="M227.5 634H301.5C307.023 634 311.5 638.477 311.5 644V769C311.5 774.523 307.023 779 301.5 779H227.5C221.977 779 217.5 774.523 217.5 769V644C217.5 638.477 221.977 634 227.5 634Z" fill="#375A6D"/>
<path id="Rectangle 546" d="M251 782V776H231V782H251Z" fill="#8FB6F9"/>
<path id="Rectangle 547" d="M303 782V776H283V782H303Z" fill="#8FB6F9"/>
<path id="label_lock_22" d="M259 705V702.5C259 702.074 259.028 701.658 259.083 701.25M271 705V702.5C271 700.977 270.629 699.49 269.936 698.236C269.243 696.983 268.262 696.023 267.121 695.485C265.981 694.946 264.737 694.854 263.554 695.221C262.372 695.588 261.306 696.397 260.5 697.539M264 720H261C258.172 720 256.757 720 255.879 718.901C255 717.804 255 716.035 255 712.5C255 708.965 255 707.197 255.879 706.099C256.757 705 258.172 705 261 705H269C271.828 705 273.243 705 274.121 706.099C275 707.197 275 708.965 275 712.5C275 716.035 275 717.804 274.121 718.901C273.243 720 271.828 720 269 720H268" stroke="#EADB5A" stroke-linecap="round"/>
<text id="label_price_22" fill="white" style="white-space: pre" xml:space="preserve" font-family="Montserrat" font-size="12" letter-spacing="0em"><tspan x="222" y="711.604">&#x446;&#x435;&#x43d;&#x430;</tspan></text>
<text id="label_area_22" fill="white" style="white-space: pre" xml:space="preserve" font-family="Montserrat" font-size="12" letter-spacing="0em"><tspan x="254" y="773.604">00,00 &#x43c;&#xb2;</tspan></text>
<text id="label_name_22" fill="white" style="white-space: pre" xml:space="preserve" font-family="Montserrat" font-size="12" letter-spacing="0em"><tspan x="285" y="649.604">205</tspan></text>
<g id="label_busy_22">
<path id="form_22" d="M274.072 640.947H279.928L282.856 646.018L279.928 651.09H274.072L271.144 646.018L274.072 640.947Z" fill="url(#paint21_radial_38_3207)"/>
<text id="&#195;&#145;&#194;&#129;&#195;&#144;&#194;&#180;&#195;&#144;&#194;&#176;&#195;&#144;&#194;&#189;_22" fill="black" style="white-space: pre" xml:space="preserve" font-family="Montserrat" font-size="4" letter-spacing="0em"><tspan x="272" y="646.887">&#x441;&#x434;&#x430;&#x43d;</tspan></text>
</g>
</g>
<g id="room_206">
<path id="poly_23" d="M118 644V769C118 774.523 122.477 779 128 779H203.5C209.023 779 213.5 774.523 213.5 769V644C213.5 638.477 209.023 634 203.5 634H128C122.477 634 118 638.477 118 644Z" fill="#375A6D"/>
<path id="Rectangle 544" d="M151 782V776H131V782H151Z" fill="#8FB6F9"/>
<path id="Rectangle 545" d="M205 782V776H185V782H205Z" fill="#8FB6F9"/>
<path id="label_lock_23" d="M160 705V702.5C160 702.074 160.028 701.658 160.083 701.25M172 705V702.5C172 700.977 171.629 699.49 170.936 698.236C170.243 696.983 169.262 696.023 168.121 695.485C166.981 694.946 165.737 694.854 164.554 695.221C163.372 695.588 162.306 696.397 161.5 697.539M165 720H162C159.172 720 157.757 720 156.879 718.901C156 717.804 156 716.035 156 712.5C156 708.965 156 707.197 156.879 706.099C157.757 705 159.172 705 162 705H170C172.828 705 174.243 705 175.121 706.099C176 707.197 176 708.965 176 712.5C176 716.035 176 717.804 175.121 718.901C174.243 720 172.828 720 170 720H169" stroke="#EADB5A" stroke-linecap="round"/>
<text id="label_price_23" fill="white" style="white-space: pre" xml:space="preserve" font-family="Montserrat" font-size="12" letter-spacing="0em"><tspan x="122" y="711.604">&#x446;&#x435;&#x43d;&#x430;</tspan></text>
<text id="label_area_23" fill="white" style="white-space: pre" xml:space="preserve" font-family="Montserrat" font-size="12" letter-spacing="0em"><tspan x="156" y="773.604">00,00 &#x43c;&#xb2;</tspan></text>
<text id="label_name_23" fill="white" style="white-space: pre" xml:space="preserve" font-family="Montserrat" font-size="12" letter-spacing="0em"><tspan x="187" y="649.604">206</tspan></text>
<g id="label_busy_23">
<path id="form_23" d="M176.072 640.948H181.928L184.856 646.02L181.928 651.091H176.072L173.144 646.02L176.072 640.948Z" fill="url(#paint22_radial_38_3207)"/>
<text id="&#195;&#145;&#194;&#129;&#195;&#144;&#194;&#180;&#195;&#144;&#194;&#176;&#195;&#144;&#194;&#189;_23" fill="black" style="white-space: pre" xml:space="preserve" font-family="Montserrat" font-size="4" letter-spacing="0em"><tspan x="174" y="646.889">&#x441;&#x434;&#x430;&#x43d;</tspan></text>
</g>
</g>
<g id="room_200">
<path id="poly_24" d="M27.5 634H104C109.523 634 114 638.477 114 644V769C114 774.523 109.523 779 104 779H27.5C21.9772 779 17.5 774.523 17.5 769V644C17.5 638.477 21.9772 634 27.5 634Z" fill="#375A6D"/>
<path id="Rectangle 543" d="M104 782V776H84V782H104Z" fill="#8FB6F9"/>
<path id="Rectangle 542" d="M21 691H15V723H21V691Z" fill="#8FB6F9"/>
<path id="label_lock_24" d="M60 705V702.5C60 702.074 60.028 701.658 60.083 701.25M72 705V702.5C72 700.977 71.629 699.49 70.936 698.236C70.243 696.983 69.262 696.023 68.121 695.485C66.981 694.946 65.737 694.854 64.554 695.221C63.372 695.588 62.306 696.397 61.5 697.539M65 720H62C59.172 720 57.757 720 56.879 718.901C56 717.804 56 716.035 56 712.5C56 708.965 56 707.197 56.879 706.099C57.757 705 59.172 705 62 705H70C72.828 705 74.243 705 75.121 706.099C76 707.197 76 708.965 76 712.5C76 716.035 76 717.804 75.121 718.901C74.243 720 72.828 720 70 720H69" stroke="#EADB5A" stroke-linecap="round"/>
<text id="label_price_24" fill="white" style="white-space: pre" xml:space="preserve" font-family="Montserrat" font-size="12" letter-spacing="0em"><tspan x="24" y="711.604">&#x446;&#x435;&#x43d;&#x430;</tspan></text>
<text id="label_area_24" fill="white" style="white-space: pre" xml:space="preserve" font-family="Montserrat" font-size="12" letter-spacing="0em"><tspan x="56" y="773.604">00,00 &#x43c;&#xb2;</tspan></text>
<text id="label_name_24" fill="white" style="white-space: pre" xml:space="preserve" font-family="Montserrat" font-size="12" letter-spacing="0em"><tspan x="87" y="649.604">200</tspan></text>
<g id="label_busy_24">
<path id="form_24" d="M76.0718 640.948H81.9282L84.8564 646.02L81.9282 651.091H76.0718L73.1436 646.02L76.0718 640.948Z" fill="url(#paint23_radial_38_3207)"/>
<text id="&#195;&#145;&#194;&#129;&#195;&#144;&#194;&#180;&#195;&#144;&#194;&#176;&#195;&#144;&#194;&#189;_24" fill="black" style="white-space: pre" xml:space="preserve" font-family="Montserrat" font-size="4" letter-spacing="0em"><tspan x="74" y="646.889">&#x441;&#x434;&#x430;&#x43d;</tspan></text>
</g>
</g>
<path id="Vector 2152" d="M550 74V13C550 7.47715 554.477 3 560 3H575C580.523 3 585 7.47715 585 13V380C585 385.523 580.523 390 575 390H560C554.477 390 550 394.477 550 400V553C550 558.523 554.477 563 560 563H575C580.523 563 585 567.477 585 573V689C585 694.523 580.523 699 575 699H569C563.477 699 559 694.523 559 689V630C559 624.477 554.523 620 549 620H408.59C405.164 620 402.032 621.936 400.5 625C398.968 628.064 395.836 630 392.41 630H94C88.4772 630 84 625.523 84 620V593C84 587.477 88.4772 583 94 583H387.076C390.07 583 392.784 584.764 394 587.5C395.216 590.236 397.93 592 400.924 592H427.798C429.871 592 431.882 592.705 433.5 594C435.118 595.295 437.129 596 439.202 596H486.172C487.983 596 489.719 595.281 491 594C492.281 592.719 494.017 592 495.828 592H522.062C527.585 592 532.062 587.523 532.062 582V513.18C532.062 511.424 531.6 509.7 530.723 508.179L527.34 502.321C526.462 500.8 526 499.076 526 497.32V474C526 468.477 521.523 464 516 464H502C496.477 464 492 459.523 492 454V334C492 328.477 496.477 324 502 324H527C532.523 324 537 319.523 537 314V165.876C537 164.12 536.538 162.396 535.661 160.876L535.34 160.321C534.462 158.8 534 157.076 534 155.321V90C534 85.5817 537.582 82 542 82C546.419 82 550 78.4183 550 74Z" fill="#FDD24F"/>
</g>
</g>
<defs>
<radialGradient id="paint0_radial_38_3207" cx="0" cy="0" r="1" gradientTransform="matrix(-5.5218 6.35835 -6.35838 -5.52177 525.012 632.003)" gradientUnits="userSpaceOnUse">
<stop stop-color="#03CF21"/>
<stop offset="0.706731" stop-color="#20CDED"/>
</radialGradient>
<radialGradient id="paint1_radial_38_3207" cx="0" cy="0" r="1" gradientTransform="matrix(-5.5218 6.35838 -6.35838 -5.52181 649.868 712.203)" gradientUnits="userSpaceOnUse">
<stop stop-color="#03CF21"/>
<stop offset="0.706731" stop-color="#20CDED"/>
</radialGradient>
<radialGradient id="paint2_radial_38_3207" cx="0" cy="0" r="1" gradientTransform="matrix(-5.5218 6.35836 -6.35838 -5.52179 645.868 644.205)" gradientUnits="userSpaceOnUse">
<stop stop-color="#03CF21"/>
<stop offset="0.706731" stop-color="#20CDED"/>
</radialGradient>
<radialGradient id="paint3_radial_38_3207" cx="0" cy="0" r="1" gradientTransform="matrix(-5.5218 6.35836 -6.35838 -5.52179 650.868 578.21)" gradientUnits="userSpaceOnUse">
<stop stop-color="#03CF21"/>
<stop offset="0.706731" stop-color="#20CDED"/>
</radialGradient>
<radialGradient id="paint4_radial_38_3207" cx="0" cy="0" r="1" gradientTransform="matrix(-5.5218 6.35835 -6.35838 -5.52177 649.868 487.211)" gradientUnits="userSpaceOnUse">
<stop stop-color="#03CF21"/>
<stop offset="0.706731" stop-color="#20CDED"/>
</radialGradient>
<radialGradient id="paint5_radial_38_3207" cx="0" cy="0" r="1" gradientTransform="matrix(-5.5218 6.35836 -6.35838 -5.52179 653.868 404.213)" gradientUnits="userSpaceOnUse">
<stop stop-color="#03CF21"/>
<stop offset="0.706731" stop-color="#20CDED"/>
</radialGradient>
<radialGradient id="paint6_radial_38_3207" cx="0" cy="0" r="1" gradientTransform="matrix(-5.5218 6.35834 -6.35838 -5.52177 663.012 311.018)" gradientUnits="userSpaceOnUse">
<stop stop-color="#03CF21"/>
<stop offset="0.706731" stop-color="#20CDED"/>
</radialGradient>
<radialGradient id="paint7_radial_38_3207" cx="0" cy="0" r="1" gradientTransform="matrix(-5.5218 6.35836 -6.35838 -5.52179 663.012 234.018)" gradientUnits="userSpaceOnUse">
<stop stop-color="#03CF21"/>
<stop offset="0.706731" stop-color="#20CDED"/>
</radialGradient>
<radialGradient id="paint8_radial_38_3207" cx="0" cy="0" r="1" gradientTransform="matrix(-5.5218 6.35836 -6.35838 -5.52178 663.012 158.026)" gradientUnits="userSpaceOnUse">
<stop stop-color="#03CF21"/>
<stop offset="0.706731" stop-color="#20CDED"/>
</radialGradient>
<radialGradient id="paint9_radial_38_3207" cx="0" cy="0" r="1" gradientTransform="matrix(-5.5218 6.35836 -6.35838 -5.52178 663.012 92.0277)" gradientUnits="userSpaceOnUse">
<stop stop-color="#03CF21"/>
<stop offset="0.706731" stop-color="#20CDED"/>
</radialGradient>
<radialGradient id="paint10_radial_38_3207" cx="0" cy="0" r="1" gradientTransform="matrix(-5.5218 6.35836 -6.35838 -5.52178 657.868 11.2262)" gradientUnits="userSpaceOnUse">
<stop stop-color="#03CF21"/>
<stop offset="0.706731" stop-color="#20CDED"/>
</radialGradient>
<radialGradient id="paint11_radial_38_3207" cx="0" cy="0" r="1" gradientUnits="userSpaceOnUse" gradientTransform="translate(446.012 632.006) rotate(130.972) scale(8.42131)">
<stop stop-color="#03CF21"/>
<stop offset="0.706731" stop-color="#20CDED"/>
</radialGradient>
<radialGradient id="paint12_radial_38_3207" cx="0" cy="0" r="1" gradientTransform="matrix(-5.52177 6.35836 -6.35834 -5.52179 349.868 644.207)" gradientUnits="userSpaceOnUse">
<stop stop-color="#03CF21"/>
<stop offset="0.706731" stop-color="#20CDED"/>
</radialGradient>
<radialGradient id="paint13_radial_38_3207" cx="0" cy="0" r="1" gradientUnits="userSpaceOnUse" gradientTransform="translate(348.868 486.212) rotate(130.972) scale(8.42131)">
<stop stop-color="#03CF21"/>
<stop offset="0.706731" stop-color="#20CDED"/>
</radialGradient>
<radialGradient id="paint14_radial_38_3207" cx="0" cy="0" r="1" gradientTransform="matrix(-5.52177 6.35837 -6.35834 -5.52179 458.012 343.015)" gradientUnits="userSpaceOnUse">
<stop stop-color="#03CF21"/>
<stop offset="0.706731" stop-color="#20CDED"/>
</radialGradient>
<radialGradient id="paint15_radial_38_3207" cx="0" cy="0" r="1" gradientTransform="matrix(-5.52177 6.35837 -6.35834 -5.52179 500.868 248.216)" gradientUnits="userSpaceOnUse">
<stop stop-color="#03CF21"/>
<stop offset="0.706731" stop-color="#20CDED"/>
</radialGradient>
<radialGradient id="paint16_radial_38_3207" cx="0" cy="0" r="1" gradientTransform="matrix(-5.52177 6.35836 -6.35834 -5.52179 504.012 173.019)" gradientUnits="userSpaceOnUse">
<stop stop-color="#03CF21"/>
<stop offset="0.706731" stop-color="#20CDED"/>
</radialGradient>
<radialGradient id="paint17_radial_38_3207" cx="0" cy="0" r="1" gradientTransform="matrix(-5.52177 6.35835 -6.35834 -5.52178 501.012 93.0223)" gradientUnits="userSpaceOnUse">
<stop stop-color="#03CF21"/>
<stop offset="0.706731" stop-color="#20CDED"/>
</radialGradient>
<radialGradient id="paint18_radial_38_3207" cx="0" cy="0" r="1" gradientTransform="matrix(-5.52177 6.35837 -6.35834 -5.52179 284.012 485.015)" gradientUnits="userSpaceOnUse">
<stop stop-color="#03CF21"/>
<stop offset="0.706731" stop-color="#20CDED"/>
</radialGradient>
<radialGradient id="paint19_radial_38_3207" cx="0" cy="0" r="1" gradientTransform="matrix(-5.52179 6.35835 -6.35836 -5.52177 198.012 485.018)" gradientUnits="userSpaceOnUse">
<stop stop-color="#03CF21"/>
<stop offset="0.706731" stop-color="#20CDED"/>
</radialGradient>
<radialGradient id="paint20_radial_38_3207" cx="0" cy="0" r="1" gradientTransform="matrix(-5.52179 6.35834 -6.35836 -5.52177 117.012 485.017)" gradientUnits="userSpaceOnUse">
<stop stop-color="#03CF21"/>
<stop offset="0.706731" stop-color="#20CDED"/>
</radialGradient>
<radialGradient id="paint21_radial_38_3207" cx="0" cy="0" r="1" gradientTransform="matrix(-5.52177 6.35836 -6.35834 -5.52179 280.012 644.01)" gradientUnits="userSpaceOnUse">
<stop stop-color="#03CF21"/>
<stop offset="0.706731" stop-color="#20CDED"/>
</radialGradient>
<radialGradient id="paint22_radial_38_3207" cx="0" cy="0" r="1" gradientUnits="userSpaceOnUse" gradientTransform="translate(182.012 644.012) rotate(130.972) scale(8.42133)">
<stop stop-color="#03CF21"/>
<stop offset="0.706731" stop-color="#20CDED"/>
</radialGradient>
<radialGradient id="paint23_radial_38_3207" cx="0" cy="0" r="1" gradientUnits="userSpaceOnUse" gradientTransform="translate(82.0119 644.012) rotate(130.972) scale(8.42133)">
<stop stop-color="#03CF21"/>
<stop offset="0.706731" stop-color="#20CDED"/>
</radialGradient>
<clipPath id="clip0_38_3207">
<rect width="695" height="782" fill="white"/>
</clipPath>
</defs>
</svg>
