<svg width="969" height="321" viewBox="0 0 969 321" fill="none" xmlns="http://www.w3.org/2000/svg">
<g id="&#208;&#189;&#208;&#184;&#208;&#186;&#208;&#190;&#208;&#187;&#208;&#176;&#209;&#143; &#208;&#181;&#209;&#128;&#209;&#136;&#208;&#190;&#208;&#178;&#208;&#176; 6">
<path id="Vector 2249" d="M579.167 133.931H436.957C434.748 133.931 432.957 132.14 432.957 129.931V33.668C432.957 31.4588 434.748 29.668 436.957 29.668H579.167C581.376 29.668 583.167 31.4588 583.167 33.668V129.931C583.167 132.14 581.376 133.931 579.167 133.931Z" fill="#FDD24F"/>
<path id="Vector 2248" d="M410.45 100.357H421.006C423.215 100.357 425.006 102.148 425.006 104.357V129.934C425.006 132.143 423.215 133.934 421.005 133.934H410.45C408.241 133.934 406.45 132.143 406.45 129.934V104.357C406.45 102.148 408.241 100.357 410.45 100.357Z" fill="#FDD24F"/>
<path id="Union" d="M421.006 29.6699C423.215 29.6701 425.006 31.461 425.006 33.6699V94.7061C425.006 96.9151 423.215 98.7059 421.006 98.7061H408.457C406.248 98.7063 404.457 100.497 404.457 102.706V145.259C404.457 147.47 406.251 149.261 408.462 149.259L663.112 148.958C665.319 148.955 667.107 147.165 667.107 144.958V112.308C667.108 110.099 668.898 108.308 671.107 108.308H746.63C747.118 108.308 747.514 108.703 747.514 109.191C747.514 109.679 747.909 110.075 748.397 110.075H756.35C756.838 110.075 757.233 109.679 757.233 109.191C757.233 108.703 757.629 108.308 758.117 108.308H878.702C880.911 108.308 882.702 110.099 882.702 112.308V129.932C882.702 132.141 880.911 133.932 878.702 133.932H760.326C758.618 133.932 757.233 132.547 757.233 130.839C757.233 129.131 755.848 127.747 754.141 127.747H750.606C748.899 127.747 747.514 129.131 747.514 130.839C747.514 132.547 746.129 133.932 744.421 133.932H696.731C694.522 133.932 692.732 135.723 692.731 137.932V166.082C692.731 167.511 691.969 168.832 690.731 169.547L672.234 180.226C671.626 180.577 670.936 180.762 670.234 180.762H218.712C216.503 180.762 214.712 178.971 214.712 176.762V136.165C214.712 133.956 212.921 132.165 210.712 132.165H180.693C180.007 132.165 179.443 132.686 179.375 133.354L179.361 133.626C179.293 134.294 178.729 134.815 178.043 134.815H72.9199C70.7108 134.815 68.9199 133.025 68.9199 130.815V112.308C68.9201 110.099 70.7109 108.308 72.9199 108.308H201.458C202.922 108.308 204.108 109.495 204.108 110.959C204.109 112.423 205.295 113.609 206.759 113.609H212.061C213.524 113.609 214.712 112.423 214.712 110.959C214.712 109.495 215.898 108.308 217.362 108.308H233.685C235.894 108.308 237.684 110.099 237.685 112.308V144.953C237.685 147.162 239.476 148.953 241.685 148.953H383.604C385.814 148.953 387.604 147.162 387.604 144.953V142.021C387.604 142.007 387.605 141.993 387.605 141.979V137.934C387.605 135.725 385.814 133.934 383.605 133.934H377.292C376.316 133.934 375.524 133.142 375.524 132.166C375.524 131.19 374.734 130.4 373.758 130.399H372.433C370.725 130.399 369.34 129.015 369.34 127.307V116.703C369.34 115.049 370.639 113.698 372.273 113.615L372.592 113.607C374.226 113.524 375.524 112.173 375.524 110.519V33.6699C375.525 31.4611 377.316 29.6701 379.524 29.6699H421.006Z" fill="#FDD24F"/>
<path id="Vector 2250" d="M209.664 80.0469H194.793C192.584 80.0469 190.793 81.8377 190.793 84.0469V102.529C190.793 104.738 192.584 106.529 194.793 106.529H209.664C211.873 106.529 213.664 104.738 213.664 102.529V84.0469C213.664 81.8377 211.873 80.0469 209.664 80.0469Z" fill="#C3D7E0"/>
<path id="Vector 2253" d="M372.559 286.701V282.664C372.559 280.455 370.768 278.664 368.559 278.664H345.863C343.654 278.664 341.863 280.455 341.863 282.664V286.701C341.863 288.911 343.654 290.701 345.863 290.701H368.559C370.768 290.701 372.559 288.911 372.559 286.701Z" fill="#C3D7E0"/>
<path id="Vector 2254" d="M432.143 286.701V282.664C432.143 280.455 430.352 278.664 428.143 278.664H424.105C421.896 278.664 420.105 280.455 420.105 282.664V286.701C420.105 288.911 421.896 290.701 424.105 290.701H428.143C430.352 290.701 432.143 288.911 432.143 286.701Z" fill="#C3D7E0"/>
<path id="Vector 2255" d="M482.913 314.775H476.468C474.259 314.775 472.468 312.984 472.468 310.775V294.7C472.468 292.491 470.677 290.7 468.468 290.7H468.042C465.833 290.7 464.042 288.91 464.042 286.7V282.663C464.042 280.454 465.833 278.663 468.042 278.663H479.327C481.526 278.663 483.313 276.887 483.327 274.688L483.879 186.521C483.893 184.363 485.646 182.621 487.804 182.621C489.971 182.621 491.728 184.378 491.728 186.546V274.663C491.728 276.872 493.519 278.663 495.728 278.663H504.58C506.79 278.663 508.58 280.454 508.58 282.663V286.7C508.58 288.91 506.79 290.7 504.58 290.7H490.913C488.704 290.7 486.913 292.491 486.913 294.7V310.775C486.913 312.984 485.122 314.775 482.913 314.775Z" fill="#C3D7E0"/>
<path id="Vector 2256" d="M549.722 278.062H544.48C542.271 278.062 540.48 279.853 540.48 282.063V287.304C540.48 289.513 542.271 291.304 544.48 291.304H549.722C551.931 291.304 553.722 289.513 553.722 287.304V282.062C553.722 279.853 551.931 278.062 549.722 278.062Z" fill="#C3D7E0"/>
<path id="Vector 2257" d="M599.25 278.062H623.149C625.358 278.062 627.149 279.853 627.149 282.063V286.702C627.149 288.911 625.358 290.702 623.149 290.702H599.25C597.041 290.702 595.25 288.911 595.25 286.702V282.062C595.25 279.853 597.041 278.062 599.25 278.062Z" fill="#C3D7E0"/>
<text id="&#208;&#178;&#209;&#133;&#208;&#190;&#208;&#180;" fill="black" style="white-space: pre" xml:space="preserve" font-family="Montserrat" font-size="14" font-weight="600" letter-spacing="0em"><tspan x="379.179" y="78.521">&#x432;&#x445;&#x43e;&#x434;</tspan></text>
<text id="WC" fill="black" style="white-space: pre" xml:space="preserve" font-family="Montserrat" font-size="10" font-weight="600" letter-spacing="0em"><tspan x="409.272" y="111.901">W</tspan><tspan x="409.272" y="123.901">C</tspan></text>
<g id="room_219">
<path id="poly" d="M44.1787 102.539V37.2017C44.1787 34.9926 45.9696 33.2017 48.1787 33.2017H53.4325C55.6416 33.2017 57.4325 31.4108 57.4325 29.2017V9.81055C57.4325 7.60141 59.2234 5.81055 61.4325 5.81055H104.68C106.89 5.81055 108.68 7.60141 108.68 9.81055V34.5032C108.68 36.7124 106.89 38.5032 104.68 38.5032H94.1252C91.916 38.5032 90.1252 40.2941 90.1252 42.5032V102.539C90.1252 104.748 88.3343 106.539 86.1252 106.539H48.1787C45.9696 106.539 44.1787 104.748 44.1787 102.539Z" fill="#375A6D"/>
<path id="Rectangle 493" d="M80.6504 7.2207L80.6504 1.202L96.299 1.20199L96.299 7.2207L80.6504 7.2207Z" fill="#8FB6F9"/>
<path id="label_lock" d="M63.0765 57.7774V55.9718C63.0765 55.6642 63.0967 55.3633 63.1364 55.069M71.7434 57.7774V55.9718C71.7434 54.8715 71.4754 53.7972 70.9749 52.8921C70.4744 51.9869 69.7659 51.2936 68.9418 50.9046C68.1185 50.5155 67.22 50.4492 66.3656 50.7143C65.5119 50.9794 64.742 51.5634 64.1598 52.3886M66.6877 68.6108H64.521C62.4785 68.6108 61.4565 68.6108 60.8224 67.8173C60.1875 67.0246 60.1875 65.7472 60.1875 63.1941C60.1875 60.641 60.1875 59.3636 60.8224 58.5709C61.4565 57.7774 62.4785 57.7774 64.521 57.7774H70.2989C72.3414 57.7774 73.3634 57.7774 73.9975 58.5709C74.6324 59.3636 74.6324 60.641 74.6324 63.1941C74.6324 65.7472 74.6324 67.0246 73.9975 67.8173C73.3634 68.6108 72.3414 68.6108 70.2989 68.6108H69.5767" stroke="#EADB5A" stroke-width="0.5" stroke-linecap="round"/>
<text id="label_price" fill="white" style="white-space: pre" xml:space="preserve" font-family="Montserrat" font-size="7" letter-spacing="0em"><tspan x="48.1494" y="63.5818">&#x446;&#x435;&#x43d;&#x430;</tspan></text>
<text id="label_area" fill="white" style="white-space: pre" xml:space="preserve" font-family="Montserrat" font-size="8" letter-spacing="0em"><tspan x="45.7422" y="99.3504">00,00 &#x43c;&#xb2;</tspan></text>
<text id="label_name" fill="white" style="white-space: pre" xml:space="preserve" font-family="Montserrat" font-size="8" letter-spacing="0em"><tspan x="89.0771" y="17.4969">219</tspan></text>
<g id="label_busy">
<path id="form" d="M79.2107 11.0654L84.4979 11.0654L87.1415 15.6442L84.4979 20.2231L79.2107 20.2231L76.5671 15.6442L79.2107 11.0654Z" fill="url(#paint0_radial_391_1263)"/>
<text id="&#209;&#129;&#208;&#180;&#208;&#176;&#208;&#189;" fill="black" style="white-space: pre" xml:space="preserve" font-family="Montserrat" font-size="3" font-weight="500" letter-spacing="0em"><tspan x="77.04" y="16.3099">&#x441;&#x434;&#x430;&#x43d;</tspan></text>
</g>
</g>
<g id="room_220">
<path id="poly_2" d="M144.443 106.541H95.8936C93.6844 106.541 91.8936 104.75 91.8936 102.541V44.2724C91.8936 42.0632 93.6844 40.2724 95.8936 40.2724H106.449C108.658 40.2724 110.449 38.4815 110.449 36.2723V9.8125C110.449 7.60336 112.24 5.8125 114.449 5.8125H144.443C146.652 5.8125 148.443 7.60336 148.443 9.8125V102.541C148.443 104.75 146.652 106.541 144.443 106.541Z" fill="#375A6D"/>
<path id="label_lock_2" d="M117.244 57.7793V55.9737C117.244 55.6662 117.265 55.3653 117.304 55.0709M125.911 57.7793V55.9737C125.911 54.8734 125.643 53.7992 125.143 52.8941C124.642 51.9888 123.934 51.2956 123.11 50.9066C122.286 50.5175 121.388 50.4511 120.534 50.7163C119.68 50.9813 118.91 51.5653 118.328 52.3906M120.856 68.6128H118.689C116.646 68.6128 115.624 68.6128 114.99 67.8192C114.355 67.0266 114.355 65.7491 114.355 63.196C114.355 60.643 114.355 59.3655 114.99 58.5729C115.624 57.7793 116.646 57.7793 118.689 57.7793H124.467C126.509 57.7793 127.531 57.7793 128.165 58.5729C128.8 59.3655 128.8 60.643 128.8 63.196C128.8 65.7491 128.8 67.0266 128.165 67.8192C127.531 68.6128 126.509 68.6128 124.467 68.6128H123.745" stroke="#EADB5A" stroke-width="0.5" stroke-linecap="round"/>
<text id="label_price_2" fill="white" style="white-space: pre" xml:space="preserve" font-family="Montserrat" font-size="7" letter-spacing="0em"><tspan x="95.0957" y="63.5837">&#x446;&#x435;&#x43d;&#x430;</tspan></text>
<text id="label_area_2" fill="white" style="white-space: pre" xml:space="preserve" font-family="Montserrat" font-size="8" letter-spacing="0em"><tspan x="102.317" y="99.3504">00,00 &#x43c;&#xb2;</tspan></text>
<text id="label_name_2" fill="white" style="white-space: pre" xml:space="preserve" font-family="Montserrat" font-size="8" letter-spacing="0em"><tspan x="128.801" y="17.4969">220</tspan></text>
<g id="label_busy_2">
<path id="form_2" d="M118.934 11.0654L124.222 11.0654L126.865 15.6442L124.222 20.2231L118.934 20.2231L116.291 15.6442L118.934 11.0654Z" fill="url(#paint1_radial_391_1263)"/>
<text id="&#209;&#129;&#208;&#180;&#208;&#176;&#208;&#189;_2" fill="black" style="white-space: pre" xml:space="preserve" font-family="Montserrat" font-size="3" font-weight="500" letter-spacing="0em"><tspan x="116.763" y="16.3118">&#x441;&#x434;&#x430;&#x43d;</tspan></text>
</g>
</g>
<g id="room_221">
<path id="poly_3" d="M150.209 102.541V9.8125C150.209 7.60336 152 5.8125 154.209 5.8125H199.224C201.433 5.8125 203.224 7.60336 203.224 9.8125V74.2665C203.224 76.4757 201.433 78.2665 199.224 78.2665H193.087C190.878 78.2665 189.087 80.0574 189.087 82.2665V102.541C189.087 104.75 187.296 106.541 185.087 106.541H154.209C152 106.541 150.209 104.75 150.209 102.541Z" fill="#375A6D"/>
<path id="label_lock_3" d="M172.617 43.332V41.5265C172.617 41.2189 172.637 40.918 172.676 40.6237M181.283 43.332V41.5265C181.283 40.4262 181.015 39.3519 180.515 38.4468C180.014 37.5416 179.306 36.8483 178.482 36.4593C177.658 36.0702 176.76 36.0038 175.906 36.269C175.052 36.5341 174.282 37.1181 173.7 37.9433M176.228 54.1655H174.061C172.019 54.1655 170.997 54.1655 170.362 53.372C169.728 52.5793 169.728 51.3019 169.728 48.7488C169.728 46.1957 169.728 44.9182 170.362 44.1256C170.997 43.3321 172.019 43.332 174.061 43.332H179.839C181.881 43.332 182.903 43.3321 183.538 44.1256C184.172 44.9182 184.172 46.1957 184.172 48.7488C184.172 51.3019 184.172 52.5793 183.538 53.372C182.903 54.1655 181.881 54.1655 179.839 54.1655H179.117" stroke="#EADB5A" stroke-width="0.5" stroke-linecap="round"/>
<text id="label_price_3" fill="white" style="white-space: pre" xml:space="preserve" font-family="Montserrat" font-size="7" letter-spacing="0em"><tspan x="154.078" y="47.9353">&#x446;&#x435;&#x43d;&#x430;</tspan></text>
<text id="label_area_3" fill="white" style="white-space: pre" xml:space="preserve" font-family="Montserrat" font-size="8" letter-spacing="0em"><tspan x="158.894" y="71.6649">00,00 &#x43c;&#xb2;</tspan></text>
<text id="label_name_3" fill="white" style="white-space: pre" xml:space="preserve" font-family="Montserrat" font-size="8" letter-spacing="0em"><tspan x="184.173" y="17.5008">221</tspan></text>
<g id="label_busy_3">
<path id="form_3" d="M174.306 11.0673L179.594 11.0673L182.237 15.6462L179.594 20.225L174.306 20.225L171.663 15.6462L174.306 11.0673Z" fill="url(#paint2_radial_391_1263)"/>
<text id="&#209;&#129;&#208;&#180;&#208;&#176;&#208;&#189;_3" fill="black" style="white-space: pre" xml:space="preserve" font-family="Montserrat" font-size="3" font-weight="500" letter-spacing="0em"><tspan x="172.135" y="16.3118">&#x441;&#x434;&#x430;&#x43d;</tspan></text>
</g>
</g>
<g id="room_222">
<path id="poly_4" d="M214.712 102.541V9.8125C214.712 7.60336 216.503 5.8125 218.712 5.8125H243.405C245.614 5.8125 247.405 7.60336 247.405 9.8125V14.1827C247.405 16.3918 249.195 18.1827 251.405 18.1827H259.309C261.518 18.1827 263.309 19.9736 263.309 22.1827V102.541C263.309 104.75 261.518 106.541 259.309 106.541H218.712C216.503 106.541 214.712 104.75 214.712 102.541Z" fill="#375A6D"/>
<path id="label_lock_4" d="M234.007 54.166V52.3605C234.007 52.0529 234.027 51.752 234.067 51.4577M242.674 54.166V52.3605C242.674 51.2601 242.406 50.1859 241.906 49.2808C241.405 48.3756 240.697 47.6823 239.872 47.2933C239.049 46.9042 238.151 46.8378 237.296 47.103C236.443 47.368 235.673 47.9521 235.091 48.7773M237.618 64.9995H235.452C233.409 64.9995 232.387 64.9995 231.753 64.2059C231.118 63.4133 231.118 62.1358 231.118 59.5828C231.118 57.0297 231.118 55.7522 231.753 54.9596C232.387 54.166 233.409 54.166 235.452 54.166H241.23C243.272 54.166 244.294 54.166 244.928 54.9596C245.563 55.7522 245.563 57.0297 245.563 59.5828C245.563 62.1358 245.563 63.4133 244.928 64.2059C244.294 64.9995 243.272 64.9995 241.23 64.9995H240.507" stroke="#EADB5A" stroke-width="0.5" stroke-linecap="round"/>
<text id="label_price_4" fill="white" style="white-space: pre" xml:space="preserve" font-family="Montserrat" font-size="7" letter-spacing="0em"><tspan x="217.878" y="63.5837">&#x446;&#x435;&#x43d;&#x430;</tspan></text>
<text id="label_area_4" fill="white" style="white-space: pre" xml:space="preserve" font-family="Montserrat" font-size="8" letter-spacing="0em"><tspan x="217.878" y="99.3504">00,00 &#x43c;&#xb2;</tspan></text>
<text id="label_name_4" fill="white" style="white-space: pre" xml:space="preserve" font-family="Montserrat" font-size="8" letter-spacing="0em"><tspan x="229.915" y="17.5008">222</tspan></text>
<g id="label_busy_4">
<path id="form_4" d="M220.049 11.0654L225.336 11.0654L227.979 15.6442L225.336 20.2231L220.049 20.2231L217.405 15.6442L220.049 11.0654Z" fill="url(#paint3_radial_391_1263)"/>
<text id="&#209;&#129;&#208;&#180;&#208;&#176;&#208;&#189;_4" fill="black" style="white-space: pre" xml:space="preserve" font-family="Montserrat" font-size="3" font-weight="500" letter-spacing="0em"><tspan x="217.878" y="16.3118">&#x441;&#x434;&#x430;&#x43d;</tspan></text>
</g>
</g>
<g id="room_223">
<path id="poly_5" d="M265.076 104.308V9.8125C265.076 7.60336 266.867 5.8125 269.076 5.8125H307.023C309.232 5.8125 311.023 7.60336 311.023 9.8125V130.816C311.023 133.025 309.232 134.816 307.023 134.816H243.452C241.243 134.816 239.452 133.025 239.452 130.816V112.308C239.452 110.099 241.243 108.308 243.452 108.308H261.076C263.285 108.308 265.076 106.518 265.076 104.308Z" fill="#375A6D"/>
<path id="label_lock_5" d="M284.565 67.4063V65.6007C284.565 65.2931 284.585 64.9922 284.625 64.6979M293.232 67.4063V65.6007C293.232 64.5004 292.964 63.4261 292.463 62.521C291.963 61.6158 291.254 60.9225 290.43 60.5335C289.607 60.1444 288.708 60.0781 287.854 60.3432C287 60.6083 286.23 61.1923 285.648 62.0175M288.176 78.2397H286.009C283.967 78.2397 282.945 78.2397 282.311 77.4462C281.676 76.6535 281.676 75.3761 281.676 72.823C281.676 70.2699 281.676 68.9925 282.311 68.1998C282.945 67.4063 283.967 67.4063 286.009 67.4063H291.787C293.83 67.4063 294.852 67.4063 295.486 68.1998C296.121 68.9925 296.121 70.2699 296.121 72.823C296.121 75.3761 296.121 76.6535 295.486 77.4462C294.852 78.2397 293.83 78.2397 291.787 78.2397H291.065" stroke="#EADB5A" stroke-width="0.5" stroke-linecap="round"/>
<text id="label_price_5" fill="white" style="white-space: pre" xml:space="preserve" font-family="Montserrat" font-size="7" letter-spacing="0em"><tspan x="269.639" y="63.5837">&#x446;&#x435;&#x43d;&#x430;</tspan></text>
<text id="label_area_5" fill="white" style="white-space: pre" xml:space="preserve" font-family="Montserrat" font-size="8" letter-spacing="0em"><tspan x="246.767" y="127.036">00,00 &#x43c;&#xb2;</tspan></text>
<text id="label_name_5" fill="white" style="white-space: pre" xml:space="preserve" font-family="Montserrat" font-size="8" letter-spacing="0em"><tspan x="291.306" y="17.5028">223</tspan></text>
<g id="label_busy_5">
<path id="form_5" d="M281.439 11.0673L286.726 11.0673L289.37 15.6462L286.726 20.225L281.439 20.225L278.796 15.6462L281.439 11.0673Z" fill="url(#paint4_radial_391_1263)"/>
<text id="&#209;&#129;&#208;&#180;&#208;&#176;&#208;&#189;_5" fill="black" style="white-space: pre" xml:space="preserve" font-family="Montserrat" font-size="3" font-weight="500" letter-spacing="0em"><tspan x="279.268" y="16.3118">&#x441;&#x434;&#x430;&#x43d;</tspan></text>
</g>
</g>
<g id="room_224">
<path id="poly_6" d="M363.572 134.816H316.79C314.581 134.816 312.79 133.025 312.79 130.816V9.8125C312.79 7.60336 314.581 5.8125 316.79 5.8125H363.572C365.782 5.8125 367.572 7.60336 367.572 9.8125V130.816C367.572 133.025 365.782 134.816 363.572 134.816Z" fill="#375A6D"/>
<path id="label_lock_6" d="M336.326 67.4063V65.6007C336.326 65.2931 336.346 64.9922 336.385 64.6979M344.992 67.4063V65.6007C344.992 64.5004 344.724 63.4261 344.224 62.521C343.723 61.6158 343.015 60.9225 342.191 60.5335C341.367 60.1444 340.469 60.0781 339.615 60.3432C338.761 60.6083 337.991 61.1923 337.409 62.0175M339.937 78.2397H337.77C335.727 78.2397 334.706 78.2397 334.071 77.4462C333.437 76.6535 333.437 75.3761 333.437 72.823C333.437 70.2699 333.437 68.9925 334.071 68.1998C334.706 67.4063 335.727 67.4063 337.77 67.4063H343.548C345.59 67.4063 346.612 67.4063 347.247 68.1998C347.881 68.9925 347.881 70.2699 347.881 72.823C347.881 75.3761 347.881 76.6535 347.247 77.4462C346.612 78.2397 345.59 78.2397 343.548 78.2397H342.826" stroke="#EADB5A" stroke-width="0.5" stroke-linecap="round"/>
<text id="label_price_6" fill="white" style="white-space: pre" xml:space="preserve" font-family="Montserrat" font-size="7" letter-spacing="0em"><tspan x="316.584" y="70.8064">&#x446;&#x435;&#x43d;&#x430;</tspan></text>
<text id="label_area_6" fill="white" style="white-space: pre" xml:space="preserve" font-family="Montserrat" font-size="8" letter-spacing="0em"><tspan x="320.195" y="127.036">00,00 &#x43c;&#xb2;</tspan></text>
<text id="label_name_6" fill="white" style="white-space: pre" xml:space="preserve" font-family="Montserrat" font-size="8" letter-spacing="0em"><tspan x="347.881" y="17.5086">224</tspan></text>
<g id="label_busy_6">
<path id="form_6" d="M338.015 11.0673L343.303 11.0673L345.946 15.6462L343.303 20.225L338.015 20.225L335.372 15.6462L338.015 11.0673Z" fill="url(#paint5_radial_391_1263)"/>
<text id="&#209;&#129;&#208;&#180;&#208;&#176;&#208;&#189;_6" fill="black" style="white-space: pre" xml:space="preserve" font-family="Montserrat" font-size="3" font-weight="500" letter-spacing="0em"><tspan x="335.844" y="16.3118">&#x441;&#x434;&#x430;&#x43d;</tspan></text>
</g>
</g>
<g id="room_201">
<path id="poly_7" d="M595.119 133.933H661.34C663.549 133.933 665.34 132.142 665.34 129.933V112.309C665.34 110.1 663.549 108.309 661.34 108.309H645.484C643.274 108.309 641.484 106.518 641.484 104.309V8.92969C641.484 6.72055 639.693 4.92969 637.484 4.92969H598.653C596.444 4.92969 594.653 6.72055 594.653 8.92968V27.9029C594.653 28.8789 593.862 29.6701 592.886 29.6701C591.91 29.6701 591.119 30.4613 591.119 31.4373V129.933C591.119 132.142 592.91 133.933 595.119 133.933Z" fill="#375A6D"/>
<path id="label_lock_7" d="M615.594 68.6113V66.8058C615.594 66.4982 615.614 66.1973 615.654 65.903M624.261 68.6113V66.8058C624.261 65.7054 623.993 64.6312 623.493 63.7261C622.992 62.8209 622.283 62.1276 621.459 61.7386C620.636 61.3495 619.738 61.2831 618.883 61.5483C618.029 61.8134 617.26 62.3974 616.677 63.2226M619.205 79.4448H617.039C614.996 79.4448 613.974 79.4448 613.34 78.6512C612.705 77.8586 612.705 76.5812 612.705 74.0281C612.705 71.475 612.705 70.1975 613.34 69.4049C613.974 68.6113 614.996 68.6113 617.039 68.6113H622.817C624.859 68.6113 625.881 68.6113 626.515 69.4049C627.15 70.1975 627.15 71.475 627.15 74.0281C627.15 76.5812 627.15 77.8586 626.515 78.6512C625.881 79.4448 624.859 79.4448 622.817 79.4448H622.094" stroke="#EADB5A" stroke-width="0.5" stroke-linecap="round"/>
<text id="label_price_7" fill="white" style="white-space: pre" xml:space="preserve" font-family="Montserrat" font-size="7" letter-spacing="0em"><tspan x="593.445" y="73.2146">&#x446;&#x435;&#x43d;&#x430;</tspan></text>
<text id="label_area_7" fill="white" style="white-space: pre" xml:space="preserve" font-family="Montserrat" font-size="8" letter-spacing="0em"><tspan x="618.723" y="127.036">00,00 &#x43c;&#xb2;</tspan></text>
<text id="label_name_7" fill="white" style="white-space: pre" xml:space="preserve" font-family="Montserrat" font-size="8" letter-spacing="0em"><tspan x="621.131" y="16.3133">201</tspan></text>
<g id="label_busy_7">
<path id="form_7" d="M611.264 9.86031L616.552 9.86031L619.195 14.4392L616.552 19.018L611.264 19.018L608.621 14.4392L611.264 9.86031Z" fill="url(#paint6_radial_391_1263)"/>
<text id="&#209;&#129;&#208;&#180;&#208;&#176;&#208;&#189;_7" fill="black" style="white-space: pre" xml:space="preserve" font-family="Montserrat" font-size="3" font-weight="500" letter-spacing="0em"><tspan x="609.094" y="15.1087">&#x441;&#x434;&#x430;&#x43d;</tspan></text>
</g>
</g>
<g id="room_202">
<path id="poly_8" d="M643.251 102.542V8.92969C643.251 6.72055 645.042 4.92969 647.251 4.92969H690.499C692.708 4.92969 694.499 6.72055 694.499 8.92969V102.542C694.499 104.751 692.708 106.542 690.499 106.542H647.251C645.042 106.542 643.251 104.751 643.251 102.542Z" fill="#375A6D"/>
<path id="label_lock_8" d="M664.948 54.166V52.3605C664.948 52.0529 664.968 51.752 665.008 51.4577M673.615 54.166V52.3605C673.615 51.2601 673.347 50.1859 672.846 49.2808C672.346 48.3756 671.637 47.6823 670.813 47.2933C669.99 46.9042 669.091 46.8378 668.237 47.103C667.383 47.368 666.613 47.9521 666.031 48.7773M668.559 64.9995H666.392C664.35 64.9995 663.328 64.9995 662.693 64.2059C662.059 63.4133 662.059 62.1358 662.059 59.5828C662.059 57.0297 662.059 55.7522 662.693 54.9596C663.328 54.166 664.35 54.166 666.392 54.166H672.17C674.213 54.166 675.234 54.166 675.869 54.9596C676.503 55.7522 676.503 57.0297 676.503 59.5828C676.503 62.1358 676.503 63.4133 675.869 64.2059C675.234 64.9995 674.213 64.9995 672.17 64.9995H671.448" stroke="#EADB5A" stroke-width="0.5" stroke-linecap="round"/>
<text id="label_price_8" fill="white" style="white-space: pre" xml:space="preserve" font-family="Montserrat" font-size="7" letter-spacing="0em"><tspan x="646.409" y="55.1579">&#x446;&#x435;&#x43d;&#x430;</tspan></text>
<text id="label_area_8" fill="white" style="white-space: pre" xml:space="preserve" font-family="Montserrat" font-size="8" letter-spacing="0em"><tspan x="648.817" y="99.3504">00,00 &#x43c;&#xb2;</tspan></text>
<text id="label_name_8" fill="white" style="white-space: pre" xml:space="preserve" font-family="Montserrat" font-size="8" letter-spacing="0em"><tspan x="674.096" y="16.3133">202</tspan></text>
<g id="label_busy_8">
<path id="form_8" d="M664.229 9.86031L669.516 9.86031L672.16 14.4392L669.516 19.018L664.229 19.018L661.586 14.4392L664.229 9.86031Z" fill="url(#paint7_radial_391_1263)"/>
<text id="&#209;&#129;&#208;&#180;&#208;&#176;&#208;&#189;_8" fill="black" style="white-space: pre" xml:space="preserve" font-family="Montserrat" font-size="3" font-weight="500" letter-spacing="0em"><tspan x="662.059" y="15.1068">&#x441;&#x434;&#x430;&#x43d;</tspan></text>
</g>
</g>
<g id="room_203">
<path id="poly_9" d="M743.514 106.542H700.266C698.056 106.542 696.266 104.751 696.266 102.542V8.92969C696.266 6.72055 698.056 4.92969 700.266 4.92969H743.514C745.723 4.92969 747.514 6.72055 747.514 8.92969V102.542C747.514 104.751 745.723 106.542 743.514 106.542Z" fill="#375A6D"/>
<path id="label_lock_9" d="M716.708 54.166V52.3605C716.708 52.0529 716.729 51.752 716.768 51.4577M725.375 54.166V52.3605C725.375 51.2601 725.107 50.1859 724.607 49.2808C724.106 48.3756 723.398 47.6823 722.574 47.2933C721.75 46.9042 720.852 46.8378 719.997 47.103C719.144 47.368 718.374 47.9521 717.792 48.7773M720.32 64.9995H718.153C716.11 64.9995 715.088 64.9995 714.454 64.2059C713.819 63.4133 713.819 62.1358 713.819 59.5828C713.819 57.0297 713.819 55.7522 714.454 54.9596C715.088 54.166 716.11 54.166 718.153 54.166H723.931C725.973 54.166 726.995 54.166 727.629 54.9596C728.264 55.7522 728.264 57.0297 728.264 59.5828C728.264 62.1358 728.264 63.4133 727.629 64.2059C726.995 64.9995 725.973 64.9995 723.931 64.9995H723.209" stroke="#EADB5A" stroke-width="0.5" stroke-linecap="round"/>
<text id="label_price_9" fill="white" style="white-space: pre" xml:space="preserve" font-family="Montserrat" font-size="7" letter-spacing="0em"><tspan x="699.374" y="55.1579">&#x446;&#x435;&#x43d;&#x430;</tspan></text>
<text id="label_area_9" fill="white" style="white-space: pre" xml:space="preserve" font-family="Montserrat" font-size="8" letter-spacing="0em"><tspan x="701.782" y="99.3504">00,00 &#x43c;&#xb2;</tspan></text>
<text id="label_name_9" fill="white" style="white-space: pre" xml:space="preserve" font-family="Montserrat" font-size="8" letter-spacing="0em"><tspan x="727.06" y="16.3153">203</tspan></text>
<g id="label_busy_9">
<path id="form_9" d="M717.194 9.86421L722.481 9.86421L725.125 14.4431L722.481 19.0219L717.194 19.0219L714.55 14.4431L717.194 9.86421Z" fill="url(#paint8_radial_391_1263)"/>
<text id="&#209;&#129;&#208;&#180;&#208;&#176;&#208;&#189;_9" fill="black" style="white-space: pre" xml:space="preserve" font-family="Montserrat" font-size="3" font-weight="500" letter-spacing="0em"><tspan x="715.022" y="15.1146">&#x441;&#x434;&#x430;&#x43d;</tspan></text>
</g>
</g>
<g id="room_204">
<path id="poly_10" d="M757.233 8.92969V102.542C757.233 104.751 759.024 106.542 761.233 106.542H803.598C805.807 106.542 807.598 104.751 807.598 102.542V8.92969C807.598 6.72055 805.807 4.92969 803.598 4.92969H761.233C759.024 4.92969 757.233 6.72055 757.233 8.92969Z" fill="#375A6D"/>
<path id="label_lock_10" d="M778.098 54.166V52.3605C778.098 52.0529 778.118 51.752 778.158 51.4577M786.765 54.166V52.3605C786.765 51.2601 786.497 50.1859 785.996 49.2808C785.496 48.3756 784.787 47.6823 783.963 47.2933C783.14 46.9042 782.241 46.8378 781.387 47.103C780.533 47.368 779.763 47.9521 779.181 48.7773M781.709 64.9995H779.542C777.5 64.9995 776.478 64.9995 775.844 64.2059C775.209 63.4133 775.209 62.1358 775.209 59.5828C775.209 57.0297 775.209 55.7522 775.844 54.9596C776.478 54.166 777.5 54.166 779.542 54.166H785.32C787.363 54.166 788.385 54.166 789.019 54.9596C789.654 55.7522 789.654 57.0297 789.654 59.5828C789.654 62.1358 789.654 63.4133 789.019 64.2059C788.385 64.9995 787.363 64.9995 785.32 64.9995H784.598" stroke="#EADB5A" stroke-width="0.5" stroke-linecap="round"/>
<text id="label_price_10" fill="white" style="white-space: pre" xml:space="preserve" font-family="Montserrat" font-size="7" letter-spacing="0em"><tspan x="760.765" y="55.1579">&#x446;&#x435;&#x43d;&#x430;</tspan></text>
<text id="label_area_10" fill="white" style="white-space: pre" xml:space="preserve" font-family="Montserrat" font-size="8" letter-spacing="0em"><tspan x="761.969" y="99.3504">00,00 &#x43c;&#xb2;</tspan></text>
<text id="label_name_10" fill="white" style="white-space: pre" xml:space="preserve" font-family="Montserrat" font-size="8" letter-spacing="0em"><tspan x="787.247" y="16.3153">204</tspan></text>
<g id="label_busy_10">
<path id="form_10" d="M777.382 9.86421L782.669 9.86421L785.312 14.4431L782.669 19.0219L777.382 19.0219L774.738 14.4431L777.382 9.86421Z" fill="url(#paint9_radial_391_1263)"/>
<text id="&#209;&#129;&#208;&#180;&#208;&#176;&#208;&#189;_10" fill="black" style="white-space: pre" xml:space="preserve" font-family="Montserrat" font-size="3" font-weight="500" letter-spacing="0em"><tspan x="775.209" y="15.1126">&#x441;&#x434;&#x430;&#x43d;</tspan></text>
</g>
</g>
<g id="room_205">
<path id="poly_11" d="M809.364 8.89374V102.556C809.364 104.766 811.155 106.542 813.364 106.542H853.961C856.171 106.542 857.961 104.751 857.961 102.542V8.92969C857.961 6.72055 856.171 4.92969 853.961 4.92969H813.364C811.155 4.92969 809.364 6.6846 809.364 8.89374Z" fill="#375A6D"/>
<path id="label_lock_11" d="M829.859 54.166V52.3605C829.859 52.0529 829.879 51.752 829.919 51.4577M838.526 54.166V52.3605C838.526 51.2601 838.258 50.1859 837.757 49.2808C837.257 48.3756 836.548 47.6823 835.724 47.2933C834.901 46.9042 834.002 46.8378 833.148 47.103C832.294 47.368 831.524 47.9521 830.942 48.7773M833.47 64.9995H831.303C829.261 64.9995 828.239 64.9995 827.605 64.2059C826.97 63.4133 826.97 62.1358 826.97 59.5828C826.97 57.0297 826.97 55.7522 827.605 54.9596C828.239 54.166 829.261 54.166 831.303 54.166H837.081C839.124 54.166 840.146 54.166 840.78 54.9596C841.415 55.7522 841.415 57.0297 841.415 59.5828C841.415 62.1358 841.415 63.4133 840.78 64.2059C840.146 64.9995 839.124 64.9995 837.081 64.9995H836.359" stroke="#EADB5A" stroke-width="0.5" stroke-linecap="round"/>
<text id="label_price_11" fill="white" style="white-space: pre" xml:space="preserve" font-family="Montserrat" font-size="7" letter-spacing="0em"><tspan x="812.525" y="55.1579">&#x446;&#x435;&#x43d;&#x430;</tspan></text>
<text id="label_area_11" fill="white" style="white-space: pre" xml:space="preserve" font-family="Montserrat" font-size="8" letter-spacing="0em"><tspan x="812.525" y="99.3504">00,00 &#x43c;&#xb2;</tspan></text>
<text id="label_name_11" fill="white" style="white-space: pre" xml:space="preserve" font-family="Montserrat" font-size="8" letter-spacing="0em"><tspan x="837.805" y="16.3153">205</tspan></text>
<g id="label_busy_11">
<path id="form_11" d="M827.938 9.86031L833.225 9.86031L835.869 14.4392L833.225 19.018L827.938 19.018L825.295 14.4392L827.938 9.86031Z" fill="url(#paint10_radial_391_1263)"/>
<text id="&#209;&#129;&#208;&#180;&#208;&#176;&#208;&#189;_11" fill="black" style="white-space: pre" xml:space="preserve" font-family="Montserrat" font-size="3" font-weight="500" letter-spacing="0em"><tspan x="825.768" y="15.1068">&#x441;&#x434;&#x430;&#x43d;</tspan></text>
</g>
</g>
<g id="room_206">
<path id="poly_12" d="M859.729 8.92969V102.542C859.729 104.751 861.519 106.542 863.729 106.542H911.394C913.604 106.542 915.394 104.751 915.394 102.542V33.6701C915.394 31.461 913.604 29.6701 911.394 29.6701H909.675C907.466 29.6701 905.675 27.8792 905.675 25.6701V8.92969C905.675 6.72055 903.884 4.92969 901.675 4.92969H863.729C861.519 4.92969 859.729 6.72055 859.729 8.92969Z" fill="#375A6D"/>
<path id="label_lock_12" d="M880.417 54.166V52.3605C880.417 52.0529 880.438 51.752 880.477 51.4577M889.084 54.166V52.3605C889.084 51.2601 888.816 50.1859 888.316 49.2808C887.815 48.3756 887.107 47.6823 886.283 47.2933C885.459 46.9042 884.561 46.8378 883.706 47.103C882.853 47.368 882.083 47.9521 881.501 48.7773M884.029 64.9995H881.862C879.819 64.9995 878.797 64.9995 878.163 64.2059C877.528 63.4133 877.528 62.1358 877.528 59.5828C877.528 57.0297 877.528 55.7522 878.163 54.9596C878.797 54.166 879.819 54.166 881.862 54.166H887.64C889.682 54.166 890.704 54.166 891.338 54.9596C891.973 55.7522 891.973 57.0297 891.973 59.5828C891.973 62.1358 891.973 63.4133 891.338 64.2059C890.704 64.9995 889.682 64.9995 887.64 64.9995H886.918" stroke="#EADB5A" stroke-width="0.5" stroke-linecap="round"/>
<text id="label_price_12" fill="white" style="white-space: pre" xml:space="preserve" font-family="Montserrat" font-size="7" letter-spacing="0em"><tspan x="861.88" y="55.1579">&#x446;&#x435;&#x43d;&#x430;</tspan></text>
<text id="label_area_12" fill="white" style="white-space: pre" xml:space="preserve" font-family="Montserrat" font-size="8" letter-spacing="0em"><tspan x="870.306" y="99.3504">00,00 &#x43c;&#xb2;</tspan></text>
<text id="label_name_12" fill="white" style="white-space: pre" xml:space="preserve" font-family="Montserrat" font-size="8" letter-spacing="0em"><tspan x="884.75" y="16.3153">206</tspan></text>
<g id="label_busy_12">
<path id="form_12" d="M874.885 9.86226L880.172 9.86226L882.815 14.4411L880.172 19.02L874.885 19.02L872.241 14.4411L874.885 9.86226Z" fill="url(#paint11_radial_391_1263)"/>
<text id="&#209;&#129;&#208;&#180;&#208;&#176;&#208;&#189;_12" fill="black" style="white-space: pre" xml:space="preserve" font-family="Montserrat" font-size="3" font-weight="500" letter-spacing="0em"><tspan x="872.713" y="15.1126">&#x441;&#x434;&#x430;&#x43d;</tspan></text>
</g>
</g>
<g id="room_207">
<path id="poly_13" d="M884.469 112.307V129.931C884.469 132.14 886.26 133.931 888.469 133.931H964.409C966.619 133.931 968.409 132.14 968.409 129.931V33.668C968.409 31.4588 966.619 29.668 964.409 29.668H921.161C918.952 29.668 917.161 31.4588 917.161 33.668V104.307C917.161 106.516 915.371 108.307 913.161 108.307H888.469C886.26 108.307 884.469 110.098 884.469 112.307Z" fill="#375A6D"/>
<path id="label_lock_13" d="M946.622 80.6485V78.8429C946.622 78.5353 946.643 78.2344 946.682 77.9401M955.289 80.6485V78.8429C955.289 77.7426 955.021 76.6683 954.521 75.7632C954.02 74.858 953.312 74.1647 952.488 73.7757C951.664 73.3866 950.766 73.3203 949.911 73.5854C949.058 73.8505 948.288 74.4345 947.706 75.2597M950.234 91.4819H948.067C946.024 91.4819 945.002 91.4819 944.368 90.6884C943.733 89.8957 943.733 88.6183 943.733 86.0652C943.733 83.5121 943.733 82.2347 944.368 81.442C945.002 80.6485 946.024 80.6485 948.067 80.6485H953.845C955.887 80.6485 956.909 80.6485 957.543 81.442C958.178 82.2347 958.178 83.5121 958.178 86.0652C958.178 88.6183 958.178 89.8957 957.543 90.6884C956.909 91.4819 955.887 91.4819 953.845 91.4819H953.123" stroke="#EADB5A" stroke-width="0.5" stroke-linecap="round"/>
<text id="label_price_13" fill="white" style="white-space: pre" xml:space="preserve" font-family="Montserrat" font-size="7" letter-spacing="0em"><tspan x="919.658" y="73.2146">&#x446;&#x435;&#x43d;&#x430;</tspan></text>
<text id="label_area_13" fill="white" style="white-space: pre" xml:space="preserve" font-family="Montserrat" font-size="8" letter-spacing="0em"><tspan x="923.27" y="127.036">00,00 &#x43c;&#xb2;</tspan></text>
<text id="label_name_13" fill="white" style="white-space: pre" xml:space="preserve" font-family="Montserrat" font-size="8" letter-spacing="0em"><tspan x="948.549" y="40.3934">207</tspan></text>
<g id="label_busy_13">
<path id="form_13" d="M938.682 33.9384L943.97 33.9384L946.613 38.5173L943.97 43.0961L938.682 43.0961L936.039 38.5173L938.682 33.9384Z" fill="url(#paint12_radial_391_1263)"/>
<text id="&#209;&#129;&#208;&#180;&#208;&#176;&#208;&#189;_13" fill="black" style="white-space: pre" xml:space="preserve" font-family="Montserrat" font-size="3" font-weight="500" letter-spacing="0em"><tspan x="936.511" y="39.1868">&#x441;&#x434;&#x430;&#x43d;</tspan></text>
</g>
</g>
<g id="room_208">
<path id="poly_14" d="M698.499 147.186H817.735C819.945 147.186 821.735 148.976 821.735 151.186V247.449C821.735 249.658 819.945 251.449 817.735 251.449H772.72C770.511 251.449 768.72 249.658 768.72 247.449V189.18C768.72 186.971 766.929 185.18 764.72 185.18H705.991C704.562 185.18 703.241 184.417 702.527 183.18L695.035 170.203C694.684 169.595 694.499 168.906 694.499 168.203V151.186C694.499 148.976 696.29 147.186 698.499 147.186Z" fill="#375A6D"/>
<path id="label_lock_14" d="M785.321 188.984V187.179C785.321 186.871 785.341 186.57 785.381 186.276M793.988 188.984V187.179C793.988 186.078 793.72 185.004 793.219 184.099C792.719 183.194 792.01 182.501 791.186 182.112C790.363 181.723 789.464 181.656 788.61 181.921C787.756 182.186 786.986 182.77 786.404 183.596M788.932 199.818H786.765C784.723 199.818 783.701 199.818 783.066 199.024C782.432 198.232 782.432 196.954 782.432 194.401C782.432 191.848 782.432 190.571 783.066 189.778C783.701 188.984 784.723 188.984 786.765 188.984H792.543C794.586 188.984 795.608 188.984 796.242 189.778C796.877 190.571 796.877 191.848 796.877 194.401C796.877 196.954 796.877 198.232 796.242 199.024C795.608 199.818 794.586 199.818 792.543 199.818H791.821" stroke="#EADB5A" stroke-width="0.5" stroke-linecap="round"/>
<text id="label_price_14" fill="white" style="white-space: pre" xml:space="preserve" font-family="Montserrat" font-size="7" letter-spacing="0em"><tspan x="706.596" y="175.531">&#x446;&#x435;&#x43d;&#x430;</tspan></text>
<text id="label_area_14" fill="white" style="white-space: pre" xml:space="preserve" font-family="Montserrat" font-size="8" letter-spacing="0em"><tspan x="776.413" y="242.597">00,00 &#x43c;&#xb2;</tspan></text>
<text id="label_name_14" fill="white" style="white-space: pre" xml:space="preserve" font-family="Montserrat" font-size="8" letter-spacing="0em"><tspan x="801.692" y="158.358">208</tspan></text>
<g id="label_busy_14">
<path id="form_14" d="M791.826 151.903L797.113 151.903L799.757 156.482L797.113 161.061L791.826 161.061L789.182 156.482L791.826 151.903Z" fill="url(#paint13_radial_391_1263)"/>
<text id="&#209;&#129;&#208;&#180;&#208;&#176;&#208;&#189;_14" fill="black" style="white-space: pre" xml:space="preserve" font-family="Montserrat" font-size="3" font-weight="500" letter-spacing="0em"><tspan x="789.655" y="157.154">&#x441;&#x434;&#x430;&#x43d;</tspan></text>
</g>
</g>
<g id="room_209">
<path id="poly_15" d="M766.952 190.948V247.45C766.952 249.659 765.162 251.45 762.952 251.45H685.257C683.048 251.45 681.257 249.659 681.257 247.45V196.856C681.257 196.153 681.072 195.464 680.721 194.856L675.292 185.452C674.187 183.538 674.843 181.092 676.756 179.988L689.549 172.602C691.462 171.497 693.908 172.152 695.013 174.066L701.296 184.948C702.01 186.186 703.331 186.948 704.76 186.948H762.952C765.162 186.948 766.952 188.739 766.952 190.948Z" fill="#375A6D"/>
<path id="label_lock_15" d="M717.911 213.063V211.257C717.911 210.949 717.932 210.648 717.971 210.354M726.578 213.063V211.257C726.578 210.157 726.31 209.082 725.81 208.177C725.309 207.272 724.601 206.579 723.777 206.19C722.953 205.801 722.055 205.734 721.201 205.999C720.347 206.265 719.577 206.849 718.995 207.674M721.523 223.896H719.356C717.313 223.896 716.291 223.896 715.657 223.102C715.022 222.31 715.022 221.032 715.022 218.479C715.022 215.926 715.022 214.649 715.657 213.856C716.291 213.063 717.313 213.063 719.356 213.063H725.134C727.176 213.063 728.198 213.063 728.832 213.856C729.467 214.649 729.467 215.926 729.467 218.479C729.467 221.032 729.467 222.31 728.832 223.102C728.198 223.896 727.176 223.896 725.134 223.896H724.412" stroke="#EADB5A" stroke-width="0.5" stroke-linecap="round"/>
<text id="label_price_15" fill="white" style="white-space: pre" xml:space="preserve" font-family="Montserrat" font-size="7" letter-spacing="0em"><tspan x="684.929" y="215.258">&#x446;&#x435;&#x43d;&#x430;</tspan></text>
<text id="label_area_15" fill="white" style="white-space: pre" xml:space="preserve" font-family="Montserrat" font-size="8" letter-spacing="0em"><tspan x="721.041" y="242.598">00,00 &#x43c;&#xb2;</tspan></text>
<text id="label_name_15" fill="white" style="white-space: pre" xml:space="preserve" font-family="Montserrat" font-size="8" letter-spacing="0em"><tspan x="746.32" y="198.087">209</tspan></text>
<g id="label_busy_15">
<path id="form_15" d="M736.454 191.632L741.741 191.632L744.385 196.211L741.741 200.789L736.454 200.789L733.81 196.211L736.454 191.632Z" fill="url(#paint14_radial_391_1263)"/>
<text id="&#209;&#129;&#208;&#180;&#208;&#176;&#208;&#189;_15" fill="black" style="white-space: pre" xml:space="preserve" font-family="Montserrat" font-size="3" font-weight="500" letter-spacing="0em"><tspan x="734.283" y="196.878">&#x441;&#x434;&#x430;&#x43d;</tspan></text>
</g>
</g>
<g id="room_210">
<path id="poly_16" d="M679.479 197.738V247.449C679.479 249.658 677.688 251.449 675.479 251.449H612.215C611.155 251.449 610.137 251.028 609.387 250.277L594.942 235.832C594.192 235.082 593.771 234.065 593.771 233.004V186.529C593.771 184.32 595.561 182.529 597.771 182.529H669.007C670.436 182.529 671.757 183.292 672.471 184.529L678.943 195.738C679.294 196.347 679.479 197.036 679.479 197.738Z" fill="#375A6D"/>
<path id="label_lock_16" d="M632.447 211.855V210.05C632.447 209.742 632.467 209.441 632.507 209.147M641.114 211.855V210.05C641.114 208.95 640.846 207.875 640.345 206.97C639.845 206.065 639.136 205.372 638.312 204.983C637.489 204.594 636.59 204.527 635.736 204.792C634.882 205.057 634.112 205.642 633.53 206.467M636.058 222.689H633.891C631.849 222.689 630.827 222.689 630.192 221.895C629.558 221.103 629.558 219.825 629.558 217.272C629.558 214.719 629.558 213.442 630.192 212.649C630.827 211.855 631.849 211.855 633.891 211.855H639.669C641.712 211.855 642.734 211.855 643.368 212.649C644.002 213.442 644.003 214.719 644.003 217.272C644.003 219.825 644.002 221.103 643.368 221.895C642.734 222.689 641.712 222.689 639.669 222.689H638.947" stroke="#EADB5A" stroke-width="0.5" stroke-linecap="round"/>
<text id="label_price_16" fill="white" style="white-space: pre" xml:space="preserve" font-family="Montserrat" font-size="7" letter-spacing="0em"><tspan x="599.463" y="215.256">&#x446;&#x435;&#x43d;&#x430;</tspan></text>
<text id="label_area_16" fill="white" style="white-space: pre" xml:space="preserve" font-family="Montserrat" font-size="8" letter-spacing="0em"><tspan x="630.761" y="242.597">00,00 &#x43c;&#xb2;</tspan></text>
<text id="label_name_16" fill="white" style="white-space: pre" xml:space="preserve" font-family="Montserrat" font-size="8" letter-spacing="0em"><tspan x="657.243" y="194.477">210</tspan></text>
<g id="label_busy_16">
<path id="form_16" d="M647.377 188.015L652.664 188.015L655.308 192.593L652.664 197.172L647.377 197.172L644.733 192.593L647.377 188.015Z" fill="url(#paint15_radial_391_1263)"/>
<text id="&#209;&#129;&#208;&#180;&#208;&#176;&#208;&#189;_16" fill="black" style="white-space: pre" xml:space="preserve" font-family="Montserrat" font-size="3" font-weight="500" letter-spacing="0em"><tspan x="645.206" y="193.263">&#x441;&#x434;&#x430;&#x43d;</tspan></text>
</g>
</g>
<g id="room_211">
<path id="poly_17" d="M592.003 233.888V186.529C592.003 184.32 590.212 182.529 588.003 182.529H553.591C551.382 182.529 549.591 184.32 549.591 186.529V274.406C549.591 275.879 550.785 277.073 552.258 277.073C553.731 277.073 554.925 278.267 554.925 279.74V289.469C554.925 290.942 553.731 292.136 552.258 292.136C550.785 292.136 549.591 293.331 549.591 294.804V311.067C549.591 313.276 551.382 315.067 553.591 315.067H623.346C625.556 315.067 627.346 313.276 627.346 311.067V296.094C627.346 293.885 625.556 292.094 623.346 292.094H597.77C595.561 292.094 593.77 290.303 593.77 288.094V281.073C593.77 278.864 595.561 277.073 597.77 277.073H623.346C625.556 277.073 627.346 275.282 627.346 273.073V257.216C627.346 255.007 625.556 253.216 623.346 253.216H611.332C610.271 253.216 609.253 252.795 608.503 252.045L593.175 236.716C592.424 235.966 592.003 234.948 592.003 233.888Z" fill="#375A6D"/>
<path id="label_lock_17" d="M567.444 239.543V237.737C567.444 237.43 567.464 237.129 567.504 236.835M576.111 239.543V237.737C576.111 236.637 575.843 235.563 575.342 234.658C574.842 233.753 574.133 233.059 573.309 232.67C572.486 232.281 571.587 232.215 570.733 232.48C569.879 232.745 569.109 233.329 568.527 234.154M571.055 250.376H568.888C566.846 250.376 565.824 250.376 565.19 249.583C564.555 248.79 564.555 247.513 564.555 244.96C564.555 242.407 564.555 241.129 565.19 240.337C565.824 239.543 566.846 239.543 568.888 239.543H574.666C576.709 239.543 577.731 239.543 578.365 240.337C579 241.129 579 242.407 579 244.96C579 247.513 579 248.79 578.365 249.583C577.731 250.376 576.709 250.376 574.666 250.376H573.944" stroke="#EADB5A" stroke-width="0.5" stroke-linecap="round"/>
<text id="label_price_17" fill="white" style="white-space: pre" xml:space="preserve" font-family="Montserrat" font-size="7" letter-spacing="0em"><tspan x="553.722" y="262.201">&#x446;&#x435;&#x43d;&#x430;</tspan></text>
<text id="label_area_17" fill="white" style="white-space: pre" xml:space="preserve" font-family="Montserrat" font-size="8" letter-spacing="0em"><tspan x="580.203" y="306.395">00,00 &#x43c;&#xb2;</tspan></text>
<text id="label_name_17" fill="white" style="white-space: pre" xml:space="preserve" font-family="Montserrat" font-size="8" letter-spacing="0em"><tspan x="571.777" y="193.272">211</tspan></text>
<g id="label_busy_17">
<path id="form_17" d="M561.912 186.813L567.199 186.813L569.843 191.392L567.199 195.971L561.912 195.971L559.268 191.392L561.912 186.813Z" fill="url(#paint16_radial_391_1263)"/>
<text id="&#209;&#129;&#208;&#180;&#208;&#176;&#208;&#189;_17" fill="black" style="white-space: pre" xml:space="preserve" font-family="Montserrat" font-size="3" font-weight="500" letter-spacing="0em"><tspan x="559.74" y="192.06">&#x441;&#x434;&#x430;&#x43d;</tspan></text>
</g>
</g>
<g id="room_212">
<path id="poly_18" d="M547.823 273.073V186.529C547.823 184.32 546.032 182.529 543.823 182.529H497.041C494.832 182.529 493.041 184.32 493.041 186.529V273.073C493.041 275.282 494.832 277.073 497.041 277.073H505.829C508.038 277.073 509.829 278.864 509.829 281.073V288.094C509.829 290.303 508.038 292.094 505.829 292.094H492.623C490.414 292.094 488.623 293.885 488.623 296.094V311.067C488.623 313.276 490.414 315.067 492.623 315.067H543.823C546.032 315.067 547.823 313.276 547.823 311.067V296.094C547.823 293.885 546.032 292.094 543.823 292.094H542.987C540.778 292.094 538.987 290.303 538.987 288.094V281.073C538.987 278.864 540.778 277.073 542.987 277.073H543.823C546.032 277.073 547.823 275.282 547.823 273.073Z" fill="#375A6D"/>
<path id="label_lock_18" d="M516.887 239.543V237.737C516.887 237.43 516.907 237.129 516.947 236.835M525.554 239.543V237.737C525.554 236.637 525.286 235.563 524.785 234.658C524.285 233.753 523.576 233.059 522.752 232.67C521.929 232.281 521.031 232.215 520.176 232.48C519.322 232.745 518.553 233.329 517.97 234.154M520.498 250.376H518.332C516.289 250.376 515.267 250.376 514.633 249.583C513.998 248.79 513.998 247.513 513.998 244.96C513.998 242.407 513.998 241.129 514.633 240.337C515.267 239.543 516.289 239.543 518.332 239.543H524.109C526.152 239.543 527.174 239.543 527.808 240.337C528.443 241.129 528.443 242.407 528.443 244.96C528.443 247.513 528.443 248.79 527.808 249.583C527.174 250.376 526.152 250.376 524.109 250.376H523.387" stroke="#EADB5A" stroke-width="0.5" stroke-linecap="round"/>
<text id="label_price_18" fill="white" style="white-space: pre" xml:space="preserve" font-family="Montserrat" font-size="7" letter-spacing="0em"><tspan x="497.146" y="240.533">&#x446;&#x435;&#x43d;&#x430;</tspan></text>
<text id="label_area_18" fill="white" style="white-space: pre" xml:space="preserve" font-family="Montserrat" font-size="8" letter-spacing="0em"><tspan x="497.146" y="306.395">00,00 &#x43c;&#xb2;</tspan></text>
<text id="label_name_18" fill="white" style="white-space: pre" xml:space="preserve" font-family="Montserrat" font-size="8" letter-spacing="0em"><tspan x="527.238" y="193.272">212</tspan></text>
<g id="label_busy_18">
<path id="form_18" d="M517.373 186.813L522.66 186.813L525.304 191.392L522.66 195.971L517.373 195.971L514.729 191.392L517.373 186.813Z" fill="url(#paint17_radial_391_1263)"/>
<text id="&#209;&#129;&#208;&#180;&#208;&#176;&#208;&#189;_18" fill="black" style="white-space: pre" xml:space="preserve" font-family="Montserrat" font-size="3" font-weight="500" letter-spacing="0em"><tspan x="515.201" y="192.058">&#x441;&#x434;&#x430;&#x43d;</tspan></text>
</g>
</g>
<g id="room_213">
<path id="poly_19" d="M470.952 296.07V311.067C470.952 313.276 469.161 315.067 466.952 315.067H423.704C421.495 315.067 419.704 313.276 419.704 311.067V296.094C419.704 293.885 421.495 292.094 423.704 292.094H428.958C431.167 292.094 432.958 290.303 432.958 288.094V281.073C432.958 278.864 431.167 277.073 428.958 277.073H423.704C421.495 277.073 419.704 275.282 419.704 273.073V186.529C419.704 184.32 421.495 182.529 423.704 182.529H478.439C480.648 182.529 482.439 184.32 482.439 186.529V273.073C482.439 275.282 480.648 277.073 478.439 277.073H467C464.791 277.073 463 278.864 463 281.073V288.118C463 290.314 464.78 292.094 466.976 292.094C469.172 292.094 470.952 293.874 470.952 296.07Z" fill="#375A6D"/>
<path id="label_lock_19" d="M445.866 239.543V237.737C445.866 237.43 445.886 237.129 445.925 236.835M454.532 239.543V237.737C454.532 236.637 454.265 235.563 453.764 234.658C453.263 233.753 452.555 233.059 451.731 232.67C450.908 232.281 450.009 232.215 449.155 232.48C448.301 232.745 447.531 233.329 446.949 234.154M449.477 250.376H447.31C445.268 250.376 444.246 250.376 443.611 249.583C442.977 248.79 442.977 247.513 442.977 244.96C442.977 242.407 442.977 241.129 443.611 240.337C444.246 239.543 445.268 239.543 447.31 239.543H453.088C455.131 239.543 456.152 239.543 456.787 240.337C457.421 241.129 457.421 242.407 457.421 244.96C457.421 247.513 457.421 248.79 456.787 249.583C456.152 250.376 455.131 250.376 453.088 250.376H452.366" stroke="#EADB5A" stroke-width="0.5" stroke-linecap="round"/>
<text id="label_price_19" fill="white" style="white-space: pre" xml:space="preserve" font-family="Montserrat" font-size="7" letter-spacing="0em"><tspan x="422.513" y="240.533">&#x446;&#x435;&#x43d;&#x430;</tspan></text>
<text id="label_area_19" fill="white" style="white-space: pre" xml:space="preserve" font-family="Montserrat" font-size="8" letter-spacing="0em"><tspan x="424.921" y="306.395">00,00 &#x43c;&#xb2;</tspan></text>
<text id="label_name_19" fill="white" style="white-space: pre" xml:space="preserve" font-family="Montserrat" font-size="8" letter-spacing="0em"><tspan x="462.236" y="193.274">213</tspan></text>
<g id="label_busy_19">
<path id="form_19" d="M452.371 186.813L457.658 186.813L460.302 191.392L457.658 195.971L452.371 195.971L449.727 191.392L452.371 186.813Z" fill="url(#paint18_radial_391_1263)"/>
<text id="&#209;&#129;&#208;&#180;&#208;&#176;&#208;&#189;_19" fill="black" style="white-space: pre" xml:space="preserve" font-family="Montserrat" font-size="3" font-weight="500" letter-spacing="0em"><tspan x="450.2" y="192.06">&#x441;&#x434;&#x430;&#x43d;</tspan></text>
</g>
</g>
<g id="room_214">
<path id="poly_20" d="M417.852 186.529V311.067C417.852 313.276 416.061 315.067 413.852 315.067H345.863C343.654 315.067 341.863 313.276 341.863 311.067V296.094C341.863 293.885 343.654 292.094 345.863 292.094H369.672C371.882 292.094 373.672 290.303 373.672 288.094V281.073C373.672 278.864 371.882 277.073 369.672 277.073H345.863C343.654 277.073 341.863 275.282 341.863 273.073V259.867C341.863 257.658 343.654 255.867 345.863 255.867H352.577C353.637 255.867 354.655 255.446 355.405 254.695L366.316 243.785C367.066 243.035 367.487 242.017 367.487 240.956V186.529C367.487 184.32 369.278 182.529 371.487 182.529H413.852C416.061 182.529 417.852 184.32 417.852 186.529Z" fill="#375A6D"/>
<path id="label_lock_20" d="M385.678 239.543V237.737C385.678 237.43 385.698 237.129 385.738 236.835M394.345 239.543V237.737C394.345 236.637 394.077 235.563 393.576 234.658C393.076 233.753 392.367 233.059 391.543 232.67C390.72 232.281 389.822 232.215 388.967 232.48C388.113 232.745 387.344 233.329 386.761 234.154M389.289 250.376H387.123C385.08 250.376 384.058 250.376 383.424 249.583C382.789 248.79 382.789 247.513 382.789 244.96C382.789 242.407 382.789 241.129 383.424 240.337C384.058 239.543 385.08 239.543 387.123 239.543H392.9C394.943 239.543 395.965 239.543 396.599 240.337C397.234 241.129 397.234 242.407 397.234 244.96C397.234 247.513 397.234 248.79 396.599 249.583C395.965 250.376 394.943 250.376 392.9 250.376H392.178" stroke="#EADB5A" stroke-width="0.5" stroke-linecap="round"/>
<text id="label_price_20" fill="white" style="white-space: pre" xml:space="preserve" font-family="Montserrat" font-size="7" letter-spacing="0em"><tspan x="349.085" y="267.017">&#x446;&#x435;&#x43d;&#x430;</tspan></text>
<text id="label_area_20" fill="white" style="white-space: pre" xml:space="preserve" font-family="Montserrat" font-size="8" letter-spacing="0em"><tspan x="349.085" y="306.395">00,00 &#x43c;&#xb2;</tspan></text>
<text id="label_name_20" fill="white" style="white-space: pre" xml:space="preserve" font-family="Montserrat" font-size="8" letter-spacing="0em"><tspan x="397.235" y="193.274">214</tspan></text>
<g id="label_busy_20">
<path id="form_20" d="M387.368 186.813L392.655 186.813L395.299 191.392L392.655 195.971L387.368 195.971L384.724 191.392L387.368 186.813Z" fill="url(#paint19_radial_391_1263)"/>
<text id="&#209;&#129;&#208;&#180;&#208;&#176;&#208;&#189;_20" fill="black" style="white-space: pre" xml:space="preserve" font-family="Montserrat" font-size="3" font-weight="500" letter-spacing="0em"><tspan x="385.197" y="192.06">&#x441;&#x434;&#x430;&#x43d;</tspan></text>
</g>
</g>
<g id="room_215">
<path id="poly_21" d="M365.804 240.073V186.529C365.804 184.32 364.013 182.529 361.804 182.529H290.281C288.072 182.529 286.281 184.32 286.281 186.529V250.1C286.281 252.309 288.072 254.1 290.281 254.1H351.777C352.838 254.1 353.855 253.678 354.605 252.928L364.632 242.901C365.383 242.151 365.804 241.134 365.804 240.073Z" fill="#375A6D"/>
<path id="label_lock_21" d="M321.88 215.469V213.663C321.88 213.356 321.9 213.055 321.94 212.76M330.547 215.469V213.663C330.547 212.563 330.279 211.489 329.779 210.584C329.278 209.678 328.57 208.985 327.746 208.596C326.922 208.207 326.024 208.141 325.169 208.406C324.316 208.671 323.546 209.255 322.964 210.08M325.491 226.302H323.325C321.282 226.302 320.26 226.302 319.626 225.509C318.991 224.716 318.991 223.439 318.991 220.885C318.991 218.332 318.991 217.055 319.626 216.262C320.26 215.469 321.282 215.469 323.325 215.469H329.103C331.145 215.469 332.167 215.469 332.801 216.262C333.436 217.055 333.436 218.332 333.436 220.885C333.436 223.439 333.436 224.716 332.801 225.509C332.167 226.302 331.145 226.302 329.103 226.302H328.38" stroke="#EADB5A" stroke-width="0.5" stroke-linecap="round"/>
<text id="label_price_21" fill="white" style="white-space: pre" xml:space="preserve" font-family="Montserrat" font-size="7" letter-spacing="0em"><tspan x="288.898" y="217.664">&#x446;&#x435;&#x43d;&#x430;</tspan></text>
<text id="label_area_21" fill="white" style="white-space: pre" xml:space="preserve" font-family="Montserrat" font-size="8" letter-spacing="0em"><tspan x="310.565" y="245.003">00,00 &#x43c;&#xb2;</tspan></text>
<text id="label_name_21" fill="white" style="white-space: pre" xml:space="preserve" font-family="Montserrat" font-size="8" letter-spacing="0em"><tspan x="345.475" y="193.274">215</tspan></text>
<g id="label_busy_21">
<path id="form_21" d="M335.607 186.813L340.894 186.813L343.538 191.392L340.894 195.971L335.607 195.971L332.964 191.392L335.607 186.813Z" fill="url(#paint20_radial_391_1263)"/>
<text id="&#209;&#129;&#208;&#180;&#208;&#176;&#208;&#189;_21" fill="black" style="white-space: pre" xml:space="preserve" font-family="Montserrat" font-size="3" font-weight="500" letter-spacing="0em"><tspan x="333.437" y="192.058">&#x441;&#x434;&#x430;&#x43d;</tspan></text>
</g>
</g>
<g id="room_216">
<path id="poly_22" d="M284.514 186.529V250.1C284.514 252.309 282.723 254.1 280.514 254.1H204.573C202.364 254.1 200.573 252.309 200.573 250.1V186.529C200.573 184.32 202.364 182.529 204.573 182.529H280.514C282.723 182.529 284.514 184.32 284.514 186.529Z" fill="#375A6D"/>
<path id="label_lock_22" d="M235.211 215.469V213.663C235.211 213.356 235.231 213.055 235.271 212.76M243.878 215.469V213.663C243.878 212.563 243.61 211.489 243.11 210.584C242.609 209.678 241.901 208.985 241.077 208.596C240.253 208.207 239.355 208.141 238.5 208.406C237.647 208.671 236.877 209.255 236.295 210.08M238.822 226.302H236.656C234.613 226.302 233.591 226.302 232.957 225.509C232.322 224.716 232.322 223.439 232.322 220.885C232.322 218.332 232.322 217.055 232.957 216.262C233.591 215.469 234.613 215.469 236.656 215.469H242.434C244.476 215.469 245.498 215.469 246.132 216.262C246.767 217.055 246.767 218.332 246.767 220.885C246.767 223.439 246.767 224.716 246.132 225.509C245.498 226.302 244.476 226.302 242.434 226.302H241.711" stroke="#EADB5A" stroke-width="0.5" stroke-linecap="round"/>
<text id="label_price_22" fill="white" style="white-space: pre" xml:space="preserve" font-family="Montserrat" font-size="7" letter-spacing="0em"><tspan x="204.636" y="217.664">&#x446;&#x435;&#x43d;&#x430;</tspan></text>
<text id="label_area_22" fill="white" style="white-space: pre" xml:space="preserve" font-family="Montserrat" font-size="8" letter-spacing="0em"><tspan x="238.341" y="245.003">00,00 &#x43c;&#xb2;</tspan></text>
<text id="label_name_22" fill="white" style="white-space: pre" xml:space="preserve" font-family="Montserrat" font-size="8" letter-spacing="0em"><tspan x="263.619" y="193.274">216</tspan></text>
<g id="label_busy_22">
<path id="form_22" d="M253.754 186.813L259.041 186.813L261.684 191.392L259.041 195.971L253.754 195.971L251.11 191.392L253.754 186.813Z" fill="url(#paint21_radial_391_1263)"/>
<text id="&#209;&#129;&#208;&#180;&#208;&#176;&#208;&#189;_22" fill="black" style="white-space: pre" xml:space="preserve" font-family="Montserrat" font-size="3" font-weight="500" letter-spacing="0em"><tspan x="251.582" y="192.058">&#x441;&#x434;&#x430;&#x43d;</tspan></text>
</g>
</g>
<g id="room_217">
<path id="poly_23" d="M198.807 184.762V250.1C198.807 252.309 197.016 254.1 194.807 254.1H148.024C145.815 254.1 144.024 252.309 144.024 250.1V152.953C144.024 150.744 145.815 148.953 148.024 148.953H208.944C211.153 148.953 212.944 150.744 212.944 152.953V176.762C212.944 178.971 211.153 180.762 208.944 180.762H202.807C200.598 180.762 198.807 182.553 198.807 184.762Z" fill="#375A6D"/>
<path id="label_lock_23" d="M167.802 196.209V194.403C167.802 194.096 167.822 193.795 167.862 193.501M176.469 196.209V194.403C176.469 193.303 176.201 192.229 175.701 191.324C175.2 190.419 174.491 189.725 173.667 189.336C172.844 188.947 171.946 188.881 171.091 189.146C170.237 189.411 169.468 189.995 168.885 190.82M171.413 207.042H169.247C167.204 207.042 166.182 207.042 165.548 206.249C164.913 205.456 164.913 204.179 164.913 201.626C164.913 199.073 164.913 197.795 165.548 197.003C166.182 196.209 167.204 196.209 169.247 196.209H175.025C177.067 196.209 178.089 196.209 178.723 197.003C179.358 197.795 179.358 199.073 179.358 201.626C179.358 204.179 179.358 205.456 178.723 206.249C178.089 207.042 177.067 207.042 175.025 207.042H174.302" stroke="#EADB5A" stroke-width="0.5" stroke-linecap="round"/>
<text id="label_price_23" fill="white" style="white-space: pre" xml:space="preserve" font-family="Montserrat" font-size="7" letter-spacing="0em"><tspan x="146.856" y="202.017">&#x446;&#x435;&#x43d;&#x430;</tspan></text>
<text id="label_area_23" fill="white" style="white-space: pre" xml:space="preserve" font-family="Montserrat" font-size="8" letter-spacing="0em"><tspan x="150.468" y="245.005">00,00 &#x43c;&#xb2;</tspan></text>
<text id="label_name_23" fill="white" style="white-space: pre" xml:space="preserve" font-family="Montserrat" font-size="8" letter-spacing="0em"><tspan x="192.599" y="159.573">217</tspan></text>
<g id="label_busy_23">
<path id="form_23" d="M182.732 153.11L188.019 153.11L190.663 157.689L188.019 162.268L182.732 162.268L180.089 157.689L182.732 153.11Z" fill="url(#paint22_radial_391_1263)"/>
<text id="&#209;&#129;&#208;&#180;&#208;&#176;&#208;&#189;_23" fill="black" style="white-space: pre" xml:space="preserve" font-family="Montserrat" font-size="3" font-weight="500" letter-spacing="0em"><tspan x="180.562" y="158.359">&#x441;&#x434;&#x430;&#x43d;</tspan></text>
</g>
</g>
<g id="room_218">
<path id="poly_24" d="M0 130.816V37.2031C0 34.994 1.79086 33.2031 4 33.2031H38.4121C40.6213 33.2031 42.4121 34.994 42.4121 37.2031V104.308C42.4121 106.517 44.203 108.308 46.4121 108.308H63.1525C65.3617 108.308 67.1525 110.099 67.1525 112.308V130.816C67.1525 133.025 65.3617 134.816 63.1525 134.816H4C1.79086 134.816 0 133.025 0 130.816Z" fill="#375A6D"/>
<path id="label_lock_24" d="M17.3333 77.0391V75.2335C17.3333 74.9259 17.3535 74.625 17.3933 74.3307M26.0003 77.0391V75.2335C26.0003 74.1332 25.7323 73.059 25.2318 72.1538C24.7313 71.2486 24.0227 70.5553 23.1986 70.1663C22.3753 69.7772 21.4768 69.7109 20.6224 69.976C19.7687 70.2411 18.9988 70.8251 18.4167 71.6503M20.9445 87.8725H18.7778C16.7353 87.8725 15.7133 87.8725 15.0792 87.079C14.4443 86.2863 14.4443 85.0089 14.4443 82.4558C14.4443 79.9027 14.4443 78.6253 15.0792 77.8326C15.7133 77.0391 16.7353 77.0391 18.7778 77.0391H24.5558C26.5983 77.0391 27.6202 77.0391 28.2544 77.8326C28.8892 78.6253 28.8892 79.9027 28.8892 82.4558C28.8892 85.0089 28.8892 86.2863 28.2544 87.079C27.6202 87.8725 26.5983 87.8725 24.5558 87.8725H23.8335" stroke="#EADB5A" stroke-width="0.5" stroke-linecap="round"/>
<text id="label_price_24" fill="white" style="white-space: pre" xml:space="preserve" font-family="Montserrat" font-size="7" letter-spacing="0em"><tspan x="1.91016" y="84.2029">&#x446;&#x435;&#x43d;&#x430;</tspan></text>
<text id="label_area_24" fill="white" style="white-space: pre" xml:space="preserve" font-family="Montserrat" font-size="8" letter-spacing="0em"><tspan x="3.91016" y="128.061">00,00 &#x43c;&#xb2;</tspan></text>
<text id="label_name_24" fill="white" style="white-space: pre" xml:space="preserve" font-family="Montserrat" font-size="8" letter-spacing="0em"><tspan x="22.8711" y="45.1825">218</tspan></text>
<g id="label_busy_24">
<path id="form_24" d="M13.0056 38.7529L18.2928 38.7529L20.9364 43.3317L18.2928 47.9106L13.0056 47.9106L10.362 43.3317L13.0056 38.7529Z" fill="url(#paint23_radial_391_1263)"/>
<text id="&#209;&#129;&#208;&#180;&#208;&#176;&#208;&#189;_24" fill="black" style="white-space: pre" xml:space="preserve" font-family="Montserrat" font-size="3" font-weight="500" letter-spacing="0em"><tspan x="10.833" y="44.0032">&#x441;&#x434;&#x430;&#x43d;</tspan></text>
</g>
</g>
<path id="Rectangle 494" d="M133.615 7.2207L133.615 1.20199L157.69 1.20199L157.69 7.2207L133.615 7.2207Z" fill="#8FB6F9"/>
<path id="Rectangle 495" d="M297.324 7.2207L297.324 1.20199L326.214 1.20199L326.214 7.2207L297.324 7.2207Z" fill="#8FB6F9"/>
<path id="Rectangle 496" d="M627.149 6.01758L627.149 -0.0011308L656.039 -0.00113045L656.039 6.01758L627.149 6.01758Z" fill="#8FB6F9"/>
<path id="Rectangle 497" d="M681.318 6.01758L681.318 -0.0011308L710.208 -0.00113045L710.208 6.01758L681.318 6.01758Z" fill="#8FB6F9"/>
<path id="Rectangle 498" d="M795.673 6.01758L795.673 -0.0011302L819.748 -0.00113049L819.748 6.01758L795.673 6.01758Z" fill="#8FB6F9"/>
<path id="Rectangle 499" d="M847.434 6.01758L847.434 -0.0011302L871.508 -0.00113049L871.508 6.01758L847.434 6.01758Z" fill="#8FB6F9"/>
<path id="Rectangle 485" d="M341.863 320.193L341.863 314.175L470.949 314.175L470.949 320.193L341.863 320.193Z" fill="#8FB6F9"/>
<path id="Rectangle 486" d="M488.614 320.193L488.614 314.175L627.346 314.175L627.346 320.193L488.614 320.193Z" fill="#8FB6F9"/>
<path id="Rectangle 487" d="M654.835 256.396L654.835 250.378L679.475 250.378L679.475 256.396L654.835 256.396Z" fill="#8FB6F9"/>
<path id="Rectangle 490" d="M294.916 258.805L294.916 252.786L318.991 252.786L318.991 258.805L294.916 258.805Z" fill="#8FB6F9"/>
<path id="Rectangle 491" d="M158.894 258.805L158.894 252.786L182.968 252.786L182.968 258.805L158.894 258.805Z" fill="#8FB6F9"/>
<path id="Rectangle 492" d="M221.489 258.805L221.489 252.786L245.564 252.786L245.564 258.805L221.489 258.805Z" fill="#8FB6F9"/>
<path id="Rectangle 488" d="M711.411 256.396L711.411 250.378L736.051 250.378L736.051 256.396L711.411 256.396Z" fill="#8FB6F9"/>
<path id="Rectangle 489" d="M768.725 256.396L768.725 250.378L793.832 250.378L793.832 256.396L768.725 256.396Z" fill="#8FB6F9"/>
</g>
<defs>
<radialGradient id="paint0_radial_391_1263" cx="0" cy="0" r="1" gradientUnits="userSpaceOnUse" gradientTransform="translate(84.5734 13.8314) rotate(130.972) scale(7.60283)">
<stop stop-color="#03CF21"/>
<stop offset="0.706731" stop-color="#20CDED"/>
</radialGradient>
<radialGradient id="paint1_radial_391_1263" cx="0" cy="0" r="1" gradientUnits="userSpaceOnUse" gradientTransform="translate(124.297 13.8314) rotate(130.972) scale(7.60283)">
<stop stop-color="#03CF21"/>
<stop offset="0.706731" stop-color="#20CDED"/>
</radialGradient>
<radialGradient id="paint2_radial_391_1263" cx="0" cy="0" r="1" gradientUnits="userSpaceOnUse" gradientTransform="translate(179.669 13.8334) rotate(130.972) scale(7.60283)">
<stop stop-color="#03CF21"/>
<stop offset="0.706731" stop-color="#20CDED"/>
</radialGradient>
<radialGradient id="paint3_radial_391_1263" cx="0" cy="0" r="1" gradientUnits="userSpaceOnUse" gradientTransform="translate(225.411 13.8314) rotate(130.972) scale(7.60283)">
<stop stop-color="#03CF21"/>
<stop offset="0.706731" stop-color="#20CDED"/>
</radialGradient>
<radialGradient id="paint4_radial_391_1263" cx="0" cy="0" r="1" gradientUnits="userSpaceOnUse" gradientTransform="translate(286.802 13.8334) rotate(130.972) scale(7.60283)">
<stop stop-color="#03CF21"/>
<stop offset="0.706731" stop-color="#20CDED"/>
</radialGradient>
<radialGradient id="paint5_radial_391_1263" cx="0" cy="0" r="1" gradientUnits="userSpaceOnUse" gradientTransform="translate(343.378 13.8334) rotate(130.972) scale(7.60283)">
<stop stop-color="#03CF21"/>
<stop offset="0.706731" stop-color="#20CDED"/>
</radialGradient>
<radialGradient id="paint6_radial_391_1263" cx="0" cy="0" r="1" gradientUnits="userSpaceOnUse" gradientTransform="translate(616.627 12.6263) rotate(130.972) scale(7.60283)">
<stop stop-color="#03CF21"/>
<stop offset="0.706731" stop-color="#20CDED"/>
</radialGradient>
<radialGradient id="paint7_radial_391_1263" cx="0" cy="0" r="1" gradientUnits="userSpaceOnUse" gradientTransform="translate(669.592 12.6263) rotate(130.972) scale(7.60283)">
<stop stop-color="#03CF21"/>
<stop offset="0.706731" stop-color="#20CDED"/>
</radialGradient>
<radialGradient id="paint8_radial_391_1263" cx="0" cy="0" r="1" gradientUnits="userSpaceOnUse" gradientTransform="translate(722.557 12.6303) rotate(130.972) scale(7.60283)">
<stop stop-color="#03CF21"/>
<stop offset="0.706731" stop-color="#20CDED"/>
</radialGradient>
<radialGradient id="paint9_radial_391_1263" cx="0" cy="0" r="1" gradientUnits="userSpaceOnUse" gradientTransform="translate(782.744 12.6303) rotate(130.972) scale(7.60283)">
<stop stop-color="#03CF21"/>
<stop offset="0.706731" stop-color="#20CDED"/>
</radialGradient>
<radialGradient id="paint10_radial_391_1263" cx="0" cy="0" r="1" gradientUnits="userSpaceOnUse" gradientTransform="translate(833.301 12.6263) rotate(130.972) scale(7.60283)">
<stop stop-color="#03CF21"/>
<stop offset="0.706731" stop-color="#20CDED"/>
</radialGradient>
<radialGradient id="paint11_radial_391_1263" cx="0" cy="0" r="1" gradientUnits="userSpaceOnUse" gradientTransform="translate(880.247 12.6283) rotate(130.972) scale(7.60283)">
<stop stop-color="#03CF21"/>
<stop offset="0.706731" stop-color="#20CDED"/>
</radialGradient>
<radialGradient id="paint12_radial_391_1263" cx="0" cy="0" r="1" gradientUnits="userSpaceOnUse" gradientTransform="translate(944.045 36.7045) rotate(130.972) scale(7.60283)">
<stop stop-color="#03CF21"/>
<stop offset="0.706731" stop-color="#20CDED"/>
</radialGradient>
<radialGradient id="paint13_radial_391_1263" cx="0" cy="0" r="1" gradientUnits="userSpaceOnUse" gradientTransform="translate(797.189 154.669) rotate(130.972) scale(7.60283)">
<stop stop-color="#03CF21"/>
<stop offset="0.706731" stop-color="#20CDED"/>
</radialGradient>
<radialGradient id="paint14_radial_391_1263" cx="0" cy="0" r="1" gradientUnits="userSpaceOnUse" gradientTransform="translate(741.817 194.398) rotate(130.972) scale(7.60283)">
<stop stop-color="#03CF21"/>
<stop offset="0.706731" stop-color="#20CDED"/>
</radialGradient>
<radialGradient id="paint15_radial_391_1263" cx="0" cy="0" r="1" gradientUnits="userSpaceOnUse" gradientTransform="translate(652.739 190.781) rotate(130.972) scale(7.60283)">
<stop stop-color="#03CF21"/>
<stop offset="0.706731" stop-color="#20CDED"/>
</radialGradient>
<radialGradient id="paint16_radial_391_1263" cx="0" cy="0" r="1" gradientUnits="userSpaceOnUse" gradientTransform="translate(567.275 189.579) rotate(130.972) scale(7.60283)">
<stop stop-color="#03CF21"/>
<stop offset="0.706731" stop-color="#20CDED"/>
</radialGradient>
<radialGradient id="paint17_radial_391_1263" cx="0" cy="0" r="1" gradientUnits="userSpaceOnUse" gradientTransform="translate(522.736 189.579) rotate(130.972) scale(7.60283)">
<stop stop-color="#03CF21"/>
<stop offset="0.706731" stop-color="#20CDED"/>
</radialGradient>
<radialGradient id="paint18_radial_391_1263" cx="0" cy="0" r="1" gradientUnits="userSpaceOnUse" gradientTransform="translate(457.734 189.579) rotate(130.972) scale(7.60283)">
<stop stop-color="#03CF21"/>
<stop offset="0.706731" stop-color="#20CDED"/>
</radialGradient>
<radialGradient id="paint19_radial_391_1263" cx="0" cy="0" r="1" gradientUnits="userSpaceOnUse" gradientTransform="translate(392.731 189.579) rotate(130.972) scale(7.60283)">
<stop stop-color="#03CF21"/>
<stop offset="0.706731" stop-color="#20CDED"/>
</radialGradient>
<radialGradient id="paint20_radial_391_1263" cx="0" cy="0" r="1" gradientUnits="userSpaceOnUse" gradientTransform="translate(340.97 189.579) rotate(130.972) scale(7.60283)">
<stop stop-color="#03CF21"/>
<stop offset="0.706731" stop-color="#20CDED"/>
</radialGradient>
<radialGradient id="paint21_radial_391_1263" cx="0" cy="0" r="1" gradientUnits="userSpaceOnUse" gradientTransform="translate(259.116 189.579) rotate(130.972) scale(7.60283)">
<stop stop-color="#03CF21"/>
<stop offset="0.706731" stop-color="#20CDED"/>
</radialGradient>
<radialGradient id="paint22_radial_391_1263" cx="0" cy="0" r="1" gradientUnits="userSpaceOnUse" gradientTransform="translate(188.095 155.876) rotate(130.972) scale(7.60283)">
<stop stop-color="#03CF21"/>
<stop offset="0.706731" stop-color="#20CDED"/>
</radialGradient>
<radialGradient id="paint23_radial_391_1263" cx="0" cy="0" r="1" gradientUnits="userSpaceOnUse" gradientTransform="translate(18.3684 41.5189) rotate(130.972) scale(7.60283)">
<stop stop-color="#03CF21"/>
<stop offset="0.706731" stop-color="#20CDED"/>
</radialGradient>
</defs>
</svg>
