<svg width="863" height="613" viewBox="0 0 863 613" fill="none" xmlns="http://www.w3.org/2000/svg">
<g id="&#208;&#161;&#208;&#181;&#208;&#180;&#208;&#190;&#208;&#178;&#208;&#176; 24 5 &#209;&#141;&#209;&#130;&#208;&#176;&#208;&#182; ">
<path id="Vector 1978" d="M785.5 606.84H860.5L860.5 42.8398L534.5 42.8398L360 21.5898L302 14.5268L272.75 10.9648L229.125 5.65234L207.312 2.99609L201.859 2.33203L199.133 2L196.728 2L185.055 2L175.5 2L165.61 2L155.5 3.33984L146 5.33984L136 7.83984L126.432 10.8398L118 13.8398L109.5 17.8398L99 22.8398L90.8884 27.3398L82.9442 32.8379L75 38.3359L68.5 43.3398L63 48.3398L54.5 56.8398L48 64.3398L38.5 76.3398L30 88.8398L22 100.34L16.5 111.34L14 119.345L11 129.34L8.5 138.84L5.5 147.84L4 157.34L2.5 164.34L2 171.34L2 177.84L2 185.09L2.5 194.715L3 204.34L4 213.34L6.55236 222.84L8.5 232.34L11 240.461L14 248.34L17.5 256.898L20 264.84L24.1119 272.84L28.5 280.84L33.5 288.038L41 297.84L47.5 305.34L57 315.34L63 321.84L69.5 326.84L76 332.84L86.5 340.34L97.5 346.34L105.5 350.84L113.824 354.34L130.5 361.239L148.791 365.34L167.146 368.84L185.5 369.84L785.5 606.84Z" fill="#DF4E4E"/>
<path id="Vector 1982" d="M861 521.5H811V607.134L861 607V521.5Z" fill="black"/>
<path id="Vector 1985" d="M705 190.5V43L730 43V53L763.5 53V47.5L800 47.5V81.5H787.5V68L730 68V171H737V199.848L705 190.5Z" fill="#D9D9D9"/>
<rect id="Rectangle 529" x="446.986" y="278.531" width="13.4142" height="10.0346" transform="rotate(111.45 446.986 278.531)" fill="black"/>
<rect id="Rectangle 530" x="472.245" y="213.67" width="13.4142" height="10.0346" transform="rotate(111.45 472.245 213.67)" fill="black"/>
<rect id="Rectangle 531" x="576.034" y="223" width="13.4142" height="10.0346" transform="rotate(90 576.034 223)" fill="black"/>
<rect id="Rectangle 534" x="416" y="94" width="11" height="11" transform="rotate(90 416 94)" fill="#D9D9D9"/>
<path id="Vector 2001" d="M781.5 538L787.5 540V578L778 600.5" stroke="black"/>
<path id="Vector 2000" d="M743 517V524.5L760.5 530.8M768 533.5L760.5 530.8M760.5 530.8L741 586" stroke="black"/>
<path id="Vector 1999" d="M741.5 500.5L741 497L722 490.144L644 462M722 490.144L695 565" stroke="black"/>
<path id="Vector 1997" d="M804.5 375.5V385" stroke="black"/>
<path id="Vector 1996" d="M861 409.5C858.2 409.5 820.167 409.5 804.5 409.5V397.5" stroke="black"/>
<path id="Vector 1995" d="M761.499 204.5V311.5M761.499 311.5H861M761.499 311.5V377L752 404.5M752 404.5H747M761.694 480.5L752.638 409.5L752 404.5M752.638 409.5H789.5" stroke="black"/>
<path id="Vector 1995_2" d="M860.5 516.5H815.5L764.5 502.5L763.097 491.5" stroke="black"/>
<path id="Vector 2131" d="M758.5 455H861" stroke="black"/>
<path id="Vector 1994" d="M762.5 131.5V148.5M762.5 191V171.5M762.5 171.5H759.5M762.5 171.5V148.5M762.5 148.5H759.5" stroke="black"/>
<path id="Vector 1992" d="M365.5 180.5L577 176.5V340.5M577 340.5L641.5 364.687M577 340.5L551.829 405M641.5 364.687L723.667 395.5L729 397.5L737 452L730.5 470L688 454.5M696 385.125L673.5 449L632 434M723.667 395.5L696 385.125L641.5 364.687M641.5 364.687L618.5 429.5L604.5 424.5M543.5 425L551.829 405M551.829 405L591.5 420M723.667 395.5L737 364.5V171.5H746" stroke="black"/>
<path id="Vector 1993" d="M745.5 131.5V149.5H748.5H742.5" stroke="black"/>
<path id="Vector 1998" d="M608 450L630 458" stroke="black"/>
<path id="Vector 1989" d="M729.5 68L787.5 68V81.5H788.858L799.5 81.5V47.5L763.5 47.5V53L729.501 53V43L800.001 43L861.001 43V132H729.5V68Z" fill="black"/>
<path id="Vector 1988" d="M799 85H777V126H799V85Z" fill="white"/>
<rect id="Rectangle 524" x="271.493" y="391" width="9" height="9" transform="rotate(22.8366 271.493 391)" fill="black"/>
<rect id="Rectangle 525" x="297.192" y="330" width="9" height="9" transform="rotate(53.0526 297.192 330)" fill="black"/>
<rect id="Rectangle 526" x="408.829" y="374.281" width="9" height="9" transform="rotate(108.23 408.829 374.281)" fill="black"/>
<rect id="Rectangle 562" x="518.665" y="416.287" width="9" height="9" transform="rotate(111.416 518.665 416.287)" fill="black"/>
<rect id="Rectangle 563" x="491.665" y="480.287" width="9" height="9" transform="rotate(111.416 491.665 480.287)" fill="black"/>
<rect id="Rectangle 527" x="385.363" y="434.816" width="9" height="9" transform="rotate(108.23 385.363 434.816)" fill="black"/>
<rect id="Rectangle 528" x="552.745" y="318.266" width="13.4142" height="10.0346" transform="rotate(108.23 552.745 318.266)" fill="black"/>
<rect id="Rectangle 532" x="365.773" y="248.975" width="9" height="8" transform="rotate(111.832 365.773 248.975)" fill="black"/>
<rect id="Rectangle 533" x="377.475" y="194.488" width="9" height="9" transform="rotate(93.1092 377.475 194.488)" fill="black"/>
<rect id="Rectangle 539" x="416" y="94" width="11" height="11" transform="rotate(90 416 94)" fill="black"/>
<rect id="Rectangle 540" x="529" y="103" width="13" height="10" transform="rotate(90 529 103)" fill="black"/>
<rect id="Rectangle 541" x="650" y="106" width="14" height="10" transform="rotate(90 650 106)" fill="black"/>
<rect id="Rectangle 542" x="672" y="220" width="14" height="10" transform="rotate(90 672 220)" fill="black"/>
<rect id="Rectangle 543" x="685.732" y="299.016" width="14" height="10" transform="rotate(120 685.732 299.016)" fill="black"/>
<ellipse id="Ellipse 5" cx="185" cy="185.5" rx="185" ry="185.5" fill="#737373"/>
<rect id="Rectangle 544" x="660.124" y="356.463" width="14" height="10" transform="rotate(110.861 660.124 356.463)" fill="black"/>
<rect id="Rectangle 545" x="620.227" y="457.502" width="8.6401" height="8.38368" transform="rotate(114.693 620.227 457.502)" fill="black"/>
<rect id="Rectangle 546" x="594.396" y="522.615" width="6.06055" height="8.65618" transform="rotate(114.693 594.396 522.615)" fill="black"/>
<rect id="Rectangle 547" x="700.396" y="564.615" width="6.06055" height="8.65618" transform="rotate(114.693 700.396 564.615)" fill="black"/>
<rect id="Rectangle 548" x="726.381" y="496.914" width="9.23595" height="9.43777" transform="rotate(113.38 726.381 496.914)" fill="black"/>
<rect id="Rectangle 549" x="789.279" y="598.188" width="6.92599" height="9.29344" transform="rotate(113.38 789.279 598.188)" fill="black"/>
<rect id="Rectangle 550" x="761.364" y="403.621" width="10.0574" height="9.12262" transform="rotate(113.38 761.364 403.621)" fill="black"/>
<rect id="Rectangle 565" x="790.123" y="316" width="10.0574" height="9.12262" transform="rotate(90 790.123 316)" fill="black"/>
<rect id="Rectangle 567" x="790.123" y="228" width="10.0574" height="9.12262" transform="rotate(90 790.123 228)" fill="black"/>
<rect id="Rectangle 568" x="858.123" y="228" width="10.0574" height="9.12262" transform="rotate(90 858.123 228)" fill="black"/>
<rect id="Rectangle 566" x="859.123" y="336" width="10.0574" height="9.12262" transform="rotate(90 859.123 336)" fill="black"/>
<rect id="Rectangle 564" x="862.123" y="445" width="10.0574" height="9.12262" transform="rotate(90 862.123 445)" fill="black"/>
<rect id="Rectangle 535" x="355.27" y="94.5234" width="10.758" height="9.87305" transform="rotate(149.694 355.27 94.5234)" fill="black"/>
<rect id="Rectangle 536" x="311.635" y="40.3516" width="11" height="9.87305" transform="rotate(130.036 311.635 40.3516)" fill="black"/>
<rect id="Rectangle 537" x="422.901" y="38.2695" width="11" height="5.85083" transform="rotate(-172.316 422.901 38.2695)" fill="black"/>
<rect id="Rectangle 551" x="533.331" y="50.8008" width="10.4136" height="5.53893" transform="rotate(-172.796 533.331 50.8008)" fill="black"/>
<rect id="Rectangle 552" x="651" y="51" width="10" height="5" transform="rotate(180 651 51)" fill="black"/>
<rect id="Rectangle 553" x="811" y="613" width="6" height="27" transform="rotate(-90 811 613)" fill="#8FB6F9"/>
<rect id="Rectangle 558" x="828" y="46" width="6" height="20" transform="rotate(-90 828 46)" fill="#8FB6F9"/>
<rect id="Rectangle 560" x="793" y="46" width="6" height="20" transform="rotate(-90 793 46)" fill="#8FB6F9"/>
<path id="Ellipse 1" d="M249.316 188.877C250.155 173.989 245.6 159.297 236.485 147.494C227.371 135.692 214.308 127.57 199.692 124.617C185.075 121.664 169.884 124.078 156.903 131.417C143.922 138.755 134.02 150.526 129.013 164.573C124.007 178.619 124.23 193.999 129.643 207.894C135.056 221.789 145.295 233.268 158.484 240.226C171.673 247.184 186.928 249.156 201.453 245.779C215.977 242.403 228.798 233.905 237.566 221.842L235.526 220.359C227.115 231.931 214.815 240.083 200.881 243.322C186.948 246.561 172.313 244.67 159.661 237.995C147.009 231.32 137.186 220.308 131.993 206.979C126.801 193.649 126.586 178.895 131.389 165.42C136.192 151.945 145.691 140.652 158.144 133.613C170.597 126.573 185.17 124.257 199.192 127.09C213.214 129.922 225.746 137.714 234.489 149.036C243.233 160.358 247.602 174.452 246.798 188.735L249.316 188.877Z" fill="black"/>
<rect id="Rectangle 554" x="785" y="610" width="6" height="26" transform="rotate(-90 785 610)" fill="black"/>
<rect id="Rectangle 555" x="838" y="610" width="6" height="23" transform="rotate(-90 838 610)" fill="black"/>
<path id="Rectangle 557" d="M853 130H861V216H853V130Z" fill="black"/>
<path id="Rectangle 556" d="M853 311V232.5V216H861V309V311V375H853V311Z" fill="black"/>
<g id="room_6">
<path id="Ellipse 2" d="M249.291 188.877C249.749 180.748 248.601 172.608 245.913 164.923C243.226 157.237 239.05 150.156 233.626 144.084C228.202 138.012 221.635 133.068 214.3 129.534C206.965 126 199.006 123.946 190.876 123.488C182.747 123.03 174.608 124.177 166.922 126.865C159.237 129.553 152.156 133.728 146.084 139.152C140.012 144.576 135.068 151.143 131.534 158.479C128 165.814 125.945 173.773 125.487 181.902L187.389 185.389L249.291 188.877Z" fill="#DF4E4E"/>
</g>
<path id="Vector 2125" d="M136 218L222.5 222" stroke="black" stroke-width="3"/>
<path id="Ellipse 4" d="M185 2C286.063 2 368 84.1507 368 185.5C368 286.849 286.063 369 185 369C83.937 369 2 286.849 2 185.5C2 84.1507 83.937 2 185 2Z" stroke="black" stroke-width="4"/>
<rect id="Rectangle 561" x="22.3662" y="95" width="6" height="34.6497" transform="rotate(24.4953 22.3662 95)" fill="#8FB6F9"/>
<path id="Vector 2126" d="M296.5 42.5L304 17.5L288.5 15L272.5 14L216.5 7L296.5 42.5Z" fill="#737373"/>
<path id="Vector 2127" d="M295.89 42.2598L302.5 17" stroke="black" stroke-width="4"/>
<path id="Vector 1979" d="M227.125 42.7273L235.192 12.5294L296.084 28.7309L288.446 59.4905L227.125 42.7273Z" fill="url(#paint0_linear_2_4021)"/>
<rect id="Rectangle 538" x="311.333" y="23.4727" width="8.57894" height="4.1618" transform="rotate(-166.246 311.333 23.4727)" fill="black"/>
<line id="Line 83" x1="817" y1="597.5" x2="854" y2="597.5" stroke="white"/>
<line id="Line 90" x1="811" y1="120.5" x2="853" y2="120.5" stroke="white"/>
<line id="Line 97" x1="811" y1="85.5" x2="853" y2="85.5" stroke="white"/>
<line id="Line 84" x1="817" y1="592.5" x2="854" y2="592.5" stroke="white"/>
<line id="Line 91" x1="811" y1="115.5" x2="853" y2="115.5" stroke="white"/>
<line id="Line 98" x1="811" y1="80.5" x2="853" y2="80.5" stroke="white"/>
<line id="Line 85" x1="817" y1="587.5" x2="854" y2="587.5" stroke="white"/>
<line id="Line 92" x1="811" y1="110.5" x2="853" y2="110.5" stroke="white"/>
<line id="Line 99" x1="811" y1="75.5" x2="853" y2="75.5" stroke="white"/>
<line id="Line 86" x1="817" y1="582.5" x2="854" y2="582.5" stroke="white"/>
<line id="Line 93" x1="811" y1="105.5" x2="853" y2="105.5" stroke="white"/>
<line id="Line 100" x1="811" y1="70.5" x2="853" y2="70.5" stroke="white"/>
<line id="Line 87" x1="817" y1="577.5" x2="854" y2="577.5" stroke="white"/>
<line id="Line 94" x1="811" y1="100.5" x2="853" y2="100.5" stroke="white"/>
<line id="Line 101" x1="811" y1="65.5" x2="853" y2="65.5" stroke="white"/>
<line id="Line 88" x1="817" y1="572.5" x2="854" y2="572.5" stroke="white"/>
<line id="Line 95" x1="811" y1="95.5" x2="853" y2="95.5" stroke="white"/>
<line id="Line 102" x1="811" y1="60.5" x2="853" y2="60.5" stroke="white"/>
<line id="Line 89" x1="817" y1="567.5" x2="854" y2="567.5" stroke="white"/>
<line id="Line 96" x1="811" y1="90.5" x2="853" y2="90.5" stroke="white"/>
<line id="Line 103" x1="811" y1="55.5" x2="853" y2="55.5" stroke="white"/>
<path id="Vector 2003" d="M861 521.5V342.5" stroke="#8FB6F9" stroke-width="6"/>
<path id="Vector 2128" d="M586.934 441.98L608 450L577.904 522L453.5 472.5L481.587 402L569.376 435.316" stroke="black"/>
<path id="Vector 2002" d="M187 373L786 607" stroke="#8FB6F9" stroke-width="6"/>
<path id="Vector 2129" d="M510.532 467.797L500.968 491.202" stroke="black"/>
<path id="Vector 2130" d="M530.982 421L527.75 429.34" stroke="black"/>
<path id="Vector 2132" d="M761.5 375H858" stroke="black"/>
<path id="Vector 2133" d="M761.5 216H859.5" stroke="black"/>
<g id="room_501">
<path id="poly" d="M761 68H713V141H761V68Z" fill="#375A6D"/>
<text id="label_area" transform="translate(716 127)" fill="white" style="white-space: pre" xml:space="preserve" font-family="Montserrat" font-size="10" letter-spacing="0em"><tspan x="0" y="9.585">00,00 &#x43c;&#xb2;</tspan></text>
<path id="label_lock" d="M731 102V99.5004C731 99.0745 731.028 98.6579 731.083 98.2504M743 102V99.5004C743 97.9769 742.629 96.4896 741.936 95.2363C741.243 93.983 740.262 93.0231 739.121 92.4845C737.981 91.9458 736.737 91.8539 735.554 92.221C734.372 92.588 733.306 93.3966 732.5 94.5392M736 117H733C730.172 117 728.757 117 727.879 115.901C727 114.804 727 113.035 727 109.5C727 105.965 727 104.197 727.879 103.099C728.757 102 730.172 102 733 102L741 102C743.828 102 745.243 102 746.121 103.099C747 104.197 747 105.965 747 109.5C747 113.035 747 114.804 746.121 115.901C745.243 117 743.828 117 741 117H740" stroke="#EADB5A" stroke-linecap="round"/>
<text id="label_price" transform="translate(717 99)" fill="white" style="white-space: pre" xml:space="preserve" font-family="Montserrat" font-size="10" letter-spacing="0em"><tspan x="0" y="9.585">&#x446;&#x435;&#x43d;&#x430;</tspan></text>
<text id="label_name" transform="translate(739 70)" fill="white" style="white-space: pre" xml:space="preserve" font-family="Montserrat" font-size="12" letter-spacing="0em"><tspan x="0" y="11.802">501</tspan></text>
<g id="label_busy">
<path id="form" d="M728.072 71.9292L733.928 71.9292L736.856 77.001L733.928 82.0728L728.072 82.0728L725.144 77.001L728.072 71.9292Z" fill="url(#paint1_radial_2_4021)"/>
<text id="&#209;&#129;&#208;&#180;&#208;&#176;&#208;&#189;" transform="translate(726 74.002)" fill="black" style="white-space: pre" xml:space="preserve" font-family="Montserrat" font-size="4" font-weight="500" letter-spacing="0em"><tspan x="0" y="3.934">&#x441;&#x434;&#x430;&#x43d;</tspan></text>
</g>
</g>
<path id="Vector 2156" d="M730 43.5H535L231.5 8.5" stroke="#8FB6F9" stroke-width="5"/>
<text id="WC" fill="white" style="white-space: pre" xml:space="preserve" font-family="Montserrat" font-size="10" letter-spacing="0em"><tspan x="765" y="81.585">WC</tspan></text>
</g>
<defs>
<linearGradient id="paint0_linear_2_4021" x1="287.364" y1="59.4005" x2="265.051" y2="36.1981" gradientUnits="userSpaceOnUse">
<stop offset="0.5"/>
<stop offset="0.502318" stop-color="#DF4E4E"/>
</linearGradient>
<radialGradient id="paint1_radial_2_4021" cx="0" cy="0" r="1" gradientUnits="userSpaceOnUse" gradientTransform="translate(734.012 74.993) rotate(130.972) scale(8.42133)">
<stop stop-color="#03CF21"/>
<stop offset="0.706731" stop-color="#20CDED"/>
</radialGradient>
</defs>
</svg>
