<svg width="861" height="612" viewBox="0 0 861 612" fill="none" xmlns="http://www.w3.org/2000/svg">
<g id="&#208;&#161;&#208;&#181;&#208;&#180;&#208;&#190;&#208;&#178;&#208;&#176; 24 6 &#209;&#141;&#209;&#130;&#208;&#176;&#208;&#182;">
<path id="Vector 1978" d="M785.5 606.84H860.5L860.5 42.8398L534.5 42.8398L360 21.5898L302 14.5268L272.75 10.9648L229.125 5.65234L207.312 2.99609L201.859 2.33203L199.133 2L196.728 2L185.055 2L175.5 2L165.61 2L155.5 3.33984L146 5.33984L136 7.83984L126.432 10.8398L118 13.8398L109.5 17.8398L99 22.8398L90.8884 27.3398L82.9442 32.8379L75 38.3359L68.5 43.3398L63 48.3398L54.5 56.8398L48 64.3398L38.5 76.3398L30 88.8398L22 100.34L16.5 111.34L14 119.345L11 129.34L8.5 138.84L5.5 147.84L4 157.34L2.5 164.34L2 171.34L2 177.84L2 185.09L2.5 194.715L3 204.34L4 213.34L6.55236 222.84L8.5 232.34L11 240.461L14 248.34L17.5 256.898L20 264.84L24.1119 272.84L28.5 280.84L33.5 288.038L41 297.84L47.5 305.34L57 315.34L63 321.84L69.5 326.84L76 332.84L86.5 340.34L97.5 346.34L105.5 350.84L113.824 354.34L130.5 361.239L148.791 365.34L167.146 368.84L185.5 369.84L785.5 606.84Z" fill="#DF4E4E"/>
<path id="Vector 1982" d="M861 521.5H811V607.134L861 607V521.5Z" fill="black"/>
<path id="Vector 1985" d="M705 190.5V43L730 43V53L763.5 53V47.5L800 47.5V81.5H787V68L730 68V171H737V199.848L705 190.5Z" fill="#D9D9D9"/>
<rect id="Rectangle 529" x="446.986" y="278.531" width="13.4142" height="10.0346" transform="rotate(111.45 446.986 278.531)" fill="black"/>
<rect id="Rectangle 530" x="472.245" y="213.67" width="13.4142" height="10.0346" transform="rotate(111.45 472.245 213.67)" fill="black"/>
<rect id="Rectangle 531" x="576.034" y="223" width="13.4142" height="10.0346" transform="rotate(90 576.034 223)" fill="black"/>
<rect id="Rectangle 534" x="416" y="94" width="11" height="11" transform="rotate(90 416 94)" fill="#D9D9D9"/>
<path id="Vector 2001" d="M781 538.5L787 540.5V578.5L777.5 601" stroke="black"/>
<path id="Vector 2000" d="M743 517V524.5L760.5 530.8M768 533.5L760.5 530.8M760.5 530.8L741 586" stroke="black"/>
<path id="Vector 1999" d="M741.5 500.5L741 497L722 490.144L644 462M722 490.144L693 567.5" stroke="black"/>
<path id="Vector 1997" d="M804.5 375.5V385" stroke="black"/>
<path id="Vector 1996" d="M855 409.5C852.2 409.5 820.167 409.5 804.5 409.5V397.5" stroke="black"/>
<path id="Vector 1995" d="M761.499 204.5V311.5M752 404.5L761.499 377V311.5M752 404.5H747M764.5 502.5L752.638 409.5L752 404.5M752.638 409.5H789.5M761.499 311.5H861" stroke="black"/>
<path id="Vector 1994" d="M762.5 131.5V148.5M762.5 191V171.5M762.5 171.5H759.5M762.5 171.5V148.5M762.5 148.5H759.5" stroke="black"/>
<path id="Vector 1992" d="M365.5 180.5L577 176.5V340.5M577 340.5L641.5 364.687M577 340.5L551.829 405M641.5 364.687L723.667 395.5L729 397.5L737 452L730.5 470L688 454.5M696 385.125L673.5 449L632 434M723.667 395.5L696 385.125L641.5 364.687M641.5 364.687L618.5 429.5L604.5 424.5M544 424L551.829 405M551.829 405L591.5 420M723.667 395.5L737 364.5V171.5H746" stroke="black"/>
<path id="Vector 1993" d="M745.5 131.5V149.5H748.5H742.5" stroke="black"/>
<path id="Vector 1998" d="M609 450L629.5 457.5" stroke="black"/>
<path id="Vector 1989" d="M729.5 68L787 68V81.5H788.858L799.5 81.5V47.5L763.5 47.5V53L729.501 53V43L800.001 43L861.001 43V132H729.5V68Z" fill="black"/>
<path id="Vector 1987" d="M751.5 69H743V74H737.5V125.5H757V74H751.5V69Z" fill="white"/>
<path id="Vector 1988" d="M799 85H777V126H799V85Z" fill="white"/>
<rect id="Rectangle 524" x="271.493" y="391" width="9" height="9" transform="rotate(22.8366 271.493 391)" fill="black"/>
<rect id="Rectangle 525" x="297.192" y="330" width="9" height="9" transform="rotate(53.0526 297.192 330)" fill="black"/>
<rect id="Rectangle 526" x="408.829" y="374.281" width="9" height="9" transform="rotate(108.23 408.829 374.281)" fill="black"/>
<rect id="Rectangle 527" x="384.753" y="436.434" width="9" height="9" transform="rotate(112.424 384.753 436.434)" fill="black"/>
<rect id="Rectangle 528" x="552.745" y="318.266" width="13.4142" height="10.0346" transform="rotate(108.23 552.745 318.266)" fill="black"/>
<rect id="Rectangle 532" x="365.773" y="248.975" width="9" height="8" transform="rotate(111.832 365.773 248.975)" fill="black"/>
<rect id="Rectangle 533" x="377.475" y="194.488" width="9" height="9" transform="rotate(93.1092 377.475 194.488)" fill="black"/>
<rect id="Rectangle 539" x="416" y="94" width="11" height="11" transform="rotate(90 416 94)" fill="black"/>
<rect id="Rectangle 540" x="529" y="103" width="13" height="10" transform="rotate(90 529 103)" fill="black"/>
<rect id="Rectangle 541" x="650" y="106" width="14" height="10" transform="rotate(90 650 106)" fill="black"/>
<rect id="Rectangle 542" x="672" y="220" width="14" height="10" transform="rotate(90 672 220)" fill="black"/>
<rect id="Rectangle 543" x="685.805" y="299.18" width="14" height="10" transform="rotate(121.19 685.805 299.18)" fill="black"/>
<ellipse id="Ellipse 5" cx="185" cy="185.5" rx="185" ry="185.5" fill="#737373"/>
<rect id="Rectangle 544" x="658.935" y="359.178" width="14" height="10" transform="rotate(114.693 658.935 359.178)" fill="black"/>
<rect id="Rectangle 545" x="620.227" y="457.502" width="8.6401" height="8.38368" transform="rotate(114.693 620.227 457.502)" fill="black"/>
<rect id="Rectangle 546" x="595.396" y="522.615" width="6.06055" height="8.65618" transform="rotate(114.693 595.396 522.615)" fill="black"/>
<rect id="Rectangle 547" x="699.325" y="563.281" width="6.06055" height="8.65618" transform="rotate(110.997 699.325 563.281)" fill="black"/>
<rect id="Rectangle 548" x="726.381" y="496.914" width="9.23595" height="9.43777" transform="rotate(113.38 726.381 496.914)" fill="black"/>
<rect id="Rectangle 549" x="788.779" y="598.688" width="6.92599" height="9.29344" transform="rotate(113.38 788.779 598.688)" fill="black"/>
<rect id="Rectangle 550" x="761.364" y="403.621" width="10.0574" height="9.12262" transform="rotate(113.38 761.364 403.621)" fill="black"/>
<rect id="Rectangle 535" x="355.27" y="94.5234" width="10.758" height="9.87305" transform="rotate(149.694 355.27 94.5234)" fill="black"/>
<rect id="Rectangle 536" x="311.635" y="40.3516" width="11" height="9.87305" transform="rotate(130.036 311.635 40.3516)" fill="black"/>
<rect id="Rectangle 537" x="422.901" y="38.2695" width="11" height="5.85083" transform="rotate(-172.316 422.901 38.2695)" fill="black"/>
<rect id="Rectangle 551" x="533.331" y="50.8008" width="10.4136" height="5.53893" transform="rotate(-172.796 533.331 50.8008)" fill="black"/>
<rect id="Rectangle 552" x="651" y="51" width="10" height="5" transform="rotate(180 651 51)" fill="black"/>
<rect id="Rectangle 553" x="811" y="612" width="6" height="27" transform="rotate(-90 811 612)" fill="#8FB6F9"/>
<rect id="Rectangle 558" x="828" y="46" width="6" height="20" transform="rotate(-90 828 46)" fill="#8FB6F9"/>
<rect id="Rectangle 560" x="793" y="46" width="6" height="20" transform="rotate(-90 793 46)" fill="#8FB6F9"/>
<path id="Ellipse 1" d="M249.316 188.877C250.155 173.989 245.6 159.297 236.485 147.494C227.371 135.692 214.308 127.57 199.692 124.617C185.075 121.664 169.884 124.078 156.903 131.417C143.922 138.755 134.02 150.526 129.013 164.573C124.007 178.619 124.23 193.999 129.643 207.894C135.056 221.789 145.295 233.268 158.484 240.226C171.673 247.184 186.928 249.156 201.453 245.779C215.977 242.403 228.798 233.905 237.566 221.842L235.526 220.359C227.115 231.931 214.815 240.083 200.881 243.322C186.948 246.561 172.313 244.67 159.661 237.995C147.009 231.32 137.186 220.308 131.993 206.979C126.801 193.649 126.586 178.895 131.389 165.42C136.192 151.945 145.691 140.652 158.144 133.613C170.597 126.573 185.17 124.257 199.192 127.09C213.214 129.922 225.746 137.714 234.489 149.036C243.233 160.358 247.602 174.452 246.798 188.735L249.316 188.877Z" fill="black"/>
<rect id="Rectangle 554" x="785" y="610" width="6" height="26" transform="rotate(-90 785 610)" fill="black"/>
<rect id="Rectangle 555" x="838" y="610" width="6" height="23" transform="rotate(-90 838 610)" fill="black"/>
<path id="Rectangle 557" d="M853 130H861V216H853V130Z" fill="black"/>
<path id="Rectangle 556" d="M853 311H858V216H861V309V311V375H853V311Z" fill="black"/>
<path id="label_lock" d="M774.8 335V332C774.8 331.489 774.834 330.989 774.9 330.5M789.2 335V332C789.2 330.172 788.755 328.387 787.923 326.884C787.092 325.38 785.914 324.228 784.545 323.581C783.177 322.935 781.684 322.825 780.265 323.265C778.846 323.706 777.567 324.676 776.6 326.047M780.8 353H777.2C773.806 353 772.108 353 771.055 351.682C770 350.365 770 348.242 770 344C770 339.758 770 337.636 771.055 336.319C772.108 335 773.806 335 777.2 335H786.8C790.194 335 791.892 335 792.945 336.319C794 337.636 794 339.758 794 344C794 348.242 794 350.365 792.945 351.682C791.892 353 790.194 353 786.8 353H785.6" stroke="#EADB5A" stroke-linecap="round"/>
<g id="room_603">
<path id="poly" d="M861 455H759L764.813 503.138L815.549 516H861V455Z" fill="#375A6D"/>
<text id="label_area" transform="translate(804 499)" fill="white" style="white-space: pre" xml:space="preserve" font-family="Montserrat" font-size="12" letter-spacing="0em"><tspan x="0" y="11.802">00,00 &#x43c;&#xb2;</tspan></text>
<path id="label_lock_2" d="M808 480V477.5C808 477.074 808.028 476.658 808.083 476.25M820 480V477.5C820 475.977 819.629 474.49 818.936 473.236C818.243 471.983 817.262 471.023 816.121 470.485C814.981 469.946 813.737 469.854 812.554 470.221C811.372 470.588 810.306 471.397 809.5 472.539M813 495H810C807.172 495 805.757 495 804.879 493.901C804 492.804 804 491.035 804 487.5C804 483.965 804 482.197 804.879 481.099C805.757 480 807.172 480 810 480H818C820.828 480 822.243 480 823.121 481.099C824 482.197 824 483.965 824 487.5C824 491.035 824 492.804 823.121 493.901C822.243 495 820.828 495 818 495H817" stroke="#EADB5A" stroke-linecap="round"/>
<text id="label_price" transform="translate(766 474)" fill="white" style="white-space: pre" xml:space="preserve" font-family="Montserrat" font-size="12" letter-spacing="0em"><tspan x="0" y="11.802">&#x446;&#x435;&#x43d;&#x430;</tspan></text>
<text id="label_name" transform="translate(835 457)" fill="white" style="white-space: pre" xml:space="preserve" font-family="Montserrat" font-size="12" letter-spacing="0em"><tspan x="0" y="11.802">603</tspan></text>
<g id="label_busy">
<path id="form" d="M824.072 459.933L829.928 459.933L832.856 465.004L829.928 470.076L824.072 470.076L821.144 465.004L824.072 459.933Z" fill="url(#paint0_radial_2_4131)"/>
<text id="&#209;&#129;&#208;&#180;&#208;&#176;&#208;&#189;" transform="translate(822 462.005)" fill="black" style="white-space: pre" xml:space="preserve" font-family="Montserrat" font-size="4" font-weight="500" letter-spacing="0em"><tspan x="0" y="3.934">&#x441;&#x434;&#x430;&#x43d;</tspan></text>
</g>
</g>
<g id="room_604">
<path id="poly_2" d="M249.291 188.877C249.749 180.748 248.601 172.608 245.913 164.923C243.225 157.237 239.05 150.156 233.626 144.084C228.202 138.012 221.635 133.068 214.3 129.534C206.965 126 199.005 123.946 190.876 123.488C182.747 123.03 174.607 124.177 166.922 126.865C159.236 129.553 152.155 133.728 146.084 139.152C140.012 144.576 135.067 151.143 131.533 158.479C127.999 165.814 125.945 173.773 125.487 181.902L187.389 185.389L249.291 188.877Z" fill="#375A6D"/>
<text id="label_area_2" transform="translate(185.843 169) rotate(3.22)" fill="white" style="white-space: pre" xml:space="preserve" font-family="Montserrat" font-size="12" letter-spacing="0em"><tspan x="0" y="11.802">00,00 &#x43c;&#xb2;</tspan></text>
<path id="label_lock_3" d="M180.836 150.209L180.976 147.713C181 147.288 181.052 146.874 181.13 146.47M192.817 150.883L192.957 148.387C193.043 146.866 192.756 145.36 192.135 144.07C191.513 142.78 190.588 141.766 189.479 141.165C188.371 140.563 187.134 140.401 185.932 140.701C184.731 141.001 183.622 141.749 182.753 142.844M184.986 165.466L181.99 165.298C179.167 165.139 177.754 165.059 176.939 163.913C176.123 162.768 176.223 161.002 176.421 157.473C176.62 153.943 176.719 152.177 177.658 151.131C178.597 150.083 180.009 150.163 182.833 150.322L190.82 150.771C193.644 150.93 195.057 151.009 195.871 152.156C196.687 153.301 196.588 155.067 196.389 158.596C196.191 162.125 196.092 163.891 195.152 164.938C194.214 165.985 192.801 165.906 189.978 165.747L188.979 165.691" stroke="#EADB5A" stroke-linecap="round"/>
<text id="label_price_2" transform="translate(138.843 148) rotate(3.22)" fill="white" style="white-space: pre" xml:space="preserve" font-family="Montserrat" font-size="12" letter-spacing="0em"><tspan x="0" y="11.802">&#x446;&#x435;&#x43d;&#x430;</tspan></text>
<text id="label_name_2" transform="translate(205.874 136.003) rotate(3.22)" fill="white" style="white-space: pre" xml:space="preserve" font-family="Montserrat" font-size="12" letter-spacing="0em"><tspan x="0" y="11.802">604</tspan></text>
<g id="label_busy_2">
<path id="form_2" d="M194.798 138.208L200.645 138.537L203.284 143.766L200.075 148.665L194.228 148.336L191.59 143.108L194.798 138.208Z" fill="url(#paint1_radial_2_4131)"/>
<text id="&#209;&#129;&#208;&#180;&#208;&#176;&#208;&#189;_2" transform="translate(192.613 140.162) rotate(3.22)" fill="black" style="white-space: pre" xml:space="preserve" font-family="Montserrat" font-size="4" font-weight="500" letter-spacing="0em"><tspan x="0" y="3.934">&#x441;&#x434;&#x430;&#x43d;</tspan></text>
</g>
</g>
<g id="room_605">
<path id="poly_3" d="M481.5 398.5L449.5 474.098L578.556 525L609 450L481.5 398.5Z" fill="#375A6D"/>
<text id="label_area_3" transform="translate(533.292 488) rotate(20.66)" fill="white" style="white-space: pre" xml:space="preserve" font-family="Montserrat" font-size="12" letter-spacing="0em"><tspan x="0" y="11.802">00,00 &#x43c;&#xb2;</tspan></text>
<path id="label_lock_4" d="M526.035 453.768L526.917 451.429C527.067 451.031 527.24 450.651 527.435 450.289M537.263 458.002L538.145 455.663C538.683 454.238 538.86 452.715 538.654 451.298C538.448 449.881 537.868 448.636 536.991 447.73C536.114 446.824 534.983 446.299 533.746 446.225C532.511 446.151 531.228 446.532 530.071 447.316M525.421 469.568L522.614 468.509C519.968 467.511 518.644 467.012 518.21 465.674C517.775 464.337 518.399 462.682 519.646 459.375C520.893 456.067 521.517 454.412 522.727 453.695C523.936 452.977 525.26 453.476 527.906 454.474L535.392 457.297C538.038 458.294 539.362 458.794 539.796 460.132C540.231 461.469 539.607 463.124 538.36 466.431C537.112 469.739 536.488 471.394 535.279 472.11C534.07 472.829 532.746 472.33 530.099 471.332L529.164 470.979" stroke="#EADB5A" stroke-linecap="round"/>
<text id="label_price_3" transform="translate(474.292 430) rotate(20.66)" fill="white" style="white-space: pre" xml:space="preserve" font-family="Montserrat" font-size="12" letter-spacing="0em"><tspan x="0" y="11.802">&#x446;&#x435;&#x43d;&#x430;</tspan></text>
<text id="label_name_3" transform="translate(582.292 442) rotate(20.66)" fill="white" style="white-space: pre" xml:space="preserve" font-family="Montserrat" font-size="12" letter-spacing="0em"><tspan x="0" y="11.802">605</tspan></text>
<g id="label_busy_3">
<path id="form_3" d="M572.357 439.531L577.837 441.597L578.788 447.376L574.258 451.088L568.778 449.022L567.828 443.243L572.357 439.531Z" fill="url(#paint2_radial_2_4131)"/>
<text id="&#209;&#129;&#208;&#180;&#208;&#176;&#208;&#189;_3" transform="translate(569.688 440.739) rotate(20.66)" fill="black" style="white-space: pre" xml:space="preserve" font-family="Montserrat" font-size="4" font-weight="500" letter-spacing="0em"><tspan x="0" y="3.934">&#x441;&#x434;&#x430;&#x43d;</tspan></text>
</g>
</g>
<g id="room_601">
<path id="poly_4" d="M762 312H857V342.5H858V346.5V350.5V358.745V375H762V312Z" fill="#375A6D"/>
<text id="label_area_4" transform="translate(801 357)" fill="white" style="white-space: pre" xml:space="preserve" font-family="Montserrat" font-size="12" letter-spacing="0em"><tspan x="0" y="11.802">00,00 &#x43c;&#xb2;</tspan></text>
<path id="label_lock_5" d="M806 338V335.5C806 335.074 806.028 334.658 806.083 334.25M818 338V335.5C818 333.977 817.629 332.49 816.936 331.236C816.243 329.983 815.262 329.023 814.121 328.485C812.981 327.946 811.737 327.854 810.554 328.221C809.372 328.588 808.306 329.397 807.5 330.539M811 353H808C805.172 353 803.757 353 802.879 351.901C802 350.804 802 349.035 802 345.5C802 341.965 802 340.197 802.879 339.099C803.757 338 805.172 338 808 338H816C818.828 338 820.243 338 821.121 339.099C822 340.197 822 341.965 822 345.5C822 349.035 822 350.804 821.121 351.901C820.243 353 818.828 353 816 353H815" stroke="#EADB5A" stroke-linecap="round"/>
<text id="label_price_4" transform="translate(764 333)" fill="white" style="white-space: pre" xml:space="preserve" font-family="Montserrat" font-size="12" letter-spacing="0em"><tspan x="0" y="11.802">&#x446;&#x435;&#x43d;&#x430;</tspan></text>
<text id="label_name_4" transform="translate(832 315)" fill="white" style="white-space: pre" xml:space="preserve" font-family="Montserrat" font-size="12" letter-spacing="0em"><tspan x="0" y="11.802">601</tspan></text>
<g id="label_busy_4">
<path id="form_4" d="M821.072 317.933L826.928 317.933L829.856 323.005L826.928 328.077L821.072 328.077L818.144 323.005L821.072 317.933Z" fill="url(#paint3_radial_2_4131)"/>
<text id="&#209;&#129;&#208;&#180;&#208;&#176;&#208;&#189;_4" transform="translate(819 320.006)" fill="black" style="white-space: pre" xml:space="preserve" font-family="Montserrat" font-size="4" font-weight="500" letter-spacing="0em"><tspan x="0" y="3.934">&#x441;&#x434;&#x430;&#x43d;</tspan></text>
</g>
</g>
<path id="Vector 2125" d="M136 218L222.5 222" stroke="black" stroke-width="3"/>
<path id="Ellipse 4" d="M185 2C286.063 2 368 84.1507 368 185.5C368 286.849 286.063 369 185 369C83.937 369 2 286.849 2 185.5C2 84.1507 83.937 2 185 2Z" stroke="black" stroke-width="4"/>
<path id="Vector 2002" d="M187 373.5L786 607" stroke="#8FB6F9" stroke-width="6"/>
<rect id="Rectangle 561" x="22.3662" y="95" width="6" height="34.6497" transform="rotate(24.4953 22.3662 95)" fill="#8FB6F9"/>
<path id="Vector 2126" d="M296.5 42.5L304 17.5L288.5 15L272.5 14L216.5 7L296.5 42.5Z" fill="#737373"/>
<path id="Vector 2127" d="M295.89 42.2598L302.5 17" stroke="black" stroke-width="4"/>
<path id="Vector 1979" d="M227.125 42.7273L235.192 12.5294L296.084 28.7309L288.446 59.4905L227.125 42.7273Z" fill="url(#paint4_linear_2_4131)"/>
<rect id="Rectangle 538" x="311.333" y="23.4727" width="8.57894" height="4.1618" transform="rotate(-166.246 311.333 23.4727)" fill="black"/>
<line id="Line 83" x1="817" y1="597.5" x2="854" y2="597.5" stroke="white"/>
<line id="Line 90" x1="811" y1="120.5" x2="853" y2="120.5" stroke="white"/>
<line id="Line 97" x1="811" y1="85.5" x2="853" y2="85.5" stroke="white"/>
<line id="Line 84" x1="817" y1="592.5" x2="854" y2="592.5" stroke="white"/>
<line id="Line 91" x1="811" y1="115.5" x2="853" y2="115.5" stroke="white"/>
<line id="Line 98" x1="811" y1="80.5" x2="853" y2="80.5" stroke="white"/>
<line id="Line 85" x1="817" y1="587.5" x2="854" y2="587.5" stroke="white"/>
<line id="Line 92" x1="811" y1="110.5" x2="853" y2="110.5" stroke="white"/>
<line id="Line 99" x1="811" y1="75.5" x2="853" y2="75.5" stroke="white"/>
<line id="Line 86" x1="817" y1="582.5" x2="854" y2="582.5" stroke="white"/>
<line id="Line 93" x1="811" y1="105.5" x2="853" y2="105.5" stroke="white"/>
<line id="Line 100" x1="811" y1="70.5" x2="853" y2="70.5" stroke="white"/>
<line id="Line 87" x1="817" y1="577.5" x2="854" y2="577.5" stroke="white"/>
<line id="Line 94" x1="811" y1="100.5" x2="853" y2="100.5" stroke="white"/>
<line id="Line 101" x1="811" y1="65.5" x2="853" y2="65.5" stroke="white"/>
<line id="Line 88" x1="817" y1="572.5" x2="854" y2="572.5" stroke="white"/>
<line id="Line 95" x1="811" y1="95.5" x2="853" y2="95.5" stroke="white"/>
<line id="Line 102" x1="811" y1="60.5" x2="853" y2="60.5" stroke="white"/>
<line id="Line 89" x1="817" y1="567.5" x2="854" y2="567.5" stroke="white"/>
<line id="Line 96" x1="811" y1="90.5" x2="853" y2="90.5" stroke="white"/>
<line id="Line 103" x1="811" y1="55.5" x2="853" y2="55.5" stroke="white"/>
<path id="Vector 2003" d="M861 521.5V342.5" stroke="#8FB6F9" stroke-width="6"/>
<g id="room_602">
<path id="poly_5" d="M762 216L859 216V311H762V216Z" fill="#375A6D"/>
<text id="label_area_5" transform="translate(802 293)" fill="white" style="white-space: pre" xml:space="preserve" font-family="Montserrat" font-size="12" letter-spacing="0em"><tspan x="0" y="11.802">00,00 &#x43c;&#xb2;</tspan></text>
<path id="label_lock_6" d="M806 261V258.5C806 258.074 806.028 257.658 806.083 257.25M818 261V258.5C818 256.977 817.629 255.49 816.936 254.236C816.243 252.983 815.262 252.023 814.121 251.485C812.981 250.946 811.737 250.854 810.554 251.221C809.372 251.588 808.306 252.397 807.5 253.539M811 276H808C805.172 276 803.757 276 802.879 274.901C802 273.804 802 272.035 802 268.5C802 264.965 802 263.197 802.879 262.099C803.757 261 805.172 261 808 261H816C818.828 261 820.243 261 821.121 262.099C822 263.197 822 264.965 822 268.5C822 272.035 822 273.804 821.121 274.901C820.243 276 818.828 276 816 276H815" stroke="#EADB5A" stroke-linecap="round"/>
<text id="label_price_5" transform="translate(764 253)" fill="white" style="white-space: pre" xml:space="preserve" font-family="Montserrat" font-size="12" letter-spacing="0em"><tspan x="0" y="11.802">&#x446;&#x435;&#x43d;&#x430;</tspan></text>
<text id="label_name_5" transform="translate(832 220)" fill="white" style="white-space: pre" xml:space="preserve" font-family="Montserrat" font-size="12" letter-spacing="0em"><tspan x="0" y="11.802">602</tspan></text>
<g id="label_busy_5">
<path id="form_5" d="M821.072 222.937L826.928 222.937L829.856 228.008L826.928 233.08L821.072 233.08L818.144 228.008L821.072 222.937Z" fill="url(#paint5_radial_2_4131)"/>
<text id="&#209;&#129;&#208;&#180;&#208;&#176;&#208;&#189;_5" transform="translate(819 225.009)" fill="black" style="white-space: pre" xml:space="preserve" font-family="Montserrat" font-size="4" font-weight="500" letter-spacing="0em"><tspan x="0" y="3.934">&#x441;&#x434;&#x430;&#x43d;</tspan></text>
</g>
</g>
<path id="Vector 2156" d="M729 43H534L232 8.5" stroke="#8FB6F9" stroke-width="5"/>
<text id="WC" fill="white" style="white-space: pre" xml:space="preserve" font-family="Montserrat" font-size="10" letter-spacing="0em"><tspan x="763" y="80.585">WC</tspan></text>
</g>
<defs>
<radialGradient id="paint0_radial_2_4131" cx="0" cy="0" r="1" gradientUnits="userSpaceOnUse" gradientTransform="translate(830.012 462.996) rotate(130.972) scale(8.42133)">
<stop stop-color="#03CF21"/>
<stop offset="0.706731" stop-color="#20CDED"/>
</radialGradient>
<radialGradient id="paint1_radial_2_4131" cx="0" cy="0" r="1" gradientUnits="userSpaceOnUse" gradientTransform="translate(200.557 141.601) rotate(134.192) scale(8.42133)">
<stop stop-color="#03CF21"/>
<stop offset="0.706731" stop-color="#20CDED"/>
</radialGradient>
<radialGradient id="paint2_radial_2_4131" cx="0" cy="0" r="1" gradientUnits="userSpaceOnUse" gradientTransform="translate(576.834 444.493) rotate(151.632) scale(8.42133)">
<stop stop-color="#03CF21"/>
<stop offset="0.706731" stop-color="#20CDED"/>
</radialGradient>
<radialGradient id="paint3_radial_2_4131" cx="0" cy="0" r="1" gradientUnits="userSpaceOnUse" gradientTransform="translate(827.012 320.997) rotate(130.972) scale(8.42133)">
<stop stop-color="#03CF21"/>
<stop offset="0.706731" stop-color="#20CDED"/>
</radialGradient>
<linearGradient id="paint4_linear_2_4131" x1="287.364" y1="59.4005" x2="265.051" y2="36.1981" gradientUnits="userSpaceOnUse">
<stop offset="0.5"/>
<stop offset="0.502318" stop-color="#DF4E4E"/>
</linearGradient>
<radialGradient id="paint5_radial_2_4131" cx="0" cy="0" r="1" gradientUnits="userSpaceOnUse" gradientTransform="translate(827.012 226) rotate(130.972) scale(8.42133)">
<stop stop-color="#03CF21"/>
<stop offset="0.706731" stop-color="#20CDED"/>
</radialGradient>
</defs>
</svg>
