<svg width="40" height="46" viewBox="-6 -6 52 58" fill="none" xmlns="http://www.w3.org/2000/svg">
    <g transform="translate(20, 21) scale(1.26) translate(-20, -21)">
        <path
            fill="#375A6D"
            d="M0 1.22104C0 0.547109 0.542685 0.000782013 1.21212 0.000782013H1.51515C2.18459 0.000782013 2.72727 0.547109 2.72727 1.22104V38.9269C2.72727 39.6009 2.18459 40.1472 1.51515 40.1472H1.21212C0.542685 40.1472 0 39.6009 0 38.9269V1.22104ZM37.2727 1.22104C37.2727 0.547109 37.8154 0.000782013 38.4848 0.000782013H40V40.1472H38.4848C37.8154 40.1472 37.2727 39.6009 37.2727 38.9269V1.22104ZM1.33333 40.1472C0.663897 40.1472 0.121212 39.6009 0.121212 38.9269V38.6218C0.121212 37.9479 0.663897 37.4016 1.33333 37.4016H38.7879C39.4573 37.4016 40 37.9479 40 38.6218V40.1472H1.33333ZM1.33333 2.74635C0.663897 2.74635 0.121212 2.20003 0.121212 1.5261V1.22104C0.121212 0.547108 0.663897 0.000782013 1.33333 0.000782013H12.303V1.5261C12.303 2.20003 11.7604 2.74635 11.0909 2.74635H1.33333ZM29.0303 2.74635C28.3608 2.74635 27.8182 2.20003 27.8182 1.5261V1.22104C27.8182 0.547108 28.3608 0.000782013 29.0303 0.000782013H40V1.5261C40 2.20003 39.4573 2.74635 38.7879 2.74635H29.0303ZM11.1436 2.76948C10.6859 2.27811 10.7104 1.50638 11.1981 1.0453L12.303 0.000782013L24.2261 12.8025C24.6838 13.2939 24.6593 14.0656 24.1716 14.5267L23.951 14.7353C23.4627 15.1969 22.6951 15.1723 22.237 14.6804L11.1436 2.76948Z"
        />
    </g>
</svg>
