<svg width="14" height="14" viewBox="0 0 14 14" fill="none" xmlns="http://www.w3.org/2000/svg">
<path d="M8.75 2.68333C8.75 2.35664 8.75 2.19329 8.68642 2.06851C8.63049 1.95874 8.54126 1.86951 8.43149 1.81358C8.30671 1.75 8.14336 1.75 7.81667 1.75H6.18333C5.85664 1.75 5.69329 1.75 5.56851 1.81358C5.45874 1.86951 5.36951 1.95874 5.31358 2.06851C5.25 2.19329 5.25 2.35664 5.25 2.68333V4.31667C5.25 4.64336 5.25 4.80671 5.18642 4.93149C5.13049 5.04126 5.04126 5.13049 4.93149 5.18642C4.80671 5.25 4.64336 5.25 4.31667 5.25H2.68333C2.35664 5.25 2.19329 5.25 2.06851 5.31358C1.95874 5.3695 1.86951 5.45874 1.81358 5.5685C1.75 5.69329 1.75 5.85664 1.75 6.18333V7.81667C1.75 8.14336 1.75 8.30671 1.81358 8.43149C1.86951 8.54126 1.95874 8.63049 2.06851 8.68642C2.19329 8.75 2.35664 8.75 2.68333 8.75H4.31667C4.64336 8.75 4.80671 8.75 4.93149 8.81358C5.04126 8.86951 5.13049 8.95874 5.18642 9.0685C5.25 9.19329 5.25 9.35664 5.25 9.68333V11.3167C5.25 11.6434 5.25 11.8067 5.31358 11.9315C5.36951 12.0413 5.45874 12.1305 5.56851 12.1864C5.69329 12.25 5.85664 12.25 6.18333 12.25H7.81667C8.14336 12.25 8.30671 12.25 8.43149 12.1864C8.54126 12.1305 8.63049 12.0413 8.68642 11.9315C8.75 11.8067 8.75 11.6434 8.75 11.3167V9.68333C8.75 9.35664 8.75 9.19329 8.81358 9.0685C8.86951 8.95874 8.95874 8.86951 9.0685 8.81358C9.19329 8.75 9.35664 8.75 9.68333 8.75H11.3167C11.6434 8.75 11.8067 8.75 11.9315 8.68642C12.0413 8.63049 12.1305 8.54126 12.1864 8.43149C12.25 8.30671 12.25 8.14336 12.25 7.81667V6.18333C12.25 5.85664 12.25 5.69329 12.1864 5.56851C12.1305 5.45874 12.0413 5.36951 11.9315 5.31358C11.8067 5.25 11.6434 5.25 11.3167 5.25L9.68333 5.25C9.35664 5.25 9.19329 5.25 9.0685 5.18642C8.95874 5.13049 8.86951 5.04126 8.81358 4.93149C8.75 4.80671 8.75 4.64336 8.75 4.31667V2.68333Z" fill="currentColor"/>
</svg>
